<?xml version="1.0" standalone="no"?>
<!DOCTYPE svg PUBLIC "-//W3C//DTD SVG 1.1//EN" "http://www.w3.org/Graphics/SVG/1.1/DTD/svg11.dtd" >
<svg xmlns="http://www.w3.org/2000/svg" xmlns:xlink="http://www.w3.org/1999/xlink" version="1.1">
<metadata>
Created by FontForge 20161116 at Sat Oct 17 11:48:26 2015
 By Jimmy Wärting
Copyright \(c\) 2015 by DearType, Veneta Rangelova. All rights reserved.
</metadata>
<defs>
<font id="Lifehack-Bold" horiz-adv-x="0" >
  <font-face 
    font-family="Lifehack Bold"
    font-weight="700"
    font-stretch="normal"
    units-per-em="1000"
    panose-1="0 0 8 0 0 0 0 0 0 0"
    ascent="730"
    descent="-270"
    x-height="449"
    cap-height="805"
    bbox="-670 -473 2354 1088"
    underline-thickness="50"
    underline-position="-100"
    unicode-range="U+0020-FB02"
  />
<missing-glyph horiz-adv-x="500" 
d="M410 730v-1000h-317v1000h317zM333 663h-165v-33h65v-37h-66v-33h166v33h-66v37h66v33zM267 534h-100v-104h166v34h-66v70zM233 500v-36h-33v36h33zM333 403h-166v-33h66v-37h-66v-33h100v70h66v33zM333 343h-33v-66h-133v-34h166v100zM333 221h-100v-56h34v23h33v-47
h-100v80h-33v-113h166v113zM333 48h-166v-113h166v113zM300 15v-47h-100v47h100zM333 -88h-166v-33h70l-70 -47v-33h166v33h-102l70 47h32v33z" />
    <glyph glyph-name="fi" unicode="fi" horiz-adv-x="560" 
d="M414 386c54 0 82 -28 82 -81c0 -95 -6 -173 -6 -298c-23 -16 -42 -23 -63 -23c-66 0 -74 53 -74 141c0 39 2 83 3 134c-20 -26 -51 -46 -92 -46c-9 0 -17 1 -26 2c22 -35 34 -91 34 -163c0 -171 -60 -298 -145 -298c-95 0 -138 143 -138 413c0 335 56 535 168 535
c35 0 66 -21 85 -57c-7 -81 -51 -189 -99 -244c0 -29 0 -51 -1 -74c38 -32 80 -54 124 -54c71 0 88 94 90 105c18 3 37 8 58 8zM419 412c-48 0 -64 62 -64 88c0 30 37 52 83 52c39 0 67 -26 67 -60c0 -36 -48 -80 -86 -80zM146 -139c7 0 44 94 44 215c0 71 -16 123 -50 155
c0 -28 -1 -61 -1 -105c-1 -129 -2 -265 7 -265z" />
    <glyph glyph-name="fl" unicode="fl" horiz-adv-x="770" 
d="M810 331c27 5 37 -12 37 -29c0 -69 -185 -299 -326 -299c-94 0 -157 81 -167 231c-23 -19 -56 -33 -101 -33h-7c17 -35 26 -86 26 -149c0 -171 -60 -298 -145 -298c-95 0 -138 143 -138 413c0 335 56 535 168 535c35 0 66 -21 85 -57c-7 -81 -51 -189 -99 -244
c0 -29 0 -51 -1 -74c38 -32 80 -54 124 -54c66 0 78 42 95 105c27 175 117 334 214 334c48 0 82 -36 82 -87c0 -125 -95 -293 -160 -396c8 -84 32 -139 63 -139c55 0 169 113 250 241zM573 642c-12 0 -32 -37 -44 -88c-12 -52 -22 -117 -28 -175c59 119 83 200 83 241
c0 13 -5 22 -11 22zM146 -139c7 0 44 94 44 215c0 71 -16 123 -50 155c0 -28 -1 -61 -1 -105c-1 -129 -2 -265 7 -265z" />
    <glyph glyph-name="a_z.liga" unicode="az" horiz-adv-x="1105" 
d="M1172 278c-32 -7 -120 -30 -272 -130c9 -22 16 -47 16 -75c0 -154 -136 -328 -278 -328c-58 0 -107 31 -107 86c0 73 84 199 222 309c-20 33 -61 53 -128 65c-16 28 -13 42 13 60c69 46 102 83 102 116c-25 0 -66 -6 -104 -6c-12 0 -24 1 -34 2
c-43 -144 -143 -294 -256 -294c-41 0 -63 24 -74 51c-35 -60 -101 -104 -167 -105c-68 -1 -140 47 -140 154c0 136 118 270 251 270c93 0 152 -65 163 -107c-10 -45 -16 -87 -16 -117c0 -37 14 -58 26 -58c28 0 97 88 146 236c-11 12 -18 27 -18 44c0 50 43 80 98 80
c30 0 48 -12 48 -32c0 -10 -4 -23 -12 -38c12 -1 25 -1 41 -1h52c78 0 128 -32 128 -79c0 -38 -40 -86 -97 -122c25 -8 54 -24 79 -48c85 52 206 112 266 112c46 0 52 -25 52 -45zM131 142c34 0 100 121 117 216c-6 15 -12 23 -22 23c-37 0 -118 -122 -118 -197
c0 -29 12 -42 23 -42zM635 -177c22 0 123 111 133 225c-84 -77 -144 -160 -144 -206c0 -11 3 -19 11 -19z" />
    <glyph glyph-name="a_z_z.liga" unicode="azz" horiz-adv-x="1551" 
d="M1626 278c-32 -7 -120 -30 -272 -130c9 -22 16 -47 16 -75c0 -154 -136 -328 -278 -328c-58 0 -107 31 -107 86c0 73 84 199 222 309c-20 33 -61 53 -128 65c-16 28 -13 42 13 60c69 46 102 83 102 116c-25 0 -66 -6 -104 -6c-9 0 -17 1 -25 1
c-37 -72 -92 -158 -187 -234c8 -20 14 -44 14 -69c0 -154 -136 -328 -278 -328c-58 0 -107 31 -107 86c0 73 86 192 226 302c-18 38 -60 59 -132 72c-16 28 -13 42 13 60c69 46 102 83 102 116c-25 0 -66 -6 -104 -6h-10c-44 -143 -144 -292 -256 -292c-41 0 -63 24 -74 51
c-35 -60 -101 -104 -167 -105c-68 -1 -140 47 -140 154c0 136 118 270 251 270c93 0 152 -65 163 -107c-10 -45 -16 -87 -16 -117c0 -37 14 -58 26 -58c27 0 92 82 141 222c-23 12 -37 32 -37 58c0 50 43 80 98 80c30 0 48 -12 48 -32c0 -10 -4 -23 -12 -38
c12 -1 25 -1 41 -1h52c78 0 128 -32 128 -79c0 -38 -40 -86 -97 -122c26 -8 58 -26 84 -52c62 48 115 109 161 193c-15 12 -25 30 -25 51c0 50 43 80 98 80c30 0 48 -12 48 -32c0 -10 -4 -23 -12 -38c12 -1 25 -1 41 -1h52c78 0 128 -32 128 -79c0 -38 -40 -86 -97 -122
c25 -8 54 -24 79 -48c85 52 206 112 266 112c46 0 52 -25 52 -45zM131 142c34 0 100 121 117 216c-6 15 -12 23 -22 23c-37 0 -118 -122 -118 -197c0 -29 12 -42 23 -42zM1089 -177c22 0 123 111 133 225c-84 -77 -144 -160 -144 -206c0 -11 3 -19 11 -19zM611 -177
c21 0 117 104 132 215c-84 -74 -143 -151 -143 -196c0 -11 3 -19 11 -19z" />
    <glyph glyph-name="b_z.liga" unicode="bz" horiz-adv-x="1074" 
d="M1172 278c-32 -7 -120 -30 -272 -130c9 -22 16 -47 16 -75c0 -154 -136 -328 -278 -328c-58 0 -107 31 -107 86c0 73 84 199 222 309c-20 33 -61 53 -128 65c-16 28 -13 42 13 60c69 46 102 83 102 116c-25 0 -66 -6 -104 -6c-9 0 -18 1 -26 1
c-34 -89 -107 -220 -202 -245c-33 -95 -107 -187 -206 -187c-112 0 -211 105 -211 298c0 178 51 460 232 460c63 0 88 -40 88 -100c0 -103 -76 -263 -164 -367c10 -102 41 -183 72 -183c27 0 58 38 80 86c-60 21 -87 67 -87 114c0 51 39 107 118 107c59 0 96 -50 96 -127
v-13c49 33 92 109 120 179c-18 12 -29 30 -29 53c0 50 43 80 98 80c30 0 48 -12 48 -32c0 -10 -4 -23 -12 -38c12 -1 25 -1 41 -1h52c78 0 128 -32 128 -79c0 -38 -40 -86 -97 -122c25 -8 54 -24 79 -48c85 52 206 112 266 112c46 0 52 -25 52 -45zM210 590
c-23 0 -56 -121 -65 -233c53 91 75 176 75 210c0 16 -4 23 -10 23zM292 263c0 -18 12 -36 30 -48c2 11 3 22 3 32c0 23 -5 51 -17 51c-10 0 -16 -13 -16 -35zM635 -177c22 0 123 111 133 225c-84 -77 -144 -160 -144 -206c0 -11 3 -19 11 -19z" />
    <glyph glyph-name="c_z.liga" unicode="cz" horiz-adv-x="1051" 
d="M1150 278c-32 -7 -120 -30 -272 -130c9 -22 16 -47 16 -75c0 -154 -136 -328 -278 -328c-58 0 -107 31 -107 86c0 73 84 199 222 309c-20 33 -61 53 -128 65c-16 28 -13 42 13 60c69 46 102 83 102 116c-25 0 -66 -6 -104 -6c-8 0 -15 0 -21 1
c-60 -140 -219 -358 -398 -358c-131 0 -210 81 -210 201c0 112 76 235 223 235c74 0 150 -47 150 -92c0 -24 -20 -40 -74 -62c-28 48 -47 67 -67 67c-41 0 -75 -59 -75 -136c0 -74 32 -127 92 -127c89 0 208 135 291 293c-18 12 -30 31 -30 54c0 50 43 80 98 80
c30 0 48 -12 48 -32c0 -10 -4 -23 -12 -38c12 -1 25 -1 41 -1h52c78 0 128 -32 128 -79c0 -38 -40 -86 -97 -122c25 -8 54 -24 79 -48c85 52 206 112 266 112c46 0 52 -25 52 -45zM613 -177c22 0 123 111 133 225c-84 -77 -144 -160 -144 -206c0 -11 3 -19 11 -19z" />
    <glyph glyph-name="d_d.liga" unicode="dd" horiz-adv-x="1122" 
d="M1142 343c33 -1 59 -20 59 -41c0 -45 -117 -279 -260 -279c-61 0 -100 36 -124 86c-32 -49 -81 -77 -141 -77c-56 0 -99 23 -128 57c-31 -53 -79 -95 -144 -95c-63 0 -99 52 -119 118c-26 -57 -71 -109 -135 -109c-219 0 -210 416 -1 416c40 0 79 -16 111 -47v17
c0 191 23 309 105 309c22 0 40 -12 63 -35c-35 -98 -55 -213 -55 -315c0 -68 0 -275 72 -275c28 0 54 33 73 68c-45 116 10 283 157 283c37 0 70 -11 99 -32c0 223 30 311 114 311c26 0 43 -12 70 -40c-33 -91 -52 -207 -52 -315c0 -144 27 -235 63 -235
c43 0 103 78 173 230zM702 124c43 0 66 66 72 157c-15 32 -34 57 -64 57c-29 0 -52 -54 -52 -115s18 -99 44 -99zM176 85c33 0 74 72 83 192c-17 31 -38 56 -75 56s-64 -41 -64 -110c0 -76 27 -138 56 -138z" />
    <glyph glyph-name="d_z.liga" unicode="dz" horiz-adv-x="1145" 
d="M1249 278c-32 -7 -120 -30 -272 -130c9 -22 16 -47 16 -75c0 -154 -136 -328 -278 -328c-58 0 -107 31 -107 86c0 73 84 199 222 309c-20 33 -61 53 -128 65c-16 28 -13 42 13 60c69 46 102 83 102 116c-25 0 -66 -6 -104 -6h-12c-46 -140 -165 -352 -286 -352
c-61 0 -100 36 -125 86c-31 -49 -80 -77 -140 -77c-235 0 -226 392 -1 392c37 0 70 -11 99 -32c0 223 30 311 114 311c26 0 43 -12 70 -40c-33 -91 -52 -207 -52 -315c0 -144 27 -235 63 -235c37 0 125 105 188 280c-23 12 -37 32 -37 58c0 50 43 80 98 80
c30 0 48 -12 48 -32c0 -10 -4 -23 -12 -38c12 -1 25 -1 41 -1h52c78 0 128 -32 128 -79c0 -38 -40 -86 -97 -122c25 -8 54 -24 79 -48c85 52 206 112 266 112c46 0 52 -25 52 -45zM176 124c43 0 66 66 72 157c-15 32 -34 57 -64 57c-29 0 -52 -54 -52 -115s18 -99 44 -99z
M712 -177c22 0 123 111 133 225c-84 -77 -144 -160 -144 -206c0 -11 3 -19 11 -19z" />
    <glyph glyph-name="e_z.liga" unicode="ez" horiz-adv-x="1056" 
d="M1154 278c-32 -7 -120 -30 -272 -130c9 -22 16 -47 16 -75c0 -154 -136 -328 -278 -328c-58 0 -107 31 -107 86c0 73 84 199 222 309c-20 33 -61 53 -128 65c-16 28 -13 42 13 60c69 46 102 83 102 116c-25 0 -66 -6 -104 -6c-7 0 -13 0 -19 1
c-55 -146 -183 -365 -378 -365c-128 0 -230 98 -230 235c0 132 84 237 192 237c77 0 123 -49 123 -131c0 -88 -66 -153 -126 -194c21 -32 51 -50 87 -50c70 0 177 89 262 289c-19 12 -30 31 -30 54c0 50 43 80 98 80c30 0 48 -12 48 -32c0 -10 -4 -23 -12 -38
c12 -1 25 -1 41 -1h52c78 0 128 -32 128 -79c0 -38 -40 -86 -97 -122c25 -8 54 -24 79 -48c85 52 206 112 266 112c46 0 52 -25 52 -45zM189 393c-19 0 -42 -50 -42 -101c0 -19 1 -37 4 -53c31 33 55 71 55 117c0 22 -8 37 -17 37zM617 -177c22 0 123 111 133 225
c-84 -77 -144 -160 -144 -206c0 -11 3 -19 11 -19z" />
    <glyph glyph-name="e_z_z.liga" unicode="ezz" horiz-adv-x="1535" 
d="M1630 278c-32 -7 -120 -30 -272 -130c9 -22 16 -47 16 -75c0 -154 -136 -328 -278 -328c-58 0 -107 31 -107 86c0 73 84 199 222 309c-20 33 -61 53 -128 65c-16 28 -13 42 13 60c69 46 102 83 102 116c-25 0 -66 -6 -104 -6c-9 0 -17 1 -25 1
c-37 -72 -92 -158 -187 -234c8 -20 14 -44 14 -69c0 -154 -136 -328 -278 -328c-58 0 -107 31 -107 86c0 73 86 192 226 302c-18 38 -60 59 -132 72c-16 28 -13 42 13 60c69 46 102 83 102 116c-25 0 -66 -6 -104 -6c-6 0 -12 0 -17 1c-55 -146 -183 -365 -378 -365
c-128 0 -230 98 -230 235c0 132 84 237 192 237c77 0 123 -49 123 -131c0 -88 -66 -153 -126 -194c21 -32 51 -50 87 -50c70 0 176 88 261 288c-19 12 -31 32 -31 55c0 50 43 80 98 80c30 0 48 -12 48 -32c0 -10 -4 -23 -12 -38c12 -1 25 -1 41 -1h52c78 0 128 -32 128 -79
c0 -38 -40 -86 -97 -122c26 -8 58 -26 84 -52c62 48 115 109 161 193c-15 12 -25 30 -25 51c0 50 43 80 98 80c30 0 48 -12 48 -32c0 -10 -4 -23 -12 -38c12 -1 25 -1 41 -1h52c78 0 128 -32 128 -79c0 -38 -40 -86 -97 -122c25 -8 54 -24 79 -48c85 52 206 112 266 112
c46 0 52 -25 52 -45zM189 393c-19 0 -42 -50 -42 -101c0 -19 1 -37 4 -53c31 33 55 71 55 117c0 22 -8 37 -17 37zM1093 -177c22 0 123 111 133 225c-84 -77 -144 -160 -144 -206c0 -11 3 -19 11 -19zM615 -177c21 0 117 104 132 215c-84 -74 -143 -151 -143 -196
c0 -11 3 -19 11 -19z" />
    <glyph glyph-name="f_z.liga" unicode="fz" horiz-adv-x="943" 
d="M1043 278c-32 -7 -120 -30 -272 -130c9 -22 16 -47 16 -75c0 -154 -136 -328 -278 -328c-58 0 -107 31 -107 86c0 73 84 199 222 309c-20 33 -61 53 -128 65c-16 28 -13 42 13 60c69 46 102 83 102 116c-25 0 -66 -6 -104 -6c-8 0 -16 1 -23 1
c-52 -103 -144 -163 -222 -163c-9 0 -16 0 -23 1c22 -36 33 -91 33 -162c0 -171 -60 -298 -145 -298c-95 0 -138 143 -138 413c0 335 56 535 168 535c35 0 66 -21 85 -57c-7 -81 -51 -189 -99 -244c0 -29 0 -51 -1 -74c34 -27 71 -43 120 -43c60 0 114 44 156 113
c-18 12 -30 31 -30 54c0 50 43 80 98 80c30 0 48 -12 48 -32c0 -10 -4 -23 -12 -38c12 -1 25 -1 41 -1h52c78 0 128 -32 128 -79c0 -38 -40 -86 -97 -122c25 -8 54 -24 79 -48c85 52 206 112 266 112c46 0 52 -25 52 -45zM146 -139c7 0 44 94 44 215c0 71 -16 123 -50 155
c0 -28 -1 -61 -1 -105c-1 -129 -2 -265 7 -265zM506 -177c22 0 123 111 133 225c-84 -77 -144 -160 -144 -206c0 -11 3 -19 11 -19z" />
    <glyph glyph-name="g_z.liga" unicode="gz" horiz-adv-x="1008" 
d="M1111 278c-32 -7 -120 -30 -272 -130c9 -22 16 -47 16 -75c0 -154 -136 -328 -278 -328c-58 0 -107 31 -107 86c0 73 84 199 222 309c-20 33 -61 53 -128 65c-16 28 -13 42 13 60c69 46 102 83 102 116c-25 0 -66 -6 -104 -6c-11 0 -20 1 -29 2
c-51 -86 -135 -135 -205 -182v-27c0 -159 -59 -436 -230 -436c-71 0 -111 42 -111 116c0 115 89 239 205 334c0 7 0 13 -1 18c-34 -36 -72 -54 -113 -54c-68 0 -107 46 -107 125c0 120 127 237 251 237c41 0 82 -16 82 -49c0 -25 -26 -41 -80 -55c-7 17 -16 24 -25 24
c-43 0 -95 -95 -95 -159c0 -28 8 -39 20 -39c26 0 68 61 53 115c48 32 61 32 80 32c42 0 61 -28 68 -105c54 34 106 69 144 128c-16 12 -26 30 -26 51c0 50 43 80 98 80c30 0 48 -12 48 -32c0 -10 -4 -23 -12 -38c12 -1 25 -1 41 -1h52c78 0 128 -32 128 -79
c0 -38 -40 -86 -97 -122c25 -8 54 -24 79 -48c85 52 206 112 266 112c46 0 52 -25 52 -45zM113 -211c46 0 76 160 87 281c-64 -77 -104 -166 -104 -246c0 -21 5 -35 17 -35zM574 -177c22 0 123 111 133 225c-84 -77 -144 -160 -144 -206c0 -11 3 -19 11 -19z" />
    <glyph glyph-name="h_z.liga" unicode="hz" horiz-adv-x="1099" 
d="M1194 278c-32 -7 -120 -30 -272 -130c9 -22 16 -47 16 -75c0 -154 -136 -328 -278 -328c-58 0 -107 31 -107 86c0 73 84 199 222 309c-20 33 -61 53 -128 65c-16 28 -13 42 13 60c69 46 102 83 102 116c-25 0 -66 -6 -104 -6c-6 0 -11 0 -17 1
c-76 -218 -180 -373 -283 -373c-60 0 -96 62 -109 141c-40 -145 -100 -238 -161 -238c-67 0 -98 77 -98 229c0 197 69 526 210 526c54 0 92 -49 92 -117c0 -87 -56 -173 -161 -251c-6 -100 -9 -201 -9 -249c14 0 85 318 183 292c34 -10 57 -27 72 -54
c-6 -21 -12 -59 -12 -97c0 -42 10 -71 34 -71c37 0 119 131 171 282c-19 12 -31 32 -31 55c0 50 43 80 98 80c30 0 48 -12 48 -32c0 -10 -4 -23 -12 -38c12 -1 25 -1 41 -1h52c78 0 128 -32 128 -79c0 -38 -40 -86 -97 -122c25 -8 54 -24 79 -48c85 52 206 112 266 112
c46 0 52 -25 52 -45zM178 564c-17 0 -30 -70 -39 -159c32 41 54 97 54 129c0 16 -2 30 -15 30zM657 -177c22 0 123 111 133 225c-84 -77 -144 -160 -144 -206c0 -11 3 -19 11 -19z" />
    <glyph glyph-name="j_z.liga" unicode="jz" horiz-adv-x="957" 
d="M110 447c-54 0 -96 35 -96 83c0 36 52 65 113 65c46 0 73 -18 73 -50c0 -34 -26 -98 -90 -98zM1057 278c-32 -7 -120 -30 -272 -130c9 -22 16 -47 16 -75c0 -154 -136 -328 -278 -328c-58 0 -107 31 -107 86c0 73 84 199 222 309c-20 33 -61 53 -128 65
c-16 28 -13 42 13 60c69 46 102 83 102 116c-25 0 -66 -6 -104 -6c-12 0 -23 1 -32 2c-62 -99 -163 -182 -241 -258v-24c0 -268 -87 -354 -178 -354c-51 0 -87 39 -87 94c0 64 58 155 133 245c-17 112 -61 233 -93 292c34 29 54 38 83 38c67 0 113 -92 132 -201
c62 54 135 111 184 196c-13 12 -20 27 -20 46c0 50 43 80 98 80c30 0 48 -12 48 -32c0 -10 -4 -23 -12 -38c12 -1 25 -1 41 -1h52c78 0 128 -32 128 -79c0 -38 -40 -86 -97 -122c25 -8 54 -24 79 -48c85 52 206 112 266 112c46 0 52 -25 52 -45zM520 -177
c22 0 123 111 133 225c-84 -77 -144 -160 -144 -206c0 -11 3 -19 11 -19zM79 -180c23 0 44 79 44 134v24c-35 -50 -58 -98 -58 -138c0 -13 5 -20 14 -20z" />
    <glyph glyph-name="k_z.liga" unicode="kz" horiz-adv-x="1087" 
d="M1185 278c-32 -7 -120 -30 -272 -130c9 -22 16 -47 16 -75c0 -154 -136 -328 -278 -328c-58 0 -107 31 -107 86c0 73 84 199 222 309c-20 33 -61 53 -128 65c-16 28 -13 42 13 60c69 46 102 83 102 116c-25 0 -66 -6 -104 -6h-11c-41 -153 -120 -351 -265 -351
c-85 0 -146 68 -190 134c-18 -12 -38 -24 -59 -35v-33c0 -66 -26 -105 -71 -105c-29 0 -58 15 -67 24c13 48 19 142 19 285c0 114 0 274 -24 381c37 22 69 33 96 33c48 0 69 -33 69 -104c0 -37 -8 -134 -14 -252c38 74 94 138 158 138c56 0 90 -33 90 -89
c0 -46 -32 -107 -104 -172c36 -56 77 -100 114 -100c80 0 144 149 182 262c-25 11 -42 33 -42 60c0 50 43 80 98 80c30 0 48 -12 48 -32c0 -10 -4 -23 -12 -38c12 -1 25 -1 41 -1h52c78 0 128 -32 128 -79c0 -38 -40 -86 -97 -122c25 -8 54 -24 79 -48
c85 52 206 112 266 112c46 0 52 -25 52 -45zM242 392c-21 0 -82 -97 -113 -173c61 42 130 109 130 156c0 10 -5 17 -17 17zM648 -177c22 0 123 111 133 225c-84 -77 -144 -160 -144 -206c0 -11 3 -19 11 -19z" />
    <glyph glyph-name="l_z.liga" unicode="lz" horiz-adv-x="977" 
d="M1077 278c-32 -7 -120 -30 -272 -130c9 -22 16 -47 16 -75c0 -154 -136 -328 -278 -328c-58 0 -107 31 -107 86c0 73 84 199 222 309c-20 33 -61 53 -128 65c-16 28 -13 42 13 60c69 46 102 83 102 116c-25 0 -66 -6 -104 -6c-10 0 -19 1 -27 2
c-60 -158 -173 -374 -342 -374c-108 0 -174 95 -174 271c0 211 106 438 222 438c48 0 82 -36 82 -87c0 -125 -95 -293 -159 -396c7 -84 33 -139 72 -139c48 0 157 97 232 310c-15 12 -25 30 -25 51c0 50 43 80 98 80c30 0 48 -12 48 -32c0 -10 -4 -23 -12 -38
c12 -1 25 -1 41 -1h52c78 0 128 -32 128 -79c0 -38 -40 -86 -97 -122c25 -8 54 -24 79 -48c85 52 206 112 266 112c46 0 52 -25 52 -45zM218 642c-12 0 -32 -37 -44 -88c-12 -52 -22 -117 -28 -175c59 119 83 200 83 241c0 13 -5 22 -11 22zM540 -177c22 0 123 111 133 225
c-84 -77 -144 -160 -144 -206c0 -11 3 -19 11 -19z" />
    <glyph glyph-name="m_z.liga" unicode="mz" horiz-adv-x="1402" 
d="M1504 278c-32 -7 -120 -30 -272 -130c9 -22 16 -47 16 -75c0 -154 -136 -328 -278 -328c-58 0 -107 31 -107 86c0 73 84 199 222 309c-20 33 -61 53 -128 65c-16 28 -13 42 13 60c69 46 102 83 102 116c-25 0 -66 -6 -104 -6c-8 0 -15 0 -22 1
c-63 -161 -141 -342 -321 -342c-90 0 -125 64 -125 132c0 63 12 113 12 154c-10 -17 -29 -63 -48 -111c-40 -103 -72 -146 -117 -146c-31 0 -61 17 -77 44c3 17 19 94 19 176c0 31 -5 50 -3 57c-26 -35 -108 -296 -222 -296c-33 0 -68 15 -86 37c11 127 35 248 0 351
c17 19 49 32 77 32c51 0 65 -62 65 -130c0 -58 -10 -120 -15 -155c67 148 105 267 211 267c54 0 78 -81 72 -179c40 90 89 170 169 170c57 0 93 -37 93 -95c0 -47 -8 -106 -8 -152c0 -51 16 -72 42 -72c53 0 135 127 193 281c-18 12 -28 30 -28 52c0 50 43 80 98 80
c30 0 48 -12 48 -32c0 -10 -4 -23 -12 -38c12 -1 25 -1 41 -1h52c78 0 128 -32 128 -79c0 -38 -40 -86 -97 -122c25 -8 54 -24 79 -48c85 52 206 112 266 112c46 0 52 -25 52 -45zM967 -177c22 0 123 111 133 225c-84 -77 -144 -160 -144 -206c0 -11 3 -19 11 -19z" />
    <glyph glyph-name="n_z.liga" unicode="nz" horiz-adv-x="1211" 
d="M1316 278c-32 -7 -120 -30 -272 -130c9 -22 16 -47 16 -75c0 -154 -136 -328 -278 -328c-58 0 -107 31 -107 86c0 73 84 199 222 309c-20 33 -61 53 -128 65c-16 28 -13 42 13 60c69 46 102 83 102 116c-25 0 -66 -6 -104 -6c-7 0 -14 0 -21 1
c-68 -164 -187 -384 -339 -384c-103 0 -138 81 -138 165c0 59 20 117 20 176c0 25 -4 33 -13 36c-38 -19 -91 -117 -139 -302c-14 -8 -31 -13 -52 -13c-89 0 -97 68 -97 136c0 73 8 129 8 180c0 29 -3 57 -10 80c21 21 58 37 88 37c45 0 72 -28 72 -75c0 -20 -4 -65 -5 -112
c63 104 123 147 183 147c86 0 106 -64 106 -143c0 -26 -4 -68 -4 -108c0 -56 1 -100 35 -100c42 0 139 119 212 304c-15 12 -25 30 -25 51c0 50 43 80 98 80c30 0 48 -12 48 -32c0 -10 -4 -23 -12 -38c12 -1 25 -1 41 -1h52c78 0 128 -32 128 -79c0 -38 -40 -86 -97 -122
c25 -8 54 -24 79 -48c85 52 206 112 266 112c46 0 52 -25 52 -45zM779 -177c22 0 123 111 133 225c-84 -77 -144 -160 -144 -206c0 -11 3 -19 11 -19z" />
    <glyph glyph-name="o_z.liga" unicode="oz" horiz-adv-x="1093" 
d="M1190 278c-32 -7 -120 -30 -272 -130c9 -22 16 -47 16 -75c0 -154 -136 -328 -278 -328c-58 0 -107 31 -107 86c0 73 84 199 222 309c-20 33 -61 53 -128 65c-16 28 -13 42 13 60c69 46 102 83 102 116c-25 0 -66 -6 -104 -6c-9 0 -18 1 -26 1
c-49 -100 -119 -178 -219 -178c-14 0 -27 1 -39 4c-25 -91 -93 -169 -201 -171c-135 -3 -192 109 -192 198c0 74 39 131 101 137c10 69 66 110 139 110c100 0 164 -76 164 -191v-5c11 -5 24 -9 40 -9c55 0 101 45 144 126c-18 12 -30 31 -30 54c0 50 43 80 98 80
c30 0 48 -12 48 -32c0 -10 -4 -23 -12 -38c12 -1 25 -1 41 -1h52c78 0 128 -32 128 -79c0 -38 -40 -86 -97 -122c25 -8 54 -24 79 -48c85 52 206 112 266 112c46 0 52 -25 52 -45zM173 94c33 0 61 72 61 157c0 86 -28 136 -63 136c-20 0 -33 -16 -40 -29
c25 -12 39 -38 39 -76c0 -14 -2 -26 -6 -42c-21 0 -38 -38 -38 -71c0 -40 24 -75 47 -75zM653 -177c22 0 123 111 133 225c-84 -77 -144 -160 -144 -206c0 -11 3 -19 11 -19z" />
    <glyph glyph-name="o_z_z.liga" unicode="ozz" horiz-adv-x="1570" 
d="M1663 278c-32 -7 -120 -30 -272 -130c9 -22 16 -47 16 -75c0 -154 -136 -328 -278 -328c-58 0 -107 31 -107 86c0 73 84 199 222 309c-20 33 -61 53 -128 65c-16 28 -13 42 13 60c69 46 102 83 102 116c-25 0 -66 -6 -104 -6c-9 0 -17 1 -25 1
c-37 -72 -92 -158 -187 -234c8 -20 14 -44 14 -69c0 -154 -136 -328 -278 -328c-58 0 -107 31 -107 86c0 73 86 192 226 302c-18 38 -60 59 -132 72c-16 28 -13 42 13 60c69 46 102 83 102 116c-25 0 -66 -6 -104 -6c-7 0 -14 0 -21 1c-49 -100 -119 -178 -219 -178
c-14 0 -27 1 -39 4c-25 -91 -93 -169 -201 -171c-135 -3 -192 109 -192 198c0 74 39 131 101 137c10 69 66 110 139 110c100 0 164 -76 164 -191v-5c11 -5 24 -9 40 -9c54 0 100 44 143 124c-21 11 -34 31 -34 56c0 50 43 80 98 80c30 0 48 -12 48 -32c0 -10 -4 -23 -12 -38
c12 -1 25 -1 41 -1h52c78 0 128 -32 128 -79c0 -38 -40 -86 -97 -122c26 -8 58 -26 84 -52c62 48 115 109 161 193c-15 12 -25 30 -25 51c0 50 43 80 98 80c30 0 48 -12 48 -32c0 -10 -4 -23 -12 -38c12 -1 25 -1 41 -1h52c78 0 128 -32 128 -79c0 -38 -40 -86 -97 -122
c25 -8 54 -24 79 -48c85 52 206 112 266 112c46 0 52 -25 52 -45zM173 94c33 0 61 72 61 157c0 86 -28 136 -63 136c-20 0 -33 -16 -40 -29c25 -12 39 -38 39 -76c0 -14 -2 -26 -6 -42c-21 0 -38 -38 -38 -71c0 -40 24 -75 47 -75zM1126 -177c22 0 123 111 133 225
c-84 -77 -144 -160 -144 -206c0 -11 3 -19 11 -19zM648 -177c21 0 117 104 132 215c-84 -74 -143 -151 -143 -196c0 -11 3 -19 11 -19z" />
    <glyph glyph-name="p_z.liga" unicode="pz" horiz-adv-x="1058" 
d="M1158 278c-32 -7 -120 -30 -272 -130c9 -22 16 -47 16 -75c0 -154 -136 -328 -278 -328c-58 0 -107 31 -107 86c0 73 84 199 222 309c-20 33 -61 53 -128 65c-16 28 -13 42 13 60c69 46 102 83 102 116c-25 0 -66 -6 -104 -6c-18 0 -34 2 -48 5
c-55 -55 -134 -84 -198 -102c-35 -83 -103 -160 -162 -160c-36 0 -50 22 -50 50c0 63 48 112 115 144c3 17 5 33 5 43c0 20 -6 27 -19 27c-70 0 -127 -158 -127 -366c0 -95 10 -185 19 -249c-30 -7 -57 -11 -79 -11c-76 0 -97 46 -90 185c7 129 13 296 13 366
c0 73 2 113 -19 188c26 25 57 39 83 39c43 0 67 -33 67 -89c0 -14 -1 -28 -2 -39c60 47 119 75 171 75c53 0 100 -29 100 -98c0 -10 -1 -21 -3 -32c43 15 84 35 117 63c-8 10 -12 23 -12 37c0 50 43 80 98 80c30 0 48 -12 48 -32c0 -10 -4 -23 -12 -38c12 -1 25 -1 41 -1h52
c78 0 128 -32 128 -79c0 -38 -40 -86 -97 -122c25 -8 54 -24 79 -48c85 52 206 112 266 112c46 0 52 -25 52 -45zM220 153c13 0 29 39 42 84c-36 -24 -50 -55 -50 -72c0 -7 3 -12 8 -12zM621 -177c22 0 123 111 133 225c-84 -77 -144 -160 -144 -206c0 -11 3 -19 11 -19z
" />
    <glyph glyph-name="q_z.liga" unicode="qz" horiz-adv-x="1104" 
d="M1206 278c-32 -7 -120 -30 -272 -130c9 -22 16 -47 16 -75c0 -154 -136 -328 -278 -328c-58 0 -107 31 -107 86c0 73 84 199 222 309c-20 33 -61 53 -128 65c-16 28 -13 42 13 60c69 46 102 83 102 116c-25 0 -66 -6 -104 -6c-16 0 -30 1 -42 4
c-80 -113 -198 -283 -291 -590c-19 -19 -65 -39 -84 -39c-66 0 -80 61 -80 218c0 64 10 130 25 186c-39 -37 -85 -59 -129 -59c-57 0 -97 45 -97 111c1 150 151 281 320 281c42 0 72 -21 72 -50c0 -19 -12 -35 -36 -48c-14 11 -21 14 -38 14c-73 0 -186 -100 -186 -191
c0 -17 7 -23 18 -23c33 0 99 74 105 131c20 17 45 27 68 27c30 0 55 -17 55 -56c0 -42 -39 -132 -49 -298c-1 -14 -3 -43 -4 -74c95 250 208 410 270 489c-10 12 -16 26 -16 43c0 50 43 80 98 80c30 0 48 -12 48 -32c0 -10 -4 -23 -12 -38c12 -1 25 -1 41 -1h52
c78 0 128 -32 128 -79c0 -38 -40 -86 -97 -122c25 -8 54 -24 79 -48c85 52 206 112 266 112c46 0 52 -25 52 -45zM669 -177c22 0 123 111 133 225c-84 -77 -144 -160 -144 -206c0 -11 3 -19 11 -19z" />
    <glyph glyph-name="r_z.liga" unicode="rz" horiz-adv-x="1033" 
d="M1140 278c-32 -7 -120 -30 -272 -130c9 -22 16 -47 16 -75c0 -154 -136 -328 -278 -328c-58 0 -107 31 -107 86c0 73 84 199 222 309c-20 33 -61 53 -128 65c-16 28 -13 42 13 60c69 46 102 83 102 116c-25 0 -66 -6 -104 -6c-8 0 -15 0 -21 1
c-94 -240 -209 -412 -351 -412c-96 0 -141 56 -141 131c0 65 30 131 53 174c-154 23 -174 94 -174 134c0 80 76 122 125 122c39 0 51 -32 51 -53c0 -24 -10 -53 -26 -88c76 -17 200 -16 200 -75c0 -54 -89 -145 -89 -218c0 -27 12 -42 33 -42c74 0 181 182 248 350
c-17 12 -27 30 -27 52c0 50 43 80 98 80c30 0 48 -12 48 -32c0 -10 -4 -23 -12 -38c12 -1 25 -1 41 -1h52c78 0 128 -32 128 -79c0 -38 -40 -86 -97 -122c25 -8 54 -24 79 -48c85 52 206 112 266 112c46 0 52 -25 52 -45zM603 -177c22 0 123 111 133 225
c-84 -77 -144 -160 -144 -206c0 -11 3 -19 11 -19z" />
    <glyph glyph-name="s_z.liga" unicode="sz" horiz-adv-x="954" 
d="M1056 278c-32 -7 -120 -30 -272 -130c9 -22 16 -47 16 -75c0 -154 -136 -328 -278 -328c-58 0 -107 31 -107 86c0 73 84 199 222 309c-20 33 -61 53 -128 65c-16 28 -13 42 13 60c69 46 102 83 102 116c-25 0 -66 -6 -104 -6c-15 0 -28 1 -40 3
c-60 -65 -143 -114 -208 -151c21 -26 31 -53 31 -82c0 -90 -107 -144 -195 -144c-61 0 -113 26 -113 84c0 36 35 79 85 117c-34 30 -70 65 -70 125c0 53 36 98 94 117c75 23 140 6 153 -18c0 -45 -47 -74 -110 -72c0 -22 21 -44 62 -71l6 -4c67 32 140 72 201 131
c-10 11 -15 25 -15 41c0 50 43 80 98 80c30 0 48 -12 48 -32c0 -10 -4 -23 -12 -38c12 -1 25 -1 41 -1h52c78 0 128 -32 128 -79c0 -38 -40 -86 -97 -122c25 -8 54 -24 79 -48c85 52 206 112 266 112c46 0 52 -25 52 -45zM84 60c18 0 53 29 53 63c0 8 -2 15 -5 22
c-36 -27 -59 -53 -59 -73c0 -8 4 -12 11 -12zM519 -177c22 0 123 111 133 225c-84 -77 -144 -160 -144 -206c0 -11 3 -19 11 -19z" />
    <glyph glyph-name="t_z.liga" unicode="tz" horiz-adv-x="993" 
d="M1090 278c-32 -7 -120 -30 -272 -130c9 -22 16 -47 16 -75c0 -154 -136 -328 -278 -328c-58 0 -107 31 -107 86c0 73 84 199 222 309c-20 33 -61 53 -128 65c-16 28 -13 42 13 60c69 46 102 83 102 116c-25 0 -66 -6 -104 -6c-8 0 -16 1 -24 1
c-71 -187 -160 -385 -334 -385c-118 0 -183 87 -183 238c0 62 8 125 18 187h-42c-33 0 -52 17 -52 47c0 15 4 31 12 51c24 -7 57 -12 96 -15c14 75 26 146 25 211c109 3 147 -7 147 -91c0 -40 -8 -81 -18 -124h145c-2 -14 -5 -23 -12 -42c-10 -28 -42 -36 -152 -38
c-15 -66 -30 -140 -30 -228s44 -106 76 -106c89 0 177 166 231 322c-14 12 -22 28 -22 48c0 50 43 80 98 80c30 0 48 -12 48 -32c0 -10 -4 -23 -12 -38c12 -1 25 -1 41 -1h52c78 0 128 -32 128 -79c0 -38 -40 -86 -97 -122c25 -8 54 -24 79 -48c85 52 206 112 266 112
c46 0 52 -25 52 -45zM553 -177c22 0 123 111 133 225c-84 -77 -144 -160 -144 -206c0 -11 3 -19 11 -19z" />
    <glyph glyph-name="u_z.liga" unicode="uz" horiz-adv-x="1121" 
d="M1219 278c-32 -7 -120 -30 -272 -130c9 -22 16 -47 16 -75c0 -154 -136 -328 -278 -328c-58 0 -107 31 -107 86c0 73 84 199 222 309c-20 33 -61 53 -128 65c-16 28 -13 42 13 60c69 46 102 83 102 116c-25 0 -66 -6 -104 -6c-8 0 -16 1 -23 1
c-83 -197 -170 -336 -292 -336c-57 0 -105 31 -123 96c-39 -50 -93 -97 -154 -97c-70 0 -105 44 -105 128c0 34 7 102 7 171c0 45 -2 68 -9 101c29 5 57 10 85 10c49 0 70 -24 70 -80c0 -33 -9 -113 -9 -168c0 -38 7 -53 18 -53c15 0 54 26 91 85c3 43 8 88 8 126
c0 36 -3 63 -9 79c17 3 37 6 55 6c64 0 93 -33 93 -112c0 -26 -12 -95 -12 -143c0 -46 6 -68 24 -68c38 0 114 99 190 280c-15 12 -24 30 -24 50c0 50 43 80 98 80c30 0 48 -12 48 -32c0 -10 -4 -23 -12 -38c12 -1 25 -1 41 -1h52c78 0 128 -32 128 -79
c0 -38 -40 -86 -97 -122c25 -8 54 -24 79 -48c85 52 206 112 266 112c46 0 52 -25 52 -45zM682 -177c22 0 123 111 133 225c-84 -77 -144 -160 -144 -206c0 -11 3 -19 11 -19z" />
    <glyph glyph-name="u_z_z.liga" unicode="uzz" horiz-adv-x="1595" 
d="M1695 278c-32 -7 -120 -30 -272 -130c9 -22 16 -47 16 -75c0 -154 -136 -328 -278 -328c-58 0 -107 31 -107 86c0 73 84 199 222 309c-20 33 -61 53 -128 65c-16 28 -13 42 13 60c69 46 102 83 102 116c-25 0 -66 -6 -104 -6c-9 0 -17 1 -25 1
c-37 -72 -92 -158 -187 -234c8 -20 14 -44 14 -69c0 -154 -136 -328 -278 -328c-58 0 -107 31 -107 86c0 73 86 192 226 302c-18 38 -60 59 -132 72c-16 28 -13 42 13 60c69 46 102 83 102 116c-25 0 -66 -6 -104 -6c-7 0 -14 0 -21 1c-83 -197 -170 -336 -292 -336
c-57 0 -105 31 -123 96c-39 -50 -93 -97 -154 -97c-70 0 -105 44 -105 128c0 34 7 102 7 171c0 45 -2 68 -9 101c29 5 57 10 85 10c49 0 70 -24 70 -80c0 -33 -9 -113 -9 -168c0 -38 7 -53 18 -53c15 0 54 26 91 85c3 43 8 88 8 126c0 36 -3 63 -9 79c17 3 37 6 55 6
c64 0 93 -33 93 -112c0 -26 -12 -95 -12 -143c0 -46 6 -68 24 -68c38 0 114 98 190 279c-16 12 -26 30 -26 51c0 50 43 80 98 80c30 0 48 -12 48 -32c0 -10 -4 -23 -12 -38c12 -1 25 -1 41 -1h52c78 0 128 -32 128 -79c0 -38 -40 -86 -97 -122c26 -8 58 -26 84 -52
c62 48 115 109 161 193c-15 12 -25 30 -25 51c0 50 43 80 98 80c30 0 48 -12 48 -32c0 -10 -4 -23 -12 -38c12 -1 25 -1 41 -1h52c78 0 128 -32 128 -79c0 -38 -40 -86 -97 -122c25 -8 54 -24 79 -48c85 52 206 112 266 112c46 0 52 -25 52 -45zM1158 -177
c22 0 123 111 133 225c-84 -77 -144 -160 -144 -206c0 -11 3 -19 11 -19zM680 -177c21 0 117 104 132 215c-84 -74 -143 -151 -143 -196c0 -11 3 -19 11 -19z" />
    <glyph glyph-name="v_z.liga" unicode="vz" horiz-adv-x="1098" 
d="M1199 278c-32 -7 -120 -30 -272 -130c9 -22 16 -47 16 -75c0 -154 -136 -328 -278 -328c-58 0 -107 31 -107 86c0 73 84 199 222 309c-20 33 -61 53 -128 65c-16 28 -13 42 13 60c69 46 102 83 102 116c-25 0 -66 -6 -104 -6c-10 0 -18 1 -27 1
c-47 -77 -130 -137 -210 -137c-18 0 -39 3 -60 8c-50 -135 -131 -229 -203 -229c-98 0 -101 167 -183 368c28 35 69 54 114 54c68 0 82 -37 82 -125c0 -38 -5 -83 -5 -127c0 -38 5 -60 18 -60c21 0 54 99 73 198c-12 23 -18 48 -18 75c0 55 35 92 77 92c49 0 78 -37 78 -100
c0 -21 -3 -43 -9 -68c15 -5 30 -7 47 -7c44 0 89 31 129 85c-14 12 -22 29 -22 48c0 50 43 80 98 80c30 0 48 -12 48 -32c0 -10 -4 -23 -12 -38c12 -1 25 -1 41 -1h52c78 0 128 -32 128 -79c0 -38 -40 -86 -97 -122c25 -8 54 -24 79 -48c85 52 206 112 266 112
c46 0 52 -25 52 -45zM662 -177c22 0 123 111 133 225c-84 -77 -144 -160 -144 -206c0 -11 3 -19 11 -19z" />
    <glyph glyph-name="w_i.liga" unicode="wi" horiz-adv-x="941" 
d="M779 412c-48 0 -64 62 -64 88c0 30 37 52 83 52c39 0 67 -26 67 -60c0 -36 -48 -80 -86 -80zM774 386c54 0 82 -28 82 -81c0 -95 -6 -173 -6 -298c-23 -16 -42 -23 -63 -23c-66 0 -74 53 -74 141c0 45 3 97 4 159c-22 -17 -52 -30 -85 -30c-24 0 -43 4 -60 11
c-8 -106 -68 -229 -188 -229c-53 0 -83 34 -99 88c-25 -73 -85 -105 -142 -105c-92 0 -147 91 -147 241c0 152 31 216 110 216c22 0 50 -7 77 -19c-20 -49 -30 -106 -30 -172c0 -108 17 -180 37 -180c21 0 41 49 41 110c0 31 -1 52 -6 87c12 12 37 20 59 20
c62 0 69 -41 73 -111c5 -82 14 -108 36 -108c30 0 47 61 47 136c0 102 -31 148 -40 166c11 15 41 31 74 31c35 0 61 -15 78 -44v0c2 -3 3 -6 4 -8c26 -48 50 -66 82 -66c36 0 65 31 78 60c18 3 37 8 58 8z" />
    <glyph glyph-name="w_z.liga" unicode="wz" horiz-adv-x="1256" 
d="M1358 278c-32 -7 -120 -30 -272 -130c9 -22 16 -47 16 -75c0 -154 -136 -328 -278 -328c-58 0 -107 31 -107 86c0 73 84 199 222 309c-20 33 -61 53 -128 65c-16 28 -13 42 13 60c69 46 102 83 102 116c-25 0 -66 -6 -104 -6c-13 0 -25 1 -35 3
c-54 -79 -107 -111 -166 -111c-16 0 -31 2 -44 6c-6 -108 -67 -237 -189 -237c-53 0 -83 34 -99 88c-25 -73 -85 -105 -142 -105c-92 0 -147 91 -147 241c0 152 31 216 110 216c22 0 50 -7 77 -19c-20 -49 -30 -106 -30 -172c0 -108 17 -180 37 -180c21 0 41 49 41 110
c0 31 -1 52 -6 87c12 12 37 20 59 20c62 0 69 -41 73 -111c5 -82 14 -108 36 -108c30 0 47 61 47 136c0 102 -31 148 -40 166c11 15 41 31 74 31c44 0 74 -24 89 -70c20 -16 36 -24 58 -24c35 0 65 29 92 69c-9 11 -14 25 -14 40c0 50 43 80 98 80c30 0 48 -12 48 -32
c0 -10 -4 -23 -12 -38c12 -1 25 -1 41 -1h52c78 0 128 -32 128 -79c0 -38 -40 -86 -97 -122c25 -8 54 -24 79 -48c85 52 206 112 266 112c46 0 52 -25 52 -45zM821 -177c22 0 123 111 133 225c-84 -77 -144 -160 -144 -206c0 -11 3 -19 11 -19z" />
    <glyph glyph-name="y_z.liga" unicode="yz" horiz-adv-x="1015" 
d="M1116 278c-32 -7 -120 -30 -272 -130c9 -22 16 -47 16 -75c0 -154 -136 -328 -278 -328c-58 0 -107 31 -107 86c0 73 84 199 222 309c-20 33 -61 53 -128 65c-16 28 -13 42 13 60c69 46 102 83 102 116c-25 0 -66 -6 -104 -6c-15 0 -29 1 -40 3
c-56 -79 -134 -137 -207 -192c-36 -319 -180 -454 -245 -454c-56 0 -92 47 -92 119c0 123 93 234 205 323l3 35c-32 -36 -70 -57 -108 -57c-67 0 -108 66 -108 168c0 28 2 52 2 77c0 21 -1 40 -3 58c9 9 35 19 65 19c47 0 74 -22 74 -58c0 -21 -8 -71 -8 -112
c0 -32 5 -58 23 -58c30 0 55 89 54 207c14 17 49 24 70 24c72 0 77 -57 77 -134c0 -23 0 -44 -1 -66c53 43 100 85 135 133c-9 11 -15 25 -15 41c0 50 43 80 98 80c30 0 48 -12 48 -32c0 -10 -4 -23 -12 -38c12 -1 25 -1 41 -1h52c78 0 128 -32 128 -79
c0 -38 -40 -86 -97 -122c25 -8 54 -24 79 -48c85 52 206 112 266 112c46 0 52 -25 52 -45zM84 -192c28 0 71 122 97 246c-66 -71 -109 -148 -109 -223c0 -14 4 -23 12 -23zM579 -177c22 0 123 111 133 225c-84 -77 -144 -160 -144 -206c0 -11 3 -19 11 -19z" />
    <glyph glyph-name="z_z.liga" unicode="zz" horiz-adv-x="1027" 
d="M1129 278c-32 -7 -120 -30 -272 -130c9 -22 16 -47 16 -75c0 -154 -136 -328 -278 -328c-58 0 -107 31 -107 86c0 73 84 199 222 309c-20 33 -61 53 -128 65c-16 28 -13 42 13 60c69 46 102 83 102 116c-25 0 -66 -6 -104 -6c-9 0 -17 1 -25 1
c-37 -72 -92 -158 -187 -234c8 -20 14 -44 14 -69c0 -154 -136 -328 -278 -328c-58 0 -107 31 -107 86c0 73 86 192 226 302c-18 38 -60 59 -132 72c-16 28 -13 42 13 60c69 46 102 83 102 116c-25 0 -66 -6 -104 -6c-34 1 -59 6 -76 15c-26 11 -43 33 -43 61
c0 50 43 80 98 80c30 0 48 -12 48 -32c0 -10 -4 -23 -12 -38c12 -1 25 -1 41 -1h52c78 0 128 -32 128 -79c0 -38 -40 -86 -97 -122c26 -8 58 -26 84 -52c62 48 115 109 161 193c-15 12 -25 30 -25 51c0 50 43 80 98 80c30 0 48 -12 48 -32c0 -10 -4 -23 -12 -38
c12 -1 25 -1 41 -1h52c78 0 128 -32 128 -79c0 -38 -40 -86 -97 -122c25 -8 54 -24 79 -48c85 52 206 112 266 112c46 0 52 -25 52 -45zM592 -177c22 0 123 111 133 225c-84 -77 -144 -160 -144 -206c0 -11 3 -19 11 -19zM114 -177c21 0 117 104 132 215
c-84 -74 -143 -151 -143 -196c0 -11 3 -19 11 -19z" />
    <glyph glyph-name="uni04300437.liga" unicode="&#x430;&#x437;" horiz-adv-x="1105" 
d="M1172 278c-32 -7 -120 -30 -272 -130c9 -22 16 -47 16 -75c0 -154 -136 -328 -278 -328c-58 0 -107 31 -107 86c0 73 84 199 222 309c-20 33 -61 53 -128 65c-16 28 -13 42 13 60c69 46 102 83 102 116c-25 0 -66 -6 -104 -6c-12 0 -24 1 -34 2
c-43 -144 -143 -294 -256 -294c-41 0 -63 24 -74 51c-35 -60 -101 -104 -167 -105c-68 -1 -140 47 -140 154c0 136 118 270 251 270c93 0 152 -65 163 -107c-10 -45 -16 -87 -16 -117c0 -37 14 -58 26 -58c28 0 97 88 146 236c-11 12 -18 27 -18 44c0 50 43 80 98 80
c30 0 48 -12 48 -32c0 -10 -4 -23 -12 -38c12 -1 25 -1 41 -1h52c78 0 128 -32 128 -79c0 -38 -40 -86 -97 -122c25 -8 54 -24 79 -48c85 52 206 112 266 112c46 0 52 -25 52 -45zM131 142c34 0 100 121 117 216c-6 15 -12 23 -22 23c-37 0 -118 -122 -118 -197
c0 -29 12 -42 23 -42zM635 -177c22 0 123 111 133 225c-84 -77 -144 -160 -144 -206c0 -11 3 -19 11 -19z" />
    <glyph glyph-name="uni04310437.liga" unicode="&#x431;&#x437;" horiz-adv-x="1078" 
d="M1147 278c-32 -7 -120 -30 -272 -130c9 -22 16 -47 16 -75c0 -154 -136 -328 -278 -328c-58 0 -107 31 -107 86c0 73 84 199 222 309c-20 33 -61 53 -128 65c-16 28 -13 42 13 60c69 46 102 83 102 116c-25 0 -66 -6 -104 -6c-13 0 -24 1 -35 3
c-36 -66 -96 -127 -183 -127c-9 0 -18 1 -27 2c-3 -105 -68 -241 -208 -245c-109 0 -185 80 -185 194c0 110 58 198 145 234c-52 36 -116 69 -116 128c0 121 199 179 291 179c36 0 61 -19 61 -47c0 -22 -14 -45 -40 -63c-62 9 -187 -20 -187 -63c0 -44 167 -117 205 -182
c2 -4 5 -8 8 -13c6 -11 11 -23 15 -35c14 -7 30 -11 49 -11c38 0 71 23 107 77c-12 11 -19 27 -19 45c0 50 43 80 98 80c30 0 48 -12 48 -32c0 -10 -4 -23 -12 -38c12 -1 25 -1 41 -1h52c78 0 128 -32 128 -79c0 -38 -40 -86 -97 -122c25 -8 54 -24 79 -48
c85 52 206 112 266 112c46 0 52 -25 52 -45zM168 91c24 0 47 61 47 140c0 69 -20 135 -36 135c-22 0 -49 -75 -49 -146c0 -70 20 -129 38 -129zM610 -177c22 0 123 111 133 225c-84 -77 -144 -160 -144 -206c0 -11 3 -19 11 -19z" />
    <glyph glyph-name="uni04320437.liga" unicode="&#x432;&#x437;" horiz-adv-x="1074" 
d="M1172 278c-32 -7 -120 -30 -272 -130c9 -22 16 -47 16 -75c0 -154 -136 -328 -278 -328c-58 0 -107 31 -107 86c0 73 84 199 222 309c-20 33 -61 53 -128 65c-16 28 -13 42 13 60c69 46 102 83 102 116c-25 0 -66 -6 -104 -6c-9 0 -18 1 -26 1
c-34 -89 -107 -220 -202 -245c-33 -95 -107 -187 -206 -187c-112 0 -211 105 -211 298c0 178 51 460 232 460c63 0 88 -40 88 -100c0 -103 -76 -263 -164 -367c10 -102 41 -183 72 -183c27 0 58 38 80 86c-60 21 -87 67 -87 114c0 51 39 107 118 107c59 0 96 -50 96 -127
v-13c49 33 92 109 120 179c-18 12 -29 30 -29 53c0 50 43 80 98 80c30 0 48 -12 48 -32c0 -10 -4 -23 -12 -38c12 -1 25 -1 41 -1h52c78 0 128 -32 128 -79c0 -38 -40 -86 -97 -122c25 -8 54 -24 79 -48c85 52 206 112 266 112c46 0 52 -25 52 -45zM210 590
c-23 0 -56 -121 -65 -233c53 91 75 176 75 210c0 16 -4 23 -10 23zM292 263c0 -18 12 -36 30 -48c2 11 3 22 3 32c0 23 -5 51 -17 51c-10 0 -16 -13 -16 -35zM635 -177c22 0 123 111 133 225c-84 -77 -144 -160 -144 -206c0 -11 3 -19 11 -19z" />
    <glyph glyph-name="uni04330437.liga" unicode="&#x433;&#x437;" horiz-adv-x="1021" 
d="M1120 278c-32 -7 -120 -30 -272 -130c9 -22 16 -47 16 -75c0 -154 -136 -328 -278 -328c-58 0 -107 31 -107 86c0 73 84 199 222 309c-20 33 -61 53 -128 65c-16 28 -13 42 13 60c69 46 102 83 102 116c-25 0 -66 -6 -104 -6c-9 0 -18 1 -26 1
c-61 -129 -215 -393 -393 -393c-90 0 -128 59 -128 114c0 101 127 178 127 226c0 6 -2 9 -9 9c-35 0 -67 -76 -118 -76c-24 0 -41 16 -45 36c68 103 123 150 202 150c73 0 123 -40 123 -106c0 -105 -120 -161 -119 -226c0 -18 8 -32 28 -32c77 0 190 175 269 319
c-19 12 -30 31 -30 54c0 50 43 80 98 80c30 0 48 -12 48 -32c0 -10 -4 -23 -12 -38c12 -1 25 -1 41 -1h52c78 0 128 -32 128 -79c0 -38 -40 -86 -97 -122c25 -8 54 -24 79 -48c85 52 206 112 266 112c46 0 52 -25 52 -45zM583 -177c22 0 123 111 133 225
c-84 -77 -144 -160 -144 -206c0 -11 3 -19 11 -19z" />
    <glyph glyph-name="uni04340437.liga" unicode="&#x434;&#x437;" horiz-adv-x="1008" 
d="M1111 278c-32 -7 -120 -30 -272 -130c9 -22 16 -47 16 -75c0 -154 -136 -328 -278 -328c-58 0 -107 31 -107 86c0 73 84 199 222 309c-20 33 -61 53 -128 65c-16 28 -13 42 13 60c69 46 102 83 102 116c-25 0 -66 -6 -104 -6c-11 0 -20 1 -29 2
c-51 -86 -135 -135 -205 -182v-27c0 -159 -59 -436 -230 -436c-71 0 -111 42 -111 116c0 115 89 239 205 334c0 7 0 13 -1 18c-34 -36 -72 -54 -113 -54c-68 0 -107 46 -107 125c0 120 127 237 251 237c41 0 82 -16 82 -49c0 -25 -26 -41 -80 -55c-7 17 -16 24 -25 24
c-43 0 -95 -95 -95 -159c0 -28 8 -39 20 -39c26 0 68 61 53 115c48 32 61 32 80 32c42 0 61 -28 68 -105c54 34 106 69 144 128c-16 12 -26 30 -26 51c0 50 43 80 98 80c30 0 48 -12 48 -32c0 -10 -4 -23 -12 -38c12 -1 25 -1 41 -1h52c78 0 128 -32 128 -79
c0 -38 -40 -86 -97 -122c25 -8 54 -24 79 -48c85 52 206 112 266 112c46 0 52 -25 52 -45zM113 -211c46 0 76 160 87 281c-64 -77 -104 -166 -104 -246c0 -21 5 -35 17 -35zM574 -177c22 0 123 111 133 225c-84 -77 -144 -160 -144 -206c0 -11 3 -19 11 -19z" />
    <glyph glyph-name="uni04350437.liga" unicode="&#x435;&#x437;" horiz-adv-x="1056" 
d="M1154 278c-32 -7 -120 -30 -272 -130c9 -22 16 -47 16 -75c0 -154 -136 -328 -278 -328c-58 0 -107 31 -107 86c0 73 84 199 222 309c-20 33 -61 53 -128 65c-16 28 -13 42 13 60c69 46 102 83 102 116c-25 0 -66 -6 -104 -6c-7 0 -13 0 -19 1
c-55 -146 -183 -365 -378 -365c-128 0 -230 98 -230 235c0 132 84 237 192 237c77 0 123 -49 123 -131c0 -88 -66 -153 -126 -194c21 -32 51 -50 87 -50c70 0 177 89 262 289c-19 12 -30 31 -30 54c0 50 43 80 98 80c30 0 48 -12 48 -32c0 -10 -4 -23 -12 -38
c12 -1 25 -1 41 -1h52c78 0 128 -32 128 -79c0 -38 -40 -86 -97 -122c25 -8 54 -24 79 -48c85 52 206 112 266 112c46 0 52 -25 52 -45zM189 393c-19 0 -42 -50 -42 -101c0 -19 1 -37 4 -53c31 33 55 71 55 117c0 22 -8 37 -17 37zM617 -177c22 0 123 111 133 225
c-84 -77 -144 -160 -144 -206c0 -11 3 -19 11 -19z" />
    <glyph glyph-name="uni04360437.liga" unicode="&#x436;&#x437;" horiz-adv-x="1575" 
d="M1677 278c-32 -7 -120 -30 -272 -130c9 -22 16 -47 16 -75c0 -154 -136 -328 -278 -328c-58 0 -107 31 -107 86c0 73 84 199 222 309c-20 33 -61 53 -128 65c-16 28 -13 42 13 60c69 46 102 83 102 116c-25 0 -66 -6 -104 -6c-11 0 -20 1 -29 2
c-71 -124 -230 -359 -404 -359c-101 0 -172 61 -188 157c-17 -21 -34 -41 -45 -53c0 -68 5 -147 21 -178c-25 -20 -52 -33 -73 -33c-46 0 -66 31 -66 101c0 67 4 131 5 183c-14 -17 -34 -34 -56 -53c-26 -85 -98 -139 -193 -139c-76 0 -130 27 -130 66c0 16 8 31 26 53
c31 -23 53 -33 71 -33c51 0 97 46 97 120c0 59 -26 113 -75 135c-7 -13 -20 -34 -47 -55c-42 -3 -73 24 -73 61c0 49 54 89 122 90c115 0 199 -84 211 -201c17 18 33 36 48 54l-1 163c0 32 -6 65 -15 89c18 22 56 40 84 40c43 0 58 -25 58 -89c0 -72 -9 -172 -11 -265
c13 11 29 29 46 50c25 100 108 173 208 173c97 0 120 -67 120 -91c0 -26 -24 -45 -67 -55c-22 13 -39 28 -52 45c-53 -22 -76 -69 -76 -135c0 -70 28 -115 75 -115c79 0 202 122 310 302c-13 12 -20 28 -20 46c0 50 43 80 98 80c30 0 48 -12 48 -32c0 -10 -4 -23 -12 -38
c12 -1 25 -1 41 -1h52c78 0 128 -32 128 -79c0 -38 -40 -86 -97 -122c25 -8 54 -24 79 -48c85 52 206 112 266 112c46 0 52 -25 52 -45zM1140 -177c22 0 123 111 133 225c-84 -77 -144 -160 -144 -206c0 -11 3 -19 11 -19z" />
    <glyph glyph-name="uni04380437.liga" unicode="&#x438;&#x437;" horiz-adv-x="1121" 
d="M1219 278c-32 -7 -120 -30 -272 -130c9 -22 16 -47 16 -75c0 -154 -136 -328 -278 -328c-58 0 -107 31 -107 86c0 73 84 199 222 309c-20 33 -61 53 -128 65c-16 28 -13 42 13 60c69 46 102 83 102 116c-25 0 -66 -6 -104 -6c-8 0 -16 1 -23 1
c-83 -197 -170 -336 -292 -336c-57 0 -105 31 -123 96c-39 -50 -93 -97 -154 -97c-70 0 -105 44 -105 128c0 34 7 102 7 171c0 45 -2 68 -9 101c29 5 57 10 85 10c49 0 70 -24 70 -80c0 -33 -9 -113 -9 -168c0 -38 7 -53 18 -53c15 0 54 26 91 85c3 43 8 88 8 126
c0 36 -3 63 -9 79c17 3 37 6 55 6c64 0 93 -33 93 -112c0 -26 -12 -95 -12 -143c0 -46 6 -68 24 -68c38 0 114 99 190 280c-15 12 -24 30 -24 50c0 50 43 80 98 80c30 0 48 -12 48 -32c0 -10 -4 -23 -12 -38c12 -1 25 -1 41 -1h52c78 0 128 -32 128 -79
c0 -38 -40 -86 -97 -122c25 -8 54 -24 79 -48c85 52 206 112 266 112c46 0 52 -25 52 -45zM682 -177c22 0 123 111 133 225c-84 -77 -144 -160 -144 -206c0 -11 3 -19 11 -19z" />
    <glyph glyph-name="uni04390437.liga" unicode="&#x439;&#x437;" horiz-adv-x="1121" 
d="M185 468c-49 0 -154 20 -154 106c0 23 19 38 46 38c12 0 27 -3 40 -9c46 -22 30 -55 66 -55c58 0 28 59 107 59c31 0 57 -18 57 -39c0 -76 -105 -100 -162 -100zM1219 278c-32 -7 -120 -30 -272 -130c9 -22 16 -47 16 -75c0 -154 -136 -328 -278 -328
c-58 0 -107 31 -107 86c0 73 84 199 222 309c-20 33 -61 53 -128 65c-16 28 -13 42 13 60c69 46 102 83 102 116c-25 0 -66 -6 -104 -6c-8 0 -16 1 -23 1c-83 -197 -170 -336 -292 -336c-57 0 -105 31 -123 96c-39 -50 -93 -97 -154 -97c-70 0 -105 44 -105 128
c0 34 7 102 7 171c0 45 -2 68 -9 101c29 5 57 10 85 10c49 0 70 -24 70 -80c0 -33 -9 -113 -9 -168c0 -38 7 -53 18 -53c15 0 54 26 91 85c3 43 8 88 8 126c0 36 -3 63 -9 79c17 3 37 6 55 6c64 0 93 -33 93 -112c0 -26 -12 -95 -12 -143c0 -46 6 -68 24 -68
c38 0 114 99 190 280c-15 12 -24 30 -24 50c0 50 43 80 98 80c30 0 48 -12 48 -32c0 -10 -4 -23 -12 -38c12 -1 25 -1 41 -1h52c78 0 128 -32 128 -79c0 -38 -40 -86 -97 -122c25 -8 54 -24 79 -48c85 52 206 112 266 112c46 0 52 -25 52 -45zM682 -177
c22 0 123 111 133 225c-84 -77 -144 -160 -144 -206c0 -11 3 -19 11 -19z" />
    <glyph glyph-name="uni043A0437.liga" unicode="&#x43a;&#x437;" horiz-adv-x="1158" 
d="M1258 278c-32 -7 -120 -30 -272 -130c9 -22 16 -47 16 -75c0 -154 -136 -328 -278 -328c-58 0 -107 31 -107 86c0 73 84 199 222 309c-20 33 -61 53 -128 65c-16 28 -13 42 13 60c69 46 102 83 102 116c-25 0 -66 -6 -104 -6c-10 0 -19 1 -27 2
c-70 -176 -179 -353 -298 -353c-85 0 -164 69 -213 135c-19 -12 -39 -24 -60 -36v-33c0 -66 -26 -105 -71 -105c-29 0 -58 15 -67 24c13 48 19 142 19 285c0 59 0 125 -24 201c37 22 69 33 96 33c48 0 62 -33 62 -104c0 -19 -1 -37 -3 -60c37 70 92 126 154 126
c56 0 90 -33 90 -89c0 -45 -31 -106 -103 -172c37 -54 82 -96 125 -96c86 0 169 153 223 270c-14 12 -22 28 -22 48c0 50 43 80 98 80c30 0 48 -12 48 -32c0 -10 -4 -23 -12 -38c12 -1 25 -1 41 -1h52c78 0 128 -32 128 -79c0 -38 -40 -86 -97 -122c25 -8 54 -24 79 -48
c85 52 206 112 266 112c46 0 52 -25 52 -45zM242 392c-21 0 -82 -97 -113 -173c61 42 130 109 130 156c0 10 -5 17 -17 17zM721 -177c22 0 123 111 133 225c-84 -77 -144 -160 -144 -206c0 -11 3 -19 11 -19z" />
    <glyph glyph-name="uni043B0437.liga" unicode="&#x43b;&#x437;" horiz-adv-x="1090" 
d="M1190 278c-32 -7 -120 -30 -272 -130c9 -22 16 -47 16 -75c0 -154 -136 -328 -278 -328c-58 0 -107 31 -107 86c0 73 84 199 222 309c-20 33 -61 53 -128 65c-16 28 -13 42 13 60c69 46 102 83 102 116c-25 0 -66 -6 -104 -6c-6 0 -12 0 -17 1
c-111 -291 -201 -363 -290 -364c-77 -1 -118 52 -160 176c-28 82 -34 120 -41 120c-10 0 -49 -145 -56 -209c-3 -36 -2 -57 1 -71c-13 -7 -66 -17 -92 -17c-49 0 -69 24 -64 73c4 41 27 97 49 155c28 76 68 130 100 216c99 24 124 15 158 -66c100 -242 116 -269 140 -269
c47 0 115 116 178 281c-16 12 -25 29 -25 50c0 50 43 80 98 80c30 0 48 -12 48 -32c0 -10 -4 -23 -12 -38c12 -1 25 -1 41 -1h52c78 0 128 -32 128 -79c0 -38 -40 -86 -97 -122c25 -8 54 -24 79 -48c85 52 206 112 266 112c46 0 52 -25 52 -45zM653 -177
c22 0 123 111 133 225c-84 -77 -144 -160 -144 -206c0 -11 3 -19 11 -19z" />
    <glyph glyph-name="uni043C0437.liga" unicode="&#x43c;&#x437;" horiz-adv-x="1325" 
d="M1423 278c-32 -7 -120 -30 -272 -130c9 -22 16 -47 16 -75c0 -154 -136 -328 -278 -328c-58 0 -107 31 -107 86c0 73 84 199 222 309c-20 33 -61 53 -128 65c-16 28 -13 42 13 60c69 46 102 83 102 116c-25 0 -66 -6 -104 -6c-12 0 -22 1 -32 2
c-90 -208 -164 -357 -310 -357c-117 0 -149 97 -156 199c-46 -93 -92 -119 -136 -119c-60 0 -90 48 -103 100c-1 -20 -1 -42 -1 -64c0 -74 -2 -141 -97 -141c-29 0 -59 6 -77 15c24 67 51 201 56 318c1 31 -1 96 -5 112c11 8 38 19 67 19c46 0 74 -26 90 -57
c25 -46 29 -205 72 -205c50 0 108 151 159 223c42 62 124 39 136 16c-10 -40 -18 -100 -18 -155c0 -98 13 -163 56 -163c47 0 110 60 203 284c-14 12 -23 29 -23 49c0 50 43 80 98 80c30 0 48 -12 48 -32c0 -10 -4 -23 -12 -38c12 -1 25 -1 41 -1h52c78 0 128 -32 128 -79
c0 -38 -40 -86 -97 -122c25 -8 54 -24 79 -48c85 52 206 112 266 112c46 0 52 -25 52 -45zM886 -177c22 0 123 111 133 225c-84 -77 -144 -160 -144 -206c0 -11 3 -19 11 -19z" />
    <glyph glyph-name="uni043D0437.liga" unicode="&#x43d;&#x437;" horiz-adv-x="1140" 
d="M1242 278c-32 -7 -120 -30 -272 -130c9 -22 16 -47 16 -75c0 -154 -136 -328 -278 -328c-58 0 -107 31 -107 86c0 73 84 199 222 309c-20 33 -61 53 -128 65c-16 28 -13 42 13 60c69 46 102 83 102 116c-25 0 -66 -6 -104 -6c-10 0 -20 1 -29 2
c-109 -236 -168 -356 -296 -356c-85 0 -131 52 -131 162v16c-31 -1 -70 -3 -108 -5v-5c0 -84 5 -131 18 -153c-23 -8 -62 -15 -86 -15c-64 0 -88 39 -88 133c0 35 7 106 7 179c0 47 -2 71 -9 106c31 4 57 10 86 10c57 0 79 -25 79 -84c0 -20 -2 -56 -4 -94c34 2 72 4 110 5
c2 27 4 54 4 79c0 37 -3 66 -9 83c18 3 39 6 58 6c73 0 103 -35 103 -118c0 -27 -12 -99 -12 -149c0 -48 6 -73 24 -73c26 0 90 77 188 298c-15 12 -24 29 -24 49c0 50 43 80 98 80c30 0 48 -12 48 -32c0 -10 -4 -23 -12 -38c12 -1 25 -1 41 -1h52c78 0 128 -32 128 -79
c0 -38 -40 -86 -97 -122c25 -8 54 -24 79 -48c85 52 206 112 266 112c46 0 52 -25 52 -45zM705 -177c22 0 123 111 133 225c-84 -77 -144 -160 -144 -206c0 -11 3 -19 11 -19z" />
    <glyph glyph-name="uni043E0437.liga" unicode="&#x43e;&#x437;" horiz-adv-x="1093" 
d="M1190 278c-32 -7 -120 -30 -272 -130c9 -22 16 -47 16 -75c0 -154 -136 -328 -278 -328c-58 0 -107 31 -107 86c0 73 84 199 222 309c-20 33 -61 53 -128 65c-16 28 -13 42 13 60c69 46 102 83 102 116c-25 0 -66 -6 -104 -6c-9 0 -18 1 -26 1
c-49 -100 -119 -178 -219 -178c-14 0 -27 1 -39 4c-25 -91 -93 -169 -201 -171c-135 -3 -192 109 -192 198c0 74 39 131 101 137c10 69 66 110 139 110c100 0 164 -76 164 -191v-5c11 -5 24 -9 40 -9c55 0 101 45 144 126c-18 12 -30 31 -30 54c0 50 43 80 98 80
c30 0 48 -12 48 -32c0 -10 -4 -23 -12 -38c12 -1 25 -1 41 -1h52c78 0 128 -32 128 -79c0 -38 -40 -86 -97 -122c25 -8 54 -24 79 -48c85 52 206 112 266 112c46 0 52 -25 52 -45zM173 94c33 0 61 72 61 157c0 86 -28 136 -63 136c-20 0 -33 -16 -40 -29
c25 -12 39 -38 39 -76c0 -14 -2 -26 -6 -42c-21 0 -38 -38 -38 -71c0 -40 24 -75 47 -75zM653 -177c22 0 123 111 133 225c-84 -77 -144 -160 -144 -206c0 -11 3 -19 11 -19z" />
    <glyph glyph-name="uni043F0437.liga" unicode="&#x43f;&#x437;" horiz-adv-x="1211" 
d="M1316 278c-32 -7 -120 -30 -272 -130c9 -22 16 -47 16 -75c0 -154 -136 -328 -278 -328c-58 0 -107 31 -107 86c0 73 84 199 222 309c-20 33 -61 53 -128 65c-16 28 -13 42 13 60c69 46 102 83 102 116c-25 0 -66 -6 -104 -6c-7 0 -14 0 -21 1
c-68 -164 -187 -384 -339 -384c-103 0 -138 81 -138 165c0 59 20 117 20 176c0 25 -4 33 -13 36c-38 -19 -91 -117 -139 -302c-14 -8 -31 -13 -52 -13c-89 0 -97 68 -97 136c0 73 8 129 8 180c0 29 -3 57 -10 80c21 21 58 37 88 37c45 0 72 -28 72 -75c0 -20 -4 -65 -5 -112
c63 104 123 147 183 147c86 0 106 -64 106 -143c0 -26 -4 -68 -4 -108c0 -56 1 -100 35 -100c42 0 139 119 212 304c-15 12 -25 30 -25 51c0 50 43 80 98 80c30 0 48 -12 48 -32c0 -10 -4 -23 -12 -38c12 -1 25 -1 41 -1h52c78 0 128 -32 128 -79c0 -38 -40 -86 -97 -122
c25 -8 54 -24 79 -48c85 52 206 112 266 112c46 0 52 -25 52 -45zM779 -177c22 0 123 111 133 225c-84 -77 -144 -160 -144 -206c0 -11 3 -19 11 -19z" />
    <glyph glyph-name="uni04400437.liga" unicode="&#x440;&#x437;" horiz-adv-x="1058" 
d="M1158 278c-32 -7 -120 -30 -272 -130c9 -22 16 -47 16 -75c0 -154 -136 -328 -278 -328c-58 0 -107 31 -107 86c0 73 84 199 222 309c-20 33 -61 53 -128 65c-16 28 -13 42 13 60c69 46 102 83 102 116c-25 0 -66 -6 -104 -6c-18 0 -34 2 -48 5
c-55 -55 -134 -84 -198 -102c-35 -83 -103 -160 -162 -160c-36 0 -50 22 -50 50c0 63 48 112 115 144c3 17 5 33 5 43c0 20 -6 27 -19 27c-70 0 -127 -158 -127 -366c0 -95 10 -185 19 -249c-30 -7 -57 -11 -79 -11c-76 0 -97 46 -90 185c7 129 13 296 13 366
c0 73 2 113 -19 188c26 25 57 39 83 39c43 0 67 -33 67 -89c0 -14 -1 -28 -2 -39c60 47 119 75 171 75c53 0 100 -29 100 -98c0 -10 -1 -21 -3 -32c43 15 84 35 117 63c-8 10 -12 23 -12 37c0 50 43 80 98 80c30 0 48 -12 48 -32c0 -10 -4 -23 -12 -38c12 -1 25 -1 41 -1h52
c78 0 128 -32 128 -79c0 -38 -40 -86 -97 -122c25 -8 54 -24 79 -48c85 52 206 112 266 112c46 0 52 -25 52 -45zM220 153c13 0 29 39 42 84c-36 -24 -50 -55 -50 -72c0 -7 3 -12 8 -12zM621 -177c22 0 123 111 133 225c-84 -77 -144 -160 -144 -206c0 -11 3 -19 11 -19z
" />
    <glyph glyph-name="uni04410437.liga" unicode="&#x441;&#x437;" horiz-adv-x="1051" 
d="M1150 278c-32 -7 -120 -30 -272 -130c9 -22 16 -47 16 -75c0 -154 -136 -328 -278 -328c-58 0 -107 31 -107 86c0 73 84 199 222 309c-20 33 -61 53 -128 65c-16 28 -13 42 13 60c69 46 102 83 102 116c-25 0 -66 -6 -104 -6c-8 0 -15 0 -21 1
c-60 -140 -219 -358 -398 -358c-131 0 -210 81 -210 201c0 112 76 235 223 235c74 0 150 -47 150 -92c0 -24 -20 -40 -74 -62c-28 48 -47 67 -67 67c-41 0 -75 -59 -75 -136c0 -74 32 -127 92 -127c89 0 208 135 291 293c-18 12 -30 31 -30 54c0 50 43 80 98 80
c30 0 48 -12 48 -32c0 -10 -4 -23 -12 -38c12 -1 25 -1 41 -1h52c78 0 128 -32 128 -79c0 -38 -40 -86 -97 -122c25 -8 54 -24 79 -48c85 52 206 112 266 112c46 0 52 -25 52 -45zM613 -177c22 0 123 111 133 225c-84 -77 -144 -160 -144 -206c0 -11 3 -19 11 -19z" />
    <glyph glyph-name="uni04420437.liga" unicode="&#x442;&#x437;" horiz-adv-x="1402" 
d="M1504 278c-32 -7 -120 -30 -272 -130c9 -22 16 -47 16 -75c0 -154 -136 -328 -278 -328c-58 0 -107 31 -107 86c0 73 84 199 222 309c-20 33 -61 53 -128 65c-16 28 -13 42 13 60c69 46 102 83 102 116c-25 0 -66 -6 -104 -6c-8 0 -15 0 -22 1
c-63 -161 -141 -342 -321 -342c-90 0 -125 64 -125 132c0 63 12 113 12 154c-10 -17 -29 -63 -48 -111c-40 -103 -72 -146 -117 -146c-31 0 -61 17 -77 44c3 17 19 94 19 176c0 31 -5 50 -3 57c-26 -35 -108 -296 -222 -296c-33 0 -68 15 -86 37c11 127 35 248 0 351
c17 19 49 32 77 32c51 0 65 -62 65 -130c0 -58 -10 -120 -15 -155c67 148 105 267 211 267c54 0 78 -81 72 -179c40 90 89 170 169 170c57 0 93 -37 93 -95c0 -47 -8 -106 -8 -152c0 -51 16 -72 42 -72c53 0 135 127 193 281c-18 12 -28 30 -28 52c0 50 43 80 98 80
c30 0 48 -12 48 -32c0 -10 -4 -23 -12 -38c12 -1 25 -1 41 -1h52c78 0 128 -32 128 -79c0 -38 -40 -86 -97 -122c25 -8 54 -24 79 -48c85 52 206 112 266 112c46 0 52 -25 52 -45zM967 -177c22 0 123 111 133 225c-84 -77 -144 -160 -144 -206c0 -11 3 -19 11 -19z" />
    <glyph glyph-name="uni04430437.liga" unicode="&#x443;&#x437;" horiz-adv-x="1015" 
d="M1116 278c-32 -7 -120 -30 -272 -130c9 -22 16 -47 16 -75c0 -154 -136 -328 -278 -328c-58 0 -107 31 -107 86c0 73 84 199 222 309c-20 33 -61 53 -128 65c-16 28 -13 42 13 60c69 46 102 83 102 116c-25 0 -66 -6 -104 -6c-15 0 -29 1 -40 3
c-56 -79 -134 -137 -207 -192c-36 -319 -180 -454 -245 -454c-56 0 -92 47 -92 119c0 123 93 234 205 323l3 35c-32 -36 -70 -57 -108 -57c-67 0 -108 66 -108 168c0 28 2 52 2 77c0 21 -1 40 -3 58c9 9 35 19 65 19c47 0 74 -22 74 -58c0 -21 -8 -71 -8 -112
c0 -32 5 -58 23 -58c30 0 55 89 54 207c14 17 49 24 70 24c72 0 77 -57 77 -134c0 -23 0 -44 -1 -66c53 43 100 85 135 133c-9 11 -15 25 -15 41c0 50 43 80 98 80c30 0 48 -12 48 -32c0 -10 -4 -23 -12 -38c12 -1 25 -1 41 -1h52c78 0 128 -32 128 -79
c0 -38 -40 -86 -97 -122c25 -8 54 -24 79 -48c85 52 206 112 266 112c46 0 52 -25 52 -45zM84 -192c28 0 71 122 97 246c-66 -71 -109 -148 -109 -223c0 -14 4 -23 12 -23zM579 -177c22 0 123 111 133 225c-84 -77 -144 -160 -144 -206c0 -11 3 -19 11 -19z" />
    <glyph glyph-name="uni04440437.liga" unicode="&#x444;&#x437;" horiz-adv-x="1408" 
d="M1508 278c-32 -7 -120 -30 -272 -130c9 -22 16 -47 16 -75c0 -154 -136 -328 -278 -328c-58 0 -107 31 -107 86c0 73 84 199 222 309c-20 33 -61 53 -128 65c-16 28 -13 42 13 60c69 46 102 83 102 116c-25 0 -66 -6 -104 -6c-15 0 -29 1 -41 3
c-49 -51 -121 -80 -184 -105v-7c0 -105 -71 -195 -152 -195c-51 0 -84 31 -84 82c0 63 47 111 108 143c-9 35 -23 61 -44 61c-72 0 -157 -165 -157 -469c0 -41 5 -84 13 -103c-17 -18 -54 -33 -79 -33c-50 0 -71 32 -70 101c0 48 3 165 4 293c-31 -51 -77 -89 -135 -89
c-95 0 -160 79 -160 191c0 114 84 196 162 196c60 0 110 -31 110 -70c0 -30 -31 -48 -51 -52c-16 33 -29 47 -43 47c-30 0 -50 -54 -50 -121c0 -62 22 -101 54 -101c29 0 76 29 113 108c0 231 -7 323 -23 361c20 22 60 40 90 40c47 0 68 -29 68 -89c0 -33 -6 -161 -17 -301
c39 119 102 174 182 174c66 0 120 -38 146 -97c59 24 100 43 133 71c-8 11 -12 23 -12 37c0 50 43 80 98 80c30 0 48 -12 48 -32c0 -10 -4 -23 -12 -38c12 -1 25 -1 41 -1h52c78 0 128 -32 128 -79c0 -38 -40 -86 -97 -122c25 -8 54 -24 79 -48c85 52 206 112 266 112
c46 0 52 -25 52 -45zM597 119c23 0 31 59 31 90v8c-28 -21 -46 -47 -46 -76c0 -10 4 -22 15 -22zM971 -177c22 0 123 111 133 225c-84 -77 -144 -160 -144 -206c0 -11 3 -19 11 -19z" />
    <glyph glyph-name="uni044C0437.liga" unicode="&#x44c;&#x437;" horiz-adv-x="1044" 
d="M1145 278c-32 -7 -120 -30 -272 -130c9 -22 16 -47 16 -75c0 -154 -136 -328 -278 -328c-58 0 -107 31 -107 86c0 73 84 199 222 309c-20 33 -61 53 -128 65c-16 28 -13 42 13 60c69 46 102 83 102 116c-25 0 -66 -6 -104 -6c-9 0 -17 1 -25 1
c-53 -101 -136 -223 -237 -265c-18 -67 -82 -125 -178 -125c-122 0 -200 83 -200 210c0 79 18 158 18 216c0 25 -5 45 -13 58c13 3 28 3 39 3c110 0 131 -55 131 -104c0 -25 -4 -57 -9 -91c18 11 43 17 70 17c78 0 127 -50 142 -107c65 42 127 124 172 210
c-18 12 -29 31 -29 53c0 50 43 80 98 80c30 0 48 -12 48 -32c0 -10 -4 -23 -12 -38c12 -1 25 -1 41 -1h52c78 0 128 -32 128 -79c0 -38 -40 -86 -97 -122c25 -8 54 -24 79 -48c85 52 206 112 266 112c46 0 52 -25 52 -45zM197 219c-9 0 -15 -6 -15 -16c0 -21 21 -32 44 -38
v2c0 30 -15 52 -29 52zM173 71c16 0 30 13 40 33c-40 11 -71 32 -90 55c0 -56 19 -88 50 -88zM608 -177c22 0 123 111 133 225c-84 -77 -144 -160 -144 -206c0 -11 3 -19 11 -19z" />
    <glyph glyph-name="uni044A0436.liga" unicode="&#x44a;&#x436;" horiz-adv-x="1626" 
d="M1665 362c36 -8 49 -25 40 -52c-14 -49 -208 -292 -387 -292c-100 0 -171 62 -187 157c-17 -21 -34 -41 -45 -53c0 -68 5 -147 21 -178c-25 -20 -52 -33 -73 -33c-46 0 -66 31 -66 101c0 67 4 131 5 183c-14 -17 -34 -34 -56 -53c-25 -85 -97 -139 -193 -139
c-76 0 -130 27 -130 66c0 16 8 31 26 53c31 -23 53 -33 71 -33c51 0 97 46 97 120c0 57 -24 109 -70 133c-1 -4 -1 -8 -2 -12c-23 -127 -147 -269 -283 -300c-38 -65 -120 -112 -209 -112c-90 0 -157 60 -157 138c0 77 38 150 66 199c-114 7 -171 46 -171 113
c0 54 55 105 118 105c49 0 70 -20 70 -54c0 -24 -10 -45 -29 -73h11c22 0 45 1 67 1c66 0 108 -21 108 -56c0 -18 -9 -43 -21 -72c14 5 30 8 48 8c66 0 121 -54 121 -119c68 32 136 96 171 188c-20 10 -33 30 -33 54c0 49 54 89 122 90c114 0 199 -84 211 -201
c17 18 33 36 48 54l-1 163c0 32 -6 65 -15 89c18 22 56 40 84 40c43 0 58 -25 58 -89c0 -72 -9 -172 -11 -265c13 11 29 29 46 50c25 99 108 173 208 173c97 0 120 -67 120 -91c0 -26 -24 -45 -67 -55c-22 13 -39 28 -52 45c-53 -22 -76 -69 -76 -135c0 -70 28 -115 84 -115
c77 0 231 127 313 259zM312 151c-6 0 -10 -8 -10 -19c1 -17 14 -31 33 -39c1 4 1 9 1 14c-1 21 -14 44 -24 44zM261 3c20 0 39 12 53 32c-36 11 -64 32 -80 57c-4 -16 -7 -30 -7 -43c0 -29 13 -46 34 -46z" />
    <glyph glyph-name="uni044A0437.liga" unicode="&#x44a;&#x437;" horiz-adv-x="1156" 
d="M1255 278c-32 -7 -120 -30 -272 -130c9 -22 16 -47 16 -75c0 -154 -136 -328 -278 -328c-58 0 -107 31 -107 86c0 73 84 199 222 309c-20 33 -61 53 -128 65c-16 28 -13 42 13 60c69 46 102 83 102 116c-25 0 -66 -6 -104 -6c-8 0 -16 1 -23 1
c-67 -167 -153 -298 -259 -339c-36 -68 -121 -119 -213 -119c-90 0 -157 60 -157 138c0 77 38 150 66 199c-114 7 -171 46 -171 113c0 54 55 105 118 105c49 0 70 -20 70 -54c0 -24 -10 -45 -29 -73h11c22 0 45 1 67 1c66 0 108 -21 108 -56c0 -18 -9 -43 -21 -72
c14 5 30 8 48 8c62 0 114 -47 120 -107c62 47 123 142 177 276c-19 12 -31 31 -31 55c0 50 43 80 98 80c30 0 48 -12 48 -32c0 -10 -4 -23 -12 -38c12 -1 25 -1 41 -1h52c78 0 128 -32 128 -79c0 -38 -40 -86 -97 -122c25 -8 54 -24 79 -48c85 52 206 112 266 112
c46 0 52 -25 52 -45zM312 151c-6 0 -10 -8 -10 -19c1 -17 14 -31 33 -39c1 4 1 9 1 14c-1 21 -14 44 -24 44zM261 3c19 0 38 12 51 30c-33 12 -62 33 -78 58c-4 -15 -7 -29 -7 -42c0 -29 13 -46 34 -46zM718 -177c22 0 123 111 133 225c-84 -77 -144 -160 -144 -206
c0 -11 3 -19 11 -19z" />
    <glyph glyph-name="uni044B0437.liga" unicode="&#x44b;&#x437;" horiz-adv-x="1366" 
d="M1468 278c-32 -7 -120 -30 -272 -130c9 -22 16 -47 16 -75c0 -154 -136 -328 -278 -328c-58 0 -107 31 -107 86c0 73 84 199 222 309c-20 33 -61 53 -128 65c-16 28 -13 42 13 60c69 46 102 83 102 116c-25 0 -66 -6 -104 -6c-9 0 -17 1 -25 1
c-61 -153 -160 -378 -320 -378c-108 0 -157 72 -169 159c-22 -18 -45 -33 -69 -43c-20 -65 -83 -120 -176 -120c-122 0 -200 83 -200 210c0 79 18 158 18 216c0 25 -5 45 -13 58c13 3 28 3 39 3c110 0 131 -55 131 -104c0 -25 -4 -57 -9 -91c18 11 43 17 70 17
c83 0 134 -57 145 -119c22 15 43 35 63 60c4 51 15 93 15 141c0 32 -4 55 -14 78c19 7 49 12 73 12c65 0 99 -38 99 -109c0 -70 -21 -157 -21 -210c0 -31 14 -70 44 -70c93 0 179 193 229 312c-18 12 -29 30 -29 53c0 50 43 80 98 80c30 0 48 -12 48 -32
c0 -10 -4 -23 -12 -38c12 -1 25 -1 41 -1h52c78 0 128 -32 128 -79c0 -38 -40 -86 -97 -122c25 -8 54 -24 79 -48c85 52 206 112 266 112c46 0 52 -25 52 -45zM201 227c-9 0 -15 -6 -15 -16c0 -21 19 -36 44 -45v9c0 30 -15 52 -29 52zM177 79c15 0 29 12 39 31
c-39 12 -69 34 -89 57c0 -56 19 -88 50 -88zM931 -177c22 0 123 111 133 225c-84 -77 -144 -160 -144 -206c0 -11 3 -19 11 -19z" />
    <glyph glyph-name="uni044D0437.liga" unicode="&#x44d;&#x437;" horiz-adv-x="1053" 
d="M1148 278c-32 -7 -120 -30 -272 -130c9 -22 16 -47 16 -75c0 -154 -136 -328 -278 -328c-58 0 -107 31 -107 86c0 73 84 199 222 309c-20 33 -61 53 -128 65c-16 28 -13 42 13 60c69 46 102 83 102 116c-25 0 -66 -6 -104 -6c-8 0 -15 0 -22 1
c-29 -71 -98 -161 -194 -161c-7 0 -16 0 -25 2c-3 -102 -75 -210 -224 -210c-94 0 -148 43 -148 94c0 36 28 58 80 55c9 -34 32 -52 61 -52c40 0 71 35 81 87c-14 -2 -31 -4 -49 -4c-81 0 -88 38 -74 85c40 -9 92 -2 123 1c-11 55 -43 94 -82 94c-25 0 -48 -17 -69 -62
c-52 17 -78 35 -78 56c0 29 50 93 156 93c110 0 180 -69 208 -149c12 -7 26 -10 44 -10c47 1 87 34 126 100c-20 12 -33 32 -33 56c0 50 43 80 98 80c30 0 48 -12 48 -32c0 -10 -4 -23 -12 -38c12 -1 25 -1 41 -1h52c78 0 128 -32 128 -79c0 -38 -40 -86 -97 -122
c25 -8 54 -24 79 -48c85 52 206 112 266 112c46 0 52 -25 52 -45zM611 -177c22 0 123 111 133 225c-84 -77 -144 -160 -144 -206c0 -11 3 -19 11 -19z" />
    <glyph glyph-name="uni044E0437.liga" unicode="&#x44e;&#x437;" horiz-adv-x="1284" 
d="M1385 278c-32 -7 -120 -30 -272 -130c9 -22 16 -47 16 -75c0 -154 -136 -328 -278 -328c-58 0 -107 31 -107 86c0 73 84 199 222 309c-20 33 -61 53 -128 65c-16 28 -13 42 13 60c69 46 102 83 102 116c-25 0 -66 -6 -104 -6c-10 0 -20 1 -29 2
c-35 -76 -106 -177 -220 -177c-10 0 -20 1 -28 3c-20 -100 -89 -195 -208 -195c-108 0 -169 79 -176 177c-24 -22 -48 -49 -61 -81c2 -28 5 -52 9 -70c-11 -6 -35 -13 -61 -13c-81 0 -88 67 -88 136s7 128 7 175c0 31 -3 58 -9 80c19 21 52 37 83 37c38 0 63 -24 63 -84
c0 -20 -3 -70 -5 -122c24 21 50 38 76 50c32 94 113 160 208 160c96 0 158 -66 167 -166c12 -5 24 -9 37 -9c44 0 93 32 142 122c-16 12 -26 30 -26 51c0 50 43 80 98 80c30 0 48 -12 48 -32c0 -10 -4 -23 -12 -38c12 -1 25 -1 41 -1h52c78 0 128 -32 128 -79
c0 -38 -40 -86 -97 -122c25 -8 54 -24 79 -48c85 52 206 112 266 112c46 0 52 -25 52 -45zM383 92c23 0 45 73 45 150c0 68 -17 124 -36 124c-22 0 -49 -69 -49 -150c0 -69 20 -124 40 -124zM848 -177c22 0 123 111 133 225c-84 -77 -144 -160 -144 -206c0 -11 3 -19 11 -19
z" />
    <glyph glyph-name="uni044F0437.liga" unicode="&#x44f;&#x437;" horiz-adv-x="1069" 
d="M1170 278c-32 -7 -120 -30 -272 -130c9 -22 16 -47 16 -75c0 -154 -136 -328 -278 -328c-58 0 -107 31 -107 86c0 73 84 199 222 309c-20 33 -61 53 -128 65c-16 28 -13 42 13 60c69 46 102 83 102 116c-25 0 -66 -6 -104 -6c-7 0 -14 0 -21 1
c-78 -202 -148 -326 -270 -326c-54 0 -91 30 -108 79c-33 -70 -92 -129 -160 -129c-42 0 -72 29 -84 79c64 16 113 46 157 96c-16 -5 -32 -8 -47 -8c-66 0 -109 48 -109 121c0 102 85 194 182 194c48 0 80 -23 100 -45c9 5 20 7 33 7c24 0 58 -15 67 -29
c-11 -35 -31 -128 -31 -195c0 -50 16 -82 41 -82c46 0 112 110 166 256c-21 12 -35 32 -35 57c0 50 43 80 98 80c30 0 48 -12 48 -32c0 -10 -4 -23 -12 -38c12 -1 25 -1 41 -1h52c78 0 128 -32 128 -79c0 -38 -40 -86 -97 -122c25 -8 54 -24 79 -48c85 52 206 112 266 112
c46 0 52 -25 52 -45zM129 295c0 -22 7 -37 20 -37c31 0 56 46 92 135c-12 12 -23 17 -35 17c-37 0 -77 -58 -77 -115zM633 -177c22 0 123 111 133 225c-84 -77 -144 -160 -144 -206c0 -11 3 -19 11 -19z" />
    <glyph glyph-name=".notdef" horiz-adv-x="500" 
d="M410 730v-1000h-317v1000h317zM333 663h-165v-33h65v-37h-66v-33h166v33h-66v37h66v33zM267 534h-100v-104h166v34h-66v70zM233 500v-36h-33v36h33zM333 403h-166v-33h66v-37h-66v-33h100v70h66v33zM333 343h-33v-66h-133v-34h166v100zM333 221h-100v-56h34v23h33v-47
h-100v80h-33v-113h166v113zM333 48h-166v-113h166v113zM300 15v-47h-100v47h100zM333 -88h-166v-33h70l-70 -47v-33h166v33h-102l70 47h32v33z" />
    <glyph glyph-name="space" unicode=" " horiz-adv-x="187" 
 />
    <glyph glyph-name="A" unicode="A" horiz-adv-x="899" 
d="M796 186c0 -138 42 -206 76 -249c-13 -18 -47 -55 -106 -55c-87 0 -137 79 -137 216c0 22 1 46 3 72c-92 -19 -218 -17 -330 -2c-44 -107 -77 -215 -85 -308c-4 -35 0 -98 7 -138c-115 9 -189 12 -189 112c0 78 51 222 114 367c-52 17 -89 38 -97 60
c-15 43 -1 98 -10 148c49 -25 108 -52 174 -77c94 153 304 426 466 450c137 -16 119 -133 119 -258c0 -90 -5 -204 -5 -338zM357 288c92 -22 190 -33 285 -20c13 121 32 251 32 317c0 64 -21 90 -29 103c-66 -31 -190 -202 -288 -400z" />
    <glyph glyph-name="Aacute" unicode="&#xc1;" horiz-adv-x="899" 
d="M845 1031c0 -58 -111 -206 -191 -206c-26 0 -51 21 -61 30c81 93 93 159 102 189c19 13 48 22 77 22c41 0 73 -15 73 -35zM796 186c0 -138 42 -206 76 -249c-13 -18 -47 -55 -106 -55c-87 0 -137 79 -137 216c0 22 1 46 3 72c-92 -19 -218 -17 -330 -2
c-44 -107 -77 -215 -85 -308c-4 -35 0 -98 7 -138c-115 9 -189 12 -189 112c0 78 51 222 114 367c-52 17 -89 38 -97 60c-15 43 -1 98 -10 148c49 -25 108 -52 174 -77c94 153 304 426 466 450c137 -16 119 -133 119 -258c0 -90 -5 -204 -5 -338zM357 288
c92 -22 190 -33 285 -20c13 121 32 251 32 317c0 64 -21 90 -29 103c-66 -31 -190 -202 -288 -400z" />
    <glyph glyph-name="Abreve" unicode="&#x102;" horiz-adv-x="899" 
d="M686 835c-95 0 -176 76 -176 163c0 37 22 54 69 54c27 0 53 -9 64 -20c0 -69 20 -112 50 -112c35 0 51 36 51 112c10 11 36 20 65 20c46 0 68 -17 68 -54c0 -87 -89 -163 -191 -163zM801 524c0 -90 -5 -204 -5 -338c0 -138 42 -206 76 -249c-13 -18 -47 -55 -106 -55
c-87 0 -137 79 -137 216c0 22 1 46 3 72c-92 -19 -218 -17 -330 -2c-44 -107 -77 -215 -85 -308c-4 -35 0 -98 7 -138c-115 9 -189 12 -189 112c0 78 51 222 114 367c-52 17 -89 38 -97 60c-15 43 -1 98 -10 148c49 -25 108 -52 174 -77c94 153 304 426 466 450
c137 -16 119 -133 119 -258zM357 288c92 -22 190 -33 285 -20c13 121 32 251 32 317c0 64 -21 90 -29 103c-66 -31 -190 -202 -288 -400z" />
    <glyph glyph-name="Acircumflex" unicode="&#xc2;" horiz-adv-x="899" 
d="M689 1061c43 0 90 -42 213 -186c-18 -35 -37 -51 -64 -51c-40 0 -97 48 -149 120c-48 -71 -106 -120 -149 -120c-27 0 -46 16 -64 51c124 144 170 186 213 186zM801 524c0 -90 -5 -204 -5 -338c0 -138 42 -206 76 -249c-13 -18 -47 -55 -106 -55c-87 0 -137 79 -137 216
c0 22 1 46 3 72c-92 -19 -218 -17 -330 -2c-44 -107 -77 -215 -85 -308c-4 -35 0 -98 7 -138c-115 9 -189 12 -189 112c0 78 51 222 114 367c-52 17 -89 38 -97 60c-15 43 -1 98 -10 148c49 -25 108 -52 174 -77c94 153 304 426 466 450c137 -16 119 -133 119 -258zM357 288
c92 -22 190 -33 285 -20c13 121 32 251 32 317c0 64 -21 90 -29 103c-66 -31 -190 -202 -288 -400z" />
    <glyph glyph-name="Adieresis" unicode="&#xc4;" horiz-adv-x="899" 
d="M584 845c-48 0 -80 29 -80 73c0 47 37 80 89 80c49 0 84 -31 84 -74c0 -46 -39 -79 -93 -79zM780 845c-48 0 -80 29 -80 73c0 47 37 80 89 80c49 0 84 -31 84 -74c0 -46 -39 -79 -93 -79zM801 524c0 -90 -5 -204 -5 -338c0 -138 42 -206 76 -249
c-13 -18 -47 -55 -106 -55c-87 0 -137 79 -137 216c0 22 1 46 3 72c-92 -19 -218 -17 -330 -2c-44 -107 -77 -215 -85 -308c-4 -35 0 -98 7 -138c-115 9 -189 12 -189 112c0 78 51 222 114 367c-52 17 -89 38 -97 60c-15 43 -1 98 -10 148c49 -25 108 -52 174 -77
c94 153 304 426 466 450c137 -16 119 -133 119 -258zM357 288c92 -22 190 -33 285 -20c13 121 32 251 32 317c0 64 -21 90 -29 103c-66 -31 -190 -202 -288 -400z" />
    <glyph glyph-name="Agrave" unicode="&#xc0;" horiz-adv-x="899" 
d="M749 825c-80 0 -191 148 -191 206c0 20 32 35 73 35c29 0 58 -9 77 -22c9 -30 21 -96 102 -189c-10 -9 -35 -30 -61 -30zM796 186c0 -138 42 -206 76 -249c-13 -18 -47 -55 -106 -55c-87 0 -137 79 -137 216c0 22 1 46 3 72c-92 -19 -218 -17 -330 -2
c-44 -107 -77 -215 -85 -308c-4 -35 0 -98 7 -138c-115 9 -189 12 -189 112c0 78 51 222 114 367c-52 17 -89 38 -97 60c-15 43 -1 98 -10 148c49 -25 108 -52 174 -77c94 153 304 426 466 450c137 -16 119 -133 119 -258c0 -90 -5 -204 -5 -338zM357 288
c92 -22 190 -33 285 -20c13 121 32 251 32 317c0 64 -21 90 -29 103c-66 -31 -190 -202 -288 -400z" />
    <glyph glyph-name="Amacron" unicode="&#x100;" horiz-adv-x="899" 
d="M816 927c56 0 82 -13 82 -44c0 -20 -9 -44 -22 -59c-34 5 -57 7 -88 7c-23 0 -50 -1 -85 -2c-39 -2 -73 -3 -101 -3c-88 0 -122 16 -122 61c0 13 5 28 13 39c41 -4 158 -3 207 -3c42 0 82 4 116 4zM801 524c0 -90 -5 -204 -5 -338c0 -138 42 -206 76 -249
c-13 -18 -47 -55 -106 -55c-87 0 -137 79 -137 216c0 22 1 46 3 72c-92 -19 -218 -17 -330 -2c-44 -107 -77 -215 -85 -308c-4 -35 0 -98 7 -138c-115 9 -189 12 -189 112c0 78 51 222 114 367c-52 17 -89 38 -97 60c-15 43 -1 98 -10 148c49 -25 108 -52 174 -77
c94 153 304 426 466 450c137 -16 119 -133 119 -258zM357 288c92 -22 190 -33 285 -20c13 121 32 251 32 317c0 64 -21 90 -29 103c-66 -31 -190 -202 -288 -400z" />
    <glyph glyph-name="Aogonek" unicode="&#x104;" horiz-adv-x="899" 
d="M857 -195c26 -8 39 -22 39 -42c0 -36 -52 -68 -107 -68c-74 0 -130 44 -130 106c0 42 23 73 50 95c-52 28 -80 99 -80 202c0 22 1 46 3 72c-92 -19 -218 -17 -330 -2c-44 -107 -77 -215 -85 -308c-4 -35 0 -98 7 -138c-115 9 -189 12 -189 112c0 78 51 222 114 367
c-52 17 -89 38 -97 60c-15 43 -1 98 -10 148c49 -25 108 -52 174 -77c94 153 304 426 466 450c137 -16 119 -133 119 -258c0 -90 -5 -204 -5 -338c0 -138 42 -206 76 -249c-5 -7 -13 -16 -24 -25c-41 -40 -65 -72 -65 -98c0 -22 8 -33 22 -33s31 8 52 24zM357 288
c92 -22 190 -33 285 -20c13 121 32 251 32 317c0 64 -21 90 -29 103c-66 -31 -190 -202 -288 -400z" />
    <glyph glyph-name="Aring" unicode="&#xc5;" horiz-adv-x="899" 
d="M686 835c-70 0 -120 45 -120 109s51 109 121 109s120 -45 120 -109s-51 -109 -121 -109zM687 994c-15 0 -25 -17 -25 -49c0 -33 9 -51 23 -51c15 0 25 17 25 51c0 32 -9 49 -23 49zM796 186c0 -138 42 -206 76 -249c-13 -18 -47 -55 -106 -55c-87 0 -137 79 -137 216
c0 22 1 46 3 72c-92 -19 -218 -17 -330 -2c-44 -107 -77 -215 -85 -308c-4 -35 0 -98 7 -138c-115 9 -189 12 -189 112c0 78 51 222 114 367c-52 17 -89 38 -97 60c-15 43 -1 98 -10 148c49 -25 108 -52 174 -77c94 153 304 426 466 450c137 -16 119 -133 119 -258
c0 -90 -5 -204 -5 -338zM357 288c92 -22 190 -33 285 -20c13 121 32 251 32 317c0 64 -21 90 -29 103c-66 -31 -190 -202 -288 -400z" />
    <glyph glyph-name="Atilde" unicode="&#xc3;" horiz-adv-x="899" 
d="M566 851c-49 -3 -81 17 -81 50c0 50 63 102 124 102c73 0 126 -58 155 -58c19 0 37 33 48 52c49 2 81 -15 81 -44c0 -41 -54 -108 -124 -108s-126 58 -156 58c-15 0 -36 -22 -47 -52zM801 524c0 -90 -5 -204 -5 -338c0 -138 42 -206 76 -249c-13 -18 -47 -55 -106 -55
c-87 0 -137 79 -137 216c0 22 1 46 3 72c-92 -19 -218 -17 -330 -2c-44 -107 -77 -215 -85 -308c-4 -35 0 -98 7 -138c-115 9 -189 12 -189 112c0 78 51 222 114 367c-52 17 -89 38 -97 60c-15 43 -1 98 -10 148c49 -25 108 -52 174 -77c94 153 304 426 466 450
c137 -16 119 -133 119 -258zM357 288c92 -22 190 -33 285 -20c13 121 32 251 32 317c0 64 -21 90 -29 103c-66 -31 -190 -202 -288 -400z" />
    <glyph glyph-name="AE" unicode="&#xc6;" horiz-adv-x="1406" 
d="M1254 -4c50 0 82 -30 82 -77c0 -38 -18 -81 -50 -115c-141 27 -205 -48 -390 -48c-197 0 -268 68 -268 256c0 43 6 100 14 163c-92 -20 -207 -23 -319 -9c-47 -110 -81 -223 -90 -320c-4 -34 0 -97 7 -137c-115 9 -205 25 -205 125c0 70 40 199 114 367
c-52 18 -90 40 -97 60c-15 43 -1 98 -10 148c51 -25 110 -53 173 -77c93 151 303 425 465 450c59 0 83 -28 112 -83c86 35 187 44 280 56c38 5 90 28 109 58c63 -17 98 -53 98 -101c0 -85 -166 -81 -276 -81c-117 0 -173 -48 -195 -167c-7 -40 -11 -91 -12 -162
c231 40 364 81 368 118c50 -20 86 -57 86 -87c0 -109 -284 -108 -457 -143c-20 -244 4 -328 97 -328c123 0 259 134 364 134zM378 284c81 -18 188 -20 277 -10c13 91 27 182 33 248c9 94 -4 150 -27 154c-60 -25 -182 -192 -283 -392z" />
    <glyph glyph-name="B" unicode="B" horiz-adv-x="818" 
d="M556 314c131 -30 199 -136 199 -237c0 -100 -81 -225 -283 -225c-115 0 -198 53 -198 111c0 17 11 33 29 44c31 -18 69 -37 141 -37c113 0 164 79 164 157c0 76 -47 130 -115 132c-58 0 -111 -1 -150 -24c-33 11 -49 34 -49 56c0 42 34 59 78 59c19 0 39 -3 59 -8
c70 26 173 104 173 212c0 92 -79 148 -208 148c-27 0 -55 -3 -84 -7c7 -11 11 -22 11 -33c-125 -244 -138 -744 -45 -901c-13 -15 -77 -23 -106 -23c-72 0 -119 42 -128 112c-33 218 33 560 92 730c8 27 17 49 27 69c-47 -21 -88 -48 -118 -77c-33 9 -56 30 -56 51
c0 7 2 13 6 20c22 39 192 141 419 141c295 0 379 -132 379 -220c0 -127 -135 -219 -237 -250z" />
    <glyph glyph-name="C" unicode="C" horiz-adv-x="925" 
d="M500 -160c-263 0 -462 177 -462 415c0 242 197 509 543 509c178 0 314 -100 314 -230c0 -66 -29 -106 -79 -106c-55 0 -103 36 -103 45c1 9 36 61 36 107c0 69 -65 91 -138 91c-241 0 -384 -212 -384 -412c0 -169 102 -319 284 -319c192 0 282 130 297 160
c43 3 72 -18 72 -51c0 -85 -198 -209 -380 -209z" />
    <glyph glyph-name="Cacute" unicode="&#x106;" horiz-adv-x="925" 
d="M509 825c-26 0 -51 21 -61 30c81 93 93 159 102 189c19 13 48 22 77 22c41 0 73 -15 73 -35c0 -58 -111 -206 -191 -206zM500 -160c-263 0 -462 177 -462 415c0 242 197 509 543 509c178 0 314 -100 314 -230c0 -66 -29 -106 -79 -106c-55 0 -103 36 -103 45
c1 9 36 61 36 107c0 69 -65 91 -138 91c-241 0 -384 -212 -384 -412c0 -169 102 -319 284 -319c192 0 282 130 297 160c43 3 72 -18 72 -51c0 -85 -198 -209 -380 -209z" />
    <glyph glyph-name="Ccaron" unicode="&#x10c;" horiz-adv-x="925" 
d="M540 826c-43 0 -89 42 -213 186c18 35 37 51 64 51c51 0 120 -69 157 -120c55 79 101 120 141 120c27 0 46 -16 64 -51c-123 -144 -170 -186 -213 -186zM500 -160c-263 0 -462 177 -462 415c0 242 197 509 543 509c178 0 314 -100 314 -230c0 -66 -29 -106 -79 -106
c-55 0 -103 36 -103 45c1 9 36 61 36 107c0 69 -65 91 -138 91c-241 0 -384 -212 -384 -412c0 -169 102 -319 284 -319c192 0 282 130 297 160c43 3 72 -18 72 -51c0 -85 -198 -209 -380 -209z" />
    <glyph glyph-name="Ccedilla" unicode="&#xc7;" horiz-adv-x="925" 
d="M808 100c43 3 72 -18 72 -51c0 -78 -168 -190 -337 -207l-16 -33c57 -8 81 -44 81 -90c0 -59 -57 -109 -135 -109c-57 0 -94 30 -94 60c0 16 10 36 37 42c13 -15 27 -21 39 -21c17 0 30 14 30 36c0 28 -24 44 -54 44v30l14 42c-236 22 -407 191 -407 412
c0 242 197 509 543 509c178 0 314 -100 314 -230c0 -66 -29 -106 -79 -106c-55 0 -103 36 -103 45c1 9 36 61 36 107c0 69 -65 91 -138 91c-241 0 -384 -212 -384 -412c0 -169 102 -319 284 -319c192 0 282 130 297 160z" />
    <glyph glyph-name="Cdotaccent" unicode="&#x10a;" horiz-adv-x="925" 
d="M543 847c-45 0 -78 28 -78 67c0 43 35 74 83 74c45 0 77 -28 77 -68c0 -41 -36 -73 -82 -73zM500 -160c-263 0 -462 177 -462 415c0 242 197 509 543 509c178 0 314 -100 314 -230c0 -66 -29 -106 -79 -106c-55 0 -103 36 -103 45c1 9 36 61 36 107c0 69 -65 91 -138 91
c-241 0 -384 -212 -384 -412c0 -169 102 -319 284 -319c192 0 282 130 297 160c43 3 72 -18 72 -51c0 -85 -198 -209 -380 -209z" />
    <glyph glyph-name="D" unicode="D" horiz-adv-x="867" 
d="M325 742c335 -34 481 -208 481 -385c0 -308 -396 -506 -607 -506c-86 0 -139 33 -147 93c313 -5 576 188 576 417c0 169 -134 286 -331 302c-49 -133 -92 -324 -92 -544c0 -46 2 -94 6 -143c-14 -5 -28 -7 -41 -7c-76 0 -118 77 -118 181c0 168 58 370 113 506
c-47 -11 -79 -27 -124 -27c-60 0 -75 33 -75 71c0 10 1 20 3 31c84 11 161 17 232 17h5c17 32 31 52 40 57c18 -8 77 -17 79 -63z" />
    <glyph glyph-name="Eth" unicode="&#xd0;" horiz-adv-x="867" 
d="M325 742c335 -34 481 -208 481 -385c0 -308 -396 -506 -607 -506c-86 0 -139 33 -147 93c313 -5 576 188 576 417c0 169 -134 286 -331 302c-27 -72 -52 -162 -69 -265c95 1 192 0 192 -58c0 -21 -12 -46 -29 -61c-61 9 -99 10 -177 10c-6 -54 -9 -111 -9 -170
c0 -46 2 -94 6 -143c-14 -5 -28 -7 -41 -7c-76 0 -118 77 -118 181c0 45 4 92 11 140c-105 3 -154 15 -154 65c0 10 7 30 16 45c54 -1 83 -2 159 -2c22 94 52 185 81 258c-47 -11 -79 -27 -124 -27c-60 0 -75 33 -75 71c0 10 1 20 3 31c84 11 161 17 232 17h5
c17 32 31 52 40 57c18 -8 77 -17 79 -63z" />
    <glyph glyph-name="Dcaron" unicode="&#x10e;" horiz-adv-x="867" 
d="M438 772c-43 0 -89 42 -213 186c18 35 37 51 64 51c51 0 120 -69 157 -120c55 79 101 120 141 120c27 0 46 -16 64 -51c-123 -144 -170 -186 -213 -186zM325 742c335 -34 481 -208 481 -385c0 -308 -396 -506 -607 -506c-86 0 -139 33 -147 93c313 -5 576 188 576 417
c0 169 -134 286 -331 302c-49 -133 -92 -324 -92 -544c0 -46 2 -94 6 -143c-14 -5 -28 -7 -41 -7c-76 0 -118 77 -118 181c0 168 58 370 113 506c-47 -11 -79 -27 -124 -27c-60 0 -75 33 -75 71c0 10 1 20 3 31c84 11 161 17 232 17h5c17 32 31 52 40 57
c18 -8 77 -17 79 -63z" />
    <glyph glyph-name="Dcroat" unicode="&#x110;" horiz-adv-x="867" 
d="M325 742c335 -34 481 -208 481 -385c0 -308 -396 -506 -607 -506c-86 0 -139 33 -147 93c313 -5 576 188 576 417c0 169 -134 286 -331 302c-27 -72 -52 -162 -69 -265c95 1 192 0 192 -58c0 -21 -12 -46 -29 -61c-61 9 -99 10 -177 10c-6 -54 -9 -111 -9 -170
c0 -46 2 -94 6 -143c-14 -5 -28 -7 -41 -7c-76 0 -118 77 -118 181c0 45 4 92 11 140c-105 3 -154 15 -154 65c0 10 7 30 16 45c54 -1 83 -2 159 -2c22 94 52 185 81 258c-47 -11 -79 -27 -124 -27c-60 0 -75 33 -75 71c0 10 1 20 3 31c84 11 161 17 232 17h5
c17 32 31 52 40 57c18 -8 77 -17 79 -63z" />
    <glyph glyph-name="E" unicode="E" horiz-adv-x="790" 
d="M447 812c199 0 380 -88 381 -185c0 -36 -27 -60 -81 -72c-70 101 -119 176 -273 176c-183 0 -271 -109 -269 -221c1 -60 28 -144 107 -191c35 7 74 10 116 10c99 0 153 -21 157 -61c7 -43 -47 -77 -128 -77c-45 0 -114 12 -186 37c-46 -27 -76 -77 -75 -134
c1 -91 92 -163 206 -163c146 0 249 81 295 127c33 -10 50 -28 47 -48c-3 -21 -94 -178 -386 -178c-183 0 -331 102 -333 230c-1 75 48 157 146 210c-96 52 -176 131 -178 238c-3 168 200 302 454 302z" />
    <glyph glyph-name="Eacute" unicode="&#xc9;" horiz-adv-x="790" 
d="M601 1039c0 -58 -111 -206 -191 -206c-26 0 -51 21 -61 30c81 93 93 159 102 189c19 13 48 22 77 22c41 0 73 -15 73 -35zM447 812c199 0 380 -88 381 -185c0 -36 -27 -60 -81 -72c-70 101 -119 176 -273 176c-183 0 -271 -109 -269 -221c1 -60 28 -144 107 -191
c35 7 74 10 116 10c99 0 153 -21 157 -61c7 -43 -47 -77 -128 -77c-45 0 -114 12 -186 37c-46 -27 -76 -77 -75 -134c1 -91 92 -163 206 -163c146 0 249 81 295 127c33 -10 50 -28 47 -48c-3 -21 -94 -178 -386 -178c-183 0 -331 102 -333 230c-1 75 48 157 146 210
c-96 52 -176 131 -178 238c-3 168 200 302 454 302z" />
    <glyph glyph-name="Ecaron" unicode="&#x11a;" horiz-adv-x="790" 
d="M441 834c-43 0 -89 42 -213 186c18 35 37 51 64 51c51 0 120 -69 157 -120c55 79 101 120 141 120c27 0 46 -16 64 -51c-123 -144 -170 -186 -213 -186zM447 812c199 0 380 -88 381 -185c0 -36 -27 -60 -81 -72c-70 101 -119 176 -273 176c-183 0 -271 -109 -269 -221
c1 -60 28 -144 107 -191c35 7 74 10 116 10c99 0 153 -21 157 -61c7 -43 -47 -77 -128 -77c-45 0 -114 12 -186 37c-46 -27 -76 -77 -75 -134c1 -91 92 -163 206 -163c146 0 249 81 295 127c33 -10 50 -28 47 -48c-3 -21 -94 -178 -386 -178c-183 0 -331 102 -333 230
c-1 75 48 157 146 210c-96 52 -176 131 -178 238c-3 168 200 302 454 302z" />
    <glyph glyph-name="Ecircumflex" unicode="&#xca;" horiz-adv-x="790" 
d="M296 832c-27 0 -46 16 -64 51c124 144 170 186 213 186s90 -42 213 -186c-18 -35 -37 -51 -64 -51c-40 0 -97 48 -149 120c-48 -71 -106 -120 -149 -120zM447 812c199 0 380 -88 381 -185c0 -36 -27 -60 -81 -72c-70 101 -119 176 -273 176c-183 0 -271 -109 -269 -221
c1 -60 28 -144 107 -191c35 7 74 10 116 10c99 0 153 -21 157 -61c7 -43 -47 -77 -128 -77c-45 0 -114 12 -186 37c-46 -27 -76 -77 -75 -134c1 -91 92 -163 206 -163c146 0 249 81 295 127c33 -10 50 -28 47 -48c-3 -21 -94 -178 -386 -178c-183 0 -331 102 -333 230
c-1 75 48 157 146 210c-96 52 -176 131 -178 238c-3 168 200 302 454 302z" />
    <glyph glyph-name="Edieresis" unicode="&#xcb;" horiz-adv-x="790" 
d="M340 853c-48 0 -80 29 -80 73c0 47 37 80 89 80c49 0 84 -31 84 -74c0 -46 -39 -79 -93 -79zM536 853c-48 0 -80 29 -80 73c0 47 37 80 89 80c49 0 84 -31 84 -74c0 -46 -39 -79 -93 -79zM447 812c199 0 380 -88 381 -185c0 -36 -27 -60 -81 -72
c-70 101 -119 176 -273 176c-183 0 -271 -109 -269 -221c1 -60 28 -144 107 -191c35 7 74 10 116 10c99 0 153 -21 157 -61c7 -43 -47 -77 -128 -77c-45 0 -114 12 -186 37c-46 -27 -76 -77 -75 -134c1 -91 92 -163 206 -163c146 0 249 81 295 127c33 -10 50 -28 47 -48
c-3 -21 -94 -178 -386 -178c-183 0 -331 102 -333 230c-1 75 48 157 146 210c-96 52 -176 131 -178 238c-3 168 200 302 454 302z" />
    <glyph glyph-name="Edotaccent" unicode="&#x116;" horiz-adv-x="790" 
d="M444 855c-45 0 -78 28 -78 67c0 43 35 74 83 74c45 0 77 -28 77 -68c0 -41 -36 -73 -82 -73zM447 812c199 0 380 -88 381 -185c0 -36 -27 -60 -81 -72c-70 101 -119 176 -273 176c-183 0 -271 -109 -269 -221c1 -60 28 -144 107 -191c35 7 74 10 116 10
c99 0 153 -21 157 -61c7 -43 -47 -77 -128 -77c-45 0 -114 12 -186 37c-46 -27 -76 -77 -75 -134c1 -91 92 -163 206 -163c146 0 249 81 295 127c33 -10 50 -28 47 -48c-3 -21 -94 -178 -386 -178c-183 0 -331 102 -333 230c-1 75 48 157 146 210c-96 52 -176 131 -178 238
c-3 168 200 302 454 302z" />
    <glyph glyph-name="Egrave" unicode="&#xc8;" horiz-adv-x="790" 
d="M505 833c-80 0 -191 148 -191 206c0 20 32 35 73 35c29 0 58 -9 77 -22c9 -30 21 -96 102 -189c-10 -9 -35 -30 -61 -30zM447 812c199 0 380 -88 381 -185c0 -36 -27 -60 -81 -72c-70 101 -119 176 -273 176c-183 0 -271 -109 -269 -221c1 -60 28 -144 107 -191
c35 7 74 10 116 10c99 0 153 -21 157 -61c7 -43 -47 -77 -128 -77c-45 0 -114 12 -186 37c-46 -27 -76 -77 -75 -134c1 -91 92 -163 206 -163c146 0 249 81 295 127c33 -10 50 -28 47 -48c-3 -21 -94 -178 -386 -178c-183 0 -331 102 -333 230c-1 75 48 157 146 210
c-96 52 -176 131 -178 238c-3 168 200 302 454 302z" />
    <glyph glyph-name="Emacron" unicode="&#x112;" horiz-adv-x="790" 
d="M358 834c-88 0 -122 16 -122 61c0 13 5 28 13 39c41 -4 158 -3 207 -3c42 0 82 4 116 4c56 0 82 -13 82 -44c0 -20 -9 -44 -22 -59c-34 5 -57 7 -88 7c-23 0 -50 -1 -85 -2c-39 -2 -73 -3 -101 -3zM447 812c199 0 380 -88 381 -185c0 -36 -27 -60 -81 -72
c-70 101 -119 176 -273 176c-183 0 -271 -109 -269 -221c1 -60 28 -144 107 -191c35 7 74 10 116 10c99 0 153 -21 157 -61c7 -43 -47 -77 -128 -77c-45 0 -114 12 -186 37c-46 -27 -76 -77 -75 -134c1 -91 92 -163 206 -163c146 0 249 81 295 127c33 -10 50 -28 47 -48
c-3 -21 -94 -178 -386 -178c-183 0 -331 102 -333 230c-1 75 48 157 146 210c-96 52 -176 131 -178 238c-3 168 200 302 454 302z" />
    <glyph glyph-name="Eogonek" unicode="&#x118;" horiz-adv-x="790" 
d="M447 812c199 0 380 -88 381 -185c0 -36 -27 -60 -81 -72c-70 101 -119 176 -273 176c-183 0 -271 -109 -269 -221c1 -60 28 -144 107 -191c35 7 74 10 116 10c99 0 153 -21 157 -61c7 -43 -47 -77 -128 -77c-45 0 -114 12 -186 37c-46 -27 -76 -77 -75 -134
c1 -91 92 -163 206 -163c146 0 249 81 295 127c33 -10 50 -28 47 -48c-2 -17 -60 -118 -228 -160c-37 -37 -58 -66 -58 -91c0 -22 8 -33 22 -33s31 8 52 24c26 -8 39 -22 39 -42c0 -36 -52 -68 -107 -68c-74 0 -130 44 -130 106c0 37 17 65 40 86h-16
c-183 0 -331 102 -333 230c-1 75 48 157 146 210c-96 52 -176 131 -178 238c-3 168 200 302 454 302z" />
    <glyph glyph-name="F" unicode="F" horiz-adv-x="753" 
d="M934 917c30 -39 47 -68 47 -105c0 -52 -32 -92 -100 -100c-42 -4 -95 -7 -153 -9c-113 -5 -244 -16 -352 -42c4 -28 6 -58 6 -100c0 -45 -4 -94 -9 -145c11 4 21 6 30 9c61 15 128 22 180 22c73 0 113 -18 113 -52c0 -16 -21 -53 -46 -83c-39 10 -69 19 -107 19
c-59 0 -122 -13 -183 -33c-9 -82 -18 -165 -18 -241c0 -92 13 -160 39 -206c-30 -10 -71 -24 -106 -23c-66 5 -97 47 -97 129c0 55 20 164 40 278c-36 -19 -67 -39 -94 -59c-3 38 0 66 9 89c14 34 55 66 105 94c11 76 19 146 16 194c-1 25 -5 44 -10 59
c-54 -30 -88 -70 -88 -124c0 -21 9 -41 24 -54c-79 -77 -173 -53 -173 39c0 181 214 256 397 295c155 32 270 58 381 82c93 19 114 39 149 67z" />
    <glyph glyph-name="G" unicode="G" horiz-adv-x="1028" 
d="M509 -142c-308 0 -461 210 -461 424c0 234 173 484 533 485c199 1 360 -102 362 -158c1 -29 -31 -79 -109 -87c-60 100 -154 155 -264 154c-212 -1 -338 -208 -338 -395c0 -168 93 -320 277 -320c187 0 323 126 323 227c0 40 -47 59 -118 49c-46 -6 -100 -15 -151 -15
c-57 0 -94 25 -94 65c0 27 13 55 41 87c60 -22 110 -23 165 -23c147 1 285 -20 285 -139c0 -229 -276 -354 -451 -354z" />
    <glyph glyph-name="Gbreve" unicode="&#x11e;" horiz-adv-x="1028" 
d="M569 835c-95 0 -176 76 -176 163c0 37 22 54 69 54c27 0 53 -9 64 -20c0 -69 20 -112 50 -112c35 0 51 36 51 112c10 11 36 20 65 20c46 0 68 -17 68 -54c0 -87 -89 -163 -191 -163zM509 -142c-308 0 -461 210 -461 424c0 234 173 484 533 485c199 1 360 -102 362 -158
c1 -29 -31 -79 -109 -87c-60 100 -154 155 -264 154c-212 -1 -338 -208 -338 -395c0 -168 93 -320 277 -320c187 0 323 126 323 227c0 40 -47 59 -118 49c-46 -6 -100 -15 -151 -15c-57 0 -94 25 -94 65c0 27 13 55 41 87c60 -22 110 -23 165 -23c147 1 285 -20 285 -139
c0 -229 -276 -354 -451 -354z" />
    <glyph glyph-name="Gcommaaccent" unicode="&#x122;" horiz-adv-x="1028" 
d="M509 -142c-308 0 -461 210 -461 424c0 234 173 484 533 485c199 1 360 -102 362 -158c1 -29 -31 -79 -109 -87c-60 100 -154 155 -264 154c-212 -1 -338 -208 -338 -395c0 -168 93 -320 277 -320c187 0 323 126 323 227c0 40 -47 59 -118 49c-46 -6 -100 -15 -151 -15
c-57 0 -94 25 -94 65c0 27 13 55 41 87c60 -22 110 -23 165 -23c147 1 285 -20 285 -139c0 -229 -276 -354 -451 -354zM508 -392c-19 0 -35 13 -41 33c23 25 40 41 46 70c-28 14 -43 37 -43 65c0 42 32 69 79 69c44 0 75 -36 75 -89c0 -59 -68 -148 -116 -148z" />
    <glyph glyph-name="Gdotaccent" unicode="&#x120;" horiz-adv-x="1028" 
d="M571 847c-45 0 -78 28 -78 67c0 43 35 74 83 74c45 0 77 -28 77 -68c0 -41 -36 -73 -82 -73zM509 -142c-308 0 -461 210 -461 424c0 234 173 484 533 485c199 1 360 -102 362 -158c1 -29 -31 -79 -109 -87c-60 100 -154 155 -264 154c-212 -1 -338 -208 -338 -395
c0 -168 93 -320 277 -320c187 0 323 126 323 227c0 40 -47 59 -118 49c-46 -6 -100 -15 -151 -15c-57 0 -94 25 -94 65c0 27 13 55 41 87c60 -22 110 -23 165 -23c147 1 285 -20 285 -139c0 -229 -276 -354 -451 -354z" />
    <glyph glyph-name="H" unicode="H" horiz-adv-x="815" 
d="M775 707c0 -139 -51 -362 -51 -568c0 -102 12 -176 39 -227c-35 -10 -92 -18 -121 -15c-139 10 -91 208 -69 336l6 39c-34 8 -94 21 -152 25c-73 5 -135 1 -187 -7l-20 -147c-11 -83 -16 -161 -16 -239c0 -35 3 -74 9 -91c-72 20 -176 26 -176 142c0 79 23 169 43 282
c-43 -24 -65 -45 -69 -48c-37 -6 -57 23 -57 48c0 36 61 77 144 112c13 85 20 156 20 208c0 79 -15 124 -57 168c47 58 81 83 118 83c65 0 95 -62 95 -192c0 -47 -8 -130 -19 -216c62 16 124 25 174 25c79 0 154 -13 163 -28l5 -3c7 51 15 109 22 177c4 37 8 64 8 88
c0 38 -10 73 -38 132c18 33 57 55 98 55c61 0 88 -44 88 -139z" />
    <glyph glyph-name="Hbar" unicode="&#x126;" horiz-adv-x="815" 
d="M768 602c37 -10 60 -25 60 -48c0 -21 -17 -45 -43 -59c-9 2 -19 3 -29 5c-14 -113 -32 -240 -32 -361c0 -102 12 -176 39 -227c-35 -10 -92 -18 -121 -15c-139 10 -91 208 -69 336l6 39c-34 8 -94 21 -152 25c-73 5 -135 1 -187 -7l-20 -147c-11 -83 -16 -161 -16 -239
c0 -35 3 -74 9 -91c-72 20 -176 26 -176 142c0 79 23 169 43 282c-43 -24 -65 -45 -69 -48c-37 -6 -57 23 -57 48c0 36 61 77 144 112c10 66 17 124 19 171c-57 5 -82 18 -82 49c0 9 9 25 25 43c20 -1 38 -2 55 -2c-6 48 -23 82 -54 115c47 58 81 83 118 83
c64 0 95 -61 95 -189c46 3 104 5 182 5c56 0 115 0 169 -3c1 14 2 26 2 38c0 38 -10 73 -38 132c18 33 57 55 98 55c61 0 88 -44 88 -139c0 -31 -3 -66 -7 -105zM597 394l16 120c-67 4 -133 6 -179 6c-64 0 -119 -1 -166 -1c-3 -37 -8 -77 -13 -119c62 16 124 25 174 25
c79 0 154 -13 163 -28z" />
    <glyph glyph-name="I" unicode="I" horiz-adv-x="678" 
d="M754 812c8 -28 6 -53 -6 -82c-9 -24 -44 -69 -131 -69c-88 0 -142 7 -207 9c5 -11 5 -24 2 -44c-8 -48 -30 -256 -32 -339c-4 -147 3 -256 22 -336c24 -1 47 -2 70 -1c94 5 113 10 133 33c64 -21 103 -136 -61 -146c-85 -6 -219 9 -294 8c-102 0 -153 -11 -217 -27
c-76 59 -44 145 55 147c58 1 110 -1 157 -4c-3 10 -5 21 -7 32c-11 67 -5 346 15 502c10 80 20 154 16 173c-123 -9 -186 -36 -197 -85c-47 -7 -85 32 -81 79c16 88 147 132 391 132c91 0 215 -4 244 -4c73 0 82 6 128 22z" />
    <glyph glyph-name="Iacute" unicode="&#xcd;" horiz-adv-x="678" 
d="M543 1031c0 -58 -111 -206 -191 -206c-26 0 -51 21 -61 30c81 93 93 159 102 189c19 13 48 22 77 22c41 0 73 -15 73 -35zM754 812c8 -28 6 -53 -6 -82c-9 -24 -44 -69 -131 -69c-88 0 -142 7 -207 9c5 -11 5 -24 2 -44c-8 -48 -30 -256 -32 -339c-4 -147 3 -256 22 -336
c24 -1 47 -2 70 -1c94 5 113 10 133 33c64 -21 103 -136 -61 -146c-85 -6 -219 9 -294 8c-102 0 -153 -11 -217 -27c-76 59 -44 145 55 147c58 1 110 -1 157 -4c-3 10 -5 21 -7 32c-11 67 -5 346 15 502c10 80 20 154 16 173c-123 -9 -186 -36 -197 -85
c-47 -7 -85 32 -81 79c16 88 147 132 391 132c91 0 215 -4 244 -4c73 0 82 6 128 22z" />
    <glyph glyph-name="Icircumflex" unicode="&#xce;" horiz-adv-x="678" 
d="M238 824c-27 0 -46 16 -64 51c124 144 170 186 213 186s90 -42 213 -186c-18 -35 -37 -51 -64 -51c-40 0 -97 48 -149 120c-48 -71 -106 -120 -149 -120zM754 812c8 -28 6 -53 -6 -82c-9 -24 -44 -69 -131 -69c-88 0 -142 7 -207 9c5 -11 5 -24 2 -44
c-8 -48 -30 -256 -32 -339c-4 -147 3 -256 22 -336c24 -1 47 -2 70 -1c94 5 113 10 133 33c64 -21 103 -136 -61 -146c-85 -6 -219 9 -294 8c-102 0 -153 -11 -217 -27c-76 59 -44 145 55 147c58 1 110 -1 157 -4c-3 10 -5 21 -7 32c-11 67 -5 346 15 502
c10 80 20 154 16 173c-123 -9 -186 -36 -197 -85c-47 -7 -85 32 -81 79c16 88 147 132 391 132c91 0 215 -4 244 -4c73 0 82 6 128 22z" />
    <glyph glyph-name="Idieresis" unicode="&#xcf;" horiz-adv-x="678" 
d="M282 845c-48 0 -80 29 -80 73c0 47 37 80 89 80c49 0 84 -31 84 -74c0 -46 -39 -79 -93 -79zM478 845c-48 0 -80 29 -80 73c0 47 37 80 89 80c49 0 84 -31 84 -74c0 -46 -39 -79 -93 -79zM754 812c8 -28 6 -53 -6 -82c-9 -24 -44 -69 -131 -69c-88 0 -142 7 -207 9
c5 -11 5 -24 2 -44c-8 -48 -30 -256 -32 -339c-4 -147 3 -256 22 -336c24 -1 47 -2 70 -1c94 5 113 10 133 33c64 -21 103 -136 -61 -146c-85 -6 -219 9 -294 8c-102 0 -153 -11 -217 -27c-76 59 -44 145 55 147c58 1 110 -1 157 -4c-3 10 -5 21 -7 32c-11 67 -5 346 15 502
c10 80 20 154 16 173c-123 -9 -186 -36 -197 -85c-47 -7 -85 32 -81 79c16 88 147 132 391 132c91 0 215 -4 244 -4c73 0 82 6 128 22z" />
    <glyph glyph-name="Idotaccent" unicode="&#x130;" horiz-adv-x="678" 
d="M386 847c-45 0 -78 28 -78 67c0 43 35 74 83 74c45 0 77 -28 77 -68c0 -41 -36 -73 -82 -73zM754 812c8 -28 6 -53 -6 -82c-9 -24 -44 -69 -131 -69c-88 0 -142 7 -207 9c5 -11 5 -24 2 -44c-8 -48 -30 -256 -32 -339c-4 -147 3 -256 22 -336c24 -1 47 -2 70 -1
c94 5 113 10 133 33c64 -21 103 -136 -61 -146c-85 -6 -219 9 -294 8c-102 0 -153 -11 -217 -27c-76 59 -44 145 55 147c58 1 110 -1 157 -4c-3 10 -5 21 -7 32c-11 67 -5 346 15 502c10 80 20 154 16 173c-123 -9 -186 -36 -197 -85c-47 -7 -85 32 -81 79
c16 88 147 132 391 132c91 0 215 -4 244 -4c73 0 82 6 128 22z" />
    <glyph glyph-name="Igrave" unicode="&#xcc;" horiz-adv-x="678" 
d="M447 825c-80 0 -191 148 -191 206c0 20 32 35 73 35c29 0 58 -9 77 -22c9 -30 21 -96 102 -189c-10 -9 -35 -30 -61 -30zM754 812c8 -28 6 -53 -6 -82c-9 -24 -44 -69 -131 -69c-88 0 -142 7 -207 9c5 -11 5 -24 2 -44c-8 -48 -30 -256 -32 -339c-4 -147 3 -256 22 -336
c24 -1 47 -2 70 -1c94 5 113 10 133 33c64 -21 103 -136 -61 -146c-85 -6 -219 9 -294 8c-102 0 -153 -11 -217 -27c-76 59 -44 145 55 147c58 1 110 -1 157 -4c-3 10 -5 21 -7 32c-11 67 -5 346 15 502c10 80 20 154 16 173c-123 -9 -186 -36 -197 -85
c-47 -7 -85 32 -81 79c16 88 147 132 391 132c91 0 215 -4 244 -4c73 0 82 6 128 22z" />
    <glyph glyph-name="Imacron" unicode="&#x12a;" horiz-adv-x="678" 
d="M300 826c-88 0 -122 16 -122 61c0 13 5 28 13 39c41 -4 158 -3 207 -3c42 0 82 4 116 4c56 0 82 -13 82 -44c0 -20 -9 -44 -22 -59c-34 5 -57 7 -88 7c-23 0 -50 -1 -85 -2c-39 -2 -73 -3 -101 -3zM754 812c8 -28 6 -53 -6 -82c-9 -24 -44 -69 -131 -69
c-88 0 -142 7 -207 9c5 -11 5 -24 2 -44c-8 -48 -30 -256 -32 -339c-4 -147 3 -256 22 -336c24 -1 47 -2 70 -1c94 5 113 10 133 33c64 -21 103 -136 -61 -146c-85 -6 -219 9 -294 8c-102 0 -153 -11 -217 -27c-76 59 -44 145 55 147c58 1 110 -1 157 -4c-3 10 -5 21 -7 32
c-11 67 -5 346 15 502c10 80 20 154 16 173c-123 -9 -186 -36 -197 -85c-47 -7 -85 32 -81 79c16 88 147 132 391 132c91 0 215 -4 244 -4c73 0 82 6 128 22z" />
    <glyph glyph-name="Iogonek" unicode="&#x12e;" horiz-adv-x="678" 
d="M754 812c8 -28 6 -53 -6 -82c-9 -24 -44 -69 -131 -69c-88 0 -142 7 -207 9c5 -11 5 -24 2 -44c-8 -48 -30 -256 -32 -339c-4 -147 3 -256 22 -336c24 -1 47 -2 70 -1c94 5 113 10 133 33c64 -21 103 -136 -61 -146c-47 -3 -110 0 -169 3c-23 -26 -36 -48 -36 -67
c0 -22 8 -33 22 -33s31 8 52 24c26 -8 39 -22 39 -42c0 -36 -52 -68 -107 -68c-74 0 -130 44 -130 106c0 36 17 64 39 85h-4c-102 0 -153 -11 -217 -27c-76 59 -44 145 55 147c58 1 110 -1 157 -4c-3 10 -5 21 -7 32c-11 67 -5 346 15 502c10 80 20 154 16 173
c-123 -9 -186 -36 -197 -85c-47 -7 -85 32 -81 79c16 88 147 132 391 132c91 0 215 -4 244 -4c73 0 82 6 128 22z" />
    <glyph glyph-name="J" unicode="J" horiz-adv-x="885" 
d="M875 745v0c-5 -17 -21 -50 -65 -77c-14 -29 -19 -64 -19 -114c0 -139 16 -264 16 -378c0 -211 -182 -369 -421 -369c-149 0 -328 100 -328 215c0 49 31 91 96 103c46 -106 168 -189 276 -189c146 0 241 112 241 285c0 106 -17 226 -17 328c0 29 2 56 7 81
c-10 -1 -20 -1 -30 -1c-64 0 -127 9 -182 9c-104 0 -155 -45 -135 -115c-25 -18 -58 -29 -87 -29c-54 0 -89 32 -89 81c0 78 88 173 230 173c91 0 188 -25 266 -25c24 0 43 1 60 4c24 40 57 63 97 63c36 0 77 -22 84 -45z" />
    <glyph glyph-name="K" unicode="K" horiz-adv-x="784" 
d="M389 398c52 -179 213 -350 382 -396c-26 -70 -69 -108 -125 -109c-67 -2 -287 168 -365 421c-42 -41 -70 -86 -79 -147c0 -152 20 -225 34 -264c-17 -4 -56 -11 -85 -11c-83 0 -108 22 -108 250c0 215 42 431 43 554c0 41 -1 90 -15 130c107 25 164 -44 164 -124
c0 -68 -12 -191 -22 -313c33 35 74 72 121 104c120 80 242 204 288 292c67 -11 117 -54 117 -102c0 -24 -24 -64 -60 -99c-38 -36 -124 -72 -240 -152c-17 -12 -34 -23 -50 -34z" />
    <glyph glyph-name="Kcommaaccent" unicode="&#x136;" horiz-adv-x="784" 
d="M389 398c52 -179 213 -350 382 -396c-26 -70 -69 -108 -125 -109c-67 -2 -287 168 -365 421c-42 -41 -70 -86 -79 -147c0 -152 20 -225 34 -264c-17 -4 -56 -11 -85 -11c-83 0 -108 22 -108 250c0 215 42 431 43 554c0 41 -1 90 -15 130c107 25 164 -44 164 -124
c0 -68 -12 -191 -22 -313c33 35 74 72 121 104c120 80 242 204 288 292c67 -11 117 -54 117 -102c0 -24 -24 -64 -60 -99c-38 -36 -124 -72 -240 -152c-17 -12 -34 -23 -50 -34zM390 -113c44 0 75 -36 75 -89c0 -59 -68 -148 -116 -148c-19 0 -35 13 -41 33
c23 25 40 41 46 70c-28 14 -43 37 -43 65c0 42 32 69 79 69z" />
    <glyph glyph-name="L" unicode="L" horiz-adv-x="820" 
d="M783 -77c35 -36 55 -72 55 -103c0 -60 -66 -96 -172 -96c-157 0 -335 100 -468 126c-29 -38 -66 -55 -113 -55c-73 0 -114 42 -109 114c39 9 81 15 125 17c34 66 55 140 70 217c-33 -6 -66 -9 -100 -9c-81 0 -134 48 -122 113c84 -1 167 8 244 28c37 264 49 518 284 518
c84 0 146 -78 146 -188c2 -170 -133 -336 -314 -418c-19 -104 -44 -201 -81 -266c86 -11 189 -39 330 -39c80 0 149 14 225 41zM461 712c-73 0 -97 -183 -128 -382c112 62 187 161 187 304c0 43 -19 78 -59 78z" />
    <glyph glyph-name="Lacute" unicode="&#x139;" horiz-adv-x="820" 
d="M635 1010c0 -58 -111 -206 -191 -206c-26 0 -51 21 -61 30c81 93 93 159 102 189c19 13 48 22 77 22c41 0 73 -15 73 -35zM783 -77c35 -36 55 -72 55 -103c0 -60 -66 -96 -172 -96c-157 0 -335 100 -468 126c-29 -38 -66 -55 -113 -55c-73 0 -114 42 -109 114
c39 9 81 15 125 17c34 66 55 140 70 217c-33 -6 -66 -9 -100 -9c-81 0 -134 48 -122 113c84 -1 167 8 244 28c37 264 49 518 284 518c84 0 146 -78 146 -188c2 -170 -133 -336 -314 -418c-19 -104 -44 -201 -81 -266c86 -11 189 -39 330 -39c80 0 149 14 225 41zM461 712
c-73 0 -97 -183 -128 -382c112 62 187 161 187 304c0 43 -19 78 -59 78z" />
    <glyph glyph-name="Lcaron" unicode="&#x13d;" horiz-adv-x="820" 
d="M704 559c-22 0 -43 12 -55 31c53 74 60 149 63 187c34 20 132 25 132 -31c0 -81 -77 -187 -140 -187zM783 -77c35 -36 55 -72 55 -103c0 -60 -66 -96 -172 -96c-157 0 -335 100 -468 126c-29 -38 -66 -55 -113 -55c-73 0 -114 42 -109 114c39 9 81 15 125 17
c34 66 55 140 70 217c-33 -6 -66 -9 -100 -9c-81 0 -134 48 -122 113c84 -1 167 8 244 28c37 264 49 518 284 518c84 0 146 -78 146 -188c2 -170 -133 -336 -314 -418c-19 -104 -44 -201 -81 -266c86 -11 189 -39 330 -39c80 0 149 14 225 41zM461 712
c-73 0 -97 -183 -128 -382c112 62 187 161 187 304c0 43 -19 78 -59 78z" />
    <glyph glyph-name="Lcommaaccent" unicode="&#x13b;" horiz-adv-x="820" 
d="M783 -77c35 -36 55 -72 55 -103c0 -60 -66 -96 -172 -96c-157 0 -335 100 -468 126c-29 -38 -66 -55 -113 -55c-73 0 -114 42 -109 114c39 9 81 15 125 17c34 66 55 140 70 217c-33 -6 -66 -9 -100 -9c-81 0 -134 48 -122 113c84 -1 167 8 244 28c37 264 49 518 284 518
c84 0 146 -78 146 -188c2 -170 -133 -336 -314 -418c-19 -104 -44 -201 -81 -266c86 -11 189 -39 330 -39c80 0 149 14 225 41zM461 712c-73 0 -97 -183 -128 -382c112 62 187 161 187 304c0 43 -19 78 -59 78zM403 -236c44 0 75 -36 75 -89c0 -59 -68 -148 -116 -148
c-19 0 -35 13 -41 33c23 25 40 41 46 70c-28 14 -43 37 -43 65c0 42 32 69 79 69z" />
    <glyph glyph-name="Lslash" unicode="&#x141;" horiz-adv-x="820" 
d="M783 -77c35 -36 55 -72 55 -103c0 -60 -66 -96 -172 -96c-157 0 -335 100 -468 126c-29 -38 -66 -55 -113 -55c-73 0 -114 42 -109 114c39 9 81 15 125 17c34 66 55 140 70 217c-33 -6 -66 -9 -100 -9c-81 0 -134 48 -122 113c84 -1 167 8 244 28c8 56 14 112 22 165
c-27 -3 -51 -7 -75 -14c-33 16 -54 43 -59 54c-13 45 62 60 154 68c33 143 93 245 242 245c84 0 146 -78 146 -188v-19c22 5 42 10 64 16c15 -14 23 -21 28 -29c19 -33 6 -57 -43 -79c-18 -8 -42 -15 -74 -21c-48 -120 -156 -226 -289 -286c-19 -104 -44 -201 -81 -266
c86 -11 189 -39 330 -39c80 0 149 14 225 41zM461 712c-43 0 -69 -63 -89 -155c59 3 105 7 142 11c4 21 6 43 6 66c0 43 -19 78 -59 78zM351 449l-18 -119c58 32 106 74 139 127c-21 -2 -43 -4 -67 -5z" />
    <glyph glyph-name="M" unicode="M" horiz-adv-x="1192" 
d="M1091 244c0 -315 33 -305 69 -378c-27 -33 -70 -52 -120 -52c-72 0 -104 64 -104 197c0 113 34 328 34 412v60c-24 0 -157 -462 -221 -542c-19 -26 -50 -49 -87 -49c-85 0 -139 98 -139 246c0 97 26 275 26 479c0 22 -4 31 -8 31c-80 0 -283 -529 -304 -797
c-3 -39 1 -105 9 -140c-96 11 -199 17 -199 114c0 89 55 276 118 441c44 115 212 509 370 509c175 0 140 -315 140 -614c0 -48 0 -83 5 -109c186 468 223 607 321 607c56 0 96 -75 96 -173c0 -57 -6 -172 -6 -242z" />
    <glyph glyph-name="N" unicode="N" horiz-adv-x="872" 
d="M799 776c57 0 94 -49 94 -118c-57 -44 -91 -20 -109 -206c-22 -229 38 -559 -171 -587c-191 -26 -346 434 -406 641c-3 -136 -1 -295 -1 -393c0 -93 10 -176 28 -232c-11 -12 -66 -29 -114 -21c-60 10 -82 64 -82 198c0 192 45 362 45 541c0 53 -5 92 -12 137
c69 22 137 22 171 -9c24 -23 37 -55 48 -110c14 -77 123 -365 193 -478c52 -85 101 -132 116 -132c16 0 35 108 37 284c3 266 14 485 163 485z" />
    <glyph glyph-name="Nacute" unicode="&#x143;" horiz-adv-x="872" 
d="M620 993c0 -58 -111 -206 -191 -206c-26 0 -51 21 -61 30c81 93 93 159 102 189c19 13 48 22 77 22c41 0 73 -15 73 -35zM799 776c57 0 94 -49 94 -118c-57 -44 -91 -20 -109 -206c-22 -229 38 -559 -171 -587c-191 -26 -346 434 -406 641c-3 -136 -1 -295 -1 -393
c0 -93 10 -176 28 -232c-11 -12 -66 -29 -114 -21c-60 10 -82 64 -82 198c0 192 45 362 45 541c0 53 -5 92 -12 137c69 22 137 22 171 -9c24 -23 37 -55 48 -110c14 -77 123 -365 193 -478c52 -85 101 -132 116 -132c16 0 35 108 37 284c3 266 14 485 163 485z" />
    <glyph glyph-name="Ncaron" unicode="&#x147;" horiz-adv-x="872" 
d="M460 788c-43 0 -89 42 -213 186c18 35 37 51 64 51c51 0 120 -69 157 -120c55 79 101 120 141 120c27 0 46 -16 64 -51c-123 -144 -170 -186 -213 -186zM799 776c57 0 94 -49 94 -118c-57 -44 -91 -20 -109 -206c-22 -229 38 -559 -171 -587c-191 -26 -346 434 -406 641
c-3 -136 -1 -295 -1 -393c0 -93 10 -176 28 -232c-11 -12 -66 -29 -114 -21c-60 10 -82 64 -82 198c0 192 45 362 45 541c0 53 -5 92 -12 137c69 22 137 22 171 -9c24 -23 37 -55 48 -110c14 -77 123 -365 193 -478c52 -85 101 -132 116 -132c16 0 35 108 37 284
c3 266 14 485 163 485z" />
    <glyph glyph-name="Ncommaaccent" unicode="&#x145;" horiz-adv-x="872" 
d="M799 776c57 0 94 -49 94 -118c-57 -44 -91 -20 -109 -206c-22 -229 38 -559 -171 -587c-191 -26 -346 434 -406 641c-3 -136 -1 -295 -1 -393c0 -93 10 -176 28 -232c-11 -12 -66 -29 -114 -21c-60 10 -82 64 -82 198c0 192 45 362 45 541c0 53 -5 92 -12 137
c69 22 137 22 171 -9c24 -23 37 -55 48 -110c14 -77 123 -365 193 -478c52 -85 101 -132 116 -132c16 0 35 108 37 284c3 266 14 485 163 485zM403 -177c44 0 75 -36 75 -89c0 -59 -68 -148 -116 -148c-19 0 -35 13 -41 33c23 25 40 41 46 70c-28 14 -43 37 -43 65
c0 42 32 69 79 69z" />
    <glyph glyph-name="Eng" unicode="&#x14a;" horiz-adv-x="854" 
d="M799 776c57 0 94 -49 94 -118c-57 -44 -91 -20 -109 -206c-11 -109 -3 -240 -14 -351c-23 -287 -132 -451 -313 -451c-95 0 -137 53 -137 94s39 69 88 60c19 -36 38 -50 65 -50c49 0 85 36 110 111c-167 20 -313 401 -365 558c-5 -116 -7 -210 -7 -310
c0 -93 10 -176 28 -232c-11 -12 -66 -29 -119 -21c-60 8 -82 64 -82 198c0 192 45 362 45 541c0 53 -5 92 -12 137c69 22 137 22 171 -9c24 -23 37 -55 48 -110c14 -77 123 -365 193 -478c53 -88 76 -111 104 -111c23 0 38 78 41 263c3 266 14 485 171 485z" />
    <glyph glyph-name="Ntilde" unicode="&#xd1;" horiz-adv-x="872" 
d="M341 813c-49 -3 -81 17 -81 50c0 50 63 102 124 102c73 0 126 -58 155 -58c19 0 37 33 48 52c49 2 81 -15 81 -44c0 -41 -54 -108 -124 -108s-126 58 -156 58c-15 0 -36 -22 -47 -52zM799 776c57 0 94 -49 94 -118c-57 -44 -91 -20 -109 -206c-22 -229 38 -559 -171 -587
c-191 -26 -346 434 -406 641c-3 -136 -1 -295 -1 -393c0 -93 10 -176 28 -232c-11 -12 -66 -29 -114 -21c-60 10 -82 64 -82 198c0 192 45 362 45 541c0 53 -5 92 -12 137c69 22 137 22 171 -9c24 -23 37 -55 48 -110c14 -77 123 -365 193 -478c52 -85 101 -132 116 -132
c16 0 35 108 37 284c3 266 14 485 163 485z" />
    <glyph glyph-name="O" unicode="O" horiz-adv-x="898" 
d="M416 -156c-245 0 -399 179 -399 466c0 144 53 388 182 388c31 0 60 -17 73 -42c-60 -60 -97 -183 -97 -320c0 -244 93 -403 232 -403c156 0 265 169 265 417c0 208 -69 345 -174 345c-76 0 -133 -76 -133 -173c0 -94 54 -159 134 -157c-6 -72 -50 -119 -110 -119
c-93 0 -153 83 -153 209c0 147 88 325 270 325c263 0 329 -273 329 -428c0 -339 -205 -508 -419 -508z" />
    <glyph glyph-name="Oacute" unicode="&#xd3;" horiz-adv-x="898" 
d="M389 825c-26 0 -51 21 -61 30c81 93 93 159 102 189c19 13 48 22 77 22c41 0 73 -15 73 -35c0 -58 -111 -206 -191 -206zM416 -156c-245 0 -399 179 -399 466c0 144 53 388 182 388c31 0 60 -17 73 -42c-60 -60 -97 -183 -97 -320c0 -244 93 -403 232 -403
c156 0 265 169 265 417c0 208 -69 345 -174 345c-76 0 -133 -76 -133 -173c0 -94 54 -159 134 -157c-6 -72 -50 -119 -110 -119c-93 0 -153 83 -153 209c0 147 88 325 270 325c263 0 329 -273 329 -428c0 -339 -205 -508 -419 -508z" />
    <glyph glyph-name="Ocircumflex" unicode="&#xd4;" horiz-adv-x="898" 
d="M275 824c-27 0 -46 16 -64 51c124 144 170 186 213 186s90 -42 213 -186c-18 -35 -37 -51 -64 -51c-40 0 -97 48 -149 120c-48 -71 -106 -120 -149 -120zM416 -156c-245 0 -399 179 -399 466c0 144 53 388 182 388c31 0 60 -17 73 -42c-60 -60 -97 -183 -97 -320
c0 -244 93 -403 232 -403c156 0 265 169 265 417c0 208 -69 345 -174 345c-76 0 -133 -76 -133 -173c0 -94 54 -159 134 -157c-6 -72 -50 -119 -110 -119c-93 0 -153 83 -153 209c0 147 88 325 270 325c263 0 329 -273 329 -428c0 -339 -205 -508 -419 -508z" />
    <glyph glyph-name="Odieresis" unicode="&#xd6;" horiz-adv-x="898" 
d="M319 845c-48 0 -80 29 -80 73c0 47 37 80 89 80c49 0 84 -31 84 -74c0 -46 -39 -79 -93 -79zM515 845c-48 0 -80 29 -80 73c0 47 37 80 89 80c49 0 84 -31 84 -74c0 -46 -39 -79 -93 -79zM416 -156c-245 0 -399 179 -399 466c0 144 53 388 182 388c31 0 60 -17 73 -42
c-60 -60 -97 -183 -97 -320c0 -244 93 -403 232 -403c156 0 265 169 265 417c0 208 -69 345 -174 345c-76 0 -133 -76 -133 -173c0 -94 54 -159 134 -157c-6 -72 -50 -119 -110 -119c-93 0 -153 83 -153 209c0 147 88 325 270 325c263 0 329 -273 329 -428
c0 -339 -205 -508 -419 -508z" />
    <glyph glyph-name="Ograve" unicode="&#xd2;" horiz-adv-x="898" 
d="M484 825c-80 0 -191 148 -191 206c0 20 32 35 73 35c29 0 58 -9 77 -22c9 -30 21 -96 102 -189c-10 -9 -35 -30 -61 -30zM416 -156c-245 0 -399 179 -399 466c0 144 53 388 182 388c31 0 60 -17 73 -42c-60 -60 -97 -183 -97 -320c0 -244 93 -403 232 -403
c156 0 265 169 265 417c0 208 -69 345 -174 345c-76 0 -133 -76 -133 -173c0 -94 54 -159 134 -157c-6 -72 -50 -119 -110 -119c-93 0 -153 83 -153 209c0 147 88 325 270 325c263 0 329 -273 329 -428c0 -339 -205 -508 -419 -508z" />
    <glyph glyph-name="Ohungarumlaut" unicode="&#x150;" horiz-adv-x="898" 
d="M504 827c-26 0 -51 21 -61 30c81 93 93 159 102 189c19 13 48 22 77 22c41 0 73 -15 73 -35c0 -58 -111 -206 -191 -206zM313 824c-26 0 -51 21 -61 30c81 93 93 159 102 189c19 13 48 22 77 22c41 0 73 -15 73 -35c0 -58 -111 -206 -191 -206zM416 -156
c-245 0 -399 179 -399 466c0 144 53 388 182 388c31 0 60 -17 73 -42c-60 -60 -97 -183 -97 -320c0 -244 93 -403 232 -403c156 0 265 169 265 417c0 208 -69 345 -174 345c-76 0 -133 -76 -133 -173c0 -94 54 -159 134 -157c-6 -72 -50 -119 -110 -119
c-93 0 -153 83 -153 209c0 147 88 325 270 325c263 0 329 -273 329 -428c0 -339 -205 -508 -419 -508z" />
    <glyph glyph-name="Omacron" unicode="&#x14c;" horiz-adv-x="898" 
d="M611 824c-34 5 -57 7 -88 7c-23 0 -50 -1 -85 -2c-39 -2 -73 -3 -101 -3c-88 0 -122 16 -122 61c0 13 5 28 13 39c41 -4 158 -3 207 -3c42 0 82 4 116 4c56 0 82 -13 82 -44c0 -20 -9 -44 -22 -59zM416 -156c-245 0 -399 179 -399 466c0 144 53 388 182 388
c31 0 60 -17 73 -42c-60 -60 -97 -183 -97 -320c0 -244 93 -403 232 -403c156 0 265 169 265 417c0 208 -69 345 -174 345c-76 0 -133 -76 -133 -173c0 -94 54 -159 134 -157c-6 -72 -50 -119 -110 -119c-93 0 -153 83 -153 209c0 147 88 325 270 325
c263 0 329 -273 329 -428c0 -339 -205 -508 -419 -508z" />
    <glyph glyph-name="Oslash" unicode="&#xd8;" horiz-adv-x="898" 
d="M755 647c60 -91 80 -211 80 -295c0 -339 -205 -508 -419 -508c-72 0 -136 15 -191 45c-37 -51 -56 -80 -46 -73l6 -9c-76 38 -103 63 -103 98c0 6 15 30 41 66c-68 81 -106 196 -106 339c0 144 53 388 182 388c31 0 60 -17 73 -42c-60 -60 -97 -183 -97 -320
c0 -95 14 -177 40 -242c36 49 77 104 119 163c-61 26 -98 99 -98 198c0 147 88 325 270 325c64 0 116 -16 158 -42c17 27 29 47 32 56c53 -6 96 -37 102 -73c1 -3 -16 -31 -43 -74zM498 695c-76 0 -133 -76 -133 -173c0 -61 23 -110 61 -136c63 88 125 179 174 253
c-27 36 -62 56 -102 56zM407 -67c156 0 265 169 265 417c0 56 -5 106 -14 150c-57 -85 -126 -186 -194 -283c-62 -88 -124 -171 -173 -239c33 -29 72 -45 116 -45z" />
    <glyph glyph-name="Otilde" unicode="&#xd5;" horiz-adv-x="898" 
d="M504 845c-70 0 -126 58 -156 58c-15 0 -36 -22 -47 -52c-49 -3 -81 17 -81 50c0 50 63 102 124 102c73 0 126 -58 155 -58c19 0 37 33 48 52c49 2 81 -15 81 -44c0 -41 -54 -108 -124 -108zM416 -156c-245 0 -399 179 -399 466c0 144 53 388 182 388c31 0 60 -17 73 -42
c-60 -60 -97 -183 -97 -320c0 -244 93 -403 232 -403c156 0 265 169 265 417c0 208 -69 345 -174 345c-76 0 -133 -76 -133 -173c0 -94 54 -159 134 -157c-6 -72 -50 -119 -110 -119c-93 0 -153 83 -153 209c0 147 88 325 270 325c263 0 329 -273 329 -428
c0 -339 -205 -508 -419 -508z" />
    <glyph glyph-name="OE" unicode="&#x152;" horiz-adv-x="1443" 
d="M1291 87c57 0 94 -32 94 -81c0 -40 -20 -83 -56 -120c-148 32 -191 -45 -396 -45c-131 0 -209 29 -248 99c-76 -67 -172 -101 -269 -101c-253 0 -411 182 -411 471c0 144 54 393 194 393c36 0 73 -20 85 -47c-58 -55 -97 -182 -97 -320c0 -238 90 -398 220 -398
c148 0 253 169 253 412c0 203 -32 340 -127 340c-68 0 -116 -58 -116 -153c0 -97 56 -176 135 -166c-5 -79 -54 -130 -123 -130c-101 0 -165 100 -165 229c0 146 85 315 277 315c75 0 133 -22 176 -57c114 62 340 37 419 47c36 5 86 26 102 59c76 -17 118 -55 118 -106
c0 -90 -178 -85 -288 -85c-140 0 -200 15 -211 -72c-5 -38 -10 -108 -11 -169v-17c144 0 335 36 347 104c60 -19 96 -54 96 -94c0 -127 -281 -111 -447 -128c0 -6 -1 -13 -2 -20c-16 -216 9 -292 87 -292c117 0 253 132 364 132z" />
    <glyph glyph-name="P" unicode="P" horiz-adv-x="946" 
d="M411 124h-6c-3 -35 -5 -72 -5 -114c0 -80 13 -143 37 -184c-32 -9 -87 -16 -115 -13c-73 4 -93 55 -93 118c0 41 15 121 31 209c-36 11 -95 32 -97 69c-4 48 41 58 76 83c9 -17 22 -33 40 -46c13 75 23 145 23 193c0 43 -9 83 -38 116c25 29 56 42 85 42
c51 0 97 -40 97 -106c0 -111 -17 -192 -30 -282c168 4 335 100 338 285c0 131 -118 216 -303 216c-127 0 -275 -61 -275 -159c0 -45 27 -60 53 -77c-12 -33 -55 -57 -100 -57c-63 0 -112 49 -112 113c0 105 155 273 474 273c254 0 446 -130 446 -304
c0 -179 -191 -375 -526 -375z" />
    <glyph glyph-name="Thorn" unicode="&#xde;" horiz-adv-x="885" 
d="M824 313c0 -155 -178 -326 -490 -326h-14c4 -66 16 -120 35 -159c-32 -10 -87 -18 -115 -15c-132 10 -91 196 -70 316c13 86 29 176 43 314l3 23c-57 -24 -99 -61 -99 -108c0 -30 14 -47 49 -66c-11 -29 -52 -50 -94 -50c-59 0 -105 43 -105 98c0 70 83 170 252 215v1
c-2 56 -10 80 -37 114c42 47 123 59 152 21c18 -19 30 -57 30 -95v-19c14 1 29 1 44 1c237 0 416 -113 416 -265zM318 61h12c158 0 319 84 322 244v3c0 114 -110 188 -281 188h-10c-11 -150 -41 -261 -43 -435z" />
    <glyph glyph-name="Q" unicode="Q" horiz-adv-x="900" 
d="M959 -127c41 -123 -3 -209 -104 -209c-109 0 -282 153 -412 181c-8 -1 -17 -1 -26 -1c-251 0 -410 177 -415 466c-2 154 60 387 194 387c30 0 55 -16 65 -41c-61 -60 -109 -222 -106 -356c5 -235 97 -367 251 -367c174 0 261 216 257 417c-5 192 -64 315 -145 315
c-41 0 -84 -47 -104 -122c-73 -10 -126 30 -126 92c0 65 74 141 192 141c209 0 336 -159 340 -431c3 -181 -63 -365 -209 -451c68 -28 132 -60 229 -60c30 0 75 10 119 39z" />
    <glyph glyph-name="R" unicode="R" horiz-adv-x="883" 
d="M713 125c124 -175 206 -258 268 -272c-16 -81 -68 -128 -130 -117c-109 24 -186 215 -257 329c-32 51 -60 100 -87 129c-46 -9 -96 -14 -150 -14h-1c-7 -51 -12 -105 -12 -170c0 -80 13 -143 37 -184c-32 -9 -86 -16 -115 -13c-131 8 -91 170 -70 274c6 34 13 68 20 107
c-64 16 -101 38 -103 65c-4 45 32 62 60 83c11 -17 32 -32 59 -43c2 19 5 39 7 60c5 28 7 60 6 98c-1 46 -9 67 -36 98c20 23 109 65 151 19c19 -17 30 -49 30 -83c0 -82 -9 -148 -19 -214c160 5 319 75 322 243c0 120 -116 198 -297 198c-125 0 -270 -56 -270 -145
c0 -39 27 -55 53 -70c-11 -30 -65 -59 -108 -59c-62 0 -101 35 -101 92c0 115 153 267 465 267c249 0 438 -119 438 -279c0 -109 -84 -226 -237 -292c17 -22 41 -57 77 -107z" />
    <glyph glyph-name="Racute" unicode="&#x154;" horiz-adv-x="883" 
d="M611 1031c0 -58 -111 -206 -191 -206c-26 0 -51 21 -61 30c81 93 93 159 102 189c19 13 48 22 77 22c41 0 73 -15 73 -35zM713 125c124 -175 206 -258 268 -272c-16 -81 -68 -128 -130 -117c-109 24 -186 215 -257 329c-32 51 -60 100 -87 129c-46 -9 -96 -14 -150 -14
h-1c-7 -51 -12 -105 -12 -170c0 -80 13 -143 37 -184c-32 -9 -86 -16 -115 -13c-131 8 -91 170 -70 274c6 34 13 68 20 107c-64 16 -101 38 -103 65c-4 45 32 62 60 83c11 -17 32 -32 59 -43c2 19 5 39 7 60c5 28 7 60 6 98c-1 46 -9 67 -36 98c20 23 109 65 151 19
c19 -17 30 -49 30 -83c0 -82 -9 -148 -19 -214c160 5 319 75 322 243c0 120 -116 198 -297 198c-125 0 -270 -56 -270 -145c0 -39 27 -55 53 -70c-11 -30 -65 -59 -108 -59c-62 0 -101 35 -101 92c0 115 153 267 465 267c249 0 438 -119 438 -279c0 -109 -84 -226 -237 -292
c17 -22 41 -57 77 -107z" />
    <glyph glyph-name="Rcaron" unicode="&#x158;" horiz-adv-x="883" 
d="M451 826c-43 0 -89 42 -213 186c18 35 37 51 64 51c51 0 120 -69 157 -120c55 79 101 120 141 120c27 0 46 -16 64 -51c-123 -144 -170 -186 -213 -186zM713 125c124 -175 206 -258 268 -272c-16 -81 -68 -128 -130 -117c-109 24 -186 215 -257 329
c-32 51 -60 100 -87 129c-46 -9 -96 -14 -150 -14h-1c-7 -51 -12 -105 -12 -170c0 -80 13 -143 37 -184c-32 -9 -86 -16 -115 -13c-131 8 -91 170 -70 274c6 34 13 68 20 107c-64 16 -101 38 -103 65c-4 45 32 62 60 83c11 -17 32 -32 59 -43c2 19 5 39 7 60c5 28 7 60 6 98
c-1 46 -9 67 -36 98c20 23 109 65 151 19c19 -17 30 -49 30 -83c0 -82 -9 -148 -19 -214c160 5 319 75 322 243c0 120 -116 198 -297 198c-125 0 -270 -56 -270 -145c0 -39 27 -55 53 -70c-11 -30 -65 -59 -108 -59c-62 0 -101 35 -101 92c0 115 153 267 465 267
c249 0 438 -119 438 -279c0 -109 -84 -226 -237 -292c17 -22 41 -57 77 -107z" />
    <glyph glyph-name="Rcommaaccent" unicode="&#x156;" horiz-adv-x="883" 
d="M713 125c124 -175 206 -258 268 -272c-16 -81 -68 -128 -130 -117c-109 24 -186 215 -257 329c-32 51 -60 100 -87 129c-46 -9 -96 -14 -150 -14h-1c-7 -51 -12 -105 -12 -170c0 -80 13 -143 37 -184c-32 -9 -86 -16 -115 -13c-131 8 -91 170 -70 274c6 34 13 68 20 107
c-64 16 -101 38 -103 65c-4 45 32 62 60 83c11 -17 32 -32 59 -43c2 19 5 39 7 60c5 28 7 60 6 98c-1 46 -9 67 -36 98c20 23 109 65 151 19c19 -17 30 -49 30 -83c0 -82 -9 -148 -19 -214c160 5 319 75 322 243c0 120 -116 198 -297 198c-125 0 -270 -56 -270 -145
c0 -39 27 -55 53 -70c-11 -30 -65 -59 -108 -59c-62 0 -101 35 -101 92c0 115 153 267 465 267c249 0 438 -119 438 -279c0 -109 -84 -226 -237 -292c17 -22 41 -57 77 -107zM523 -220c44 0 75 -36 75 -89c0 -59 -68 -148 -116 -148c-19 0 -35 13 -41 33c23 25 40 41 46 70
c-28 14 -43 37 -43 65c0 42 32 69 79 69z" />
    <glyph glyph-name="S" unicode="S" horiz-adv-x="885" 
d="M414 -199c-163 0 -306 43 -306 126c0 28 14 54 45 83c77 -51 171 -104 298 -104c115 0 219 63 219 133c0 92 -161 105 -324 159c-196 67 -284 153 -284 282c0 211 209 308 433 308c159 0 363 -64 363 -162c0 -54 -87 -84 -136 -78c-6 32 -91 149 -253 149
c-128 0 -257 -77 -257 -170c0 -109 124 -153 260 -195c167 -52 354 -101 354 -261c0 -178 -218 -270 -412 -270z" />
    <glyph glyph-name="Sacute" unicode="&#x15a;" horiz-adv-x="885" 
d="M454 825c-26 0 -51 21 -61 30c81 93 93 159 102 189c19 13 48 22 77 22c41 0 73 -15 73 -35c0 -58 -111 -206 -191 -206zM414 -199c-163 0 -306 43 -306 126c0 28 14 54 45 83c77 -51 171 -104 298 -104c115 0 219 63 219 133c0 92 -161 105 -324 159
c-196 67 -284 153 -284 282c0 211 209 308 433 308c159 0 363 -64 363 -162c0 -54 -87 -84 -136 -78c-6 32 -91 149 -253 149c-128 0 -257 -77 -257 -170c0 -109 124 -153 260 -195c167 -52 354 -101 354 -261c0 -178 -218 -270 -412 -270z" />
    <glyph glyph-name="Scaron" unicode="&#x160;" horiz-adv-x="885" 
d="M485 826c-43 0 -89 42 -213 186c18 35 37 51 64 51c51 0 120 -69 157 -120c55 79 101 120 141 120c27 0 46 -16 64 -51c-123 -144 -170 -186 -213 -186zM414 -199c-163 0 -306 43 -306 126c0 28 14 54 45 83c77 -51 171 -104 298 -104c115 0 219 63 219 133
c0 92 -161 105 -324 159c-196 67 -284 153 -284 282c0 211 209 308 433 308c159 0 363 -64 363 -162c0 -54 -87 -84 -136 -78c-6 32 -91 149 -253 149c-128 0 -257 -77 -257 -170c0 -109 124 -153 260 -195c167 -52 354 -101 354 -261c0 -178 -218 -270 -412 -270z" />
    <glyph glyph-name="Scedilla" unicode="&#x15e;" horiz-adv-x="885" 
d="M469 697c-128 0 -257 -77 -257 -170c0 -109 124 -153 260 -195c167 -52 354 -101 354 -261c0 -151 -159 -241 -326 -264l-15 -31c57 -8 81 -44 81 -90c0 -59 -57 -109 -135 -109c-57 0 -94 30 -94 60c0 16 10 36 37 42c13 -15 27 -21 39 -21c17 0 30 14 30 36
c0 28 -24 44 -54 44v30l11 33c-157 2 -292 45 -292 126c0 28 14 54 45 83c77 -51 171 -104 298 -104c115 0 219 63 219 133c0 92 -161 105 -324 159c-196 67 -284 153 -284 282c0 211 209 308 433 308c159 0 363 -64 363 -162c0 -54 -87 -84 -136 -78
c-6 32 -91 149 -253 149z" />
    <glyph glyph-name="Scommaaccent" unicode="&#x218;" horiz-adv-x="885" 
d="M414 -199c-163 0 -306 43 -306 126c0 28 14 54 45 83c77 -51 171 -104 298 -104c115 0 219 63 219 133c0 92 -161 105 -324 159c-196 67 -284 153 -284 282c0 211 209 308 433 308c159 0 363 -64 363 -162c0 -54 -87 -84 -136 -78c-6 32 -91 149 -253 149
c-128 0 -257 -77 -257 -170c0 -109 124 -153 260 -195c167 -52 354 -101 354 -261c0 -178 -218 -270 -412 -270zM479 -465c-19 0 -35 13 -41 33c23 25 40 41 46 70c-28 14 -43 37 -43 65c0 42 32 69 79 69c44 0 75 -36 75 -89c0 -59 -68 -148 -116 -148z" />
    <glyph glyph-name="T" unicode="T" horiz-adv-x="699" 
d="M917 882c51 -16 82 -44 82 -74c0 -83 -203 -78 -313 -79c-32 0 -62 -1 -90 -2c-29 -117 -69 -340 -76 -538c-5 -153 9 -265 41 -326c-2 -10 -58 -23 -98 -23c-66 0 -109 41 -115 107c-4 37 -5 75 -4 117c7 202 51 510 114 656c-160 -15 -247 -47 -247 -102
c0 -26 14 -43 49 -62c-21 -29 -68 -50 -111 -50c-70 0 -117 43 -117 106c0 107 138 185 367 210c170 19 313 5 432 19c48 5 68 15 86 41z" />
    <glyph glyph-name="Tbar" unicode="&#x166;" horiz-adv-x="699" 
d="M686 729c-32 0 -62 -1 -90 -2c-21 -82 -46 -216 -62 -357c89 1 174 -4 174 -58c0 -21 -12 -46 -29 -61c-55 8 -91 10 -155 10c-2 -24 -3 -48 -4 -72c-5 -153 9 -265 41 -326c-2 -10 -58 -23 -98 -23c-66 0 -109 41 -115 107c-4 37 -5 75 -4 117c2 59 7 127 15 198
c-110 2 -162 13 -162 65c0 10 7 30 16 45c54 -2 83 -2 160 -2c21 136 50 268 85 350c-160 -15 -247 -47 -247 -102c0 -26 14 -43 49 -62c-21 -29 -68 -50 -111 -50c-70 0 -117 43 -117 106c0 107 138 185 367 210c170 19 313 5 432 19c48 5 68 15 86 41
c51 -16 82 -44 82 -74c0 -83 -203 -78 -313 -79z" />
    <glyph glyph-name="Tcaron" unicode="&#x164;" horiz-adv-x="699" 
d="M517 851c-43 0 -89 42 -213 186c18 35 37 51 64 51c51 0 120 -69 157 -120c55 79 101 120 141 120c27 0 46 -16 64 -51c-123 -144 -170 -186 -213 -186zM917 882c51 -16 82 -44 82 -74c0 -83 -203 -78 -313 -79c-32 0 -62 -1 -90 -2c-29 -117 -69 -340 -76 -538
c-5 -153 9 -265 41 -326c-2 -10 -58 -23 -98 -23c-66 0 -109 41 -115 107c-4 37 -5 75 -4 117c7 202 51 510 114 656c-160 -15 -247 -47 -247 -102c0 -26 14 -43 49 -62c-21 -29 -68 -50 -111 -50c-70 0 -117 43 -117 106c0 107 138 185 367 210c170 19 313 5 432 19
c48 5 68 15 86 41z" />
    <glyph glyph-name="uni0162" unicode="&#x162;" horiz-adv-x="699" 
d="M917 882c51 -16 82 -44 82 -74c0 -83 -203 -78 -313 -79c-32 0 -62 -1 -90 -2c-29 -117 -69 -340 -76 -538c-5 -153 9 -265 41 -326c-2 -8 -36 -17 -70 -21l-10 -20c57 -8 81 -44 81 -90c0 -59 -57 -109 -135 -109c-57 0 -94 30 -94 60c0 16 10 36 37 42
c13 -15 27 -21 39 -21c17 0 30 14 30 36c0 28 -24 44 -54 44v30l14 42c-29 18 -47 50 -51 91c-4 37 -5 75 -4 117c7 202 51 510 114 656c-160 -15 -247 -47 -247 -102c0 -26 14 -43 49 -62c-21 -29 -68 -50 -111 -50c-70 0 -117 43 -117 106c0 107 138 185 367 210
c170 19 313 5 432 19c48 5 68 15 86 41z" />
    <glyph glyph-name="uni021A" unicode="&#x21a;" horiz-adv-x="699" 
d="M917 882c51 -16 82 -44 82 -74c0 -83 -203 -78 -313 -79c-32 0 -62 -1 -90 -2c-29 -117 -69 -340 -76 -538c-5 -153 9 -265 41 -326c-2 -10 -58 -23 -98 -23c-66 0 -109 41 -115 107c-4 37 -5 75 -4 117c7 202 51 510 114 656c-160 -15 -247 -47 -247 -102
c0 -26 14 -43 49 -62c-21 -29 -68 -50 -111 -50c-70 0 -117 43 -117 106c0 107 138 185 367 210c170 19 313 5 432 19c48 5 68 15 86 41zM516 -182c44 0 75 -36 75 -89c0 -59 -68 -148 -116 -148c-19 0 -35 13 -41 33c23 25 40 41 46 70c-28 14 -43 37 -43 65
c0 42 32 69 79 69z" />
    <glyph glyph-name="U" unicode="U" horiz-adv-x="871" 
d="M755 369c0 -284 31 -354 89 -433c-27 -28 -58 -51 -105 -51c-38 0 -78 18 -99 63c-14 32 -24 82 -29 141c-81 -152 -201 -280 -318 -280c-155 0 -244 152 -234 401c6 148 28 292 32 408c1 57 -8 79 -21 109c17 30 62 50 113 50c56 0 90 -40 90 -106
c0 -108 -51 -294 -56 -485c-5 -164 24 -247 84 -247c115 0 273 257 314 489c9 103 24 197 40 255c13 49 56 70 100 70c30 0 61 -10 82 -29c-21 -54 -82 -217 -82 -355z" />
    <glyph glyph-name="Uacute" unicode="&#xda;" horiz-adv-x="871" 
d="M628 993c0 -58 -111 -206 -191 -206c-26 0 -51 21 -61 30c81 93 93 159 102 189c19 13 48 22 77 22c41 0 73 -15 73 -35zM755 369c0 -284 31 -354 89 -433c-27 -28 -58 -51 -105 -51c-38 0 -78 18 -99 63c-14 32 -24 82 -29 141c-81 -152 -201 -280 -318 -280
c-155 0 -244 152 -234 401c6 148 28 292 32 408c1 57 -8 79 -21 109c17 30 62 50 113 50c56 0 90 -40 90 -106c0 -108 -51 -294 -56 -485c-5 -164 24 -247 84 -247c115 0 273 257 314 489c9 103 24 197 40 255c13 49 56 70 100 70c30 0 61 -10 82 -29
c-21 -54 -82 -217 -82 -355z" />
    <glyph glyph-name="Ucircumflex" unicode="&#xdb;" horiz-adv-x="871" 
d="M323 786c-27 0 -46 16 -64 51c124 144 170 186 213 186s90 -42 213 -186c-18 -35 -37 -51 -64 -51c-40 0 -97 48 -149 120c-48 -71 -106 -120 -149 -120zM755 369c0 -284 31 -354 89 -433c-27 -28 -58 -51 -105 -51c-38 0 -78 18 -99 63c-14 32 -24 82 -29 141
c-81 -152 -201 -280 -318 -280c-155 0 -244 152 -234 401c6 148 28 292 32 408c1 57 -8 79 -21 109c17 30 62 50 113 50c56 0 90 -40 90 -106c0 -108 -51 -294 -56 -485c-5 -164 24 -247 84 -247c115 0 273 257 314 489c9 103 24 197 40 255c13 49 56 70 100 70
c30 0 61 -10 82 -29c-21 -54 -82 -217 -82 -355z" />
    <glyph glyph-name="Udieresis" unicode="&#xdc;" horiz-adv-x="871" 
d="M367 807c-48 0 -80 29 -80 73c0 47 37 80 89 80c49 0 84 -31 84 -74c0 -46 -39 -79 -93 -79zM563 807c-48 0 -80 29 -80 73c0 47 37 80 89 80c49 0 84 -31 84 -74c0 -46 -39 -79 -93 -79zM755 369c0 -284 31 -354 89 -433c-27 -28 -58 -51 -105 -51c-38 0 -78 18 -99 63
c-14 32 -24 82 -29 141c-81 -152 -201 -280 -318 -280c-155 0 -244 152 -234 401c6 148 28 292 32 408c1 57 -8 79 -21 109c17 30 62 50 113 50c56 0 90 -40 90 -106c0 -108 -51 -294 -56 -485c-5 -164 24 -247 84 -247c115 0 273 257 314 489c9 103 24 197 40 255
c13 49 56 70 100 70c30 0 61 -10 82 -29c-21 -54 -82 -217 -82 -355z" />
    <glyph glyph-name="Ugrave" unicode="&#xd9;" horiz-adv-x="871" 
d="M532 787c-80 0 -191 148 -191 206c0 20 32 35 73 35c29 0 58 -9 77 -22c9 -30 21 -96 102 -189c-10 -9 -35 -30 -61 -30zM755 369c0 -284 31 -354 89 -433c-27 -28 -58 -51 -105 -51c-38 0 -78 18 -99 63c-14 32 -24 82 -29 141c-81 -152 -201 -280 -318 -280
c-155 0 -244 152 -234 401c6 148 28 292 32 408c1 57 -8 79 -21 109c17 30 62 50 113 50c56 0 90 -40 90 -106c0 -108 -51 -294 -56 -485c-5 -164 24 -247 84 -247c115 0 273 257 314 489c9 103 24 197 40 255c13 49 56 70 100 70c30 0 61 -10 82 -29
c-21 -54 -82 -217 -82 -355z" />
    <glyph glyph-name="Uhungarumlaut" unicode="&#x170;" horiz-adv-x="871" 
d="M552 789c-26 0 -51 21 -61 30c81 93 93 159 102 189c19 13 48 22 77 22c41 0 73 -15 73 -35c0 -58 -111 -206 -191 -206zM552 992c0 -58 -111 -206 -191 -206c-26 0 -51 21 -61 30c81 93 93 159 102 189c19 13 48 22 77 22c41 0 73 -15 73 -35zM755 369
c0 -284 31 -354 89 -433c-27 -28 -58 -51 -105 -51c-38 0 -78 18 -99 63c-14 32 -24 82 -29 141c-81 -152 -201 -280 -318 -280c-155 0 -244 152 -234 401c6 148 28 292 32 408c1 57 -8 79 -21 109c17 30 62 50 113 50c56 0 90 -40 90 -106c0 -108 -51 -294 -56 -485
c-5 -164 24 -247 84 -247c115 0 273 257 314 489c9 103 24 197 40 255c13 49 56 70 100 70c30 0 61 -10 82 -29c-21 -54 -82 -217 -82 -355z" />
    <glyph glyph-name="Umacron" unicode="&#x16a;" horiz-adv-x="871" 
d="M385 788c-88 0 -122 16 -122 61c0 13 5 28 13 39c41 -4 158 -3 207 -3c42 0 82 4 116 4c56 0 82 -13 82 -44c0 -20 -9 -44 -22 -59c-34 5 -57 7 -88 7c-23 0 -50 -1 -85 -2c-39 -2 -73 -3 -101 -3zM755 369c0 -284 31 -354 89 -433c-27 -28 -58 -51 -105 -51
c-38 0 -78 18 -99 63c-14 32 -24 82 -29 141c-81 -152 -201 -280 -318 -280c-155 0 -244 152 -234 401c6 148 28 292 32 408c1 57 -8 79 -21 109c17 30 62 50 113 50c56 0 90 -40 90 -106c0 -108 -51 -294 -56 -485c-5 -164 24 -247 84 -247c115 0 273 257 314 489
c9 103 24 197 40 255c13 49 56 70 100 70c30 0 61 -10 82 -29c-21 -54 -82 -217 -82 -355z" />
    <glyph glyph-name="Uogonek" unicode="&#x172;" horiz-adv-x="871" 
d="M790 -104c-41 -40 -64 -71 -64 -97c0 -22 8 -33 22 -33s31 8 52 24c26 -8 39 -22 39 -42c0 -36 -52 -68 -107 -68c-74 0 -130 44 -130 106c-1 57 43 94 79 115c-16 10 -31 25 -41 47c-14 32 -24 82 -29 141c-81 -152 -201 -280 -318 -280c-155 0 -244 152 -234 401
c6 148 28 292 32 408c1 57 -8 79 -21 109c17 30 62 50 113 50c56 0 90 -40 90 -106c0 -108 -51 -294 -56 -485c-5 -164 24 -247 84 -247c115 0 273 257 314 489c9 103 24 197 40 255c13 49 56 70 100 70c30 0 61 -10 82 -29c-21 -54 -82 -217 -82 -355
c0 -284 31 -354 89 -433c-16 -16 -33 -31 -54 -40z" />
    <glyph glyph-name="Uring" unicode="&#x16e;" horiz-adv-x="871" 
d="M469 797c-70 0 -120 45 -120 109s51 109 121 109s120 -45 120 -109s-51 -109 -121 -109zM470 956c-15 0 -25 -17 -25 -49c0 -33 9 -51 23 -51c15 0 25 17 25 51c0 32 -9 49 -23 49zM755 369c0 -284 31 -354 89 -433c-27 -28 -58 -51 -105 -51c-38 0 -78 18 -99 63
c-14 32 -24 82 -29 141c-81 -152 -201 -280 -318 -280c-155 0 -244 152 -234 401c6 148 28 292 32 408c1 57 -8 79 -21 109c17 30 62 50 113 50c56 0 90 -40 90 -106c0 -108 -51 -294 -56 -485c-5 -164 24 -247 84 -247c115 0 273 257 314 489c9 103 24 197 40 255
c13 49 56 70 100 70c30 0 61 -10 82 -29c-21 -54 -82 -217 -82 -355z" />
    <glyph glyph-name="V" unicode="V" horiz-adv-x="911" 
d="M440 -192c-40 0 -126 85 -139 121c-36 127 -45 203 -101 392c-49 175 -97 252 -185 299c1 60 42 99 102 99c194 0 250 -406 322 -716c5 -27 12 -42 26 -51c94 40 251 296 251 550c0 132 -39 242 -112 315c36 17 52 33 94 33c147 0 174 -208 174 -308
c0 -349 -294 -734 -432 -734z" />
    <glyph glyph-name="W" unicode="W" horiz-adv-x="1087" 
d="M873 871c120 0 161 -89 161 -335c-5 -220 -85 -661 -361 -661c-203 0 -237 343 -267 485c-8 -73 -22 -159 -37 -234c-27 -165 -110 -285 -201 -285c-82 0 -129 50 -144 153c-13 91 -13 225 -13 339c0 68 -8 173 -58 218c47 29 99 92 158 92c56 0 79 -49 79 -150
c0 -104 -29 -300 -29 -412c0 -50 15 -88 32 -88c43 0 120 196 120 510c0 100 121 139 151 139c47 0 57 -39 64 -77c27 -169 -1 -553 141 -553c15 0 180 35 183 452c0 127 -35 323 -72 396c31 7 64 11 93 11z" />
    <glyph glyph-name="Wacute" unicode="&#x1e82;" horiz-adv-x="1087" 
d="M593 960c0 -58 -111 -206 -191 -206c-26 0 -51 21 -61 30c81 93 93 159 102 189c19 13 48 22 77 22c41 0 73 -15 73 -35zM873 871c120 0 161 -89 161 -335c-5 -220 -85 -661 -361 -661c-203 0 -237 343 -267 485c-8 -73 -22 -159 -37 -234c-27 -165 -110 -285 -201 -285
c-82 0 -129 50 -144 153c-13 91 -13 225 -13 339c0 68 -8 173 -58 218c47 29 99 92 158 92c56 0 79 -49 79 -150c0 -104 -29 -300 -29 -412c0 -50 15 -88 32 -88c43 0 120 196 120 510c0 100 121 139 151 139c47 0 57 -39 64 -77c27 -169 -1 -553 141 -553
c15 0 180 35 183 452c0 127 -35 323 -72 396c31 7 64 11 93 11z" />
    <glyph glyph-name="Wcircumflex" unicode="&#x174;" horiz-adv-x="1087" 
d="M288 753c-27 0 -46 16 -64 51c124 144 170 186 213 186s90 -42 213 -186c-18 -35 -37 -51 -64 -51c-40 0 -97 48 -149 120c-48 -71 -106 -120 -149 -120zM873 871c120 0 161 -89 161 -335c-5 -220 -85 -661 -361 -661c-203 0 -237 343 -267 485c-8 -73 -22 -159 -37 -234
c-27 -165 -110 -285 -201 -285c-82 0 -129 50 -144 153c-13 91 -13 225 -13 339c0 68 -8 173 -58 218c47 29 99 92 158 92c56 0 79 -49 79 -150c0 -104 -29 -300 -29 -412c0 -50 15 -88 32 -88c43 0 120 196 120 510c0 100 121 139 151 139c47 0 57 -39 64 -77
c27 -169 -1 -553 141 -553c15 0 180 35 183 452c0 127 -35 323 -72 396c31 7 64 11 93 11z" />
    <glyph glyph-name="Wdieresis" unicode="&#x1e84;" horiz-adv-x="1087" 
d="M332 774c-48 0 -80 29 -80 73c0 47 37 80 89 80c49 0 84 -31 84 -74c0 -46 -39 -79 -93 -79zM528 774c-48 0 -80 29 -80 73c0 47 37 80 89 80c49 0 84 -31 84 -74c0 -46 -39 -79 -93 -79zM873 871c120 0 161 -89 161 -335c-5 -220 -85 -661 -361 -661
c-203 0 -237 343 -267 485c-8 -73 -22 -159 -37 -234c-27 -165 -110 -285 -201 -285c-82 0 -129 50 -144 153c-13 91 -13 225 -13 339c0 68 -8 173 -58 218c47 29 99 92 158 92c56 0 79 -49 79 -150c0 -104 -29 -300 -29 -412c0 -50 15 -88 32 -88c43 0 120 196 120 510
c0 100 121 139 151 139c47 0 57 -39 64 -77c27 -169 -1 -553 141 -553c15 0 180 35 183 452c0 127 -35 323 -72 396c31 7 64 11 93 11z" />
    <glyph glyph-name="Wgrave" unicode="&#x1e80;" horiz-adv-x="1087" 
d="M497 754c-80 0 -191 148 -191 206c0 20 32 35 73 35c29 0 58 -9 77 -22c9 -30 21 -96 102 -189c-10 -9 -35 -30 -61 -30zM873 871c120 0 161 -89 161 -335c-5 -220 -85 -661 -361 -661c-203 0 -237 343 -267 485c-8 -73 -22 -159 -37 -234c-27 -165 -110 -285 -201 -285
c-82 0 -129 50 -144 153c-13 91 -13 225 -13 339c0 68 -8 173 -58 218c47 29 99 92 158 92c56 0 79 -49 79 -150c0 -104 -29 -300 -29 -412c0 -50 15 -88 32 -88c43 0 120 196 120 510c0 100 121 139 151 139c47 0 57 -39 64 -77c27 -169 -1 -553 141 -553
c15 0 180 35 183 452c0 127 -35 323 -72 396c31 7 64 11 93 11z" />
    <glyph glyph-name="X" unicode="X" horiz-adv-x="804" 
d="M730 620c-81 0 -141 -95 -302 -339l-7 -10c102 -171 237 -247 330 -268c15 -94 -18 -159 -81 -159c-56 0 -130 59 -220 174c-38 48 -73 96 -104 142c-36 -54 -77 -114 -125 -184c-60 -83 -99 -151 -207 -151c-72 0 -123 75 -87 127c52 -6 78 -10 138 47
c41 40 109 139 200 290c-86 151 -128 273 -128 330c0 78 64 134 144 122c11 -123 35 -227 67 -315c145 227 254 330 350 330c90 0 139 -63 117 -153c-39 12 -64 17 -85 17z" />
    <glyph glyph-name="Y" unicode="Y" horiz-adv-x="761" 
d="M522 590c1 138 61 191 189 168c-28 -64 -29 -125 -29 -405c0 -488 -327 -529 -422 -529c-111 0 -213 43 -214 98c-1 37 27 73 81 103c51 -80 122 -104 153 -104c188 0 235 162 244 357c-58 -95 -134 -151 -220 -151c-200 0 -260 202 -260 366c0 98 19 180 51 213
c33 32 95 53 183 45c-32 -60 -69 -108 -69 -310c0 -137 37 -211 103 -211c98 0 186 150 210 360z" />
    <glyph glyph-name="Yacute" unicode="&#xdd;" horiz-adv-x="761" 
d="M557 993c0 -58 -111 -206 -191 -206c-26 0 -51 21 -61 30c81 93 93 159 102 189c19 13 48 22 77 22c41 0 73 -15 73 -35zM522 590c1 138 61 191 189 168c-28 -64 -29 -125 -29 -405c0 -488 -327 -529 -422 -529c-111 0 -213 43 -214 98c-1 37 27 73 81 103
c51 -80 122 -104 153 -104c188 0 235 162 244 357c-58 -95 -134 -151 -220 -151c-200 0 -260 202 -260 366c0 98 19 180 51 213c33 32 95 53 183 45c-32 -60 -69 -108 -69 -310c0 -137 37 -211 103 -211c98 0 186 150 210 360z" />
    <glyph glyph-name="Ycircumflex" unicode="&#x176;" horiz-adv-x="761" 
d="M252 786c-27 0 -46 16 -64 51c124 144 170 186 213 186s90 -42 213 -186c-18 -35 -37 -51 -64 -51c-40 0 -97 48 -149 120c-48 -71 -106 -120 -149 -120zM522 590c1 138 61 191 189 168c-28 -64 -29 -125 -29 -405c0 -488 -327 -529 -422 -529c-111 0 -213 43 -214 98
c-1 37 27 73 81 103c51 -80 122 -104 153 -104c188 0 235 162 244 357c-58 -95 -134 -151 -220 -151c-200 0 -260 202 -260 366c0 98 19 180 51 213c33 32 95 53 183 45c-32 -60 -69 -108 -69 -310c0 -137 37 -211 103 -211c98 0 186 150 210 360z" />
    <glyph glyph-name="Ydieresis" unicode="&#x178;" horiz-adv-x="761" 
d="M296 807c-48 0 -80 29 -80 73c0 47 37 80 89 80c49 0 84 -31 84 -74c0 -46 -39 -79 -93 -79zM492 807c-48 0 -80 29 -80 73c0 47 37 80 89 80c49 0 84 -31 84 -74c0 -46 -39 -79 -93 -79zM522 590c1 138 61 191 189 168c-28 -64 -29 -125 -29 -405
c0 -488 -327 -529 -422 -529c-111 0 -213 43 -214 98c-1 37 27 73 81 103c51 -80 122 -104 153 -104c188 0 235 162 244 357c-58 -95 -134 -151 -220 -151c-200 0 -260 202 -260 366c0 98 19 180 51 213c33 32 95 53 183 45c-32 -60 -69 -108 -69 -310
c0 -137 37 -211 103 -211c98 0 186 150 210 360z" />
    <glyph glyph-name="Ygrave" unicode="&#x1ef2;" horiz-adv-x="761" 
d="M461 787c-80 0 -191 148 -191 206c0 20 32 35 73 35c29 0 58 -9 77 -22c9 -30 21 -96 102 -189c-10 -9 -35 -30 -61 -30zM522 590c1 138 61 191 189 168c-28 -64 -29 -125 -29 -405c0 -488 -327 -529 -422 -529c-111 0 -213 43 -214 98c-1 37 27 73 81 103
c51 -80 122 -104 153 -104c188 0 235 162 244 357c-58 -95 -134 -151 -220 -151c-200 0 -260 202 -260 366c0 98 19 180 51 213c33 32 95 53 183 45c-32 -60 -69 -108 -69 -310c0 -137 37 -211 103 -211c98 0 186 150 210 360z" />
    <glyph glyph-name="Z" unicode="Z" horiz-adv-x="786" 
d="M567 -157c-163 0 -408 51 -499 48c-13 23 -38 59 -38 114c0 63 33 104 150 232c102 113 216 235 338 364c-88 0 -158 4 -212 4c-84 0 -115 -12 -145 -56c-51 25 -78 57 -78 93c0 62 78 108 181 108c137 0 248 -71 313 -66c27 20 70 44 111 44c49 0 69 -29 76 -108
c5 -1 -109 -6 -405 -382c-86 -109 -133 -168 -179 -233c66 -11 204 -26 311 -26c67 0 192 28 234 54c75 -155 -28 -190 -158 -190z" />
    <glyph glyph-name="Zacute" unicode="&#x179;" horiz-adv-x="786" 
d="M410 787c-26 0 -51 21 -61 30c81 93 93 159 102 189c19 13 48 22 77 22c41 0 73 -15 73 -35c0 -58 -111 -206 -191 -206zM567 -157c-163 0 -408 51 -499 48c-13 23 -38 59 -38 114c0 63 33 104 150 232c102 113 216 235 338 364c-88 0 -158 4 -212 4
c-84 0 -115 -12 -145 -56c-51 25 -78 57 -78 93c0 62 78 108 181 108c137 0 248 -71 313 -66c27 20 70 44 111 44c49 0 69 -29 76 -108c5 -1 -109 -6 -405 -382c-86 -109 -133 -168 -179 -233c66 -11 204 -26 311 -26c67 0 192 28 234 54c75 -155 -28 -190 -158 -190z" />
    <glyph glyph-name="Zcaron" unicode="&#x17d;" horiz-adv-x="786" 
d="M441 788c-43 0 -89 42 -213 186c18 35 37 51 64 51c51 0 120 -69 157 -120c55 79 101 120 141 120c27 0 46 -16 64 -51c-123 -144 -170 -186 -213 -186zM567 -157c-163 0 -408 51 -499 48c-13 23 -38 59 -38 114c0 63 33 104 150 232c102 113 216 235 338 364
c-88 0 -158 4 -212 4c-84 0 -115 -12 -145 -56c-51 25 -78 57 -78 93c0 62 78 108 181 108c137 0 248 -71 313 -66c27 20 70 44 111 44c49 0 69 -29 76 -108c5 -1 -109 -6 -405 -382c-86 -109 -133 -168 -179 -233c66 -11 204 -26 311 -26c67 0 192 28 234 54
c75 -155 -28 -190 -158 -190z" />
    <glyph glyph-name="Zdotaccent" unicode="&#x17b;" horiz-adv-x="786" 
d="M444 809c-45 0 -78 28 -78 67c0 43 35 74 83 74c45 0 77 -28 77 -68c0 -41 -36 -73 -82 -73zM567 -157c-163 0 -408 51 -499 48c-13 23 -38 59 -38 114c0 63 33 104 150 232c102 113 216 235 338 364c-88 0 -158 4 -212 4c-84 0 -115 -12 -145 -56c-51 25 -78 57 -78 93
c0 62 78 108 181 108c137 0 248 -71 313 -66c27 20 70 44 111 44c49 0 69 -29 76 -108c5 -1 -109 -6 -405 -382c-86 -109 -133 -168 -179 -233c66 -11 204 -26 311 -26c67 0 192 28 234 54c75 -155 -28 -190 -158 -190z" />
    <glyph glyph-name="A.salt" horiz-adv-x="1724" 
d="M1621 186c0 -138 42 -206 76 -249c-13 -18 -47 -55 -106 -55c-87 0 -137 79 -137 216c0 22 1 46 3 73c-92 -17 -216 -11 -326 5c-47 -110 -81 -221 -89 -316c-4 -35 0 -98 7 -138c-115 9 -189 12 -189 112c0 79 53 227 118 375c-240 67 -403 183 -565 183
c-150 0 -258 -98 -258 -236c0 -113 83 -210 181 -210c111 0 167 122 166 214c100 0 166 -54 166 -135c0 -96 -110 -214 -290 -214c-205 0 -363 148 -363 343c0 272 213 390 410 390c225 0 395 -141 613 -216c92 152 305 430 469 454c137 -16 119 -133 119 -258
c0 -90 -5 -204 -5 -338zM1182 288c92 -22 190 -33 285 -20c13 120 32 251 32 317c0 64 -21 90 -29 103c-66 -31 -190 -202 -288 -400z" />
    <glyph glyph-name="Aacute.salt" horiz-adv-x="1724" 
d="M1670 1031c0 -58 -111 -206 -191 -206c-26 0 -51 21 -61 30c81 93 93 159 102 189c19 13 48 22 77 22c41 0 73 -15 73 -35zM1621 186c0 -138 42 -206 76 -249c-13 -18 -47 -55 -106 -55c-87 0 -137 79 -137 216c0 22 1 46 3 73c-92 -17 -216 -11 -326 5
c-47 -110 -81 -221 -89 -316c-4 -35 0 -98 7 -138c-115 9 -189 12 -189 112c0 79 53 227 118 375c-240 67 -403 183 -565 183c-150 0 -258 -98 -258 -236c0 -113 83 -210 181 -210c111 0 167 122 166 214c100 0 166 -54 166 -135c0 -96 -110 -214 -290 -214
c-205 0 -363 148 -363 343c0 272 213 390 410 390c225 0 395 -141 613 -216c92 152 305 430 469 454c137 -16 119 -133 119 -258c0 -90 -5 -204 -5 -338zM1182 288c92 -22 190 -33 285 -20c13 120 32 251 32 317c0 64 -21 90 -29 103c-66 -31 -190 -202 -288 -400z" />
    <glyph glyph-name="Abreve.salt" horiz-adv-x="1724" 
d="M1511 835c-95 0 -176 76 -176 163c0 37 22 54 69 54c27 0 53 -9 64 -20c0 -69 20 -112 50 -112c35 0 51 36 51 112c10 11 36 20 65 20c46 0 68 -17 68 -54c0 -87 -89 -163 -191 -163zM1626 524c0 -90 -5 -204 -5 -338c0 -138 42 -206 76 -249c-13 -18 -47 -55 -106 -55
c-87 0 -137 79 -137 216c0 22 1 46 3 73c-92 -17 -216 -11 -326 5c-47 -110 -81 -221 -89 -316c-4 -35 0 -98 7 -138c-115 9 -189 12 -189 112c0 79 53 227 118 375c-240 67 -403 183 -565 183c-150 0 -258 -98 -258 -236c0 -113 83 -210 181 -210c111 0 167 122 166 214
c100 0 166 -54 166 -135c0 -96 -110 -214 -290 -214c-205 0 -363 148 -363 343c0 272 213 390 410 390c225 0 395 -141 613 -216c92 152 305 430 469 454c137 -16 119 -133 119 -258zM1182 288c92 -22 190 -33 285 -20c13 120 32 251 32 317c0 64 -21 90 -29 103
c-66 -31 -190 -202 -288 -400z" />
    <glyph glyph-name="Acircumflex.salt" horiz-adv-x="1724" 
d="M1514 1061c43 0 90 -42 213 -186c-18 -35 -37 -51 -64 -51c-40 0 -97 48 -149 120c-48 -71 -106 -120 -149 -120c-27 0 -46 16 -64 51c124 144 170 186 213 186zM1626 524c0 -90 -5 -204 -5 -338c0 -138 42 -206 76 -249c-13 -18 -47 -55 -106 -55
c-87 0 -137 79 -137 216c0 22 1 46 3 73c-92 -17 -216 -11 -326 5c-47 -110 -81 -221 -89 -316c-4 -35 0 -98 7 -138c-115 9 -189 12 -189 112c0 79 53 227 118 375c-240 67 -403 183 -565 183c-150 0 -258 -98 -258 -236c0 -113 83 -210 181 -210c111 0 167 122 166 214
c100 0 166 -54 166 -135c0 -96 -110 -214 -290 -214c-205 0 -363 148 -363 343c0 272 213 390 410 390c225 0 395 -141 613 -216c92 152 305 430 469 454c137 -16 119 -133 119 -258zM1182 288c92 -22 190 -33 285 -20c13 120 32 251 32 317c0 64 -21 90 -29 103
c-66 -31 -190 -202 -288 -400z" />
    <glyph glyph-name="Adieresis.salt" horiz-adv-x="1724" 
d="M1409 845c-48 0 -80 29 -80 73c0 47 37 80 89 80c49 0 84 -31 84 -74c0 -46 -39 -79 -93 -79zM1605 845c-48 0 -80 29 -80 73c0 47 37 80 89 80c49 0 84 -31 84 -74c0 -46 -39 -79 -93 -79zM1626 524c0 -90 -5 -204 -5 -338c0 -138 42 -206 76 -249
c-13 -18 -47 -55 -106 -55c-87 0 -137 79 -137 216c0 22 1 46 3 73c-92 -17 -216 -11 -326 5c-47 -110 -81 -221 -89 -316c-4 -35 0 -98 7 -138c-115 9 -189 12 -189 112c0 79 53 227 118 375c-240 67 -403 183 -565 183c-150 0 -258 -98 -258 -236c0 -113 83 -210 181 -210
c111 0 167 122 166 214c100 0 166 -54 166 -135c0 -96 -110 -214 -290 -214c-205 0 -363 148 -363 343c0 272 213 390 410 390c225 0 395 -141 613 -216c92 152 305 430 469 454c137 -16 119 -133 119 -258zM1182 288c92 -22 190 -33 285 -20c13 120 32 251 32 317
c0 64 -21 90 -29 103c-66 -31 -190 -202 -288 -400z" />
    <glyph glyph-name="Agrave.salt" horiz-adv-x="1724" 
d="M1574 825c-80 0 -191 148 -191 206c0 20 32 35 73 35c29 0 58 -9 77 -22c9 -30 21 -96 102 -189c-10 -9 -35 -30 -61 -30zM1621 186c0 -138 42 -206 76 -249c-13 -18 -47 -55 -106 -55c-87 0 -137 79 -137 216c0 22 1 46 3 73c-92 -17 -216 -11 -326 5
c-47 -110 -81 -221 -89 -316c-4 -35 0 -98 7 -138c-115 9 -189 12 -189 112c0 79 53 227 118 375c-240 67 -403 183 -565 183c-150 0 -258 -98 -258 -236c0 -113 83 -210 181 -210c111 0 167 122 166 214c100 0 166 -54 166 -135c0 -96 -110 -214 -290 -214
c-205 0 -363 148 -363 343c0 272 213 390 410 390c225 0 395 -141 613 -216c92 152 305 430 469 454c137 -16 119 -133 119 -258c0 -90 -5 -204 -5 -338zM1182 288c92 -22 190 -33 285 -20c13 120 32 251 32 317c0 64 -21 90 -29 103c-66 -31 -190 -202 -288 -400z" />
    <glyph glyph-name="Amacron.salt" horiz-adv-x="1724" 
d="M1641 927c56 0 82 -13 82 -44c0 -20 -9 -44 -22 -59c-34 5 -57 7 -88 7c-23 0 -50 -1 -85 -2c-39 -2 -73 -3 -101 -3c-88 0 -122 16 -122 61c0 13 5 28 13 39c41 -4 158 -3 207 -3c42 0 82 4 116 4zM1626 524c0 -90 -5 -204 -5 -338c0 -138 42 -206 76 -249
c-13 -18 -47 -55 -106 -55c-87 0 -137 79 -137 216c0 22 1 46 3 73c-92 -17 -216 -11 -326 5c-47 -110 -81 -221 -89 -316c-4 -35 0 -98 7 -138c-115 9 -189 12 -189 112c0 79 53 227 118 375c-240 67 -403 183 -565 183c-150 0 -258 -98 -258 -236c0 -113 83 -210 181 -210
c111 0 167 122 166 214c100 0 166 -54 166 -135c0 -96 -110 -214 -290 -214c-205 0 -363 148 -363 343c0 272 213 390 410 390c225 0 395 -141 613 -216c92 152 305 430 469 454c137 -16 119 -133 119 -258zM1182 288c92 -22 190 -33 285 -20c13 120 32 251 32 317
c0 64 -21 90 -29 103c-66 -31 -190 -202 -288 -400z" />
    <glyph glyph-name="Aogonek.salt" horiz-adv-x="1724" 
d="M1682 -195c26 -8 39 -22 39 -42c0 -36 -52 -68 -107 -68c-74 0 -130 44 -130 106c0 42 23 73 50 95c-51 28 -80 99 -80 202c0 22 1 46 3 73c-92 -17 -216 -11 -326 5c-47 -110 -81 -221 -89 -316c-4 -35 0 -98 7 -138c-115 9 -189 12 -189 112c0 79 53 227 118 375
c-240 67 -403 183 -565 183c-150 0 -258 -98 -258 -236c0 -113 83 -210 181 -210c111 0 167 122 166 214c100 0 166 -54 166 -135c0 -96 -110 -214 -290 -214c-205 0 -363 148 -363 343c0 272 213 390 410 390c225 0 395 -141 613 -216c92 152 305 430 469 454
c137 -16 119 -133 119 -258c0 -90 -5 -204 -5 -338c0 -138 42 -206 76 -249c-5 -7 -13 -16 -24 -26c-41 -40 -65 -71 -65 -97c0 -22 8 -33 22 -33s31 8 52 24zM1182 288c92 -22 190 -33 285 -20c13 120 32 251 32 317c0 64 -21 90 -29 103c-66 -31 -190 -202 -288 -400z" />
    <glyph glyph-name="Aring.salt" horiz-adv-x="1724" 
d="M1511 835c-70 0 -120 45 -120 109s51 109 121 109s120 -45 120 -109s-51 -109 -121 -109zM1512 994c-15 0 -25 -17 -25 -49c0 -33 9 -51 23 -51c15 0 25 17 25 51c0 32 -9 49 -23 49zM1621 186c0 -138 42 -206 76 -249c-13 -18 -47 -55 -106 -55c-87 0 -137 79 -137 216
c0 22 1 46 3 73c-92 -17 -216 -11 -326 5c-47 -110 -81 -221 -89 -316c-4 -35 0 -98 7 -138c-115 9 -189 12 -189 112c0 79 53 227 118 375c-240 67 -403 183 -565 183c-150 0 -258 -98 -258 -236c0 -113 83 -210 181 -210c111 0 167 122 166 214c100 0 166 -54 166 -135
c0 -96 -110 -214 -290 -214c-205 0 -363 148 -363 343c0 272 213 390 410 390c225 0 395 -141 613 -216c92 152 305 430 469 454c137 -16 119 -133 119 -258c0 -90 -5 -204 -5 -338zM1182 288c92 -22 190 -33 285 -20c13 120 32 251 32 317c0 64 -21 90 -29 103
c-66 -31 -190 -202 -288 -400z" />
    <glyph glyph-name="Atilde.salt" horiz-adv-x="1724" 
d="M1391 851c-49 -3 -81 17 -81 50c0 50 63 102 124 102c73 0 126 -58 155 -58c19 0 37 33 48 52c49 2 81 -15 81 -44c0 -41 -54 -108 -124 -108s-126 58 -156 58c-15 0 -36 -22 -47 -52zM1626 524c0 -90 -5 -204 -5 -338c0 -138 42 -206 76 -249c-13 -18 -47 -55 -106 -55
c-87 0 -137 79 -137 216c0 22 1 46 3 73c-92 -17 -216 -11 -326 5c-47 -110 -81 -221 -89 -316c-4 -35 0 -98 7 -138c-115 9 -189 12 -189 112c0 79 53 227 118 375c-240 67 -403 183 -565 183c-150 0 -258 -98 -258 -236c0 -113 83 -210 181 -210c111 0 167 122 166 214
c100 0 166 -54 166 -135c0 -96 -110 -214 -290 -214c-205 0 -363 148 -363 343c0 272 213 390 410 390c225 0 395 -141 613 -216c92 152 305 430 469 454c137 -16 119 -133 119 -258zM1182 288c92 -22 190 -33 285 -20c13 120 32 251 32 317c0 64 -21 90 -29 103
c-66 -31 -190 -202 -288 -400z" />
    <glyph glyph-name="B.salt" horiz-adv-x="1275" 
d="M1013 314c131 -30 199 -136 199 -237c0 -100 -81 -225 -283 -225c-115 0 -198 53 -198 111c0 17 11 33 29 44c31 -18 69 -37 141 -37c113 0 164 79 164 157c0 76 -47 130 -115 132c-58 0 -111 -1 -150 -24c-33 11 -49 34 -49 56c0 42 34 59 78 59c19 0 39 -3 59 -8
c69 26 173 104 173 212c0 92 -79 148 -208 148c-26 0 -54 -2 -84 -6c6 -11 11 -23 11 -34c-125 -244 -138 -744 -45 -901c-13 -15 -77 -23 -106 -23c-72 0 -119 42 -128 112c-33 218 33 560 92 730c11 34 21 59 34 83c-186 -60 -377 -192 -377 -418c0 -108 82 -206 180 -212
c-2 -81 -66 -133 -158 -133c-149 0 -234 159 -234 269c0 401 452 615 834 615c295 0 378 -132 378 -220c0 -127 -135 -219 -237 -250z" />
    <glyph glyph-name="C.salt" horiz-adv-x="930" 
d="M1632 812c104 -31 150 -72 150 -141c0 -131 -165 -166 -294 -166c-160 0 -392 54 -447 65c-94 19 -140 27 -173 31c1 -7 2 -15 2 -23c0 -85 -65 -187 -201 -187c-95 0 -162 49 -162 127c0 81 71 125 151 148c-16 3 -35 5 -56 5c-228 0 -375 -212 -375 -415
c0 -166 99 -316 291 -316c178 0 276 129 290 160c43 3 72 -18 72 -51c0 -85 -190 -209 -394 -209c-243 0 -448 177 -448 418c0 239 202 506 536 506c107 0 199 -27 250 -78c126 -4 420 -40 589 -40c156 0 200 31 219 166zM654 491c51 0 88 54 88 97c0 4 0 9 -1 13
c-39 -4 -68 -11 -89 -21c-26 -12 -39 -35 -39 -54s13 -35 41 -35z" />
    <glyph glyph-name="Cacute.salt" horiz-adv-x="930" 
d="M700 1031c0 -58 -111 -206 -191 -206c-26 0 -51 21 -61 30c81 93 93 159 102 189c19 13 48 22 77 22c41 0 73 -15 73 -35zM1632 812c104 -31 150 -72 150 -141c0 -131 -165 -166 -294 -166c-160 0 -392 54 -447 65c-94 19 -140 27 -173 31c1 -7 2 -15 2 -23
c0 -85 -65 -187 -201 -187c-95 0 -162 49 -162 127c0 81 71 125 151 148c-16 3 -35 5 -56 5c-228 0 -375 -212 -375 -415c0 -166 99 -316 291 -316c178 0 276 129 290 160c43 3 72 -18 72 -51c0 -85 -190 -209 -394 -209c-243 0 -448 177 -448 418c0 239 202 506 536 506
c107 0 199 -27 250 -78c126 -4 420 -40 589 -40c156 0 200 31 219 166zM654 491c51 0 88 54 88 97c0 4 0 9 -1 13c-39 -4 -68 -11 -89 -21c-26 -12 -39 -35 -39 -54s13 -35 41 -35z" />
    <glyph glyph-name="Ccaron.salt" horiz-adv-x="930" 
d="M540 826c-43 0 -89 42 -213 186c18 35 37 51 64 51c51 0 120 -69 157 -120c55 79 101 120 141 120c27 0 46 -16 64 -51c-123 -144 -170 -186 -213 -186zM1632 812c104 -31 150 -72 150 -141c0 -131 -165 -166 -294 -166c-160 0 -392 54 -447 65c-94 19 -140 27 -173 31
c1 -7 2 -15 2 -23c0 -85 -65 -187 -201 -187c-95 0 -162 49 -162 127c0 81 71 125 151 148c-16 3 -35 5 -56 5c-228 0 -375 -212 -375 -415c0 -166 99 -316 291 -316c178 0 276 129 290 160c43 3 72 -18 72 -51c0 -85 -190 -209 -394 -209c-243 0 -448 177 -448 418
c0 239 202 506 536 506c107 0 199 -27 250 -78c126 -4 420 -40 589 -40c156 0 200 31 219 166zM654 491c51 0 88 54 88 97c0 4 0 9 -1 13c-39 -4 -68 -11 -89 -21c-26 -12 -39 -35 -39 -54s13 -35 41 -35z" />
    <glyph glyph-name="Ccedilla.salt" horiz-adv-x="930" 
d="M1632 812c104 -31 150 -72 150 -141c0 -131 -165 -166 -294 -166c-160 0 -392 54 -447 65c-94 19 -140 27 -173 31c1 -7 2 -15 2 -23c0 -85 -65 -187 -201 -187c-95 0 -162 49 -162 127c0 81 71 125 151 148c-16 3 -35 5 -56 5c-228 0 -375 -212 -375 -415
c0 -166 99 -316 291 -316c178 0 276 129 290 160c43 3 72 -18 72 -51c0 -77 -155 -186 -336 -206l-17 -34c57 -8 81 -44 81 -90c0 -59 -57 -109 -135 -109c-57 0 -94 30 -94 60c0 16 10 36 37 42c13 -15 27 -21 39 -21c17 0 30 14 30 36c0 28 -24 44 -54 44v30l14 41
c-225 18 -407 189 -407 416c0 239 202 506 536 506c107 0 199 -27 250 -78c126 -4 420 -40 589 -40c156 0 200 31 219 166zM654 491c51 0 88 54 88 97c0 4 0 9 -1 13c-39 -4 -68 -11 -89 -21c-26 -12 -39 -35 -39 -54s13 -35 41 -35z" />
    <glyph glyph-name="Cdotaccent.salt" horiz-adv-x="930" 
d="M543 847c-45 0 -78 28 -78 67c0 43 35 74 83 74c45 0 77 -28 77 -68c0 -41 -36 -73 -82 -73zM1632 812c104 -31 150 -72 150 -141c0 -131 -165 -166 -294 -166c-160 0 -392 54 -447 65c-94 19 -140 27 -173 31c1 -7 2 -15 2 -23c0 -85 -65 -187 -201 -187
c-95 0 -162 49 -162 127c0 81 71 125 151 148c-16 3 -35 5 -56 5c-228 0 -375 -212 -375 -415c0 -166 99 -316 291 -316c178 0 276 129 290 160c43 3 72 -18 72 -51c0 -85 -190 -209 -394 -209c-243 0 -448 177 -448 418c0 239 202 506 536 506c107 0 199 -27 250 -78
c126 -4 420 -40 589 -40c156 0 200 31 219 166zM654 491c51 0 88 54 88 97c0 4 0 9 -1 13c-39 -4 -68 -11 -89 -21c-26 -12 -39 -35 -39 -54s13 -35 41 -35z" />
    <glyph glyph-name="D.salt" horiz-adv-x="1108" 
d="M563 741c333 -32 481 -197 484 -385c0 -350 -434 -505 -642 -505c-293 0 -381 158 -381 269c0 180 150 298 313 324c21 79 47 154 72 215c-34 -5 -70 -12 -103 -17c-78 -10 -109 13 -96 89c83 11 160 16 230 16h9c16 31 29 52 38 58c35 -7 76 -22 76 -64zM371 -53
c281 0 499 190 499 435c0 154 -136 266 -332 281c-23 -61 -44 -136 -61 -220c109 -16 226 -67 226 -152c0 -52 -41 -85 -70 -108c-61 51 -117 88 -178 107c-10 -97 -12 -203 -3 -314c-78 -26 -151 35 -157 128c-4 61 1 129 12 197c-100 -17 -161 -83 -161 -178
c0 -129 126 -176 225 -176z" />
    <glyph glyph-name="Eth.salt" horiz-adv-x="1078" 
d="M563 741c333 -32 481 -197 484 -385c0 -350 -434 -505 -642 -505c-293 0 -381 158 -381 269c0 90 50 159 134 159c35 0 115 -21 89 -142c-61 37 -101 -2 -101 -43c0 -129 126 -147 225 -147c281 0 499 190 499 435c0 154 -136 266 -332 281c-27 -72 -52 -162 -69 -265
c96 1 196 1 196 -58c0 -21 -12 -46 -29 -61c-62 9 -100 10 -181 10c-10 -97 -12 -203 -3 -313c-78 -26 -151 35 -157 128c-4 58 0 121 10 186c-103 3 -151 15 -151 65c0 10 7 30 16 45c53 -1 82 -2 156 -2c22 96 53 188 83 261c-34 -5 -70 -12 -103 -17
c-78 -10 -109 13 -96 89c83 11 160 16 230 16h9c16 31 29 52 38 58c35 -7 76 -22 76 -64z" />
    <glyph glyph-name="Dcaron.salt" horiz-adv-x="1108" 
d="M683 772c-43 0 -89 42 -213 186c18 35 37 51 64 51c51 0 120 -69 157 -120c55 79 101 120 141 120c27 0 46 -16 64 -51c-123 -144 -170 -186 -213 -186zM563 741c333 -32 481 -197 484 -385c0 -350 -434 -505 -642 -505c-293 0 -381 158 -381 269c0 180 150 298 313 324
c21 79 47 154 72 215c-34 -5 -70 -12 -103 -17c-78 -10 -109 13 -96 89c83 11 160 16 230 16h9c16 31 29 52 38 58c35 -7 76 -22 76 -64zM371 -53c281 0 499 190 499 435c0 154 -136 266 -332 281c-23 -61 -44 -136 -61 -220c109 -16 226 -67 226 -152
c0 -52 -41 -85 -70 -108c-61 51 -117 88 -178 107c-10 -97 -12 -203 -3 -314c-78 -26 -151 35 -157 128c-4 61 1 129 12 197c-100 -17 -161 -83 -161 -178c0 -129 126 -176 225 -176z" />
    <glyph glyph-name="Dcroat.salt" horiz-adv-x="1078" 
d="M563 741c333 -32 481 -197 484 -385c0 -350 -434 -505 -642 -505c-293 0 -381 158 -381 269c0 90 50 159 134 159c35 0 115 -21 89 -142c-61 37 -101 -2 -101 -43c0 -129 126 -147 225 -147c281 0 499 190 499 435c0 154 -136 266 -332 281c-27 -72 -52 -162 -69 -265
c96 1 196 1 196 -58c0 -21 -12 -46 -29 -61c-62 9 -100 10 -181 10c-10 -97 -12 -203 -3 -313c-78 -26 -151 35 -157 128c-4 58 0 121 10 186c-103 3 -151 15 -151 65c0 10 7 30 16 45c53 -1 82 -2 156 -2c22 96 53 188 83 261c-34 -5 -70 -12 -103 -17
c-78 -10 -109 13 -96 89c83 11 160 16 230 16h9c16 31 29 52 38 58c35 -7 76 -22 76 -64z" />
    <glyph glyph-name="E.salt" horiz-adv-x="760" 
d="M1514 859c98 -28 150 -74 150 -133c0 -142 -165 -174 -286 -174c-169 0 -375 49 -455 65c-62 12 -121 25 -171 31c2 -10 3 -20 3 -30c0 -97 -91 -180 -203 -180c-96 0 -163 50 -163 124c0 88 77 134 166 155c-22 9 -50 14 -81 14c-183 0 -271 -109 -269 -221
c1 -60 28 -144 107 -191c35 7 74 10 116 10c98 0 152 -20 157 -59c9 -44 -46 -79 -128 -79c-45 0 -115 12 -186 37c-46 -27 -76 -77 -75 -134c1 -91 92 -163 206 -163c146 0 249 81 295 127c37 -11 48 -30 42 -50c-4 -14 -89 -176 -381 -176c-183 0 -331 102 -333 230
c-1 75 48 157 146 210c-96 52 -176 131 -178 238c-3 168 201 302 455 302c113 0 200 -32 252 -79h1c96 0 396 -40 616 -40c132 0 182 42 197 166zM534 538c51 0 90 55 90 96c0 5 0 9 -1 14c-74 -7 -129 -26 -129 -76c0 -19 12 -34 40 -34z" />
    <glyph glyph-name="Eacute.salt" horiz-adv-x="760" 
d="M601 1039c0 -58 -111 -206 -191 -206c-26 0 -51 21 -61 30c81 93 93 159 102 189c19 13 48 22 77 22c41 0 73 -15 73 -35zM1514 859c98 -28 150 -74 150 -133c0 -142 -165 -174 -286 -174c-169 0 -375 49 -455 65c-62 12 -121 25 -171 31c2 -10 3 -20 3 -30
c0 -97 -91 -180 -203 -180c-96 0 -163 50 -163 124c0 88 77 134 166 155c-22 9 -50 14 -81 14c-183 0 -271 -109 -269 -221c1 -60 28 -144 107 -191c35 7 74 10 116 10c98 0 152 -20 157 -59c9 -44 -46 -79 -128 -79c-45 0 -115 12 -186 37c-46 -27 -76 -77 -75 -134
c1 -91 92 -163 206 -163c146 0 249 81 295 127c37 -11 48 -30 42 -50c-4 -14 -89 -176 -381 -176c-183 0 -331 102 -333 230c-1 75 48 157 146 210c-96 52 -176 131 -178 238c-3 168 201 302 455 302c113 0 200 -32 252 -79h1c96 0 396 -40 616 -40c132 0 182 42 197 166z
M534 538c51 0 90 55 90 96c0 5 0 9 -1 14c-74 -7 -129 -26 -129 -76c0 -19 12 -34 40 -34z" />
    <glyph glyph-name="Ecaron.salt" horiz-adv-x="760" 
d="M441 834c-43 0 -89 42 -213 186c18 35 37 51 64 51c51 0 120 -69 157 -120c55 79 101 120 141 120c27 0 46 -16 64 -51c-123 -144 -170 -186 -213 -186zM1514 859c98 -28 150 -74 150 -133c0 -142 -165 -174 -286 -174c-169 0 -375 49 -455 65c-62 12 -121 25 -171 31
c2 -10 3 -20 3 -30c0 -97 -91 -180 -203 -180c-96 0 -163 50 -163 124c0 88 77 134 166 155c-22 9 -50 14 -81 14c-183 0 -271 -109 -269 -221c1 -60 28 -144 107 -191c35 7 74 10 116 10c98 0 152 -20 157 -59c9 -44 -46 -79 -128 -79c-45 0 -115 12 -186 37
c-46 -27 -76 -77 -75 -134c1 -91 92 -163 206 -163c146 0 249 81 295 127c37 -11 48 -30 42 -50c-4 -14 -89 -176 -381 -176c-183 0 -331 102 -333 230c-1 75 48 157 146 210c-96 52 -176 131 -178 238c-3 168 201 302 455 302c113 0 200 -32 252 -79h1
c96 0 396 -40 616 -40c132 0 182 42 197 166zM534 538c51 0 90 55 90 96c0 5 0 9 -1 14c-74 -7 -129 -26 -129 -76c0 -19 12 -34 40 -34z" />
    <glyph glyph-name="Ecircumflex.salt" horiz-adv-x="760" 
d="M296 832c-27 0 -46 16 -64 51c124 144 170 186 213 186s90 -42 213 -186c-18 -35 -37 -51 -64 -51c-40 0 -97 48 -149 120c-48 -71 -106 -120 -149 -120zM1514 859c98 -28 150 -74 150 -133c0 -142 -165 -174 -286 -174c-169 0 -375 49 -455 65c-62 12 -121 25 -171 31
c2 -10 3 -20 3 -30c0 -97 -91 -180 -203 -180c-96 0 -163 50 -163 124c0 88 77 134 166 155c-22 9 -50 14 -81 14c-183 0 -271 -109 -269 -221c1 -60 28 -144 107 -191c35 7 74 10 116 10c98 0 152 -20 157 -59c9 -44 -46 -79 -128 -79c-45 0 -115 12 -186 37
c-46 -27 -76 -77 -75 -134c1 -91 92 -163 206 -163c146 0 249 81 295 127c37 -11 48 -30 42 -50c-4 -14 -89 -176 -381 -176c-183 0 -331 102 -333 230c-1 75 48 157 146 210c-96 52 -176 131 -178 238c-3 168 201 302 455 302c113 0 200 -32 252 -79h1
c96 0 396 -40 616 -40c132 0 182 42 197 166zM534 538c51 0 90 55 90 96c0 5 0 9 -1 14c-74 -7 -129 -26 -129 -76c0 -19 12 -34 40 -34z" />
    <glyph glyph-name="Edieresis.salt" horiz-adv-x="760" 
d="M340 853c-48 0 -80 29 -80 73c0 47 37 80 89 80c49 0 84 -31 84 -74c0 -46 -39 -79 -93 -79zM536 853c-48 0 -80 29 -80 73c0 47 37 80 89 80c49 0 84 -31 84 -74c0 -46 -39 -79 -93 -79zM1514 859c98 -28 150 -74 150 -133c0 -142 -165 -174 -286 -174
c-169 0 -375 49 -455 65c-62 12 -121 25 -171 31c2 -10 3 -20 3 -30c0 -97 -91 -180 -203 -180c-96 0 -163 50 -163 124c0 88 77 134 166 155c-22 9 -50 14 -81 14c-183 0 -271 -109 -269 -221c1 -60 28 -144 107 -191c35 7 74 10 116 10c98 0 152 -20 157 -59
c9 -44 -46 -79 -128 -79c-45 0 -115 12 -186 37c-46 -27 -76 -77 -75 -134c1 -91 92 -163 206 -163c146 0 249 81 295 127c37 -11 48 -30 42 -50c-4 -14 -89 -176 -381 -176c-183 0 -331 102 -333 230c-1 75 48 157 146 210c-96 52 -176 131 -178 238
c-3 168 201 302 455 302c113 0 200 -32 252 -79h1c96 0 396 -40 616 -40c132 0 182 42 197 166zM534 538c51 0 90 55 90 96c0 5 0 9 -1 14c-74 -7 -129 -26 -129 -76c0 -19 12 -34 40 -34z" />
    <glyph glyph-name="Edotaccent.salt" horiz-adv-x="760" 
d="M444 855c-45 0 -78 28 -78 67c0 43 35 74 83 74c45 0 77 -28 77 -68c0 -41 -36 -73 -82 -73zM1514 859c98 -28 150 -74 150 -133c0 -142 -165 -174 -286 -174c-169 0 -375 49 -455 65c-62 12 -121 25 -171 31c2 -10 3 -20 3 -30c0 -97 -91 -180 -203 -180
c-96 0 -163 50 -163 124c0 88 77 134 166 155c-22 9 -50 14 -81 14c-183 0 -271 -109 -269 -221c1 -60 28 -144 107 -191c35 7 74 10 116 10c98 0 152 -20 157 -59c9 -44 -46 -79 -128 -79c-45 0 -115 12 -186 37c-46 -27 -76 -77 -75 -134c1 -91 92 -163 206 -163
c146 0 249 81 295 127c37 -11 48 -30 42 -50c-4 -14 -89 -176 -381 -176c-183 0 -331 102 -333 230c-1 75 48 157 146 210c-96 52 -176 131 -178 238c-3 168 201 302 455 302c113 0 200 -32 252 -79h1c96 0 396 -40 616 -40c132 0 182 42 197 166zM534 538c51 0 90 55 90 96
c0 5 0 9 -1 14c-74 -7 -129 -26 -129 -76c0 -19 12 -34 40 -34z" />
    <glyph glyph-name="Egrave.salt" horiz-adv-x="760" 
d="M505 833c-80 0 -191 148 -191 206c0 20 32 35 73 35c29 0 58 -9 77 -22c9 -30 21 -96 102 -189c-10 -9 -35 -30 -61 -30zM1514 859c98 -28 150 -74 150 -133c0 -142 -165 -174 -286 -174c-169 0 -375 49 -455 65c-62 12 -121 25 -171 31c2 -10 3 -20 3 -30
c0 -97 -91 -180 -203 -180c-96 0 -163 50 -163 124c0 88 77 134 166 155c-22 9 -50 14 -81 14c-183 0 -271 -109 -269 -221c1 -60 28 -144 107 -191c35 7 74 10 116 10c98 0 152 -20 157 -59c9 -44 -46 -79 -128 -79c-45 0 -115 12 -186 37c-46 -27 -76 -77 -75 -134
c1 -91 92 -163 206 -163c146 0 249 81 295 127c37 -11 48 -30 42 -50c-4 -14 -89 -176 -381 -176c-183 0 -331 102 -333 230c-1 75 48 157 146 210c-96 52 -176 131 -178 238c-3 168 201 302 455 302c113 0 200 -32 252 -79h1c96 0 396 -40 616 -40c132 0 182 42 197 166z
M534 538c51 0 90 55 90 96c0 5 0 9 -1 14c-74 -7 -129 -26 -129 -76c0 -19 12 -34 40 -34z" />
    <glyph glyph-name="Emacron.salt" horiz-adv-x="760" 
d="M358 834c-88 0 -122 16 -122 61c0 13 5 28 13 39c41 -4 158 -3 207 -3c42 0 82 4 116 4c56 0 82 -13 82 -44c0 -20 -9 -44 -22 -59c-34 5 -57 7 -88 7c-23 0 -50 -1 -85 -2c-39 -2 -73 -3 -101 -3zM1514 859c98 -28 150 -74 150 -133c0 -142 -165 -174 -286 -174
c-169 0 -375 49 -455 65c-62 12 -121 25 -171 31c2 -10 3 -20 3 -30c0 -97 -91 -180 -203 -180c-96 0 -163 50 -163 124c0 88 77 134 166 155c-22 9 -50 14 -81 14c-183 0 -271 -109 -269 -221c1 -60 28 -144 107 -191c35 7 74 10 116 10c98 0 152 -20 157 -59
c9 -44 -46 -79 -128 -79c-45 0 -115 12 -186 37c-46 -27 -76 -77 -75 -134c1 -91 92 -163 206 -163c146 0 249 81 295 127c37 -11 48 -30 42 -50c-4 -14 -89 -176 -381 -176c-183 0 -331 102 -333 230c-1 75 48 157 146 210c-96 52 -176 131 -178 238
c-3 168 201 302 455 302c113 0 200 -32 252 -79h1c96 0 396 -40 616 -40c132 0 182 42 197 166zM534 538c51 0 90 55 90 96c0 5 0 9 -1 14c-74 -7 -129 -26 -129 -76c0 -19 12 -34 40 -34z" />
    <glyph glyph-name="Eogonek.salt" horiz-adv-x="760" 
d="M1514 859c98 -28 150 -74 150 -133c0 -142 -165 -174 -286 -174c-169 0 -375 49 -455 65c-62 12 -121 25 -171 31c2 -10 3 -20 3 -30c0 -97 -91 -180 -203 -180c-96 0 -163 50 -163 124c0 88 77 134 166 155c-22 9 -50 14 -81 14c-183 0 -271 -109 -269 -221
c1 -60 28 -144 107 -191c35 7 74 10 116 10c98 0 152 -20 157 -59c9 -44 -46 -79 -128 -79c-45 0 -115 12 -186 37c-46 -27 -76 -77 -75 -134c1 -91 92 -163 206 -163c146 0 249 81 295 127c37 -11 48 -30 42 -50c-3 -11 -57 -114 -222 -157c-38 -37 -59 -67 -59 -92
c0 -22 8 -33 22 -33s31 8 52 24c26 -8 39 -22 39 -42c0 -36 -52 -68 -107 -68c-74 0 -130 44 -130 106c0 37 17 65 40 86h-16c-183 0 -331 102 -333 230c-1 75 48 157 146 210c-96 52 -176 131 -178 238c-3 168 201 302 455 302c113 0 200 -32 252 -79h1
c96 0 396 -40 616 -40c132 0 182 42 197 166zM534 538c51 0 90 55 90 96c0 5 0 9 -1 14c-74 -7 -129 -26 -129 -76c0 -19 12 -34 40 -34z" />
    <glyph glyph-name="F.salt" horiz-adv-x="1688" 
d="M1869 917c31 -40 46 -69 46 -108c0 -59 -35 -95 -99 -102c-42 -4 -95 -7 -153 -9c-143 -6 -260 -19 -353 -37c4 -28 6 -57 6 -100c0 -45 -4 -94 -9 -144c11 3 20 6 30 8c61 15 127 22 180 22c72 0 113 -18 113 -52c0 -16 -22 -53 -46 -83c-39 10 -69 19 -107 19
c-59 0 -122 -13 -183 -33c-9 -82 -18 -165 -18 -241c0 -92 13 -160 39 -206c-30 -10 -71 -24 -106 -23c-66 5 -97 47 -97 129c0 55 20 164 40 278c-36 -19 -67 -39 -94 -59c-3 38 0 66 9 89c15 34 55 67 105 94c11 76 19 146 16 194c-1 32 -8 54 -14 71
c-24 -9 -44 -18 -62 -29c28 -29 43 -65 43 -106c0 -64 -48 -107 -120 -107c-58 0 -105 45 -105 103c0 30 6 56 17 80c-21 3 -43 4 -64 4c-237 0 -382 -251 -648 -251c-132 0 -232 77 -232 179c0 37 13 76 41 120c15 -49 133 -88 233 -88c159 0 400 144 601 144
c54 0 102 -8 142 -22c83 62 209 94 319 117c155 32 270 58 381 82c93 19 114 39 149 67zM1054 460c10 0 19 13 19 29c0 17 -9 31 -24 42c-7 -15 -10 -30 -10 -47c0 -5 2 -24 15 -24z" />
    <glyph glyph-name="G.salt" horiz-adv-x="1533" 
d="M1174 328c168 16 291 5 291 -128c0 -187 -231 -342 -470 -342c-270 0 -442 199 -442 428c0 13 1 26 2 39c-331 15 -539 124 -539 319c0 148 119 251 297 251c216 0 288 -152 288 -224c0 -62 -54 -106 -136 -106c-27 0 -65 5 -68 8c10 18 13 42 13 67
c0 90 -39 151 -113 151c-79 0 -115 -68 -115 -135c0 -159 205 -221 391 -238c69 216 300 349 521 349c181 0 254 -90 254 -166c0 -148 -272 -256 -608 -275c-2 -18 -3 -35 -3 -53c0 -160 92 -312 284 -312c178 0 316 131 316 221c0 41 -26 57 -114 36
c-57 -15 -102 -32 -146 -36c-60 -6 -98 15 -102 56c-2 27 10 57 33 90c59 -17 108 -6 166 0zM1092 677c-163 0 -283 -119 -331 -262c243 13 462 93 462 181c0 30 -25 81 -131 81z" />
    <glyph glyph-name="Gbreve.salt" horiz-adv-x="1533" 
d="M1075 835c-95 0 -176 76 -176 163c0 37 22 54 69 54c27 0 53 -9 64 -20c0 -69 20 -112 50 -112c35 0 51 36 51 112c10 11 36 20 65 20c46 0 68 -17 68 -54c0 -87 -89 -163 -191 -163zM1174 328c168 16 291 5 291 -128c0 -187 -231 -342 -470 -342
c-270 0 -442 199 -442 428c0 13 1 26 2 39c-331 15 -539 124 -539 319c0 148 119 251 297 251c216 0 288 -152 288 -224c0 -62 -54 -106 -136 -106c-27 0 -65 5 -68 8c10 18 13 42 13 67c0 90 -39 151 -113 151c-79 0 -115 -68 -115 -135c0 -159 205 -221 391 -238
c69 216 300 349 521 349c181 0 254 -90 254 -166c0 -148 -272 -256 -608 -275c-2 -18 -3 -35 -3 -53c0 -160 92 -312 284 -312c178 0 316 131 316 221c0 41 -26 57 -114 36c-57 -15 -102 -32 -146 -36c-60 -6 -98 15 -102 56c-2 27 10 57 33 90c59 -17 108 -6 166 0z
M1092 677c-163 0 -283 -119 -331 -262c243 13 462 93 462 181c0 30 -25 81 -131 81z" />
    <glyph glyph-name="Gcommaaccent.salt" horiz-adv-x="1533" 
d="M1174 328c168 16 291 5 291 -128c0 -187 -231 -342 -470 -342c-270 0 -442 199 -442 428c0 13 1 26 2 39c-331 15 -539 124 -539 319c0 148 119 251 297 251c216 0 288 -152 288 -224c0 -62 -54 -106 -136 -106c-27 0 -65 5 -68 8c10 18 13 42 13 67
c0 90 -39 151 -113 151c-79 0 -115 -68 -115 -135c0 -159 205 -221 391 -238c69 216 300 349 521 349c181 0 254 -90 254 -166c0 -148 -272 -256 -608 -275c-2 -18 -3 -35 -3 -53c0 -160 92 -312 284 -312c178 0 316 131 316 221c0 41 -26 57 -114 36
c-57 -15 -102 -32 -146 -36c-60 -6 -98 15 -102 56c-2 27 10 57 33 90c59 -17 108 -6 166 0zM1092 677c-163 0 -283 -119 -331 -262c243 13 462 93 462 181c0 30 -25 81 -131 81zM1055 -155c44 0 75 -36 75 -89c0 -59 -68 -148 -116 -148c-19 0 -35 13 -41 33
c23 25 40 41 46 70c-28 14 -43 37 -43 65c0 42 32 69 79 69z" />
    <glyph glyph-name="Gdotaccent.salt" horiz-adv-x="1533" 
d="M1077 847c-45 0 -78 28 -78 67c0 43 35 74 83 74c45 0 77 -28 77 -68c0 -41 -36 -73 -82 -73zM1174 328c168 16 291 5 291 -128c0 -187 -231 -342 -470 -342c-270 0 -442 199 -442 428c0 13 1 26 2 39c-331 15 -539 124 -539 319c0 148 119 251 297 251
c216 0 288 -152 288 -224c0 -62 -54 -106 -136 -106c-27 0 -65 5 -68 8c10 18 13 42 13 67c0 90 -39 151 -113 151c-79 0 -115 -68 -115 -135c0 -159 205 -221 391 -238c69 216 300 349 521 349c181 0 254 -90 254 -166c0 -148 -272 -256 -608 -275c-2 -18 -3 -35 -3 -53
c0 -160 92 -312 284 -312c178 0 316 131 316 221c0 41 -26 57 -114 36c-57 -15 -102 -32 -146 -36c-60 -6 -98 15 -102 56c-2 27 10 57 33 90c59 -17 108 -6 166 0zM1092 677c-163 0 -283 -119 -331 -262c243 13 462 93 462 181c0 30 -25 81 -131 81z" />
    <glyph glyph-name="H.salt" horiz-adv-x="1434" 
d="M1398 707c0 -139 -51 -362 -51 -568c0 -102 12 -176 39 -227c-35 -10 -92 -18 -121 -15c-139 10 -91 208 -69 336l6 39c-34 8 -94 21 -152 25c-73 5 -135 1 -187 -7l-20 -147c-11 -83 -16 -161 -16 -239c0 -35 3 -74 9 -91c-72 6 -176 26 -176 142c0 79 23 169 43 282
c-43 -23 -65 -45 -69 -47c-37 -7 -57 22 -57 47c0 36 61 77 144 112c13 85 20 156 20 208c0 79 -21 141 -88 141c-160 0 -422 -213 -422 -429c0 -108 82 -206 180 -212c-2 -81 -64 -144 -156 -144c-149 0 -236 170 -236 280c0 346 402 613 701 613c99 0 177 -60 177 -190
c0 -47 -8 -130 -19 -216c62 16 124 25 174 25c79 0 154 -13 164 -27l4 -3c7 51 15 108 22 176c4 37 8 64 8 88c0 38 -10 73 -38 132c18 33 57 55 98 55c61 0 88 -44 88 -139z" />
    <glyph glyph-name="Hbar.salt" horiz-adv-x="1434" 
d="M1391 601c34 -11 55 -25 55 -47c0 -21 -17 -45 -43 -59c-8 1 -16 3 -24 4c-14 -112 -32 -239 -32 -360c0 -102 12 -176 39 -227c-35 -10 -92 -18 -121 -15c-139 10 -91 208 -69 336l6 39c-34 8 -94 21 -152 25c-73 5 -135 1 -187 -7l-20 -147c-11 -83 -16 -161 -16 -239
c0 -35 3 -74 9 -91c-72 6 -176 26 -176 142c0 79 23 169 43 282c-43 -23 -65 -45 -69 -47c-37 -7 -57 22 -57 47c0 36 61 77 144 112c10 66 17 124 19 171c-60 4 -87 17 -87 49c0 9 9 25 25 43c21 -1 40 -2 59 -2c-9 52 -33 88 -84 88c-160 0 -422 -213 -422 -429
c0 -108 82 -206 180 -212c-2 -81 -64 -144 -156 -144c-149 0 -236 170 -236 280c0 346 402 613 701 613c98 0 176 -59 177 -187c45 3 102 5 177 5c57 0 118 0 174 -3c1 14 2 26 2 38c0 38 -10 73 -38 132c18 33 57 55 98 55c61 0 88 -44 88 -139c0 -31 -3 -67 -7 -106z
M1220 395c5 36 10 75 15 119c-68 4 -136 6 -183 6c-61 0 -115 -1 -161 -1c-3 -37 -8 -77 -13 -119c62 16 124 25 174 25c79 0 154 -13 164 -27z" />
    <glyph glyph-name="I.salt" horiz-adv-x="1688" 
d="M1764 799c8 -30 6 -57 -6 -89c-9 -25 -44 -74 -131 -74c-85 0 -140 5 -203 8c0 -5 -1 -11 -2 -18c-8 -48 -30 -256 -32 -339c-4 -147 3 -256 22 -336c24 -1 47 -2 70 -1c94 5 113 10 133 33c64 -21 103 -136 -61 -146c-85 -6 -219 9 -294 8c-102 0 -153 -11 -217 -27
c-76 59 -44 145 55 147c58 1 110 -1 157 -4c-3 10 -5 20 -7 32c-11 67 -5 346 15 502c8 67 17 130 17 160c-27 2 -56 4 -82 4c-29 0 -54 -2 -75 -5c13 -23 21 -47 21 -74c0 -71 -45 -118 -112 -118c-65 0 -110 41 -110 100c0 38 13 71 35 98c-48 18 -102 28 -139 28
c-175 0 -335 -129 -528 -129c-150 0 -278 89 -278 197c0 50 18 86 69 143c15 -79 189 -141 295 -141c122 0 276 35 416 35c89 0 185 -24 254 -66c67 32 152 48 229 51c33 2 80 2 117 2c91 0 215 -5 244 -5c73 0 82 7 128 24zM1042 537c10 0 19 15 19 33c0 15 -8 29 -20 42
c-10 -14 -15 -31 -15 -51c0 -11 5 -24 16 -24z" />
    <glyph glyph-name="Iacute.salt" horiz-adv-x="1688" 
d="M1552 1031c0 -58 -111 -206 -191 -206c-26 0 -51 21 -61 30c81 93 93 159 102 189c19 13 48 22 77 22c41 0 73 -15 73 -35zM1764 799c8 -30 6 -57 -6 -89c-9 -25 -44 -74 -131 -74c-85 0 -140 5 -203 8c0 -5 -1 -11 -2 -18c-8 -48 -30 -256 -32 -339
c-4 -147 3 -256 22 -336c24 -1 47 -2 70 -1c94 5 113 10 133 33c64 -21 103 -136 -61 -146c-85 -6 -219 9 -294 8c-102 0 -153 -11 -217 -27c-76 59 -44 145 55 147c58 1 110 -1 157 -4c-3 10 -5 20 -7 32c-11 67 -5 346 15 502c8 67 17 130 17 160c-27 2 -56 4 -82 4
c-29 0 -54 -2 -75 -5c13 -23 21 -47 21 -74c0 -71 -45 -118 -112 -118c-65 0 -110 41 -110 100c0 38 13 71 35 98c-48 18 -102 28 -139 28c-175 0 -335 -129 -528 -129c-150 0 -278 89 -278 197c0 50 18 86 69 143c15 -79 189 -141 295 -141c122 0 276 35 416 35
c89 0 185 -24 254 -66c67 32 152 48 229 51c33 2 80 2 117 2c91 0 215 -5 244 -5c73 0 82 7 128 24zM1042 537c10 0 19 15 19 33c0 15 -8 29 -20 42c-10 -14 -15 -31 -15 -51c0 -11 5 -24 16 -24z" />
    <glyph glyph-name="Icircumflex.salt" horiz-adv-x="1688" 
d="M1247 824c-27 0 -46 16 -64 51c124 144 170 186 213 186s90 -42 213 -186c-18 -35 -37 -51 -64 -51c-40 0 -97 48 -149 120c-48 -71 -106 -120 -149 -120zM1764 799c8 -30 6 -57 -6 -89c-9 -25 -44 -74 -131 -74c-85 0 -140 5 -203 8c0 -5 -1 -11 -2 -18
c-8 -48 -30 -256 -32 -339c-4 -147 3 -256 22 -336c24 -1 47 -2 70 -1c94 5 113 10 133 33c64 -21 103 -136 -61 -146c-85 -6 -219 9 -294 8c-102 0 -153 -11 -217 -27c-76 59 -44 145 55 147c58 1 110 -1 157 -4c-3 10 -5 20 -7 32c-11 67 -5 346 15 502
c8 67 17 130 17 160c-27 2 -56 4 -82 4c-29 0 -54 -2 -75 -5c13 -23 21 -47 21 -74c0 -71 -45 -118 -112 -118c-65 0 -110 41 -110 100c0 38 13 71 35 98c-48 18 -102 28 -139 28c-175 0 -335 -129 -528 -129c-150 0 -278 89 -278 197c0 50 18 86 69 143
c15 -79 189 -141 295 -141c122 0 276 35 416 35c89 0 185 -24 254 -66c67 32 152 48 229 51c33 2 80 2 117 2c91 0 215 -5 244 -5c73 0 82 7 128 24zM1042 537c10 0 19 15 19 33c0 15 -8 29 -20 42c-10 -14 -15 -31 -15 -51c0 -11 5 -24 16 -24z" />
    <glyph glyph-name="Idieresis.salt" horiz-adv-x="1688" 
d="M1291 845c-48 0 -80 29 -80 73c0 47 37 80 89 80c49 0 84 -31 84 -74c0 -46 -39 -79 -93 -79zM1487 845c-48 0 -80 29 -80 73c0 47 37 80 89 80c49 0 84 -31 84 -74c0 -46 -39 -79 -93 -79zM1764 799c8 -30 6 -57 -6 -89c-9 -25 -44 -74 -131 -74c-85 0 -140 5 -203 8
c0 -5 -1 -11 -2 -18c-8 -48 -30 -256 -32 -339c-4 -147 3 -256 22 -336c24 -1 47 -2 70 -1c94 5 113 10 133 33c64 -21 103 -136 -61 -146c-85 -6 -219 9 -294 8c-102 0 -153 -11 -217 -27c-76 59 -44 145 55 147c58 1 110 -1 157 -4c-3 10 -5 20 -7 32
c-11 67 -5 346 15 502c8 67 17 130 17 160c-27 2 -56 4 -82 4c-29 0 -54 -2 -75 -5c13 -23 21 -47 21 -74c0 -71 -45 -118 -112 -118c-65 0 -110 41 -110 100c0 38 13 71 35 98c-48 18 -102 28 -139 28c-175 0 -335 -129 -528 -129c-150 0 -278 89 -278 197
c0 50 18 86 69 143c15 -79 189 -141 295 -141c122 0 276 35 416 35c89 0 185 -24 254 -66c67 32 152 48 229 51c33 2 80 2 117 2c91 0 215 -5 244 -5c73 0 82 7 128 24zM1042 537c10 0 19 15 19 33c0 15 -8 29 -20 42c-10 -14 -15 -31 -15 -51c0 -11 5 -24 16 -24z" />
    <glyph glyph-name="Idotaccent.salt" horiz-adv-x="1688" 
d="M1395 847c-45 0 -78 28 -78 67c0 43 35 74 83 74c45 0 77 -28 77 -68c0 -41 -36 -73 -82 -73zM1764 799c8 -30 6 -57 -6 -89c-9 -25 -44 -74 -131 -74c-85 0 -140 5 -203 8c0 -5 -1 -11 -2 -18c-8 -48 -30 -256 -32 -339c-4 -147 3 -256 22 -336c24 -1 47 -2 70 -1
c94 5 113 10 133 33c64 -21 103 -136 -61 -146c-85 -6 -219 9 -294 8c-102 0 -153 -11 -217 -27c-76 59 -44 145 55 147c58 1 110 -1 157 -4c-3 10 -5 20 -7 32c-11 67 -5 346 15 502c8 67 17 130 17 160c-27 2 -56 4 -82 4c-29 0 -54 -2 -75 -5c13 -23 21 -47 21 -74
c0 -71 -45 -118 -112 -118c-65 0 -110 41 -110 100c0 38 13 71 35 98c-48 18 -102 28 -139 28c-175 0 -335 -129 -528 -129c-150 0 -278 89 -278 197c0 50 18 86 69 143c15 -79 189 -141 295 -141c122 0 276 35 416 35c89 0 185 -24 254 -66c67 32 152 48 229 51
c33 2 80 2 117 2c91 0 215 -5 244 -5c73 0 82 7 128 24zM1042 537c10 0 19 15 19 33c0 15 -8 29 -20 42c-10 -14 -15 -31 -15 -51c0 -11 5 -24 16 -24z" />
    <glyph glyph-name="Igrave.salt" horiz-adv-x="1688" 
d="M1456 825c-80 0 -191 148 -191 206c0 20 32 35 73 35c29 0 58 -9 77 -22c9 -30 21 -96 102 -189c-10 -9 -35 -30 -61 -30zM1764 799c8 -30 6 -57 -6 -89c-9 -25 -44 -74 -131 -74c-85 0 -140 5 -203 8c0 -5 -1 -11 -2 -18c-8 -48 -30 -256 -32 -339
c-4 -147 3 -256 22 -336c24 -1 47 -2 70 -1c94 5 113 10 133 33c64 -21 103 -136 -61 -146c-85 -6 -219 9 -294 8c-102 0 -153 -11 -217 -27c-76 59 -44 145 55 147c58 1 110 -1 157 -4c-3 10 -5 20 -7 32c-11 67 -5 346 15 502c8 67 17 130 17 160c-27 2 -56 4 -82 4
c-29 0 -54 -2 -75 -5c13 -23 21 -47 21 -74c0 -71 -45 -118 -112 -118c-65 0 -110 41 -110 100c0 38 13 71 35 98c-48 18 -102 28 -139 28c-175 0 -335 -129 -528 -129c-150 0 -278 89 -278 197c0 50 18 86 69 143c15 -79 189 -141 295 -141c122 0 276 35 416 35
c89 0 185 -24 254 -66c67 32 152 48 229 51c33 2 80 2 117 2c91 0 215 -5 244 -5c73 0 82 7 128 24zM1042 537c10 0 19 15 19 33c0 15 -8 29 -20 42c-10 -14 -15 -31 -15 -51c0 -11 5 -24 16 -24z" />
    <glyph glyph-name="Imacron.salt" horiz-adv-x="1688" 
d="M1309 826c-88 0 -122 16 -122 61c0 13 5 28 13 39c41 -4 158 -3 207 -3c42 0 82 4 116 4c56 0 82 -13 82 -44c0 -20 -9 -44 -22 -59c-34 5 -57 7 -88 7c-23 0 -50 -1 -85 -2c-39 -2 -73 -3 -101 -3zM1764 799c8 -30 6 -57 -6 -89c-9 -25 -44 -74 -131 -74
c-85 0 -140 5 -203 8c0 -5 -1 -11 -2 -18c-8 -48 -30 -256 -32 -339c-4 -147 3 -256 22 -336c24 -1 47 -2 70 -1c94 5 113 10 133 33c64 -21 103 -136 -61 -146c-85 -6 -219 9 -294 8c-102 0 -153 -11 -217 -27c-76 59 -44 145 55 147c58 1 110 -1 157 -4c-3 10 -5 20 -7 32
c-11 67 -5 346 15 502c8 67 17 130 17 160c-27 2 -56 4 -82 4c-29 0 -54 -2 -75 -5c13 -23 21 -47 21 -74c0 -71 -45 -118 -112 -118c-65 0 -110 41 -110 100c0 38 13 71 35 98c-48 18 -102 28 -139 28c-175 0 -335 -129 -528 -129c-150 0 -278 89 -278 197
c0 50 18 86 69 143c15 -79 189 -141 295 -141c122 0 276 35 416 35c89 0 185 -24 254 -66c67 32 152 48 229 51c33 2 80 2 117 2c91 0 215 -5 244 -5c73 0 82 7 128 24zM1042 537c10 0 19 15 19 33c0 15 -8 29 -20 42c-10 -14 -15 -31 -15 -51c0 -11 5 -24 16 -24z" />
    <glyph glyph-name="Iogonek.salt" horiz-adv-x="1688" 
d="M1764 799c8 -30 6 -57 -6 -89c-9 -25 -44 -74 -131 -74c-85 0 -140 5 -203 8c0 -5 -1 -11 -2 -18c-8 -48 -30 -256 -32 -339c-4 -147 3 -256 22 -336c24 -1 47 -2 70 -1c94 5 113 10 133 33c64 -21 103 -136 -61 -146c-48 -3 -111 0 -170 3c-23 -26 -36 -48 -36 -67
c0 -22 8 -33 22 -33s31 8 52 24c26 -8 39 -22 39 -42c0 -36 -52 -68 -107 -68c-74 0 -130 44 -130 106c0 36 17 64 39 85h-3c-102 0 -153 -11 -217 -27c-76 59 -44 145 55 147c58 1 110 -1 157 -4c-3 10 -5 20 -7 32c-11 67 -5 346 15 502c8 67 17 130 17 160
c-27 2 -56 4 -82 4c-29 0 -54 -2 -75 -5c13 -23 21 -47 21 -74c0 -71 -45 -118 -112 -118c-65 0 -110 41 -110 100c0 38 13 71 35 98c-48 18 -102 28 -139 28c-175 0 -335 -129 -528 -129c-150 0 -278 89 -278 197c0 50 18 86 69 143c15 -79 189 -141 295 -141
c122 0 276 35 416 35c89 0 185 -24 254 -66c67 32 152 48 229 51c33 2 80 2 117 2c91 0 215 -5 244 -5c73 0 82 7 128 24zM1042 537c10 0 19 15 19 33c0 15 -8 29 -20 42c-10 -14 -15 -31 -15 -51c0 -11 5 -24 16 -24z" />
    <glyph glyph-name="J.salt" horiz-adv-x="1722" 
d="M1712 745c-3 -16 -21 -49 -65 -76c-15 -31 -19 -68 -19 -124c0 -111 16 -280 16 -352c0 -269 -226 -386 -408 -386c-169 0 -341 100 -341 215c0 49 31 91 96 103c45 -102 160 -189 281 -189c123 0 236 89 236 296c0 80 -17 227 -17 311c0 31 2 60 7 86h-19
c-90 0 -202 24 -277 24c-31 0 -59 -4 -82 -11c19 -26 29 -56 29 -88c0 -67 -45 -115 -114 -115c-54 0 -108 30 -108 107c0 34 10 66 29 94c-47 16 -101 25 -142 25c-155 0 -332 -129 -518 -129c-151 0 -279 86 -279 200c0 50 24 90 69 140c16 -77 177 -141 305 -141
c95 0 281 35 398 35c90 0 180 -20 248 -58c50 28 114 45 187 45c105 0 164 -34 260 -34c17 0 33 1 47 4c24 40 57 63 96 63c38 0 78 -22 85 -45zM1046 514c12 0 20 16 20 32s-8 31 -21 44c-9 -14 -14 -30 -14 -47c0 -18 5 -29 15 -29z" />
    <glyph glyph-name="K.salt" horiz-adv-x="1689" 
d="M1294 407c52 -180 213 -350 382 -396c-26 -70 -69 -108 -125 -109c-67 -2 -287 168 -365 421c-42 -41 -70 -86 -79 -147c0 -152 20 -225 34 -264c-17 -4 -56 -11 -85 -11c-83 0 -108 22 -108 250c0 215 42 431 43 554v5c-282 -89 -500 -54 -671 -136
c-81 -40 -138 -143 -138 -251c0 -120 98 -231 205 -231c90 0 153 70 153 172c0 43 -12 90 -32 127c30 16 65 25 93 25c81 0 139 -62 139 -149c0 -147 -125 -289 -352 -289c-210 0 -365 150 -365 357c0 144 86 278 226 348c219 111 479 67 727 152c107 25 164 -44 164 -124
c0 -68 -12 -190 -22 -313c33 35 74 72 121 104c120 80 242 204 288 292c67 -11 117 -54 117 -102c0 -24 -24 -64 -60 -99c-38 -36 -124 -72 -240 -152c-17 -12 -34 -23 -50 -34z" />
    <glyph glyph-name="Kcommaaccent.salt" horiz-adv-x="1689" 
d="M1294 407c52 -180 213 -350 382 -396c-26 -70 -69 -108 -125 -109c-67 -2 -287 168 -365 421c-42 -41 -70 -86 -79 -147c0 -152 20 -225 34 -264c-17 -4 -56 -11 -85 -11c-83 0 -108 22 -108 250c0 215 42 431 43 554v5c-282 -89 -500 -54 -671 -136
c-81 -40 -138 -143 -138 -251c0 -120 98 -231 205 -231c90 0 153 70 153 172c0 43 -12 90 -32 127c30 16 65 25 93 25c81 0 139 -62 139 -149c0 -147 -125 -289 -352 -289c-210 0 -365 150 -365 357c0 144 86 278 226 348c219 111 479 67 727 152c107 25 164 -44 164 -124
c0 -68 -12 -190 -22 -313c33 35 74 72 121 104c120 80 242 204 288 292c67 -11 117 -54 117 -102c0 -24 -24 -64 -60 -99c-38 -36 -124 -72 -240 -152c-17 -12 -34 -23 -50 -34zM1283 -113c44 0 75 -36 75 -89c0 -59 -68 -148 -116 -148c-19 0 -35 13 -41 33
c23 25 40 41 46 70c-28 14 -43 37 -43 65c0 42 32 69 79 69z" />
    <glyph glyph-name="L.salt" horiz-adv-x="1274" 
d="M1237 -77c35 -36 55 -72 55 -103c0 -60 -66 -96 -172 -96c-158 0 -336 100 -468 126c-30 -37 -66 -55 -113 -55c-73 0 -114 42 -109 114c39 9 80 15 125 17c37 72 58 154 74 239c-46 -10 -93 -15 -137 -15c-228 0 -479 136 -479 392c0 126 90 226 203 226
c46 0 96 -20 129 -52c-79 -44 -133 -127 -133 -202c0 -128 91 -258 305 -258c40 0 85 6 130 19c37 264 49 518 284 518c84 0 146 -78 146 -188c2 -184 -140 -323 -310 -396c-20 -112 -45 -218 -85 -287c86 -12 189 -40 330 -40c80 0 149 14 225 41zM915 712
c-72 0 -97 -180 -127 -377c104 64 186 164 186 299c0 43 -19 78 -59 78z" />
    <glyph glyph-name="Lacute.salt" horiz-adv-x="1274" 
d="M1091 1010c0 -58 -111 -206 -191 -206c-26 0 -51 21 -61 30c81 93 93 159 102 189c19 13 48 22 77 22c41 0 73 -15 73 -35zM1237 -77c35 -36 55 -72 55 -103c0 -60 -66 -96 -172 -96c-158 0 -336 100 -468 126c-30 -37 -66 -55 -113 -55c-73 0 -114 42 -109 114
c39 9 80 15 125 17c37 72 58 154 74 239c-46 -10 -93 -15 -137 -15c-228 0 -479 136 -479 392c0 126 90 226 203 226c46 0 96 -20 129 -52c-79 -44 -133 -127 -133 -202c0 -128 91 -258 305 -258c40 0 85 6 130 19c37 264 49 518 284 518c84 0 146 -78 146 -188
c2 -184 -140 -323 -310 -396c-20 -112 -45 -218 -85 -287c86 -12 189 -40 330 -40c80 0 149 14 225 41zM915 712c-72 0 -97 -180 -127 -377c104 64 186 164 186 299c0 43 -19 78 -59 78z" />
    <glyph glyph-name="Lcaron.salt" horiz-adv-x="1274" 
d="M1160 559c-22 0 -43 12 -55 31c53 74 60 149 63 187c34 20 132 25 132 -31c0 -81 -77 -187 -140 -187zM1012 -118c80 0 149 14 225 41c35 -36 55 -72 55 -103c0 -60 -66 -96 -172 -96c-158 0 -336 100 -468 126c-30 -37 -66 -55 -113 -55c-73 0 -114 42 -109 114
c39 9 80 15 125 17c37 72 58 154 74 239c-46 -10 -93 -15 -137 -15c-228 0 -479 136 -479 392c0 126 90 226 203 226c46 0 96 -20 129 -52c-79 -44 -133 -127 -133 -202c0 -128 91 -258 305 -258c40 0 85 6 130 19c37 264 49 518 284 518c84 0 146 -78 146 -188
c2 -184 -140 -323 -310 -396c-20 -112 -45 -218 -85 -287c86 -12 189 -40 330 -40zM915 712c-72 0 -97 -180 -127 -377c104 64 186 164 186 299c0 43 -19 78 -59 78z" />
    <glyph glyph-name="Lcommaaccent.salt" horiz-adv-x="1274" 
d="M1237 -77c35 -36 55 -72 55 -103c0 -60 -66 -96 -172 -96c-158 0 -336 100 -468 126c-30 -37 -66 -55 -113 -55c-73 0 -114 42 -109 114c39 9 80 15 125 17c37 72 58 154 74 239c-46 -10 -93 -15 -137 -15c-228 0 -479 136 -479 392c0 126 90 226 203 226
c46 0 96 -20 129 -52c-79 -44 -133 -127 -133 -202c0 -128 91 -258 305 -258c40 0 85 6 130 19c37 264 49 518 284 518c84 0 146 -78 146 -188c2 -184 -140 -323 -310 -396c-20 -112 -45 -218 -85 -287c86 -12 189 -40 330 -40c80 0 149 14 225 41zM915 712
c-72 0 -97 -180 -127 -377c104 64 186 164 186 299c0 43 -19 78 -59 78zM859 -236c44 0 75 -36 75 -89c0 -59 -68 -148 -116 -148c-19 0 -35 13 -41 33c23 25 40 41 46 70c-28 14 -43 37 -43 65c0 42 32 69 79 69z" />
    <glyph glyph-name="Lslash.salt" horiz-adv-x="820" 
d="M779 -77c35 -36 55 -72 55 -103c0 -60 -66 -96 -172 -96c-158 0 -336 100 -468 126c-30 -37 -66 -55 -113 -55c-73 0 -114 42 -109 114c39 9 80 15 125 17c24 46 41 97 55 149c-51 -3 -85 -6 -118 -19c-26 16 -43 43 -47 54c-13 58 89 67 187 74l9 51
c-41 -5 -82 -7 -122 -7c-228 0 -479 136 -479 392c0 126 90 226 203 226c46 0 96 -20 129 -52c-79 -44 -133 -127 -133 -202c0 -128 91 -258 305 -258c35 0 73 2 112 7c31 239 60 452 275 452c84 0 146 -78 146 -188c2 -188 -134 -293 -301 -342c-4 -23 -7 -46 -11 -68
c84 10 118 22 161 37c12 -14 18 -21 22 -29c15 -33 5 -57 -34 -79c-31 -17 -86 -30 -173 -39c-15 -63 -34 -120 -59 -163c86 -12 189 -40 330 -40c80 0 149 14 225 41zM457 712c-67 0 -93 -156 -121 -336c101 41 180 119 180 258c0 43 -19 78 -59 78z" />
    <glyph glyph-name="M.salt" horiz-adv-x="1734" 
d="M1633 222c0 -292 40 -296 69 -356c-28 -35 -77 -52 -116 -52c-76 0 -108 64 -108 190c0 129 34 331 34 419v60c-24 0 -169 -495 -222 -544c-18 -24 -48 -47 -87 -47c-83 0 -138 100 -138 242c0 98 26 293 26 472c0 35 -1 42 -12 42c-68 0 -169 -281 -230 -434
c-64 -160 -168 -373 -440 -373c-239 0 -396 164 -396 367c0 176 119 271 220 271c47 0 102 -21 132 -53c-87 -59 -140 -147 -140 -250c0 -102 51 -223 196 -223c144 0 207 120 286 313c57 140 209 509 378 509c158 0 128 -320 140 -586c2 -44 3 -79 8 -108
c200 514 235 578 301 578c72 0 105 -75 105 -183c0 -46 -6 -141 -6 -254z" />
    <glyph glyph-name="N.salt" horiz-adv-x="1354" 
d="M1281 776c57 0 94 -49 94 -118c-57 -44 -91 -20 -109 -206c-22 -229 38 -559 -171 -587c-190 -27 -346 432 -405 640c-7 -332 1 -789 -426 -789c-171 0 -264 112 -264 208c0 60 36 114 112 131c39 -104 100 -158 176 -158c249 0 277 502 277 702c0 53 -5 92 -12 137
c69 22 137 22 171 -9c24 -23 37 -55 48 -110c14 -77 123 -365 193 -478c52 -85 101 -132 116 -132c16 0 35 108 37 284c3 266 14 485 163 485z" />
    <glyph glyph-name="Nacute.salt" horiz-adv-x="1354" 
d="M1099 993c0 -58 -111 -206 -191 -206c-26 0 -51 21 -61 30c81 93 93 159 102 189c19 13 48 22 77 22c41 0 73 -15 73 -35zM1281 776c57 0 94 -49 94 -118c-57 -44 -91 -20 -109 -206c-22 -229 38 -559 -171 -587c-190 -27 -346 432 -405 640c-7 -332 1 -789 -426 -789
c-171 0 -264 112 -264 208c0 60 36 114 112 131c39 -104 100 -158 176 -158c249 0 277 502 277 702c0 53 -5 92 -12 137c69 22 137 22 171 -9c24 -23 37 -55 48 -110c14 -77 123 -365 193 -478c52 -85 101 -132 116 -132c16 0 35 108 37 284c3 266 14 485 163 485z" />
    <glyph glyph-name="Ncaron.salt" horiz-adv-x="1354" 
d="M939 788c-43 0 -89 42 -213 186c18 35 37 51 64 51c51 0 120 -69 157 -120c55 79 101 120 141 120c27 0 46 -16 64 -51c-123 -144 -170 -186 -213 -186zM1281 776c57 0 94 -49 94 -118c-57 -44 -91 -20 -109 -206c-22 -229 38 -559 -171 -587c-190 -27 -346 432 -405 640
c-7 -332 1 -789 -426 -789c-171 0 -264 112 -264 208c0 60 36 114 112 131c39 -104 100 -158 176 -158c249 0 277 502 277 702c0 53 -5 92 -12 137c69 22 137 22 171 -9c24 -23 37 -55 48 -110c14 -77 123 -365 193 -478c52 -85 101 -132 116 -132c16 0 35 108 37 284
c3 266 14 485 163 485z" />
    <glyph glyph-name="Ncommaaccent.salt" horiz-adv-x="1354" 
d="M1281 776c57 0 94 -49 94 -118c-57 -44 -91 -20 -109 -206c-22 -229 38 -559 -171 -587c-190 -27 -346 432 -405 640c-7 -332 1 -789 -426 -789c-171 0 -264 112 -264 208c0 60 36 114 112 131c39 -104 100 -158 176 -158c249 0 277 502 277 702c0 53 -5 92 -12 137
c69 22 137 22 171 -9c24 -23 37 -55 48 -110c14 -77 123 -365 193 -478c52 -85 101 -132 116 -132c16 0 35 108 37 284c3 266 14 485 163 485zM882 -177c44 0 75 -36 75 -89c0 -59 -68 -148 -116 -148c-19 0 -35 13 -41 33c23 25 40 41 46 70c-28 14 -43 37 -43 65
c0 42 32 69 79 69z" />
    <glyph glyph-name="Ntilde.salt" horiz-adv-x="1354" 
d="M820 813c-49 -3 -81 17 -81 50c0 50 63 102 124 102c73 0 126 -58 155 -58c19 0 37 33 48 52c49 2 81 -15 81 -44c0 -41 -54 -108 -124 -108s-126 58 -156 58c-15 0 -36 -22 -47 -52zM1281 776c57 0 94 -49 94 -118c-57 -44 -91 -20 -109 -206
c-22 -229 38 -559 -171 -587c-190 -27 -346 432 -405 640c-7 -332 1 -789 -426 -789c-171 0 -264 112 -264 208c0 60 36 114 112 131c39 -104 100 -158 176 -158c249 0 277 502 277 702c0 53 -5 92 -12 137c69 22 137 22 171 -9c24 -23 37 -55 48 -110
c14 -77 123 -365 193 -478c52 -85 101 -132 116 -132c16 0 35 108 37 284c3 266 14 485 163 485z" />
    <glyph glyph-name="O.salt" horiz-adv-x="1653" 
d="M1261 780c263 0 329 -273 329 -428c0 -339 -205 -508 -419 -508c-245 0 -399 179 -399 466c0 40 4 89 13 137c-219 -150 -609 -154 -609 -485c0 -134 85 -230 206 -230c88 0 169 79 169 168c0 90 -25 117 -64 156c35 33 78 52 118 52c85 0 143 -73 143 -176
c0 -143 -146 -299 -373 -299c-204 0 -351 140 -351 330c0 452 578 428 830 673c26 38 59 62 100 62c31 0 60 -17 73 -42c-60 -60 -97 -183 -97 -320c0 -244 93 -403 232 -403c156 0 265 169 265 417c0 208 -69 345 -174 345c-76 0 -133 -76 -133 -173
c0 -94 54 -159 134 -157c-6 -72 -50 -119 -110 -119c-93 0 -153 83 -153 209c0 147 88 325 270 325z" />
    <glyph glyph-name="Oacute.salt" horiz-adv-x="1653" 
d="M1334 1031c0 -58 -111 -206 -191 -206c-26 0 -51 21 -61 30c81 93 93 159 102 189c19 13 48 22 77 22c41 0 73 -15 73 -35zM1261 780c263 0 329 -273 329 -428c0 -339 -205 -508 -419 -508c-245 0 -399 179 -399 466c0 40 4 89 13 137c-219 -150 -609 -154 -609 -485
c0 -134 85 -230 206 -230c88 0 169 79 169 168c0 90 -25 117 -64 156c35 33 78 52 118 52c85 0 143 -73 143 -176c0 -143 -146 -299 -373 -299c-204 0 -351 140 -351 330c0 452 578 428 830 673c26 38 59 62 100 62c31 0 60 -17 73 -42c-60 -60 -97 -183 -97 -320
c0 -244 93 -403 232 -403c156 0 265 169 265 417c0 208 -69 345 -174 345c-76 0 -133 -76 -133 -173c0 -94 54 -159 134 -157c-6 -72 -50 -119 -110 -119c-93 0 -153 83 -153 209c0 147 88 325 270 325z" />
    <glyph glyph-name="Ocircumflex.salt" horiz-adv-x="1653" 
d="M1029 824c-27 0 -46 16 -64 51c124 144 170 186 213 186s90 -42 213 -186c-18 -35 -37 -51 -64 -51c-40 0 -97 48 -149 120c-48 -71 -106 -120 -149 -120zM1261 780c263 0 329 -273 329 -428c0 -339 -205 -508 -419 -508c-245 0 -399 179 -399 466c0 40 4 89 13 137
c-219 -150 -609 -154 -609 -485c0 -134 85 -230 206 -230c88 0 169 79 169 168c0 90 -25 117 -64 156c35 33 78 52 118 52c85 0 143 -73 143 -176c0 -143 -146 -299 -373 -299c-204 0 -351 140 -351 330c0 452 578 428 830 673c26 38 59 62 100 62c31 0 60 -17 73 -42
c-60 -60 -97 -183 -97 -320c0 -244 93 -403 232 -403c156 0 265 169 265 417c0 208 -69 345 -174 345c-76 0 -133 -76 -133 -173c0 -94 54 -159 134 -157c-6 -72 -50 -119 -110 -119c-93 0 -153 83 -153 209c0 147 88 325 270 325z" />
    <glyph glyph-name="Odieresis.salt" horiz-adv-x="1653" 
d="M1073 845c-48 0 -80 29 -80 73c0 47 37 80 89 80c49 0 84 -31 84 -74c0 -46 -39 -79 -93 -79zM1269 845c-48 0 -80 29 -80 73c0 47 37 80 89 80c49 0 84 -31 84 -74c0 -46 -39 -79 -93 -79zM1261 780c263 0 329 -273 329 -428c0 -339 -205 -508 -419 -508
c-245 0 -399 179 -399 466c0 40 4 89 13 137c-219 -150 -609 -154 -609 -485c0 -134 85 -230 206 -230c88 0 169 79 169 168c0 90 -25 117 -64 156c35 33 78 52 118 52c85 0 143 -73 143 -176c0 -143 -146 -299 -373 -299c-204 0 -351 140 -351 330c0 452 578 428 830 673
c26 38 59 62 100 62c31 0 60 -17 73 -42c-60 -60 -97 -183 -97 -320c0 -244 93 -403 232 -403c156 0 265 169 265 417c0 208 -69 345 -174 345c-76 0 -133 -76 -133 -173c0 -94 54 -159 134 -157c-6 -72 -50 -119 -110 -119c-93 0 -153 83 -153 209c0 147 88 325 270 325z
" />
    <glyph glyph-name="Ograve.salt" horiz-adv-x="1653" 
d="M1238 825c-80 0 -191 148 -191 206c0 20 32 35 73 35c29 0 58 -9 77 -22c9 -30 21 -96 102 -189c-10 -9 -35 -30 -61 -30zM1261 780c263 0 329 -273 329 -428c0 -339 -205 -508 -419 -508c-245 0 -399 179 -399 466c0 40 4 89 13 137c-219 -150 -609 -154 -609 -485
c0 -134 85 -230 206 -230c88 0 169 79 169 168c0 90 -25 117 -64 156c35 33 78 52 118 52c85 0 143 -73 143 -176c0 -143 -146 -299 -373 -299c-204 0 -351 140 -351 330c0 452 578 428 830 673c26 38 59 62 100 62c31 0 60 -17 73 -42c-60 -60 -97 -183 -97 -320
c0 -244 93 -403 232 -403c156 0 265 169 265 417c0 208 -69 345 -174 345c-76 0 -133 -76 -133 -173c0 -94 54 -159 134 -157c-6 -72 -50 -119 -110 -119c-93 0 -153 83 -153 209c0 147 88 325 270 325z" />
    <glyph glyph-name="Ohungarumlaut.salt" horiz-adv-x="1653" 
d="M1258 827c-26 0 -51 21 -61 30c81 93 93 159 102 189c19 13 48 22 77 22c41 0 73 -15 73 -35c0 -58 -111 -206 -191 -206zM1258 1030c0 -58 -111 -206 -191 -206c-26 0 -51 21 -61 30c81 93 93 159 102 189c19 13 48 22 77 22c41 0 73 -15 73 -35zM1261 780
c263 0 329 -273 329 -428c0 -339 -205 -508 -419 -508c-245 0 -399 179 -399 466c0 40 4 89 13 137c-219 -150 -609 -154 -609 -485c0 -134 85 -230 206 -230c88 0 169 79 169 168c0 90 -25 117 -64 156c35 33 78 52 118 52c85 0 143 -73 143 -176
c0 -143 -146 -299 -373 -299c-204 0 -351 140 -351 330c0 452 578 428 830 673c26 38 59 62 100 62c31 0 60 -17 73 -42c-60 -60 -97 -183 -97 -320c0 -244 93 -403 232 -403c156 0 265 169 265 417c0 208 -69 345 -174 345c-76 0 -133 -76 -133 -173
c0 -94 54 -159 134 -157c-6 -72 -50 -119 -110 -119c-93 0 -153 83 -153 209c0 147 88 325 270 325z" />
    <glyph glyph-name="Omacron.salt" horiz-adv-x="1653" 
d="M1091 826c-88 0 -122 16 -122 61c0 13 5 28 13 39c41 -4 158 -3 207 -3c42 0 82 4 116 4c56 0 82 -13 82 -44c0 -20 -9 -44 -22 -59c-34 5 -57 7 -88 7c-23 0 -50 -1 -85 -2c-39 -2 -73 -3 -101 -3zM1261 780c263 0 329 -273 329 -428c0 -339 -205 -508 -419 -508
c-245 0 -399 179 -399 466c0 40 4 89 13 137c-219 -150 -609 -154 -609 -485c0 -134 85 -230 206 -230c88 0 169 79 169 168c0 90 -25 117 -64 156c35 33 78 52 118 52c85 0 143 -73 143 -176c0 -143 -146 -299 -373 -299c-204 0 -351 140 -351 330c0 452 578 428 830 673
c26 38 59 62 100 62c31 0 60 -17 73 -42c-60 -60 -97 -183 -97 -320c0 -244 93 -403 232 -403c156 0 265 169 265 417c0 208 -69 345 -174 345c-76 0 -133 -76 -133 -173c0 -94 54 -159 134 -157c-6 -72 -50 -119 -110 -119c-93 0 -153 83 -153 209c0 147 88 325 270 325z
" />
    <glyph glyph-name="Oslash.salt" horiz-adv-x="1653" 
d="M1509 648c61 -91 81 -211 81 -296c0 -339 -205 -508 -419 -508c-72 0 -137 16 -192 45c-37 -51 -56 -80 -46 -73l6 -9c-76 38 -103 63 -103 98c0 6 16 30 42 67c-68 80 -106 196 -106 338c0 40 4 89 13 137c-219 -150 -609 -154 -609 -485c0 -134 85 -230 206 -230
c88 0 169 79 169 168c0 90 -25 117 -64 156c35 33 78 52 118 52c85 0 143 -73 143 -176c0 -143 -146 -299 -373 -299c-204 0 -351 140 -351 330c0 452 578 428 830 673c26 38 59 62 100 62c31 0 60 -17 73 -42c-60 -60 -97 -183 -97 -320c0 -95 14 -176 39 -241
c36 48 77 103 120 162c-61 27 -98 99 -98 198c0 147 88 325 270 325c63 0 115 -16 157 -42c17 28 29 47 32 56c53 -6 96 -37 102 -73c1 -3 -15 -30 -43 -73zM1253 695c-76 0 -133 -76 -133 -173c0 -61 23 -110 61 -136c62 88 124 180 174 254c-28 35 -62 55 -102 55z
M1162 -67c156 0 265 169 265 417c0 56 -5 107 -14 151c-58 -85 -127 -186 -195 -284c-62 -88 -123 -171 -173 -238c33 -30 73 -46 117 -46z" />
    <glyph glyph-name="Otilde.salt" horiz-adv-x="1653" 
d="M1055 851c-49 -3 -81 17 -81 50c0 50 63 102 124 102c73 0 126 -58 155 -58c19 0 37 33 48 52c49 2 81 -15 81 -44c0 -41 -54 -108 -124 -108s-126 58 -156 58c-15 0 -36 -22 -47 -52zM1261 780c263 0 329 -273 329 -428c0 -339 -205 -508 -419 -508
c-245 0 -399 179 -399 466c0 40 4 89 13 137c-219 -150 -609 -154 -609 -485c0 -134 85 -230 206 -230c88 0 169 79 169 168c0 90 -25 117 -64 156c35 33 78 52 118 52c85 0 143 -73 143 -176c0 -143 -146 -299 -373 -299c-204 0 -351 140 -351 330c0 452 578 428 830 673
c26 38 59 62 100 62c31 0 60 -17 73 -42c-60 -60 -97 -183 -97 -320c0 -244 93 -403 232 -403c156 0 265 169 265 417c0 208 -69 345 -174 345c-76 0 -133 -76 -133 -173c0 -94 54 -159 134 -157c-6 -72 -50 -119 -110 -119c-93 0 -153 83 -153 209c0 147 88 325 270 325z
" />
    <glyph glyph-name="P.salt" horiz-adv-x="1830" 
d="M1295 124h-6c-3 -35 -5 -72 -5 -114c0 -80 13 -143 37 -184c-32 -9 -87 -16 -115 -13c-73 4 -93 55 -93 118c0 40 14 118 30 204c-225 51 -489 255 -712 255c-99 0 -169 -72 -169 -174c0 -45 20 -85 56 -110c-27 -38 -72 -61 -122 -61c-98 0 -157 67 -157 178
c0 213 179 306 349 306c282 0 575 -231 772 -297c14 80 26 156 26 207c0 43 -9 83 -38 116c25 29 56 42 85 42c51 0 97 -40 97 -106c0 -111 -17 -192 -30 -282c168 4 335 100 338 285c0 131 -118 216 -303 216c-127 0 -275 -61 -275 -159c0 -45 27 -60 53 -77
c-12 -33 -55 -57 -100 -57c-63 0 -112 49 -112 113c0 105 155 273 474 273c254 0 446 -130 446 -304c0 -179 -191 -375 -526 -375z" />
    <glyph glyph-name="Q.salt" horiz-adv-x="1523" 
d="M1582 -127c41 -123 -3 -209 -104 -209c-109 0 -282 153 -412 181c-8 -1 -17 -1 -26 -1c-251 0 -410 177 -415 466c0 21 1 44 3 68c-77 -52 -172 -83 -269 -83c-154 0 -333 67 -333 214c0 85 54 152 142 174c5 -63 87 -247 251 -247c108 0 210 79 276 174
c31 52 72 87 124 87c30 0 55 -16 65 -41c-61 -60 -109 -222 -106 -356c5 -235 97 -367 251 -367c174 0 261 216 257 417c-5 192 -49 315 -138 315c-49 0 -92 -47 -112 -122c-73 -10 -126 30 -126 92c0 65 74 141 200 141c202 0 329 -159 333 -431c3 -181 -63 -365 -209 -451
c68 -28 132 -60 229 -60c30 0 75 10 119 39z" />
    <glyph glyph-name="R.salt" horiz-adv-x="1772" 
d="M1602 125c124 -175 206 -258 268 -272c-16 -81 -68 -128 -130 -117c-109 24 -186 215 -257 329c-32 51 -60 100 -87 129c-46 -9 -96 -14 -150 -14h-1c-7 -51 -12 -105 -12 -170c0 -80 13 -143 37 -184c-32 -9 -86 -16 -115 -13c-131 8 -91 170 -70 274c6 34 13 68 20 107
c-220 51 -477 204 -694 204c-99 0 -169 -72 -169 -174c0 -45 20 -85 56 -110c-27 -38 -72 -61 -122 -61c-98 0 -157 67 -157 178c0 213 179 306 349 306c277 0 558 -206 750 -260c3 25 7 52 10 82c5 28 7 60 6 98c-1 46 -9 67 -36 98c20 23 109 65 151 19
c19 -17 30 -49 30 -83c0 -89 -11 -160 -22 -230c160 7 322 93 325 259c0 120 -116 198 -297 198c-125 0 -270 -56 -270 -145c0 -39 27 -55 53 -70c-11 -30 -65 -59 -108 -59c-62 0 -101 35 -101 92c0 115 153 267 465 267c249 0 438 -119 438 -279
c0 -109 -84 -226 -237 -292c17 -22 41 -57 77 -107z" />
    <glyph glyph-name="Racute.salt" horiz-adv-x="1772" 
d="M1500 1031c0 -58 -111 -206 -191 -206c-26 0 -51 21 -61 30c81 93 93 159 102 189c19 13 48 22 77 22c41 0 73 -15 73 -35zM1602 125c124 -175 206 -258 268 -272c-16 -81 -68 -128 -130 -117c-109 24 -186 215 -257 329c-32 51 -60 100 -87 129c-46 -9 -96 -14 -150 -14
h-1c-7 -51 -12 -105 -12 -170c0 -80 13 -143 37 -184c-32 -9 -86 -16 -115 -13c-131 8 -91 170 -70 274c6 34 13 68 20 107c-220 51 -477 204 -694 204c-99 0 -169 -72 -169 -174c0 -45 20 -85 56 -110c-27 -38 -72 -61 -122 -61c-98 0 -157 67 -157 178
c0 213 179 306 349 306c277 0 558 -206 750 -260c3 25 7 52 10 82c5 28 7 60 6 98c-1 46 -9 67 -36 98c20 23 109 65 151 19c19 -17 30 -49 30 -83c0 -89 -11 -160 -22 -230c160 7 322 93 325 259c0 120 -116 198 -297 198c-125 0 -270 -56 -270 -145c0 -39 27 -55 53 -70
c-11 -30 -65 -59 -108 -59c-62 0 -101 35 -101 92c0 115 153 267 465 267c249 0 438 -119 438 -279c0 -109 -84 -226 -237 -292c17 -22 41 -57 77 -107z" />
    <glyph glyph-name="Rcaron.salt" horiz-adv-x="1772" 
d="M1340 826c-43 0 -89 42 -213 186c18 35 37 51 64 51c51 0 120 -69 157 -120c55 79 101 120 141 120c27 0 46 -16 64 -51c-123 -144 -170 -186 -213 -186zM1602 125c124 -175 206 -258 268 -272c-16 -81 -68 -128 -130 -117c-109 24 -186 215 -257 329
c-32 51 -60 100 -87 129c-46 -9 -96 -14 -150 -14h-1c-7 -51 -12 -105 -12 -170c0 -80 13 -143 37 -184c-32 -9 -86 -16 -115 -13c-131 8 -91 170 -70 274c6 34 13 68 20 107c-220 51 -477 204 -694 204c-99 0 -169 -72 -169 -174c0 -45 20 -85 56 -110
c-27 -38 -72 -61 -122 -61c-98 0 -157 67 -157 178c0 213 179 306 349 306c277 0 558 -206 750 -260c3 25 7 52 10 82c5 28 7 60 6 98c-1 46 -9 67 -36 98c20 23 109 65 151 19c19 -17 30 -49 30 -83c0 -89 -11 -160 -22 -230c160 7 322 93 325 259c0 120 -116 198 -297 198
c-125 0 -270 -56 -270 -145c0 -39 27 -55 53 -70c-11 -30 -65 -59 -108 -59c-62 0 -101 35 -101 92c0 115 153 267 465 267c249 0 438 -119 438 -279c0 -109 -84 -226 -237 -292c17 -22 41 -57 77 -107z" />
    <glyph glyph-name="Rcommaaccent.salt" horiz-adv-x="1772" 
d="M1602 125c124 -175 206 -258 268 -272c-16 -81 -68 -128 -130 -117c-109 24 -186 215 -257 329c-32 51 -60 100 -87 129c-46 -9 -96 -14 -150 -14h-1c-7 -51 -12 -105 -12 -170c0 -80 13 -143 37 -184c-32 -9 -86 -16 -115 -13c-131 8 -91 170 -70 274c6 34 13 68 20 107
c-220 51 -477 204 -694 204c-99 0 -169 -72 -169 -174c0 -45 20 -85 56 -110c-27 -38 -72 -61 -122 -61c-98 0 -157 67 -157 178c0 213 179 306 349 306c277 0 558 -206 750 -260c3 25 7 52 10 82c5 28 7 60 6 98c-1 46 -9 67 -36 98c20 23 109 65 151 19
c19 -17 30 -49 30 -83c0 -89 -11 -160 -22 -230c160 7 322 93 325 259c0 120 -116 198 -297 198c-125 0 -270 -56 -270 -145c0 -39 27 -55 53 -70c-11 -30 -65 -59 -108 -59c-62 0 -101 35 -101 92c0 115 153 267 465 267c249 0 438 -119 438 -279
c0 -109 -84 -226 -237 -292c17 -22 41 -57 77 -107zM1412 -220c44 0 75 -36 75 -89c0 -59 -68 -148 -116 -148c-19 0 -35 13 -41 33c23 25 40 41 46 70c-28 14 -43 37 -43 65c0 42 32 69 79 69z" />
    <glyph glyph-name="S.salt" horiz-adv-x="1504" 
d="M1447 68c0 -174 -198 -267 -393 -267c-263 0 -464 145 -706 145c-160 0 -218 -63 -279 -126c-36 33 -57 74 -57 127c0 118 104 198 279 198c167 0 320 -73 458 -139c102 -49 219 -100 342 -100c124 0 200 63 200 132c0 94 -163 106 -325 160c-192 64 -284 151 -284 286
c0 207 217 304 423 304c168 0 373 -64 373 -158c0 -60 -84 -87 -136 -82c-6 32 -91 149 -253 149c-127 0 -257 -73 -257 -178c0 -96 109 -139 236 -179c173 -54 379 -103 379 -272z" />
    <glyph glyph-name="Sacute.salt" horiz-adv-x="1504" 
d="M1073 825c-26 0 -51 21 -61 30c81 93 93 159 102 189c19 13 48 22 77 22c41 0 73 -15 73 -35c0 -58 -111 -206 -191 -206zM1447 68c0 -174 -198 -267 -393 -267c-263 0 -464 145 -706 145c-160 0 -218 -63 -279 -126c-36 33 -57 74 -57 127c0 118 104 198 279 198
c167 0 320 -73 458 -139c102 -49 219 -100 342 -100c124 0 200 63 200 132c0 94 -163 106 -325 160c-192 64 -284 151 -284 286c0 207 217 304 423 304c168 0 373 -64 373 -158c0 -60 -84 -87 -136 -82c-6 32 -91 149 -253 149c-127 0 -257 -73 -257 -178
c0 -96 109 -139 236 -179c173 -54 379 -103 379 -272z" />
    <glyph glyph-name="Scaron.salt" horiz-adv-x="1504" 
d="M1104 826c-43 0 -89 42 -213 186c18 35 37 51 64 51c51 0 120 -69 157 -120c55 79 101 120 141 120c27 0 46 -16 64 -51c-123 -144 -170 -186 -213 -186zM1447 68c0 -174 -198 -267 -393 -267c-263 0 -464 145 -706 145c-160 0 -218 -63 -279 -126c-36 33 -57 74 -57 127
c0 118 104 198 279 198c167 0 320 -73 458 -139c102 -49 219 -100 342 -100c124 0 200 63 200 132c0 94 -163 106 -325 160c-192 64 -284 151 -284 286c0 207 217 304 423 304c168 0 373 -64 373 -158c0 -60 -84 -87 -136 -82c-6 32 -91 149 -253 149
c-127 0 -257 -73 -257 -178c0 -96 109 -139 236 -179c173 -54 379 -103 379 -272z" />
    <glyph glyph-name="Scedilla.salt" horiz-adv-x="1504" 
d="M1089 697c-127 0 -257 -73 -257 -178c0 -96 109 -139 236 -179c173 -54 379 -103 379 -272c0 -155 -157 -246 -329 -264l-14 -28c57 -8 81 -44 81 -90c0 -59 -57 -109 -135 -109c-57 0 -94 30 -94 60c0 16 10 36 37 42c13 -15 27 -21 39 -21c17 0 30 14 30 36
c0 28 -24 44 -54 44v30l11 34c-246 12 -440 144 -671 144c-160 0 -218 -63 -279 -126c-36 33 -57 74 -57 127c0 118 104 198 279 198c167 0 320 -73 458 -139c102 -49 219 -100 342 -100c124 0 200 63 200 132c0 94 -163 106 -325 160c-192 64 -284 151 -284 286
c0 207 217 304 423 304c168 0 373 -64 373 -158c0 -60 -84 -87 -136 -82c-6 32 -91 149 -253 149z" />
    <glyph glyph-name="Scommaaccent.salt" horiz-adv-x="1504" 
d="M1447 68c0 -174 -198 -267 -393 -267c-263 0 -464 145 -706 145c-160 0 -218 -63 -279 -126c-36 33 -57 74 -57 127c0 118 104 198 279 198c167 0 320 -73 458 -139c102 -49 219 -100 342 -100c124 0 200 63 200 132c0 94 -163 106 -325 160c-192 64 -284 151 -284 286
c0 207 217 304 423 304c168 0 373 -64 373 -158c0 -60 -84 -87 -136 -82c-6 32 -91 149 -253 149c-127 0 -257 -73 -257 -178c0 -96 109 -139 236 -179c173 -54 379 -103 379 -272zM1098 -465c-19 0 -35 13 -41 33c23 25 40 41 46 70c-28 14 -43 37 -43 65c0 42 32 69 79 69
c44 0 75 -36 75 -89c0 -59 -68 -148 -116 -148z" />
    <glyph glyph-name="T.salt" horiz-adv-x="1178" 
d="M1397 882c55 -18 82 -47 82 -77c0 -80 -187 -80 -313 -80h-83c-29 -119 -68 -339 -75 -536c-5 -144 8 -264 41 -326c-2 -10 -58 -23 -98 -23c-64 0 -105 34 -115 107c-4 27 -5 79 -4 117c4 185 50 503 114 654c-263 -15 -492 -33 -610 -97c-95 -52 -153 -152 -153 -250
c0 -123 91 -224 200 -224c90 0 155 67 155 165c0 39 -10 89 -25 119c24 12 57 20 86 20c80 0 137 -62 137 -141c0 -106 -104 -275 -353 -275c-254 0 -359 176 -359 345c0 158 92 287 247 361c235 112 571 74 1040 99c48 5 68 15 86 42z" />
    <glyph glyph-name="Tbar.salt" horiz-adv-x="1178" 
d="M1166 725h-83c-11 -46 -24 -107 -36 -175c85 -1 164 -7 164 -59c0 -21 -12 -46 -29 -61c-53 8 -90 9 -151 10c-12 -82 -20 -169 -23 -251c-5 -144 8 -264 41 -326c-2 -10 -58 -23 -98 -23c-64 0 -105 34 -115 107c-4 27 -5 79 -4 117c2 102 17 244 41 376
c-118 2 -173 13 -173 66c0 10 7 30 16 45c58 -2 88 -3 179 -2c15 65 32 124 51 169c-263 -15 -492 -33 -610 -97c-95 -52 -153 -152 -153 -250c0 -123 91 -224 200 -224c90 0 155 67 155 165c0 39 -10 89 -25 119c24 12 57 20 86 20c80 0 137 -62 137 -141
c0 -106 -104 -275 -353 -275c-254 0 -359 176 -359 345c0 158 92 287 247 361c235 112 571 74 1040 99c48 5 68 15 86 42c55 -18 82 -47 82 -77c0 -80 -187 -80 -313 -80z" />
    <glyph glyph-name="Tcaron.salt" horiz-adv-x="1178" 
d="M993 851c-43 0 -89 42 -213 186c18 35 37 51 64 51c51 0 120 -69 157 -120c55 79 101 120 141 120c27 0 46 -16 64 -51c-123 -144 -170 -186 -213 -186zM1397 882c55 -18 82 -47 82 -77c0 -80 -187 -80 -313 -80h-83c-29 -119 -68 -339 -75 -536c-5 -144 8 -264 41 -326
c-2 -10 -58 -23 -98 -23c-64 0 -105 34 -115 107c-4 27 -5 79 -4 117c4 185 50 503 114 654c-263 -15 -492 -33 -610 -97c-95 -52 -153 -152 -153 -250c0 -123 91 -224 200 -224c90 0 155 67 155 165c0 39 -10 89 -25 119c24 12 57 20 86 20c80 0 137 -62 137 -141
c0 -106 -104 -275 -353 -275c-254 0 -359 176 -359 345c0 158 92 287 247 361c235 112 571 74 1040 99c48 5 68 15 86 42z" />
    <glyph glyph-name="uni0162.salt" horiz-adv-x="1178" 
d="M1397 882c55 -18 82 -47 82 -77c0 -80 -187 -80 -313 -80h-83c-29 -119 -68 -339 -75 -536c-5 -144 8 -264 41 -326c-2 -8 -37 -18 -71 -21l-10 -20c57 -8 81 -44 81 -90c0 -59 -57 -109 -135 -109c-57 0 -94 30 -94 60c0 16 10 36 37 42c13 -15 27 -21 39 -21
c17 0 30 14 30 36c0 28 -24 44 -54 44v30l14 42c-27 17 -44 47 -50 91c-4 27 -5 79 -4 117c4 185 50 503 114 654c-263 -15 -492 -33 -610 -97c-95 -52 -153 -152 -153 -250c0 -123 91 -224 200 -224c90 0 155 67 155 165c0 39 -10 89 -25 119c24 12 57 20 86 20
c80 0 137 -62 137 -141c0 -106 -104 -275 -353 -275c-254 0 -359 176 -359 345c0 158 92 287 247 361c235 112 571 74 1040 99c48 5 68 15 86 42z" />
    <glyph glyph-name="uni021A.salt" horiz-adv-x="1178" 
d="M1397 882c55 -18 82 -47 82 -77c0 -80 -187 -80 -313 -80h-83c-29 -119 -68 -339 -75 -536c-5 -144 8 -264 41 -326c-2 -10 -58 -23 -98 -23c-64 0 -105 34 -115 107c-4 27 -5 79 -4 117c4 185 50 503 114 654c-263 -15 -492 -33 -610 -97c-95 -52 -153 -152 -153 -250
c0 -123 91 -224 200 -224c90 0 155 67 155 165c0 39 -10 89 -25 119c24 12 57 20 86 20c80 0 137 -62 137 -141c0 -106 -104 -275 -353 -275c-254 0 -359 176 -359 345c0 158 92 287 247 361c235 112 571 74 1040 99c48 5 68 15 86 42zM1003 -182c44 0 75 -36 75 -89
c0 -59 -68 -148 -116 -148c-19 0 -35 13 -41 33c23 25 40 41 46 70c-28 14 -43 37 -43 65c0 42 32 69 79 69z" />
    <glyph glyph-name="U.salt" horiz-adv-x="1552" 
d="M1436 369c0 -284 31 -354 89 -433c-27 -28 -58 -51 -105 -51c-38 0 -78 18 -99 63c-14 32 -24 82 -29 141c-81 -152 -201 -280 -318 -280c-155 0 -244 152 -234 401c4 105 17 209 25 301c-88 -125 -235 -230 -402 -230c-178 0 -326 102 -344 235c-11 84 45 145 161 177
c6 -158 83 -258 198 -263c115 0 306 95 374 301c25 30 61 46 112 46c56 0 90 -40 90 -106c0 -108 -51 -294 -56 -485c-5 -164 24 -247 84 -247c115 0 273 257 314 489c9 103 23 197 40 255c13 49 56 70 100 70c30 0 61 -10 82 -29c-21 -54 -82 -217 -82 -355z" />
    <glyph glyph-name="Uacute.salt" horiz-adv-x="1552" 
d="M1307 993c0 -58 -111 -206 -191 -206c-26 0 -51 21 -61 30c81 93 93 159 102 189c19 13 48 22 77 22c41 0 73 -15 73 -35zM1436 369c0 -284 31 -354 89 -433c-27 -28 -58 -51 -105 -51c-38 0 -78 18 -99 63c-14 32 -24 82 -29 141c-81 -152 -201 -280 -318 -280
c-155 0 -244 152 -234 401c4 105 17 209 25 301c-88 -125 -235 -230 -402 -230c-178 0 -326 102 -344 235c-11 84 45 145 161 177c6 -158 83 -258 198 -263c115 0 306 95 374 301c25 30 61 46 112 46c56 0 90 -40 90 -106c0 -108 -51 -294 -56 -485c-5 -164 24 -247 84 -247
c115 0 273 257 314 489c9 103 23 197 40 255c13 49 56 70 100 70c30 0 61 -10 82 -29c-21 -54 -82 -217 -82 -355z" />
    <glyph glyph-name="Ucircumflex.salt" horiz-adv-x="1552" 
d="M1002 786c-27 0 -46 16 -64 51c124 144 170 186 213 186s90 -42 213 -186c-18 -35 -37 -51 -64 -51c-40 0 -97 48 -149 120c-48 -71 -106 -120 -149 -120zM1436 369c0 -284 31 -354 89 -433c-27 -28 -58 -51 -105 -51c-38 0 -78 18 -99 63c-14 32 -24 82 -29 141
c-81 -152 -201 -280 -318 -280c-155 0 -244 152 -234 401c4 105 17 209 25 301c-88 -125 -235 -230 -402 -230c-178 0 -326 102 -344 235c-11 84 45 145 161 177c6 -158 83 -258 198 -263c115 0 306 95 374 301c25 30 61 46 112 46c56 0 90 -40 90 -106
c0 -108 -51 -294 -56 -485c-5 -164 24 -247 84 -247c115 0 273 257 314 489c9 103 23 197 40 255c13 49 56 70 100 70c30 0 61 -10 82 -29c-21 -54 -82 -217 -82 -355z" />
    <glyph glyph-name="Udieresis.salt" horiz-adv-x="1552" 
d="M1046 807c-48 0 -80 29 -80 73c0 47 37 80 89 80c49 0 84 -31 84 -74c0 -46 -39 -79 -93 -79zM1242 807c-48 0 -80 29 -80 73c0 47 37 80 89 80c49 0 84 -31 84 -74c0 -46 -39 -79 -93 -79zM1436 369c0 -284 31 -354 89 -433c-27 -28 -58 -51 -105 -51
c-38 0 -78 18 -99 63c-14 32 -24 82 -29 141c-81 -152 -201 -280 -318 -280c-155 0 -244 152 -234 401c4 105 17 209 25 301c-88 -125 -235 -230 -402 -230c-178 0 -326 102 -344 235c-11 84 45 145 161 177c6 -158 83 -258 198 -263c115 0 306 95 374 301
c25 30 61 46 112 46c56 0 90 -40 90 -106c0 -108 -51 -294 -56 -485c-5 -164 24 -247 84 -247c115 0 273 257 314 489c9 103 23 197 40 255c13 49 56 70 100 70c30 0 61 -10 82 -29c-21 -54 -82 -217 -82 -355z" />
    <glyph glyph-name="Ugrave.salt" horiz-adv-x="1552" 
d="M1211 787c-80 0 -191 148 -191 206c0 20 32 35 73 35c29 0 58 -9 77 -22c9 -30 21 -96 102 -189c-10 -9 -35 -30 -61 -30zM1436 369c0 -284 31 -354 89 -433c-27 -28 -58 -51 -105 -51c-38 0 -78 18 -99 63c-14 32 -24 82 -29 141c-81 -152 -201 -280 -318 -280
c-155 0 -244 152 -234 401c4 105 17 209 25 301c-88 -125 -235 -230 -402 -230c-178 0 -326 102 -344 235c-11 84 45 145 161 177c6 -158 83 -258 198 -263c115 0 306 95 374 301c25 30 61 46 112 46c56 0 90 -40 90 -106c0 -108 -51 -294 -56 -485c-5 -164 24 -247 84 -247
c115 0 273 257 314 489c9 103 23 197 40 255c13 49 56 70 100 70c30 0 61 -10 82 -29c-21 -54 -82 -217 -82 -355z" />
    <glyph glyph-name="Uhungarumlaut.salt" horiz-adv-x="1552" 
d="M1231 789c-26 0 -51 21 -61 30c81 93 93 159 102 189c19 13 48 22 77 22c41 0 73 -15 73 -35c0 -58 -111 -206 -191 -206zM1231 992c0 -58 -111 -206 -191 -206c-26 0 -51 21 -61 30c81 93 93 159 102 189c19 13 48 22 77 22c41 0 73 -15 73 -35zM1436 369
c0 -284 31 -354 89 -433c-27 -28 -58 -51 -105 -51c-38 0 -78 18 -99 63c-14 32 -24 82 -29 141c-81 -152 -201 -280 -318 -280c-155 0 -244 152 -234 401c4 105 17 209 25 301c-88 -125 -235 -230 -402 -230c-178 0 -326 102 -344 235c-11 84 45 145 161 177
c6 -158 83 -258 198 -263c115 0 306 95 374 301c25 30 61 46 112 46c56 0 90 -40 90 -106c0 -108 -51 -294 -56 -485c-5 -164 24 -247 84 -247c115 0 273 257 314 489c9 103 23 197 40 255c13 49 56 70 100 70c30 0 61 -10 82 -29c-21 -54 -82 -217 -82 -355z" />
    <glyph glyph-name="Umacron.salt" horiz-adv-x="1552" 
d="M1064 788c-88 0 -122 16 -122 61c0 13 5 28 13 39c41 -4 158 -3 207 -3c42 0 82 4 116 4c56 0 82 -13 82 -44c0 -20 -9 -44 -22 -59c-34 5 -57 7 -88 7c-23 0 -50 -1 -85 -2c-39 -2 -73 -3 -101 -3zM1436 369c0 -284 31 -354 89 -433c-27 -28 -58 -51 -105 -51
c-38 0 -78 18 -99 63c-14 32 -24 82 -29 141c-81 -152 -201 -280 -318 -280c-155 0 -244 152 -234 401c4 105 17 209 25 301c-88 -125 -235 -230 -402 -230c-178 0 -326 102 -344 235c-11 84 45 145 161 177c6 -158 83 -258 198 -263c115 0 306 95 374 301
c25 30 61 46 112 46c56 0 90 -40 90 -106c0 -108 -51 -294 -56 -485c-5 -164 24 -247 84 -247c115 0 273 257 314 489c9 103 23 197 40 255c13 49 56 70 100 70c30 0 61 -10 82 -29c-21 -54 -82 -217 -82 -355z" />
    <glyph glyph-name="Uogonek.salt" horiz-adv-x="1552" 
d="M1468 -106c-40 -39 -63 -69 -63 -95c0 -22 8 -33 22 -33s31 8 52 24c26 -8 39 -22 39 -42c0 -36 -52 -68 -107 -68c-74 0 -130 44 -130 106c-1 57 44 94 80 115c-16 11 -30 26 -40 47c-14 32 -24 82 -29 141c-81 -152 -201 -280 -318 -280c-155 0 -244 152 -234 401
c4 105 17 209 25 301c-88 -125 -235 -230 -402 -230c-178 0 -326 102 -344 235c-11 84 45 145 161 177c6 -158 83 -258 198 -263c115 0 306 95 374 301c25 30 61 46 112 46c56 0 90 -40 90 -106c0 -108 -51 -294 -56 -485c-5 -164 24 -247 84 -247c115 0 273 257 314 489
c9 103 23 197 40 255c13 49 56 70 100 70c30 0 61 -10 82 -29c-21 -54 -82 -217 -82 -355c0 -284 31 -354 89 -433c-17 -17 -35 -33 -57 -42z" />
    <glyph glyph-name="Uring.salt" horiz-adv-x="1552" 
d="M1148 797c-70 0 -120 45 -120 109s51 109 121 109s120 -45 120 -109s-51 -109 -121 -109zM1149 956c-15 0 -25 -17 -25 -49c0 -33 9 -51 23 -51c15 0 25 17 25 51c0 32 -9 49 -23 49zM1436 369c0 -284 31 -354 89 -433c-27 -28 -58 -51 -105 -51c-38 0 -78 18 -99 63
c-14 32 -24 82 -29 141c-81 -152 -201 -280 -318 -280c-155 0 -244 152 -234 401c4 105 17 209 25 301c-88 -125 -235 -230 -402 -230c-178 0 -326 102 -344 235c-11 84 45 145 161 177c6 -158 83 -258 198 -263c115 0 306 95 374 301c25 30 61 46 112 46
c56 0 90 -40 90 -106c0 -108 -51 -294 -56 -485c-5 -164 24 -247 84 -247c115 0 273 257 314 489c9 103 23 197 40 255c13 49 56 70 100 70c30 0 61 -10 82 -29c-21 -54 -82 -217 -82 -355z" />
    <glyph glyph-name="V.salt" horiz-adv-x="1969" 
d="M1756 850c147 0 174 -208 174 -308c0 -349 -294 -734 -432 -734c-40 0 -126 85 -139 121c-36 127 -45 203 -101 392c-36 128 -69 200 -104 244c-36 -32 -90 -61 -151 -78c-163 -45 -338 -33 -499 -78c-146 -40 -227 -119 -227 -222c0 -71 58 -139 111 -183
c-55 -57 -114 -82 -169 -82c-105 0 -191 95 -191 243c0 158 133 292 345 351c249 69 621 2 716 160c15 28 44 43 86 43c194 0 250 -406 322 -716c5 -27 12 -42 26 -51c94 40 251 296 251 550c0 132 -39 242 -112 315c31 17 52 33 94 33z" />
    <glyph glyph-name="W.salt" horiz-adv-x="1920" 
d="M1706 871c120 0 161 -89 161 -335c-5 -220 -85 -661 -361 -661c-203 0 -237 343 -267 485c-8 -73 -22 -159 -37 -234c-27 -165 -110 -285 -201 -285c-82 0 -129 50 -144 153c-13 91 -13 225 -13 339c0 31 -2 72 -9 109c-105 -139 -254 -216 -419 -216
c-200 0 -391 145 -391 298c0 100 73 157 205 159c0 -96 41 -319 246 -319c152 0 261 106 364 234c22 27 62 45 104 45c56 0 79 -49 79 -150c0 -104 -29 -300 -29 -412c0 -50 15 -88 32 -88c43 0 120 196 120 510c0 100 121 139 151 139c47 0 57 -39 64 -77
c27 -169 -1 -553 141 -553c15 0 180 35 183 452c0 127 -35 323 -72 396c31 7 64 11 93 11z" />
    <glyph glyph-name="Wacute.salt" horiz-adv-x="1920" 
d="M1428 962c0 -58 -111 -206 -191 -206c-26 0 -51 21 -61 30c81 93 93 159 102 189c19 13 48 22 77 22c41 0 73 -15 73 -35zM1706 871c120 0 161 -89 161 -335c-5 -220 -85 -661 -361 -661c-203 0 -237 343 -267 485c-8 -73 -22 -159 -37 -234
c-27 -165 -110 -285 -201 -285c-82 0 -129 50 -144 153c-13 91 -13 225 -13 339c0 31 -2 72 -9 109c-105 -139 -254 -216 -419 -216c-200 0 -391 145 -391 298c0 100 73 157 205 159c0 -96 41 -319 246 -319c152 0 261 106 364 234c22 27 62 45 104 45c56 0 79 -49 79 -150
c0 -104 -29 -300 -29 -412c0 -50 15 -88 32 -88c43 0 120 196 120 510c0 100 121 139 151 139c47 0 57 -39 64 -77c27 -169 -1 -553 141 -553c15 0 180 35 183 452c0 127 -35 323 -72 396c31 7 64 11 93 11z" />
    <glyph glyph-name="Wcircumflex.salt" horiz-adv-x="1920" 
d="M1123 755c-27 0 -46 16 -64 51c124 144 170 186 213 186s90 -42 213 -186c-18 -35 -37 -51 -64 -51c-40 0 -97 48 -149 120c-48 -71 -106 -120 -149 -120zM1706 871c120 0 161 -89 161 -335c-5 -220 -85 -661 -361 -661c-203 0 -237 343 -267 485
c-8 -73 -22 -159 -37 -234c-27 -165 -110 -285 -201 -285c-82 0 -129 50 -144 153c-13 91 -13 225 -13 339c0 31 -2 72 -9 109c-105 -139 -254 -216 -419 -216c-200 0 -391 145 -391 298c0 100 73 157 205 159c0 -96 41 -319 246 -319c152 0 261 106 364 234
c22 27 62 45 104 45c56 0 79 -49 79 -150c0 -104 -29 -300 -29 -412c0 -50 15 -88 32 -88c43 0 120 196 120 510c0 100 121 139 151 139c47 0 57 -39 64 -77c27 -169 -1 -553 141 -553c15 0 180 35 183 452c0 127 -35 323 -72 396c31 7 64 11 93 11z" />
    </font>
</defs>
</svg>
