<?xml version="1.0" standalone="no"?>
<!DOCTYPE svg PUBLIC "-//W3C//DTD SVG 1.1//EN" "http://www.w3.org/Graphics/SVG/1.1/DTD/svg11.dtd" >
<svg xmlns="http://www.w3.org/2000/svg" xmlns:xlink="http://www.w3.org/1999/xlink" version="1.1">
<metadata>
Created by FontForge 20161116 at Wed Aug  8 19:26:24 2001
 By Jimmy Wärting
Copyright (c) Allen R. Walden - eng. &#38; Alex Kazantsev - rus., 2001. All rights reserved.
</metadata>
<defs>
<font id="TerminatorCyr-Semi-expandedBold" horiz-adv-x="1136" >
  <font-face 
    font-family="Terminator Cyr"
    font-weight="700"
    font-stretch="semi-expanded"
    units-per-em="1000"
    panose-1="4 3 9 5 6 0 2 3 6 4"
    ascent="800"
    descent="-200"
    x-height="735"
    cap-height="737"
    bbox="50 -280 1287 1035"
    underline-thickness="60"
    underline-position="-240"
    unicode-range="U+0020-2122"
  />
<missing-glyph horiz-adv-x="500" 
 />
    <glyph glyph-name=".notdef" horiz-adv-x="500" 
 />
    <glyph glyph-name=".null" horiz-adv-x="0" 
 />
    <glyph glyph-name="nonmarkingreturn" horiz-adv-x="500" 
 />
    <glyph glyph-name="space" unicode=" " horiz-adv-x="650" 
 />
    <glyph glyph-name="dollar" unicode="$" horiz-adv-x="1240" 
d="M716 732v75h-196v-75h-257q-41 0 -79.5 -19.5t-68 -51.5t-47.5 -72t-18 -81q0 -44 17 -85.5t46.5 -74t68.5 -52.5t84 -20h732v-85h-904v-188h426v-67h196v67h240q43 0 85 20.5t75 54t53.5 75.5t20.5 86q0 45 -19.5 86t-52 72t-74 49.5t-86.5 18.5h-709v85h897v182h-430z
" />
    <glyph glyph-name="percent" unicode="%" horiz-adv-x="1249" 
d="M307 273q48 0 88.5 20.5t70 53.5t46 76t16.5 88q0 49 -21.5 89.5t-57 69t-80.5 44t-92 15.5t-88.5 -18t-72.5 -49.5t-48.5 -73t-17.5 -88.5q0 -49 20.5 -90.5t56 -72t82 -47.5t98.5 -17zM964 6q52 0 95 18t74 48.5t48.5 71.5t17.5 88q0 50 -20 93t-54 74.5t-78.5 49.5
t-93.5 18q-48 0 -89 -19t-71.5 -51.5t-48 -75t-17.5 -89.5t19.5 -88t52 -71.5t75.5 -48.5t90 -18zM594 0h69v735h-69v-735zM249 544h83v-77h-83v77zM1003 191h-83v80h83v-80z" />
    <glyph glyph-name="ampersand" unicode="&#x26;" horiz-adv-x="1221" 
d="M1098 740h-846q-38 0 -73 -15.5t-61.5 -41.5t-42.5 -61.5t-16 -74.5q0 -29 7.5 -58.5t22.5 -54.5q-17 -42 -28 -81t-11 -85q0 -56 16.5 -105.5t48 -86.5t77.5 -58t104 -21h622q32 0 60.5 12.5t52 33.5t41 49.5t27.5 60.5l72 -15v199l-71 19v114h-188v-71l-640 150h826
v191zM878 191h-629v146z" />
    <glyph glyph-name="quotesingle" unicode="'" horiz-adv-x="283" 
d="M50 539h49v-64h-46v-131q32 0 64 8.5t58 26t42 43t16 59.5v193h-183v-135z" />
    <glyph glyph-name="parenleft" unicode="(" horiz-adv-x="301" 
d="M251 674v160q-41 0 -77.5 -14.5t-64 -40t-43.5 -60t-16 -73.5v-538q0 -47 16 -84t43 -63t63.5 -40t78.5 -14v159h-55v608h55z" />
    <glyph glyph-name="parenright" unicode=")" horiz-adv-x="302" 
d="M50 829v-160h55v-608h-55v-160q47 0 84.5 15t63.5 41.5t40 63.5t14 81v539q0 39 -14 73t-40 59.5t-63.5 40.5t-84.5 15z" />
    <glyph glyph-name="asterisk" unicode="*" horiz-adv-x="557" 
d="M280 519l-55 89l-118 -65l61 -92h-118v-123h109l-50 -94l118 -65l55 85l59 -85l114 65l-51 94h103v123h-105l49 90l-119 67z" />
    <glyph glyph-name="plus" unicode="+" horiz-adv-x="640" 
d="M230 645v-180h-180v-180h180v-180h180v180h180v180h-180v180h-180z" />
    <glyph glyph-name="comma" unicode="," horiz-adv-x="282" 
d="M50 0h49v-64h-45v-133q30 0 62 11t57.5 30t42 44t16.5 54v193h-182v-135z" />
    <glyph glyph-name="hyphen" unicode="-" horiz-adv-x="570" 
d="M50 336h470v168h-470v-168z" />
    <glyph glyph-name="period" unicode="." horiz-adv-x="315" 
d="M50 0h215v199h-215v-199z" />
    <glyph glyph-name="slash" unicode="/" horiz-adv-x="1094" 
d="M1044 735h-259l-735 -735h260z" />
    <glyph glyph-name="zero" unicode="0" horiz-adv-x="1123" 
d="M824 737h-523q-46 0 -91 -15.5t-80.5 -43t-57.5 -67t-22 -87.5v-280q0 -50 21 -93.5t56.5 -76t81 -51t94.5 -18.5h535q49 0 92 19t75 51.5t50 76t18 92.5v249q0 49 -17 93.5t-49 78t-78.5 53t-104.5 19.5zM235 548h658v-350h-658v350z" />
    <glyph glyph-name="one" unicode="1" horiz-adv-x="561" 
d="M511 547q0 46 -14 81.5t-38.5 59.5t-58 36t-73.5 12q-43 0 -79 -15t-71 -44l-127 -119l132 -141l141 141v-558h188v547z" />
    <glyph glyph-name="two" unicode="2" horiz-adv-x="917" 
d="M201 191v91h509q31 0 59.5 18.5t50.5 45.5t34.5 59t12.5 59v108q0 29 -15 58.5t-38 53.5t-51.5 39t-55.5 15h-657v-180h679v-94h-489q-39 0 -72.5 -17t-58.5 -45t-39.5 -64.5t-14.5 -75.5v-262h796v191h-650z" />
    <glyph glyph-name="three" unicode="3" horiz-adv-x="1129" 
d="M50 738v-188h837v-86h-837v-191h837v-82h-834v-188h790q52 0 95 18.5t74.5 50.5t49 76.5t17.5 95.5q0 74 -48 129q20 34 31.5 70.5t11.5 73.5q0 51 -20.5 92t-55 69.5t-80 44t-94.5 15.5h-774z" />
    <glyph glyph-name="four" unicode="4" horiz-adv-x="1260" 
d="M937 392h-685v346h-202v-277q0 -74 19 -124t55.5 -80t89.5 -42.5t121 -12.5h602v-202h193v202h80v190h-80v348h-193v-348z" />
    <glyph glyph-name="five" unicode="5" horiz-adv-x="1162" 
d="M50 276h870v-83h-867v-193h759q59 0 113 14t95.5 43.5t66.5 75.5t25 109q0 48 -19.5 90t-52 72.5t-75.5 48t-89 17.5h-633v82h824v184h-1017v-460z" />
    <glyph glyph-name="six" unicode="6" horiz-adv-x="1164" 
d="M1075 735h-731q-58 0 -111 -13t-93.5 -41.5t-65 -73.5t-24.5 -110v-246q0 -49 16.5 -94.5t46.5 -80t72 -55.5t92 -21h599q48 0 91.5 18.5t76 50.5t51.5 75t19 91q0 46 -17.5 87.5t-48 73t-71.5 50t-87 18.5h-643v83h828v188zM247 273h675v-78h-675v78z" />
    <glyph glyph-name="seven" unicode="7" 
d="M50 735v-191h851l-829 -547h332l593 393q45 29 67 66.5t22 87.5q0 40 -17 75t-45 60.5t-64.5 40.5t-75.5 15h-834z" />
    <glyph glyph-name="eight" unicode="8" horiz-adv-x="1160" 
d="M324 3h517q56 0 105 15.5t85.5 45.5t57.5 73t21 98q0 75 -48 138q20 29 34 62t14 84q0 45 -18.5 85t-50.5 70t-74 47t-88 17h-582q-48 0 -92.5 -16t-79 -44.5t-55 -68.5t-20.5 -88q0 -37 13 -78.5t35 -77.5q-23 -32 -35.5 -67t-12.5 -71q0 -51 21 -92.5t58 -70.5t87 -45
t108 -16zM913 558v-88h-666v88h666zM915 273v-77h-668v77h668z" />
    <glyph glyph-name="nine" unicode="9" horiz-adv-x="1174" 
d="M859 735h-555q-49 0 -95 -17.5t-81 -48t-56.5 -73t-21.5 -93.5q0 -49 20 -90.5t53.5 -72t77.5 -47.5t92 -17h638v-85h-840v-191h793q47 0 90.5 19t76.5 51t53 74.5t20 90.5v259q0 49 -18.5 93t-53 77t-83.5 52t-110 19zM235 547h696v-86h-696v86z" />
    <glyph glyph-name="colon" unicode=":" horiz-adv-x="315" 
d="M50 396h215v208h-215v-208zM50 110h215v205h-215v-205z" />
    <glyph glyph-name="semicolon" unicode=";" horiz-adv-x="326" 
d="M50 0h69v-77h-64v-156q46 0 86 10.5t70 32t47.5 53.5t17.5 76v210h-226v-149zM50 227h226v151h-226v-151z" />
    <glyph glyph-name="less" unicode="&#x3c;" horiz-adv-x="739" 
d="M50 375l639 -270v180l-211 90l211 90v180z" />
    <glyph glyph-name="equal" unicode="=" horiz-adv-x="460" 
d="M50 540v-144h360v144h-360zM50 354v-144h360v144h-360z" />
    <glyph glyph-name="greater" unicode="&#x3e;" horiz-adv-x="707" 
d="M657 375l-607 270v-180l200 -90l-200 -90v-180z" />
    <glyph glyph-name="question" unicode="?" horiz-adv-x="1188" 
d="M881 735h-831v-185h895v-86h-445v-185h392q51 0 96 18t78.5 50t52.5 74.5t19 92.5q0 49 -19.5 90t-53.5 70t-81.5 45t-102.5 16zM500 -3h193v191h-193v-191z" />
    <glyph glyph-name="at" unicode="@" horiz-adv-x="1054" 
d="M635 456q-34 55 -110 55q-58 0 -104 -24t-78.5 -64t-50 -92t-17.5 -108q0 -175 172 -175q46 0 80.5 18t63.5 58q9 -77 117 -77q66 0 120.5 28.5t93.5 76t60.5 107.5t21.5 123q0 90 -35 159t-94.5 116t-138 71t-165.5 24q-107 0 -201.5 -36.5t-165.5 -102t-112.5 -155.5
t-41.5 -198q0 -99 38 -178t102.5 -134t150.5 -84t182 -29q198 0 362 120l-58 80q-131 -93 -293 -93q-77 0 -144 20.5t-116.5 61t-78 100.5t-28.5 139q0 85 32.5 155t88 120t129 77.5t156.5 27.5q63 0 120.5 -16.5t101.5 -49.5t70 -82t26 -115q0 -36 -11 -77.5t-32.5 -76.5
t-52.5 -58.5t-70 -23.5q-12 0 -18.5 8.5t-6.5 18.5q0 6 3 12l78 313h-121zM578 247q-11 -48 -39.5 -75.5t-64.5 -27.5q-28 0 -43.5 20t-15.5 56q0 27 7 61t22 64t37.5 50.5t53.5 20.5q28 0 45.5 -19t20.5 -53z" />
    <glyph glyph-name="A" unicode="A" horiz-adv-x="1094" 
d="M261 0l102 193h366l111 -193h204l-287 550q-23 44 -43 79t-43 59t-52 37t-69 13q-41 0 -71.5 -12.5t-54.5 -36.5t-44.5 -58t-42.5 -76l-287 -555h211zM459 382l88 157l87 -157h-175z" />
    <glyph glyph-name="B" unicode="B" horiz-adv-x="1169" 
d="M837 738h-787v-738h820q48 0 93 18.5t79.5 51t55.5 76t21 94.5q0 22 -5.5 40t-13.5 33.5t-18.5 30t-20.5 29.5q42 65 42 138q0 57 -20 100t-55 71t-84 42t-107 14zM906 191h-660v85h660v-85zM906 467h-660v83h660v-83z" />
    <glyph glyph-name="C" unicode="C" horiz-adv-x="1151" 
d="M1101 737h-771q-134 0 -207 -66.5t-73 -205.5v-248q0 -48 21 -87.5t55 -68.5t77.5 -45t89.5 -16h808v184h-859v368h859v185z" />
    <glyph glyph-name="D" unicode="D" horiz-adv-x="1141" 
d="M50 0h787q50 0 96 17t81 48t56 73.5t21 93.5v274q0 52 -20.5 94.5t-55 73t-80 47.5t-95.5 17h-790v-738zM898 182h-658v370h658v-370z" />
    <glyph glyph-name="E" unicode="E" 
d="M312 740q-55 0 -102.5 -16t-83 -46.5t-56 -74.5t-20.5 -100v-268q0 -53 21.5 -96.5t57.5 -75t83 -49t98 -17.5h776v196h-848v80h848v191h-848v86h848v190h-774z" />
    <glyph glyph-name="F" unicode="F" horiz-adv-x="1113" 
d="M50 0h185v279h826v185h-826v80h828v188h-734q-57 0 -107.5 -13.5t-88.5 -42t-60.5 -73t-22.5 -106.5v-497z" />
    <glyph glyph-name="G" unicode="G" horiz-adv-x="1155" 
d="M580 467v-191h332v-83h-675v359h868v186h-785q-127 0 -198.5 -54t-71.5 -151v-295q0 -57 23 -101t61 -73.5t87 -45t102 -15.5h497q53 0 103.5 13.5t90.5 42t64 71.5t24 102v235h-522z" />
    <glyph glyph-name="H" unicode="H" horiz-adv-x="1155" 
d="M237 738h-187v-738h187v279h681v-279h187v738h-187v-271h-681v271z" />
    <glyph glyph-name="I" unicode="I" horiz-adv-x="307" 
d="M257 738h-207v-744h207v744z" />
    <glyph glyph-name="J" unicode="J" horiz-adv-x="1134" 
d="M1084 207v528h-190v-544h-647v66h-197q0 -51 17.5 -97.5t48 -82t72 -56.5t90.5 -21h596q39 0 77 16t67.5 44t47.5 65.5t18 81.5z" />
    <glyph glyph-name="K" unicode="K" horiz-adv-x="1149" 
d="M712 738l-322 -190q-26 -15 -46.5 -29t-37 -29t-28.5 -32t-22 -38v318h-206v-738h206v313q18 -43 46.5 -69.5t75.5 -52.5l334 -191h387l-640 368l635 370h-382z" />
    <glyph glyph-name="L" unicode="L" horiz-adv-x="1133" 
d="M1083 193h-840v547h-193v-513q0 -45 19.5 -86t51.5 -72.5t73 -50t85 -18.5h804v193z" />
    <glyph glyph-name="M" unicode="M" horiz-adv-x="1194" 
d="M229 -5v540l174 -379q15 -33 34 -64.5t42.5 -55.5t53 -39t65.5 -15q39 0 67 12.5t49.5 35.5t38.5 54.5t35 70.5l177 387v-542h179v532q0 40 -13 77t-37 65.5t-58 45.5t-76 17q-66 0 -112 -35t-70 -102l-183 -433l-167 411q-13 33 -32 62t-44 50.5t-55.5 34t-66.5 12.5
q-38 0 -71 -14.5t-57 -39t-38 -58t-14 -71.5v-554z" />
    <glyph glyph-name="N" unicode="N" horiz-adv-x="1130" 
d="M50 575v-575h187v552l503 -491q24 -19 43.5 -32.5t37.5 -22.5t36 -13t39 -4q44 0 78 16.5t57.5 44.5t36 66t12.5 80v539h-188v-550l-503 495q-74 72 -154 72q-36 0 -69 -14.5t-59 -38.5t-41.5 -56t-15.5 -68z" />
    <glyph glyph-name="O" unicode="O" horiz-adv-x="1139" 
d="M312 735q-50 0 -97 -16t-84 -45t-59 -69t-22 -88v-279q0 -51 18 -94t49.5 -74.5t74.5 -49t93 -17.5h569q46 0 88.5 18t75 48.5t52 71t19.5 86.5v273q0 46 -19 89t-51 75t-74 51.5t-88 19.5h-545zM895 544v-356h-654v356h654z" />
    <glyph glyph-name="P" unicode="P" horiz-adv-x="1180" 
d="M867 738h-817v-738h198v273h641q48 0 92 18.5t77 50.5t52.5 74.5t19.5 91.5q0 51 -22.5 93t-59 72.5t-84 47.5t-97.5 17zM248 550h686v-94h-686v94z" />
    <glyph glyph-name="Q" unicode="Q" horiz-adv-x="1199" 
d="M1149 193h-77v318q0 49 -20.5 89.5t-55 70t-78.5 45.5t-92 16h-536q-48 0 -91.5 -16.5t-76.5 -46.5t-52.5 -71t-19.5 -90v-304q0 -50 24 -88.5t60 -64t77 -38.5t74 -13h864v193zM889 193h-665v350h665v-350z" />
    <glyph glyph-name="R" unicode="R" horiz-adv-x="1139" 
d="M50 736v-736h194v276h655v-276h190v251q0 31 -13 64.5t-36 60.5q20 29 31 62t11 67q0 46 -18.5 87.5t-49.5 73t-72 50.5t-85 19zM244 461v89h655v-89h-655z" />
    <glyph glyph-name="S" unicode="S" horiz-adv-x="1233" 
d="M932 461h-680v90h881v181h-806q-51 0 -100.5 -15.5t-88.5 -45t-63.5 -72t-24.5 -96.5q0 -50 21 -92.5t56 -73t80.5 -47.5t94.5 -17h690v-88h-895v-185h837q48 0 93 17t79.5 47t55.5 71.5t21 91.5q0 48 -19.5 91t-53 74.5t-79.5 50t-99 18.5z" />
    <glyph glyph-name="T" unicode="T" horiz-adv-x="1149" 
d="M50 737v-187h433v-550h186v550h430v187h-1049z" />
    <glyph glyph-name="U" unicode="U" horiz-adv-x="1160" 
d="M243 738h-193v-500q0 -44 19.5 -86.5t52 -76.5t73.5 -54.5t84 -20.5h610q40 0 79.5 18.5t71 49t51 69t19.5 78.5v523h-196v-553h-671v553z" />
    <glyph glyph-name="V" unicode="V" horiz-adv-x="1119" 
d="M265 735h-215l298 -569q18 -36 39 -67t46.5 -54.5t56.5 -37t71 -13.5q36 0 64.5 11t51 30.5t41.5 46.5t36 59l315 597h-212l-299 -553z" />
    <glyph glyph-name="W" unicode="W" horiz-adv-x="1299" 
d="M246 738h-196l110 -581q6 -34 21.5 -63t38 -50.5t52.5 -34t65 -12.5q72 0 123.5 41t72.5 111l122 401l113 -404q26 -72 72.5 -112t115.5 -40q35 0 64.5 12t52.5 33.5t39.5 51t25.5 64.5l111 583h-188l-105 -534l-124 415q-19 63 -62.5 100.5t-106.5 37.5
q-72 0 -122.5 -39t-70.5 -108l-124 -417z" />
    <glyph glyph-name="X" unicode="X" 
d="M1081 738h-243l-194 -221q-7 -8 -19 -20.5t-24 -27.5t-22 -30t-13 -28q-6 13 -10 20.5t-9.5 15t-14 17.5t-23.5 28l-210 246h-249l332 -368l-318 -370h246l193 232q4 5 13.5 16t19 24.5t18.5 27t12 24.5q14 -26 34.5 -50.5t49.5 -55.5l207 -218h229l-320 367z" />
    <glyph glyph-name="Y" unicode="Y" horiz-adv-x="1114" 
d="M470 218v-218h185v218l409 520h-233l-273 -337l-271 337h-237z" />
    <glyph glyph-name="Z" unicode="Z" horiz-adv-x="1255" 
d="M1006 740h-925v-188h906l-790 -171q-33 -7 -60.5 -23.5t-46.5 -40t-29.5 -53t-10.5 -62.5q0 -45 20 -81.5t52.5 -63t73.5 -40.5t84 -14h889v193h-870l749 163q35 7 64 23.5t49.5 40.5t32 53.5t11.5 64.5q0 40 -15 76t-41 63.5t-63 43.5t-80 16z" />
    <glyph glyph-name="bracketleft" unicode="[" horiz-adv-x="433" 
d="M260 540h123v210h-333v-750h333v210h-123v330z" />
    <glyph glyph-name="backslash" unicode="\" horiz-adv-x="1092" 
d="M308 735h-258l733 -735h259z" />
    <glyph glyph-name="bracketright" unicode="]" horiz-adv-x="433" 
d="M173 540v-330h-123v-210h333v750h-333v-210h123z" />
    <glyph glyph-name="asciicircum" unicode="^" horiz-adv-x="514" 
d="M257 779l-207 -239h144l63 63l63 -63h144z" />
    <glyph glyph-name="underscore" unicode="_" horiz-adv-x="612" 
d="M50 -280h512v144h-512v-144z" />
    <glyph glyph-name="grave" unicode="`" horiz-adv-x="283" 
d="M50 539h49v-64h-46v-131q34 0 66 9.5t57.5 27t41 43t15.5 57.5v193h-183v-135z" />
    <glyph glyph-name="braceleft" unicode="{" horiz-adv-x="496" 
d="M323 540h123v210h-333v-312l-63 -63l63 -63v-312h333v210h-123v330z" />
    <glyph glyph-name="bar" unicode="|" horiz-adv-x="244" 
d="M194 800h-144v-850h144v850z" />
    <glyph glyph-name="braceright" unicode="}" horiz-adv-x="496" 
d="M173 540v-330h-123v-210h333v312l63 63l-63 63v312h-333v-210h123z" />
    <glyph glyph-name="asciitilde" unicode="~" horiz-adv-x="457" 
d="M323 429l-3 3q-7 7 -16 18.5t-24.5 23t-39.5 19.5t-61 8q-33 0 -57.5 -12.5t-40 -33.5t-23.5 -48t-8 -55q0 -36 23 -68l60 42l3 -3q4 -5 13 -16t25 -23t41 -21t63 -9q31 0 55 12.5t40.5 33t25 47.5t8.5 56q0 30 -23 68z" />
    <glyph glyph-name="quotesinglbase" unicode="&#x201a;" horiz-adv-x="282" 
d="M50 0h49v-64h-45v-133q34 0 66 10t57 28.5t40 44t15 56.5v193h-182v-135z" />
    <glyph glyph-name="quotedblbase" unicode="&#x201e;" horiz-adv-x="643" 
d="M50 -120q52 13 96.5 41t76 67t49.5 87t18 101v34h-240v-330zM353 -120q52 13 96.5 41t76 67t49.5 87t18 101v34h-240v-330z" />
    <glyph glyph-name="ellipsis" unicode="&#x2026;" horiz-adv-x="998" 
d="M50 0h210v210h-210v-210zM394 0h210v210h-210v-210zM738 0h210v210h-210v-210z" />
    <glyph glyph-name="dagger" unicode="&#x2020;" horiz-adv-x="640" 
d="M230 720v-180h-180v-165h180v-375h180v375h180v165h-180v180h-180z" />
    <glyph glyph-name="perthousand" unicode="&#x2030;" horiz-adv-x="1058" 
d="M633 750h-120l-433 -750h120zM725 141q0 -29 11 -55t30 -45t44.5 -30t55.5 -11t56 11t45 30t30 45t11 55t-11 55t-30 45t-45 30t-56 11q-29 0 -54.5 -11t-45 -30t-30.5 -45t-11 -55zM50 609q0 -29 11 -55t30 -45t44.5 -30t55.5 -11t56 11t45 30t30 45t11 55t-11 55
t-30 45t-45 30t-56 11q-29 0 -54.5 -11t-45 -30t-30.5 -45t-11 -55zM380 141q0 -29 11 -55t30 -45t44.5 -30t55.5 -11t56 11t45 30t30 45t11 55t-11 55t-30 45t-45 30t-56 11q-29 0 -54.5 -11t-45 -30t-30.5 -45t-11 -55z" />
    <glyph glyph-name="quilsinglleft" horiz-adv-x="399" 
d="M50 375l299 -259v238h-89v42h89v238z" />
    <glyph glyph-name="quoteleft" unicode="&#x2018;" horiz-adv-x="285" 
d="M235 482h-50v63h47v131q-26 0 -58 -9.5t-59.5 -27.5t-46 -43.5t-18.5 -56.5v-192h185v135z" />
    <glyph glyph-name="quoteright" unicode="&#x2019;" horiz-adv-x="283" 
d="M50 539h49v-64h-46v-131q28 0 59.5 10t58.5 28t44.5 43t17.5 56v193h-183v-135z" />
    <glyph glyph-name="quotedblleft" unicode="&#x201c;" horiz-adv-x="543" 
d="M257 530h-55v63h58v147q-40 0 -78 -11t-67 -31.5t-47 -50t-18 -67.5v-199h207v149zM493 529h-55v67h54v144q-38 0 -74.5 -10.5t-65.5 -30t-47 -48t-18 -64.5v-206h206v148z" />
    <glyph glyph-name="quotedblright" unicode="&#x201d;" horiz-adv-x="539" 
d="M285 522v-151q40 0 76.5 12t65 33t45.5 50.5t17 64.5v206h-211v-149h58v-66h-51zM50 737v-149h54v-66h-54v-151q41 0 78 10t65 29.5t44.5 48t16.5 65.5v213h-204z" />
    <glyph glyph-name="bullet" unicode="&#x2022;" horiz-adv-x="383" 
d="M50 375q0 -29 11 -55t30 -45t44.5 -30t55.5 -11t56 11t45 30t30 45t11 55t-11 55t-30 45t-45 30t-56 11q-29 0 -54.5 -11t-45 -30t-30.5 -45t-11 -55z" />
    <glyph glyph-name="endash" unicode="&#x2013;" horiz-adv-x="658" 
d="M50 336h558v168h-558v-168z" />
    <glyph glyph-name="emdash" unicode="&#x2014;" horiz-adv-x="874" 
d="M50 254h774v149h-774v-149z" />
    <glyph glyph-name="trademark" unicode="&#x2122;" horiz-adv-x="766" 
d="M362 734v-280h92v184l68 -184h35l69 184v-184h90v280h-128l-48 -133l-50 133h-128zM50 734v-76h81v-204h101v204h81v76h-263z" />
    <glyph glyph-name="quilsinglright" horiz-adv-x="399" 
d="M349 375l-299 259v-238h89v-42h-89v-238z" />
    <glyph glyph-name="currency" unicode="&#xa4;" horiz-adv-x="669" 
d="M117 726l-67 -68l99 -101q-33 -53 -33 -113q0 -65 33 -116l-99 -100l67 -70l99 101q55 -35 120 -35q64 0 117 35l99 -101l67 70l-99 100q16 27 25 55t9 59q0 63 -34 115l99 101l-67 68l-99 -100q-46 34 -117 34q-70 0 -120 -34zM457 442q0 -24 -10 -46.5t-26.5 -39
t-38.5 -26.5t-46 -10q-25 0 -47.5 9.5t-39.5 26t-27 39t-10 47.5t10 47t27 38.5t39.5 26.5t47.5 10q24 0 45.5 -10t38.5 -26.5t27 -38.5t10 -47z" />
    <glyph glyph-name="section" unicode="&#xa7;" horiz-adv-x="424" 
d="M144 110l-55 -80q48 -30 90 -30q37 0 72.5 11.5t62.5 33t43.5 53t16.5 71.5q0 38 -7 66t-17.5 48t-22.5 33.5t-22 22.5q31 21 50 54.5t19 76.5q0 51 -12 84.5t-27.5 54.5t-30 31.5t-20.5 16.5l-5 5l55 77q-40 31 -88 31q-38 0 -73 -10t-62.5 -31t-44 -53t-16.5 -75
q0 -39 6.5 -66t17 -46.5t23 -32.5t23.5 -22q-32 -21 -51 -54t-19 -81q0 -49 11 -80.5t25.5 -51t30 -31.5t24.5 -22z" />
    <glyph glyph-name="copyright" unicode="&#xa9;" horiz-adv-x="852" 
d="M425 746q-77 0 -145.5 -31t-119.5 -83t-80.5 -120t-29.5 -142q0 -76 30.5 -144t82 -119.5t119.5 -81.5t143 -30t143.5 30t120.5 81t82.5 119t30.5 145q0 76 -26.5 144.5t-75.5 120t-118.5 81.5t-156.5 30zM725 372q0 -62 -25 -116.5t-66 -95.5t-95.5 -64.5t-112.5 -23.5
q-61 0 -115.5 24t-95 65.5t-64.5 96t-24 114.5q0 61 23.5 115t64 94.5t95 64.5t116.5 24q59 0 113 -23.5t95.5 -64t66 -95t24.5 -115.5zM613 442q-4 70 -55 110t-139 40q-47 0 -84.5 -17.5t-63 -48t-39 -71.5t-13.5 -87q0 -103 56 -160.5t153 -57.5q85 0 136.5 44t54.5 119
h-124q-3 -71 -64 -71q-82 0 -82 130q0 66 20.5 101.5t57.5 35.5q61 0 66 -67h120z" />
    <glyph glyph-name="guillemotleft" unicode="&#xab;" horiz-adv-x="554" 
d="M308 602h-120l-96 -120q-13 -18 -27.5 -37.5t-14.5 -42.5q0 -15 2.5 -24.5t8 -18t14 -18t20.5 -22.5l102 -118h113l-158 199zM502 595h-120l-96 -116q-13 -16 -27.5 -35.5t-14.5 -41.5q0 -15 2.5 -24t8 -17.5t14 -17t20.5 -21.5l102 -114h113l-158 192z" />
    <glyph glyph-name="logicalnot" unicode="&#xac;" horiz-adv-x="597" 
d="M50 315h379v-105h118v225h-497v-120z" />
    <glyph glyph-name="registered" unicode="&#xae;" horiz-adv-x="852" 
d="M425 746q-78 0 -146.5 -31t-119 -83t-80 -120t-29.5 -142q0 -76 30.5 -144t82 -119.5t119.5 -81.5t143 -30t143.5 30t120.5 81t82.5 119t30.5 145q0 76 -29.5 144.5t-80.5 120t-120 81.5t-147 30zM725 372q0 -63 -25 -117.5t-66 -95t-95.5 -64t-112.5 -23.5
q-61 0 -115.5 24t-95 65.5t-64.5 96t-24 114.5q0 61 23.5 115t64 94.5t95 64.5t116.5 24q59 0 113 -24t95.5 -64.5t66 -95t24.5 -114.5zM263 582v-406h128v156h12l73 -156h139l-88 178q39 14 60.5 42t21.5 67q0 60 -45.5 89.5t-133.5 29.5h-167zM411 503q66 0 66 -47
q0 -50 -59 -50h-27v97h20z" />
    <glyph glyph-name="degree" unicode="&#xb0;" horiz-adv-x="383" 
d="M50 609q0 -29 11 -55t30 -45t44.5 -30t55.5 -11t56 11t45 30t30 45t11 55t-11 55t-30 45t-45 30t-56 11q-29 0 -54.5 -11t-45 -30t-30.5 -45t-11 -55z" />
    <glyph glyph-name="plusminus" unicode="&#xb1;" horiz-adv-x="699" 
d="M279 631v-155h-229v-136h229v-154h140v154h230v136h-230v155h-140zM50 116v-136h599v136h-599z" />
    <glyph glyph-name="mu" unicode="&#xb5;" horiz-adv-x="778" 
d="M154 544l-104 -755h206l36 271q26 -62 88 -62q59 0 94 68l-10 -66h184l80 544h-210l-42 -294q-8 -55 -30 -80.5t-62 -25.5q-63 0 -63 66q0 4 0.5 10t1.5 16l42 308h-211z" />
    <glyph glyph-name="paragraph" unicode="&#xb6;" horiz-adv-x="602" 
d="M552 740h-307q-44 0 -80 -12.5t-61.5 -35.5t-39.5 -55.5t-14 -71.5q0 -37 13 -68t36 -53.5t56 -36t74 -15.5v-392h102v668h70v-668h100v668h51v72z" />
    <glyph glyph-name="periodcentered" unicode="&#xb7;" horiz-adv-x="340" 
d="M50 273h240v210h-240v-210z" />
    <glyph glyph-name="guillemotright" unicode="&#xbb;" horiz-adv-x="558" 
d="M369 602h-121l157 -202l-159 -199h114l103 118q12 13 20.5 22.5t14 18t8 18t2.5 24.5q0 23 -14.5 42.5t-27.5 37.5zM173 595h-121l157 -195l-159 -192h114l103 114q12 13 20.5 21.5t14 17t8 17.5t2.5 24q0 22 -14.5 41.5t-27.5 35.5z" />
    <glyph glyph-name="FL0061h" horiz-adv-x="1094" 
d="M261 0l102 193h366l111 -193h204l-287 550q-23 44 -43 79t-43 59t-52 37t-69 13q-41 0 -71.5 -12.5t-54.5 -36.5t-44.5 -58t-42.5 -76l-287 -555h211zM459 382l88 157l87 -157h-175z" />
    <glyph glyph-name="FL0062h" horiz-adv-x="1169" 
d="M837 738h-787v-738h820q48 0 93 18.5t79.5 51t55.5 76t21 94.5q0 22 -5.5 40t-13.5 33.5t-18.5 30t-20.5 29.5q42 65 42 138q0 57 -20 100t-55 71t-84 42t-107 14zM906 191h-660v85h660v-85zM906 467h-660v83h660v-83z" />
    <glyph glyph-name="FL0063h" horiz-adv-x="1151" 
d="M1101 737h-771q-134 0 -207 -66.5t-73 -205.5v-248q0 -48 21 -87.5t55 -68.5t77.5 -45t89.5 -16h808v184h-859v368h859v185z" />
    <glyph glyph-name="FL0064h" horiz-adv-x="1141" 
d="M50 0h787q50 0 96 17t81 48t56 73.5t21 93.5v274q0 52 -20.5 94.5t-55 73t-80 47.5t-95.5 17h-790v-738zM898 182h-658v370h658v-370z" />
    <glyph glyph-name="FL0065h" 
d="M312 740q-55 0 -102.5 -16t-83 -46.5t-56 -74.5t-20.5 -100v-268q0 -53 21.5 -96.5t57.5 -75t83 -49t98 -17.5h776v196h-848v80h848v191h-848v86h848v190h-774z" />
    <glyph glyph-name="FL0066h" horiz-adv-x="1113" 
d="M50 0h185v279h826v185h-826v80h828v188h-734q-57 0 -107.5 -13.5t-88.5 -42t-60.5 -73t-22.5 -106.5v-497z" />
    <glyph glyph-name="FL0067h" horiz-adv-x="1155" 
d="M580 467v-191h332v-83h-675v359h868v186h-785q-127 0 -198.5 -54t-71.5 -151v-295q0 -57 23 -101t61 -73.5t87 -45t102 -15.5h497q53 0 103.5 13.5t90.5 42t64 71.5t24 102v235h-522z" />
    <glyph glyph-name="FL0068h" horiz-adv-x="1155" 
d="M237 738h-187v-738h187v279h681v-279h187v738h-187v-271h-681v271z" />
    <glyph glyph-name="FL0069h" horiz-adv-x="307" 
d="M257 738h-207v-744h207v744z" />
    <glyph glyph-name="FL006Ah" horiz-adv-x="1134" 
d="M1084 207v528h-190v-544h-647v66h-197q0 -51 17.5 -97.5t48 -82t72 -56.5t90.5 -21h596q39 0 77 16t67.5 44t47.5 65.5t18 81.5z" />
    <glyph glyph-name="FL006Bh" horiz-adv-x="1149" 
d="M712 738l-322 -190q-26 -15 -46.5 -29t-37 -29t-28.5 -32t-22 -38v318h-206v-738h206v313q18 -43 46.5 -69.5t75.5 -52.5l334 -191h387l-640 368l635 370h-382z" />
    <glyph glyph-name="FL006Ch" horiz-adv-x="1133" 
d="M1083 193h-840v547h-193v-513q0 -45 19.5 -86t51.5 -72.5t73 -50t85 -18.5h804v193z" />
    <glyph glyph-name="FL006Dh" horiz-adv-x="1194" 
d="M229 -5v540l174 -379q15 -33 34 -64.5t42.5 -55.5t53 -39t65.5 -15q39 0 67 12.5t49.5 35.5t38.5 54.5t35 70.5l177 387v-542h179v532q0 40 -13 77t-37 65.5t-58 45.5t-76 17q-66 0 -112 -35t-70 -102l-183 -433l-167 411q-13 33 -32 62t-44 50.5t-55.5 34t-66.5 12.5
q-38 0 -71 -14.5t-57 -39t-38 -58t-14 -71.5v-554z" />
    <glyph glyph-name="FL006Eh" horiz-adv-x="1130" 
d="M50 575v-575h187v552l503 -491q24 -19 43.5 -32.5t37.5 -22.5t36 -13t39 -4q44 0 78 16.5t57.5 44.5t36 66t12.5 80v539h-188v-550l-503 495q-74 72 -154 72q-36 0 -69 -14.5t-59 -38.5t-41.5 -56t-15.5 -68z" />
    <glyph glyph-name="FL006Fh" horiz-adv-x="1139" 
d="M312 735q-50 0 -97 -16t-84 -45t-59 -69t-22 -88v-279q0 -51 18 -94t49.5 -74.5t74.5 -49t93 -17.5h569q46 0 88.5 18t75 48.5t52 71t19.5 86.5v273q0 46 -19 89t-51 75t-74 51.5t-88 19.5h-545zM895 544v-356h-654v356h654z" />
    <glyph glyph-name="FL0070h" horiz-adv-x="1180" 
d="M867 738h-817v-738h198v273h641q48 0 92 18.5t77 50.5t52.5 74.5t19.5 91.5q0 51 -22.5 93t-59 72.5t-84 47.5t-97.5 17zM248 550h686v-94h-686v94z" />
    <glyph glyph-name="FL0071h" horiz-adv-x="1199" 
d="M1149 193h-77v318q0 49 -20.5 89.5t-55 70t-78.5 45.5t-92 16h-536q-48 0 -91.5 -16.5t-76.5 -46.5t-52.5 -71t-19.5 -90v-304q0 -50 24 -88.5t60 -64t77 -38.5t74 -13h864v193zM889 193h-665v350h665v-350z" />
    <glyph glyph-name="FL0072h" horiz-adv-x="1139" 
d="M50 736v-736h194v276h655v-276h190v251q0 31 -13 64.5t-36 60.5q20 29 31 62t11 67q0 46 -18.5 87.5t-49.5 73t-72 50.5t-85 19zM244 461v89h655v-89h-655z" />
    <glyph glyph-name="FL0073h" horiz-adv-x="1233" 
d="M932 461h-680v90h881v181h-806q-51 0 -100.5 -15.5t-88.5 -45t-63.5 -72t-24.5 -96.5q0 -50 21 -92.5t56 -73t80.5 -47.5t94.5 -17h690v-88h-895v-185h837q48 0 93 17t79.5 47t55.5 71.5t21 91.5q0 48 -19.5 91t-53 74.5t-79.5 50t-99 18.5z" />
    <glyph glyph-name="FL0074h" horiz-adv-x="1149" 
d="M50 737v-187h433v-550h186v550h430v187h-1049z" />
    <glyph glyph-name="FL0075h" horiz-adv-x="1160" 
d="M243 738h-193v-500q0 -44 19.5 -86.5t52 -76.5t73.5 -54.5t84 -20.5h610q40 0 79.5 18.5t71 49t51 69t19.5 78.5v523h-196v-553h-671v553z" />
    <glyph glyph-name="FL0076h" horiz-adv-x="1119" 
d="M265 735h-215l298 -569q18 -36 39 -67t46.5 -54.5t56.5 -37t71 -13.5q36 0 64.5 11t51 30.5t41.5 46.5t36 59l315 597h-212l-299 -553z" />
    <glyph glyph-name="FL0077h" horiz-adv-x="1299" 
d="M246 738h-196l110 -581q6 -34 21.5 -63t38 -50.5t52.5 -34t65 -12.5q72 0 123.5 41t72.5 111l122 401l113 -404q26 -72 72.5 -112t115.5 -40q35 0 64.5 12t52.5 33.5t39.5 51t25.5 64.5l111 583h-188l-105 -534l-124 415q-19 63 -62.5 100.5t-106.5 37.5
q-72 0 -122.5 -39t-70.5 -108l-124 -417z" />
    <glyph glyph-name="FL0078h" 
d="M1081 738h-243l-194 -221q-7 -8 -19 -20.5t-24 -27.5t-22 -30t-13 -28q-6 13 -10 20.5t-9.5 15t-14 17.5t-23.5 28l-210 246h-249l332 -368l-318 -370h246l193 232q4 5 13.5 16t19 24.5t18.5 27t12 24.5q14 -26 34.5 -50.5t49.5 -55.5l207 -218h229l-320 367z" />
    <glyph glyph-name="FL0079h" horiz-adv-x="1114" 
d="M470 218v-218h185v218l409 520h-233l-273 -337l-271 337h-237z" />
    <glyph glyph-name="FL007Ah" horiz-adv-x="1255" 
d="M1006 740h-925v-188h906l-790 -171q-33 -7 -60.5 -23.5t-46.5 -40t-29.5 -53t-10.5 -62.5q0 -45 20 -81.5t52.5 -63t73.5 -40.5t84 -14h889v193h-870l749 163q35 7 64 23.5t49.5 40.5t32 53.5t11.5 64.5q0 40 -15 76t-41 63.5t-63 43.5t-80 16z" />
    <glyph glyph-name="FL00A0h" unicode="&#xa0;" horiz-adv-x="1000" 
 />
    <glyph glyph-name="FL00C0h" horiz-adv-x="1094" 
d="M261 0l102 193h366l111 -193h204l-287 550q-24 45 -44 80t-42.5 59t-51.5 36.5t-69 12.5q-41 0 -71.5 -12.5t-54.5 -36.5t-44.5 -58t-42.5 -76l-287 -555h211zM459 382l88 157l87 -157h-175z" />
    <glyph glyph-name="FL00C1h" horiz-adv-x="1173" 
d="M314 -3h555q49 0 95 17.5t81 48t56.5 73t21.5 93.5q0 49 -20 90.5t-54 72t-77.5 47.5t-91.5 17h-638v85h840v194h-793q-47 0 -90 -19t-76 -52t-53 -76t-20 -91v-499zM946 197h-696v86h696v-86z" />
    <glyph glyph-name="FL00C2h" horiz-adv-x="1169" 
d="M837 738h-787v-738h820q48 0 93 19t79.5 51.5t55.5 76t21 93.5q0 34 -19 68.5t-39 64.5q42 65 42 138q0 58 -20 101t-55.5 71t-84.5 41.5t-106 13.5zM906 191h-660v85h660v-85zM906 467h-660v83h660v-83z" />
    <glyph glyph-name="FL00C3h" horiz-adv-x="1133" 
d="M1083 547v193h-804q-44 0 -85 -18.5t-73 -50t-51.5 -72.5t-19.5 -86v-513h193v547h840z" />
    <glyph glyph-name="FL00C4h" horiz-adv-x="1250" 
d="M50 0h1150v196h-77v315q0 49 -20.5 89.5t-55 70t-78.5 45.5t-92 16h-536q-48 0 -91.5 -16.5t-76.5 -46.5t-52.5 -71t-19.5 -90v-312h-51v-196zM940 196h-665v347h665v-347z" />
    <glyph glyph-name="FL00C5h" 
d="M312 740q-55 0 -102.5 -16t-83 -46.5t-56 -74.5t-20.5 -100v-268q0 -53 21.5 -96.5t57.5 -75t83 -49t98 -17.5h776v196h-848v80h848v191h-848v86h848v190h-774z" />
    <glyph glyph-name="FL00C6h" horiz-adv-x="1337" 
d="M299 738h-244l317 -371l-322 -367h230l208 218q21 22 32.5 34t19 20.5t13 16t13.5 20.5v-309h206v313q7 -9 12.5 -17.5t14 -18.5t20.5 -24t32 -35l207 -218h229l-320 367l315 371h-243l-194 -221q-6 -7 -16.5 -18.5t-21.5 -24.5t-21 -26.5t-14 -24.5v315h-206v-310
q-5 10 -15 23t-20.5 25.5t-20 23.5t-15.5 17z" />
    <glyph glyph-name="FL00C7h" horiz-adv-x="1129" 
d="M50 738v-188h837v-86h-837v-191h837v-82h-834v-188h790q52 0 95 18.5t74.5 50.5t49 76.5t17.5 95.5q0 74 -48 129q20 34 31.5 70.5t11.5 73.5q0 51 -20.5 92t-55 69.5t-80 44t-94.5 15.5h-774z" />
    <glyph glyph-name="FL00C8h" horiz-adv-x="1130" 
d="M1080 575q0 46 -15.5 79.5t-41.5 55t-59 32t-69 10.5q-80 0 -154 -72l-503 -495v550h-188v-539q0 -42 12.5 -80t36 -66t57.5 -44.5t78 -16.5q42 0 81.5 17t74.5 55l503 491v-552h187v575z" />
    <glyph glyph-name="FL00C9h" horiz-adv-x="1130" 
d="M1080 575q0 45 -15.5 78t-41.5 55t-59 33t-69 11q-80 0 -154 -72l-503 -495v550h-188v-539q0 -42 12.5 -80t36 -66t57.5 -44.5t78 -16.5q42 0 84.5 19t71.5 53l503 491v-552h187v575zM303 867h558v168h-558v-168z" />
    <glyph glyph-name="FL00CAh" horiz-adv-x="1149" 
d="M712 737l-322 -189q-51 -30 -83 -57.5t-51 -70.5v318h-206v-738h206v313q18 -43 46.5 -69.5t75.5 -52.5l334 -191h387l-640 368l635 369h-382z" />
    <glyph glyph-name="FL00CBh" horiz-adv-x="1160" 
d="M243 -4v553h671v-553h196v741h-831q-43 0 -84 -21t-73.5 -55.5t-52 -77.5t-19.5 -87v-500h193z" />
    <glyph glyph-name="FL00CCh" horiz-adv-x="1194" 
d="M229 0v535l174 -379q15 -34 34 -65.5t43 -55.5t53 -38.5t65 -14.5q41 0 68 10.5t47.5 32.5t37.5 54t37 76l177 387v-542h179v532q0 40 -13 77t-37 65.5t-58 45.5t-76 17q-66 0 -112.5 -37t-69.5 -100l-183 -433l-167 411q-13 33 -32 62t-44 50.5t-55.5 34t-66.5 12.5
q-38 0 -71 -14.5t-57 -39t-38 -58t-14 -71.5v-554h179z" />
    <glyph glyph-name="FL00CDh" horiz-adv-x="1155" 
d="M237 738h-187v-738h187v279h681v-279h187v738h-187v-271h-681v271z" />
    <glyph glyph-name="FL00CEh" horiz-adv-x="1139" 
d="M312 735q-49 0 -96 -16t-84 -45t-59.5 -69t-22.5 -88v-279q0 -51 18 -94t49.5 -74.5t74.5 -49t93 -17.5h569q46 0 88.5 18t75 48.5t52 71t19.5 86.5v273q0 46 -19 89t-51 75t-74 51.5t-88 19.5h-545zM895 544v-356h-654v356h654z" />
    <glyph glyph-name="FL00CFh" horiz-adv-x="1160" 
d="M243 -4v553h671v-553h196v741h-1060v-741h193z" />
    <glyph glyph-name="FL00D1h" horiz-adv-x="1151" 
d="M1101 737h-771q-139 0 -209.5 -67t-70.5 -205v-248q0 -48 21 -87.5t55 -68.5t77.5 -45t89.5 -16h808v184h-859v368h859v185z" />
    <glyph glyph-name="FL00D2h" horiz-adv-x="1149" 
d="M50 737v-187h429v-550h190v550h430v187h-1049z" />
    <glyph glyph-name="FL00D3h" horiz-adv-x="1174" 
d="M226 459v276h-176v-232q0 -49 20 -90.5t53.5 -72t77.5 -47.5t92 -17h636v-85h-838v-191h793q47 0 90.5 19t76.5 51t53 74.5t20 90.5v500h-196v-276h-702z" />
    <glyph glyph-name="FL00D4h" horiz-adv-x="1234" 
d="M509 748v-118h-264q-44 0 -80 -11t-61.5 -30.5t-39.5 -46.5t-14 -60v-193q0 -45 25 -76.5t62.5 -50.5t82.5 -27.5t86 -8.5h203v-120h199v120h220q65 0 113 13t80 35t47.5 50t15.5 57v189q0 76 -59 118t-180 42h-237v118h-199zM1017 481v-198h-309v198h309zM509 481v-198
h-301v198h301z" />
    <glyph glyph-name="FL00D5h" 
d="M1081 738h-243l-194 -221q-7 -8 -19 -20.5t-24 -27.5t-22 -30t-13 -28q-6 13 -10 20.5t-9.5 15t-14 17.5t-23.5 28l-210 246h-249l332 -368l-318 -370h246l193 232q6 7 15.5 18t19 23.5t17.5 26t11 24.5q4 -9 8.5 -17t13.5 -19.5t23.5 -28t38.5 -41.5l207 -218h229
l-320 367z" />
    <glyph glyph-name="FL00D6h" horiz-adv-x="1199" 
d="M1149 196h-77v536h-189v-536h-642v536h-191v-528q0 -50 20.5 -88.5t54 -64t75.5 -38.5t85 -13h864v196z" />
    <glyph glyph-name="FL00D8h" horiz-adv-x="1140" 
d="M243 736h-193v-741h1040v741h-196v-553h-229v553h-200v-553h-222v553z" />
    <glyph glyph-name="FL00D9h" horiz-adv-x="1247" 
d="M243 736h-193v-741h1147v188h-107v553h-196v-553h-229v553h-199v-553h-223v553z" />
    <glyph glyph-name="FL00DAh" horiz-adv-x="1270" 
d="M957 -4q49 0 96.5 17t84.5 47.5t59.5 73t22.5 92.5q0 49 -19.5 91.5t-52.5 74.5t-77 50.5t-92 18.5h-641v277h-288v-142h92v-600h815zM338 184v94h686v-94h-686z" />
    <glyph glyph-name="FL00DBh" horiz-adv-x="1206" 
d="M627 -4q51 0 98.5 17t84 47.5t58.5 73t22 92.5q0 49 -19.5 91.5t-52.5 74.5t-77 50.5t-92 18.5h-401v276h-198v-741h577zM1156 737h-181v-743h181v743zM248 184v94h446v-94h-446z" />
    <glyph glyph-name="FL00DCh" horiz-adv-x="1178" 
d="M865 -4q49 0 96.5 17t84.5 47.5t59.5 73t22.5 92.5q0 49 -19.5 91.5t-52.5 74.5t-77 50.5t-92 18.5h-641v276h-196v-741h815zM246 184v94h686v-94h-686z" />
    <glyph glyph-name="FL00DFh" horiz-adv-x="1139" 
d="M1089 736l-807 -1q-44 0 -85 -19t-72 -50.5t-49.5 -73t-18.5 -87.5q0 -34 11 -67t31 -62q-23 -27 -36 -60.5t-13 -64.5v-251h190v276h655v-276h194v736zM895 461h-655v89h655v-89z" />
    <glyph glyph-name="FL00E0h" horiz-adv-x="1094" 
d="M261 0l102 193h366l111 -193h204l-287 550q-24 45 -44 80t-42.5 59t-51.5 36.5t-69 12.5q-41 0 -71.5 -12.5t-54.5 -36.5t-44.5 -58t-42.5 -76l-287 -555h211zM459 382l88 157l87 -157h-175z" />
    <glyph glyph-name="FL00E1h" horiz-adv-x="1173" 
d="M314 -3h555q49 0 95 17.5t81 48t56.5 73t21.5 93.5q0 49 -20 90.5t-54 72t-77.5 47.5t-91.5 17h-638v85h840v194h-793q-47 0 -90 -19t-76 -52t-53 -76t-20 -91v-499zM946 197h-696v86h696v-86z" />
    <glyph glyph-name="FL00E2h" horiz-adv-x="1169" 
d="M837 738h-787v-738h820q48 0 93 19t79.5 51.5t55.5 76t21 93.5q0 34 -19 68.5t-39 64.5q42 65 42 138q0 58 -20 101t-55.5 71t-84.5 41.5t-106 13.5zM906 191h-660v85h660v-85zM906 467h-660v83h660v-83z" />
    <glyph glyph-name="FL00E3h" horiz-adv-x="1133" 
d="M1083 547v193h-804q-44 0 -85 -18.5t-73 -50t-51.5 -72.5t-19.5 -86v-513h193v547h840z" />
    <glyph glyph-name="FL00E4h" horiz-adv-x="1250" 
d="M50 0h1150v196h-77v315q0 49 -20.5 89.5t-55 70t-78.5 45.5t-92 16h-536q-48 0 -91.5 -16.5t-76.5 -46.5t-52.5 -71t-19.5 -90v-312h-51v-196zM940 196h-665v347h665v-347z" />
    <glyph glyph-name="FL00E5h" 
d="M312 740q-55 0 -102.5 -16t-83 -46.5t-56 -74.5t-20.5 -100v-268q0 -53 21.5 -96.5t57.5 -75t83 -49t98 -17.5h776v196h-848v80h848v191h-848v86h848v190h-774z" />
    <glyph glyph-name="FL00E6h" horiz-adv-x="1337" 
d="M299 738h-244l317 -371l-322 -367h230l208 218q21 22 32.5 34t19 20.5t13 16t13.5 20.5v-309h206v313q7 -9 12.5 -17.5t14 -18.5t20.5 -24t32 -35l207 -218h229l-320 367l315 371h-243l-194 -221q-6 -7 -16.5 -18.5t-21.5 -24.5t-21 -26.5t-14 -24.5v315h-206v-310
q-5 10 -15 23t-20.5 25.5t-20 23.5t-15.5 17z" />
    <glyph glyph-name="FL00E7h" horiz-adv-x="1129" 
d="M50 738v-188h837v-86h-837v-191h837v-82h-834v-188h790q52 0 95 18.5t74.5 50.5t49 76.5t17.5 95.5q0 74 -48 129q20 34 31.5 70.5t11.5 73.5q0 51 -20.5 92t-55 69.5t-80 44t-94.5 15.5h-774z" />
    <glyph glyph-name="FL00E8h" horiz-adv-x="1130" 
d="M1080 575q0 46 -15.5 79.5t-41.5 55t-59 32t-69 10.5q-80 0 -154 -72l-503 -495v550h-188v-539q0 -42 12.5 -80t36 -66t57.5 -44.5t78 -16.5q42 0 81.5 17t74.5 55l503 491v-552h187v575z" />
    <glyph glyph-name="FL00E9h" horiz-adv-x="1130" 
d="M1080 575q0 45 -15.5 78t-41.5 55t-59 33t-69 11q-80 0 -154 -72l-503 -495v550h-188v-539q0 -42 12.5 -80t36 -66t57.5 -44.5t78 -16.5q42 0 84.5 19t71.5 53l503 491v-552h187v575zM303 867h558v168h-558v-168z" />
    <glyph glyph-name="FL00EAh" horiz-adv-x="1149" 
d="M712 737l-322 -189q-51 -30 -83 -57.5t-51 -70.5v318h-206v-738h206v313q18 -43 46.5 -69.5t75.5 -52.5l334 -191h387l-640 368l635 369h-382z" />
    <glyph glyph-name="FL00EBh" horiz-adv-x="1160" 
d="M243 -4v553h671v-553h196v741h-831q-43 0 -84 -21t-73.5 -55.5t-52 -77.5t-19.5 -87v-500h193z" />
    <glyph glyph-name="FL00ECh" horiz-adv-x="1194" 
d="M229 0v535l174 -379q15 -34 34 -65.5t43 -55.5t53 -38.5t65 -14.5q41 0 68 10.5t47.5 32.5t37.5 54t37 76l177 387v-542h179v532q0 40 -13 77t-37 65.5t-58 45.5t-76 17q-66 0 -112.5 -37t-69.5 -100l-183 -433l-167 411q-13 33 -32 62t-44 50.5t-55.5 34t-66.5 12.5
q-38 0 -71 -14.5t-57 -39t-38 -58t-14 -71.5v-554h179z" />
    <glyph glyph-name="FL00EDh" horiz-adv-x="1155" 
d="M237 738h-187v-738h187v279h681v-279h187v738h-187v-271h-681v271z" />
    <glyph glyph-name="FL00EEh" horiz-adv-x="1139" 
d="M312 735q-49 0 -96 -16t-84 -45t-59.5 -69t-22.5 -88v-279q0 -51 18 -94t49.5 -74.5t74.5 -49t93 -17.5h569q46 0 88.5 18t75 48.5t52 71t19.5 86.5v273q0 46 -19 89t-51 75t-74 51.5t-88 19.5h-545zM895 544v-356h-654v356h654z" />
    <glyph glyph-name="FL00EFh" horiz-adv-x="1160" 
d="M243 -4v553h671v-553h196v741h-1060v-741h193z" />
    <glyph glyph-name="FL00F1h" horiz-adv-x="1151" 
d="M1101 737h-771q-139 0 -209.5 -67t-70.5 -205v-248q0 -48 21 -87.5t55 -68.5t77.5 -45t89.5 -16h808v184h-859v368h859v185z" />
    <glyph glyph-name="FL00F2h" horiz-adv-x="1149" 
d="M50 737v-187h429v-550h190v550h430v187h-1049z" />
    <glyph glyph-name="FL00F3h" horiz-adv-x="1174" 
d="M226 459v276h-176v-232q0 -49 20 -90.5t53.5 -72t77.5 -47.5t92 -17h636v-85h-838v-191h793q47 0 90.5 19t76.5 51t53 74.5t20 90.5v500h-196v-276h-702z" />
    <glyph glyph-name="FL00F4h" horiz-adv-x="1234" 
d="M509 748v-118h-264q-44 0 -80 -11t-61.5 -30.5t-39.5 -46.5t-14 -60v-193q0 -45 25 -76.5t62.5 -50.5t82.5 -27.5t86 -8.5h203v-120h199v120h220q65 0 113 13t80 35t47.5 50t15.5 57v189q0 76 -59 118t-180 42h-237v118h-199zM1017 481v-198h-309v198h309zM509 481v-198
h-301v198h301z" />
    <glyph glyph-name="FL00F5h" 
d="M1081 738h-243l-194 -221q-7 -8 -19 -20.5t-24 -27.5t-22 -30t-13 -28q-6 13 -10 20.5t-9.5 15t-14 17.5t-23.5 28l-210 246h-249l332 -368l-318 -370h246l193 232q6 7 15.5 18t19 23.5t17.5 26t11 24.5q4 -9 8.5 -17t13.5 -19.5t23.5 -28t38.5 -41.5l207 -218h229
l-320 367z" />
    <glyph glyph-name="FL00F6h" horiz-adv-x="1199" 
d="M1149 196h-77v536h-189v-536h-642v536h-191v-528q0 -50 20.5 -88.5t54 -64t75.5 -38.5t85 -13h864v196z" />
    <glyph glyph-name="FL00F7h" horiz-adv-x="1180" 
d="M942 392h-690v348h-202v-279q0 -63 22 -111t60.5 -81t90.5 -50t112 -17h607v-202h188v740h-188v-348z" />
    <glyph glyph-name="FL00F8h" horiz-adv-x="1140" 
d="M243 736h-193v-741h1040v741h-196v-553h-229v553h-200v-553h-222v553z" />
    <glyph glyph-name="FL00F9h" horiz-adv-x="1247" 
d="M243 736h-193v-741h1147v188h-107v553h-196v-553h-229v553h-199v-553h-223v553z" />
    <glyph glyph-name="FL00FAh" horiz-adv-x="1270" 
d="M957 -4q49 0 96.5 17t84.5 47.5t59.5 73t22.5 92.5q0 49 -19.5 91.5t-52.5 74.5t-77 50.5t-92 18.5h-641v277h-288v-142h92v-600h815zM338 184v94h686v-94h-686z" />
    <glyph glyph-name="FL00FBh" horiz-adv-x="1206" 
d="M627 -4q51 0 98.5 17t84 47.5t58.5 73t22 92.5q0 49 -19.5 91.5t-52.5 74.5t-77 50.5t-92 18.5h-401v276h-198v-741h577zM1156 737h-181v-743h181v743zM248 184v94h446v-94h-446z" />
    <glyph glyph-name="FL00FCh" horiz-adv-x="1178" 
d="M865 -4q49 0 96.5 17t84.5 47.5t59.5 73t22.5 92.5q0 49 -19.5 91.5t-52.5 74.5t-77 50.5t-92 18.5h-641v276h-196v-741h815zM246 184v94h686v-94h-686z" />
    <glyph glyph-name="FL00FFh" horiz-adv-x="1139" 
d="M1089 736l-807 -1q-44 0 -85 -19t-72 -50.5t-49.5 -73t-18.5 -87.5q0 -34 11 -67t31 -62q-23 -27 -36 -60.5t-13 -64.5v-251h190v276h655v-276h194v736zM895 461h-655v89h655v-89z" />
    <glyph glyph-name="FL00A8h" unicode="&#xa8;" 
d="M312 740q-56 0 -104 -17.5t-83 -48.5t-55 -75t-20 -96v-268q0 -53 21.5 -96.5t57.5 -75t83 -49t98 -17.5h776v196h-848v80h848v191h-848v86h848v190h-774zM295 861h186v168h-186v-168zM744 862h186v167h-186v-167z" />
    <glyph glyph-name="FL00B8h" unicode="&#xb8;" 
d="M312 740q-56 0 -104 -17.5t-83 -48.5t-55 -75t-20 -96v-268q0 -53 21.5 -96.5t57.5 -75t83 -49t98 -17.5h776v196h-848v80h848v191h-848v86h848v190h-774zM295 861h186v168h-186v-168zM744 862h186v167h-186v-167z" />
    <glyph glyph-name="a" unicode="a" horiz-adv-x="1094" 
d="M261 0l102 193h366l111 -193h204l-287 550q-23 44 -43 79t-43 59t-52 37t-69 13q-41 0 -71.5 -12.5t-54.5 -36.5t-44.5 -58t-42.5 -76l-287 -555h211zM459 382l88 157l87 -157h-175z" />
    <glyph glyph-name="b" unicode="b" horiz-adv-x="1169" 
d="M837 738h-787v-738h820q48 0 93 18.5t79.5 51t55.5 76t21 94.5q0 22 -5.5 40t-13.5 33.5t-18.5 30t-20.5 29.5q42 65 42 138q0 57 -20 100t-55 71t-84 42t-107 14zM906 191h-660v85h660v-85zM906 467h-660v83h660v-83z" />
    <glyph glyph-name="c" unicode="c" horiz-adv-x="1151" 
d="M1101 737h-771q-134 0 -207 -66.5t-73 -205.5v-248q0 -48 21 -87.5t55 -68.5t77.5 -45t89.5 -16h808v184h-859v368h859v185z" />
    <glyph glyph-name="d" unicode="d" horiz-adv-x="1141" 
d="M50 0h787q50 0 96 17t81 48t56 73.5t21 93.5v274q0 52 -20.5 94.5t-55 73t-80 47.5t-95.5 17h-790v-738zM898 182h-658v370h658v-370z" />
    <glyph glyph-name="e" unicode="e" 
d="M312 740q-55 0 -102.5 -16t-83 -46.5t-56 -74.5t-20.5 -100v-268q0 -53 21.5 -96.5t57.5 -75t83 -49t98 -17.5h776v196h-848v80h848v191h-848v86h848v190h-774z" />
    <glyph glyph-name="f" unicode="f" horiz-adv-x="1113" 
d="M50 0h185v279h826v185h-826v80h828v188h-734q-57 0 -107.5 -13.5t-88.5 -42t-60.5 -73t-22.5 -106.5v-497z" />
    <glyph glyph-name="g" unicode="g" horiz-adv-x="1155" 
d="M580 467v-191h332v-83h-675v359h868v186h-785q-127 0 -198.5 -54t-71.5 -151v-295q0 -57 23 -101t61 -73.5t87 -45t102 -15.5h497q53 0 103.5 13.5t90.5 42t64 71.5t24 102v235h-522z" />
    <glyph glyph-name="h" unicode="h" horiz-adv-x="1155" 
d="M237 738h-187v-738h187v279h681v-279h187v738h-187v-271h-681v271z" />
    <glyph glyph-name="i" unicode="i" horiz-adv-x="307" 
d="M257 738h-207v-744h207v744z" />
    <glyph glyph-name="j" unicode="j" horiz-adv-x="1134" 
d="M1084 207v528h-190v-544h-647v66h-197q0 -51 17.5 -97.5t48 -82t72 -56.5t90.5 -21h596q39 0 77 16t67.5 44t47.5 65.5t18 81.5z" />
    <glyph glyph-name="k" unicode="k" horiz-adv-x="1149" 
d="M712 738l-322 -190q-26 -15 -46.5 -29t-37 -29t-28.5 -32t-22 -38v318h-206v-738h206v313q18 -43 46.5 -69.5t75.5 -52.5l334 -191h387l-640 368l635 370h-382z" />
    <glyph glyph-name="l" unicode="l" horiz-adv-x="1133" 
d="M1083 193h-840v547h-193v-513q0 -45 19.5 -86t51.5 -72.5t73 -50t85 -18.5h804v193z" />
    <glyph glyph-name="m" unicode="m" horiz-adv-x="1194" 
d="M229 -5v540l174 -379q15 -33 34 -64.5t42.5 -55.5t53 -39t65.5 -15q39 0 67 12.5t49.5 35.5t38.5 54.5t35 70.5l177 387v-542h179v532q0 40 -13 77t-37 65.5t-58 45.5t-76 17q-66 0 -112 -35t-70 -102l-183 -433l-167 411q-13 33 -32 62t-44 50.5t-55.5 34t-66.5 12.5
q-38 0 -71 -14.5t-57 -39t-38 -58t-14 -71.5v-554z" />
    <glyph glyph-name="n" unicode="n" horiz-adv-x="1130" 
d="M50 575v-575h187v552l503 -491q24 -19 43.5 -32.5t37.5 -22.5t36 -13t39 -4q44 0 78 16.5t57.5 44.5t36 66t12.5 80v539h-188v-550l-503 495q-74 72 -154 72q-36 0 -69 -14.5t-59 -38.5t-41.5 -56t-15.5 -68z" />
    <glyph glyph-name="o" unicode="o" horiz-adv-x="1139" 
d="M312 735q-50 0 -97 -16t-84 -45t-59 -69t-22 -88v-279q0 -51 18 -94t49.5 -74.5t74.5 -49t93 -17.5h569q46 0 88.5 18t75 48.5t52 71t19.5 86.5v273q0 46 -19 89t-51 75t-74 51.5t-88 19.5h-545zM895 544v-356h-654v356h654z" />
    <glyph glyph-name="p" unicode="p" horiz-adv-x="1180" 
d="M867 738h-817v-738h198v273h641q48 0 92 18.5t77 50.5t52.5 74.5t19.5 91.5q0 51 -22.5 93t-59 72.5t-84 47.5t-97.5 17zM248 550h686v-94h-686v94z" />
    <glyph glyph-name="q" unicode="q" horiz-adv-x="1199" 
d="M1149 193h-77v318q0 49 -20.5 89.5t-55 70t-78.5 45.5t-92 16h-536q-48 0 -91.5 -16.5t-76.5 -46.5t-52.5 -71t-19.5 -90v-304q0 -50 24 -88.5t60 -64t77 -38.5t74 -13h864v193zM889 193h-665v350h665v-350z" />
    <glyph glyph-name="r" unicode="r" horiz-adv-x="1139" 
d="M50 736v-736h194v276h655v-276h190v251q0 31 -13 64.5t-36 60.5q20 29 31 62t11 67q0 46 -18.5 87.5t-49.5 73t-72 50.5t-85 19zM244 461v89h655v-89h-655z" />
    <glyph glyph-name="s" unicode="s" horiz-adv-x="1233" 
d="M932 461h-680v90h881v181h-806q-51 0 -100.5 -15.5t-88.5 -45t-63.5 -72t-24.5 -96.5q0 -50 21 -92.5t56 -73t80.5 -47.5t94.5 -17h690v-88h-895v-185h837q48 0 93 17t79.5 47t55.5 71.5t21 91.5q0 48 -19.5 91t-53 74.5t-79.5 50t-99 18.5z" />
    <glyph glyph-name="t" unicode="t" horiz-adv-x="1149" 
d="M50 737v-187h433v-550h186v550h430v187h-1049z" />
    <glyph glyph-name="u" unicode="u" horiz-adv-x="1160" 
d="M243 738h-193v-500q0 -44 19.5 -86.5t52 -76.5t73.5 -54.5t84 -20.5h610q40 0 79.5 18.5t71 49t51 69t19.5 78.5v523h-196v-553h-671v553z" />
    <glyph glyph-name="v" unicode="v" horiz-adv-x="1119" 
d="M265 735h-215l298 -569q18 -36 39 -67t46.5 -54.5t56.5 -37t71 -13.5q36 0 64.5 11t51 30.5t41.5 46.5t36 59l315 597h-212l-299 -553z" />
    <glyph glyph-name="w" unicode="w" horiz-adv-x="1299" 
d="M246 738h-196l110 -581q6 -34 21.5 -63t38 -50.5t52.5 -34t65 -12.5q72 0 123.5 41t72.5 111l122 401l113 -404q26 -72 72.5 -112t115.5 -40q35 0 64.5 12t52.5 33.5t39.5 51t25.5 64.5l111 583h-188l-105 -534l-124 415q-19 63 -62.5 100.5t-106.5 37.5
q-72 0 -122.5 -39t-70.5 -108l-124 -417z" />
    <glyph glyph-name="x" unicode="x" 
d="M1081 738h-243l-194 -221q-7 -8 -19 -20.5t-24 -27.5t-22 -30t-13 -28q-6 13 -10 20.5t-9.5 15t-14 17.5t-23.5 28l-210 246h-249l332 -368l-318 -370h246l193 232q4 5 13.5 16t19 24.5t18.5 27t12 24.5q14 -26 34.5 -50.5t49.5 -55.5l207 -218h229l-320 367z" />
    <glyph glyph-name="y" unicode="y" horiz-adv-x="1114" 
d="M470 218v-218h185v218l409 520h-233l-273 -337l-271 337h-237z" />
    <glyph glyph-name="z" unicode="z" horiz-adv-x="1255" 
d="M1006 740h-925v-188h906l-790 -171q-33 -7 -60.5 -23.5t-46.5 -40t-29.5 -53t-10.5 -62.5q0 -45 20 -81.5t52.5 -63t73.5 -40.5t84 -14h889v193h-870l749 163q35 7 64 23.5t49.5 40.5t32 53.5t11.5 64.5q0 40 -15 76t-41 63.5t-63 43.5t-80 16z" />
    <glyph glyph-name="guilsinglleft" unicode="&#x2039;" horiz-adv-x="399" 
d="M50 375l299 -259v238h-89v42h89v238z" />
    <glyph glyph-name="guilsinglright" unicode="&#x203a;" horiz-adv-x="399" 
d="M349 375l-299 259v-238h89v-42h-89v-238z" />
    <glyph glyph-name="Agrave" unicode="&#xc0;" horiz-adv-x="1094" 
d="M261 0l102 193h366l111 -193h204l-287 550q-24 45 -44 80t-42.5 59t-51.5 36.5t-69 12.5q-41 0 -71.5 -12.5t-54.5 -36.5t-44.5 -58t-42.5 -76l-287 -555h211zM459 382l88 157l87 -157h-175z" />
    <glyph glyph-name="Aacute" unicode="&#xc1;" horiz-adv-x="1173" 
d="M314 -3h555q49 0 95 17.5t81 48t56.5 73t21.5 93.5q0 49 -20 90.5t-54 72t-77.5 47.5t-91.5 17h-638v85h840v194h-793q-47 0 -90 -19t-76 -52t-53 -76t-20 -91v-499zM946 197h-704v86h704v-86z" />
    <glyph glyph-name="Acircumflex" unicode="&#xc2;" horiz-adv-x="1169" 
d="M837 738h-787v-738h820q48 0 93 19t79.5 51.5t55.5 76t21 93.5q0 34 -19 68.5t-39 64.5q42 65 42 138q0 58 -20 101t-55.5 71t-84.5 41.5t-106 13.5zM906 191h-660v85h660v-85zM906 467h-660v83h660v-83z" />
    <glyph glyph-name="Atilde" unicode="&#xc3;" horiz-adv-x="1133" 
d="M1083 547v193h-804q-44 0 -85 -18.5t-73 -50t-51.5 -72.5t-19.5 -86v-513h193v547h840z" />
    <glyph glyph-name="Adieresis" unicode="&#xc4;" horiz-adv-x="1250" 
d="M50 0h1150v196h-77v315q0 49 -20.5 89.5t-55 70t-78.5 45.5t-92 16h-536q-48 0 -91.5 -16.5t-76.5 -46.5t-52.5 -71t-19.5 -90v-312h-51v-196zM940 196h-665v347h665v-347z" />
    <glyph glyph-name="Aring" unicode="&#xc5;" 
d="M312 740q-55 0 -102.5 -16t-83 -46.5t-56 -74.5t-20.5 -100v-268q0 -53 21.5 -96.5t57.5 -75t83 -49t98 -17.5h776v196h-848v80h848v191h-848v86h848v190h-774z" />
    <glyph glyph-name="AE" unicode="&#xc6;" horiz-adv-x="1337" 
d="M299 738h-244l317 -371l-322 -367h230l208 218q21 22 32.5 34t19 20.5t13 16t13.5 20.5v-309h206v313q7 -9 12.5 -17.5t14 -18.5t20.5 -24t32 -35l207 -218h229l-320 367l315 371h-243l-194 -221q-6 -7 -16.5 -18.5t-21.5 -24.5t-21 -26.5t-14 -24.5v315h-206v-310
q-5 10 -15 23t-20.5 25.5t-20 23.5t-15.5 17z" />
    <glyph glyph-name="Ccedilla" unicode="&#xc7;" horiz-adv-x="1129" 
d="M50 738v-188h837v-86h-837v-191h837v-82h-834v-188h790q52 0 95 18.5t74.5 50.5t49 76.5t17.5 95.5q0 74 -48 129q20 34 31.5 70.5t11.5 73.5q0 51 -20.5 92t-55 69.5t-80 44t-94.5 15.5h-774z" />
    <glyph glyph-name="Egrave" unicode="&#xc8;" horiz-adv-x="1130" 
d="M1080 575q0 46 -15.5 79.5t-41.5 55t-59 32t-69 10.5q-80 0 -154 -72l-503 -495v550h-188v-539q0 -42 12.5 -80t36 -66t57.5 -44.5t78 -16.5q42 0 81.5 17t74.5 55l503 491v-552h187v575z" />
    <glyph glyph-name="Eacute" unicode="&#xc9;" horiz-adv-x="1130" 
d="M1080 575q0 45 -15.5 78t-41.5 55t-59 33t-69 11q-80 0 -154 -72l-503 -495v550h-188v-539q0 -42 12.5 -80t36 -66t57.5 -44.5t78 -16.5q42 0 84.5 19t71.5 53l503 491v-552h187v575zM303 867h558v168h-558v-168z" />
    <glyph glyph-name="Ecircumflex" unicode="&#xca;" horiz-adv-x="1149" 
d="M712 737l-322 -189q-51 -30 -83 -57.5t-51 -70.5v318h-206v-738h206v313q18 -43 46.5 -69.5t75.5 -52.5l334 -191h387l-640 368l635 369h-382z" />
    <glyph glyph-name="Edieresis" unicode="&#xcb;" horiz-adv-x="1160" 
d="M243 -4v553h671v-553h196v741h-831q-43 0 -84 -21t-73.5 -55.5t-52 -77.5t-19.5 -87v-500h193z" />
    <glyph glyph-name="Igrave" unicode="&#xcc;" horiz-adv-x="1194" 
d="M229 0v535l174 -379q15 -34 34 -65.5t43 -55.5t53 -38.5t65 -14.5q41 0 68 10.5t47.5 32.5t37.5 54t37 76l177 387v-542h179v532q0 40 -13 77t-37 65.5t-58 45.5t-76 17q-66 0 -112.5 -37t-69.5 -100l-183 -433l-167 411q-13 33 -32 62t-44 50.5t-55.5 34t-66.5 12.5
q-38 0 -71 -14.5t-57 -39t-38 -58t-14 -71.5v-554h179z" />
    <glyph glyph-name="Iacute" unicode="&#xcd;" horiz-adv-x="1155" 
d="M237 738h-187v-738h187v279h681v-279h187v738h-187v-271h-681v271z" />
    <glyph glyph-name="Icircumflex" unicode="&#xce;" horiz-adv-x="1139" 
d="M312 735q-49 0 -96 -16t-84 -45t-59.5 -69t-22.5 -88v-279q0 -51 18 -94t49.5 -74.5t74.5 -49t93 -17.5h569q46 0 88.5 18t75 48.5t52 71t19.5 86.5v273q0 46 -19 89t-51 75t-74 51.5t-88 19.5h-545zM895 544v-356h-654v356h654z" />
    <glyph glyph-name="Idieresis" unicode="&#xcf;" horiz-adv-x="1160" 
d="M243 -4v553h671v-553h196v741h-1060v-741h193z" />
    <glyph glyph-name="Ntilde" unicode="&#xd1;" horiz-adv-x="1151" 
d="M1101 737h-771q-139 0 -209.5 -67t-70.5 -205v-248q0 -48 21 -87.5t55 -68.5t77.5 -45t89.5 -16h808v184h-859v368h859v185z" />
    <glyph glyph-name="Ograve" unicode="&#xd2;" horiz-adv-x="1149" 
d="M50 737v-187h429v-550h190v550h430v187h-1049z" />
    <glyph glyph-name="Oacute" unicode="&#xd3;" horiz-adv-x="1174" 
d="M226 459v276h-176v-232q0 -49 20 -90.5t53.5 -72t77.5 -47.5t92 -17h636v-85h-838v-191h793q47 0 90.5 19t76.5 51t53 74.5t20 90.5v500h-196v-276h-702z" />
    <glyph glyph-name="Ocircumflex" unicode="&#xd4;" horiz-adv-x="1234" 
d="M509 748v-118h-264q-44 0 -80 -11t-61.5 -30.5t-39.5 -46.5t-14 -60v-193q0 -45 25 -76.5t62.5 -50.5t82.5 -27.5t86 -8.5h203v-120h199v120h220q65 0 113 13t80 35t47.5 50t15.5 57v189q0 76 -59 118t-180 42h-237v118h-199zM1017 481v-198h-309v198h309zM509 481v-198
h-301v198h301z" />
    <glyph glyph-name="Otilde" unicode="&#xd5;" 
d="M1081 738h-243l-194 -221q-7 -8 -19 -20.5t-24 -27.5t-22 -30t-13 -28q-6 13 -10 20.5t-9.5 15t-14 17.5t-23.5 28l-210 246h-249l332 -368l-318 -370h246l193 232q6 7 15.5 18t19 23.5t17.5 26t11 24.5q4 -9 8.5 -17t13.5 -19.5t23.5 -28t38.5 -41.5l207 -218h229
l-320 367z" />
    <glyph glyph-name="Odieresis" unicode="&#xd6;" horiz-adv-x="1199" 
d="M1149 196h-77v536h-189v-536h-642v536h-191v-528q0 -50 20.5 -88.5t54 -64t75.5 -38.5t85 -13h864v196z" />
    <glyph glyph-name="Oslash" unicode="&#xd8;" horiz-adv-x="1140" 
d="M243 736h-193v-741h1040v741h-196v-553h-229v553h-200v-553h-222v553z" />
    <glyph glyph-name="Ugrave" unicode="&#xd9;" horiz-adv-x="1247" 
d="M243 736h-193v-741h1147v188h-107v553h-196v-553h-229v553h-199v-553h-223v553z" />
    <glyph glyph-name="Uacute" unicode="&#xda;" horiz-adv-x="1270" 
d="M957 -4q49 0 96.5 17t84.5 47.5t59.5 73t22.5 92.5q0 49 -19.5 91.5t-52.5 74.5t-77 50.5t-92 18.5h-641v277h-288v-142h92v-600h815zM338 184v94h686v-94h-686z" />
    <glyph glyph-name="Ucircumflex" unicode="&#xdb;" horiz-adv-x="1206" 
d="M627 -4q51 0 98.5 17t84 47.5t58.5 73t22 92.5q0 49 -19.5 91.5t-52.5 74.5t-77 50.5t-92 18.5h-401v276h-198v-741h577zM1156 737h-181v-743h181v743zM248 184v94h446v-94h-446z" />
    <glyph glyph-name="Udieresis" unicode="&#xdc;" horiz-adv-x="1178" 
d="M865 -4q49 0 96.5 17t84.5 47.5t59.5 73t22.5 92.5q0 49 -19.5 91.5t-52.5 74.5t-77 50.5t-92 18.5h-641v276h-196v-741h815zM246 184v94h686v-94h-686z" />
    <glyph glyph-name="germandbls" unicode="&#xdf;" horiz-adv-x="1139" 
d="M1089 735h-807q-44 0 -85 -19t-72 -50.5t-49.5 -73t-18.5 -87.5q0 -34 11 -67t31 -62q-23 -27 -36 -60.5t-13 -64.5v-251h190v276h655v-276h194v735zM895 461h-655v89h655v-89z" />
    <glyph glyph-name="agrave" unicode="&#xe0;" horiz-adv-x="1094" 
d="M261 0l102 193h366l111 -193h204l-287 550q-24 45 -44 80t-42.5 59t-51.5 36.5t-69 12.5q-41 0 -71.5 -12.5t-54.5 -36.5t-44.5 -58t-42.5 -76l-287 -555h211zM459 382l88 157l87 -157h-175z" />
    <glyph glyph-name="aacute" unicode="&#xe1;" horiz-adv-x="1173" 
d="M314 -3h555q49 0 95 17.5t81 48t56.5 73t21.5 93.5q0 49 -20 90.5t-54 72t-77.5 47.5t-91.5 17h-638v85h840v194h-793q-47 0 -90 -19t-76 -52t-53 -76t-20 -91v-499zM946 197h-704v86h704v-86z" />
    <glyph glyph-name="acircumflex" unicode="&#xe2;" horiz-adv-x="1169" 
d="M837 738h-787v-738h820q48 0 93 19t79.5 51.5t55.5 76t21 93.5q0 34 -19 68.5t-39 64.5q42 65 42 138q0 58 -20 101t-55.5 71t-84.5 41.5t-106 13.5zM906 191h-660v85h660v-85zM906 467h-660v83h660v-83z" />
    <glyph glyph-name="atilde" unicode="&#xe3;" horiz-adv-x="1133" 
d="M1083 547v193h-804q-44 0 -85 -18.5t-73 -50t-51.5 -72.5t-19.5 -86v-513h193v547h840z" />
    <glyph glyph-name="adieresis" unicode="&#xe4;" horiz-adv-x="1250" 
d="M50 0h1150v196h-77v315q0 49 -20.5 89.5t-55 70t-78.5 45.5t-92 16h-536q-48 0 -91.5 -16.5t-76.5 -46.5t-52.5 -71t-19.5 -90v-312h-51v-196zM940 196h-665v347h665v-347z" />
    <glyph glyph-name="aring" unicode="&#xe5;" 
d="M312 740q-55 0 -102.5 -16t-83 -46.5t-56 -74.5t-20.5 -100v-268q0 -53 21.5 -96.5t57.5 -75t83 -49t98 -17.5h776v196h-848v80h848v191h-848v86h848v190h-774z" />
    <glyph glyph-name="ae" unicode="&#xe6;" horiz-adv-x="1337" 
d="M299 738h-244l317 -371l-322 -367h230l208 218q21 22 32.5 34t19 20.5t13 16t13.5 20.5v-309h206v313q7 -9 12.5 -17.5t14 -18.5t20.5 -24t32 -35l207 -218h229l-320 367l315 371h-243l-194 -221q-6 -7 -16.5 -18.5t-21.5 -24.5t-21 -26.5t-14 -24.5v315h-206v-310
q-5 10 -15 23t-20.5 25.5t-20 23.5t-15.5 17z" />
    <glyph glyph-name="ccedilla" unicode="&#xe7;" horiz-adv-x="1129" 
d="M50 738v-188h837v-86h-837v-191h837v-82h-834v-188h790q52 0 95 18.5t74.5 50.5t49 76.5t17.5 95.5q0 74 -48 129q20 34 31.5 70.5t11.5 73.5q0 51 -20.5 92t-55 69.5t-80 44t-94.5 15.5h-774z" />
    <glyph glyph-name="egrave" unicode="&#xe8;" horiz-adv-x="1130" 
d="M1080 575q0 46 -15.5 79.5t-41.5 55t-59 32t-69 10.5q-80 0 -154 -72l-503 -495v550h-188v-539q0 -42 12.5 -80t36 -66t57.5 -44.5t78 -16.5q42 0 81.5 17t74.5 55l503 491v-552h187v575z" />
    <glyph glyph-name="eacute" unicode="&#xe9;" horiz-adv-x="1130" 
d="M1080 575q0 45 -15.5 78t-41.5 55t-59 33t-69 11q-80 0 -154 -72l-503 -495v550h-188v-539q0 -42 12.5 -80t36 -66t57.5 -44.5t78 -16.5q42 0 84.5 19t71.5 53l503 491v-552h187v575zM303 867h558v168h-558v-168z" />
    <glyph glyph-name="ecircumflex" unicode="&#xea;" horiz-adv-x="1149" 
d="M712 737l-322 -189q-51 -30 -83 -57.5t-51 -70.5v318h-206v-738h206v313q18 -43 46.5 -69.5t75.5 -52.5l334 -191h387l-640 368l635 369h-382z" />
    <glyph glyph-name="edieresis" unicode="&#xeb;" horiz-adv-x="1160" 
d="M243 -4v553h671v-553h196v741h-831q-43 0 -84 -21t-73.5 -55.5t-52 -77.5t-19.5 -87v-500h193z" />
    <glyph glyph-name="igrave" unicode="&#xec;" horiz-adv-x="1194" 
d="M229 0v535l174 -379q15 -34 34 -65.5t43 -55.5t53 -38.5t65 -14.5q41 0 68 10.5t47.5 32.5t37.5 54t37 76l177 387v-542h179v532q0 40 -13 77t-37 65.5t-58 45.5t-76 17q-66 0 -112.5 -37t-69.5 -100l-183 -433l-167 411q-13 33 -32 62t-44 50.5t-55.5 34t-66.5 12.5
q-38 0 -71 -14.5t-57 -39t-38 -58t-14 -71.5v-554h179z" />
    <glyph glyph-name="iacute" unicode="&#xed;" horiz-adv-x="1155" 
d="M237 738h-187v-738h187v279h681v-279h187v738h-187v-271h-681v271z" />
    <glyph glyph-name="icircumflex" unicode="&#xee;" horiz-adv-x="1139" 
d="M312 735q-49 0 -96 -16t-84 -45t-59.5 -69t-22.5 -88v-279q0 -51 18 -94t49.5 -74.5t74.5 -49t93 -17.5h569q46 0 88.5 18t75 48.5t52 71t19.5 86.5v273q0 46 -19 89t-51 75t-74 51.5t-88 19.5h-545zM895 544v-356h-654v356h654z" />
    <glyph glyph-name="idieresis" unicode="&#xef;" horiz-adv-x="1160" 
d="M243 -4v553h671v-553h196v741h-1060v-741h193z" />
    <glyph glyph-name="ntilde" unicode="&#xf1;" horiz-adv-x="1151" 
d="M1101 737h-771q-139 0 -209.5 -67t-70.5 -205v-248q0 -48 21 -87.5t55 -68.5t77.5 -45t89.5 -16h808v184h-859v368h859v185z" />
    <glyph glyph-name="ograve" unicode="&#xf2;" horiz-adv-x="1149" 
d="M50 737v-187h429v-550h190v550h430v187h-1049z" />
    <glyph glyph-name="oacute" unicode="&#xf3;" horiz-adv-x="1174" 
d="M226 459v276h-176v-232q0 -49 20 -90.5t53.5 -72t77.5 -47.5t92 -17h636v-85h-838v-191h793q47 0 90.5 19t76.5 51t53 74.5t20 90.5v500h-196v-276h-702z" />
    <glyph glyph-name="ocircumflex" unicode="&#xf4;" horiz-adv-x="1234" 
d="M509 748v-118h-264q-44 0 -80 -11t-61.5 -30.5t-39.5 -46.5t-14 -60v-193q0 -45 25 -76.5t62.5 -50.5t82.5 -27.5t86 -8.5h203v-120h199v120h220q65 0 113 13t80 35t47.5 50t15.5 57v189q0 76 -59 118t-180 42h-237v118h-199zM1017 481v-198h-309v198h309zM509 481v-198
h-301v198h301z" />
    <glyph glyph-name="otilde" unicode="&#xf5;" 
d="M1081 738h-243l-194 -221q-7 -8 -19 -20.5t-24 -27.5t-22 -30t-13 -28q-6 13 -10 20.5t-9.5 15t-14 17.5t-23.5 28l-210 246h-249l332 -368l-318 -370h246l193 232q6 7 15.5 18t19 23.5t17.5 26t11 24.5q4 -9 8.5 -17t13.5 -19.5t23.5 -28t38.5 -41.5l207 -218h229
l-320 367z" />
    <glyph glyph-name="odieresis" unicode="&#xf6;" horiz-adv-x="1199" 
d="M1149 196h-77v536h-189v-536h-642v536h-191v-528q0 -50 20.5 -88.5t54 -64t75.5 -38.5t85 -13h864v196z" />
    <glyph glyph-name="divide" unicode="&#xf7;" horiz-adv-x="1180" 
d="M942 392h-690v348h-202v-279q0 -63 22 -111t60.5 -81t90.5 -50t112 -17h607v-202h188v740h-188v-348z" />
    <glyph glyph-name="oslash" unicode="&#xf8;" horiz-adv-x="1140" 
d="M243 736h-193v-741h1040v741h-196v-553h-229v553h-200v-553h-222v553z" />
    <glyph glyph-name="ugrave" unicode="&#xf9;" horiz-adv-x="1247" 
d="M243 736h-193v-741h1147v188h-107v553h-196v-553h-229v553h-199v-553h-223v553z" />
    <glyph glyph-name="uacute" unicode="&#xfa;" horiz-adv-x="1270" 
d="M957 -4q49 0 96.5 17t84.5 47.5t59.5 73t22.5 92.5q0 49 -19.5 91.5t-52.5 74.5t-77 50.5t-92 18.5h-641v277h-288v-142h92v-600h815zM338 184v94h686v-94h-686z" />
    <glyph glyph-name="ucircumflex" unicode="&#xfb;" horiz-adv-x="1206" 
d="M627 -4q51 0 98.5 17t84 47.5t58.5 73t22 92.5q0 49 -19.5 91.5t-52.5 74.5t-77 50.5t-92 18.5h-401v276h-198v-741h577zM1156 737h-181v-743h181v743zM248 184v94h446v-94h-446z" />
    <glyph glyph-name="udieresis" unicode="&#xfc;" horiz-adv-x="1178" 
d="M865 -4q49 0 96.5 17t84.5 47.5t59.5 73t22.5 92.5q0 49 -19.5 91.5t-52.5 74.5t-77 50.5t-92 18.5h-641v276h-196v-741h815zM246 184v94h686v-94h-686z" />
    <glyph glyph-name="ydieresis" unicode="&#xff;" horiz-adv-x="1139" 
d="M1089 735h-807q-44 0 -85 -19t-72 -50.5t-49.5 -73t-18.5 -87.5q0 -34 11 -67t31 -62q-23 -27 -36 -60.5t-13 -64.5v-251h190v276h655v-276h194v735zM895 461h-655v89h655v-89z" />
    <glyph glyph-name="numbersign" unicode="#" horiz-adv-x="691" 
d="M377 540h-63v210h-120v-210h-144v-144h591v144h-144v210h-120v-210zM377 0h120v210h144v144h-591v-144h144v-210h120v210h63v-210z" />
    <glyph glyph-name="exclam" unicode="!" horiz-adv-x="291" 
d="M241 738h-191v-465h191v465zM241 0v188h-191v-188h191z" />
    <glyph glyph-name="quotedbl" unicode="&#x22;" horiz-adv-x="539" 
d="M285 522v-151q44 0 81.5 12t64.5 33t42.5 50.5t15.5 64.5v208h-211v-151h58v-66h-51zM50 739v-149h54v-68h-54v-151q41 0 78 11.5t65 32t44.5 48.5t16.5 61v215h-204z" />
    <glyph glyph-name="brokenbar" unicode="&#xa6;" horiz-adv-x="244" 
d="M194 333h-144v-383h144v383zM194 800h-144v-383h144v383z" />
    <glyph glyph-name="afii10023" unicode="&#x401;" 
d="M312 740q-56 0 -104 -17.5t-83 -48.5t-55 -75t-20 -96v-268q0 -53 21.5 -96.5t57.5 -75t83 -49t98 -17.5h776v196h-848v80h848v191h-848v86h848v190h-774zM295 861h186v168h-186v-168zM744 862h186v167h-186v-167z" />
    <glyph glyph-name="afii61352" unicode="&#x2116;" horiz-adv-x="1161" 
d="M50 575v-575l130 -3v555l348 -491q28 -38 54 -55t54 -17q36 0 60.5 19t39.5 48.5t21.5 66.5t6.5 73v539h-130v-550l-349 495q-51 72 -107 72q-31 0 -55 -16t-40 -41.5t-24.5 -57t-8.5 -62.5zM965 441q31 0 57.5 12t46 32.5t31 47.5t11.5 57q0 32 -12 60.5t-32.5 49.5
t-48.5 33.5t-60 12.5q-31 0 -57 -13t-44.5 -35t-29 -50t-10.5 -58t12 -57t32 -47.5t47 -32.5t57 -12zM911 645h100v-98h-100v98z" />
    <glyph glyph-name="afii10017" unicode="&#x410;" horiz-adv-x="1094" 
d="M261 0l102 193h366l111 -193h204l-287 550q-24 45 -44 80t-42.5 59t-51.5 36.5t-69 12.5q-41 0 -71.5 -12.5t-54.5 -36.5t-44.5 -58t-42.5 -76l-287 -555h211zM459 382l88 157l87 -157h-175z" />
    <glyph glyph-name="afii10018" unicode="&#x411;" horiz-adv-x="1173" 
d="M314 -3h555q49 0 95 17.5t81 48t56.5 73t21.5 93.5q0 49 -20 90.5t-54 72t-77.5 47.5t-91.5 17h-638v85h840v194h-793q-47 0 -90 -19t-76 -52t-53 -76t-20 -91v-499zM946 197h-704v86h704v-86z" />
    <glyph glyph-name="afii10019" unicode="&#x412;" horiz-adv-x="1169" 
d="M837 738h-787v-738h820q48 0 93 19t79.5 51.5t55.5 76t21 93.5q0 34 -19 68.5t-39 64.5q42 65 42 138q0 58 -20 101t-55.5 71t-84.5 41.5t-106 13.5zM906 191h-660v85h660v-85zM906 467h-660v83h660v-83z" />
    <glyph glyph-name="afii10020" unicode="&#x413;" horiz-adv-x="1133" 
d="M1083 547v193h-804q-44 0 -85 -18.5t-73 -50t-51.5 -72.5t-19.5 -86v-513h193v547h840z" />
    <glyph glyph-name="afii10021" unicode="&#x414;" horiz-adv-x="1250" 
d="M50 0h1150v196h-77v315q0 49 -20.5 89.5t-55 70t-78.5 45.5t-92 16h-536q-48 0 -91.5 -16.5t-76.5 -46.5t-52.5 -71t-19.5 -90v-312h-51v-196zM940 196h-665v347h665v-347z" />
    <glyph glyph-name="afii10022" unicode="&#x415;" 
d="M312 740q-55 0 -102.5 -16t-83 -46.5t-56 -74.5t-20.5 -100v-268q0 -53 21.5 -96.5t57.5 -75t83 -49t98 -17.5h776v196h-848v80h848v191h-848v86h848v190h-774z" />
    <glyph glyph-name="afii10024" unicode="&#x416;" horiz-adv-x="1337" 
d="M299 738h-244l317 -371l-322 -367h230l208 218q21 22 32.5 34t19 20.5t13 16t13.5 20.5v-309h206v313q7 -9 12.5 -17.5t14 -18.5t20.5 -24t32 -35l207 -218h229l-320 367l315 371h-243l-194 -221q-6 -7 -16.5 -18.5t-21.5 -24.5t-21 -26.5t-14 -24.5v315h-206v-310
q-5 10 -15 23t-20.5 25.5t-20 23.5t-15.5 17z" />
    <glyph glyph-name="afii10025" unicode="&#x417;" horiz-adv-x="1129" 
d="M50 738v-188h837v-86h-837v-191h837v-82h-834v-188h790q52 0 95 18.5t74.5 50.5t49 76.5t17.5 95.5q0 74 -48 129q20 34 31.5 70.5t11.5 73.5q0 51 -20.5 92t-55 69.5t-80 44t-94.5 15.5h-774z" />
    <glyph glyph-name="afii10026" unicode="&#x418;" horiz-adv-x="1130" 
d="M1080 575q0 46 -15.5 79.5t-41.5 55t-59 32t-69 10.5q-80 0 -154 -72l-503 -495v550h-188v-539q0 -42 12.5 -80t36 -66t57.5 -44.5t78 -16.5q42 0 81.5 17t74.5 55l503 491v-552h187v575z" />
    <glyph glyph-name="afii10027" unicode="&#x419;" horiz-adv-x="1130" 
d="M1080 575q0 45 -15.5 78t-41.5 55t-59 33t-69 11q-80 0 -154 -72l-503 -495v550h-188v-539q0 -42 12.5 -80t36 -66t57.5 -44.5t78 -16.5q42 0 84.5 19t71.5 53l503 491v-552h187v575zM303 867h558v168h-558v-168z" />
    <glyph glyph-name="afii10028" unicode="&#x41a;" horiz-adv-x="1149" 
d="M712 737l-322 -189q-51 -30 -83 -57.5t-51 -70.5v318h-206v-738h206v313q18 -43 46.5 -69.5t75.5 -52.5l334 -191h387l-640 368l635 369h-382z" />
    <glyph glyph-name="afii10029" unicode="&#x41b;" horiz-adv-x="1160" 
d="M243 -4v553h671v-553h196v741h-831q-43 0 -84 -21t-73.5 -55.5t-52 -77.5t-19.5 -87v-500h193z" />
    <glyph glyph-name="afii10030" unicode="&#x41c;" horiz-adv-x="1194" 
d="M229 0v535l174 -379q15 -34 34 -65.5t43 -55.5t53 -38.5t65 -14.5q41 0 68 10.5t47.5 32.5t37.5 54t37 76l177 387v-542h179v532q0 40 -13 77t-37 65.5t-58 45.5t-76 17q-66 0 -112.5 -37t-69.5 -100l-183 -433l-167 411q-13 33 -32 62t-44 50.5t-55.5 34t-66.5 12.5
q-38 0 -71 -14.5t-57 -39t-38 -58t-14 -71.5v-554h179z" />
    <glyph glyph-name="afii10031" unicode="&#x41d;" horiz-adv-x="1155" 
d="M237 738h-187v-738h187v279h681v-279h187v738h-187v-271h-681v271z" />
    <glyph glyph-name="afii10032" unicode="&#x41e;" horiz-adv-x="1139" 
d="M312 735q-49 0 -96 -16t-84 -45t-59.5 -69t-22.5 -88v-279q0 -51 18 -94t49.5 -74.5t74.5 -49t93 -17.5h569q46 0 88.5 18t75 48.5t52 71t19.5 86.5v273q0 46 -19 89t-51 75t-74 51.5t-88 19.5h-545zM895 544v-356h-654v356h654z" />
    <glyph glyph-name="afii10033" unicode="&#x41f;" horiz-adv-x="1160" 
d="M243 -4v553h671v-553h196v741h-1060v-741h193z" />
    <glyph glyph-name="afii10034" unicode="&#x420;" horiz-adv-x="1180" 
d="M867 738h-817v-738h198v273h641q48 0 92 18.5t77 50.5t52.5 74.5t19.5 91.5q0 51 -21.5 93t-58 72.5t-84 47.5t-99.5 17zM248 550h686v-94h-686v94z" />
    <glyph glyph-name="afii10035" unicode="&#x421;" horiz-adv-x="1151" 
d="M1101 737h-771q-139 0 -209.5 -67t-70.5 -205v-248q0 -48 21 -87.5t55 -68.5t77.5 -45t89.5 -16h808v184h-859v368h859v185z" />
    <glyph glyph-name="afii10036" unicode="&#x422;" horiz-adv-x="1149" 
d="M50 737v-187h429v-550h190v550h430v187h-1049z" />
    <glyph glyph-name="afii10037" unicode="&#x423;" horiz-adv-x="1174" 
d="M226 459v276h-176v-232q0 -49 20 -90.5t53.5 -72t77.5 -47.5t92 -17h636v-85h-838v-191h793q47 0 90.5 19t76.5 51t53 74.5t20 90.5v500h-196v-276h-702z" />
    <glyph glyph-name="afii10038" unicode="&#x424;" horiz-adv-x="1234" 
d="M509 748v-118h-264q-44 0 -80 -11t-61.5 -30.5t-39.5 -46.5t-14 -60v-193q0 -45 25 -76.5t62.5 -50.5t82.5 -27.5t86 -8.5h203v-120h199v120h220q65 0 113 13t80 35t47.5 50t15.5 57v189q0 76 -59 118t-180 42h-237v118h-199zM1017 481v-198h-309v198h309zM509 481v-198
h-301v198h301z" />
    <glyph glyph-name="afii10039" unicode="&#x425;" 
d="M1081 738h-243l-194 -221q-7 -8 -19 -20.5t-24 -27.5t-22 -30t-13 -28q-6 13 -10 20.5t-9.5 15t-14 17.5t-23.5 28l-210 246h-249l332 -368l-318 -370h246l193 232q6 7 15.5 18t19 23.5t17.5 26t11 24.5q4 -9 8.5 -17t13.5 -19.5t23.5 -28t38.5 -41.5l207 -218h229
l-320 367z" />
    <glyph glyph-name="afii10040" unicode="&#x426;" horiz-adv-x="1199" 
d="M1149 196h-77v536h-189v-536h-642v536h-191v-528q0 -50 20.5 -88.5t54 -64t75.5 -38.5t85 -13h864v196z" />
    <glyph glyph-name="afii10041" unicode="&#x427;" horiz-adv-x="1180" 
d="M942 392h-690v348h-202v-279q0 -63 22 -111t60.5 -81t90.5 -50t112 -17h607v-202h188v740h-188v-348z" />
    <glyph glyph-name="afii10042" unicode="&#x428;" horiz-adv-x="1140" 
d="M243 736h-193v-741h1040v741h-196v-553h-229v553h-200v-553h-222v553z" />
    <glyph glyph-name="afii10043" unicode="&#x429;" horiz-adv-x="1247" 
d="M243 736h-193v-741h1147v188h-107v553h-196v-553h-229v553h-199v-553h-223v553z" />
    <glyph glyph-name="afii10044" unicode="&#x42a;" horiz-adv-x="1270" 
d="M957 -4q49 0 96.5 17t84.5 47.5t59.5 73t22.5 92.5q0 49 -19.5 91.5t-52.5 74.5t-77 50.5t-92 18.5h-641v277h-288v-142h92v-600h815zM338 184v94h686v-94h-686z" />
    <glyph glyph-name="afii10045" unicode="&#x42b;" horiz-adv-x="1206" 
d="M627 -4q51 0 98.5 17t84 47.5t58.5 73t22 92.5q0 49 -19.5 91.5t-52.5 74.5t-77 50.5t-92 18.5h-401v276h-198v-741h577zM1156 737h-181v-743h181v743zM248 184v94h446v-94h-446z" />
    <glyph glyph-name="afii10046" unicode="&#x42c;" horiz-adv-x="1178" 
d="M865 -4q49 0 96.5 17t84.5 47.5t59.5 73t22.5 92.5q0 49 -19.5 91.5t-52.5 74.5t-77 50.5t-92 18.5h-641v276h-196v-741h815zM246 184v94h686v-94h-686z" />
    <glyph glyph-name="afii10047" unicode="&#x42d;" 
d="M824 740h-774v-190h848v-86h-848v-193h848v-78h-848v-196h776q51 0 98 17.5t83 49t57.5 75t21.5 96.5v268q0 56 -20.5 100t-56 74.5t-83 46.5t-102.5 16z" />
    <glyph glyph-name="afii10048" unicode="&#x42e;" horiz-adv-x="1175" 
d="M629 735q-34 0 -74.5 -17t-76 -44.5t-59 -62.5t-23.5 -70v-69h-153v256h-193v-726h193v263h153v-53q0 -42 20.5 -79.5t51.5 -66.5t67 -46t67 -17h288q46 0 88.5 18t75 48.5t52 71t19.5 86.5v273q0 46 -19 89t-51 75t-74 51.5t-88 19.5h-264zM931 544v-356h-344v356h344z
" />
    <glyph glyph-name="afii10049" unicode="&#x42f;" horiz-adv-x="1139" 
d="M1089 736l-807 -1q-44 0 -85 -19t-72 -50.5t-49.5 -73t-18.5 -87.5q0 -34 11 -67t31 -62q-23 -27 -36 -60.5t-13 -64.5v-251h190v276h655v-276h194v736zM895 461h-655v89h655v-89z" />
    <glyph glyph-name="FL0451h" 
d="M312 740q-56 0 -104 -17.5t-83 -48.5t-55 -75t-20 -96v-268q0 -53 21.5 -96.5t57.5 -75t83 -49t98 -17.5h776v196h-848v80h848v191h-848v86h848v190h-774zM295 861h186v168h-186v-168zM744 862h186v167h-186v-167z" />
    <glyph glyph-name="FL0430h" horiz-adv-x="1094" 
d="M261 0l102 193h366l111 -193h204l-287 550q-24 45 -44 80t-42.5 59t-51.5 36.5t-69 12.5q-41 0 -71.5 -12.5t-54.5 -36.5t-44.5 -58t-42.5 -76l-287 -555h211zM459 382l88 157l87 -157h-175z" />
    <glyph glyph-name="FL0431h" horiz-adv-x="1173" 
d="M314 -3h555q49 0 95 17.5t81 48t56.5 73t21.5 93.5q0 49 -20 90.5t-54 72t-77.5 47.5t-91.5 17h-638v85h840v194h-793q-47 0 -90 -19t-76 -52t-53 -76t-20 -91v-499zM946 197h-696v86h696v-86z" />
    <glyph glyph-name="FL0432h" horiz-adv-x="1169" 
d="M837 738h-787v-738h820q48 0 93 19t79.5 51.5t55.5 76t21 93.5q0 34 -19 68.5t-39 64.5q42 65 42 138q0 58 -20 101t-55.5 71t-84.5 41.5t-106 13.5zM906 191h-660v85h660v-85zM906 467h-660v83h660v-83z" />
    <glyph glyph-name="FL0433h" horiz-adv-x="1133" 
d="M1083 547v193h-804q-44 0 -85 -18.5t-73 -50t-51.5 -72.5t-19.5 -86v-513h193v547h840z" />
    <glyph glyph-name="FL0434h" horiz-adv-x="1250" 
d="M50 0h1150v196h-77v315q0 49 -20.5 89.5t-55 70t-78.5 45.5t-92 16h-536q-48 0 -91.5 -16.5t-76.5 -46.5t-52.5 -71t-19.5 -90v-312h-51v-196zM940 196h-665v347h665v-347z" />
    <glyph glyph-name="FL0435h" 
d="M312 740q-55 0 -102.5 -16t-83 -46.5t-56 -74.5t-20.5 -100v-268q0 -53 21.5 -96.5t57.5 -75t83 -49t98 -17.5h776v196h-848v80h848v191h-848v86h848v190h-774z" />
    <glyph glyph-name="FL0436h" horiz-adv-x="1337" 
d="M299 738h-244l317 -371l-322 -367h230l208 218q21 22 32.5 34t19 20.5t13 16t13.5 20.5v-309h206v313q7 -9 12.5 -17.5t14 -18.5t20.5 -24t32 -35l207 -218h229l-320 367l315 371h-243l-194 -221q-6 -7 -16.5 -18.5t-21.5 -24.5t-21 -26.5t-14 -24.5v315h-206v-310
q-5 10 -15 23t-20.5 25.5t-20 23.5t-15.5 17z" />
    <glyph glyph-name="FL0437h" horiz-adv-x="1129" 
d="M50 738v-188h837v-86h-837v-191h837v-82h-834v-188h790q52 0 95 18.5t74.5 50.5t49 76.5t17.5 95.5q0 74 -48 129q20 34 31.5 70.5t11.5 73.5q0 51 -20.5 92t-55 69.5t-80 44t-94.5 15.5h-774z" />
    <glyph glyph-name="FL0438h" horiz-adv-x="1130" 
d="M1080 575q0 46 -15.5 79.5t-41.5 55t-59 32t-69 10.5q-80 0 -154 -72l-503 -495v550h-188v-539q0 -42 12.5 -80t36 -66t57.5 -44.5t78 -16.5q42 0 81.5 17t74.5 55l503 491v-552h187v575z" />
    <glyph glyph-name="FL0439h" horiz-adv-x="1130" 
d="M1080 575q0 45 -15.5 78t-41.5 55t-59 33t-69 11q-80 0 -154 -72l-503 -495v550h-188v-539q0 -42 12.5 -80t36 -66t57.5 -44.5t78 -16.5q42 0 84.5 19t71.5 53l503 491v-552h187v575zM303 867h558v168h-558v-168z" />
    <glyph glyph-name="FL043Ah" horiz-adv-x="1149" 
d="M712 737l-322 -189q-51 -30 -83 -57.5t-51 -70.5v318h-206v-738h206v313q18 -43 46.5 -69.5t75.5 -52.5l334 -191h387l-640 368l635 369h-382z" />
    <glyph glyph-name="FL043Bh" horiz-adv-x="1160" 
d="M243 -4v553h671v-553h196v741h-831q-43 0 -84 -21t-73.5 -55.5t-52 -77.5t-19.5 -87v-500h193z" />
    <glyph glyph-name="FL043Ch" horiz-adv-x="1194" 
d="M229 0v535l174 -379q15 -34 34 -65.5t43 -55.5t53 -38.5t65 -14.5q41 0 68 10.5t47.5 32.5t37.5 54t37 76l177 387v-542h179v532q0 40 -13 77t-37 65.5t-58 45.5t-76 17q-66 0 -112.5 -37t-69.5 -100l-183 -433l-167 411q-13 33 -32 62t-44 50.5t-55.5 34t-66.5 12.5
q-38 0 -71 -14.5t-57 -39t-38 -58t-14 -71.5v-554h179z" />
    <glyph glyph-name="FL043Dh" horiz-adv-x="1155" 
d="M237 738h-187v-738h187v279h681v-279h187v738h-187v-271h-681v271z" />
    <glyph glyph-name="FL043Eh" horiz-adv-x="1139" 
d="M312 735q-49 0 -96 -16t-84 -45t-59.5 -69t-22.5 -88v-279q0 -51 18 -94t49.5 -74.5t74.5 -49t93 -17.5h569q46 0 88.5 18t75 48.5t52 71t19.5 86.5v273q0 46 -19 89t-51 75t-74 51.5t-88 19.5h-545zM895 544v-356h-654v356h654z" />
    <glyph glyph-name="FL043Fh" horiz-adv-x="1160" 
d="M243 -4v553h671v-553h196v741h-1060v-741h193z" />
    <glyph glyph-name="FL0440h" horiz-adv-x="1180" 
d="M867 738h-817v-738h198v273h641q48 0 92 18.5t77 50.5t52.5 74.5t19.5 91.5q0 51 -21.5 93t-58 72.5t-84 47.5t-99.5 17zM248 550h686v-94h-686v94z" />
    <glyph glyph-name="FL0441h" horiz-adv-x="1151" 
d="M1101 737h-771q-139 0 -209.5 -67t-70.5 -205v-248q0 -48 21 -87.5t55 -68.5t77.5 -45t89.5 -16h808v184h-859v368h859v185z" />
    <glyph glyph-name="FL0442h" horiz-adv-x="1149" 
d="M50 737v-187h429v-550h190v550h430v187h-1049z" />
    <glyph glyph-name="FL0443h" horiz-adv-x="1174" 
d="M226 459v276h-176v-232q0 -49 20 -90.5t53.5 -72t77.5 -47.5t92 -17h636v-85h-838v-191h793q47 0 90.5 19t76.5 51t53 74.5t20 90.5v500h-196v-276h-702z" />
    <glyph glyph-name="FL0444h" horiz-adv-x="1234" 
d="M509 748v-118h-264q-44 0 -80 -11t-61.5 -30.5t-39.5 -46.5t-14 -60v-193q0 -45 25 -76.5t62.5 -50.5t82.5 -27.5t86 -8.5h203v-120h199v120h220q65 0 113 13t80 35t47.5 50t15.5 57v189q0 76 -59 118t-180 42h-237v118h-199zM1017 481v-198h-309v198h309zM509 481v-198
h-301v198h301z" />
    <glyph glyph-name="FL0445h" 
d="M1081 738h-243l-194 -221q-7 -8 -19 -20.5t-24 -27.5t-22 -30t-13 -28q-6 13 -10 20.5t-9.5 15t-14 17.5t-23.5 28l-210 246h-249l332 -368l-318 -370h246l193 232q6 7 15.5 18t19 23.5t17.5 26t11 24.5q4 -9 8.5 -17t13.5 -19.5t23.5 -28t38.5 -41.5l207 -218h229
l-320 367z" />
    <glyph glyph-name="FL0446h" horiz-adv-x="1199" 
d="M1149 196h-77v536h-189v-536h-642v536h-191v-528q0 -50 20.5 -88.5t54 -64t75.5 -38.5t85 -13h864v196z" />
    <glyph glyph-name="FL0447h" horiz-adv-x="1180" 
d="M942 392h-690v348h-202v-279q0 -63 22 -111t60.5 -81t90.5 -50t112 -17h607v-202h188v740h-188v-348z" />
    <glyph glyph-name="FL0448h" horiz-adv-x="1140" 
d="M243 736h-193v-741h1040v741h-196v-553h-229v553h-200v-553h-222v553z" />
    <glyph glyph-name="FL0449h" horiz-adv-x="1247" 
d="M243 736h-193v-741h1147v188h-107v553h-196v-553h-229v553h-199v-553h-223v553z" />
    <glyph glyph-name="FL044Ah" horiz-adv-x="1270" 
d="M957 -4q49 0 96.5 17t84.5 47.5t59.5 73t22.5 92.5q0 49 -19.5 91.5t-52.5 74.5t-77 50.5t-92 18.5h-641v277h-288v-142h92v-600h815zM338 184v94h686v-94h-686z" />
    <glyph glyph-name="FL044Bh" horiz-adv-x="1206" 
d="M627 -4q51 0 98.5 17t84 47.5t58.5 73t22 92.5q0 49 -19.5 91.5t-52.5 74.5t-77 50.5t-92 18.5h-401v276h-198v-741h577zM1156 737h-181v-743h181v743zM248 184v94h446v-94h-446z" />
    <glyph glyph-name="FL044Ch" horiz-adv-x="1178" 
d="M865 -4q49 0 96.5 17t84.5 47.5t59.5 73t22.5 92.5q0 49 -19.5 91.5t-52.5 74.5t-77 50.5t-92 18.5h-641v276h-196v-741h815zM246 184v94h686v-94h-686z" />
    <glyph glyph-name="FL044Dh" 
d="M824 740h-774v-190h848v-86h-848v-193h848v-78h-848v-196h776q51 0 98 17.5t83 49t57.5 75t21.5 96.5v268q0 56 -20.5 100t-56 74.5t-83 46.5t-102.5 16z" />
    <glyph glyph-name="FL044Eh" horiz-adv-x="1175" 
d="M629 735q-34 0 -74.5 -17t-76 -44.5t-59 -62.5t-23.5 -70v-69h-153v256h-193v-726h193v263h153v-53q0 -42 20.5 -79.5t51.5 -66.5t67 -46t67 -17h288q46 0 88.5 18t75 48.5t52 71t19.5 86.5v273q0 46 -19 89t-51 75t-74 51.5t-88 19.5h-264zM931 544v-356h-344v356h344z
" />
    <glyph glyph-name="FL044Fh" horiz-adv-x="1139" 
d="M1089 736l-807 -1q-44 0 -85 -19t-72 -50.5t-49.5 -73t-18.5 -87.5q0 -34 11 -67t31 -62q-23 -27 -36 -60.5t-13 -64.5v-251h190v276h655v-276h194v736zM895 461h-655v89h655v-89z" />
    <glyph glyph-name="FL0405h" horiz-adv-x="1233" 
d="M932 461h-680v90h881v181h-806q-51 0 -100.5 -15.5t-88.5 -45t-63.5 -72t-24.5 -96.5q0 -50 21 -92.5t56 -73t80.5 -47.5t94.5 -17h690v-88h-895v-185h837q48 0 93 17t79.5 47t55.5 71.5t21 91.5q0 48 -19.5 91t-53 74.5t-79.5 50t-99 18.5z" />
    <glyph glyph-name="FL0455h" horiz-adv-x="1233" 
d="M932 461h-680v90h881v181h-806q-51 0 -100.5 -15.5t-88.5 -45t-63.5 -72t-24.5 -96.5q0 -50 21 -92.5t56 -73t80.5 -47.5t94.5 -17h690v-88h-895v-185h837q48 0 93 17t79.5 47t55.5 71.5t21 91.5q0 48 -19.5 91t-53 74.5t-79.5 50t-99 18.5z" />
    <glyph glyph-name="FL0458h" horiz-adv-x="1134" 
d="M1084 207v528h-190v-544h-647v66h-197q0 -51 17.5 -97.5t48 -82t72 -56.5t90.5 -21h596q39 0 77 16t67.5 44t47.5 65.5t18 81.5z" />
    <glyph glyph-name="FL0408h" horiz-adv-x="1134" 
d="M1084 207v528h-190v-544h-647v66h-197q0 -51 17.5 -97.5t48 -82t72 -56.5t90.5 -21h596q39 0 77 16t67.5 44t47.5 65.5t18 81.5z" />
    <glyph glyph-name="FL0406h" unicode="&#x406;" horiz-adv-x="307" 
d="M257 738h-207v-744h207v744z" />
    <glyph glyph-name="FL0456h" horiz-adv-x="307" 
d="M257 738h-207v-744h207v744z" />
    <glyph glyph-name="FL00D0h" horiz-adv-x="1180" 
d="M867 738h-817v-738h198v273h641q48 0 92 18.5t77 50.5t52.5 74.5t19.5 91.5q0 51 -21.5 93t-58 72.5t-84 47.5t-99.5 17zM248 550h686v-94h-686v94z" />
    <glyph glyph-name="FL00D7h" horiz-adv-x="1180" 
d="M942 392h-690v348h-202v-279q0 -63 22 -111t60.5 -81t90.5 -50t112 -17h607v-202h188v740h-188v-348z" />
    <glyph glyph-name="FL00DDh" 
d="M824 740h-774v-190h848v-86h-848v-193h848v-78h-848v-196h776q51 0 98 17.5t83 49t57.5 75t21.5 96.5v268q0 56 -20.5 100t-56 74.5t-83 46.5t-102.5 16z" />
    <glyph glyph-name="FL00DEh" horiz-adv-x="1175" 
d="M629 735q-34 0 -74.5 -17t-76 -44.5t-59 -62.5t-23.5 -70v-69h-153v256h-193v-726h193v263h153v-53q0 -42 20.5 -79.5t51.5 -66.5t67 -46t67 -17h288q46 0 88.5 18t75 48.5t52 71t19.5 86.5v273q0 46 -19 89t-51 75t-74 51.5t-88 19.5h-264zM931 544v-356h-344v356h344z
" />
    <glyph glyph-name="FL00F0h" horiz-adv-x="1180" 
d="M867 738h-817v-738h198v273h641q48 0 92 18.5t77 50.5t52.5 74.5t19.5 91.5q0 51 -21.5 93t-58 72.5t-84 47.5t-99.5 17zM248 550h686v-94h-686v94z" />
    <glyph glyph-name="FL00FDh" 
d="M824 740h-774v-190h848v-86h-848v-193h848v-78h-848v-196h776q51 0 98 17.5t83 49t57.5 75t21.5 96.5v268q0 56 -20.5 100t-56 74.5t-83 46.5t-102.5 16z" />
    <glyph glyph-name="FL00FEh" horiz-adv-x="1175" 
d="M629 735q-34 0 -74.5 -17t-76 -44.5t-59 -62.5t-23.5 -70v-69h-153v256h-193v-726h193v263h153v-53q0 -42 20.5 -79.5t51.5 -66.5t67 -46t67 -17h288q46 0 88.5 18t75 48.5t52 71t19.5 86.5v273q0 46 -19 89t-51 75t-74 51.5t-88 19.5h-264zM931 544v-356h-344v356h344z
" />
    <glyph glyph-name="FL00B9h" unicode="&#xb9;" horiz-adv-x="1161" 
d="M50 575v-575l130 -3v555l348 -491q28 -38 54 -55t54 -17q36 0 60.5 19t39.5 48.5t21.5 66.5t6.5 73v539h-130v-550l-349 495q-51 72 -107 72q-31 0 -55 -16t-40 -41.5t-24.5 -57t-8.5 -62.5zM965 441q31 0 57.5 12t46 32.5t31 47.5t11.5 57q0 32 -12 60.5t-32.5 49.5
t-48.5 33.5t-60 12.5q-31 0 -57 -13t-44.5 -35t-29 -50t-10.5 -58t12 -57t32 -47.5t47 -32.5t57 -12zM911 645h100v-98h-100v98z" />
    <glyph glyph-name="afii10065" unicode="&#x430;" horiz-adv-x="1094" 
d="M261 0l102 193h366l111 -193h204l-287 550q-24 45 -44 80t-42.5 59t-51.5 36.5t-69 12.5q-41 0 -71.5 -12.5t-54.5 -36.5t-44.5 -58t-42.5 -76l-287 -555h211zM459 382l88 157l87 -157h-175z" />
    <glyph glyph-name="afii10066" unicode="&#x431;" horiz-adv-x="1173" 
d="M314 -3h555q49 0 95 17.5t81 48t56.5 73t21.5 93.5q0 49 -20 90.5t-54 72t-77.5 47.5t-91.5 17h-638v85h840v194h-793q-47 0 -90 -19t-76 -52t-53 -76t-20 -91v-499zM946 197h-704v86h704v-86z" />
    <glyph glyph-name="afii10067" unicode="&#x432;" horiz-adv-x="1169" 
d="M837 738h-787v-738h820q48 0 93 19t79.5 51.5t55.5 76t21 93.5q0 34 -19 68.5t-39 64.5q42 65 42 138q0 58 -20 101t-55.5 71t-84.5 41.5t-106 13.5zM906 191h-660v85h660v-85zM906 467h-660v83h660v-83z" />
    <glyph glyph-name="afii10068" unicode="&#x433;" horiz-adv-x="1133" 
d="M1083 547v193h-804q-44 0 -85 -18.5t-73 -50t-51.5 -72.5t-19.5 -86v-513h193v547h840z" />
    <glyph glyph-name="afii10069" unicode="&#x434;" horiz-adv-x="1250" 
d="M50 0h1150v196h-77v315q0 49 -20.5 89.5t-55 70t-78.5 45.5t-92 16h-536q-48 0 -91.5 -16.5t-76.5 -46.5t-52.5 -71t-19.5 -90v-312h-51v-196zM940 196h-665v347h665v-347z" />
    <glyph glyph-name="afii10070" unicode="&#x435;" 
d="M312 740q-55 0 -102.5 -16t-83 -46.5t-56 -74.5t-20.5 -100v-268q0 -53 21.5 -96.5t57.5 -75t83 -49t98 -17.5h776v196h-848v80h848v191h-848v86h848v190h-774z" />
    <glyph glyph-name="afii10072" unicode="&#x436;" horiz-adv-x="1337" 
d="M299 738h-244l317 -371l-322 -367h230l208 218q21 22 32.5 34t19 20.5t13 16t13.5 20.5v-309h206v313q7 -9 12.5 -17.5t14 -18.5t20.5 -24t32 -35l207 -218h229l-320 367l315 371h-243l-194 -221q-6 -7 -16.5 -18.5t-21.5 -24.5t-21 -26.5t-14 -24.5v315h-206v-310
q-5 10 -15 23t-20.5 25.5t-20 23.5t-15.5 17z" />
    <glyph glyph-name="afii10073" unicode="&#x437;" horiz-adv-x="1129" 
d="M50 738v-188h837v-86h-837v-191h837v-82h-834v-188h790q52 0 95 18.5t74.5 50.5t49 76.5t17.5 95.5q0 74 -48 129q20 34 31.5 70.5t11.5 73.5q0 51 -20.5 92t-55 69.5t-80 44t-94.5 15.5h-774z" />
    <glyph glyph-name="afii10074" unicode="&#x438;" horiz-adv-x="1130" 
d="M1080 575q0 46 -15.5 79.5t-41.5 55t-59 32t-69 10.5q-80 0 -154 -72l-503 -495v550h-188v-539q0 -42 12.5 -80t36 -66t57.5 -44.5t78 -16.5q42 0 81.5 17t74.5 55l503 491v-552h187v575z" />
    <glyph glyph-name="afii10075" unicode="&#x439;" horiz-adv-x="1130" 
d="M1080 575q0 45 -15.5 78t-41.5 55t-59 33t-69 11q-80 0 -154 -72l-503 -495v550h-188v-539q0 -42 12.5 -80t36 -66t57.5 -44.5t78 -16.5q42 0 84.5 19t71.5 53l503 491v-552h187v575zM303 867h558v168h-558v-168z" />
    <glyph glyph-name="afii10076" unicode="&#x43a;" horiz-adv-x="1149" 
d="M712 737l-322 -189q-51 -30 -83 -57.5t-51 -70.5v318h-206v-738h206v313q18 -43 46.5 -69.5t75.5 -52.5l334 -191h387l-640 368l635 369h-382z" />
    <glyph glyph-name="afii10077" unicode="&#x43b;" horiz-adv-x="1160" 
d="M243 -4v553h671v-553h196v741h-831q-43 0 -84 -21t-73.5 -55.5t-52 -77.5t-19.5 -87v-500h193z" />
    <glyph glyph-name="afii10078" unicode="&#x43c;" horiz-adv-x="1194" 
d="M229 0v535l174 -379q15 -34 34 -65.5t43 -55.5t53 -38.5t65 -14.5q41 0 68 10.5t47.5 32.5t37.5 54t37 76l177 387v-542h179v532q0 40 -13 77t-37 65.5t-58 45.5t-76 17q-66 0 -112.5 -37t-69.5 -100l-183 -433l-167 411q-13 33 -32 62t-44 50.5t-55.5 34t-66.5 12.5
q-38 0 -71 -14.5t-57 -39t-38 -58t-14 -71.5v-554h179z" />
    <glyph glyph-name="afii10079" unicode="&#x43d;" horiz-adv-x="1155" 
d="M237 738h-187v-738h187v279h681v-279h187v738h-187v-271h-681v271z" />
    <glyph glyph-name="afii10080" unicode="&#x43e;" horiz-adv-x="1139" 
d="M312 735q-49 0 -96 -16t-84 -45t-59.5 -69t-22.5 -88v-279q0 -51 18 -94t49.5 -74.5t74.5 -49t93 -17.5h569q46 0 88.5 18t75 48.5t52 71t19.5 86.5v273q0 46 -19 89t-51 75t-74 51.5t-88 19.5h-545zM895 544v-356h-654v356h654z" />
    <glyph glyph-name="afii10081" unicode="&#x43f;" horiz-adv-x="1160" 
d="M243 -4v553h671v-553h196v741h-1060v-741h193z" />
    <glyph glyph-name="afii10082" unicode="&#x440;" horiz-adv-x="1180" 
d="M867 738h-817v-738h198v273h641q48 0 92 18.5t77 50.5t52.5 74.5t19.5 91.5q0 51 -21.5 93t-58 72.5t-84 47.5t-99.5 17zM248 550h686v-94h-686v94z" />
    <glyph glyph-name="afii10083" unicode="&#x441;" horiz-adv-x="1151" 
d="M1101 737h-771q-139 0 -209.5 -67t-70.5 -205v-248q0 -48 21 -87.5t55 -68.5t77.5 -45t89.5 -16h808v184h-859v368h859v185z" />
    <glyph glyph-name="afii10084" unicode="&#x442;" horiz-adv-x="1149" 
d="M50 737v-187h429v-550h190v550h430v187h-1049z" />
    <glyph glyph-name="afii10085" unicode="&#x443;" horiz-adv-x="1174" 
d="M226 459v276h-176v-232q0 -49 20 -90.5t53.5 -72t77.5 -47.5t92 -17h636v-85h-838v-191h793q47 0 90.5 19t76.5 51t53 74.5t20 90.5v500h-196v-276h-702z" />
    <glyph glyph-name="afii10086" unicode="&#x444;" horiz-adv-x="1234" 
d="M509 748v-118h-264q-44 0 -80 -11t-61.5 -30.5t-39.5 -46.5t-14 -60v-193q0 -45 25 -76.5t62.5 -50.5t82.5 -27.5t86 -8.5h203v-120h199v120h220q65 0 113 13t80 35t47.5 50t15.5 57v189q0 76 -59 118t-180 42h-237v118h-199zM1017 481v-198h-309v198h309zM509 481v-198
h-301v198h301z" />
    <glyph glyph-name="afii10087" unicode="&#x445;" 
d="M1081 738h-243l-194 -221q-7 -8 -19 -20.5t-24 -27.5t-22 -30t-13 -28q-6 13 -10 20.5t-9.5 15t-14 17.5t-23.5 28l-210 246h-249l332 -368l-318 -370h246l193 232q6 7 15.5 18t19 23.5t17.5 26t11 24.5q4 -9 8.5 -17t13.5 -19.5t23.5 -28t38.5 -41.5l207 -218h229
l-320 367z" />
    <glyph glyph-name="afii10088" unicode="&#x446;" horiz-adv-x="1199" 
d="M1149 196h-77v536h-189v-536h-642v536h-191v-528q0 -50 20.5 -88.5t54 -64t75.5 -38.5t85 -13h864v196z" />
    <glyph glyph-name="afii10089" unicode="&#x447;" horiz-adv-x="1180" 
d="M942 392h-690v348h-202v-279q0 -63 22 -111t60.5 -81t90.5 -50t112 -17h607v-202h188v740h-188v-348z" />
    <glyph glyph-name="afii10090" unicode="&#x448;" horiz-adv-x="1140" 
d="M243 736h-193v-741h1040v741h-196v-553h-229v553h-200v-553h-222v553z" />
    <glyph glyph-name="afii10091" unicode="&#x449;" horiz-adv-x="1247" 
d="M243 736h-193v-741h1147v188h-107v553h-196v-553h-229v553h-199v-553h-223v553z" />
    <glyph glyph-name="afii10092" unicode="&#x44a;" horiz-adv-x="1270" 
d="M957 -4q49 0 96.5 17t84.5 47.5t59.5 73t22.5 92.5q0 49 -19.5 91.5t-52.5 74.5t-77 50.5t-92 18.5h-641v277h-288v-142h92v-600h815zM338 184v94h686v-94h-686z" />
    <glyph glyph-name="afii10093" unicode="&#x44b;" horiz-adv-x="1206" 
d="M627 -4q51 0 98.5 17t84 47.5t58.5 73t22 92.5q0 49 -19.5 91.5t-52.5 74.5t-77 50.5t-92 18.5h-401v276h-198v-741h577zM1156 737h-181v-743h181v743zM248 184v94h446v-94h-446z" />
    <glyph glyph-name="afii10094" unicode="&#x44c;" horiz-adv-x="1178" 
d="M865 -4q49 0 96.5 17t84.5 47.5t59.5 73t22.5 92.5q0 49 -19.5 91.5t-52.5 74.5t-77 50.5t-92 18.5h-641v276h-196v-741h815zM246 184v94h686v-94h-686z" />
    <glyph glyph-name="afii10095" unicode="&#x44d;" 
d="M824 740h-774v-190h848v-86h-848v-193h848v-78h-848v-196h776q51 0 98 17.5t83 49t57.5 75t21.5 96.5v268q0 56 -20.5 100t-56 74.5t-83 46.5t-102.5 16z" />
    <glyph glyph-name="afii10096" unicode="&#x44e;" horiz-adv-x="1175" 
d="M629 735q-34 0 -74.5 -17t-76 -44.5t-59 -62.5t-23.5 -70v-69h-153v256h-193v-726h193v263h153v-53q0 -42 20.5 -79.5t51.5 -66.5t67 -46t67 -17h288q46 0 88.5 18t75 48.5t52 71t19.5 86.5v273q0 46 -19 89t-51 75t-74 51.5t-88 19.5h-264zM931 544v-356h-344v356h344z
" />
    <glyph glyph-name="afii10097" unicode="&#x44f;" horiz-adv-x="1139" 
d="M1089 736l-807 -1q-44 0 -85 -19t-72 -50.5t-49.5 -73t-18.5 -87.5q0 -34 11 -67t31 -62q-23 -27 -36 -60.5t-13 -64.5v-251h190v276h655v-276h194v736zM895 461h-655v89h655v-89z" />
    <glyph glyph-name="afii10103" unicode="&#x456;" horiz-adv-x="307" 
d="M257 738h-207v-744h207v744z" />
    <glyph glyph-name="afii10054" unicode="&#x405;" horiz-adv-x="1233" 
d="M932 461h-680v90h881v181h-806q-51 0 -100.5 -15.5t-88.5 -45t-63.5 -72t-24.5 -96.5q0 -50 21 -92.5t56 -73t80.5 -47.5t94.5 -17h690v-88h-895v-185h837q48 0 93 17t79.5 47t55.5 71.5t21 91.5q0 48 -19.5 91t-53 74.5t-79.5 50t-99 18.5z" />
    <glyph glyph-name="afii10102" unicode="&#x455;" horiz-adv-x="1233" 
d="M932 461h-680v90h881v181h-806q-51 0 -100.5 -15.5t-88.5 -45t-63.5 -72t-24.5 -96.5q0 -50 21 -92.5t56 -73t80.5 -47.5t94.5 -17h690v-88h-895v-185h837q48 0 93 17t79.5 47t55.5 71.5t21 91.5q0 48 -19.5 91t-53 74.5t-79.5 50t-99 18.5z" />
    <glyph glyph-name="afii10105" unicode="&#x458;" horiz-adv-x="1134" 
d="M1084 207v528h-190v-544h-647v66h-197q0 -51 17.5 -97.5t48 -82t72 -56.5t90.5 -21h596q39 0 77 16t67.5 44t47.5 65.5t18 81.5z" />
    <glyph glyph-name="afii10057" unicode="&#x408;" horiz-adv-x="1134" 
d="M1084 207v528h-190v-544h-647v66h-197q0 -51 17.5 -97.5t48 -82t72 -56.5t90.5 -21h596q39 0 77 16t67.5 44t47.5 65.5t18 81.5z" />
    <glyph glyph-name="afii10071" unicode="&#x451;" 
d="M312 740q-56 0 -104 -17.5t-83 -48.5t-55 -75t-20 -96v-268q0 -53 21.5 -96.5t57.5 -75t83 -49t98 -17.5h776v196h-848v80h848v191h-848v86h848v190h-774zM295 861h186v168h-186v-168zM744 862h186v167h-186v-167z" />
    <glyph glyph-name="FL0160" horiz-adv-x="1000" 
 />
    <glyph glyph-name="Eth" unicode="&#xd0;" horiz-adv-x="1180" 
d="M867 738h-817v-738h198v273h641q48 0 92 18.5t77 50.5t52.5 74.5t19.5 91.5q0 51 -21.5 93t-58 72.5t-84 47.5t-99.5 17zM248 550h686v-94h-686v94z" />
    <glyph glyph-name="multiply" unicode="&#xd7;" horiz-adv-x="1180" 
d="M942 392h-690v348h-202v-279q0 -63 22 -111t60.5 -81t90.5 -50t112 -17h607v-202h188v740h-188v-348z" />
    <glyph glyph-name="Yacute" unicode="&#xdd;" 
d="M824 740h-774v-190h848v-86h-848v-193h848v-78h-848v-196h776q51 0 98 17.5t83 49t57.5 75t21.5 96.5v268q0 56 -20.5 100t-56 74.5t-83 46.5t-102.5 16z" />
    <glyph glyph-name="Thorn" unicode="&#xde;" horiz-adv-x="1175" 
d="M629 735q-34 0 -74.5 -17t-76 -44.5t-59 -62.5t-23.5 -70v-69h-153v256h-193v-726h193v263h153v-53q0 -42 20.5 -79.5t51.5 -66.5t67 -46t67 -17h288q46 0 88.5 18t75 48.5t52 71t19.5 86.5v273q0 46 -19 89t-51 75t-74 51.5t-88 19.5h-264zM931 544v-356h-344v356h344z
" />
    <glyph glyph-name="eth" unicode="&#xf0;" horiz-adv-x="1180" 
d="M867 738h-817v-738h198v273h641q48 0 92 18.5t77 50.5t52.5 74.5t19.5 91.5q0 51 -21.5 93t-58 72.5t-84 47.5t-99.5 17zM248 550h686v-94h-686v94z" />
    <glyph glyph-name="yacute" unicode="&#xfd;" 
d="M824 740h-774v-190h848v-86h-848v-193h848v-78h-848v-196h776q51 0 98 17.5t83 49t57.5 75t21.5 96.5v268q0 56 -20.5 100t-56 74.5t-83 46.5t-102.5 16z" />
    <glyph glyph-name="thorn" unicode="&#xfe;" horiz-adv-x="1175" 
d="M629 735q-34 0 -74.5 -17t-76 -44.5t-59 -62.5t-23.5 -70v-69h-153v256h-193v-726h193v263h153v-53q0 -42 20.5 -79.5t51.5 -66.5t67 -46t67 -17h288q46 0 88.5 18t75 48.5t52 71t19.5 86.5v273q0 46 -19 89t-51 75t-74 51.5t-88 19.5h-264zM931 544v-356h-344v356h344z
" />
    <glyph glyph-name="FL0184" 
d="M312 740q-56 0 -104 -17.5t-83 -48.5t-55 -75t-20 -96v-268q0 -53 21.5 -96.5t57.5 -75t83 -49t98 -17.5h776v196h-848v80h848v191h-848v86h848v190h-774zM295 861h186v168h-186v-168zM744 862h186v167h-186v-167z" />
    <glyph glyph-name="FL0168" 
d="M312 740q-56 0 -104 -17.5t-83 -48.5t-55 -75t-20 -96v-268q0 -53 21.5 -96.5t57.5 -75t83 -49t98 -17.5h776v196h-848v80h848v191h-848v86h848v190h-774zM295 861h186v168h-186v-168zM744 862h186v167h-186v-167z" />
    </font>
</defs>
</svg>
