<?xml version="1.0" standalone="no"?>
<!DOCTYPE svg PUBLIC "-//W3C//DTD SVG 1.1//EN" "http://www.w3.org/Graphics/SVG/1.1/DTD/svg11.dtd" >
<svg xmlns="http://www.w3.org/2000/svg" xmlns:xlink="http://www.w3.org/1999/xlink" version="1.1">
<metadata>
Created by FontForge 20161116 at Sat Oct 17 11:49:08 2015
 By Jimmy Wärting
Copyright \(c\) 2015 by DearType, Veneta Rangelova. All rights reserved.
</metadata>
<defs>
<font id="LifehackItalic-Regular" horiz-adv-x="0" >
  <font-face 
    font-family="Lifehack Italic"
    font-weight="400"
    font-stretch="normal"
    units-per-em="1000"
    panose-1="0 0 5 0 0 0 0 0 0 0"
    ascent="730"
    descent="-270"
    x-height="431"
    cap-height="787"
    bbox="-605.059 -458 2354 1070"
    underline-thickness="50"
    underline-position="-100"
    stemv="145"
    unicode-range="U+0020-FB02"
  />
<missing-glyph horiz-adv-x="500" 
d="M410 730v-1000h-317v1000h317zM333 663h-165v-33h65v-37h-66v-33h166v33h-66v37h66v33zM267 534h-100v-104h166v34h-66v70zM233 500v-36h-33v36h33zM333 403h-166v-33h66v-37h-66v-33h100v70h66v33zM333 343h-33v-66h-133v-34h166v100zM333 221h-100v-56h34v23h33v-47
h-100v80h-33v-113h166v113zM333 48h-166v-113h166v113zM300 15v-47h-100v47h100zM333 -88h-166v-33h70l-70 -47v-33h166v33h-102l70 47h32v33z" />
    <glyph glyph-name="fi" unicode="fi" horiz-adv-x="560" 
d="M459 368c37 0 55 -17 55 -52c0 -6 -6 -25 -42 -300c-18 -10 -31 -14 -45 -14c-31 0 -44 16 -44 70c0 59 16 121 29 212c-25 -29 -69 -55 -122 -55c-24 0 -47 4 -65 13c40 -55 40 -113 31 -190c-19 -157 -88 -280 -157 -280c-76 0 -99 140 -67 395c23 188 85 517 209 517
c25 0 44 -14 57 -42c-17 -80 -75 -188 -127 -235c-4 -32 -7 -55 -11 -81c45 -43 91 -64 138 -64c75 0 110 62 123 102c13 2 25 4 38 4zM504 534c25 0 42 -16 42 -38c0 -27 -46 -66 -74 -66s-36 37 -36 61c0 27 31 43 68 43zM216 73c12 98 -6 165 -64 197l-20 -144
c-29 -233 -34 -283 -8 -283c32 0 79 126 92 230z" />
    <glyph glyph-name="fl" unicode="fl" horiz-adv-x="772" 
d="M847 319c11 0 17 -6 17 -15c0 -30 -204 -283 -352 -283c-73 0 -114 78 -114 203c0 19 1 37 3 56c-29 -31 -65 -51 -107 -51c-25 0 -50 4 -69 13c40 -54 40 -113 31 -190c-19 -157 -88 -280 -157 -280c-76 0 -99 140 -67 395c23 188 85 517 209 517c25 0 44 -14 57 -42
c-17 -80 -75 -188 -127 -235c-4 -32 -7 -55 -11 -81c45 -43 91 -64 138 -64c64 0 98 54 124 124c47 167 156 308 240 308c32 0 52 -24 52 -59c0 -99 -118 -269 -209 -403v-10c0 -89 22 -143 64 -143c78 0 236 186 278 240zM653 657c-51 0 -118 -200 -140 -348
c80 108 156 260 156 323c0 15 -5 25 -16 25zM216 73c12 98 -6 165 -64 197l-20 -144c-29 -233 -34 -283 -8 -283c32 0 79 126 92 230z" />
    <glyph glyph-name="a_z.liga" unicode="az" horiz-adv-x="1105" 
d="M1171 316c16 1 17 -8 15 -24c-70 -18 -179 -69 -286 -134c10 -20 16 -43 16 -70c0 -158 -196 -325 -322 -325c-41 0 -69 19 -69 65c0 86 126 209 272 311c-15 42 -56 67 -128 82c-5 13 -1 19 14 29c78 48 133 95 133 127c0 13 -7 16 -20 16h-111c-16 0 -29 1 -40 4
c-77 -162 -186 -296 -286 -296c-47 0 -61 31 -59 79c-40 -69 -125 -133 -189 -133c-62 0 -104 47 -104 113c0 140 132 275 267 275c59 0 117 -43 125 -89c-21 -62 -31 -105 -31 -136c0 -36 12 -57 35 -57c40 0 143 95 208 259c-10 9 -16 21 -16 37c0 29 29 64 67 64
c43 0 41 -35 18 -68c18 -2 40 -3 67 -3c113 0 151 -15 151 -54c0 -26 -28 -76 -120 -143c27 0 69 -18 100 -53c114 70 229 120 293 124zM142 124c64 0 155 172 173 236c-2 29 -22 38 -41 38c-57 0 -158 -144 -158 -228c0 -26 10 -46 26 -46zM801 66c1 10 2 19 2 28
c-122 -88 -220 -187 -220 -262c0 -17 9 -27 22 -27c43 0 178 135 196 261z" />
    <glyph glyph-name="a_z_z.liga" unicode="azz" horiz-adv-x="1551" 
d="M1639 316c16 1 17 -8 15 -24c-70 -18 -179 -69 -286 -134c10 -20 16 -43 16 -70c0 -158 -196 -325 -322 -325c-41 0 -69 19 -69 65c0 86 126 209 272 311c-15 42 -56 67 -128 82c-5 13 -1 19 14 29c78 48 133 95 133 127c0 13 -7 16 -20 16h-111c-17 0 -31 2 -42 4
c-65 -100 -132 -172 -221 -238c10 -20 16 -44 16 -71c0 -158 -196 -325 -322 -325c-41 0 -69 19 -69 65c0 87 123 215 272 311c-16 42 -57 67 -128 82c-5 13 -1 19 14 29c78 48 133 95 133 127c0 13 -7 16 -20 16h-111c-12 0 -22 1 -30 2c-78 -161 -186 -294 -286 -294
c-47 0 -61 31 -59 79c-40 -69 -125 -133 -189 -133c-62 0 -104 47 -104 113c0 140 132 275 267 275c59 0 117 -43 125 -89c-21 -62 -31 -105 -31 -136c0 -36 12 -57 35 -57c40 0 141 93 206 254c-15 8 -24 22 -24 42c0 29 29 64 67 64c43 0 41 -35 18 -68c18 -2 40 -3 67 -3
c113 0 151 -15 151 -54c0 -26 -28 -76 -120 -143c27 0 69 -18 99 -53c89 63 145 118 213 220c-11 8 -17 21 -17 37c0 29 29 64 67 64c43 0 41 -35 18 -68c18 -2 40 -3 67 -3c113 0 151 -15 151 -54c0 -26 -28 -76 -120 -143c27 0 69 -18 100 -53c114 70 229 120 293 124z
M142 124c64 0 155 172 173 236c-2 29 -22 38 -41 38c-57 0 -158 -144 -158 -228c0 -26 10 -46 26 -46zM1269 66c1 10 2 19 2 28c-122 -88 -220 -187 -220 -262c0 -17 9 -27 22 -27c43 0 178 135 196 261zM595 -195c43 0 178 135 196 261c1 9 2 18 2 26
c-123 -89 -220 -187 -220 -260c0 -17 9 -27 22 -27z" />
    <glyph glyph-name="b_z.liga" unicode="bz" horiz-adv-x="1075" 
d="M1171 316c16 1 17 -8 15 -24c-70 -18 -179 -69 -286 -134c10 -20 16 -43 16 -70c0 -158 -196 -325 -322 -325c-41 0 -69 19 -69 65c0 86 126 209 272 311c-15 42 -56 67 -128 82c-5 13 -1 19 14 29c78 48 133 95 133 127c0 13 -7 16 -20 16h-111c-13 0 -24 1 -33 2
c-41 -82 -145 -231 -247 -255c-40 -91 -118 -178 -207 -178c-123 0 -177 96 -155 280c8 60 19 132 48 214c48 138 135 228 216 228c47 0 63 -31 57 -79c-13 -100 -116 -268 -211 -368c-4 -117 23 -203 71 -203c41 0 86 50 116 107c-65 15 -91 67 -85 114c5 42 39 86 103 86
c50 0 84 -36 76 -103c-2 -16 -6 -34 -11 -51c69 23 143 123 201 217l-3 3c-16 7 -26 22 -26 42c0 29 29 64 67 64c43 0 41 -35 18 -68c18 -2 40 -3 67 -3c113 0 151 -15 151 -54c0 -26 -28 -76 -120 -143c27 0 69 -18 100 -53c114 70 229 120 293 124zM288 608
c-56 0 -117 -202 -129 -303c-1 -7 -2 -13 -2 -20c67 82 143 208 153 286c2 22 -6 37 -22 37zM302 266c-4 -30 19 -66 60 -79c8 22 14 42 16 60c6 50 -10 68 -30 68c-28 0 -43 -28 -46 -49zM801 66c1 10 2 19 2 28c-122 -88 -220 -187 -220 -262c0 -17 9 -27 22 -27
c43 0 178 135 196 261z" />
    <glyph glyph-name="c_z.liga" unicode="cz" horiz-adv-x="1050" 
d="M1152 316c16 1 17 -8 15 -24c-70 -18 -179 -69 -286 -134c10 -20 16 -43 16 -70c0 -158 -196 -325 -322 -325c-41 0 -69 19 -69 65c0 86 126 209 272 311c-15 42 -56 67 -128 82c-5 13 -1 19 14 29c78 48 133 95 133 127c0 13 -7 16 -20 16h-111c-12 0 -23 1 -32 2
c-50 -103 -244 -359 -429 -359c-130 0 -181 96 -169 194c13 102 100 206 232 206c63 0 121 -39 116 -74c-1 -13 -16 -23 -50 -38c-21 42 -42 61 -69 61c-64 0 -106 -75 -115 -150s15 -149 81 -149c129 0 275 170 374 318l-3 3c-16 7 -26 22 -26 42c0 29 29 64 67 64
c43 0 41 -35 18 -68c18 -2 40 -3 67 -3c113 0 151 -15 151 -54c0 -26 -28 -76 -120 -143c27 0 69 -18 100 -53c114 70 229 120 293 124zM782 66c1 10 2 19 2 28c-122 -88 -220 -187 -220 -262c0 -17 9 -27 22 -27c43 0 178 135 196 261z" />
    <glyph glyph-name="d_d.liga" unicode="dd" horiz-adv-x="1175" 
d="M1249 323c12 -4 20 -12 20 -20c0 -40 -139 -262 -270 -262c-62 0 -92 63 -105 130c-29 -76 -88 -121 -159 -121c-86 0 -127 62 -131 133c-45 -67 -119 -142 -199 -142c-70 0 -96 60 -103 132c-32 -59 -85 -93 -146 -93c-206 0 -153 347 42 347c49 0 89 -23 115 -64
c1 12 3 22 4 30c24 198 58 274 118 274c15 0 29 -7 45 -25c-40 -85 -70 -188 -82 -287c-18 -149 -15 -260 46 -260c68 0 139 112 174 183c25 70 81 128 160 128c45 0 83 -20 109 -56c11 267 79 335 138 335c16 0 30 -7 48 -26c-57 -122 -96 -262 -96 -402
c0 -101 21 -162 62 -162c75 0 177 166 210 228zM184 134c49 0 95 70 118 170c-16 36 -39 67 -82 67c-44 0 -79 -51 -88 -122s11 -115 52 -115zM768 106c49 0 93 73 115 177c-15 36 -35 66 -77 66c-52 0 -92 -67 -92 -153c0 -55 19 -90 54 -90z" />
    <glyph glyph-name="d_z.liga" unicode="dz" horiz-adv-x="1145" 
d="M1241 316c16 1 17 -8 15 -24c-70 -18 -179 -69 -286 -134c10 -20 16 -43 16 -70c0 -158 -196 -325 -322 -325c-41 0 -69 19 -69 65c0 86 126 209 272 311c-15 42 -56 67 -128 82c-5 13 -1 19 14 29c78 48 133 95 133 127c0 13 -7 16 -20 16h-111c-11 0 -21 1 -30 2
c-63 -151 -180 -354 -298 -354c-65 0 -97 64 -111 132c-29 -77 -89 -123 -160 -123c-206 0 -153 356 43 356c45 0 82 -20 109 -56c11 266 78 335 138 335c16 0 30 -7 48 -26c-57 -122 -96 -262 -96 -402c0 -101 21 -162 62 -162c66 0 172 170 231 312c-16 7 -26 22 -26 42
c0 29 29 64 67 64c43 0 41 -35 18 -68c18 -2 40 -3 67 -3c113 0 151 -15 151 -54c0 -26 -28 -76 -120 -143c27 0 69 -18 100 -53c114 70 229 120 293 124zM189 106c49 0 93 73 115 177c-15 36 -35 66 -77 66c-52 0 -92 -67 -92 -153c0 -55 19 -90 54 -90zM871 66
c1 10 2 19 2 28c-122 -88 -220 -187 -220 -262c0 -17 9 -27 22 -27c43 0 178 135 196 261z" />
    <glyph glyph-name="e_z.liga" unicode="ez" horiz-adv-x="1056" 
d="M1152 316c16 1 17 -8 15 -24c-70 -18 -179 -69 -286 -134c10 -20 16 -43 16 -70c0 -158 -196 -325 -322 -325c-41 0 -69 19 -69 65c0 86 126 209 272 311c-15 42 -56 67 -128 82c-5 13 -1 19 14 29c78 48 133 95 133 127c0 13 -7 16 -20 16h-111c-13 0 -24 1 -33 2
c-75 -152 -241 -366 -395 -366c-111 0 -197 81 -197 194c0 129 94 242 199 242c57 0 89 -34 89 -94c0 -79 -56 -149 -155 -208c18 -46 51 -73 94 -73c97 0 234 139 333 317c-16 8 -25 22 -25 42c0 29 29 64 67 64c43 0 41 -35 18 -68c18 -2 40 -3 67 -3
c113 0 151 -15 151 -54c0 -26 -28 -76 -120 -143c27 0 69 -18 100 -53c114 70 229 120 293 124zM239 411c-39 0 -81 -66 -81 -155c0 -20 2 -39 5 -57c56 43 109 98 109 166c0 27 -12 46 -33 46zM782 66c1 10 2 19 2 28c-122 -88 -220 -187 -220 -262c0 -17 9 -27 22 -27
c43 0 178 135 196 261z" />
    <glyph glyph-name="e_z_z.liga" unicode="ezz" horiz-adv-x="1535" 
d="M1632 316c16 1 17 -8 15 -24c-70 -18 -179 -69 -286 -134c10 -20 16 -43 16 -70c0 -158 -196 -325 -322 -325c-41 0 -69 19 -69 65c0 86 126 209 272 311c-15 42 -56 67 -128 82c-5 13 -1 19 14 29c78 48 133 95 133 127c0 13 -7 16 -20 16h-111c-18 0 -32 2 -43 4
c-65 -100 -132 -172 -221 -238c10 -20 16 -44 16 -71c0 -158 -196 -325 -322 -325c-41 0 -69 19 -69 65c0 87 123 215 272 311c-16 42 -57 67 -128 82c-5 13 -1 19 14 29c78 48 133 95 133 127c0 13 -7 16 -20 16h-111c-13 0 -24 1 -34 3c-75 -153 -241 -367 -395 -367
c-111 0 -197 81 -197 194c0 129 94 242 199 242c57 0 89 -34 89 -94c0 -79 -56 -149 -155 -208c18 -46 51 -73 94 -73c97 0 234 140 333 318c-15 7 -24 22 -24 41c0 29 29 64 67 64c43 0 41 -35 18 -68c18 -2 40 -3 67 -3c113 0 151 -15 151 -54c0 -26 -28 -76 -120 -143
c27 0 69 -18 99 -53c89 63 146 119 214 220c-11 8 -17 21 -17 37c0 29 29 64 67 64c43 0 41 -35 18 -68c18 -2 40 -3 67 -3c113 0 151 -15 151 -54c0 -26 -28 -76 -120 -143c27 0 69 -18 100 -53c114 70 229 120 293 124zM239 411c-39 0 -81 -66 -81 -155c0 -20 2 -39 5 -57
c56 43 109 98 109 166c0 27 -12 46 -33 46zM1262 66c1 10 2 19 2 28c-122 -88 -220 -187 -220 -262c0 -17 9 -27 22 -27c43 0 178 135 196 261zM587 -195c43 0 178 135 196 261c1 9 2 18 2 26c-123 -89 -220 -187 -220 -260c0 -17 9 -27 22 -27z" />
    <glyph glyph-name="f_z.liga" unicode="fz" horiz-adv-x="943" 
d="M1041 316c16 1 17 -8 15 -24c-70 -18 -179 -69 -286 -134c10 -20 16 -43 16 -70c0 -158 -196 -325 -322 -325c-41 0 -69 19 -69 65c0 86 126 209 272 311c-15 42 -56 67 -128 82c-5 13 -1 19 14 29c78 48 133 95 133 127c0 13 -7 16 -20 16h-111c-14 0 -26 1 -35 3
c-39 -62 -118 -167 -231 -167c-21 0 -46 4 -64 13c28 -39 37 -85 37 -133c0 -178 -82 -337 -163 -337c-54 0 -81 88 -81 238c0 158 59 674 223 674c25 0 44 -14 57 -42c-17 -80 -75 -188 -127 -235c-4 -30 -7 -53 -11 -77c45 -43 87 -60 144 -60c53 0 124 41 187 136v1
c-16 7 -26 22 -26 42c0 29 29 64 67 64c43 0 41 -35 18 -68c18 -2 40 -3 67 -3c113 0 151 -15 151 -54c0 -26 -28 -76 -120 -143c27 0 69 -18 100 -53c114 70 229 120 293 124zM124 -157c37 0 95 160 95 274c0 72 -21 126 -67 153c-5 -35 -12 -78 -20 -144
c-29 -233 -34 -283 -8 -283zM671 66c1 10 2 19 2 28c-122 -88 -220 -187 -220 -262c0 -17 9 -27 22 -27c43 0 178 135 196 261z" />
    <glyph glyph-name="g_z.liga" unicode="gz" horiz-adv-x="1008" 
d="M1108 316c16 1 17 -8 15 -24c-70 -18 -179 -69 -286 -134c10 -20 16 -43 16 -70c0 -158 -196 -325 -322 -325c-41 0 -69 19 -69 65c0 86 126 209 272 311c-15 42 -56 67 -128 82c-5 13 -1 19 14 29c78 48 133 95 133 127c0 13 -7 16 -20 16h-111c-12 0 -23 1 -32 2
c-65 -100 -158 -145 -241 -193c-17 -196 -122 -452 -277 -452c-51 0 -77 37 -77 91c0 132 116 252 247 340c3 19 4 36 4 50c0 8 0 26 -1 31c-37 -62 -91 -98 -142 -98c-48 0 -73 31 -73 87c0 120 133 239 250 239c35 0 62 -12 62 -25c0 -5 -25 -20 -52 -30
c-6 8 -14 12 -23 12c-83 0 -146 -136 -146 -197c0 -23 8 -38 22 -38c44 0 98 84 97 145c41 25 61 34 72 34c27 0 40 -50 40 -132v-13c77 42 152 84 204 161c-15 8 -24 23 -24 42c0 29 29 64 67 64c43 0 41 -35 18 -68c18 -2 40 -3 67 -3c113 0 151 -15 151 -54
c0 -26 -28 -76 -120 -143c27 0 69 -18 100 -53c114 70 229 120 293 124zM77 -222c61 0 127 198 155 341c-102 -86 -179 -190 -179 -291c0 -28 7 -50 24 -50zM738 66c1 10 2 19 2 28c-122 -88 -220 -187 -220 -262c0 -17 9 -27 22 -27c43 0 178 135 196 261z" />
    <glyph glyph-name="h_z.liga" unicode="hz" horiz-adv-x="1099" 
d="M1192 316c16 1 17 -8 15 -24c-70 -18 -179 -69 -286 -134c10 -20 16 -43 16 -70c0 -158 -196 -325 -322 -325c-41 0 -69 19 -69 65c0 86 126 209 272 311c-15 42 -56 67 -128 82c-5 13 -1 19 14 29c78 48 133 95 133 127c0 13 -7 16 -20 16h-111c-12 0 -23 1 -32 2
c-84 -195 -221 -374 -312 -374c-65 0 -87 91 -72 189c-73 -191 -153 -286 -211 -286c-37 0 -57 48 -57 137c0 197 117 582 257 582c36 0 59 -35 59 -83c0 -88 -67 -178 -194 -260c-15 -74 -24 -145 -24 -184c0 -28 3 -46 11 -46c39 0 134 251 202 251c18 0 41 -15 55 -42
c-11 -31 -24 -78 -24 -118c0 -41 11 -65 34 -65c36 0 129 73 244 310v1c-16 7 -26 22 -26 42c0 29 29 64 67 64c43 0 41 -35 18 -68c18 -2 40 -3 67 -3c113 0 151 -15 151 -54c0 -26 -28 -76 -120 -143c27 0 69 -18 100 -53c114 70 229 120 293 124zM255 582
c-34 0 -73 -113 -100 -232c61 39 119 128 119 198c0 21 -6 34 -19 34zM822 66c1 10 2 19 2 28c-122 -88 -220 -187 -220 -262c0 -17 9 -27 22 -27c43 0 178 135 196 261z" />
    <glyph glyph-name="j_z.liga" unicode="jz" horiz-adv-x="957" 
d="M163 465c-38 0 -62 25 -62 58c0 31 44 54 92 54c30 0 44 -10 44 -28c0 -42 -36 -84 -74 -84zM1055 316c16 1 17 -8 15 -24c-70 -18 -179 -69 -286 -134c10 -20 16 -43 16 -70c0 -158 -196 -325 -322 -325c-41 0 -69 19 -69 65c0 86 126 209 272 311
c-15 42 -56 67 -128 82c-5 13 -1 19 14 29c78 48 133 95 133 127c0 13 -7 16 -20 16h-111c-14 0 -26 1 -36 3c-82 -121 -208 -198 -310 -286c-8 -250 -97 -353 -181 -353c-34 0 -58 29 -58 68c0 69 64 157 147 244v12c0 99 -13 225 -36 284c31 22 53 33 79 33
c31 0 49 -123 50 -241c87 69 195 129 279 251c-15 7 -24 22 -24 41c0 29 29 64 67 64c43 0 41 -35 18 -68c18 -2 40 -3 67 -3c113 0 151 -15 151 -54c0 -26 -28 -76 -120 -143c27 0 69 -18 100 -53c114 70 229 120 293 124zM685 66c1 10 2 19 2 28
c-122 -88 -220 -187 -220 -262c0 -17 9 -27 22 -27c43 0 178 135 196 261zM50 -203c44 0 71 105 79 220c-61 -67 -104 -130 -104 -180c0 -23 10 -40 25 -40z" />
    <glyph glyph-name="k_z.liga" unicode="kz" horiz-adv-x="1087" 
d="M1184 316c16 1 17 -8 15 -24c-70 -18 -179 -69 -286 -134c10 -20 16 -43 16 -70c0 -158 -196 -325 -322 -325c-41 0 -69 19 -69 65c0 86 126 209 272 311c-15 42 -56 67 -128 82c-5 13 -1 19 14 29c78 48 133 95 133 127c0 13 -7 16 -20 16h-111c-10 0 -19 1 -27 2
c-69 -185 -158 -353 -292 -353c-69 0 -120 56 -166 144c-28 -18 -57 -35 -89 -51l-5 -2l-6 -43c-7 -54 -28 -87 -60 -87c-14 0 -29 5 -41 13c66 190 77 490 77 533c0 24 -1 98 -2 118c31 16 56 23 75 23c26 0 38 -18 38 -59c0 -43 -30 -186 -58 -351c49 99 133 192 206 192
c39 0 60 -21 60 -60c0 -53 -48 -117 -129 -180c27 -49 66 -117 128 -117c97 0 165 131 233 287l-6 5c-16 7 -26 22 -26 42c0 29 29 64 67 64c43 0 41 -35 18 -68c18 -2 40 -3 67 -3c113 0 151 -15 151 -54c0 -26 -28 -76 -120 -143c27 0 69 -18 100 -53
c114 70 229 120 293 124zM296 405c-36 0 -132 -121 -167 -220c63 38 184 127 184 197c0 12 -7 23 -17 23zM814 66c1 10 2 19 2 28c-122 -88 -220 -187 -220 -262c0 -17 9 -27 22 -27c43 0 178 135 196 261z" />
    <glyph glyph-name="l_z.liga" unicode="lz" horiz-adv-x="977" 
d="M1080 316c16 1 17 -8 15 -24c-70 -18 -179 -69 -286 -134c10 -20 16 -43 16 -70c0 -158 -196 -325 -322 -325c-41 0 -69 19 -69 65c0 86 126 209 272 311c-15 42 -56 67 -128 82c-5 13 -1 19 14 29c78 48 133 95 133 127c0 13 -7 16 -20 16h-111c-12 0 -23 1 -32 2
c-97 -195 -251 -374 -387 -374c-90 0 -134 78 -134 204c0 225 153 469 264 469c32 0 52 -24 52 -59c0 -99 -118 -269 -209 -403v-9c0 -90 23 -144 69 -144c72 0 207 134 311 329c-15 7 -24 22 -24 41c0 29 29 64 67 64c43 0 41 -35 18 -68c18 -2 40 -3 67 -3
c113 0 151 -15 151 -54c0 -26 -28 -76 -120 -143c27 0 69 -18 100 -53c114 70 229 120 293 124zM296 657c-51 0 -118 -201 -141 -349c81 109 157 261 157 324c0 15 -5 25 -16 25zM710 66c1 10 2 19 2 28c-122 -88 -220 -187 -220 -262c0 -17 9 -27 22 -27
c43 0 178 135 196 261z" />
    <glyph glyph-name="m_z.liga" unicode="mz" horiz-adv-x="1402" 
d="M1502 316c16 1 17 -8 15 -24c-70 -18 -179 -69 -286 -134c10 -20 16 -43 16 -70c0 -158 -196 -325 -322 -325c-41 0 -69 19 -69 65c0 86 126 209 272 311c-15 42 -56 67 -128 82c-5 13 -1 19 14 29c78 48 133 95 133 127c0 13 -7 16 -20 16h-111c-13 0 -24 1 -33 2
c-82 -157 -208 -343 -342 -343c-71 0 -98 48 -98 105c0 63 31 122 31 168c0 11 -5 20 -14 20c-53 0 -157 -264 -203 -264c-21 0 -40 11 -51 29c10 32 44 129 44 213c0 26 -4 39 -15 39c-45 0 -158 -300 -263 -300c-24 0 -46 9 -61 25c26 120 62 237 44 340
c16 12 37 19 55 19c34 0 51 -33 51 -96c0 -69 -17 -129 -38 -194c83 108 166 272 246 272c45 0 59 -41 59 -91c0 -38 -9 -86 -22 -128c82 146 133 210 202 210c40 0 63 -25 63 -65c0 -55 -29 -111 -29 -183c0 -39 11 -62 41 -62c67 0 191 152 265 300c-14 8 -22 21 -22 40
c0 29 29 64 67 64c43 0 41 -35 18 -68c18 -2 40 -3 67 -3c113 0 151 -15 151 -54c0 -26 -28 -76 -120 -143c27 0 69 -18 100 -53c114 70 229 120 293 124zM1132 66c1 10 2 19 2 28c-122 -88 -220 -187 -220 -262c0 -17 9 -27 22 -27c43 0 178 135 196 261z" />
    <glyph glyph-name="n_z.liga" unicode="nz" horiz-adv-x="1211" 
d="M1314 316c16 1 17 -8 15 -24c-70 -18 -179 -69 -286 -134c10 -20 16 -43 16 -70c0 -158 -196 -325 -322 -325c-41 0 -69 19 -69 65c0 86 126 209 272 311c-15 42 -56 67 -128 82c-5 13 -1 19 14 29c78 48 133 95 133 127c0 13 -7 16 -20 16h-111c-12 0 -22 1 -31 2
c-88 -193 -230 -385 -383 -385c-70 0 -94 58 -94 127c0 79 41 192 41 229c0 13 -3 23 -11 23c-31 0 -165 -174 -210 -311c-10 -4 -20 -6 -33 -6c-51 0 -64 33 -64 78c0 102 36 168 36 255c0 12 0 29 -2 40c21 15 47 24 68 24c28 0 43 -17 43 -47c0 -26 -25 -134 -29 -202
c60 91 148 210 230 210c55 0 71 -40 71 -94c0 -61 -27 -160 -27 -202c0 -38 12 -59 40 -59c37 0 171 88 291 331v1c-16 7 -26 22 -26 42c0 29 29 64 67 64c43 0 41 -35 18 -68c18 -2 40 -3 67 -3c113 0 151 -15 151 -54c0 -26 -28 -76 -120 -143c27 0 69 -18 100 -53
c114 70 229 120 293 124zM944 66c1 10 2 19 2 28c-122 -88 -220 -187 -220 -262c0 -17 9 -27 22 -27c43 0 178 135 196 261z" />
    <glyph glyph-name="o_z.liga" unicode="oz" horiz-adv-x="1093" 
d="M1188 316c16 1 17 -8 15 -24c-70 -18 -179 -69 -286 -134c10 -20 16 -43 16 -70c0 -158 -196 -325 -322 -325c-41 0 -69 19 -69 65c0 86 126 209 272 311c-15 42 -56 67 -128 82c-5 13 -1 19 14 29c78 48 133 95 133 127c0 13 -7 16 -20 16h-111c-14 0 -26 1 -36 3
c-55 -104 -138 -180 -225 -180c-21 0 -41 4 -58 13c-27 -93 -101 -178 -208 -180c-91 -2 -150 64 -150 155c0 81 43 141 100 145c16 71 81 109 146 109c86 0 124 -71 124 -151c0 -10 -1 -21 -2 -31c17 -12 35 -17 53 -17c73 0 135 60 191 148c-15 8 -25 22 -25 42
c0 29 29 64 67 64c43 0 41 -35 18 -68c18 -2 40 -3 67 -3c113 0 151 -15 151 -54c0 -26 -28 -76 -120 -143c27 0 69 -18 100 -53c114 70 229 120 293 124zM179 79c65 0 113 120 113 218c0 59 -17 112 -60 112c-33 0 -61 -31 -81 -62c22 -7 33 -24 33 -52
c0 -21 -4 -30 -8 -42c-33 -16 -52 -57 -52 -98c0 -39 17 -76 55 -76zM818 66c1 10 2 19 2 28c-122 -88 -220 -187 -220 -262c0 -17 9 -27 22 -27c43 0 178 135 196 261z" />
    <glyph glyph-name="o_z_z.liga" unicode="ozz" horiz-adv-x="1570" 
d="M1661 316c16 1 17 -8 15 -24c-70 -18 -179 -69 -286 -134c10 -20 16 -43 16 -70c0 -158 -196 -325 -322 -325c-41 0 -69 19 -69 65c0 86 126 209 272 311c-15 42 -56 67 -128 82c-5 13 -1 19 14 29c78 48 133 95 133 127c0 13 -7 16 -20 16h-111c-18 0 -32 2 -43 4
c-65 -100 -132 -172 -221 -238c10 -20 16 -44 16 -71c0 -158 -196 -325 -322 -325c-41 0 -69 19 -69 65c0 87 123 215 272 311c-16 42 -57 67 -128 82c-5 13 -1 19 14 29c78 48 133 95 133 127c0 13 -7 16 -20 16h-111c-12 0 -22 1 -30 2c-55 -104 -139 -179 -225 -179
c-21 0 -41 4 -58 13c-27 -93 -101 -178 -208 -180c-91 -2 -150 64 -150 155c0 81 43 141 100 145c16 71 81 109 146 109c86 0 124 -71 124 -151c0 -10 -1 -21 -2 -31c17 -12 35 -17 53 -17c72 0 134 59 189 145l-3 3c-16 7 -26 22 -26 42c0 29 29 64 67 64
c43 0 41 -35 18 -68c18 -2 40 -3 67 -3c113 0 151 -15 151 -54c0 -26 -28 -76 -120 -143c27 0 69 -18 99 -53c89 63 146 119 214 220c-11 8 -17 21 -17 37c0 29 29 64 67 64c43 0 41 -35 18 -68c18 -2 40 -3 67 -3c113 0 151 -15 151 -54c0 -26 -28 -76 -120 -143
c27 0 69 -18 100 -53c114 70 229 120 293 124zM179 79c65 0 113 120 113 218c0 59 -17 112 -60 112c-33 0 -61 -31 -81 -62c22 -7 33 -24 33 -52c0 -21 -4 -30 -8 -42c-33 -16 -52 -57 -52 -98c0 -39 17 -76 55 -76zM1291 66c1 10 2 19 2 28c-122 -88 -220 -187 -220 -262
c0 -17 9 -27 22 -27c43 0 178 135 196 261zM616 -195c43 0 178 135 196 261c1 9 2 18 2 26c-123 -89 -220 -187 -220 -260c0 -17 9 -27 22 -27z" />
    <glyph glyph-name="p_z.liga" unicode="pz" horiz-adv-x="1058" 
d="M1156 316c16 1 17 -8 15 -24c-70 -18 -179 -69 -286 -134c10 -20 16 -43 16 -70c0 -158 -196 -325 -322 -325c-41 0 -69 19 -69 65c0 86 126 209 272 311c-15 42 -56 67 -128 82c-5 13 -1 19 14 29c78 48 133 95 133 127c0 13 -7 16 -20 16h-111c-21 0 -37 2 -48 6
c-65 -60 -165 -94 -231 -112c-48 -80 -132 -151 -185 -151c-19 0 -27 11 -27 27c0 66 70 116 155 143c10 21 16 41 16 56c0 24 -13 38 -36 38c-66 0 -208 -120 -208 -554v-65c-22 -5 -41 -7 -56 -7c-59 0 -70 36 -47 166c27 157 68 352 68 462c0 25 -1 62 -5 88
c23 17 45 26 62 26c30 0 40 -22 40 -59c0 -35 -14 -103 -22 -136c39 65 126 144 200 144c24 0 48 -7 61 -19s20 -29 20 -51c0 -21 -6 -44 -15 -68c67 20 137 51 180 89c-7 8 -12 19 -12 33c0 29 29 64 67 64c43 0 41 -35 18 -68c18 -2 40 -3 67 -3c113 0 151 -15 151 -54
c0 -26 -28 -76 -120 -143c27 0 69 -18 100 -53c114 70 229 120 293 124zM228 175c18 0 55 42 83 88c-24 -9 -45 -19 -61 -30c-28 -19 -38 -58 -22 -58zM786 66c1 10 2 19 2 28c-122 -88 -220 -187 -220 -262c0 -17 9 -27 22 -27c43 0 178 135 196 261z" />
    <glyph glyph-name="q_z.liga" unicode="qz" horiz-adv-x="1104" 
d="M1204 316c16 1 17 -8 15 -24c-70 -18 -179 -69 -286 -134c10 -20 16 -43 16 -70c0 -158 -196 -325 -322 -325c-41 0 -69 19 -69 65c0 86 126 209 272 311c-15 42 -56 67 -128 82c-5 13 -1 19 14 29c78 48 133 95 133 127c0 13 -7 16 -20 16h-111c-23 0 -40 3 -51 7
c-105 -109 -212 -260 -373 -616c-19 -13 -42 -18 -63 -18c-38 0 -49 56 -49 111c0 107 31 240 54 308c-62 -59 -112 -74 -152 -74c-45 0 -72 38 -65 94c21 155 195 264 327 264c31 0 52 -8 52 -30c0 -11 -7 -21 -18 -29c-11 6 -22 9 -38 9c-94 0 -233 -124 -233 -215
c0 -22 10 -34 28 -34c44 0 112 64 148 137c12 12 36 20 56 20c28 0 43 -14 43 -36c0 -37 -71 -122 -103 -297c-4 -22 -11 -102 -12 -155c118 279 267 479 367 583c-5 7 -8 16 -8 27c0 29 29 64 67 64c43 0 41 -35 18 -68c18 -2 40 -3 67 -3c113 0 151 -15 151 -54
c0 -26 -28 -76 -120 -143c27 0 69 -18 100 -53c114 70 229 120 293 124zM834 66c1 10 2 19 2 28c-122 -88 -220 -187 -220 -262c0 -17 9 -27 22 -27c43 0 178 135 196 261z" />
    <glyph glyph-name="r_z.liga" unicode="rz" horiz-adv-x="1033" 
d="M1138 316c16 1 17 -8 15 -24c-70 -18 -179 -69 -286 -134c10 -20 16 -43 16 -70c0 -158 -196 -325 -322 -325c-41 0 -69 19 -69 65c0 86 126 209 272 311c-15 42 -56 67 -128 82c-5 13 -1 19 14 29c78 48 133 95 133 127c0 13 -7 16 -20 16h-111c-12 0 -22 1 -31 2
c-99 -199 -249 -413 -399 -413c-71 0 -119 43 -119 102c0 87 76 156 104 202c-80 2 -184 16 -184 94c0 67 60 116 120 116c23 0 36 -16 36 -39c0 -24 -14 -56 -41 -95c74 -19 198 -10 198 -51c0 -48 -117 -147 -117 -232c0 -29 12 -48 41 -48c79 0 219 169 327 376
c-16 8 -25 22 -25 42c0 29 29 64 67 64c43 0 41 -35 18 -68c18 -2 40 -3 67 -3c113 0 151 -15 151 -54c0 -26 -28 -76 -120 -143c27 0 69 -18 100 -53c114 70 229 120 293 124zM130 478c-16 0 -47 -38 -47 -69c0 -16 9 -27 23 -35c19 31 33 63 33 88c0 7 -2 16 -9 16z
M768 66c1 10 2 19 2 28c-122 -88 -220 -187 -220 -262c0 -17 9 -27 22 -27c43 0 178 135 196 261z" />
    <glyph glyph-name="s_z.liga" unicode="sz" horiz-adv-x="954" 
d="M1054 316c16 1 17 -8 15 -24c-70 -18 -179 -69 -286 -134c10 -20 16 -43 16 -70c0 -158 -196 -325 -322 -325c-41 0 -69 19 -69 65c0 86 126 209 272 311c-15 42 -56 67 -128 82c-5 13 -1 19 14 29c78 48 133 95 133 127c0 13 -7 16 -20 16h-111c-21 0 -36 2 -48 6
c-72 -69 -174 -131 -253 -175c14 -19 24 -42 24 -70c0 -95 -111 -146 -192 -146c-47 0 -83 17 -83 55c0 44 49 91 118 133c-31 33 -72 65 -72 120c0 51 36 93 92 110c53 16 106 13 123 -5c-7 -34 -39 -49 -99 -46c-19 -18 -6 -58 24 -86c12 -11 26 -23 39 -36
c80 43 181 102 249 164c-8 8 -12 19 -12 32c0 29 29 64 67 64c43 0 41 -35 18 -68c18 -2 40 -3 67 -3c113 0 151 -15 151 -54c0 -26 -28 -76 -120 -143c27 0 69 -18 100 -53c114 70 229 120 293 124zM88 47c28 0 78 36 78 83c0 12 -3 23 -8 33c-53 -32 -90 -64 -90 -94
c0 -15 8 -22 20 -22zM684 66c1 10 2 19 2 28c-122 -88 -220 -187 -220 -262c0 -17 9 -27 22 -27c43 0 178 135 196 261z" />
    <glyph glyph-name="t_z.liga" unicode="tz" horiz-adv-x="993" 
d="M1087 316c16 1 17 -8 15 -24c-70 -18 -179 -69 -286 -134c10 -20 16 -43 16 -70c0 -158 -196 -325 -322 -325c-41 0 -69 19 -69 65c0 86 126 209 272 311c-15 42 -56 67 -128 82c-5 13 -1 19 14 29c78 48 133 95 133 127c0 13 -7 16 -20 16h-111c-14 0 -25 1 -35 3
c-104 -210 -212 -387 -358 -387c-93 0 -148 66 -148 181c0 77 22 160 47 244h-65c-18 0 -27 8 -27 24c0 10 4 21 9 34c26 -6 60 -9 98 -11c22 72 45 143 55 211c70 -2 93 -14 93 -64c0 -33 -15 -88 -34 -151h141l-9 -18c-8 -17 -30 -24 -146 -26c-29 -94 -60 -197 -60 -269
c0 -63 28 -106 75 -106c79 0 177 117 294 352c-12 8 -20 21 -20 39c0 29 29 64 67 64c43 0 41 -35 18 -68c18 -2 40 -3 67 -3c113 0 151 -15 151 -54c0 -26 -28 -76 -120 -143c27 0 69 -18 100 -53c114 70 229 120 293 124zM717 66c1 10 2 19 2 28
c-122 -88 -220 -187 -220 -262c0 -17 9 -27 22 -27c43 0 178 135 196 261z" />
    <glyph glyph-name="u_z.liga" unicode="uz" horiz-adv-x="1121" 
d="M1217 316c16 1 17 -8 15 -24c-70 -18 -179 -69 -286 -134c10 -20 16 -43 16 -70c0 -158 -196 -325 -322 -325c-41 0 -69 19 -69 65c0 86 126 209 272 311c-15 42 -56 67 -128 82c-5 13 -1 19 14 29c78 48 133 95 133 127c0 13 -7 16 -20 16h-111c-17 0 -30 2 -41 4
c-106 -202 -206 -335 -311 -335c-59 0 -101 36 -101 114v4c-61 -80 -114 -124 -173 -124c-49 0 -78 34 -78 95c0 48 34 156 34 244v30c22 3 38 6 57 6c31 0 47 -12 47 -48c0 -37 -32 -148 -32 -197c0 -43 17 -50 34 -50c28 0 69 30 116 87c10 51 28 116 28 177v24
c10 1 21 2 30 2c47 0 67 -19 67 -69c0 -43 -32 -132 -32 -188c0 -39 11 -60 31 -60c50 0 148 102 250 304c-10 8 -16 21 -16 36c0 29 29 64 67 64c43 0 41 -35 18 -68c18 -2 40 -3 67 -3c113 0 151 -15 151 -54c0 -26 -28 -76 -120 -143c27 0 69 -18 100 -53
c114 70 229 120 293 124zM847 66c1 10 2 19 2 28c-122 -88 -220 -187 -220 -262c0 -17 9 -27 22 -27c43 0 178 135 196 261z" />
    <glyph glyph-name="u_z_z.liga" unicode="uzz" horiz-adv-x="1595" 
d="M1687 316c16 1 17 -8 15 -24c-70 -18 -179 -69 -286 -134c10 -20 16 -43 16 -70c0 -158 -196 -325 -322 -325c-41 0 -69 19 -69 65c0 86 126 209 272 311c-15 42 -56 67 -128 82c-5 13 -1 19 14 29c78 48 133 95 133 127c0 13 -7 16 -20 16h-111c-17 0 -31 2 -42 4
c-65 -100 -132 -172 -221 -238c10 -20 16 -44 16 -71c0 -158 -196 -325 -322 -325c-41 0 -69 19 -69 65c0 87 123 215 272 311c-16 42 -57 67 -128 82c-5 13 -1 19 14 29c78 48 133 95 133 127c0 13 -7 16 -20 16h-111c-13 0 -24 1 -33 2c-106 -201 -206 -333 -311 -333
c-59 0 -101 36 -101 114v4c-61 -80 -114 -124 -173 -124c-49 0 -78 34 -78 95c0 48 34 156 34 244v30c22 3 38 6 57 6c31 0 47 -12 47 -48c0 -37 -32 -148 -32 -197c0 -43 17 -50 34 -50c28 0 69 30 116 87c10 51 28 116 28 177v24c10 1 21 2 30 2c47 0 67 -19 67 -69
c0 -43 -32 -132 -32 -188c0 -39 11 -60 31 -60c50 0 146 101 247 300c-13 8 -21 22 -21 40c0 29 29 64 67 64c43 0 41 -35 18 -68c18 -2 40 -3 67 -3c113 0 151 -15 151 -54c0 -26 -28 -76 -120 -143c27 0 69 -18 99 -53c89 63 145 118 213 220c-11 8 -17 21 -17 37
c0 29 29 64 67 64c43 0 41 -35 18 -68c18 -2 40 -3 67 -3c113 0 151 -15 151 -54c0 -26 -28 -76 -120 -143c27 0 69 -18 100 -53c114 70 229 120 293 124zM1317 66c1 10 2 19 2 28c-122 -88 -220 -187 -220 -262c0 -17 9 -27 22 -27c43 0 178 135 196 261zM643 -195
c43 0 178 135 196 261c1 9 2 18 2 26c-123 -89 -220 -187 -220 -260c0 -17 9 -27 22 -27z" />
    <glyph glyph-name="v_z.liga" unicode="vz" horiz-adv-x="1098" 
d="M1197 316c16 1 17 -8 15 -24c-70 -18 -179 -69 -286 -134c10 -20 16 -43 16 -70c0 -158 -196 -325 -322 -325c-41 0 -69 19 -69 65c0 86 126 209 272 311c-15 42 -56 67 -128 82c-5 13 -1 19 14 29c78 48 133 95 133 127c0 13 -7 16 -20 16h-111c-14 0 -25 1 -35 3
c-49 -85 -121 -143 -191 -143c-29 0 -63 7 -96 28l-1 -4c-63 -136 -158 -241 -220 -241c-75 0 -62 151 -117 347c28 26 60 39 96 39c43 0 62 -21 62 -76c0 -59 -25 -129 -25 -186c0 -33 7 -50 23 -50c45 0 89 116 117 219c-6 17 -10 40 -10 58c0 37 23 88 67 88
c28 0 46 -23 46 -66c0 -26 -6 -54 -21 -90c27 -22 51 -30 83 -30c52 0 102 34 156 118c-15 8 -24 22 -24 42c0 29 29 64 67 64c43 0 41 -35 18 -68c18 -2 40 -3 67 -3c113 0 151 -15 151 -54c0 -26 -28 -76 -120 -143c27 0 69 -18 100 -53c114 70 229 120 293 124zM827 66
c1 10 2 19 2 28c-122 -88 -220 -187 -220 -262c0 -17 9 -27 22 -27c43 0 178 135 196 261z" />
    <glyph glyph-name="w_i.liga" unicode="wi" horiz-adv-x="922" 
d="M865 534c25 0 42 -16 42 -38c0 -27 -46 -66 -74 -66s-36 37 -36 61c0 27 31 43 68 43zM820 368c37 0 55 -17 55 -52c0 -6 -6 -25 -42 -300c-18 -10 -31 -14 -45 -14c-31 0 -44 16 -44 70c0 64 19 132 32 238c0 1 0 3 1 6c-23 -23 -69 -49 -112 -49c-30 0 -54 7 -73 25
c-11 -110 -81 -238 -197 -238c-51 0 -85 30 -91 100c-40 -84 -98 -117 -152 -117c-65 0 -102 65 -102 172c0 192 54 249 116 249c14 0 31 -3 50 -10c-36 -75 -54 -146 -54 -247c0 -68 12 -108 39 -108c39 0 87 83 87 180v22c11 6 25 9 37 9c33 0 39 -17 39 -120
c0 -59 11 -95 42 -95c57 0 93 87 93 195c0 60 -13 99 -20 118c14 10 32 16 50 16c25 0 43 -12 53 -35h2c22 -59 50 -76 94 -76c49 0 82 34 104 57c13 2 25 4 38 4z" />
    <glyph glyph-name="w_z.liga" unicode="wz" horiz-adv-x="1256" 
d="M1357 316c16 1 17 -8 15 -24c-70 -18 -179 -69 -286 -134c10 -20 16 -43 16 -70c0 -158 -196 -325 -322 -325c-41 0 -69 19 -69 65c0 86 126 209 272 311c-15 42 -56 67 -128 82c-5 13 -1 19 14 29c78 48 133 95 133 127c0 13 -7 16 -20 16h-111c-15 0 -28 1 -38 3
c-46 -65 -98 -120 -167 -120c-26 0 -52 9 -73 28c-7 -112 -78 -250 -198 -250c-51 0 -85 30 -91 100c-40 -84 -98 -117 -152 -117c-65 0 -102 65 -102 172c0 192 54 249 116 249c14 0 31 -3 50 -10c-36 -75 -54 -146 -54 -247c0 -68 12 -108 39 -108c39 0 87 83 87 180v22
c11 6 25 9 37 9c33 0 39 -17 39 -120c0 -59 11 -95 42 -95c57 0 93 87 93 195c0 60 -13 99 -20 118c14 10 32 16 50 16c25 0 43 -12 53 -35h2c19 -50 54 -73 85 -73c55 0 97 49 133 99c-13 8 -21 22 -21 40c0 29 29 64 67 64c43 0 41 -35 18 -68c18 -2 40 -3 67 -3
c113 0 151 -15 151 -54c0 -26 -28 -76 -120 -143c27 0 69 -18 100 -53c114 70 229 120 293 124zM987 66c1 10 2 19 2 28c-122 -88 -220 -187 -220 -262c0 -17 9 -27 22 -27c43 0 178 135 196 261z" />
    <glyph glyph-name="y_z.liga" unicode="yz" horiz-adv-x="1015" 
d="M1114 316c16 1 17 -8 15 -24c-70 -18 -179 -69 -286 -134c10 -20 16 -43 16 -70c0 -158 -196 -325 -322 -325c-41 0 -69 19 -69 65c0 86 126 209 272 311c-15 42 -56 67 -128 82c-5 13 -1 19 14 29c78 48 133 95 133 127c0 13 -7 16 -20 16h-111c-19 0 -34 2 -45 5
c-59 -69 -149 -141 -232 -201c-49 -240 -177 -447 -297 -447c-43 0 -65 37 -65 84c0 128 119 246 254 338c6 25 10 48 13 68c2 16 3 29 4 38c-45 -68 -97 -108 -143 -108c-44 0 -70 47 -70 118c0 36 8 66 14 109c2 15 3 33 3 51c10 4 28 8 44 8c33 0 51 -13 51 -36
c0 -20 -23 -79 -23 -134c0 -38 10 -58 32 -58c48 0 88 86 104 218c13 7 33 14 53 14c36 0 46 -24 46 -67c0 -49 -4 -98 -11 -146c87 59 151 118 193 166c-9 9 -15 21 -15 36c0 29 29 64 67 64c43 0 41 -35 18 -68c18 -2 40 -3 67 -3c113 0 151 -15 151 -54
c0 -26 -28 -76 -120 -143c27 0 69 -18 100 -53c114 70 229 120 293 124zM65 -210c44 0 118 170 161 316c-108 -87 -188 -186 -188 -277c0 -24 10 -39 27 -39zM744 66c1 10 2 19 2 28c-122 -88 -220 -187 -220 -262c0 -17 9 -27 22 -27c43 0 178 135 196 261z" />
    <glyph glyph-name="z_z.liga" unicode="zz" horiz-adv-x="1027" 
d="M1127 316c16 1 17 -8 15 -24c-70 -18 -179 -69 -286 -134c10 -20 16 -43 16 -70c0 -158 -196 -325 -322 -325c-41 0 -69 19 -69 65c0 86 126 209 272 311c-15 42 -56 67 -128 82c-5 13 -1 19 14 29c78 48 133 95 133 127c0 13 -7 16 -20 16h-111c-17 0 -31 2 -42 4
c-65 -100 -132 -172 -221 -238c10 -20 16 -44 16 -71c0 -158 -196 -325 -322 -325c-41 0 -69 19 -69 65c0 87 123 215 272 311c-16 42 -57 67 -128 82c-5 13 -1 19 14 29c78 48 133 95 133 127c0 13 -7 16 -20 16h-111c-34 1 -54 5 -64 14c-16 7 -26 22 -26 42
c0 29 29 64 67 64c43 0 41 -35 18 -68c18 -2 40 -3 67 -3c113 0 151 -15 151 -54c0 -26 -28 -76 -120 -143c27 0 69 -18 99 -53c89 63 145 118 213 220c-11 8 -17 21 -17 37c0 29 29 64 67 64c43 0 41 -35 18 -68c18 -2 40 -3 67 -3c113 0 151 -15 151 -54
c0 -26 -28 -76 -120 -143c27 0 69 -18 100 -53c114 70 229 120 293 124zM757 66c1 10 2 19 2 28c-122 -88 -220 -187 -220 -262c0 -17 9 -27 22 -27c43 0 178 135 196 261zM83 -195c43 0 178 135 196 261c1 9 2 18 2 26c-123 -89 -220 -187 -220 -260c0 -17 9 -27 22 -27z
" />
    <glyph glyph-name="uni04300437.liga" unicode="&#x430;&#x437;" horiz-adv-x="1105" 
d="M1171 316c16 1 17 -8 15 -24c-70 -18 -179 -69 -286 -134c10 -20 16 -43 16 -70c0 -158 -196 -325 -322 -325c-41 0 -69 19 -69 65c0 86 126 209 272 311c-15 42 -56 67 -128 82c-5 13 -1 19 14 29c78 48 133 95 133 127c0 13 -7 16 -20 16h-111c-16 0 -29 1 -40 4
c-77 -162 -186 -296 -286 -296c-47 0 -61 31 -59 79c-40 -69 -125 -133 -189 -133c-62 0 -104 47 -104 113c0 140 132 275 267 275c59 0 117 -43 125 -89c-21 -62 -31 -105 -31 -136c0 -36 12 -57 35 -57c40 0 143 95 208 259c-10 9 -16 21 -16 37c0 29 29 64 67 64
c43 0 41 -35 18 -68c18 -2 40 -3 67 -3c113 0 151 -15 151 -54c0 -26 -28 -76 -120 -143c27 0 69 -18 100 -53c114 70 229 120 293 124zM142 124c64 0 155 172 173 236c-2 29 -22 38 -41 38c-57 0 -158 -144 -158 -228c0 -26 10 -46 26 -46zM801 66c1 10 2 19 2 28
c-122 -88 -220 -187 -220 -262c0 -17 9 -27 22 -27c43 0 178 135 196 261z" />
    <glyph glyph-name="uni04310437.liga" unicode="&#x431;&#x437;" horiz-adv-x="1078" 
d="M1145 316c16 1 17 -8 15 -24c-70 -18 -179 -69 -286 -134c10 -20 16 -43 16 -70c0 -158 -196 -325 -322 -325c-41 0 -69 19 -69 65c0 86 126 209 272 311c-15 42 -56 67 -128 82c-5 13 -1 19 14 29c78 48 133 95 133 127c0 13 -7 16 -20 16h-111c-18 0 -32 2 -43 4
c-39 -59 -105 -128 -184 -128c-19 0 -37 4 -54 12c-5 -112 -80 -252 -217 -254c-87 -1 -143 61 -143 152c0 125 84 226 193 251c-47 44 -118 71 -118 127c0 113 198 168 289 168c23 0 36 -10 36 -26s-11 -32 -31 -47c-94 8 -212 -36 -212 -85c0 -53 139 -118 178 -177
c4 -7 8 -15 12 -23c4 -10 7 -21 9 -33c20 -15 42 -23 66 -23c47 0 95 35 145 101c-10 9 -16 21 -16 37c0 29 29 64 67 64c43 0 41 -35 18 -68c18 -2 40 -3 67 -3c113 0 151 -15 151 -54c0 -26 -28 -76 -120 -143c27 0 69 -18 100 -53c114 70 229 120 293 124zM177 73
c50 0 92 89 92 200c0 64 -16 111 -43 111c-45 0 -94 -97 -94 -204c0 -63 16 -107 45 -107zM775 66c1 10 2 19 2 28c-122 -88 -220 -187 -220 -262c0 -17 9 -27 22 -27c43 0 178 135 196 261z" />
    <glyph glyph-name="uni04320437.liga" unicode="&#x432;&#x437;" horiz-adv-x="1075" 
d="M1171 316c16 1 17 -8 15 -24c-70 -18 -179 -69 -286 -134c10 -20 16 -43 16 -70c0 -158 -196 -325 -322 -325c-41 0 -69 19 -69 65c0 86 126 209 272 311c-15 42 -56 67 -128 82c-5 13 -1 19 14 29c78 48 133 95 133 127c0 13 -7 16 -20 16h-111c-13 0 -24 1 -33 2
c-41 -82 -145 -231 -247 -255c-40 -91 -118 -178 -207 -178c-123 0 -177 96 -155 280c8 60 19 132 48 214c48 138 135 228 216 228c47 0 63 -31 57 -79c-13 -100 -116 -268 -211 -368c-4 -117 23 -203 71 -203c41 0 86 50 116 107c-65 15 -91 67 -85 114c5 42 39 86 103 86
c50 0 84 -36 76 -103c-2 -16 -6 -34 -11 -51c69 23 143 123 201 217l-3 3c-16 7 -26 22 -26 42c0 29 29 64 67 64c43 0 41 -35 18 -68c18 -2 40 -3 67 -3c113 0 151 -15 151 -54c0 -26 -28 -76 -120 -143c27 0 69 -18 100 -53c114 70 229 120 293 124zM288 608
c-56 0 -117 -202 -129 -303c-1 -7 -2 -13 -2 -20c67 82 143 208 153 286c2 22 -6 37 -22 37zM302 266c-4 -30 19 -66 60 -79c8 22 14 42 16 60c6 50 -10 68 -30 68c-28 0 -43 -28 -46 -49zM801 66c1 10 2 19 2 28c-122 -88 -220 -187 -220 -262c0 -17 9 -27 22 -27
c43 0 178 135 196 261z" />
    <glyph glyph-name="uni04330437.liga" unicode="&#x433;&#x437;" horiz-adv-x="1021" 
d="M1118 316c16 1 17 -8 15 -24c-70 -18 -179 -69 -286 -134c10 -20 16 -43 16 -70c0 -158 -196 -325 -322 -325c-41 0 -69 19 -69 65c0 86 126 209 272 311c-15 42 -56 67 -128 82c-5 13 -1 19 14 29c78 48 133 95 133 127c0 13 -7 16 -20 16h-111c-15 0 -27 1 -37 3
c-114 -181 -260 -395 -424 -395c-65 0 -101 32 -101 83c0 104 156 185 156 240c0 16 -11 26 -27 26c-52 0 -93 -76 -128 -76c-10 0 -17 5 -20 16c78 99 130 134 196 134c56 0 90 -30 90 -76c0 -107 -149 -166 -149 -247c0 -26 16 -41 44 -41c91 0 231 199 333 348
c-14 8 -23 22 -23 41c0 29 29 64 67 64c43 0 41 -35 18 -68c18 -2 40 -3 67 -3c113 0 151 -15 151 -54c0 -26 -28 -76 -120 -143c27 0 69 -18 100 -53c114 70 229 120 293 124zM748 66c1 10 2 19 2 28c-122 -88 -220 -187 -220 -262c0 -17 9 -27 22 -27
c43 0 178 135 196 261z" />
    <glyph glyph-name="uni04340437.liga" unicode="&#x434;&#x437;" horiz-adv-x="1008" 
d="M1108 316c16 1 17 -8 15 -24c-70 -18 -179 -69 -286 -134c10 -20 16 -43 16 -70c0 -158 -196 -325 -322 -325c-41 0 -69 19 -69 65c0 86 126 209 272 311c-15 42 -56 67 -128 82c-5 13 -1 19 14 29c78 48 133 95 133 127c0 13 -7 16 -20 16h-111c-12 0 -23 1 -32 2
c-65 -100 -158 -145 -241 -193c-17 -196 -122 -452 -277 -452c-51 0 -77 37 -77 91c0 132 116 252 247 340c3 19 4 36 4 50c0 8 0 26 -1 31c-37 -62 -91 -98 -142 -98c-48 0 -73 31 -73 87c0 120 133 239 250 239c35 0 62 -12 62 -25c0 -5 -25 -20 -52 -30
c-6 8 -14 12 -23 12c-83 0 -146 -136 -146 -197c0 -23 8 -38 22 -38c44 0 98 84 97 145c41 25 61 34 72 34c27 0 40 -50 40 -132v-13c77 42 152 84 204 161c-15 8 -24 23 -24 42c0 29 29 64 67 64c43 0 41 -35 18 -68c18 -2 40 -3 67 -3c113 0 151 -15 151 -54
c0 -26 -28 -76 -120 -143c27 0 69 -18 100 -53c114 70 229 120 293 124zM77 -222c61 0 127 198 155 341c-102 -86 -179 -190 -179 -291c0 -28 7 -50 24 -50zM738 66c1 10 2 19 2 28c-122 -88 -220 -187 -220 -262c0 -17 9 -27 22 -27c43 0 178 135 196 261z" />
    <glyph glyph-name="uni04350437.liga" unicode="&#x435;&#x437;" horiz-adv-x="1056" 
d="M1152 316c16 1 17 -8 15 -24c-70 -18 -179 -69 -286 -134c10 -20 16 -43 16 -70c0 -158 -196 -325 -322 -325c-41 0 -69 19 -69 65c0 86 126 209 272 311c-15 42 -56 67 -128 82c-5 13 -1 19 14 29c78 48 133 95 133 127c0 13 -7 16 -20 16h-111c-13 0 -24 1 -33 2
c-75 -152 -241 -366 -395 -366c-111 0 -197 81 -197 194c0 129 94 242 199 242c57 0 89 -34 89 -94c0 -79 -56 -149 -155 -208c18 -46 51 -73 94 -73c97 0 234 139 333 317c-16 8 -25 22 -25 42c0 29 29 64 67 64c43 0 41 -35 18 -68c18 -2 40 -3 67 -3
c113 0 151 -15 151 -54c0 -26 -28 -76 -120 -143c27 0 69 -18 100 -53c114 70 229 120 293 124zM239 411c-39 0 -81 -66 -81 -155c0 -20 2 -39 5 -57c56 43 109 98 109 166c0 27 -12 46 -33 46zM782 66c1 10 2 19 2 28c-122 -88 -220 -187 -220 -262c0 -17 9 -27 22 -27
c43 0 178 135 196 261z" />
    <glyph glyph-name="uni04360437.liga" unicode="&#x436;&#x437;" horiz-adv-x="1575" 
d="M1675 316c16 1 17 -8 15 -24c-70 -18 -179 -69 -286 -134c10 -20 16 -43 16 -70c0 -158 -196 -325 -322 -325c-41 0 -69 19 -69 65c0 86 126 209 272 311c-15 42 -56 67 -128 82c-5 13 -1 19 14 29c78 48 133 95 133 127c0 13 -7 16 -20 16h-111c-17 0 -31 2 -42 4
c-125 -178 -279 -361 -436 -361c-92 0 -148 62 -148 158v13c-29 -33 -71 -71 -93 -98c-6 -52 -12 -119 -5 -160c-17 -12 -37 -20 -51 -20c-27 0 -40 17 -40 57c0 58 25 139 39 273c-41 -51 -79 -96 -124 -143c-36 -59 -99 -95 -173 -95c-62 0 -103 19 -103 45
c0 9 4 17 13 29c23 -16 44 -24 63 -24c82 0 133 65 133 160c0 65 -30 123 -86 137c-5 -3 -14 -32 -52 -61c-23 1 -37 16 -37 38c0 41 49 77 109 77c100 0 166 -77 166 -184c0 -12 -1 -24 -2 -35c37 35 70 69 99 109l17 144c3 30 3 60 -3 85c20 15 48 26 69 26
c23 0 33 -11 33 -46c0 -71 -43 -223 -55 -349c10 8 55 52 94 95c30 97 117 169 212 169c52 0 89 -30 89 -67c0 -20 -15 -33 -45 -41c-19 13 -33 30 -41 49c-87 -24 -127 -92 -127 -182c0 -66 30 -110 80 -110c99 0 255 162 372 329c-9 8 -15 20 -15 35c0 29 29 64 67 64
c43 0 41 -35 18 -68c18 -2 40 -3 67 -3c113 0 151 -15 151 -54c0 -26 -28 -76 -120 -143c27 0 69 -18 100 -53c114 70 229 120 293 124zM1305 66c1 10 2 19 2 28c-122 -88 -220 -187 -220 -262c0 -17 9 -27 22 -27c43 0 178 135 196 261z" />
    <glyph glyph-name="uni04380437.liga" unicode="&#x438;&#x437;" horiz-adv-x="1121" 
d="M1217 316c16 1 17 -8 15 -24c-70 -18 -179 -69 -286 -134c10 -20 16 -43 16 -70c0 -158 -196 -325 -322 -325c-41 0 -69 19 -69 65c0 86 126 209 272 311c-15 42 -56 67 -128 82c-5 13 -1 19 14 29c78 48 133 95 133 127c0 13 -7 16 -20 16h-111c-17 0 -30 2 -41 4
c-106 -202 -206 -335 -311 -335c-59 0 -101 36 -101 114v4c-61 -80 -114 -124 -173 -124c-49 0 -78 34 -78 95c0 48 34 156 34 244v30c22 3 38 6 57 6c31 0 47 -12 47 -48c0 -37 -32 -148 -32 -197c0 -43 17 -50 34 -50c28 0 69 30 116 87c10 51 28 116 28 177v24
c10 1 21 2 30 2c47 0 67 -19 67 -69c0 -43 -32 -132 -32 -188c0 -39 11 -60 31 -60c50 0 148 102 250 304c-10 8 -16 21 -16 36c0 29 29 64 67 64c43 0 41 -35 18 -68c18 -2 40 -3 67 -3c113 0 151 -15 151 -54c0 -26 -28 -76 -120 -143c27 0 69 -18 100 -53
c114 70 229 120 293 124zM847 66c1 10 2 19 2 28c-122 -88 -220 -187 -220 -262c0 -17 9 -27 22 -27c43 0 178 135 196 261z" />
    <glyph glyph-name="uni04390437.liga" unicode="&#x439;&#x437;" horiz-adv-x="1121" 
d="M242 486c-44 0 -122 15 -122 80c0 20 9 28 27 28c9 0 20 -3 30 -8c12 -6 27 -56 68 -56c104 0 47 59 114 59c19 0 33 -9 33 -20c0 -46 -66 -83 -150 -83zM1217 316c16 1 17 -8 15 -24c-70 -18 -179 -69 -286 -134c10 -20 16 -43 16 -70c0 -158 -196 -325 -322 -325
c-41 0 -69 19 -69 65c0 86 126 209 272 311c-15 42 -56 67 -128 82c-5 13 -1 19 14 29c78 48 133 95 133 127c0 13 -7 16 -20 16h-111c-17 0 -30 2 -41 4c-106 -202 -206 -335 -311 -335c-59 0 -101 36 -101 114v4c-61 -80 -114 -124 -173 -124c-49 0 -78 34 -78 95
c0 48 34 156 34 244v30c22 3 38 6 57 6c31 0 47 -12 47 -48c0 -37 -32 -148 -32 -197c0 -43 17 -50 34 -50c28 0 69 30 116 87c10 51 28 116 28 177v24c10 1 21 2 30 2c47 0 67 -19 67 -69c0 -43 -32 -132 -32 -188c0 -39 11 -60 31 -60c50 0 148 102 250 304
c-10 8 -16 21 -16 36c0 29 29 64 67 64c43 0 41 -35 18 -68c18 -2 40 -3 67 -3c113 0 151 -15 151 -54c0 -26 -28 -76 -120 -143c27 0 69 -18 100 -53c114 70 229 120 293 124zM847 66c1 10 2 19 2 28c-122 -88 -220 -187 -220 -262c0 -17 9 -27 22 -27
c43 0 178 135 196 261z" />
    <glyph glyph-name="uni043A0437.liga" unicode="&#x43a;&#x437;" horiz-adv-x="1158" 
d="M1256 316c16 1 17 -8 15 -24c-70 -18 -179 -69 -286 -134c10 -20 16 -43 16 -70c0 -158 -196 -325 -322 -325c-41 0 -69 19 -69 65c0 86 126 209 272 311c-15 42 -56 67 -128 82c-5 13 -1 19 14 29c78 48 133 95 133 127c0 13 -7 16 -20 16h-111c-11 0 -21 1 -30 2
c-91 -157 -207 -353 -331 -353c-69 0 -149 56 -196 144c-28 -18 -57 -35 -89 -51l-5 -2l-6 -43c-7 -54 -28 -87 -60 -87c-14 0 -29 5 -41 13c66 190 58 353 58 355c0 42 -4 79 -12 114c32 16 55 23 74 23c27 0 39 -17 39 -59c0 -51 -11 -74 -28 -167c49 98 132 190 205 190
c39 0 60 -21 60 -60c0 -53 -48 -117 -129 -180c28 -49 96 -120 158 -120c82 0 193 165 266 296c-14 8 -23 22 -23 41c0 29 29 64 67 64c43 0 41 -35 18 -68c18 -2 40 -3 67 -3c113 0 151 -15 151 -54c0 -26 -28 -76 -120 -143c27 0 69 -18 100 -53c114 70 229 120 293 124z
M296 405c-36 0 -132 -121 -167 -220c63 38 184 127 184 197c0 12 -7 23 -17 23zM886 66c1 10 2 19 2 28c-122 -88 -220 -187 -220 -262c0 -17 9 -27 22 -27c43 0 178 135 196 261z" />
    <glyph glyph-name="uni043B0437.liga" unicode="&#x43b;&#x437;" horiz-adv-x="1090" 
d="M1188 316c16 1 17 -8 15 -24c-70 -18 -179 -69 -286 -134c10 -20 16 -43 16 -70c0 -158 -196 -325 -322 -325c-41 0 -69 19 -69 65c0 86 126 209 272 311c-15 42 -56 67 -128 82c-5 13 -1 19 14 29c78 48 133 95 133 127c0 13 -7 16 -20 16h-111c-13 0 -24 1 -33 2
c-137 -281 -247 -366 -316 -366c-66 0 -98 48 -122 165c-20 100 -25 131 -43 132c-27 2 -87 -123 -108 -226c-4 -21 -8 -43 -8 -61c-21 -5 -53 -10 -69 -10c-35 0 -45 14 -36 54c8 38 38 92 66 149c36 74 73 130 123 208c80 18 96 -2 112 -58c64 -216 74 -278 126 -276
c30 1 91 26 243 301c-15 8 -25 22 -25 42c0 29 29 64 67 64c43 0 41 -35 18 -68c18 -2 40 -3 67 -3c113 0 151 -15 151 -54c0 -26 -28 -76 -120 -143c27 0 69 -18 100 -53c114 70 229 120 293 124zM818 66c1 10 2 19 2 28c-122 -88 -220 -187 -220 -262c0 -17 9 -27 22 -27
c43 0 178 135 196 261z" />
    <glyph glyph-name="uni043C0437.liga" unicode="&#x43c;&#x437;" horiz-adv-x="1325" 
d="M1421 316c16 1 17 -8 15 -24c-70 -18 -179 -69 -286 -134c10 -20 16 -43 16 -70c0 -158 -196 -325 -322 -325c-41 0 -69 19 -69 65c0 86 126 209 272 311c-15 42 -56 67 -128 82c-5 13 -1 19 14 29c78 48 133 95 133 127c0 13 -7 16 -20 16h-111c-15 0 -27 1 -37 3
c-73 -136 -198 -358 -350 -358c-119 0 -124 121 -109 235c-82 -136 -133 -155 -172 -155c-97 0 -83 160 -97 140c-17 -78 11 -248 -118 -248c-18 0 -36 6 -49 10c53 119 99 289 99 396v18c14 6 28 9 42 9c47 0 67 -15 75 -93s15 -171 58 -171c69 0 144 159 205 231
c27 32 76 42 98 22c-21 -56 -40 -132 -40 -208c0 -74 17 -118 58 -118c64 0 160 117 266 305c-12 8 -19 21 -19 38c0 29 29 64 67 64c43 0 41 -35 18 -68c18 -2 40 -3 67 -3c113 0 151 -15 151 -54c0 -26 -28 -76 -120 -143c27 0 69 -18 100 -53c114 70 229 120 293 124z
M1051 66c1 10 2 19 2 28c-122 -88 -220 -187 -220 -262c0 -17 9 -27 22 -27c43 0 178 135 196 261z" />
    <glyph glyph-name="uni043D0437.liga" unicode="&#x43d;&#x437;" horiz-adv-x="1140" 
d="M1240 316c16 1 17 -8 15 -24c-70 -18 -179 -69 -286 -134c10 -20 16 -43 16 -70c0 -158 -196 -325 -322 -325c-41 0 -69 19 -69 65c0 86 126 209 272 311c-15 42 -56 67 -128 82c-5 13 -1 19 14 29c78 48 133 95 133 127c0 13 -7 16 -20 16h-111c-15 0 -28 1 -38 3
c-60 -117 -210 -357 -328 -357c-64 0 -96 35 -96 112c0 22 3 44 7 67c-40 -1 -101 -3 -155 -7c-5 -34 -9 -69 -9 -104c0 -13 1 -48 3 -60c-21 -5 -44 -8 -59 -8c-39 0 -55 21 -55 77c0 67 38 185 38 279c0 9 0 24 -1 30c23 3 42 6 62 6c36 0 50 -12 50 -48
c0 -25 -12 -74 -23 -132c48 4 104 6 157 7c10 45 21 92 21 141v25c11 1 22 2 32 2c50 0 71 -20 71 -74c0 -48 -35 -136 -35 -205c0 -36 8 -56 28 -56c49 0 184 170 259 320c-12 8 -19 21 -19 38c0 29 29 64 67 64c43 0 41 -35 18 -68c18 -2 40 -3 67 -3
c113 0 151 -15 151 -54c0 -26 -28 -76 -120 -143c27 0 69 -18 100 -53c114 70 229 120 293 124zM870 66c1 10 2 19 2 28c-122 -88 -220 -187 -220 -262c0 -17 9 -27 22 -27c43 0 178 135 196 261z" />
    <glyph glyph-name="uni043E0437.liga" unicode="&#x43e;&#x437;" horiz-adv-x="1093" 
d="M1188 316c16 1 17 -8 15 -24c-70 -18 -179 -69 -286 -134c10 -20 16 -43 16 -70c0 -158 -196 -325 -322 -325c-41 0 -69 19 -69 65c0 86 126 209 272 311c-15 42 -56 67 -128 82c-5 13 -1 19 14 29c78 48 133 95 133 127c0 13 -7 16 -20 16h-111c-14 0 -26 1 -36 3
c-55 -104 -138 -180 -225 -180c-21 0 -41 4 -58 13c-27 -93 -101 -178 -208 -180c-91 -2 -150 64 -150 155c0 81 43 141 100 145c16 71 81 109 146 109c86 0 124 -71 124 -151c0 -10 -1 -21 -2 -31c17 -12 35 -17 53 -17c73 0 135 60 191 148c-15 8 -25 22 -25 42
c0 29 29 64 67 64c43 0 41 -35 18 -68c18 -2 40 -3 67 -3c113 0 151 -15 151 -54c0 -26 -28 -76 -120 -143c27 0 69 -18 100 -53c114 70 229 120 293 124zM179 79c65 0 113 120 113 218c0 59 -17 112 -60 112c-33 0 -61 -31 -81 -62c22 -7 33 -24 33 -52
c0 -21 -4 -30 -8 -42c-33 -16 -52 -57 -52 -98c0 -39 17 -76 55 -76zM818 66c1 10 2 19 2 28c-122 -88 -220 -187 -220 -262c0 -17 9 -27 22 -27c43 0 178 135 196 261z" />
    <glyph glyph-name="uni043F0437.liga" unicode="&#x43f;&#x437;" horiz-adv-x="1211" 
d="M1314 316c16 1 17 -8 15 -24c-70 -18 -179 -69 -286 -134c10 -20 16 -43 16 -70c0 -158 -196 -325 -322 -325c-41 0 -69 19 -69 65c0 86 126 209 272 311c-15 42 -56 67 -128 82c-5 13 -1 19 14 29c78 48 133 95 133 127c0 13 -7 16 -20 16h-111c-12 0 -22 1 -31 2
c-88 -193 -230 -385 -383 -385c-70 0 -94 58 -94 127c0 79 41 192 41 229c0 13 -3 23 -11 23c-31 0 -165 -174 -210 -311c-10 -4 -20 -6 -33 -6c-51 0 -64 33 -64 78c0 102 36 168 36 255c0 12 0 29 -2 40c21 15 47 24 68 24c28 0 43 -17 43 -47c0 -26 -25 -134 -29 -202
c60 91 148 210 230 210c55 0 71 -40 71 -94c0 -61 -27 -160 -27 -202c0 -38 12 -59 40 -59c37 0 171 88 291 331v1c-16 7 -26 22 -26 42c0 29 29 64 67 64c43 0 41 -35 18 -68c18 -2 40 -3 67 -3c113 0 151 -15 151 -54c0 -26 -28 -76 -120 -143c27 0 69 -18 100 -53
c114 70 229 120 293 124zM944 66c1 10 2 19 2 28c-122 -88 -220 -187 -220 -262c0 -17 9 -27 22 -27c43 0 178 135 196 261z" />
    <glyph glyph-name="uni04400437.liga" unicode="&#x440;&#x437;" horiz-adv-x="1058" 
d="M1156 316c16 1 17 -8 15 -24c-70 -18 -179 -69 -286 -134c10 -20 16 -43 16 -70c0 -158 -196 -325 -322 -325c-41 0 -69 19 -69 65c0 86 126 209 272 311c-15 42 -56 67 -128 82c-5 13 -1 19 14 29c78 48 133 95 133 127c0 13 -7 16 -20 16h-111c-21 0 -37 2 -48 6
c-65 -60 -165 -94 -231 -112c-48 -80 -132 -151 -185 -151c-19 0 -27 11 -27 27c0 66 70 116 155 143c10 21 16 41 16 56c0 24 -13 38 -36 38c-66 0 -208 -120 -208 -554v-65c-22 -5 -41 -7 -56 -7c-59 0 -70 36 -47 166c27 157 68 352 68 462c0 25 -1 62 -5 88
c23 17 45 26 62 26c30 0 40 -22 40 -59c0 -35 -14 -103 -22 -136c39 65 126 144 200 144c24 0 48 -7 61 -19s20 -29 20 -51c0 -21 -6 -44 -15 -68c67 20 137 51 180 89c-7 8 -12 19 -12 33c0 29 29 64 67 64c43 0 41 -35 18 -68c18 -2 40 -3 67 -3c113 0 151 -15 151 -54
c0 -26 -28 -76 -120 -143c27 0 69 -18 100 -53c114 70 229 120 293 124zM228 175c18 0 55 42 83 88c-24 -9 -45 -19 -61 -30c-28 -19 -38 -58 -22 -58zM786 66c1 10 2 19 2 28c-122 -88 -220 -187 -220 -262c0 -17 9 -27 22 -27c43 0 178 135 196 261z" />
    <glyph glyph-name="uni04410437.liga" unicode="&#x441;&#x437;" horiz-adv-x="1050" 
d="M1152 316c16 1 17 -8 15 -24c-70 -18 -179 -69 -286 -134c10 -20 16 -43 16 -70c0 -158 -196 -325 -322 -325c-41 0 -69 19 -69 65c0 86 126 209 272 311c-15 42 -56 67 -128 82c-5 13 -1 19 14 29c78 48 133 95 133 127c0 13 -7 16 -20 16h-111c-12 0 -23 1 -32 2
c-50 -103 -244 -359 -429 -359c-130 0 -181 96 -169 194c13 102 100 206 232 206c63 0 121 -39 116 -74c-1 -13 -16 -23 -50 -38c-21 42 -42 61 -69 61c-64 0 -106 -75 -115 -150s15 -149 81 -149c129 0 275 170 374 318l-3 3c-16 7 -26 22 -26 42c0 29 29 64 67 64
c43 0 41 -35 18 -68c18 -2 40 -3 67 -3c113 0 151 -15 151 -54c0 -26 -28 -76 -120 -143c27 0 69 -18 100 -53c114 70 229 120 293 124zM782 66c1 10 2 19 2 28c-122 -88 -220 -187 -220 -262c0 -17 9 -27 22 -27c43 0 178 135 196 261z" />
    <glyph glyph-name="uni04420437.liga" unicode="&#x442;&#x437;" horiz-adv-x="1402" 
d="M1502 316c16 1 17 -8 15 -24c-70 -18 -179 -69 -286 -134c10 -20 16 -43 16 -70c0 -158 -196 -325 -322 -325c-41 0 -69 19 -69 65c0 86 126 209 272 311c-15 42 -56 67 -128 82c-5 13 -1 19 14 29c78 48 133 95 133 127c0 13 -7 16 -20 16h-111c-13 0 -24 1 -33 2
c-82 -157 -208 -343 -342 -343c-71 0 -98 48 -98 105c0 63 31 122 31 168c0 11 -5 20 -14 20c-53 0 -157 -264 -203 -264c-21 0 -40 11 -51 29c10 32 44 129 44 213c0 26 -4 39 -15 39c-45 0 -158 -300 -263 -300c-24 0 -46 9 -61 25c26 120 62 237 44 340
c16 12 37 19 55 19c34 0 51 -33 51 -96c0 -69 -17 -129 -38 -194c83 108 166 272 246 272c45 0 59 -41 59 -91c0 -38 -9 -86 -22 -128c82 146 133 210 202 210c40 0 63 -25 63 -65c0 -55 -29 -111 -29 -183c0 -39 11 -62 41 -62c67 0 191 152 265 300c-14 8 -22 21 -22 40
c0 29 29 64 67 64c43 0 41 -35 18 -68c18 -2 40 -3 67 -3c113 0 151 -15 151 -54c0 -26 -28 -76 -120 -143c27 0 69 -18 100 -53c114 70 229 120 293 124zM1132 66c1 10 2 19 2 28c-122 -88 -220 -187 -220 -262c0 -17 9 -27 22 -27c43 0 178 135 196 261z" />
    <glyph glyph-name="uni04430437.liga" unicode="&#x443;&#x437;" horiz-adv-x="1015" 
d="M1114 316c16 1 17 -8 15 -24c-70 -18 -179 -69 -286 -134c10 -20 16 -43 16 -70c0 -158 -196 -325 -322 -325c-41 0 -69 19 -69 65c0 86 126 209 272 311c-15 42 -56 67 -128 82c-5 13 -1 19 14 29c78 48 133 95 133 127c0 13 -7 16 -20 16h-111c-19 0 -34 2 -45 5
c-59 -69 -149 -141 -232 -201c-49 -240 -177 -447 -297 -447c-43 0 -65 37 -65 84c0 128 119 246 254 338c6 25 10 48 13 68c2 16 3 29 4 38c-45 -68 -97 -108 -143 -108c-44 0 -70 47 -70 118c0 36 8 66 14 109c2 15 3 33 3 51c10 4 28 8 44 8c33 0 51 -13 51 -36
c0 -20 -23 -79 -23 -134c0 -38 10 -58 32 -58c48 0 88 86 104 218c13 7 33 14 53 14c36 0 46 -24 46 -67c0 -49 -4 -98 -11 -146c87 59 151 118 193 166c-9 9 -15 21 -15 36c0 29 29 64 67 64c43 0 41 -35 18 -68c18 -2 40 -3 67 -3c113 0 151 -15 151 -54
c0 -26 -28 -76 -120 -143c27 0 69 -18 100 -53c114 70 229 120 293 124zM65 -210c44 0 118 170 161 316c-108 -87 -188 -186 -188 -277c0 -24 10 -39 27 -39zM744 66c1 10 2 19 2 28c-122 -88 -220 -187 -220 -262c0 -17 9 -27 22 -27c43 0 178 135 196 261z" />
    <glyph glyph-name="uni04440437.liga" unicode="&#x444;&#x437;" horiz-adv-x="1408" 
d="M1506 316c16 1 17 -8 15 -24c-70 -18 -179 -69 -286 -134c10 -20 16 -43 16 -70c0 -158 -196 -325 -322 -325c-41 0 -69 19 -69 65c0 86 126 209 272 311c-15 42 -56 67 -128 82c-5 13 -1 19 14 29c78 48 133 95 133 127c0 13 -7 16 -20 16h-111c-20 0 -36 2 -47 5
c-57 -59 -142 -90 -214 -120c-4 -121 -95 -189 -153 -189c-36 0 -55 20 -55 54c0 68 53 111 124 144c-2 48 -17 88 -54 88c-123 0 -243 -385 -243 -536c0 -16 1 -38 3 -49c-18 -11 -42 -20 -57 -20c-28 0 -41 17 -41 57c0 47 35 225 59 402c-33 -74 -106 -154 -182 -154
c-73 0 -119 60 -119 147c0 118 79 204 181 204c49 0 85 -23 85 -49c0 -13 -12 -27 -36 -35c-13 26 -23 33 -44 33c-54 0 -102 -70 -102 -154c0 -56 23 -92 64 -92c48 0 113 72 163 176c8 71 14 138 14 194c0 51 -1 99 -3 113c20 15 48 26 68 26c27 0 39 -15 39 -51
c0 -39 -43 -270 -66 -453c69 209 136 288 234 288c61 0 106 -41 118 -102c70 26 136 50 184 98c-6 8 -10 19 -10 31c0 29 29 64 67 64c43 0 41 -35 18 -68c18 -2 40 -3 67 -3c113 0 151 -15 151 -54c0 -26 -28 -76 -120 -143c27 0 69 -18 100 -53c114 70 229 120 293 124z
M622 123c21 0 42 52 50 109c-40 -27 -66 -57 -66 -86c0 -13 6 -23 16 -23zM1136 66c1 10 2 19 2 28c-122 -88 -220 -187 -220 -262c0 -17 9 -27 22 -27c43 0 178 135 196 261z" />
    <glyph glyph-name="uni044C0437.liga" unicode="&#x44c;&#x437;" horiz-adv-x="1044" 
d="M1143 316c16 1 17 -8 15 -24c-70 -18 -179 -69 -286 -134c10 -20 16 -43 16 -70c0 -158 -196 -325 -322 -325c-41 0 -69 19 -69 65c0 86 126 209 272 311c-15 42 -56 67 -128 82c-5 13 -1 19 14 29c78 48 133 95 133 127c0 13 -7 16 -20 16h-111c-14 0 -25 1 -35 3
c-59 -107 -179 -245 -289 -279c-23 -60 -85 -113 -170 -113c-98 0 -156 64 -156 165c0 92 48 192 48 260c0 9 -1 19 -2 26c81 0 110 -21 110 -71c0 -61 -50 -170 -50 -246c0 -52 21 -85 61 -85c31 0 59 25 75 59c-79 11 -110 55 -110 92c0 36 41 73 94 73
c73 0 109 -53 109 -110c0 -4 0 -9 -1 -13c89 40 196 155 249 254c-14 8 -23 22 -23 41c0 29 29 64 67 64c43 0 41 -35 18 -68c18 -2 40 -3 67 -3c113 0 151 -15 151 -54c0 -26 -28 -76 -120 -143c27 0 69 -18 100 -53c114 70 229 120 293 124zM179 201c0 -37 35 -56 80 -61
c2 12 4 23 4 35c0 35 -25 60 -53 60c-20 0 -31 -13 -31 -34zM773 66c1 10 2 19 2 28c-122 -88 -220 -187 -220 -262c0 -17 9 -27 22 -27c43 0 178 135 196 261z" />
    <glyph glyph-name="uni044A0436.liga" unicode="&#x44a;&#x436;" horiz-adv-x="1626" 
d="M1717 339c9 -5 11 -12 5 -24c-19 -47 -232 -279 -400 -279c-92 0 -148 62 -148 158v13c-29 -33 -71 -71 -93 -98c-6 -52 -12 -119 -5 -160c-17 -12 -37 -20 -51 -20c-27 0 -40 17 -40 57c0 58 25 139 39 273c-41 -51 -79 -96 -124 -143c-36 -59 -99 -95 -173 -95
c-62 0 -103 19 -103 45c0 9 4 17 13 29c23 -16 44 -24 63 -24c82 0 133 65 133 160c0 65 -30 123 -86 137h-1c-29 -135 -188 -290 -317 -321c-34 -59 -106 -111 -197 -111c-78 0 -145 51 -136 120c10 86 69 167 102 212c-136 0 -185 41 -178 100c6 44 67 87 118 87
c37 0 50 -12 47 -39c-3 -23 -25 -58 -50 -86c10 -1 23 -2 37 -2c22 0 45 1 67 1c55 0 85 -15 82 -38c-6 -48 -101 -166 -110 -242c-5 -39 14 -64 48 -64c35 0 69 25 90 60c-57 12 -95 49 -90 91c5 43 47 73 101 73c68 0 95 -51 89 -103c-1 -8 -3 -16 -5 -25
c94 31 201 122 247 226c-21 3 -33 17 -33 38c0 41 49 77 109 77c100 0 166 -77 166 -184c0 -12 -1 -24 -2 -35c37 35 70 69 99 109l17 144c3 30 3 60 -3 85c20 15 48 26 69 26c23 0 33 -11 33 -46c0 -71 -43 -223 -55 -349c10 8 55 52 94 95c30 97 117 169 212 169
c52 0 89 -30 89 -67c0 -20 -15 -33 -45 -41c-19 13 -33 30 -41 49c-87 -24 -127 -92 -127 -182c0 -66 31 -110 89 -110c98 0 271 147 355 254zM84 375c-2 -18 4 -30 19 -37c26 33 39 63 41 78c1 11 -2 18 -10 18c-19 0 -46 -25 -50 -59zM302 131c-3 -36 26 -54 60 -59
c5 12 8 24 9 36c3 31 -17 54 -36 54c-15 0 -31 -13 -33 -31z" />
    <glyph glyph-name="uni044A0437.liga" unicode="&#x44a;&#x437;" horiz-adv-x="1156" 
d="M1253 316c16 1 17 -8 15 -24c-70 -18 -179 -69 -286 -134c10 -20 16 -43 16 -70c0 -158 -196 -325 -322 -325c-41 0 -69 19 -69 65c0 86 126 209 272 311c-15 42 -56 67 -128 82c-5 13 -1 19 14 29c78 48 133 95 133 127c0 13 -7 16 -20 16h-111c-12 0 -23 1 -32 2
c-79 -142 -190 -308 -304 -345c-32 -61 -105 -114 -199 -114c-73 0 -137 47 -137 110c0 83 67 172 103 222c-127 0 -179 37 -179 91c0 49 65 96 119 96c33 0 48 -10 48 -33c0 -25 -25 -62 -51 -92c11 -1 23 -2 37 -2c22 0 46 1 67 1c53 0 82 -14 82 -36
c0 -46 -111 -175 -111 -254c0 -33 18 -54 49 -54c36 0 71 26 92 60c-55 11 -93 46 -93 85c0 45 43 79 102 79c61 0 90 -44 90 -91c0 -8 -1 -16 -2 -24c81 43 169 160 253 314c-15 7 -24 22 -24 41c0 29 29 64 67 64c43 0 41 -35 18 -68c18 -2 40 -3 67 -3
c113 0 151 -15 151 -54c0 -26 -28 -76 -120 -143c27 0 69 -18 100 -53c114 70 229 120 293 124zM134 434c-20 0 -50 -29 -50 -65c0 -15 6 -25 19 -31c28 35 41 66 41 82c0 8 -3 14 -10 14zM302 126c0 -33 30 -46 63 -49c4 11 6 23 6 35c0 29 -18 50 -36 50
c-16 0 -33 -15 -33 -36zM883 66c1 10 2 19 2 28c-122 -88 -220 -187 -220 -262c0 -17 9 -27 22 -27c43 0 178 135 196 261z" />
    <glyph glyph-name="uni044B0437.liga" unicode="&#x44b;&#x437;" horiz-adv-x="1366" 
d="M1466 316c16 1 17 -8 15 -24c-70 -18 -179 -69 -286 -134c10 -20 16 -43 16 -70c0 -158 -196 -325 -322 -325c-41 0 -69 19 -69 65c0 86 126 209 272 311c-15 42 -56 67 -128 82c-5 13 -1 19 14 29c78 48 133 95 133 127c0 13 -7 16 -20 16h-111c-11 0 -21 1 -30 2
c-81 -148 -207 -379 -361 -379c-72 0 -120 44 -129 116c-1 8 -1 23 -1 33c0 11 0 21 1 31c-37 -32 -77 -58 -116 -70c-23 -60 -85 -114 -170 -114c-98 0 -156 64 -156 165c0 92 48 192 48 260c0 9 -1 19 -2 26c81 0 110 -21 110 -71c0 -61 -50 -170 -50 -246
c0 -52 21 -85 60 -85c31 0 60 25 76 59c-79 11 -110 55 -110 92c0 36 41 73 94 73c73 0 109 -53 109 -110c0 -4 0 -8 -1 -13c41 18 81 48 117 86c13 57 35 102 35 165c0 12 -1 28 -3 39c15 3 32 5 46 5c45 0 67 -24 67 -73c0 -74 -49 -181 -49 -241c0 -37 17 -75 56 -75
c106 0 230 215 297 337c-1 1 -2 1 -2 2c-16 7 -26 22 -26 42c0 29 29 64 67 64c43 0 41 -35 18 -68c18 -2 40 -3 67 -3c113 0 151 -15 151 -54c0 -26 -28 -76 -120 -143c27 0 69 -18 100 -53c114 70 229 120 293 124zM190 209c0 -39 39 -58 80 -61c2 11 4 23 4 35
c0 35 -25 60 -53 60c-20 0 -31 -13 -31 -34zM1096 66c1 10 2 19 2 28c-122 -88 -220 -187 -220 -262c0 -17 9 -27 22 -27c43 0 178 135 196 261z" />
    <glyph glyph-name="uni044D0437.liga" unicode="&#x44d;&#x437;" horiz-adv-x="1053" 
d="M1146 316c16 1 17 -8 15 -24c-70 -18 -179 -69 -286 -134c10 -20 16 -43 16 -70c0 -158 -196 -325 -322 -325c-41 0 -69 19 -69 65c0 86 126 209 272 311c-15 42 -56 67 -128 82c-5 13 -1 19 14 29c78 48 133 95 133 127c0 13 -7 16 -20 16h-111c-13 0 -24 1 -33 2
c-47 -75 -104 -154 -191 -167c-19 -3 -39 -2 -58 3c-7 -121 -104 -206 -231 -206c-75 0 -124 33 -124 79c0 27 21 44 54 46c9 -49 44 -80 76 -80c56 0 102 66 115 145c-17 -5 -44 -10 -68 -10c-51 0 -64 11 -54 46c43 -4 102 3 126 5v3c0 74 -29 136 -78 136
c-32 0 -69 -21 -96 -66c-29 14 -39 22 -39 33c0 20 46 74 143 74c92 0 157 -62 173 -151c22 -13 45 -17 68 -14c47 6 91 40 153 135v1c-16 7 -26 22 -26 42c0 29 29 64 67 64c43 0 41 -35 18 -68c18 -2 40 -3 67 -3c113 0 151 -15 151 -54c0 -26 -28 -76 -120 -143
c27 0 69 -18 100 -53c114 70 229 120 293 124zM776 66c1 10 2 19 2 28c-122 -88 -220 -187 -220 -262c0 -17 9 -27 22 -27c43 0 178 135 196 261z" />
    <glyph glyph-name="uni044E0437.liga" unicode="&#x44e;&#x437;" horiz-adv-x="1284" 
d="M1383 316c16 1 17 -8 15 -24c-70 -18 -179 -69 -286 -134c10 -20 16 -43 16 -70c0 -158 -196 -325 -322 -325c-41 0 -69 19 -69 65c0 86 126 209 272 311c-15 42 -56 67 -128 82c-5 13 -1 19 14 29c78 48 133 95 133 127c0 13 -7 16 -20 16h-111c-14 0 -26 1 -35 3
c-54 -94 -131 -178 -218 -178c-20 0 -41 4 -60 11c-23 -114 -110 -203 -211 -203c-108 0 -152 66 -135 199c0 2 0 4 1 5c-26 -14 -63 -42 -94 -82c-2 -19 -3 -38 -3 -57v-47c-11 -3 -28 -5 -43 -5c-52 0 -65 33 -65 77c0 102 37 165 37 252c0 12 -1 29 -2 39
c21 15 46 24 67 24c28 0 44 -17 44 -47c0 -33 -16 -99 -28 -173c32 30 67 54 101 69c32 75 107 155 214 155c77 0 123 -58 123 -147v-7c20 -15 42 -23 65 -23c47 0 117 48 177 149c-15 8 -25 22 -25 42c0 29 29 64 67 64c43 0 41 -35 18 -68c18 -2 40 -3 67 -3
c113 0 151 -15 151 -54c0 -26 -28 -76 -120 -143c27 0 69 -18 100 -53c114 70 229 120 293 124zM394 74c49 2 89 101 89 209c0 59 -15 101 -42 101c-51 0 -96 -97 -96 -204c0 -63 18 -107 49 -106zM1013 66c1 10 2 19 2 28c-122 -88 -220 -187 -220 -262c0 -17 9 -27 22 -27
c43 0 178 135 196 261z" />
    <glyph glyph-name="uni044F0437.liga" unicode="&#x44f;&#x437;" horiz-adv-x="1069" 
d="M1168 316c16 1 17 -8 15 -24c-70 -18 -179 -69 -286 -134c10 -20 16 -43 16 -70c0 -158 -196 -325 -322 -325c-41 0 -69 19 -69 65c0 86 126 209 272 311c-15 42 -56 67 -128 82c-5 13 -1 19 14 29c78 48 133 95 133 127c0 13 -7 16 -20 16h-111c-14 0 -25 1 -35 3
c-78 -148 -187 -328 -309 -328c-51 0 -77 71 -63 150c-38 -108 -129 -200 -198 -200c-27 0 -44 17 -51 50c91 24 162 87 215 167c-43 -33 -83 -50 -117 -50c-48 0 -76 34 -76 87c0 99 100 192 190 192c46 0 73 -27 83 -60c9 16 19 22 38 22c13 0 32 -7 42 -15
c-20 -50 -50 -150 -50 -218c0 -42 10 -65 33 -65c64 0 163 153 231 280c-14 8 -23 22 -23 41c0 29 29 64 67 64c43 0 41 -35 18 -68c18 -2 40 -3 67 -3c113 0 151 -15 151 -54c0 -26 -28 -76 -120 -143c27 0 69 -18 100 -53c114 70 229 120 293 124zM173 250
c41 0 80 38 128 122c-8 29 -26 50 -53 50c-57 0 -105 -70 -105 -133c0 -22 12 -39 30 -39zM798 66c1 10 2 19 2 28c-122 -88 -220 -187 -220 -262c0 -17 9 -27 22 -27c43 0 178 135 196 261z" />
    <glyph glyph-name=".notdef" horiz-adv-x="500" 
d="M410 730v-1000h-317v1000h317zM333 663h-165v-33h65v-37h-66v-33h166v33h-66v37h66v33zM267 534h-100v-104h166v34h-66v70zM233 500v-36h-33v36h33zM333 403h-166v-33h66v-37h-66v-33h100v70h66v33zM333 343h-33v-66h-133v-34h166v100zM333 221h-100v-56h34v23h33v-47
h-100v80h-33v-113h166v113zM333 48h-166v-113h166v113zM300 15v-47h-100v47h100zM333 -88h-166v-33h70l-70 -47v-33h166v33h-102l70 47h32v33z" />
    <glyph glyph-name="space" unicode=" " horiz-adv-x="187" 
 />
    <glyph glyph-name="A" unicode="A" horiz-adv-x="899" 
d="M851 605c0 -95 -59 -408 -59 -478c0 -93 23 -153 46 -190c-24 -24 -53 -37 -84 -37c-73 0 -107 72 -91 198c4 29 10 61 17 97c-46 -13 -102 -18 -160 -18c-67 0 -137 7 -201 19c-59 -108 -110 -226 -144 -348c-9 -33 -11 -83 -11 -119c-88 8 -129 24 -129 88
c0 70 64 213 174 405c-23 7 -43 15 -60 23c-56 27 -53 61 -36 131c48 -32 97 -58 144 -78c100 144 354 439 519 466c57 -10 75 -77 75 -159zM691 252c31 144 72 308 72 387c0 29 -5 56 -21 55c-82 -33 -247 -202 -384 -431c65 -17 128 -24 188 -24c51 0 99 5 145 13z" />
    <glyph glyph-name="Aacute" unicode="&#xc1;" horiz-adv-x="899" 
d="M901 1048c28 0 49 -9 49 -17c0 -47 -122 -188 -192 -188c-9 0 -19 4 -31 14c81 86 103 148 115 177c17 9 38 14 59 14zM776 764c57 -10 75 -77 75 -159c0 -95 -59 -408 -59 -478c0 -93 23 -153 46 -190c-24 -24 -53 -37 -84 -37c-73 0 -107 72 -91 198c4 29 10 61 17 97
c-46 -13 -102 -18 -160 -18c-67 0 -137 7 -201 19c-59 -108 -110 -226 -144 -348c-9 -33 -11 -83 -11 -119c-88 8 -129 24 -129 88c0 70 64 213 174 405c-23 7 -43 15 -60 23c-56 27 -53 61 -36 131c48 -32 97 -58 144 -78c100 144 354 439 519 466zM691 252
c31 144 72 308 72 387c0 29 -5 56 -21 55c-82 -33 -247 -202 -384 -431c65 -17 128 -24 188 -24c51 0 99 5 145 13z" />
    <glyph glyph-name="Abreve" unicode="&#x102;" horiz-adv-x="899" 
d="M936 1034c31 0 42 -8 42 -29c0 -77 -91 -152 -187 -152c-77 0 -137 61 -137 132c0 36 10 49 52 49c17 0 31 -4 41 -10c-7 -76 13 -122 57 -122c67 0 82 77 88 122c11 7 26 10 44 10zM776 764c57 -10 75 -77 75 -159c0 -95 -59 -408 -59 -478c0 -93 23 -153 46 -190
c-24 -24 -53 -37 -84 -37c-73 0 -107 72 -91 198c4 29 10 61 17 97c-46 -13 -102 -18 -160 -18c-67 0 -137 7 -201 19c-59 -108 -110 -226 -144 -348c-9 -33 -11 -83 -11 -119c-88 8 -129 24 -129 88c0 70 64 213 174 405c-23 7 -43 15 -60 23c-56 27 -53 61 -36 131
c48 -32 97 -58 144 -78c100 144 354 439 519 466zM691 252c31 144 72 308 72 387c0 29 -5 56 -21 55c-82 -33 -247 -202 -384 -431c65 -17 128 -24 188 -24c51 0 99 5 145 13z" />
    <glyph glyph-name="Acircumflex" unicode="&#xc2;" horiz-adv-x="899" 
d="M817 1043c33 0 71 -38 167 -170c-15 -22 -27 -31 -42 -31c-36 0 -91 60 -132 140c-57 -79 -128 -140 -166 -140c-15 0 -25 9 -35 31c129 131 177 170 208 170zM776 764c57 -10 75 -77 75 -159c0 -95 -59 -408 -59 -478c0 -93 23 -153 46 -190c-24 -24 -53 -37 -84 -37
c-73 0 -107 72 -91 198c4 29 10 61 17 97c-46 -13 -102 -18 -160 -18c-67 0 -137 7 -201 19c-59 -108 -110 -226 -144 -348c-9 -33 -11 -83 -11 -119c-88 8 -129 24 -129 88c0 70 64 213 174 405c-23 7 -43 15 -60 23c-56 27 -53 61 -36 131c48 -32 97 -58 144 -78
c100 144 354 439 519 466zM691 252c31 144 72 308 72 387c0 29 -5 56 -21 55c-82 -33 -247 -202 -384 -431c65 -17 128 -24 188 -24c51 0 99 5 145 13z" />
    <glyph glyph-name="Adieresis" unicode="&#xc4;" horiz-adv-x="899" 
d="M690 863c-32 0 -52 18 -52 48c0 41 33 69 76 69c34 0 55 -20 55 -50c0 -39 -33 -67 -79 -67zM910 980c34 0 55 -20 55 -50c0 -39 -33 -67 -79 -67c-32 0 -52 18 -52 48c0 41 33 69 76 69zM776 764c57 -10 75 -77 75 -159c0 -95 -59 -408 -59 -478c0 -93 23 -153 46 -190
c-24 -24 -53 -37 -84 -37c-73 0 -107 72 -91 198c4 29 10 61 17 97c-46 -13 -102 -18 -160 -18c-67 0 -137 7 -201 19c-59 -108 -110 -226 -144 -348c-9 -33 -11 -83 -11 -119c-88 8 -129 24 -129 88c0 70 64 213 174 405c-23 7 -43 15 -60 23c-56 27 -53 61 -36 131
c48 -32 97 -58 144 -78c100 144 354 439 519 466zM691 252c31 144 72 308 72 387c0 29 -5 56 -21 55c-82 -33 -247 -202 -384 -431c65 -17 128 -24 188 -24c51 0 99 5 145 13z" />
    <glyph glyph-name="Agrave" unicode="&#xc0;" horiz-adv-x="899" 
d="M815 1034c5 -29 12 -91 72 -177c-14 -10 -25 -14 -34 -14c-66 0 -146 128 -146 183c0 13 24 22 53 22c21 0 41 -5 55 -14zM776 764c57 -10 75 -77 75 -159c0 -95 -59 -408 -59 -478c0 -93 23 -153 46 -190c-24 -24 -53 -37 -84 -37c-73 0 -107 72 -91 198
c4 29 10 61 17 97c-46 -13 -102 -18 -160 -18c-67 0 -137 7 -201 19c-59 -108 -110 -226 -144 -348c-9 -33 -11 -83 -11 -119c-88 8 -129 24 -129 88c0 70 64 213 174 405c-23 7 -43 15 -60 23c-56 27 -53 61 -36 131c48 -32 97 -58 144 -78c100 144 354 439 519 466z
M691 252c31 144 72 308 72 387c0 29 -5 56 -21 55c-82 -33 -247 -202 -384 -431c65 -17 128 -24 188 -24c51 0 99 5 145 13z" />
    <glyph glyph-name="Amacron" unicode="&#x100;" horiz-adv-x="899" 
d="M928 909c42 0 57 -6 57 -23c0 -12 -7 -29 -16 -42c-27 3 -49 5 -76 5c-24 0 -51 0 -87 -2c-41 -2 -73 -3 -100 -3c-72 0 -95 9 -95 37c0 10 3 18 7 26c49 -3 149 -2 193 -2c43 0 84 4 117 4zM776 764c57 -10 75 -77 75 -159c0 -95 -59 -408 -59 -478
c0 -93 23 -153 46 -190c-24 -24 -53 -37 -84 -37c-73 0 -107 72 -91 198c4 29 10 61 17 97c-46 -13 -102 -18 -160 -18c-67 0 -137 7 -201 19c-59 -108 -110 -226 -144 -348c-9 -33 -11 -83 -11 -119c-88 8 -129 24 -129 88c0 70 64 213 174 405c-23 7 -43 15 -60 23
c-56 27 -53 61 -36 131c48 -32 97 -58 144 -78c100 144 354 439 519 466zM691 252c31 144 72 308 72 387c0 29 -5 56 -21 55c-82 -33 -247 -202 -384 -431c65 -17 128 -24 188 -24c51 0 99 5 145 13z" />
    <glyph glyph-name="Aogonek" unicode="&#x104;" horiz-adv-x="899" 
d="M840 -204c8 -4 11 -10 11 -18c0 -27 -46 -53 -91 -53c-59 0 -98 33 -98 80c0 46 33 78 65 99c-54 16 -78 84 -64 194c4 29 10 61 17 97c-46 -13 -102 -18 -160 -18c-67 0 -137 7 -201 19c-59 -108 -110 -226 -144 -348c-9 -33 -11 -83 -11 -119c-88 8 -129 24 -129 88
c0 70 64 213 174 405c-23 7 -43 15 -60 23c-56 27 -53 61 -36 131c48 -32 97 -58 144 -78c100 144 354 439 519 466c57 -10 75 -77 75 -159c0 -95 -59 -408 -59 -478c0 -93 23 -153 46 -190c-11 -11 -23 -20 -36 -26c-41 -38 -58 -66 -58 -93c0 -26 14 -43 38 -43
c17 0 37 7 58 21zM546 239c51 0 99 5 145 13c31 144 72 308 72 387c0 29 -5 56 -21 55c-82 -33 -247 -202 -384 -431c65 -17 128 -24 188 -24z" />
    <glyph glyph-name="Aring" unicode="&#xc5;" horiz-adv-x="899" 
d="M814 1035c54 0 88 -32 88 -81c0 -59 -48 -101 -111 -101c-53 0 -88 32 -88 81c0 59 49 101 111 101zM794 882c31 0 51 30 51 75c0 31 -12 49 -34 49c-31 0 -52 -29 -52 -74c0 -32 12 -50 35 -50zM776 764c57 -10 75 -77 75 -159c0 -95 -59 -408 -59 -478
c0 -93 23 -153 46 -190c-24 -24 -53 -37 -84 -37c-73 0 -107 72 -91 198c4 29 10 61 17 97c-46 -13 -102 -18 -160 -18c-67 0 -137 7 -201 19c-59 -108 -110 -226 -144 -348c-9 -33 -11 -83 -11 -119c-88 8 -129 24 -129 88c0 70 64 213 174 405c-23 7 -43 15 -60 23
c-56 27 -53 61 -36 131c48 -32 97 -58 144 -78c100 144 354 439 519 466zM691 252c31 144 72 308 72 387c0 29 -5 56 -21 55c-82 -33 -247 -202 -384 -431c65 -17 128 -24 188 -24c51 0 99 5 145 13z" />
    <glyph glyph-name="Atilde" unicode="&#xc3;" horiz-adv-x="899" 
d="M946 979c28 -1 43 -10 43 -24c0 -40 -63 -92 -114 -92c-61 0 -110 58 -149 58c-22 0 -50 -21 -69 -52c-25 1 -39 12 -39 29c0 40 61 87 112 87c63 0 109 -58 148 -58c22 0 42 16 68 52zM776 764c57 -10 75 -77 75 -159c0 -95 -59 -408 -59 -478c0 -93 23 -153 46 -190
c-24 -24 -53 -37 -84 -37c-73 0 -107 72 -91 198c4 29 10 61 17 97c-46 -13 -102 -18 -160 -18c-67 0 -137 7 -201 19c-59 -108 -110 -226 -144 -348c-9 -33 -11 -83 -11 -119c-88 8 -129 24 -129 88c0 70 64 213 174 405c-23 7 -43 15 -60 23c-56 27 -53 61 -36 131
c48 -32 97 -58 144 -78c100 144 354 439 519 466zM691 252c31 144 72 308 72 387c0 29 -5 56 -21 55c-82 -33 -247 -202 -384 -431c65 -17 128 -24 188 -24c51 0 99 5 145 13z" />
    <glyph glyph-name="AE" unicode="&#xc6;" horiz-adv-x="1396" 
d="M1083 649c-128 0 -201 -55 -239 -182c-15 -51 -26 -115 -36 -187c228 37 372 75 415 115c28 -16 46 -40 46 -59c0 -96 -291 -92 -472 -132c-41 -198 -65 -360 74 -360c131 0 284 134 380 134c35 0 54 -19 54 -50c0 -33 -20 -72 -50 -104c-133 21 -222 -50 -387 -50
c-159 0 -221 48 -221 184c0 59 19 148 43 242c-102 -27 -233 -33 -359 -14c-69 -124 -119 -242 -139 -338c-7 -33 -11 -83 -11 -119c-89 9 -145 24 -145 92c0 66 61 204 167 391c-57 17 -94 39 -98 55c-6 28 5 68 8 109c44 -23 96 -47 151 -68c106 148 352 430 512 456
c50 0 63 -25 88 -91c92 41 199 52 302 64c43 5 94 28 121 54c38 -14 58 -39 58 -71c0 -75 -149 -71 -262 -71zM705 259c34 130 73 261 80 326l9 11l-10 -11c8 72 -5 110 -42 109c-72 -23 -224 -202 -360 -422c82 -23 215 -28 323 -13z" />
    <glyph glyph-name="B" unicode="B" horiz-adv-x="788" 
d="M841 579c0 -140 -210 -252 -320 -274c134 -2 223 -88 223 -205c0 -135 -123 -230 -288 -230c-94 0 -162 37 -164 86l3 29c23 -10 66 -33 143 -33c120 0 209 82 209 193c0 90 -72 124 -153 124c-34 0 -71 -6 -103 -16c-31 0 -50 16 -50 33c0 19 25 41 84 41
c13 0 26 -1 42 -4c85 39 228 134 228 248c0 92 -79 149 -211 149c-38 0 -80 -5 -121 -14c11 -11 19 -27 19 -41c-112 -183 -183 -465 -183 -691c0 -78 7 -163 23 -206c-20 -7 -54 -12 -80 -12c-77 0 -96 69 -96 140c0 216 108 514 181 678c16 36 37 81 61 111
c-68 -23 -131 -55 -176 -92c-22 10 -30 26 -20 42c25 36 196 131 416 131c204 0 333 -75 333 -187z" />
    <glyph glyph-name="C" unicode="C" horiz-adv-x="909" 
d="M483 -142c-234 0 -395 151 -395 357c0 247 225 531 585 531c157 0 267 -84 267 -195c0 -58 -22 -113 -73 -113c-40 0 -74 17 -74 33c0 15 50 65 50 120c0 62 -54 98 -147 98c-274 0 -462 -254 -462 -473c0 -171 105 -294 267 -294c188 0 301 128 332 170
c24 0 31 -19 31 -37c0 -83 -221 -197 -381 -197z" />
    <glyph glyph-name="Cacute" unicode="&#x106;" horiz-adv-x="909" 
d="M613 843c-9 0 -19 4 -31 14c81 86 103 148 115 177c17 9 38 14 59 14c28 0 49 -9 49 -17c0 -47 -122 -188 -192 -188zM483 -142c-234 0 -395 151 -395 357c0 247 225 531 585 531c157 0 267 -84 267 -195c0 -58 -22 -113 -73 -113c-40 0 -74 17 -74 33c0 15 50 65 50 120
c0 62 -54 98 -147 98c-274 0 -462 -254 -462 -473c0 -171 105 -294 267 -294c188 0 301 128 332 170c24 0 31 -19 31 -37c0 -83 -221 -197 -381 -197z" />
    <glyph glyph-name="Ccaron" unicode="&#x10c;" horiz-adv-x="909" 
d="M644 844c-32 0 -70 39 -167 170c15 22 28 31 43 31c49 0 118 -90 139 -141c70 91 125 141 159 141c14 0 25 -9 35 -31c-129 -132 -177 -170 -209 -170zM483 -142c-234 0 -395 151 -395 357c0 247 225 531 585 531c157 0 267 -84 267 -195c0 -58 -22 -113 -73 -113
c-40 0 -74 17 -74 33c0 15 50 65 50 120c0 62 -54 98 -147 98c-274 0 -462 -254 -462 -473c0 -171 105 -294 267 -294c188 0 301 128 332 170c24 0 31 -19 31 -37c0 -83 -221 -197 -381 -197z" />
    <glyph glyph-name="Ccedilla" unicode="&#xc7;" horiz-adv-x="909" 
d="M673 746c157 0 267 -84 267 -195c0 -58 -22 -113 -73 -113c-40 0 -74 17 -74 33c0 15 50 65 50 120c0 62 -54 98 -147 98c-274 0 -462 -254 -462 -473c0 -171 105 -294 267 -294c188 0 301 128 332 170c24 0 31 -19 31 -37c0 -79 -202 -187 -359 -196l-31 -52
c52 -6 82 -33 82 -74c0 -53 -57 -94 -127 -94c-38 0 -74 17 -74 41c0 11 9 20 21 23c14 -13 26 -18 42 -18c31 0 58 26 58 59c0 29 -24 37 -61 44l2 14l34 55l17 1c-226 7 -380 156 -380 357c0 247 225 531 585 531z" />
    <glyph glyph-name="Cdotaccent" unicode="&#x10a;" horiz-adv-x="909" 
d="M650 865c-31 0 -51 18 -51 44c0 36 29 61 68 61c31 0 50 -18 50 -44c0 -34 -31 -61 -67 -61zM483 -142c-234 0 -395 151 -395 357c0 247 225 531 585 531c157 0 267 -84 267 -195c0 -58 -22 -113 -73 -113c-40 0 -74 17 -74 33c0 15 50 65 50 120c0 62 -54 98 -147 98
c-274 0 -462 -254 -462 -473c0 -171 105 -294 267 -294c188 0 301 128 332 170c24 0 31 -19 31 -37c0 -83 -221 -197 -381 -197z" />
    <glyph glyph-name="D" unicode="D" horiz-adv-x="837" 
d="M393 730c268 -30 437 -156 437 -342c0 -315 -432 -519 -647 -519c-65 0 -103 19 -113 57c330 6 627 220 627 467c0 165 -130 278 -330 289c-70 -135 -143 -332 -170 -564c-5 -42 -8 -85 -10 -129c-63 -6 -98 26 -98 119c0 179 109 429 185 571c-68 -9 -103 -32 -144 -32
c-52 0 -55 28 -49 63c65 15 123 26 188 26c13 0 25 0 37 -1c12 21 23 36 30 45c27 -7 57 -12 57 -44v-6z" />
    <glyph glyph-name="Eth" unicode="&#xd0;" horiz-adv-x="837" 
d="M393 730c268 -30 437 -156 437 -342c0 -315 -432 -519 -647 -519c-65 0 -103 19 -113 57c330 6 627 220 627 467c0 165 -130 278 -330 289c-42 -80 -84 -183 -118 -302c98 1 191 5 191 -37c0 -13 -9 -32 -21 -45c-59 9 -101 9 -189 9c-14 -60 -25 -123 -33 -189
c-5 -42 -8 -85 -10 -129c-63 -6 -98 26 -98 119c0 61 13 130 32 200c-119 3 -147 13 -147 42c0 9 6 21 13 32c47 -2 79 -2 156 -2c38 113 90 222 131 299c-68 -9 -103 -32 -144 -32c-52 0 -55 28 -49 63c65 15 123 26 188 26c13 0 25 0 37 -1c12 21 23 36 30 45
c27 -7 57 -12 57 -44v-6z" />
    <glyph glyph-name="Dcaron" unicode="&#x10e;" horiz-adv-x="837" 
d="M535 790c-32 0 -70 39 -167 170c15 22 28 31 43 31c49 0 118 -90 139 -141c70 91 125 141 159 141c14 0 25 -9 35 -31c-129 -132 -177 -170 -209 -170zM393 730c268 -30 437 -156 437 -342c0 -315 -432 -519 -647 -519c-65 0 -103 19 -113 57c330 6 627 220 627 467
c0 165 -130 278 -330 289c-70 -135 -143 -332 -170 -564c-5 -42 -8 -85 -10 -129c-63 -6 -98 26 -98 119c0 179 109 429 185 571c-68 -9 -103 -32 -144 -32c-52 0 -55 28 -49 63c65 15 123 26 188 26c13 0 25 0 37 -1c12 21 23 36 30 45c27 -7 57 -12 57 -44v-6z" />
    <glyph glyph-name="Dcroat" unicode="&#x110;" horiz-adv-x="837" 
d="M393 730c268 -30 437 -156 437 -342c0 -315 -432 -519 -647 -519c-65 0 -103 19 -113 57c330 6 627 220 627 467c0 165 -130 278 -330 289c-42 -80 -84 -183 -118 -302c98 1 191 5 191 -37c0 -13 -9 -32 -21 -45c-59 9 -101 9 -189 9c-14 -60 -25 -123 -33 -189
c-5 -42 -8 -85 -10 -129c-63 -6 -98 26 -98 119c0 61 13 130 32 200c-119 3 -147 13 -147 42c0 9 6 21 13 32c47 -2 79 -2 156 -2c38 113 90 222 131 299c-68 -9 -103 -32 -144 -32c-52 0 -55 28 -49 63c65 15 123 26 188 26c13 0 25 0 37 -1c12 21 23 36 30 45
c27 -7 57 -12 57 -44v-6z" />
    <glyph glyph-name="E" unicode="E" horiz-adv-x="760" 
d="M543 781c177 0 338 -77 330 -154c-2 -16 -13 -27 -39 -36c-54 92 -143 131 -282 131c-188 0 -317 -91 -317 -225c0 -63 35 -134 123 -203c37 12 67 16 117 16c62 0 115 -11 115 -46c0 -37 -40 -51 -92 -51c-63 0 -126 12 -157 26c-101 -19 -167 -89 -167 -162
c0 -88 96 -141 220 -141c116 0 225 54 303 117c14 0 22 -31 16 -45c-9 -21 -138 -145 -347 -145c-182 0 -302 84 -302 188c0 94 86 176 215 219c-101 42 -192 118 -192 224c0 157 210 287 456 287z" />
    <glyph glyph-name="Eacute" unicode="&#xc9;" horiz-adv-x="760" 
d="M515 851c-9 0 -19 4 -31 14c81 86 103 148 115 177c17 9 38 14 59 14c28 0 49 -9 49 -17c0 -47 -122 -188 -192 -188zM543 781c177 0 338 -77 330 -154c-2 -16 -13 -27 -39 -36c-54 92 -143 131 -282 131c-188 0 -317 -91 -317 -225c0 -63 35 -134 123 -203
c37 12 67 16 117 16c62 0 115 -11 115 -46c0 -37 -40 -51 -92 -51c-63 0 -126 12 -157 26c-101 -19 -167 -89 -167 -162c0 -88 96 -141 220 -141c116 0 225 54 303 117c14 0 22 -31 16 -45c-9 -21 -138 -145 -347 -145c-182 0 -302 84 -302 188c0 94 86 176 215 219
c-101 42 -192 118 -192 224c0 157 210 287 456 287z" />
    <glyph glyph-name="Ecaron" unicode="&#x11a;" horiz-adv-x="760" 
d="M546 852c-32 0 -70 39 -167 170c15 22 28 31 43 31c49 0 118 -90 139 -141c70 91 125 141 159 141c14 0 25 -9 35 -31c-129 -132 -177 -170 -209 -170zM543 781c177 0 338 -77 330 -154c-2 -16 -13 -27 -39 -36c-54 92 -143 131 -282 131c-188 0 -317 -91 -317 -225
c0 -63 35 -134 123 -203c37 12 67 16 117 16c62 0 115 -11 115 -46c0 -37 -40 -51 -92 -51c-63 0 -126 12 -157 26c-101 -19 -167 -89 -167 -162c0 -88 96 -141 220 -141c116 0 225 54 303 117c14 0 22 -31 16 -45c-9 -21 -138 -145 -347 -145c-182 0 -302 84 -302 188
c0 94 86 176 215 219c-101 42 -192 118 -192 224c0 157 210 287 456 287z" />
    <glyph glyph-name="Ecircumflex" unicode="&#xca;" horiz-adv-x="760" 
d="M401 850c-15 0 -25 9 -35 31c129 131 177 170 208 170c33 0 71 -38 167 -170c-15 -22 -27 -31 -42 -31c-36 0 -91 60 -132 140c-57 -79 -128 -140 -166 -140zM543 781c177 0 338 -77 330 -154c-2 -16 -13 -27 -39 -36c-54 92 -143 131 -282 131
c-188 0 -317 -91 -317 -225c0 -63 35 -134 123 -203c37 12 67 16 117 16c62 0 115 -11 115 -46c0 -37 -40 -51 -92 -51c-63 0 -126 12 -157 26c-101 -19 -167 -89 -167 -162c0 -88 96 -141 220 -141c116 0 225 54 303 117c14 0 22 -31 16 -45c-9 -21 -138 -145 -347 -145
c-182 0 -302 84 -302 188c0 94 86 176 215 219c-101 42 -192 118 -192 224c0 157 210 287 456 287z" />
    <glyph glyph-name="Edieresis" unicode="&#xcb;" horiz-adv-x="760" 
d="M447 871c-32 0 -52 18 -52 48c0 41 33 69 76 69c34 0 55 -20 55 -50c0 -39 -33 -67 -79 -67zM643 871c-32 0 -52 18 -52 48c0 41 33 69 76 69c34 0 55 -20 55 -50c0 -39 -33 -67 -79 -67zM543 781c177 0 338 -77 330 -154c-2 -16 -13 -27 -39 -36
c-54 92 -143 131 -282 131c-188 0 -317 -91 -317 -225c0 -63 35 -134 123 -203c37 12 67 16 117 16c62 0 115 -11 115 -46c0 -37 -40 -51 -92 -51c-63 0 -126 12 -157 26c-101 -19 -167 -89 -167 -162c0 -88 96 -141 220 -141c116 0 225 54 303 117c14 0 22 -31 16 -45
c-9 -21 -138 -145 -347 -145c-182 0 -302 84 -302 188c0 94 86 176 215 219c-101 42 -192 118 -192 224c0 157 210 287 456 287z" />
    <glyph glyph-name="Edotaccent" unicode="&#x116;" horiz-adv-x="760" 
d="M552 873c-31 0 -51 18 -51 44c0 36 29 61 68 61c31 0 50 -18 50 -44c0 -34 -31 -61 -67 -61zM543 781c177 0 338 -77 330 -154c-2 -16 -13 -27 -39 -36c-54 92 -143 131 -282 131c-188 0 -317 -91 -317 -225c0 -63 35 -134 123 -203c37 12 67 16 117 16
c62 0 115 -11 115 -46c0 -37 -40 -51 -92 -51c-63 0 -126 12 -157 26c-101 -19 -167 -89 -167 -162c0 -88 96 -141 220 -141c116 0 225 54 303 117c14 0 22 -31 16 -45c-9 -21 -138 -145 -347 -145c-182 0 -302 84 -302 188c0 94 86 176 215 219c-101 42 -192 118 -192 224
c0 157 210 287 456 287z" />
    <glyph glyph-name="Egrave" unicode="&#xc8;" horiz-adv-x="760" 
d="M610 851c-66 0 -146 128 -146 183c0 13 24 22 53 22c21 0 41 -5 55 -14c5 -29 12 -91 72 -177c-14 -10 -25 -14 -34 -14zM543 781c177 0 338 -77 330 -154c-2 -16 -13 -27 -39 -36c-54 92 -143 131 -282 131c-188 0 -317 -91 -317 -225c0 -63 35 -134 123 -203
c37 12 67 16 117 16c62 0 115 -11 115 -46c0 -37 -40 -51 -92 -51c-63 0 -126 12 -157 26c-101 -19 -167 -89 -167 -162c0 -88 96 -141 220 -141c116 0 225 54 303 117c14 0 22 -31 16 -45c-9 -21 -138 -145 -347 -145c-182 0 -302 84 -302 188c0 94 86 176 215 219
c-101 42 -192 118 -192 224c0 157 210 287 456 287z" />
    <glyph glyph-name="Emacron" unicode="&#x112;" horiz-adv-x="760" 
d="M726 852c-27 3 -49 5 -76 5c-24 0 -51 0 -87 -2c-41 -2 -73 -3 -100 -3c-72 0 -95 9 -95 37c0 10 3 18 7 26c49 -3 149 -2 193 -2c43 0 84 4 117 4c42 0 57 -6 57 -23c0 -12 -7 -29 -16 -42zM543 781c177 0 338 -77 330 -154c-2 -16 -13 -27 -39 -36
c-54 92 -143 131 -282 131c-188 0 -317 -91 -317 -225c0 -63 35 -134 123 -203c37 12 67 16 117 16c62 0 115 -11 115 -46c0 -37 -40 -51 -92 -51c-63 0 -126 12 -157 26c-101 -19 -167 -89 -167 -162c0 -88 96 -141 220 -141c116 0 225 54 303 117c14 0 22 -31 16 -45
c-9 -21 -138 -145 -347 -145c-182 0 -302 84 -302 188c0 94 86 176 215 219c-101 42 -192 118 -192 224c0 157 210 287 456 287z" />
    <glyph glyph-name="Eogonek" unicode="&#x118;" horiz-adv-x="760" 
d="M543 781c177 0 338 -77 330 -154c-2 -16 -13 -27 -39 -36c-54 92 -143 131 -282 131c-188 0 -317 -91 -317 -225c0 -63 35 -134 123 -203c37 12 67 16 117 16c62 0 115 -11 115 -46c0 -37 -40 -51 -92 -51c-63 0 -126 12 -157 26c-101 -19 -167 -89 -167 -162
c0 -88 96 -141 220 -141c116 0 225 54 303 117c14 0 22 -31 16 -45c-8 -18 -100 -108 -254 -137c-45 -41 -64 -70 -64 -98c0 -26 14 -43 38 -43c17 0 37 7 58 21c8 -4 11 -10 11 -18c0 -27 -46 -53 -91 -53c-59 0 -98 33 -98 80c0 50 38 83 73 103h-20
c-182 0 -302 84 -302 188c0 94 86 176 215 219c-101 42 -192 118 -192 224c0 157 210 287 456 287z" />
    <glyph glyph-name="F" unicode="F" horiz-adv-x="753" 
d="M986 882c20 -17 30 -47 30 -72c0 -85 -58 -104 -269 -114c-107 -5 -225 -10 -327 -28c20 -9 28 -33 28 -61c0 -63 -15 -136 -35 -213c17 5 35 9 54 13c68 14 123 22 169 22c58 0 87 -12 87 -32c0 -16 -11 -36 -40 -57c-50 18 -90 14 -141 8c-55 -7 -105 -18 -149 -32
c-30 -113 -61 -231 -61 -342c0 -45 4 -91 14 -120c-29 -6 -63 -10 -88 -8c-44 3 -65 31 -65 85c0 61 45 202 87 341c-51 -23 -86 -46 -106 -59c-7 35 11 79 42 99c17 10 47 27 87 44c24 85 42 164 42 216c0 33 -6 54 -9 70l16 10c-104 -29 -177 -80 -177 -171
c0 -15 5 -31 13 -44c-40 -39 -102 -35 -102 26c0 135 150 235 400 275c163 26 264 32 360 62c54 17 95 47 140 82z" />
    <glyph glyph-name="G" unicode="G" horiz-adv-x="998" 
d="M494 -124c-240 0 -393 147 -393 360c0 243 194 511 572 513c189 1 323 -91 323 -139c0 -28 -37 -59 -83 -68c-51 97 -145 153 -258 152c-245 -1 -414 -251 -414 -459c0 -173 100 -292 261 -292c185 0 376 128 376 251c0 48 -56 71 -135 61c-49 -6 -102 -15 -151 -15
c-42 0 -66 16 -66 42c0 20 11 43 35 70c54 -18 105 -19 155 -19c138 0 249 -15 249 -108c0 -222 -293 -349 -471 -349z" />
    <glyph glyph-name="Gbreve" unicode="&#x11e;" horiz-adv-x="998" 
d="M674 853c-77 0 -137 61 -137 132c0 36 10 49 52 49c17 0 31 -4 41 -10c-7 -76 13 -122 57 -122c67 0 82 77 88 122c11 7 26 10 44 10c31 0 42 -8 42 -29c0 -77 -91 -152 -187 -152zM494 -124c-240 0 -393 147 -393 360c0 243 194 511 572 513c189 1 323 -91 323 -139
c0 -28 -37 -59 -83 -68c-51 97 -145 153 -258 152c-245 -1 -414 -251 -414 -459c0 -173 100 -292 261 -292c185 0 376 128 376 251c0 48 -56 71 -135 61c-49 -6 -102 -15 -151 -15c-42 0 -66 16 -66 42c0 20 11 43 35 70c54 -18 105 -19 155 -19c138 0 249 -15 249 -108
c0 -222 -293 -349 -471 -349z" />
    <glyph glyph-name="Gcommaaccent" unicode="&#x122;" horiz-adv-x="998" 
d="M494 -124c-240 0 -393 147 -393 360c0 243 194 511 572 513c189 1 323 -91 323 -139c0 -28 -37 -59 -83 -68c-51 97 -145 153 -258 152c-245 -1 -414 -251 -414 -459c0 -173 100 -292 261 -292c185 0 376 128 376 251c0 48 -56 71 -135 61c-49 -6 -102 -15 -151 -15
c-42 0 -66 16 -66 42c0 20 11 43 35 70c54 -18 105 -19 155 -19c138 0 249 -15 249 -108c0 -222 -293 -349 -471 -349zM488 -377c-8 0 -15 6 -18 15c26 25 47 46 55 81c-25 10 -38 28 -38 51c0 36 27 60 67 60c30 0 49 -25 49 -62c0 -56 -76 -145 -115 -145z" />
    <glyph glyph-name="Gdotaccent" unicode="&#x120;" horiz-adv-x="998" 
d="M678 865c-31 0 -51 18 -51 44c0 36 29 61 68 61c31 0 50 -18 50 -44c0 -34 -31 -61 -67 -61zM494 -124c-240 0 -393 147 -393 360c0 243 194 511 572 513c189 1 323 -91 323 -139c0 -28 -37 -59 -83 -68c-51 97 -145 153 -258 152c-245 -1 -414 -251 -414 -459
c0 -173 100 -292 261 -292c185 0 376 128 376 251c0 48 -56 71 -135 61c-49 -6 -102 -15 -151 -15c-42 0 -66 16 -66 42c0 20 11 43 35 70c54 -18 105 -19 155 -19c138 0 249 -15 249 -108c0 -222 -293 -349 -471 -349z" />
    <glyph glyph-name="H" unicode="H" horiz-adv-x="815" 
d="M843 744c0 -159 -131 -445 -131 -692c0 -44 4 -96 13 -128c-34 -8 -73 -11 -91 -9c-113 8 -48 187 -12 315c5 19 11 38 16 58c-30 7 -96 21 -162 26c-82 6 -156 -1 -220 -14c-15 -60 -30 -115 -40 -154c-21 -84 -36 -163 -46 -242c-3 -23 -4 -47 -4 -66
c-56 15 -111 29 -111 101c0 74 42 178 85 327c-56 -21 -94 -43 -110 -54c-11 7 -17 18 -17 27c0 26 62 62 146 93c35 129 52 210 52 271c0 50 -10 90 -33 122c44 47 71 65 97 65c37 0 56 -39 56 -115c0 -68 -27 -190 -57 -306c74 19 151 32 212 32c69 0 138 -10 145 -20
c11 -9 19 -20 24 -32c17 62 35 133 55 220c11 49 21 78 21 111c0 31 -7 66 -22 110c20 24 49 38 79 38c37 0 55 -26 55 -84z" />
    <glyph glyph-name="Hbar" unicode="&#x126;" horiz-adv-x="815" 
d="M819 589c38 -8 55 -19 55 -33c0 -13 -13 -31 -30 -42l-42 6c-39 -144 -90 -314 -90 -468c0 -44 4 -96 13 -128c-34 -8 -73 -11 -91 -9c-113 8 -48 187 -12 315c5 19 11 38 16 58c-30 7 -96 21 -162 26c-82 6 -156 -1 -220 -14c-15 -60 -30 -115 -40 -154
c-21 -84 -36 -163 -46 -242c-3 -23 -4 -47 -4 -66c-56 15 -111 29 -111 101c0 74 42 178 85 327c-56 -21 -94 -43 -110 -54c-11 7 -17 18 -17 27c0 26 62 62 146 93c24 87 39 153 47 205c-57 2 -79 9 -79 29c0 6 7 17 17 28c24 -1 45 -1 67 -1v10c0 50 -10 90 -33 122
c44 47 71 65 97 65c37 0 56 -39 56 -115c0 -21 -3 -46 -7 -75c50 3 114 6 206 6c76 0 138 -2 188 -5c7 31 13 54 13 79c0 31 -7 66 -22 110c20 24 49 38 79 38c37 0 55 -26 55 -84c0 -43 -10 -96 -24 -155zM655 349c15 53 30 111 46 181c-74 6 -150 8 -201 8
c-75 0 -137 -1 -187 -1c-10 -53 -24 -111 -39 -168c74 19 151 32 212 32c69 0 138 -10 145 -20c11 -9 19 -20 24 -32z" />
    <glyph glyph-name="I" unicode="I" horiz-adv-x="678" 
d="M721 771c62 0 84 6 112 15c-1 -17 -5 -33 -15 -52c-19 -35 -63 -57 -118 -57c-94 0 -148 8 -223 10c0 -13 -4 -31 -10 -58c-12 -49 -62 -258 -74 -342c-21 -143 -30 -261 -18 -350c32 -2 61 -2 91 -1c82 4 116 10 139 27c41 -27 45 -99 -81 -108c-84 -6 -215 8 -291 8
c-98 0 -153 -10 -214 -24c-37 39 -27 110 63 112c69 1 130 -2 184 -6c-4 14 -6 30 -7 51c-2 66 38 341 76 496c15 63 37 153 42 193c-140 -6 -221 -33 -248 -84c-25 3 -41 29 -35 59c23 77 150 116 383 116c91 0 215 -5 244 -5z" />
    <glyph glyph-name="Iacute" unicode="&#xcd;" horiz-adv-x="678" 
d="M648 1031c0 -47 -122 -188 -192 -188c-9 0 -19 4 -31 14c81 86 103 148 115 177c17 9 38 14 59 14c28 0 49 -9 49 -17zM721 771c62 0 84 6 112 15c-1 -17 -5 -33 -15 -52c-19 -35 -63 -57 -118 -57c-94 0 -148 8 -223 10c0 -13 -4 -31 -10 -58c-12 -49 -62 -258 -74 -342
c-21 -143 -30 -261 -18 -350c32 -2 61 -2 91 -1c82 4 116 10 139 27c41 -27 45 -99 -81 -108c-84 -6 -215 8 -291 8c-98 0 -153 -10 -214 -24c-37 39 -27 110 63 112c69 1 130 -2 184 -6c-4 14 -6 30 -7 51c-2 66 38 341 76 496c15 63 37 153 42 193
c-140 -6 -221 -33 -248 -84c-25 3 -41 29 -35 59c23 77 150 116 383 116c91 0 215 -5 244 -5z" />
    <glyph glyph-name="Icircumflex" unicode="&#xce;" horiz-adv-x="678" 
d="M342 842c-15 0 -25 9 -35 31c129 131 177 170 208 170c33 0 71 -38 167 -170c-15 -22 -27 -31 -42 -31c-36 0 -91 60 -132 140c-57 -79 -128 -140 -166 -140zM721 771c62 0 84 6 112 15c-1 -17 -5 -33 -15 -52c-19 -35 -63 -57 -118 -57c-94 0 -148 8 -223 10
c0 -13 -4 -31 -10 -58c-12 -49 -62 -258 -74 -342c-21 -143 -30 -261 -18 -350c32 -2 61 -2 91 -1c82 4 116 10 139 27c41 -27 45 -99 -81 -108c-84 -6 -215 8 -291 8c-98 0 -153 -10 -214 -24c-37 39 -27 110 63 112c69 1 130 -2 184 -6c-4 14 -6 30 -7 51
c-2 66 38 341 76 496c15 63 37 153 42 193c-140 -6 -221 -33 -248 -84c-25 3 -41 29 -35 59c23 77 150 116 383 116c91 0 215 -5 244 -5z" />
    <glyph glyph-name="Idieresis" unicode="&#xcf;" horiz-adv-x="678" 
d="M388 863c-32 0 -52 18 -52 48c0 41 33 69 76 69c34 0 55 -20 55 -50c0 -39 -33 -67 -79 -67zM584 863c-32 0 -52 18 -52 48c0 41 33 69 76 69c34 0 55 -20 55 -50c0 -39 -33 -67 -79 -67zM721 771c62 0 84 6 112 15c-1 -17 -5 -33 -15 -52c-19 -35 -63 -57 -118 -57
c-94 0 -148 8 -223 10c0 -13 -4 -31 -10 -58c-12 -49 -62 -258 -74 -342c-21 -143 -30 -261 -18 -350c32 -2 61 -2 91 -1c82 4 116 10 139 27c41 -27 45 -99 -81 -108c-84 -6 -215 8 -291 8c-98 0 -153 -10 -214 -24c-37 39 -27 110 63 112c69 1 130 -2 184 -6
c-4 14 -6 30 -7 51c-2 66 38 341 76 496c15 63 37 153 42 193c-140 -6 -221 -33 -248 -84c-25 3 -41 29 -35 59c23 77 150 116 383 116c91 0 215 -5 244 -5z" />
    <glyph glyph-name="Idotaccent" unicode="&#x130;" horiz-adv-x="678" 
d="M493 865c-31 0 -51 18 -51 44c0 36 29 61 68 61c31 0 50 -18 50 -44c0 -34 -31 -61 -67 -61zM721 771c62 0 84 6 112 15c-1 -17 -5 -33 -15 -52c-19 -35 -63 -57 -118 -57c-94 0 -148 8 -223 10c0 -13 -4 -31 -10 -58c-12 -49 -62 -258 -74 -342
c-21 -143 -30 -261 -18 -350c32 -2 61 -2 91 -1c82 4 116 10 139 27c41 -27 45 -99 -81 -108c-84 -6 -215 8 -291 8c-98 0 -153 -10 -214 -24c-37 39 -27 110 63 112c69 1 130 -2 184 -6c-4 14 -6 30 -7 51c-2 66 38 341 76 496c15 63 37 153 42 193
c-140 -6 -221 -33 -248 -84c-25 3 -41 29 -35 59c23 77 150 116 383 116c91 0 215 -5 244 -5z" />
    <glyph glyph-name="Igrave" unicode="&#xcc;" horiz-adv-x="678" 
d="M551 843c-66 0 -146 128 -146 183c0 13 24 22 53 22c21 0 41 -5 55 -14c5 -29 12 -91 72 -177c-14 -10 -25 -14 -34 -14zM721 771c62 0 84 6 112 15c-1 -17 -5 -33 -15 -52c-19 -35 -63 -57 -118 -57c-94 0 -148 8 -223 10c0 -13 -4 -31 -10 -58
c-12 -49 -62 -258 -74 -342c-21 -143 -30 -261 -18 -350c32 -2 61 -2 91 -1c82 4 116 10 139 27c41 -27 45 -99 -81 -108c-84 -6 -215 8 -291 8c-98 0 -153 -10 -214 -24c-37 39 -27 110 63 112c69 1 130 -2 184 -6c-4 14 -6 30 -7 51c-2 66 38 341 76 496
c15 63 37 153 42 193c-140 -6 -221 -33 -248 -84c-25 3 -41 29 -35 59c23 77 150 116 383 116c91 0 215 -5 244 -5z" />
    <glyph glyph-name="Imacron" unicode="&#x12a;" horiz-adv-x="678" 
d="M404 844c-72 0 -95 9 -95 37c0 10 3 18 7 26c49 -3 149 -2 193 -2c43 0 84 4 117 4c42 0 57 -6 57 -23c0 -12 -7 -29 -16 -42c-27 3 -49 5 -76 5c-24 0 -51 0 -87 -2c-41 -2 -73 -3 -100 -3zM721 771c62 0 84 6 112 15c-1 -17 -5 -33 -15 -52c-19 -35 -63 -57 -118 -57
c-94 0 -148 8 -223 10c0 -13 -4 -31 -10 -58c-12 -49 -62 -258 -74 -342c-21 -143 -30 -261 -18 -350c32 -2 61 -2 91 -1c82 4 116 10 139 27c41 -27 45 -99 -81 -108c-84 -6 -215 8 -291 8c-98 0 -153 -10 -214 -24c-37 39 -27 110 63 112c69 1 130 -2 184 -6
c-4 14 -6 30 -7 51c-2 66 38 341 76 496c15 63 37 153 42 193c-140 -6 -221 -33 -248 -84c-25 3 -41 29 -35 59c23 77 150 116 383 116c91 0 215 -5 244 -5z" />
    <glyph glyph-name="Iogonek" unicode="&#x12e;" horiz-adv-x="678" 
d="M721 771c62 0 84 6 112 15c-1 -17 -5 -33 -15 -52c-19 -35 -63 -57 -118 -57c-94 0 -148 8 -223 10c0 -13 -4 -31 -10 -58c-12 -49 -62 -258 -74 -342c-21 -143 -30 -261 -18 -350c32 -2 61 -2 91 -1c82 4 116 10 139 27c41 -27 45 -99 -81 -108c-50 -4 -115 0 -177 3
c-41 -38 -58 -66 -58 -93c0 -26 14 -43 38 -43c17 0 37 7 58 21c8 -4 11 -10 11 -18c0 -27 -46 -53 -91 -53c-59 0 -98 33 -98 80c0 55 47 90 84 109c-21 1 -41 2 -58 2c-98 0 -153 -10 -214 -24c-37 39 -27 110 63 112c69 1 130 -2 184 -6c-4 14 -6 30 -7 51
c-2 66 38 341 76 496c15 63 37 153 42 193c-140 -6 -221 -33 -248 -84c-25 3 -41 29 -35 59c23 77 150 116 383 116c91 0 215 -5 244 -5z" />
    <glyph glyph-name="J" unicode="J" horiz-adv-x="885" 
d="M941 748c-17 -25 -35 -49 -65 -67c-19 -31 -32 -69 -39 -127c-17 -139 -16 -265 -30 -378c-25 -201 -215 -351 -442 -351c-143 0 -284 96 -284 183c0 38 33 66 65 92c61 -110 167 -182 274 -182c159 0 278 120 300 303c13 107 11 227 23 328c5 37 13 71 23 100
c-17 -1 -35 -2 -56 -2c-62 0 -124 9 -180 9c-112 0 -180 -49 -175 -126c-22 -12 -45 -18 -65 -18c-38 0 -60 21 -60 55c0 85 109 163 228 163c88 0 182 -25 263 -25c30 0 54 2 76 6c25 39 56 61 89 61c22 0 45 -11 55 -24z" />
    <glyph glyph-name="K" unicode="K" horiz-adv-x="724" 
d="M737 597c-42 -36 -115 -79 -241 -158c-27 -17 -54 -33 -79 -48c30 -176 164 -344 325 -400c-29 -52 -65 -79 -107 -80c-53 -2 -208 126 -274 330c-10 32 -20 70 -19 103c-69 -45 -121 -94 -142 -172l-1 1c-4 -40 -7 -79 -7 -114c0 -63 4 -123 6 -145c-20 -1 -51 -5 -74 0
c-41 8 -54 44 -54 113c0 281 127 555 127 733c0 14 0 38 -1 50c69 4 103 -33 103 -91c0 -62 -42 -220 -74 -384c49 47 115 103 180 143c155 96 274 217 323 286c44 -12 73 -43 73 -76c0 -22 -28 -60 -64 -91z" />
    <glyph glyph-name="Kcommaaccent" unicode="&#x136;" horiz-adv-x="724" 
d="M737 597c-42 -36 -115 -79 -241 -158c-27 -17 -54 -33 -79 -48c30 -176 164 -344 325 -400c-29 -52 -65 -79 -107 -80c-53 -2 -208 126 -274 330c-10 32 -20 70 -19 103c-69 -45 -121 -94 -142 -172l-1 1c-4 -40 -7 -79 -7 -114c0 -63 4 -123 6 -145c-20 -1 -51 -5 -74 0
c-41 8 -54 44 -54 113c0 281 127 555 127 733c0 14 0 38 -1 50c69 4 103 -33 103 -91c0 -62 -42 -220 -74 -384c49 47 115 103 180 143c155 96 274 217 323 286c44 -12 73 -43 73 -76c0 -22 -28 -60 -64 -91zM400 -128c30 0 49 -25 49 -62c0 -56 -76 -145 -115 -145
c-8 0 -15 6 -18 15c26 25 47 46 55 81c-25 10 -38 28 -38 51c0 36 27 60 67 60z" />
    <glyph glyph-name="L" unicode="L" horiz-adv-x="820" 
d="M763 -99c21 -25 31 -53 31 -75c0 -52 -60 -84 -160 -84c-147 0 -317 94 -449 124c-32 -38 -86 -55 -122 -55c-47 0 -85 30 -78 84c38 12 76 17 122 17c48 75 81 163 108 253c-40 -8 -82 -13 -125 -13c-62 0 -98 32 -93 77c88 1 170 12 244 32l19 79
c56 231 132 446 308 446c76 0 115 -61 115 -138c0 -156 -142 -359 -359 -449c-35 -127 -74 -237 -116 -289c96 -9 165 -46 333 -46c73 0 144 12 222 37zM360 335l-9 -35c161 74 260 200 260 359c0 40 -14 71 -50 71c-84 0 -133 -124 -201 -395z" />
    <glyph glyph-name="Lacute" unicode="&#x139;" horiz-adv-x="820" 
d="M737 1010c0 -47 -122 -188 -192 -188c-9 0 -19 4 -31 14c81 86 103 148 115 177c17 9 38 14 59 14c28 0 49 -9 49 -17zM763 -99c21 -25 31 -53 31 -75c0 -52 -60 -84 -160 -84c-147 0 -317 94 -449 124c-32 -38 -86 -55 -122 -55c-47 0 -85 30 -78 84c38 12 76 17 122 17
c48 75 81 163 108 253c-40 -8 -82 -13 -125 -13c-62 0 -98 32 -93 77c88 1 170 12 244 32l19 79c56 231 132 446 308 446c76 0 115 -61 115 -138c0 -156 -142 -359 -359 -449c-35 -127 -74 -237 -116 -289c96 -9 165 -46 333 -46c73 0 144 12 222 37zM360 335l-9 -35
c161 74 260 200 260 359c0 40 -14 71 -50 71c-84 0 -133 -124 -201 -395z" />
    <glyph glyph-name="Lcaron" unicode="&#x13d;" horiz-adv-x="820" 
d="M541 -136c73 0 144 12 222 37c21 -25 31 -53 31 -75c0 -52 -60 -84 -160 -84c-147 0 -317 94 -449 124c-32 -38 -86 -55 -122 -55c-47 0 -85 30 -78 84c38 12 76 17 122 17c48 75 81 163 108 253c-40 -8 -82 -13 -125 -13c-62 0 -98 32 -93 77c88 1 170 12 244 32l19 79
c56 231 132 446 308 446c76 0 115 -61 115 -138c0 -156 -142 -359 -359 -449c-35 -127 -74 -237 -116 -289c96 -9 165 -46 333 -46zM828 766c42 15 86 6 86 -18c0 -63 -87 -171 -139 -171c-11 0 -20 5 -27 13c54 70 72 138 80 176zM360 335l-9 -35c161 74 260 200 260 359
c0 40 -14 71 -50 71c-84 0 -133 -124 -201 -395z" />
    <glyph glyph-name="Lcommaaccent" unicode="&#x13b;" horiz-adv-x="820" 
d="M763 -99c21 -25 31 -53 31 -75c0 -52 -60 -84 -160 -84c-147 0 -317 94 -449 124c-32 -38 -86 -55 -122 -55c-47 0 -85 30 -78 84c38 12 76 17 122 17c48 75 81 163 108 253c-40 -8 -82 -13 -125 -13c-62 0 -98 32 -93 77c88 1 170 12 244 32l19 79
c56 231 132 446 308 446c76 0 115 -61 115 -138c0 -156 -142 -359 -359 -449c-35 -127 -74 -237 -116 -289c96 -9 165 -46 333 -46c73 0 144 12 222 37zM360 335l-9 -35c161 74 260 200 260 359c0 40 -14 71 -50 71c-84 0 -133 -124 -201 -395zM398 -251c30 0 49 -25 49 -62
c0 -56 -76 -145 -115 -145c-8 0 -15 6 -18 15c26 25 47 46 55 81c-25 10 -38 28 -38 51c0 36 27 60 67 60z" />
    <glyph glyph-name="Lslash" unicode="&#x141;" horiz-adv-x="820" 
d="M763 -99c21 -25 31 -53 31 -75c0 -52 -60 -84 -160 -84c-147 0 -317 94 -449 124c-32 -38 -86 -55 -122 -55c-47 0 -85 30 -78 84c38 12 76 17 122 17c48 75 81 163 108 253c-40 -8 -82 -13 -125 -13c-62 0 -98 32 -93 77c88 1 170 12 244 32l19 79c11 43 22 86 34 127
c-49 -3 -87 -6 -125 -15c-18 12 -28 30 -30 38c-3 34 79 43 179 49c53 142 127 247 250 247c76 0 115 -61 115 -138c0 -24 -3 -49 -10 -75l53 12c5 -6 8 -11 10 -15c11 -23 -1 -40 -40 -56c-13 -6 -30 -10 -50 -15c-55 -119 -170 -237 -322 -300
c-35 -127 -74 -237 -116 -289c96 -9 165 -46 333 -46c73 0 144 12 222 37zM561 730c-58 0 -99 -59 -142 -186c79 5 135 10 178 16c9 31 14 64 14 99c0 40 -14 71 -50 71zM360 335l-9 -35c97 45 171 108 215 187c-37 -5 -81 -9 -133 -12c-13 -1 -25 -2 -36 -2
c-12 -41 -24 -87 -37 -138z" />
    <glyph glyph-name="M" unicode="M" horiz-adv-x="1162" 
d="M1137 517c0 -78 -55 -234 -55 -455c0 -144 21 -160 36 -194c-26 -24 -60 -36 -99 -36c-49 0 -65 54 -65 120c0 139 94 407 94 509c0 27 -5 40 -16 40c-45 0 -221 -439 -298 -540c-21 -30 -54 -51 -83 -51c-58 0 -93 70 -93 176c0 207 48 465 48 533c0 11 -1 26 -12 26
c-73 0 -350 -561 -397 -793c-7 -34 -10 -83 -10 -120c-79 9 -140 20 -140 83c0 75 81 268 170 444c59 116 269 498 411 498c71 0 51 -123 51 -643c0 -36 4 -68 15 -94c254 487 307 621 386 621c33 0 57 -54 57 -124z" />
    <glyph glyph-name="N" unicode="N" horiz-adv-x="832" 
d="M108 -122c-32 5 -47 37 -47 110c0 248 123 446 123 686v50c62 16 110 13 131 -10c17 -18 25 -48 28 -100c5 -78 80 -369 137 -485c46 -93 81 -140 110 -140c39 0 69 99 96 302c35 266 70 467 206 467c41 0 65 -38 61 -92c-46 -27 -90 -10 -135 -213
c-51 -229 -34 -544 -223 -570c-204 -28 -326 617 -332 716c-31 -265 -69 -523 -69 -596c0 -32 2 -87 6 -115c-23 -10 -62 -15 -92 -10z" />
    <glyph glyph-name="Nacute" unicode="&#x143;" horiz-adv-x="832" 
d="M528 805c-9 0 -19 4 -31 14c81 86 103 148 115 177c17 9 38 14 59 14c28 0 49 -9 49 -17c0 -47 -122 -188 -192 -188zM108 -122c-32 5 -47 37 -47 110c0 248 123 446 123 686v50c62 16 110 13 131 -10c17 -18 25 -48 28 -100c5 -78 80 -369 137 -485
c46 -93 81 -140 110 -140c39 0 69 99 96 302c35 266 70 467 206 467c41 0 65 -38 61 -92c-46 -27 -90 -10 -135 -213c-51 -229 -34 -544 -223 -570c-204 -28 -326 617 -332 716c-31 -265 -69 -523 -69 -596c0 -32 2 -87 6 -115c-23 -10 -62 -15 -92 -10z" />
    <glyph glyph-name="Ncaron" unicode="&#x147;" horiz-adv-x="832" 
d="M559 806c-32 0 -70 39 -167 170c15 22 28 31 43 31c49 0 118 -90 139 -141c70 91 125 141 159 141c14 0 25 -9 35 -31c-129 -132 -177 -170 -209 -170zM108 -122c-32 5 -47 37 -47 110c0 248 123 446 123 686v50c62 16 110 13 131 -10c17 -18 25 -48 28 -100
c5 -78 80 -369 137 -485c46 -93 81 -140 110 -140c39 0 69 99 96 302c35 266 70 467 206 467c41 0 65 -38 61 -92c-46 -27 -90 -10 -135 -213c-51 -229 -34 -544 -223 -570c-204 -28 -326 617 -332 716c-31 -265 -69 -523 -69 -596c0 -32 2 -87 6 -115
c-23 -10 -62 -15 -92 -10z" />
    <glyph glyph-name="Ncommaaccent" unicode="&#x145;" horiz-adv-x="832" 
d="M108 -122c-32 5 -47 37 -47 110c0 248 123 446 123 686v50c62 16 110 13 131 -10c17 -18 25 -48 28 -100c5 -78 80 -369 137 -485c46 -93 81 -140 110 -140c39 0 69 99 96 302c35 266 70 467 206 467c41 0 65 -38 61 -92c-46 -27 -90 -10 -135 -213
c-51 -229 -34 -544 -223 -570c-204 -28 -326 617 -332 716c-31 -265 -69 -523 -69 -596c0 -32 2 -87 6 -115c-23 -10 -62 -15 -92 -10zM339 -399c-8 0 -15 6 -18 15c26 25 47 46 55 81c-25 10 -38 28 -38 51c0 36 27 60 67 60c30 0 49 -25 49 -62c0 -56 -76 -145 -115 -145z
" />
    <glyph glyph-name="Eng" unicode="&#x14a;" horiz-adv-x="854" 
d="M892 758c41 0 65 -38 61 -92c-46 -27 -90 -10 -135 -213c-24 -109 -33 -237 -56 -345c-79 -394 -258 -440 -346 -440c-63 0 -106 30 -106 70c0 30 24 51 57 49c16 -34 40 -51 74 -51c65 0 116 48 156 147h-2c-206 -28 -315 597 -316 610l-20 -3
c-25 -148 -65 -258 -65 -487c0 -32 2 -87 6 -115c-23 -10 -62 -15 -92 -10c-32 5 -47 37 -47 110c0 248 123 446 123 686v50c62 16 110 13 131 -10c17 -18 25 -48 28 -100c5 -78 80 -369 137 -485c37 -76 63 -119 108 -119s71 77 98 281c35 266 70 467 206 467z" />
    <glyph glyph-name="Ntilde" unicode="&#xd1;" horiz-adv-x="832" 
d="M645 825c-61 0 -110 58 -149 58c-22 0 -50 -21 -69 -52c-25 1 -39 12 -39 29c0 40 61 87 112 87c63 0 109 -58 148 -58c22 0 42 16 68 52c28 -1 43 -10 43 -24c0 -40 -63 -92 -114 -92zM108 -122c-32 5 -47 37 -47 110c0 248 123 446 123 686v50c62 16 110 13 131 -10
c17 -18 25 -48 28 -100c5 -78 80 -369 137 -485c46 -93 81 -140 110 -140c39 0 69 99 96 302c35 266 70 467 206 467c41 0 65 -38 61 -92c-46 -27 -90 -10 -135 -213c-51 -229 -34 -544 -223 -570c-204 -28 -326 617 -332 716c-31 -265 -69 -523 -69 -596
c0 -32 2 -87 6 -115c-23 -10 -62 -15 -92 -10z" />
    <glyph glyph-name="O" unicode="O" horiz-adv-x="888" 
d="M399 -138c-207 0 -327 144 -327 376c0 162 84 442 210 442c20 0 35 -8 45 -22c-82 -83 -139 -233 -139 -406c0 -202 78 -327 210 -327c194 0 345 205 345 506c0 169 -58 272 -159 272c-98 0 -179 -86 -179 -205c0 -81 43 -140 113 -150c-17 -52 -54 -84 -97 -84
c-69 0 -110 62 -110 156c0 151 103 342 289 342c207 0 261 -202 261 -348c0 -365 -234 -552 -462 -552z" />
    <glyph glyph-name="Oacute" unicode="&#xd3;" horiz-adv-x="888" 
d="M493 843c-9 0 -19 4 -31 14c81 86 103 148 115 177c17 9 38 14 59 14c28 0 49 -9 49 -17c0 -47 -122 -188 -192 -188zM399 -138c-207 0 -327 144 -327 376c0 162 84 442 210 442c20 0 35 -8 45 -22c-82 -83 -139 -233 -139 -406c0 -202 78 -327 210 -327
c194 0 345 205 345 506c0 169 -58 272 -159 272c-98 0 -179 -86 -179 -205c0 -81 43 -140 113 -150c-17 -52 -54 -84 -97 -84c-69 0 -110 62 -110 156c0 151 103 342 289 342c207 0 261 -202 261 -348c0 -365 -234 -552 -462 -552z" />
    <glyph glyph-name="Ocircumflex" unicode="&#xd4;" horiz-adv-x="888" 
d="M379 842c-15 0 -25 9 -35 31c129 131 177 170 208 170c33 0 71 -38 167 -170c-15 -22 -27 -31 -42 -31c-36 0 -91 60 -132 140c-57 -79 -128 -140 -166 -140zM399 -138c-207 0 -327 144 -327 376c0 162 84 442 210 442c20 0 35 -8 45 -22c-82 -83 -139 -233 -139 -406
c0 -202 78 -327 210 -327c194 0 345 205 345 506c0 169 -58 272 -159 272c-98 0 -179 -86 -179 -205c0 -81 43 -140 113 -150c-17 -52 -54 -84 -97 -84c-69 0 -110 62 -110 156c0 151 103 342 289 342c207 0 261 -202 261 -348c0 -365 -234 -552 -462 -552z" />
    <glyph glyph-name="Odieresis" unicode="&#xd6;" horiz-adv-x="888" 
d="M425 863c-32 0 -52 18 -52 48c0 41 33 69 76 69c34 0 55 -20 55 -50c0 -39 -33 -67 -79 -67zM621 863c-32 0 -52 18 -52 48c0 41 33 69 76 69c34 0 55 -20 55 -50c0 -39 -33 -67 -79 -67zM399 -138c-207 0 -327 144 -327 376c0 162 84 442 210 442c20 0 35 -8 45 -22
c-82 -83 -139 -233 -139 -406c0 -202 78 -327 210 -327c194 0 345 205 345 506c0 169 -58 272 -159 272c-98 0 -179 -86 -179 -205c0 -81 43 -140 113 -150c-17 -52 -54 -84 -97 -84c-69 0 -110 62 -110 156c0 151 103 342 289 342c207 0 261 -202 261 -348
c0 -365 -234 -552 -462 -552z" />
    <glyph glyph-name="Ograve" unicode="&#xd2;" horiz-adv-x="888" 
d="M588 843c-66 0 -146 128 -146 183c0 13 24 22 53 22c21 0 41 -5 55 -14c5 -29 12 -91 72 -177c-14 -10 -25 -14 -34 -14zM399 -138c-207 0 -327 144 -327 376c0 162 84 442 210 442c20 0 35 -8 45 -22c-82 -83 -139 -233 -139 -406c0 -202 78 -327 210 -327
c194 0 345 205 345 506c0 169 -58 272 -159 272c-98 0 -179 -86 -179 -205c0 -81 43 -140 113 -150c-17 -52 -54 -84 -97 -84c-69 0 -110 62 -110 156c0 151 103 342 289 342c207 0 261 -202 261 -348c0 -365 -234 -552 -462 -552z" />
    <glyph glyph-name="Ohungarumlaut" unicode="&#x150;" horiz-adv-x="888" 
d="M608 845c-9 0 -19 4 -31 14c82 86 103 148 115 177c17 9 38 14 59 14c28 0 49 -9 49 -17c0 -47 -122 -188 -192 -188zM417 842c-9 0 -19 4 -31 14c81 86 103 148 115 177c17 9 38 14 59 14c28 0 49 -9 49 -17c0 -47 -122 -188 -192 -188zM399 -138
c-207 0 -327 144 -327 376c0 162 84 442 210 442c20 0 35 -8 45 -22c-82 -83 -139 -233 -139 -406c0 -202 78 -327 210 -327c194 0 345 205 345 506c0 169 -58 272 -159 272c-98 0 -179 -86 -179 -205c0 -81 43 -140 113 -150c-17 -52 -54 -84 -97 -84
c-69 0 -110 62 -110 156c0 151 103 342 289 342c207 0 261 -202 261 -348c0 -365 -234 -552 -462 -552z" />
    <glyph glyph-name="Omacron" unicode="&#x14c;" horiz-adv-x="888" 
d="M704 844c-27 3 -49 5 -76 5c-24 0 -51 0 -87 -2c-41 -2 -73 -3 -100 -3c-72 0 -95 9 -95 37c0 10 3 18 7 26c49 -3 149 -2 193 -2c43 0 84 4 117 4c42 0 57 -6 57 -23c0 -12 -7 -29 -16 -42zM399 -138c-207 0 -327 144 -327 376c0 162 84 442 210 442c20 0 35 -8 45 -22
c-82 -83 -139 -233 -139 -406c0 -202 78 -327 210 -327c194 0 345 205 345 506c0 169 -58 272 -159 272c-98 0 -179 -86 -179 -205c0 -81 43 -140 113 -150c-17 -52 -54 -84 -97 -84c-69 0 -110 62 -110 156c0 151 103 342 289 342c207 0 261 -202 261 -348
c0 -365 -234 -552 -462 -552z" />
    <glyph glyph-name="Oslash" unicode="&#xd8;" horiz-adv-x="888" 
d="M865 717c0 -1 -22 -29 -57 -73c39 -69 53 -157 53 -230c0 -365 -234 -552 -462 -552c-75 0 -138 19 -189 54c-30 -35 -52 -62 -64 -77c-39 23 -54 41 -54 61c0 5 22 32 57 74c-50 64 -77 154 -77 264c0 162 84 442 210 442c20 0 35 -8 45 -22
c-82 -83 -139 -233 -139 -406c0 -77 11 -143 33 -195l179 209c-56 11 -89 70 -89 154c0 151 103 342 289 342c67 0 118 -21 156 -55c22 29 39 52 49 66c35 -8 60 -30 60 -56zM584 703c-98 0 -179 -86 -179 -205c0 -65 27 -115 74 -138c78 94 158 194 221 273
c-28 45 -67 70 -116 70zM743 431c0 43 -4 83 -11 117c-84 -105 -189 -236 -258 -320c-75 -91 -148 -177 -207 -246c34 -37 78 -57 131 -57c194 0 345 205 345 506z" />
    <glyph glyph-name="Otilde" unicode="&#xd5;" horiz-adv-x="888" 
d="M610 863c-61 0 -110 58 -149 58c-22 0 -50 -21 -69 -52c-25 1 -39 12 -39 29c0 40 61 87 112 87c63 0 109 -58 148 -58c22 0 42 16 68 52c28 -1 43 -10 43 -24c0 -40 -63 -92 -114 -92zM399 -138c-207 0 -327 144 -327 376c0 162 84 442 210 442c20 0 35 -8 45 -22
c-82 -83 -139 -233 -139 -406c0 -202 78 -327 210 -327c194 0 345 205 345 506c0 169 -58 272 -159 272c-98 0 -179 -86 -179 -205c0 -81 43 -140 113 -150c-17 -52 -54 -84 -97 -84c-69 0 -110 62 -110 156c0 151 103 342 289 342c207 0 261 -202 261 -348
c0 -365 -234 -552 -462 -552z" />
    <glyph glyph-name="OE" unicode="&#x152;" horiz-adv-x="1443" 
d="M1151 679c-133 0 -234 26 -267 -104c-14 -54 -32 -158 -40 -225c127 -8 347 22 423 90c18 -12 27 -26 27 -41c0 -98 -281 -103 -459 -118c-43 -200 -70 -362 82 -362c134 0 286 132 380 132c30 0 45 -14 45 -39s-15 -57 -41 -86c-133 19 -223 -49 -383 -49
c-136 0 -198 34 -211 128c-81 -95 -191 -143 -308 -143c-207 0 -327 144 -327 376c0 162 84 442 210 442c20 0 35 -8 45 -22c-82 -83 -139 -233 -139 -406c0 -202 78 -327 210 -327c194 0 345 205 345 506c0 169 -58 272 -159 272c-98 0 -179 -86 -179 -205
c0 -81 43 -140 113 -150c-17 -52 -54 -84 -97 -84c-69 0 -110 62 -110 156c0 151 103 342 289 342c91 0 149 -41 185 -99c95 92 349 64 447 76c43 5 92 26 122 52c32 -13 48 -32 48 -57c0 -39 -65 -55 -251 -55z" />
    <glyph glyph-name="P" unicode="P" horiz-adv-x="946" 
d="M587 785c229 0 391 -113 391 -264c0 -178 -206 -379 -550 -379h-30c-14 -53 -24 -115 -24 -194c0 -41 5 -83 13 -110c-31 -7 -66 -9 -84 -7c-47 3 -63 35 -63 78c0 40 30 138 63 244c-3 0 -6 1 -9 2c-55 16 -83 35 -83 54c0 28 21 38 53 55c13 -20 33 -37 57 -49
c31 103 59 205 59 264c0 31 -5 52 -20 74c25 16 48 24 68 24c34 0 57 -26 57 -72c0 -133 -41 -212 -73 -313c5 -1 11 -1 17 -1c209 0 372 129 407 299l1 4c28 139 -100 234 -297 234c-167 0 -319 -85 -319 -188c0 -37 20 -57 39 -72c-16 -20 -47 -33 -78 -33
c-46 0 -79 36 -79 84c0 100 163 266 484 266z" />
    <glyph glyph-name="Thorn" unicode="&#xde;" horiz-adv-x="855" 
d="M477 560c214 0 365 -98 365 -230c0 -177 -231 -325 -507 -325h-40c-1 -14 -1 -29 -1 -44c0 -45 5 -92 13 -122c-32 -7 -68 -10 -86 -8c-107 8 -48 174 -14 295c24 87 49 177 82 314c5 20 9 38 12 55c-94 -27 -163 -82 -163 -146c0 -32 17 -50 35 -63
c-15 -16 -41 -26 -69 -26c-43 0 -74 31 -74 72c0 68 93 170 278 211c2 15 3 29 3 41c0 35 -6 60 -20 84c39 30 93 38 109 12c10 -11 16 -40 16 -68c0 -19 -1 -37 -2 -54c20 1 41 2 63 2zM712 308c6 125 -95 206 -278 206c-8 0 -16 0 -24 -1c-23 -166 -97 -258 -113 -467
c12 -2 25 -3 38 -3c195 0 377 110 377 265z" />
    <glyph glyph-name="Q" unicode="Q" horiz-adv-x="870" 
d="M926 -157c12 -97 -32 -161 -110 -161c-99 0 -254 154 -386 181c-10 -1 -20 -1 -30 -1c-216 0 -342 146 -342 386c0 173 92 431 221 431c18 0 31 -7 38 -20c-78 -80 -151 -257 -151 -425c0 -200 82 -307 231 -307c210 0 335 256 335 487c0 168 -56 286 -146 286
c-57 0 -104 -64 -137 -140c-48 -2 -78 24 -78 66c0 72 89 132 194 132c181 0 280 -127 280 -344c0 -219 -98 -445 -292 -523c77 -29 142 -75 264 -75c33 0 73 10 109 27z" />
    <glyph glyph-name="R" unicode="R" horiz-adv-x="883" 
d="M709 115c95 -163 165 -247 228 -273c-25 -63 -68 -96 -111 -88c-92 21 -147 206 -204 321c-26 52 -51 107 -81 138c-49 -10 -103 -15 -160 -15h-23c-22 -67 -40 -143 -40 -250c0 -41 5 -83 13 -111c-31 -6 -65 -8 -84 -6c-105 6 -51 148 -19 253c11 38 24 77 37 122
l-16 4c-52 14 -82 32 -82 50c0 24 23 44 54 60c14 -20 36 -37 63 -48c7 26 14 53 21 84c15 52 20 101 20 124c0 30 -6 51 -20 73c38 25 91 32 107 9c11 -9 17 -34 17 -58c0 -105 -26 -176 -52 -251h6c221 0 397 117 397 286c0 119 -113 197 -294 197
c-163 0 -312 -78 -312 -172c0 -33 19 -53 38 -67c-19 -19 -56 -35 -84 -35c-46 0 -71 23 -71 63c0 110 159 260 474 260c226 0 386 -103 386 -243c0 -114 -102 -241 -283 -304c22 -28 53 -84 75 -123z" />
    <glyph glyph-name="Racute" unicode="&#x154;" horiz-adv-x="883" 
d="M716 1031c0 -47 -122 -188 -192 -188c-9 0 -19 4 -31 14c81 86 103 148 115 177c17 9 38 14 59 14c28 0 49 -9 49 -17zM709 115c95 -163 165 -247 228 -273c-25 -63 -68 -96 -111 -88c-92 21 -147 206 -204 321c-26 52 -51 107 -81 138c-49 -10 -103 -15 -160 -15h-23
c-22 -67 -40 -143 -40 -250c0 -41 5 -83 13 -111c-31 -6 -65 -8 -84 -6c-105 6 -51 148 -19 253c11 38 24 77 37 122l-16 4c-52 14 -82 32 -82 50c0 24 23 44 54 60c14 -20 36 -37 63 -48c7 26 14 53 21 84c15 52 20 101 20 124c0 30 -6 51 -20 73c38 25 91 32 107 9
c11 -9 17 -34 17 -58c0 -105 -26 -176 -52 -251h6c221 0 397 117 397 286c0 119 -113 197 -294 197c-163 0 -312 -78 -312 -172c0 -33 19 -53 38 -67c-19 -19 -56 -35 -84 -35c-46 0 -71 23 -71 63c0 110 159 260 474 260c226 0 386 -103 386 -243
c0 -114 -102 -241 -283 -304c22 -28 53 -84 75 -123z" />
    <glyph glyph-name="Rcaron" unicode="&#x158;" horiz-adv-x="883" 
d="M555 844c-32 0 -70 39 -167 170c15 22 28 31 43 31c49 0 118 -90 139 -141c70 91 125 141 159 141c14 0 25 -9 35 -31c-129 -132 -177 -170 -209 -170zM709 115c95 -163 165 -247 228 -273c-25 -63 -68 -96 -111 -88c-92 21 -147 206 -204 321c-26 52 -51 107 -81 138
c-49 -10 -103 -15 -160 -15h-23c-22 -67 -40 -143 -40 -250c0 -41 5 -83 13 -111c-31 -6 -65 -8 -84 -6c-105 6 -51 148 -19 253c11 38 24 77 37 122l-16 4c-52 14 -82 32 -82 50c0 24 23 44 54 60c14 -20 36 -37 63 -48c7 26 14 53 21 84c15 52 20 101 20 124
c0 30 -6 51 -20 73c38 25 91 32 107 9c11 -9 17 -34 17 -58c0 -105 -26 -176 -52 -251h6c221 0 397 117 397 286c0 119 -113 197 -294 197c-163 0 -312 -78 -312 -172c0 -33 19 -53 38 -67c-19 -19 -56 -35 -84 -35c-46 0 -71 23 -71 63c0 110 159 260 474 260
c226 0 386 -103 386 -243c0 -114 -102 -241 -283 -304c22 -28 53 -84 75 -123z" />
    <glyph glyph-name="Rcommaaccent" unicode="&#x156;" horiz-adv-x="883" 
d="M709 115c95 -163 165 -247 228 -273c-25 -63 -68 -96 -111 -88c-92 21 -147 206 -204 321c-26 52 -51 107 -81 138c-49 -10 -103 -15 -160 -15h-23c-22 -67 -40 -143 -40 -250c0 -41 5 -83 13 -111c-31 -6 -65 -8 -84 -6c-105 6 -51 148 -19 253c11 38 24 77 37 122
l-16 4c-52 14 -82 32 -82 50c0 24 23 44 54 60c14 -20 36 -37 63 -48c7 26 14 53 21 84c15 52 20 101 20 124c0 30 -6 51 -20 73c38 25 91 32 107 9c11 -9 17 -34 17 -58c0 -105 -26 -176 -52 -251h6c221 0 397 117 397 286c0 119 -113 197 -294 197
c-163 0 -312 -78 -312 -172c0 -33 19 -53 38 -67c-19 -19 -56 -35 -84 -35c-46 0 -71 23 -71 63c0 110 159 260 474 260c226 0 386 -103 386 -243c0 -114 -102 -241 -283 -304c22 -28 53 -84 75 -123zM520 -235c30 0 49 -25 49 -62c0 -56 -76 -145 -115 -145
c-8 0 -15 6 -18 15c26 25 47 46 55 81c-25 10 -38 28 -38 51c0 36 27 60 67 60z" />
    <glyph glyph-name="S" unicode="S" horiz-adv-x="885" 
d="M392 -181c-198 0 -271 58 -271 104c0 19 10 39 33 62c68 -48 158 -97 283 -97c132 0 260 76 260 160c0 99 -169 115 -317 167c-165 58 -239 134 -239 240c0 190 180 315 449 315c171 0 323 -66 323 -139c0 -38 -65 -66 -105 -66c-15 46 -94 150 -251 150
c-146 0 -298 -91 -298 -205c0 -113 113 -162 237 -204c151 -51 318 -91 318 -220c0 -175 -224 -267 -422 -267z" />
    <glyph glyph-name="Sacute" unicode="&#x15a;" horiz-adv-x="885" 
d="M558 843c-9 0 -19 4 -31 14c81 86 103 148 115 177c17 9 38 14 59 14c28 0 49 -9 49 -17c0 -47 -122 -188 -192 -188zM392 -181c-198 0 -271 58 -271 104c0 19 10 39 33 62c68 -48 158 -97 283 -97c132 0 260 76 260 160c0 99 -169 115 -317 167
c-165 58 -239 134 -239 240c0 190 180 315 449 315c171 0 323 -66 323 -139c0 -38 -65 -66 -105 -66c-15 46 -94 150 -251 150c-146 0 -298 -91 -298 -205c0 -113 113 -162 237 -204c151 -51 318 -91 318 -220c0 -175 -224 -267 -422 -267z" />
    <glyph glyph-name="Scaron" unicode="&#x160;" horiz-adv-x="885" 
d="M589 844c-32 0 -70 39 -167 170c15 22 28 31 43 31c49 0 118 -90 139 -141c70 91 125 141 159 141c14 0 25 -9 35 -31c-129 -132 -177 -170 -209 -170zM392 -181c-198 0 -271 58 -271 104c0 19 10 39 33 62c68 -48 158 -97 283 -97c132 0 260 76 260 160
c0 99 -169 115 -317 167c-165 58 -239 134 -239 240c0 190 180 315 449 315c171 0 323 -66 323 -139c0 -38 -65 -66 -105 -66c-15 46 -94 150 -251 150c-146 0 -298 -91 -298 -205c0 -113 113 -162 237 -204c151 -51 318 -91 318 -220c0 -175 -224 -267 -422 -267z" />
    <glyph glyph-name="Scedilla" unicode="&#x15e;" horiz-adv-x="885" 
d="M557 715c-146 0 -298 -91 -298 -205c0 -113 113 -162 237 -204c151 -51 318 -91 318 -220c0 -156 -178 -246 -357 -264l-29 -48c52 -6 82 -33 82 -74c0 -53 -57 -94 -127 -94c-38 0 -74 17 -74 41c0 11 9 20 21 23c14 -13 26 -18 42 -18c31 0 58 26 58 59
c0 29 -24 37 -61 44l2 14l31 50h-10c-198 0 -271 58 -271 104c0 19 10 39 33 62c68 -48 158 -97 283 -97c132 0 260 76 260 160c0 99 -169 115 -317 167c-165 58 -239 134 -239 240c0 190 180 315 449 315c171 0 323 -66 323 -139c0 -38 -65 -66 -105 -66
c-15 46 -94 150 -251 150z" />
    <glyph glyph-name="Scommaaccent" unicode="&#x218;" horiz-adv-x="885" 
d="M392 -181c-198 0 -271 58 -271 104c0 19 10 39 33 62c68 -48 158 -97 283 -97c132 0 260 76 260 160c0 99 -169 115 -317 167c-165 58 -239 134 -239 240c0 190 180 315 449 315c171 0 323 -66 323 -139c0 -38 -65 -66 -105 -66c-15 46 -94 150 -251 150
c-146 0 -298 -91 -298 -205c0 -113 113 -162 237 -204c151 -51 318 -91 318 -220c0 -175 -224 -267 -422 -267zM450 -450c-8 0 -15 6 -18 15c26 25 47 46 55 81c-25 10 -38 28 -38 51c0 36 27 60 67 60c30 0 49 -25 49 -62c0 -56 -76 -145 -115 -145z" />
    <glyph glyph-name="T" unicode="T" horiz-adv-x="699" 
d="M1031 859c29 -13 45 -32 45 -50c0 -47 -75 -64 -299 -66c-44 0 -86 -1 -125 -3c1 -4 2 -7 2 -11c-53 -153 -137 -443 -137 -672c0 -76 7 -149 22 -188c-19 -6 -52 -11 -76 -11c-58 0 -91 34 -91 92v34c0 189 106 608 190 750c-195 -16 -299 -55 -299 -131
c0 -28 17 -47 33 -59c-23 -18 -55 -30 -84 -30c-53 0 -85 31 -85 80c0 105 142 181 373 208c171 20 312 7 434 20c47 5 75 15 97 37z" />
    <glyph glyph-name="Tbar" unicode="&#x166;" horiz-adv-x="699" 
d="M1031 859c29 -13 45 -32 45 -50c0 -47 -75 -64 -299 -66c-44 0 -86 -1 -125 -3c1 -4 2 -7 2 -11c-32 -91 -74 -230 -103 -377c91 1 174 2 174 -37c0 -13 -9 -32 -21 -45c-54 8 -93 9 -167 9c-12 -76 -20 -152 -20 -222c0 -76 7 -149 22 -188c-19 -6 -52 -11 -76 -11
c-58 0 -91 34 -91 92v34c0 74 16 182 41 296c-125 2 -154 13 -154 42c0 9 6 21 13 32c47 -2 79 -2 157 -2c38 155 89 307 133 382c-195 -16 -299 -55 -299 -131c0 -28 17 -47 33 -59c-23 -18 -55 -30 -84 -30c-53 0 -85 31 -85 80c0 105 142 181 373 208
c171 20 312 7 434 20c47 5 75 15 97 37z" />
    <glyph glyph-name="Tcaron" unicode="&#x164;" horiz-adv-x="699" 
d="M624 869c-32 0 -70 39 -167 170c15 22 28 31 43 31c49 0 118 -90 139 -141c70 91 125 141 159 141c14 0 25 -9 35 -31c-129 -132 -177 -170 -209 -170zM1031 859c29 -13 45 -32 45 -50c0 -47 -75 -64 -299 -66c-44 0 -86 -1 -125 -3c1 -4 2 -7 2 -11
c-53 -153 -137 -443 -137 -672c0 -76 7 -149 22 -188c-19 -6 -52 -11 -76 -11c-58 0 -91 34 -91 92v34c0 189 106 608 190 750c-195 -16 -299 -55 -299 -131c0 -28 17 -47 33 -59c-23 -18 -55 -30 -84 -30c-53 0 -85 31 -85 80c0 105 142 181 373 208c171 20 312 7 434 20
c47 5 75 15 97 37z" />
    <glyph glyph-name="uni0162" unicode="&#x162;" horiz-adv-x="699" 
d="M1031 859c29 -13 45 -32 45 -50c0 -47 -75 -64 -299 -66c-44 0 -86 -1 -125 -3c1 -4 2 -7 2 -11c-53 -153 -137 -443 -137 -672c0 -76 7 -149 22 -188c-18 -6 -50 -11 -74 -11l-15 -26c52 -6 82 -33 82 -74c0 -53 -57 -94 -127 -94c-38 0 -74 17 -74 41c0 11 9 20 21 23
c14 -13 26 -18 42 -18c31 0 58 26 58 59c0 29 -24 37 -61 44l2 14l25 40c-30 14 -46 42 -46 83v34c0 189 106 608 190 750c-195 -16 -299 -55 -299 -131c0 -28 17 -47 33 -59c-23 -18 -55 -30 -84 -30c-53 0 -85 31 -85 80c0 105 142 181 373 208c171 20 312 7 434 20
c47 5 75 15 97 37z" />
    <glyph glyph-name="uni021A" unicode="&#x21a;" horiz-adv-x="699" 
d="M1031 859c29 -13 45 -32 45 -50c0 -47 -75 -64 -299 -66c-44 0 -86 -1 -125 -3c1 -4 2 -7 2 -11c-53 -153 -137 -443 -137 -672c0 -76 7 -149 22 -188c-19 -6 -52 -11 -76 -11c-58 0 -91 34 -91 92v34c0 189 106 608 190 750c-195 -16 -299 -55 -299 -131
c0 -28 17 -47 33 -59c-23 -18 -55 -30 -84 -30c-53 0 -85 31 -85 80c0 105 142 181 373 208c171 20 312 7 434 20c47 5 75 15 97 37zM538 -185c30 0 49 -25 49 -62c0 -56 -76 -145 -115 -145c-8 0 -15 6 -18 15c26 25 47 46 55 81c-25 10 -38 28 -38 51c0 36 27 60 67 60z
" />
    <glyph glyph-name="U" unicode="U" horiz-adv-x="871" 
d="M786 363c-20 -129 -30 -337 27 -429c-31 -22 -61 -30 -93 -30c-30 0 -55 14 -66 51c-12 41 -12 112 -5 196c-102 -171 -254 -324 -377 -324c-141 0 -204 143 -165 382c24 149 65 292 82 409c8 54 2 80 -6 107c20 21 54 34 93 34c38 0 59 -26 59 -72
c0 -94 -85 -289 -117 -501c-27 -177 -4 -265 73 -265c138 0 329 280 399 506c20 101 45 194 67 252c16 41 46 56 80 56c19 0 41 -5 61 -13c-29 -60 -85 -187 -112 -359z" />
    <glyph glyph-name="Uacute" unicode="&#xda;" horiz-adv-x="871" 
d="M728 993c0 -47 -122 -188 -192 -188c-9 0 -19 4 -31 14c81 86 103 148 115 177c17 9 38 14 59 14c28 0 49 -9 49 -17zM786 363c-20 -129 -30 -337 27 -429c-31 -22 -61 -30 -93 -30c-30 0 -55 14 -66 51c-12 41 -12 112 -5 196c-102 -171 -254 -324 -377 -324
c-141 0 -204 143 -165 382c24 149 65 292 82 409c8 54 2 80 -6 107c20 21 54 34 93 34c38 0 59 -26 59 -72c0 -94 -85 -289 -117 -501c-27 -177 -4 -265 73 -265c138 0 329 280 399 506c20 101 45 194 67 252c16 41 46 56 80 56c19 0 41 -5 61 -13
c-29 -60 -85 -187 -112 -359z" />
    <glyph glyph-name="Ucircumflex" unicode="&#xdb;" horiz-adv-x="871" 
d="M422 804c-15 0 -25 9 -35 31c129 131 177 170 208 170c33 0 71 -38 167 -170c-15 -22 -27 -31 -42 -31c-36 0 -91 60 -132 140c-57 -79 -128 -140 -166 -140zM786 363c-20 -129 -30 -337 27 -429c-31 -22 -61 -30 -93 -30c-30 0 -55 14 -66 51c-12 41 -12 112 -5 196
c-102 -171 -254 -324 -377 -324c-141 0 -204 143 -165 382c24 149 65 292 82 409c8 54 2 80 -6 107c20 21 54 34 93 34c38 0 59 -26 59 -72c0 -94 -85 -289 -117 -501c-27 -177 -4 -265 73 -265c138 0 329 280 399 506c20 101 45 194 67 252c16 41 46 56 80 56
c19 0 41 -5 61 -13c-29 -60 -85 -187 -112 -359z" />
    <glyph glyph-name="Udieresis" unicode="&#xdc;" horiz-adv-x="871" 
d="M468 825c-32 0 -52 18 -52 48c0 41 33 69 76 69c34 0 55 -20 55 -50c0 -39 -33 -67 -79 -67zM664 825c-32 0 -52 18 -52 48c0 41 33 69 76 69c34 0 55 -20 55 -50c0 -39 -33 -67 -79 -67zM786 363c-20 -129 -30 -337 27 -429c-31 -22 -61 -30 -93 -30
c-30 0 -55 14 -66 51c-12 41 -12 112 -5 196c-102 -171 -254 -324 -377 -324c-141 0 -204 143 -165 382c24 149 65 292 82 409c8 54 2 80 -6 107c20 21 54 34 93 34c38 0 59 -26 59 -72c0 -94 -85 -289 -117 -501c-27 -177 -4 -265 73 -265c138 0 329 280 399 506
c20 101 45 194 67 252c16 41 46 56 80 56c19 0 41 -5 61 -13c-29 -60 -85 -187 -112 -359z" />
    <glyph glyph-name="Ugrave" unicode="&#xd9;" horiz-adv-x="871" 
d="M631 805c-66 0 -146 128 -146 183c0 13 24 22 53 22c21 0 41 -5 55 -14c5 -29 12 -91 72 -177c-14 -10 -25 -14 -34 -14zM786 363c-20 -129 -30 -337 27 -429c-31 -22 -61 -30 -93 -30c-30 0 -55 14 -66 51c-12 41 -12 112 -5 196c-102 -171 -254 -324 -377 -324
c-141 0 -204 143 -165 382c24 149 65 292 82 409c8 54 2 80 -6 107c20 21 54 34 93 34c38 0 59 -26 59 -72c0 -94 -85 -289 -117 -501c-27 -177 -4 -265 73 -265c138 0 329 280 399 506c20 101 45 194 67 252c16 41 46 56 80 56c19 0 41 -5 61 -13
c-29 -60 -85 -187 -112 -359z" />
    <glyph glyph-name="Uhungarumlaut" unicode="&#x170;" horiz-adv-x="871" 
d="M651 807c-9 0 -19 4 -31 14c82 86 103 148 115 177c17 9 38 14 59 14c28 0 49 -9 49 -17c0 -47 -122 -188 -192 -188zM652 992c0 -47 -122 -188 -192 -188c-9 0 -19 4 -31 14c81 86 103 148 115 177c17 9 38 14 59 14c28 0 49 -9 49 -17zM786 363
c-20 -129 -30 -337 27 -429c-31 -22 -61 -30 -93 -30c-30 0 -55 14 -66 51c-12 41 -12 112 -5 196c-102 -171 -254 -324 -377 -324c-141 0 -204 143 -165 382c24 149 65 292 82 409c8 54 2 80 -6 107c20 21 54 34 93 34c38 0 59 -26 59 -72c0 -94 -85 -289 -117 -501
c-27 -177 -4 -265 73 -265c138 0 329 280 399 506c20 101 45 194 67 252c16 41 46 56 80 56c19 0 41 -5 61 -13c-29 -60 -85 -187 -112 -359z" />
    <glyph glyph-name="Umacron" unicode="&#x16a;" horiz-adv-x="871" 
d="M484 806c-72 0 -95 9 -95 37c0 10 3 18 7 26c49 -3 149 -2 193 -2c43 0 84 4 117 4c42 0 57 -6 57 -23c0 -12 -7 -29 -16 -42c-27 3 -49 5 -76 5c-24 0 -51 0 -87 -2c-41 -2 -73 -3 -100 -3zM786 363c-20 -129 -30 -337 27 -429c-31 -22 -61 -30 -93 -30
c-30 0 -55 14 -66 51c-12 41 -12 112 -5 196c-102 -171 -254 -324 -377 -324c-141 0 -204 143 -165 382c24 149 65 292 82 409c8 54 2 80 -6 107c20 21 54 34 93 34c38 0 59 -26 59 -72c0 -94 -85 -289 -117 -501c-27 -177 -4 -265 73 -265c138 0 329 280 399 506
c20 101 45 194 67 252c16 41 46 56 80 56c19 0 41 -5 61 -13c-29 -60 -85 -187 -112 -359z" />
    <glyph glyph-name="Uogonek" unicode="&#x172;" horiz-adv-x="871" 
d="M760 -91c-42 -40 -60 -67 -60 -95c0 -26 14 -43 38 -43c17 0 37 7 58 21c8 -4 11 -10 11 -18c0 -27 -46 -53 -91 -53c-59 0 -98 33 -98 80c0 52 42 86 79 106c-20 6 -35 21 -43 48c-12 41 -12 112 -5 196c-102 -171 -254 -324 -377 -324c-141 0 -204 143 -165 382
c24 149 65 292 82 409c8 54 2 80 -6 107c20 21 54 34 93 34c38 0 59 -26 59 -72c0 -94 -85 -289 -117 -501c-27 -177 -4 -265 73 -265c138 0 329 280 399 506c20 101 45 194 67 252c16 41 46 56 80 56c19 0 41 -5 61 -13c-29 -60 -85 -187 -112 -359
c-20 -129 -30 -337 27 -429c-18 -13 -35 -21 -53 -25z" />
    <glyph glyph-name="Uring" unicode="&#x16e;" horiz-adv-x="871" 
d="M569 815c-53 0 -88 32 -88 81c0 59 49 101 111 101c54 0 88 -32 88 -81c0 -59 -48 -101 -111 -101zM589 968c-31 0 -52 -29 -52 -74c0 -32 12 -50 35 -50c31 0 51 30 51 75c0 31 -12 49 -34 49zM786 363c-20 -129 -30 -337 27 -429c-31 -22 -61 -30 -93 -30
c-30 0 -55 14 -66 51c-12 41 -12 112 -5 196c-102 -171 -254 -324 -377 -324c-141 0 -204 143 -165 382c24 149 65 292 82 409c8 54 2 80 -6 107c20 21 54 34 93 34c38 0 59 -26 59 -72c0 -94 -85 -289 -117 -501c-27 -177 -4 -265 73 -265c138 0 329 280 399 506
c20 101 45 194 67 252c16 41 46 56 80 56c19 0 41 -5 61 -13c-29 -60 -85 -187 -112 -359z" />
    <glyph glyph-name="V" unicode="V" horiz-adv-x="911" 
d="M419 -174c-26 0 -97 73 -105 108c-20 125 -21 201 -52 392c-34 208 -86 265 -147 303c10 45 43 72 88 72c175 0 180 -391 214 -701c3 -37 13 -55 37 -69c114 32 350 342 350 633c0 96 -23 186 -67 247c23 16 38 21 63 21c98 0 121 -132 121 -224
c0 -369 -368 -782 -502 -782z" />
    <glyph glyph-name="W" unicode="W" horiz-adv-x="1067" 
d="M164 -130c-85 0 -105 64 -105 153c0 106 31 259 31 366c0 54 -12 115 -40 159c48 32 96 77 138 77c30 0 44 -29 44 -87c0 -120 -85 -380 -85 -482c0 -48 15 -81 43 -81c74 0 173 257 207 528c11 88 118 121 144 121c29 0 32 -24 34 -62c7 -172 -77 -568 93 -568
c21 0 270 50 270 581c0 83 -8 210 -25 272c23 4 25 6 45 6c103 0 129 -81 100 -317c-32 -218 -161 -643 -418 -643c-242 0 -130 599 -197 532c-17 -86 -52 -205 -79 -296c-45 -154 -122 -259 -200 -259z" />
    <glyph glyph-name="Wacute" unicode="&#x1e82;" horiz-adv-x="1067" 
d="M497 772c-9 0 -19 4 -31 14c81 86 103 148 115 177c17 9 38 14 59 14c28 0 49 -9 49 -17c0 -47 -122 -188 -192 -188zM164 -130c-85 0 -105 64 -105 153c0 106 31 259 31 366c0 54 -12 115 -40 159c48 32 96 77 138 77c30 0 44 -29 44 -87c0 -120 -85 -380 -85 -482
c0 -48 15 -81 43 -81c74 0 173 257 207 528c11 88 118 121 144 121c29 0 32 -24 34 -62c7 -172 -77 -568 93 -568c21 0 270 50 270 581c0 83 -8 210 -25 272c23 4 25 6 45 6c103 0 129 -81 100 -317c-32 -218 -161 -643 -418 -643c-242 0 -130 599 -197 532
c-17 -86 -52 -205 -79 -296c-45 -154 -122 -259 -200 -259z" />
    <glyph glyph-name="Wcircumflex" unicode="&#x174;" horiz-adv-x="1067" 
d="M383 771c-15 0 -25 9 -35 31c129 131 177 170 208 170c33 0 71 -38 167 -170c-15 -22 -27 -31 -42 -31c-36 0 -91 60 -132 140c-57 -79 -128 -140 -166 -140zM164 -130c-85 0 -105 64 -105 153c0 106 31 259 31 366c0 54 -12 115 -40 159c48 32 96 77 138 77
c30 0 44 -29 44 -87c0 -120 -85 -380 -85 -482c0 -48 15 -81 43 -81c74 0 173 257 207 528c11 88 118 121 144 121c29 0 32 -24 34 -62c7 -172 -77 -568 93 -568c21 0 270 50 270 581c0 83 -8 210 -25 272c23 4 25 6 45 6c103 0 129 -81 100 -317
c-32 -218 -161 -643 -418 -643c-242 0 -130 599 -197 532c-17 -86 -52 -205 -79 -296c-45 -154 -122 -259 -200 -259z" />
    <glyph glyph-name="Wdieresis" unicode="&#x1e84;" horiz-adv-x="1067" 
d="M429 792c-32 0 -52 18 -52 48c0 41 33 69 76 69c34 0 55 -20 55 -50c0 -39 -33 -67 -79 -67zM625 792c-32 0 -52 18 -52 48c0 41 33 69 76 69c34 0 55 -20 55 -50c0 -39 -33 -67 -79 -67zM164 -130c-85 0 -105 64 -105 153c0 106 31 259 31 366c0 54 -12 115 -40 159
c48 32 96 77 138 77c30 0 44 -29 44 -87c0 -120 -85 -380 -85 -482c0 -48 15 -81 43 -81c74 0 173 257 207 528c11 88 118 121 144 121c29 0 32 -24 34 -62c7 -172 -77 -568 93 -568c21 0 270 50 270 581c0 83 -8 210 -25 272c23 4 25 6 45 6c103 0 129 -81 100 -317
c-32 -218 -161 -643 -418 -643c-242 0 -130 599 -197 532c-17 -86 -52 -205 -79 -296c-45 -154 -122 -259 -200 -259z" />
    <glyph glyph-name="Wgrave" unicode="&#x1e80;" horiz-adv-x="1067" 
d="M592 772c-66 0 -146 128 -146 183c0 13 24 22 53 22c21 0 41 -5 55 -14c5 -29 12 -91 72 -177c-14 -10 -25 -14 -34 -14zM164 -130c-85 0 -105 64 -105 153c0 106 31 259 31 366c0 54 -12 115 -40 159c48 32 96 77 138 77c30 0 44 -29 44 -87c0 -120 -85 -380 -85 -482
c0 -48 15 -81 43 -81c74 0 173 257 207 528c11 88 118 121 144 121c29 0 32 -24 34 -62c7 -172 -77 -568 93 -568c21 0 270 50 270 581c0 83 -8 210 -25 272c23 4 25 6 45 6c103 0 129 -81 100 -317c-32 -218 -161 -643 -418 -643c-242 0 -130 599 -197 532
c-17 -86 -52 -205 -79 -296c-45 -154 -122 -259 -200 -259z" />
    <glyph glyph-name="X" unicode="X" horiz-adv-x="804" 
d="M789 738c68 0 102 -44 85 -111c-26 8 -47 11 -66 11c-94 0 -172 -106 -363 -347l-15 -19c80 -173 204 -256 299 -283c-1 -75 -31 -127 -76 -127c-46 0 -109 58 -182 167c-38 57 -72 114 -100 168c-48 -60 -103 -130 -170 -210c-72 -86 -112 -144 -206 -144
c-51 0 -83 51 -63 89c43 -4 80 -3 146 54c50 44 134 146 248 304c-63 139 -92 254 -92 314c0 70 53 121 115 120c-3 -137 13 -251 41 -345c183 247 309 359 399 359z" />
    <glyph glyph-name="Y" unicode="Y" horiz-adv-x="721" 
d="M615 577c13 128 61 177 159 167c-29 -63 -40 -140 -71 -391c-37 -305 -218 -510 -461 -510c-52 0 -184 18 -184 76c0 27 21 54 62 79c45 -71 115 -95 148 -95c236 0 302 233 325 468c-80 -156 -186 -226 -271 -226c-153 0 -201 143 -201 281c0 169 35 230 75 264
c30 26 74 36 141 36c-48 -83 -101 -216 -101 -344c0 -109 35 -170 102 -170c79 0 212 94 277 365z" />
    <glyph glyph-name="Yacute" unicode="&#xdd;" horiz-adv-x="721" 
d="M657 993c0 -47 -122 -188 -192 -188c-9 0 -19 4 -31 14c81 86 103 148 115 177c17 9 38 14 59 14c28 0 49 -9 49 -17zM615 577c13 128 61 177 159 167c-29 -63 -40 -140 -71 -391c-37 -305 -218 -510 -461 -510c-52 0 -184 18 -184 76c0 27 21 54 62 79
c45 -71 115 -95 148 -95c236 0 302 233 325 468c-80 -156 -186 -226 -271 -226c-153 0 -201 143 -201 281c0 169 35 230 75 264c30 26 74 36 141 36c-48 -83 -101 -216 -101 -344c0 -109 35 -170 102 -170c79 0 212 94 277 365z" />
    <glyph glyph-name="Ycircumflex" unicode="&#x176;" horiz-adv-x="721" 
d="M351 804c-15 0 -25 9 -35 31c129 131 177 170 208 170c33 0 71 -38 167 -170c-15 -22 -27 -31 -42 -31c-36 0 -91 60 -132 140c-57 -79 -128 -140 -166 -140zM615 577c13 128 61 177 159 167c-29 -63 -40 -140 -71 -391c-37 -305 -218 -510 -461 -510
c-52 0 -184 18 -184 76c0 27 21 54 62 79c45 -71 115 -95 148 -95c236 0 302 233 325 468c-80 -156 -186 -226 -271 -226c-153 0 -201 143 -201 281c0 169 35 230 75 264c30 26 74 36 141 36c-48 -83 -101 -216 -101 -344c0 -109 35 -170 102 -170c79 0 212 94 277 365z" />
    <glyph glyph-name="Ydieresis" unicode="&#x178;" horiz-adv-x="721" 
d="M397 825c-32 0 -52 18 -52 48c0 41 33 69 76 69c34 0 55 -20 55 -50c0 -39 -33 -67 -79 -67zM593 825c-32 0 -52 18 -52 48c0 41 33 69 76 69c34 0 55 -20 55 -50c0 -39 -33 -67 -79 -67zM615 577c13 128 61 177 159 167c-29 -63 -40 -140 -71 -391
c-37 -305 -218 -510 -461 -510c-52 0 -184 18 -184 76c0 27 21 54 62 79c45 -71 115 -95 148 -95c236 0 302 233 325 468c-80 -156 -186 -226 -271 -226c-153 0 -201 143 -201 281c0 169 35 230 75 264c30 26 74 36 141 36c-48 -83 -101 -216 -101 -344
c0 -109 35 -170 102 -170c79 0 212 94 277 365z" />
    <glyph glyph-name="Ygrave" unicode="&#x1ef2;" horiz-adv-x="721" 
d="M560 805c-66 0 -146 128 -146 183c0 13 24 22 53 22c21 0 41 -5 55 -14c5 -29 12 -91 72 -177c-14 -10 -25 -14 -34 -14zM615 577c13 128 61 177 159 167c-29 -63 -40 -140 -71 -391c-37 -305 -218 -510 -461 -510c-52 0 -184 18 -184 76c0 27 21 54 62 79
c45 -71 115 -95 148 -95c236 0 302 233 325 468c-80 -156 -186 -226 -271 -226c-153 0 -201 143 -201 281c0 169 35 230 75 264c30 26 74 36 141 36c-48 -83 -101 -216 -101 -344c0 -109 35 -170 102 -170c79 0 212 94 277 365z" />
    <glyph glyph-name="Z" unicode="Z" horiz-adv-x="786" 
d="M550 -139c-152 0 -376 46 -479 48c-9 19 -20 45 -20 80c0 66 18 85 173 236c147 144 293 281 415 394c-111 -1 -193 4 -257 4c-80 0 -122 -12 -158 -49c-27 18 -41 39 -41 62c0 54 74 96 171 96c134 0 240 -77 315 -65c30 21 71 43 106 43c32 0 44 -18 43 -79
c-45 -17 -177 -90 -445 -382c-111 -121 -168 -183 -228 -256c38 -11 212 -32 342 -32c88 0 147 12 228 45c35 -123 -55 -145 -165 -145z" />
    <glyph glyph-name="Zacute" unicode="&#x179;" horiz-adv-x="786" 
d="M509 805c-9 0 -19 4 -31 14c81 86 103 148 115 177c17 9 38 14 59 14c28 0 49 -9 49 -17c0 -47 -122 -188 -192 -188zM550 -139c-152 0 -376 46 -479 48c-9 19 -20 45 -20 80c0 66 18 85 173 236c147 144 293 281 415 394c-111 -1 -193 4 -257 4c-80 0 -122 -12 -158 -49
c-27 18 -41 39 -41 62c0 54 74 96 171 96c134 0 240 -77 315 -65c30 21 71 43 106 43c32 0 44 -18 43 -79c-45 -17 -177 -90 -445 -382c-111 -121 -168 -183 -228 -256c38 -11 212 -32 342 -32c88 0 147 12 228 45c35 -123 -55 -145 -165 -145z" />
    <glyph glyph-name="Zcaron" unicode="&#x17d;" horiz-adv-x="786" 
d="M540 806c-32 0 -70 39 -167 170c15 22 28 31 43 31c49 0 118 -90 139 -141c70 91 125 141 159 141c14 0 25 -9 35 -31c-129 -132 -177 -170 -209 -170zM550 -139c-152 0 -376 46 -479 48c-9 19 -20 45 -20 80c0 66 18 85 173 236c147 144 293 281 415 394
c-111 -1 -193 4 -257 4c-80 0 -122 -12 -158 -49c-27 18 -41 39 -41 62c0 54 74 96 171 96c134 0 240 -77 315 -65c30 21 71 43 106 43c32 0 44 -18 43 -79c-45 -17 -177 -90 -445 -382c-111 -121 -168 -183 -228 -256c38 -11 212 -32 342 -32c88 0 147 12 228 45
c35 -123 -55 -145 -165 -145z" />
    <glyph glyph-name="Zdotaccent" unicode="&#x17b;" horiz-adv-x="786" 
d="M546 827c-31 0 -51 18 -51 44c0 36 29 61 68 61c31 0 50 -18 50 -44c0 -34 -31 -61 -67 -61zM550 -139c-152 0 -376 46 -479 48c-9 19 -20 45 -20 80c0 66 18 85 173 236c147 144 293 281 415 394c-111 -1 -193 4 -257 4c-80 0 -122 -12 -158 -49c-27 18 -41 39 -41 62
c0 54 74 96 171 96c134 0 240 -77 315 -65c30 21 71 43 106 43c32 0 44 -18 43 -79c-45 -17 -177 -90 -445 -382c-111 -121 -168 -183 -228 -256c38 -11 212 -32 342 -32c88 0 147 12 228 45c35 -123 -55 -145 -165 -145z" />
    <glyph glyph-name="A.salt" horiz-adv-x="1724" 
d="M1694 605c0 -2 -59 -475 -59 -478c0 -93 23 -153 46 -190c-25 -24 -53 -37 -84 -37c-73 0 -107 72 -91 198c4 29 10 62 17 97c-99 -26 -243 -21 -362 0c-58 -108 -109 -226 -143 -347c-9 -33 -11 -83 -11 -119c-88 8 -129 24 -129 88c0 69 61 210 171 400
c-250 64 -408 193 -586 193c-173 0 -313 -119 -313 -278c0 -111 76 -204 177 -204c118 0 196 120 213 213c70 -6 110 -46 110 -103c0 -111 -140 -209 -293 -209c-178 0 -304 125 -304 291c0 281 230 406 437 406c228 0 382 -154 611 -226c100 144 353 437 518 464
c57 -10 75 -77 75 -159zM1534 252c31 144 72 308 72 387c0 29 -5 56 -22 55c-82 -33 -246 -202 -383 -431c118 -30 232 -29 333 -11z" />
    <glyph glyph-name="Aacute.salt" horiz-adv-x="1724" 
d="M1726 1048c28 0 49 -9 49 -17c0 -47 -122 -188 -192 -188c-9 0 -19 4 -31 14c81 86 103 148 115 177c17 9 38 14 59 14zM1619 764c57 -10 75 -77 75 -159c0 -2 -59 -475 -59 -478c0 -93 23 -153 46 -190c-25 -24 -53 -37 -84 -37c-73 0 -107 72 -91 198c4 29 10 62 17 97
c-99 -26 -243 -21 -362 0c-58 -108 -109 -226 -143 -347c-9 -33 -11 -83 -11 -119c-88 8 -129 24 -129 88c0 69 61 210 171 400c-250 64 -408 193 -586 193c-173 0 -313 -119 -313 -278c0 -111 76 -204 177 -204c118 0 196 120 213 213c70 -6 110 -46 110 -103
c0 -111 -140 -209 -293 -209c-178 0 -304 125 -304 291c0 281 230 406 437 406c228 0 382 -154 611 -226c100 144 353 437 518 464zM1534 252c31 144 72 308 72 387c0 29 -5 56 -22 55c-82 -33 -246 -202 -383 -431c118 -30 232 -29 333 -11z" />
    <glyph glyph-name="Abreve.salt" horiz-adv-x="1724" 
d="M1761 1034c31 0 42 -8 42 -29c0 -77 -91 -152 -187 -152c-77 0 -137 61 -137 132c0 36 10 49 52 49c17 0 31 -4 41 -10c-7 -76 13 -122 57 -122c67 0 82 77 88 122c11 7 26 10 44 10zM1619 764c57 -10 75 -77 75 -159c0 -2 -59 -475 -59 -478c0 -93 23 -153 46 -190
c-25 -24 -53 -37 -84 -37c-73 0 -107 72 -91 198c4 29 10 62 17 97c-99 -26 -243 -21 -362 0c-58 -108 -109 -226 -143 -347c-9 -33 -11 -83 -11 -119c-88 8 -129 24 -129 88c0 69 61 210 171 400c-250 64 -408 193 -586 193c-173 0 -313 -119 -313 -278
c0 -111 76 -204 177 -204c118 0 196 120 213 213c70 -6 110 -46 110 -103c0 -111 -140 -209 -293 -209c-178 0 -304 125 -304 291c0 281 230 406 437 406c228 0 382 -154 611 -226c100 144 353 437 518 464zM1534 252c31 144 72 308 72 387c0 29 -5 56 -22 55
c-82 -33 -246 -202 -383 -431c118 -30 232 -29 333 -11z" />
    <glyph glyph-name="Acircumflex.salt" horiz-adv-x="1724" 
d="M1642 1043c33 0 71 -38 167 -170c-15 -22 -27 -31 -42 -31c-36 0 -91 60 -132 140c-57 -79 -128 -140 -166 -140c-15 0 -25 9 -35 31c129 131 177 170 208 170zM1619 764c57 -10 75 -77 75 -159c0 -2 -59 -475 -59 -478c0 -93 23 -153 46 -190c-25 -24 -53 -37 -84 -37
c-73 0 -107 72 -91 198c4 29 10 62 17 97c-99 -26 -243 -21 -362 0c-58 -108 -109 -226 -143 -347c-9 -33 -11 -83 -11 -119c-88 8 -129 24 -129 88c0 69 61 210 171 400c-250 64 -408 193 -586 193c-173 0 -313 -119 -313 -278c0 -111 76 -204 177 -204
c118 0 196 120 213 213c70 -6 110 -46 110 -103c0 -111 -140 -209 -293 -209c-178 0 -304 125 -304 291c0 281 230 406 437 406c228 0 382 -154 611 -226c100 144 353 437 518 464zM1534 252c31 144 72 308 72 387c0 29 -5 56 -22 55c-82 -33 -246 -202 -383 -431
c118 -30 232 -29 333 -11z" />
    <glyph glyph-name="Adieresis.salt" horiz-adv-x="1724" 
d="M1515 863c-32 0 -52 18 -52 48c0 41 33 69 76 69c34 0 55 -20 55 -50c0 -39 -33 -67 -79 -67zM1735 980c34 0 55 -20 55 -50c0 -39 -33 -67 -79 -67c-32 0 -52 18 -52 48c0 41 33 69 76 69zM1619 764c57 -10 75 -77 75 -159c0 -2 -59 -475 -59 -478
c0 -93 23 -153 46 -190c-25 -24 -53 -37 -84 -37c-73 0 -107 72 -91 198c4 29 10 62 17 97c-99 -26 -243 -21 -362 0c-58 -108 -109 -226 -143 -347c-9 -33 -11 -83 -11 -119c-88 8 -129 24 -129 88c0 69 61 210 171 400c-250 64 -408 193 -586 193
c-173 0 -313 -119 -313 -278c0 -111 76 -204 177 -204c118 0 196 120 213 213c70 -6 110 -46 110 -103c0 -111 -140 -209 -293 -209c-178 0 -304 125 -304 291c0 281 230 406 437 406c228 0 382 -154 611 -226c100 144 353 437 518 464zM1534 252c31 144 72 308 72 387
c0 29 -5 56 -22 55c-82 -33 -246 -202 -383 -431c118 -30 232 -29 333 -11z" />
    <glyph glyph-name="Agrave.salt" horiz-adv-x="1724" 
d="M1678 843c-66 0 -146 128 -146 183c0 13 24 22 53 22c21 0 41 -5 55 -14c5 -29 12 -91 72 -177c-14 -10 -25 -14 -34 -14zM1619 764c57 -10 75 -77 75 -159c0 -2 -59 -475 -59 -478c0 -93 23 -153 46 -190c-25 -24 -53 -37 -84 -37c-73 0 -107 72 -91 198
c4 29 10 62 17 97c-99 -26 -243 -21 -362 0c-58 -108 -109 -226 -143 -347c-9 -33 -11 -83 -11 -119c-88 8 -129 24 -129 88c0 69 61 210 171 400c-250 64 -408 193 -586 193c-173 0 -313 -119 -313 -278c0 -111 76 -204 177 -204c118 0 196 120 213 213
c70 -6 110 -46 110 -103c0 -111 -140 -209 -293 -209c-178 0 -304 125 -304 291c0 281 230 406 437 406c228 0 382 -154 611 -226c100 144 353 437 518 464zM1534 252c31 144 72 308 72 387c0 29 -5 56 -22 55c-82 -33 -246 -202 -383 -431c118 -30 232 -29 333 -11z" />
    <glyph glyph-name="Amacron.salt" horiz-adv-x="1724" 
d="M1753 909c42 0 57 -6 57 -23c0 -12 -7 -29 -16 -42c-27 3 -49 5 -76 5c-24 0 -51 0 -87 -2c-41 -2 -73 -3 -100 -3c-72 0 -95 9 -95 37c0 10 3 18 7 26c49 -3 149 -2 193 -2c43 0 84 4 117 4zM1619 764c57 -10 75 -77 75 -159c0 -2 -59 -475 -59 -478
c0 -93 23 -153 46 -190c-25 -24 -53 -37 -84 -37c-73 0 -107 72 -91 198c4 29 10 62 17 97c-99 -26 -243 -21 -362 0c-58 -108 -109 -226 -143 -347c-9 -33 -11 -83 -11 -119c-88 8 -129 24 -129 88c0 69 61 210 171 400c-250 64 -408 193 -586 193
c-173 0 -313 -119 -313 -278c0 -111 76 -204 177 -204c118 0 196 120 213 213c70 -6 110 -46 110 -103c0 -111 -140 -209 -293 -209c-178 0 -304 125 -304 291c0 281 230 406 437 406c228 0 382 -154 611 -226c100 144 353 437 518 464zM1534 252c31 144 72 308 72 387
c0 29 -5 56 -22 55c-82 -33 -246 -202 -383 -431c118 -30 232 -29 333 -11z" />
    <glyph glyph-name="Aogonek.salt" horiz-adv-x="1724" 
d="M1626 -96c-44 -41 -63 -70 -63 -98c0 -26 14 -43 38 -43c17 0 37 7 58 21c8 -4 11 -10 11 -18c0 -27 -46 -53 -91 -53c-59 0 -98 33 -98 80c0 56 50 92 88 111c-54 17 -77 86 -63 194c4 29 10 62 17 97c-99 -26 -243 -21 -362 0c-58 -108 -109 -226 -143 -347
c-9 -33 -11 -83 -11 -119c-88 8 -129 24 -129 88c0 69 61 210 171 400c-250 64 -408 193 -586 193c-173 0 -313 -119 -313 -278c0 -111 76 -204 177 -204c118 0 196 120 213 213c70 -6 110 -46 110 -103c0 -111 -140 -209 -293 -209c-178 0 -304 125 -304 291
c0 281 230 406 437 406c228 0 382 -154 611 -226c100 144 353 437 518 464c57 -10 75 -77 75 -159c0 -2 -59 -475 -59 -478c0 -93 23 -153 46 -190c-17 -16 -35 -27 -55 -33zM1201 263c118 -30 232 -29 333 -11c31 144 72 308 72 387c0 29 -5 56 -22 55
c-82 -33 -246 -202 -383 -431z" />
    <glyph glyph-name="Aring.salt" horiz-adv-x="1724" 
d="M1639 1035c54 0 88 -32 88 -81c0 -59 -48 -101 -111 -101c-53 0 -88 32 -88 81c0 59 49 101 111 101zM1619 882c31 0 51 30 51 75c0 31 -12 49 -34 49c-31 0 -52 -29 -52 -74c0 -32 12 -50 35 -50zM1619 764c57 -10 75 -77 75 -159c0 -2 -59 -475 -59 -478
c0 -93 23 -153 46 -190c-25 -24 -53 -37 -84 -37c-73 0 -107 72 -91 198c4 29 10 62 17 97c-99 -26 -243 -21 -362 0c-58 -108 -109 -226 -143 -347c-9 -33 -11 -83 -11 -119c-88 8 -129 24 -129 88c0 69 61 210 171 400c-250 64 -408 193 -586 193
c-173 0 -313 -119 -313 -278c0 -111 76 -204 177 -204c118 0 196 120 213 213c70 -6 110 -46 110 -103c0 -111 -140 -209 -293 -209c-178 0 -304 125 -304 291c0 281 230 406 437 406c228 0 382 -154 611 -226c100 144 353 437 518 464zM1534 252c31 144 72 308 72 387
c0 29 -5 56 -22 55c-82 -33 -246 -202 -383 -431c118 -30 232 -29 333 -11z" />
    <glyph glyph-name="Atilde.salt" horiz-adv-x="1724" 
d="M1771 979c28 -1 43 -10 43 -24c0 -40 -63 -92 -114 -92c-61 0 -110 58 -149 58c-22 0 -50 -21 -69 -52c-25 1 -39 12 -39 29c0 40 61 87 112 87c63 0 109 -58 148 -58c22 0 42 16 68 52zM1619 764c57 -10 75 -77 75 -159c0 -2 -59 -475 -59 -478c0 -93 23 -153 46 -190
c-25 -24 -53 -37 -84 -37c-73 0 -107 72 -91 198c4 29 10 62 17 97c-99 -26 -243 -21 -362 0c-58 -108 -109 -226 -143 -347c-9 -33 -11 -83 -11 -119c-88 8 -129 24 -129 88c0 69 61 210 171 400c-250 64 -408 193 -586 193c-173 0 -313 -119 -313 -278
c0 -111 76 -204 177 -204c118 0 196 120 213 213c70 -6 110 -46 110 -103c0 -111 -140 -209 -293 -209c-178 0 -304 125 -304 291c0 281 230 406 437 406c228 0 382 -154 611 -226c100 144 353 437 518 464zM1534 252c31 144 72 308 72 387c0 29 -5 56 -22 55
c-82 -33 -246 -202 -383 -431c118 -30 232 -29 333 -11z" />
    <glyph glyph-name="B.salt" horiz-adv-x="1245" 
d="M1298 579c0 -140 -210 -252 -320 -274c135 -3 223 -89 223 -205c0 -134 -123 -230 -288 -230c-94 0 -162 37 -164 86l3 29c23 -10 65 -33 143 -33c119 0 209 82 209 193c0 90 -72 124 -153 124c-34 0 -71 -6 -103 -16c-31 0 -50 16 -50 33c0 19 25 41 84 41
c13 0 26 -1 42 -4c85 39 228 134 228 249c0 91 -74 139 -206 139c-36 0 -77 -3 -121 -10c8 -11 15 -24 15 -36c-114 -183 -185 -466 -185 -692c0 -78 8 -162 24 -205c-20 -7 -54 -12 -80 -12c-77 0 -96 69 -96 140c0 216 108 514 181 678c16 36 37 80 60 111
c-227 -55 -488 -199 -488 -463c0 -100 63 -188 153 -204c-16 -62 -81 -108 -148 -108c-123 0 -182 133 -182 234c0 398 489 622 886 622c204 0 333 -75 333 -187z" />
    <glyph glyph-name="C.salt" horiz-adv-x="909" 
d="M1748 787c63 -24 96 -59 96 -100c0 -103 -104 -164 -284 -164c-166 0 -363 49 -443 65c-72 14 -139 30 -198 33c1 -7 2 -14 2 -21c0 -140 -115 -191 -201 -191c-78 0 -129 38 -129 96c0 82 79 138 210 156c-24 18 -60 28 -105 28c-273 0 -462 -253 -462 -473
c0 -171 105 -294 267 -294c187 0 301 128 332 170c24 0 31 -20 31 -37c0 -83 -221 -197 -381 -197c-234 0 -395 151 -395 357c0 246 224 531 584 531c100 0 182 -31 222 -78h7c94 0 390 -40 611 -40c134 0 202 44 236 159zM710 473c66 0 127 67 127 121c0 9 -1 18 -4 26
c-39 -2 -72 -7 -97 -15c-53 -17 -82 -55 -82 -85c0 -26 18 -47 56 -47z" />
    <glyph glyph-name="Cacute.salt" horiz-adv-x="909" 
d="M805 1031c0 -47 -122 -188 -192 -188c-9 0 -19 4 -31 14c81 86 103 148 115 177c17 9 38 14 59 14c28 0 49 -9 49 -17zM1748 787c63 -24 96 -59 96 -100c0 -103 -104 -164 -284 -164c-166 0 -363 49 -443 65c-72 14 -139 30 -198 33c1 -7 2 -14 2 -21
c0 -140 -115 -191 -201 -191c-78 0 -129 38 -129 96c0 82 79 138 210 156c-24 18 -60 28 -105 28c-273 0 -462 -253 -462 -473c0 -171 105 -294 267 -294c187 0 301 128 332 170c24 0 31 -20 31 -37c0 -83 -221 -197 -381 -197c-234 0 -395 151 -395 357
c0 246 224 531 584 531c100 0 182 -31 222 -78h7c94 0 390 -40 611 -40c134 0 202 44 236 159zM710 473c66 0 127 67 127 121c0 9 -1 18 -4 26c-39 -2 -72 -7 -97 -15c-53 -17 -82 -55 -82 -85c0 -26 18 -47 56 -47z" />
    <glyph glyph-name="Ccaron.salt" horiz-adv-x="909" 
d="M644 844c-32 0 -70 39 -167 170c15 22 28 31 43 31c49 0 118 -90 139 -141c70 91 125 141 159 141c14 0 25 -9 35 -31c-129 -132 -177 -170 -209 -170zM1748 787c63 -24 96 -59 96 -100c0 -103 -104 -164 -284 -164c-166 0 -363 49 -443 65c-72 14 -139 30 -198 33
c1 -7 2 -14 2 -21c0 -140 -115 -191 -201 -191c-78 0 -129 38 -129 96c0 82 79 138 210 156c-24 18 -60 28 -105 28c-273 0 -462 -253 -462 -473c0 -171 105 -294 267 -294c187 0 301 128 332 170c24 0 31 -20 31 -37c0 -83 -221 -197 -381 -197c-234 0 -395 151 -395 357
c0 246 224 531 584 531c100 0 182 -31 222 -78h7c94 0 390 -40 611 -40c134 0 202 44 236 159zM710 473c66 0 127 67 127 121c0 9 -1 18 -4 26c-39 -2 -72 -7 -97 -15c-53 -17 -82 -55 -82 -85c0 -26 18 -47 56 -47z" />
    <glyph glyph-name="Ccedilla.salt" horiz-adv-x="909" 
d="M1748 787c63 -24 96 -59 96 -100c0 -103 -104 -164 -284 -164c-166 0 -363 49 -443 65c-72 14 -139 30 -198 33c1 -7 2 -14 2 -21c0 -140 -115 -191 -201 -191c-78 0 -129 38 -129 96c0 82 79 138 210 156c-24 18 -60 28 -105 28c-273 0 -462 -253 -462 -473
c0 -171 105 -294 267 -294c187 0 301 128 332 170c24 0 31 -20 31 -37c0 -79 -202 -187 -359 -196l-31 -52c52 -6 82 -33 82 -74c0 -53 -57 -94 -127 -94c-38 0 -74 17 -74 41c0 11 9 20 21 23c14 -13 26 -18 42 -18c31 0 58 26 58 59c0 29 -24 37 -61 44l2 14l34 55l17 1
c-226 7 -380 156 -380 357c0 246 224 531 584 531c100 0 182 -31 222 -78h7c94 0 390 -40 611 -40c134 0 202 44 236 159zM710 473c66 0 127 67 127 121c0 9 -1 18 -4 26c-39 -2 -72 -7 -97 -15c-53 -17 -82 -55 -82 -85c0 -26 18 -47 56 -47z" />
    <glyph glyph-name="Cdotaccent.salt" horiz-adv-x="909" 
d="M650 865c-31 0 -51 18 -51 44c0 36 29 61 68 61c31 0 50 -18 50 -44c0 -34 -31 -61 -67 -61zM1748 787c63 -24 96 -59 96 -100c0 -103 -104 -164 -284 -164c-166 0 -363 49 -443 65c-72 14 -139 30 -198 33c1 -7 2 -14 2 -21c0 -140 -115 -191 -201 -191
c-78 0 -129 38 -129 96c0 82 79 138 210 156c-24 18 -60 28 -105 28c-273 0 -462 -253 -462 -473c0 -171 105 -294 267 -294c187 0 301 128 332 170c24 0 31 -20 31 -37c0 -83 -221 -197 -381 -197c-234 0 -395 151 -395 357c0 246 224 531 584 531c100 0 182 -31 222 -78h7
c94 0 390 -40 611 -40c134 0 202 44 236 159zM710 473c66 0 127 67 127 121c0 9 -1 18 -4 26c-39 -2 -72 -7 -97 -15c-53 -17 -82 -55 -82 -85c0 -26 18 -47 56 -47z" />
    <glyph glyph-name="D.salt" horiz-adv-x="1078" 
d="M628 724c299 -23 464 -155 441 -368c-42 -338 -476 -487 -680 -487s-330 90 -330 228c0 188 171 310 346 331c35 92 76 180 113 246c-44 -5 -94 -19 -134 -24c-60 -7 -80 11 -67 65c75 9 144 13 209 13h23c16 26 30 46 40 56c43 -15 53 -27 39 -60zM362 -71
c313 0 579 219 579 479c0 154 -136 260 -338 269c-34 -68 -68 -153 -98 -248c119 -11 213 -64 213 -122c0 -46 -38 -79 -60 -98c-57 51 -115 89 -184 105c-24 -100 -41 -210 -46 -325c-56 -8 -98 38 -98 108c0 67 15 146 39 225c-137 -11 -231 -97 -231 -218
c0 -126 127 -175 224 -175z" />
    <glyph glyph-name="Eth.salt" horiz-adv-x="1078" 
d="M539 724c302 -23 482 -155 486 -368c0 -338 -416 -487 -620 -487c-218 0 -371 123 -371 274c0 98 55 133 115 133c57 0 83 -40 64 -100c-35 21 -101 9 -101 -52c0 -133 156 -195 259 -195c293 0 521 198 521 453c0 169 -155 286 -372 295c-30 -80 -58 -181 -76 -297h58
c105 0 213 8 213 -37c0 -13 -9 -32 -21 -45c-62 9 -105 9 -203 9h-56c-11 -98 -15 -206 -6 -318c-57 -8 -107 41 -112 116c-5 64 1 135 13 206c-64 5 -81 17 -81 39c0 9 6 21 13 32c28 -1 51 -1 81 -2c24 111 60 218 93 295c-43 -5 -92 -19 -132 -25c-59 -7 -81 11 -74 65
c73 9 142 13 207 13h23c13 26 24 46 33 56c46 -16 57 -27 46 -60z" />
    <glyph glyph-name="Dcaron.salt" horiz-adv-x="1078" 
d="M780 790c-32 0 -70 39 -167 170c15 22 28 31 43 31c49 0 118 -90 139 -141c70 91 125 141 159 141c14 0 25 -9 35 -31c-129 -132 -177 -170 -209 -170zM628 724c299 -23 464 -155 441 -368c-42 -338 -476 -487 -680 -487s-330 90 -330 228c0 188 171 310 346 331
c35 92 76 180 113 246c-44 -5 -94 -19 -134 -24c-60 -7 -80 11 -67 65c75 9 144 13 209 13h23c16 26 30 46 40 56c43 -15 53 -27 39 -60zM362 -71c313 0 579 219 579 479c0 154 -136 260 -338 269c-34 -68 -68 -153 -98 -248c119 -11 213 -64 213 -122
c0 -46 -38 -79 -60 -98c-57 51 -115 89 -184 105c-24 -100 -41 -210 -46 -325c-56 -8 -98 38 -98 108c0 67 15 146 39 225c-137 -11 -231 -97 -231 -218c0 -126 127 -175 224 -175z" />
    <glyph glyph-name="Dcroat.salt" horiz-adv-x="1078" 
d="M539 724c302 -23 482 -155 486 -368c0 -338 -416 -487 -620 -487c-218 0 -371 123 -371 274c0 98 55 133 115 133c57 0 83 -40 64 -100c-35 21 -101 9 -101 -52c0 -133 156 -195 259 -195c293 0 521 198 521 453c0 169 -155 286 -372 295c-30 -80 -58 -181 -76 -297h58
c105 0 213 8 213 -37c0 -13 -9 -32 -21 -45c-62 9 -105 9 -203 9h-56c-11 -98 -15 -206 -6 -318c-57 -8 -107 41 -112 116c-5 64 1 135 13 206c-64 5 -81 17 -81 39c0 9 6 21 13 32c28 -1 51 -1 81 -2c24 111 60 218 93 295c-43 -5 -92 -19 -132 -25c-59 -7 -81 11 -74 65
c73 9 142 13 207 13h23c13 26 24 46 33 56c46 -16 57 -27 46 -60z" />
    <glyph glyph-name="E.salt" horiz-adv-x="760" 
d="M1634 821c64 -24 96 -59 96 -100c0 -103 -104 -164 -284 -164c-166 0 -363 49 -443 65c-73 14 -141 30 -200 33c5 -13 7 -26 7 -40c0 -93 -104 -172 -204 -172c-78 0 -128 38 -128 96c0 79 73 134 195 154c-29 18 -69 29 -121 29c-188 0 -317 -91 -317 -225
c0 -63 35 -134 123 -203c37 12 67 16 117 16c62 0 115 -11 115 -46c0 -37 -40 -51 -92 -51c-63 0 -126 12 -157 26c-101 -19 -167 -89 -167 -162c0 -88 96 -141 220 -141c116 0 225 54 303 117c14 0 26 -26 16 -42c-9 -14 -138 -148 -347 -148c-182 0 -302 84 -302 188
c0 94 86 176 215 219c-101 42 -192 118 -192 224c0 157 210 287 456 287c107 0 188 -32 231 -79h13c94 0 390 -40 611 -40c134 0 202 44 236 159zM596 507c66 0 129 36 129 107c0 14 -4 27 -11 40c-91 -6 -174 -29 -174 -100c0 -26 19 -47 56 -47z" />
    <glyph glyph-name="Eacute.salt" horiz-adv-x="760" 
d="M707 1039c0 -47 -122 -188 -192 -188c-9 0 -19 4 -31 14c81 86 103 148 115 177c17 9 38 14 59 14c28 0 49 -9 49 -17zM1634 821c64 -24 96 -59 96 -100c0 -103 -104 -164 -284 -164c-166 0 -363 49 -443 65c-73 14 -141 30 -200 33c5 -13 7 -26 7 -40
c0 -93 -104 -172 -204 -172c-78 0 -128 38 -128 96c0 79 73 134 195 154c-29 18 -69 29 -121 29c-188 0 -317 -91 -317 -225c0 -63 35 -134 123 -203c37 12 67 16 117 16c62 0 115 -11 115 -46c0 -37 -40 -51 -92 -51c-63 0 -126 12 -157 26c-101 -19 -167 -89 -167 -162
c0 -88 96 -141 220 -141c116 0 225 54 303 117c14 0 26 -26 16 -42c-9 -14 -138 -148 -347 -148c-182 0 -302 84 -302 188c0 94 86 176 215 219c-101 42 -192 118 -192 224c0 157 210 287 456 287c107 0 188 -32 231 -79h13c94 0 390 -40 611 -40c134 0 202 44 236 159z
M596 507c66 0 129 36 129 107c0 14 -4 27 -11 40c-91 -6 -174 -29 -174 -100c0 -26 19 -47 56 -47z" />
    <glyph glyph-name="Ecaron.salt" horiz-adv-x="760" 
d="M546 852c-32 0 -70 39 -167 170c15 22 28 31 43 31c49 0 118 -90 139 -141c70 91 125 141 159 141c14 0 25 -9 35 -31c-129 -132 -177 -170 -209 -170zM1634 821c64 -24 96 -59 96 -100c0 -103 -104 -164 -284 -164c-166 0 -363 49 -443 65c-73 14 -141 30 -200 33
c5 -13 7 -26 7 -40c0 -93 -104 -172 -204 -172c-78 0 -128 38 -128 96c0 79 73 134 195 154c-29 18 -69 29 -121 29c-188 0 -317 -91 -317 -225c0 -63 35 -134 123 -203c37 12 67 16 117 16c62 0 115 -11 115 -46c0 -37 -40 -51 -92 -51c-63 0 -126 12 -157 26
c-101 -19 -167 -89 -167 -162c0 -88 96 -141 220 -141c116 0 225 54 303 117c14 0 26 -26 16 -42c-9 -14 -138 -148 -347 -148c-182 0 -302 84 -302 188c0 94 86 176 215 219c-101 42 -192 118 -192 224c0 157 210 287 456 287c107 0 188 -32 231 -79h13
c94 0 390 -40 611 -40c134 0 202 44 236 159zM596 507c66 0 129 36 129 107c0 14 -4 27 -11 40c-91 -6 -174 -29 -174 -100c0 -26 19 -47 56 -47z" />
    <glyph glyph-name="Ecircumflex.salt" horiz-adv-x="760" 
d="M401 850c-15 0 -25 9 -35 31c129 131 177 170 208 170c33 0 71 -38 167 -170c-15 -22 -27 -31 -42 -31c-36 0 -91 60 -132 140c-57 -79 -128 -140 -166 -140zM1634 821c64 -24 96 -59 96 -100c0 -103 -104 -164 -284 -164c-166 0 -363 49 -443 65c-73 14 -141 30 -200 33
c5 -13 7 -26 7 -40c0 -93 -104 -172 -204 -172c-78 0 -128 38 -128 96c0 79 73 134 195 154c-29 18 -69 29 -121 29c-188 0 -317 -91 -317 -225c0 -63 35 -134 123 -203c37 12 67 16 117 16c62 0 115 -11 115 -46c0 -37 -40 -51 -92 -51c-63 0 -126 12 -157 26
c-101 -19 -167 -89 -167 -162c0 -88 96 -141 220 -141c116 0 225 54 303 117c14 0 26 -26 16 -42c-9 -14 -138 -148 -347 -148c-182 0 -302 84 -302 188c0 94 86 176 215 219c-101 42 -192 118 -192 224c0 157 210 287 456 287c107 0 188 -32 231 -79h13
c94 0 390 -40 611 -40c134 0 202 44 236 159zM596 507c66 0 129 36 129 107c0 14 -4 27 -11 40c-91 -6 -174 -29 -174 -100c0 -26 19 -47 56 -47z" />
    <glyph glyph-name="Edieresis.salt" horiz-adv-x="760" 
d="M447 871c-32 0 -52 18 -52 48c0 41 33 69 76 69c34 0 55 -20 55 -50c0 -39 -33 -67 -79 -67zM643 871c-32 0 -52 18 -52 48c0 41 33 69 76 69c34 0 55 -20 55 -50c0 -39 -33 -67 -79 -67zM1634 821c64 -24 96 -59 96 -100c0 -103 -104 -164 -284 -164
c-166 0 -363 49 -443 65c-73 14 -141 30 -200 33c5 -13 7 -26 7 -40c0 -93 -104 -172 -204 -172c-78 0 -128 38 -128 96c0 79 73 134 195 154c-29 18 -69 29 -121 29c-188 0 -317 -91 -317 -225c0 -63 35 -134 123 -203c37 12 67 16 117 16c62 0 115 -11 115 -46
c0 -37 -40 -51 -92 -51c-63 0 -126 12 -157 26c-101 -19 -167 -89 -167 -162c0 -88 96 -141 220 -141c116 0 225 54 303 117c14 0 26 -26 16 -42c-9 -14 -138 -148 -347 -148c-182 0 -302 84 -302 188c0 94 86 176 215 219c-101 42 -192 118 -192 224c0 157 210 287 456 287
c107 0 188 -32 231 -79h13c94 0 390 -40 611 -40c134 0 202 44 236 159zM596 507c66 0 129 36 129 107c0 14 -4 27 -11 40c-91 -6 -174 -29 -174 -100c0 -26 19 -47 56 -47z" />
    <glyph glyph-name="Edotaccent.salt" horiz-adv-x="760" 
d="M552 873c-31 0 -51 18 -51 44c0 36 29 61 68 61c31 0 50 -18 50 -44c0 -34 -31 -61 -67 -61zM1634 821c64 -24 96 -59 96 -100c0 -103 -104 -164 -284 -164c-166 0 -363 49 -443 65c-73 14 -141 30 -200 33c5 -13 7 -26 7 -40c0 -93 -104 -172 -204 -172
c-78 0 -128 38 -128 96c0 79 73 134 195 154c-29 18 -69 29 -121 29c-188 0 -317 -91 -317 -225c0 -63 35 -134 123 -203c37 12 67 16 117 16c62 0 115 -11 115 -46c0 -37 -40 -51 -92 -51c-63 0 -126 12 -157 26c-101 -19 -167 -89 -167 -162c0 -88 96 -141 220 -141
c116 0 225 54 303 117c14 0 26 -26 16 -42c-9 -14 -138 -148 -347 -148c-182 0 -302 84 -302 188c0 94 86 176 215 219c-101 42 -192 118 -192 224c0 157 210 287 456 287c107 0 188 -32 231 -79h13c94 0 390 -40 611 -40c134 0 202 44 236 159zM596 507
c66 0 129 36 129 107c0 14 -4 27 -11 40c-91 -6 -174 -29 -174 -100c0 -26 19 -47 56 -47z" />
    <glyph glyph-name="Egrave.salt" horiz-adv-x="760" 
d="M610 851c-66 0 -146 128 -146 183c0 13 24 22 53 22c21 0 41 -5 55 -14c5 -29 12 -91 72 -177c-14 -10 -25 -14 -34 -14zM1634 821c64 -24 96 -59 96 -100c0 -103 -104 -164 -284 -164c-166 0 -363 49 -443 65c-73 14 -141 30 -200 33c5 -13 7 -26 7 -40
c0 -93 -104 -172 -204 -172c-78 0 -128 38 -128 96c0 79 73 134 195 154c-29 18 -69 29 -121 29c-188 0 -317 -91 -317 -225c0 -63 35 -134 123 -203c37 12 67 16 117 16c62 0 115 -11 115 -46c0 -37 -40 -51 -92 -51c-63 0 -126 12 -157 26c-101 -19 -167 -89 -167 -162
c0 -88 96 -141 220 -141c116 0 225 54 303 117c14 0 26 -26 16 -42c-9 -14 -138 -148 -347 -148c-182 0 -302 84 -302 188c0 94 86 176 215 219c-101 42 -192 118 -192 224c0 157 210 287 456 287c107 0 188 -32 231 -79h13c94 0 390 -40 611 -40c134 0 202 44 236 159z
M596 507c66 0 129 36 129 107c0 14 -4 27 -11 40c-91 -6 -174 -29 -174 -100c0 -26 19 -47 56 -47z" />
    <glyph glyph-name="Emacron.salt" horiz-adv-x="760" 
d="M463 852c-72 0 -95 9 -95 37c0 10 3 18 7 26c49 -3 149 -2 193 -2c43 0 84 4 117 4c42 0 57 -6 57 -23c0 -12 -7 -29 -16 -42c-27 3 -49 5 -76 5c-24 0 -51 0 -87 -2c-41 -2 -73 -3 -100 -3zM1634 821c64 -24 96 -59 96 -100c0 -103 -104 -164 -284 -164
c-166 0 -363 49 -443 65c-73 14 -141 30 -200 33c5 -13 7 -26 7 -40c0 -93 -104 -172 -204 -172c-78 0 -128 38 -128 96c0 79 73 134 195 154c-29 18 -69 29 -121 29c-188 0 -317 -91 -317 -225c0 -63 35 -134 123 -203c37 12 67 16 117 16c62 0 115 -11 115 -46
c0 -37 -40 -51 -92 -51c-63 0 -126 12 -157 26c-101 -19 -167 -89 -167 -162c0 -88 96 -141 220 -141c116 0 225 54 303 117c14 0 26 -26 16 -42c-9 -14 -138 -148 -347 -148c-182 0 -302 84 -302 188c0 94 86 176 215 219c-101 42 -192 118 -192 224c0 157 210 287 456 287
c107 0 188 -32 231 -79h13c94 0 390 -40 611 -40c134 0 202 44 236 159zM596 507c66 0 129 36 129 107c0 14 -4 27 -11 40c-91 -6 -174 -29 -174 -100c0 -26 19 -47 56 -47z" />
    <glyph glyph-name="Eogonek.salt" horiz-adv-x="760" 
d="M1634 821c64 -24 96 -59 96 -100c0 -103 -104 -164 -284 -164c-166 0 -363 49 -443 65c-73 14 -141 30 -200 33c5 -13 7 -26 7 -40c0 -93 -104 -172 -204 -172c-78 0 -128 38 -128 96c0 79 73 134 195 154c-29 18 -69 29 -121 29c-188 0 -317 -91 -317 -225
c0 -63 35 -134 123 -203c37 12 67 16 117 16c62 0 115 -11 115 -46c0 -37 -40 -51 -92 -51c-63 0 -126 12 -157 26c-101 -19 -167 -89 -167 -162c0 -88 96 -141 220 -141c116 0 225 54 303 117c14 0 26 -26 16 -42c-8 -12 -105 -114 -266 -141c-41 -39 -59 -67 -59 -94
c0 -26 14 -43 38 -43c17 0 37 7 58 21c8 -4 11 -10 11 -18c0 -27 -46 -53 -91 -53c-59 0 -98 33 -98 80s34 79 68 100h-8c-182 0 -302 84 -302 188c0 94 86 176 215 219c-101 42 -192 118 -192 224c0 157 210 287 456 287c107 0 188 -32 231 -79h13c94 0 390 -40 611 -40
c134 0 202 44 236 159zM596 507c66 0 129 36 129 107c0 14 -4 27 -11 40c-91 -6 -174 -29 -174 -100c0 -26 19 -47 56 -47z" />
    <glyph glyph-name="F.salt" horiz-adv-x="1688" 
d="M1923 883c20 -17 30 -47 30 -72c0 -85 -57 -104 -268 -113c-100 -4 -219 -11 -326 -30c19 -9 26 -32 26 -60c0 -63 -15 -136 -35 -213c17 5 35 9 54 13c68 14 123 22 169 22c58 0 87 -12 87 -32c0 -16 -10 -36 -40 -57c-50 18 -90 14 -141 8c-55 -7 -105 -18 -149 -32
c-30 -113 -61 -231 -61 -342c0 -45 5 -91 14 -120c-29 -6 -64 -10 -89 -8c-44 3 -64 30 -64 85c0 61 45 202 86 341c-50 -23 -86 -46 -105 -59c-6 35 11 79 42 99c17 10 47 27 87 44c24 86 42 165 42 217c0 32 -6 53 -9 69c6 4 11 8 17 11c-54 -14 -103 -32 -139 -55
c27 -24 43 -56 43 -95c0 -70 -57 -110 -108 -110c-40 0 -76 28 -76 77c0 41 14 76 38 107c-31 6 -64 9 -93 9c-249 0 -425 -251 -679 -251c-113 0 -191 63 -191 147c0 39 14 66 32 95c38 -38 133 -67 223 -67c165 0 422 144 618 144c53 0 104 -9 144 -26
c80 57 202 91 321 110c163 26 264 32 360 62c55 17 95 47 140 82zM1106 441c23 0 50 19 50 54c0 29 -21 50 -51 65c-19 -24 -30 -51 -30 -84c0 -23 15 -35 31 -35z" />
    <glyph glyph-name="G.salt" horiz-adv-x="1503" 
d="M1219 317c160 0 250 -2 250 -99c0 -186 -251 -342 -485 -342c-220 0 -377 147 -377 363c0 35 4 70 11 103c-169 6 -503 45 -503 276c0 152 126 259 306 259c186 0 241 -123 241 -192c0 -63 -50 -102 -123 -102c-12 0 -28 1 -42 3c12 27 16 57 16 82
c0 84 -40 141 -115 141c-90 0 -159 -73 -159 -171c0 -163 211 -223 396 -239c75 205 289 350 539 350c155 0 227 -59 227 -131c0 -150 -298 -260 -642 -275c-9 -38 -14 -76 -14 -112c0 -168 101 -288 266 -288c181 0 371 134 371 247c0 49 -42 62 -136 49
c-57 -8 -106 -22 -150 -22c-46 0 -68 16 -68 43c0 18 11 41 35 69c57 -18 110 -12 156 -12zM1165 695c-195 0 -332 -142 -390 -299c258 7 544 90 544 208c0 49 -51 91 -154 91z" />
    <glyph glyph-name="Gbreve.salt" horiz-adv-x="1503" 
d="M1180 853c-77 0 -137 61 -137 132c0 36 10 49 52 49c17 0 31 -4 41 -10c-7 -76 13 -122 57 -122c67 0 82 77 88 122c11 7 26 10 44 10c31 0 42 -8 42 -29c0 -77 -91 -152 -187 -152zM1219 317c160 0 250 -2 250 -99c0 -186 -251 -342 -485 -342c-220 0 -377 147 -377 363
c0 35 4 70 11 103c-169 6 -503 45 -503 276c0 152 126 259 306 259c186 0 241 -123 241 -192c0 -63 -50 -102 -123 -102c-12 0 -28 1 -42 3c12 27 16 57 16 82c0 84 -40 141 -115 141c-90 0 -159 -73 -159 -171c0 -163 211 -223 396 -239c75 205 289 350 539 350
c155 0 227 -59 227 -131c0 -150 -298 -260 -642 -275c-9 -38 -14 -76 -14 -112c0 -168 101 -288 266 -288c181 0 371 134 371 247c0 49 -42 62 -136 49c-57 -8 -106 -22 -150 -22c-46 0 -68 16 -68 43c0 18 11 41 35 69c57 -18 110 -12 156 -12zM1165 695
c-195 0 -332 -142 -390 -299c258 7 544 90 544 208c0 49 -51 91 -154 91z" />
    <glyph glyph-name="Gcommaaccent.salt" horiz-adv-x="1503" 
d="M1219 317c160 0 250 -2 250 -99c0 -186 -251 -342 -485 -342c-220 0 -377 147 -377 363c0 35 4 70 11 103c-169 6 -503 45 -503 276c0 152 126 259 306 259c186 0 241 -123 241 -192c0 -63 -50 -102 -123 -102c-12 0 -28 1 -42 3c12 27 16 57 16 82
c0 84 -40 141 -115 141c-90 0 -159 -73 -159 -171c0 -163 211 -223 396 -239c75 205 289 350 539 350c155 0 227 -59 227 -131c0 -150 -298 -260 -642 -275c-9 -38 -14 -76 -14 -112c0 -168 101 -288 266 -288c181 0 371 134 371 247c0 49 -42 62 -136 49
c-57 -8 -106 -22 -150 -22c-46 0 -68 16 -68 43c0 18 11 41 35 69c57 -18 110 -12 156 -12zM1165 695c-195 0 -332 -142 -390 -299c258 7 544 90 544 208c0 49 -51 91 -154 91zM1060 -170c30 0 49 -25 49 -62c0 -56 -76 -145 -115 -145c-8 0 -15 6 -18 15c26 25 47 46 55 81
c-25 10 -38 28 -38 51c0 36 27 60 67 60z" />
    <glyph glyph-name="Gdotaccent.salt" horiz-adv-x="1503" 
d="M1184 865c-31 0 -51 18 -51 44c0 36 29 61 68 61c31 0 50 -18 50 -44c0 -34 -31 -61 -67 -61zM1219 317c160 0 250 -2 250 -99c0 -186 -251 -342 -485 -342c-220 0 -377 147 -377 363c0 35 4 70 11 103c-169 6 -503 45 -503 276c0 152 126 259 306 259
c186 0 241 -123 241 -192c0 -63 -50 -102 -123 -102c-12 0 -28 1 -42 3c12 27 16 57 16 82c0 84 -40 141 -115 141c-90 0 -159 -73 -159 -171c0 -163 211 -223 396 -239c75 205 289 350 539 350c155 0 227 -59 227 -131c0 -150 -298 -260 -642 -275c-9 -38 -14 -76 -14 -112
c0 -168 101 -288 266 -288c181 0 371 134 371 247c0 49 -42 62 -136 49c-57 -8 -106 -22 -150 -22c-46 0 -68 16 -68 43c0 18 11 41 35 69c57 -18 110 -12 156 -12zM1165 695c-195 0 -332 -142 -390 -299c258 7 544 90 544 208c0 49 -51 91 -154 91z" />
    <glyph glyph-name="H.salt" horiz-adv-x="1434" 
d="M1474 744c0 -159 -131 -445 -131 -692c0 -44 4 -96 13 -128c-34 -8 -73 -9 -91 -9c-114 0 -48 187 -12 315c5 19 11 38 16 58c-30 7 -96 21 -162 26c-82 6 -156 -1 -220 -14c-15 -60 -30 -115 -40 -154c-21 -84 -36 -163 -46 -242c-3 -23 -4 -47 -4 -66
c-64 6 -111 28 -111 99c0 76 42 180 85 329c-56 -21 -94 -43 -110 -54c-11 7 -17 18 -17 27c0 26 62 62 146 93c35 129 52 210 52 272c0 91 -32 112 -88 112c-191 0 -514 -241 -514 -470c0 -100 63 -188 153 -204c-16 -62 -72 -100 -147 -100c-123 0 -183 126 -183 227
c0 341 464 619 771 619c85 0 127 -21 127 -124c0 -61 -27 -181 -56 -295c74 19 151 32 212 32c69 0 138 -10 145 -20c11 -9 19 -20 24 -32c17 62 35 133 55 220c11 49 21 78 21 111c0 31 -7 66 -22 110c20 24 49 38 79 38c37 0 55 -26 55 -84z" />
    <glyph glyph-name="Hbar.salt" horiz-adv-x="1434" 
d="M1449 586c29 -8 43 -18 43 -30c0 -13 -13 -31 -30 -42c-9 2 -19 3 -30 5c-38 -144 -89 -313 -89 -467c0 -44 4 -96 13 -128c-34 -8 -73 -9 -91 -9c-114 0 -48 187 -12 315c5 19 11 38 16 58c-30 7 -96 21 -162 26c-82 6 -156 -1 -220 -14c-15 -60 -30 -115 -40 -154
c-21 -84 -36 -163 -46 -242c-3 -23 -4 -47 -4 -66c-64 6 -111 28 -111 99c0 76 42 180 85 329c-56 -21 -94 -43 -110 -54c-11 7 -17 18 -17 27c0 26 62 62 146 93c24 87 39 152 47 205c-66 1 -92 8 -92 29c0 6 7 17 17 28c29 -2 54 -1 80 0v10c0 91 -32 112 -88 112
c-191 0 -514 -241 -514 -470c0 -100 63 -188 153 -204c-16 -62 -72 -100 -147 -100c-123 0 -183 126 -183 227c0 341 464 619 771 619c85 0 127 -21 127 -124c0 -17 -2 -39 -6 -63c48 3 109 5 193 5c83 0 149 -2 200 -6c8 32 14 55 14 80c0 31 -7 66 -22 110
c20 24 49 38 79 38c37 0 55 -26 55 -84c0 -44 -10 -98 -25 -158zM1286 349c15 52 30 111 46 180c-78 6 -160 9 -214 9c-69 0 -126 -1 -174 -1c-10 -52 -24 -111 -39 -168c74 19 151 32 212 32c69 0 138 -10 145 -20c11 -9 19 -20 24 -32z" />
    <glyph glyph-name="I.salt" horiz-adv-x="1688" 
d="M1729 757c62 0 84 6 112 16c-1 -18 -5 -36 -15 -56c-19 -39 -64 -63 -119 -63c-94 0 -149 5 -223 9c-1 -9 -4 -21 -7 -34c-12 -49 -62 -258 -74 -342c-21 -143 -29 -261 -18 -350c31 -2 61 -2 91 -1c82 4 116 10 139 27c41 -27 45 -99 -81 -108c-84 -6 -215 8 -291 8
c-98 0 -153 -10 -214 -24c-37 39 -27 110 63 112c69 1 130 -2 184 -6c-4 14 -6 30 -7 51c-2 65 38 342 76 496c14 56 32 135 40 179c-33 3 -70 6 -104 6c-45 0 -82 -4 -112 -12c16 -23 25 -47 25 -73c0 -66 -42 -112 -103 -112c-48 0 -79 29 -79 72c0 44 21 82 58 114
c-54 26 -122 40 -165 40c-182 0 -358 -129 -544 -129c-132 0 -235 75 -235 167c0 38 12 69 55 117c41 -70 190 -121 286 -121c124 0 281 35 420 35c100 0 187 -27 243 -70c61 31 144 50 240 55c33 2 79 2 116 2c90 0 214 -5 243 -5zM1153 576c0 24 -15 46 -39 64
c-28 -20 -41 -48 -41 -84c0 -21 13 -37 33 -37c26 0 47 26 47 57z" />
    <glyph glyph-name="Iacute.salt" horiz-adv-x="1688" 
d="M1657 1031c0 -47 -122 -188 -192 -188c-9 0 -19 4 -31 14c81 86 103 148 115 177c17 9 38 14 59 14c28 0 49 -9 49 -17zM1729 757c62 0 84 6 112 16c-1 -18 -5 -36 -15 -56c-19 -39 -64 -63 -119 -63c-94 0 -149 5 -223 9c-1 -9 -4 -21 -7 -34c-12 -49 -62 -258 -74 -342
c-21 -143 -29 -261 -18 -350c31 -2 61 -2 91 -1c82 4 116 10 139 27c41 -27 45 -99 -81 -108c-84 -6 -215 8 -291 8c-98 0 -153 -10 -214 -24c-37 39 -27 110 63 112c69 1 130 -2 184 -6c-4 14 -6 30 -7 51c-2 65 38 342 76 496c14 56 32 135 40 179c-33 3 -70 6 -104 6
c-45 0 -82 -4 -112 -12c16 -23 25 -47 25 -73c0 -66 -42 -112 -103 -112c-48 0 -79 29 -79 72c0 44 21 82 58 114c-54 26 -122 40 -165 40c-182 0 -358 -129 -544 -129c-132 0 -235 75 -235 167c0 38 12 69 55 117c41 -70 190 -121 286 -121c124 0 281 35 420 35
c100 0 187 -27 243 -70c61 31 144 50 240 55c33 2 79 2 116 2c90 0 214 -5 243 -5zM1153 576c0 24 -15 46 -39 64c-28 -20 -41 -48 -41 -84c0 -21 13 -37 33 -37c26 0 47 26 47 57z" />
    <glyph glyph-name="Icircumflex.salt" horiz-adv-x="1688" 
d="M1351 842c-15 0 -25 9 -35 31c129 131 177 170 208 170c33 0 71 -38 167 -170c-15 -22 -27 -31 -42 -31c-36 0 -91 60 -132 140c-57 -79 -128 -140 -166 -140zM1729 757c62 0 84 6 112 16c-1 -18 -5 -36 -15 -56c-19 -39 -64 -63 -119 -63c-94 0 -149 5 -223 9
c-1 -9 -4 -21 -7 -34c-12 -49 -62 -258 -74 -342c-21 -143 -29 -261 -18 -350c31 -2 61 -2 91 -1c82 4 116 10 139 27c41 -27 45 -99 -81 -108c-84 -6 -215 8 -291 8c-98 0 -153 -10 -214 -24c-37 39 -27 110 63 112c69 1 130 -2 184 -6c-4 14 -6 30 -7 51
c-2 65 38 342 76 496c14 56 32 135 40 179c-33 3 -70 6 -104 6c-45 0 -82 -4 -112 -12c16 -23 25 -47 25 -73c0 -66 -42 -112 -103 -112c-48 0 -79 29 -79 72c0 44 21 82 58 114c-54 26 -122 40 -165 40c-182 0 -358 -129 -544 -129c-132 0 -235 75 -235 167
c0 38 12 69 55 117c41 -70 190 -121 286 -121c124 0 281 35 420 35c100 0 187 -27 243 -70c61 31 144 50 240 55c33 2 79 2 116 2c90 0 214 -5 243 -5zM1153 576c0 24 -15 46 -39 64c-28 -20 -41 -48 -41 -84c0 -21 13 -37 33 -37c26 0 47 26 47 57z" />
    <glyph glyph-name="Idieresis.salt" horiz-adv-x="1688" 
d="M1397 863c-32 0 -52 18 -52 48c0 41 33 69 76 69c34 0 55 -20 55 -50c0 -39 -33 -67 -79 -67zM1593 863c-32 0 -52 18 -52 48c0 41 33 69 76 69c34 0 55 -20 55 -50c0 -39 -33 -67 -79 -67zM1729 757c62 0 84 6 112 16c-1 -18 -5 -36 -15 -56c-19 -39 -64 -63 -119 -63
c-94 0 -149 5 -223 9c-1 -9 -4 -21 -7 -34c-12 -49 -62 -258 -74 -342c-21 -143 -29 -261 -18 -350c31 -2 61 -2 91 -1c82 4 116 10 139 27c41 -27 45 -99 -81 -108c-84 -6 -215 8 -291 8c-98 0 -153 -10 -214 -24c-37 39 -27 110 63 112c69 1 130 -2 184 -6
c-4 14 -6 30 -7 51c-2 65 38 342 76 496c14 56 32 135 40 179c-33 3 -70 6 -104 6c-45 0 -82 -4 -112 -12c16 -23 25 -47 25 -73c0 -66 -42 -112 -103 -112c-48 0 -79 29 -79 72c0 44 21 82 58 114c-54 26 -122 40 -165 40c-182 0 -358 -129 -544 -129
c-132 0 -235 75 -235 167c0 38 12 69 55 117c41 -70 190 -121 286 -121c124 0 281 35 420 35c100 0 187 -27 243 -70c61 31 144 50 240 55c33 2 79 2 116 2c90 0 214 -5 243 -5zM1153 576c0 24 -15 46 -39 64c-28 -20 -41 -48 -41 -84c0 -21 13 -37 33 -37c26 0 47 26 47 57
z" />
    <glyph glyph-name="Idotaccent.salt" horiz-adv-x="1688" 
d="M1502 865c-31 0 -51 18 -51 44c0 36 29 61 68 61c31 0 50 -18 50 -44c0 -34 -31 -61 -67 -61zM1729 757c62 0 84 6 112 16c-1 -18 -5 -36 -15 -56c-19 -39 -64 -63 -119 -63c-94 0 -149 5 -223 9c-1 -9 -4 -21 -7 -34c-12 -49 -62 -258 -74 -342
c-21 -143 -29 -261 -18 -350c31 -2 61 -2 91 -1c82 4 116 10 139 27c41 -27 45 -99 -81 -108c-84 -6 -215 8 -291 8c-98 0 -153 -10 -214 -24c-37 39 -27 110 63 112c69 1 130 -2 184 -6c-4 14 -6 30 -7 51c-2 65 38 342 76 496c14 56 32 135 40 179c-33 3 -70 6 -104 6
c-45 0 -82 -4 -112 -12c16 -23 25 -47 25 -73c0 -66 -42 -112 -103 -112c-48 0 -79 29 -79 72c0 44 21 82 58 114c-54 26 -122 40 -165 40c-182 0 -358 -129 -544 -129c-132 0 -235 75 -235 167c0 38 12 69 55 117c41 -70 190 -121 286 -121c124 0 281 35 420 35
c100 0 187 -27 243 -70c61 31 144 50 240 55c33 2 79 2 116 2c90 0 214 -5 243 -5zM1153 576c0 24 -15 46 -39 64c-28 -20 -41 -48 -41 -84c0 -21 13 -37 33 -37c26 0 47 26 47 57z" />
    <glyph glyph-name="Igrave.salt" horiz-adv-x="1688" 
d="M1560 843c-66 0 -146 128 -146 183c0 13 24 22 53 22c21 0 41 -5 55 -14c5 -29 12 -91 72 -177c-14 -10 -25 -14 -34 -14zM1729 757c62 0 84 6 112 16c-1 -18 -5 -36 -15 -56c-19 -39 -64 -63 -119 -63c-94 0 -149 5 -223 9c-1 -9 -4 -21 -7 -34
c-12 -49 -62 -258 -74 -342c-21 -143 -29 -261 -18 -350c31 -2 61 -2 91 -1c82 4 116 10 139 27c41 -27 45 -99 -81 -108c-84 -6 -215 8 -291 8c-98 0 -153 -10 -214 -24c-37 39 -27 110 63 112c69 1 130 -2 184 -6c-4 14 -6 30 -7 51c-2 65 38 342 76 496
c14 56 32 135 40 179c-33 3 -70 6 -104 6c-45 0 -82 -4 -112 -12c16 -23 25 -47 25 -73c0 -66 -42 -112 -103 -112c-48 0 -79 29 -79 72c0 44 21 82 58 114c-54 26 -122 40 -165 40c-182 0 -358 -129 -544 -129c-132 0 -235 75 -235 167c0 38 12 69 55 117
c41 -70 190 -121 286 -121c124 0 281 35 420 35c100 0 187 -27 243 -70c61 31 144 50 240 55c33 2 79 2 116 2c90 0 214 -5 243 -5zM1153 576c0 24 -15 46 -39 64c-28 -20 -41 -48 -41 -84c0 -21 13 -37 33 -37c26 0 47 26 47 57z" />
    <glyph glyph-name="Imacron.salt" horiz-adv-x="1688" 
d="M1413 844c-72 0 -95 9 -95 37c0 10 3 18 7 26c49 -3 149 -2 193 -2c43 0 84 4 117 4c42 0 57 -6 57 -23c0 -12 -7 -29 -16 -42c-27 3 -49 5 -76 5c-24 0 -51 0 -87 -2c-41 -2 -73 -3 -100 -3zM1729 757c62 0 84 6 112 16c-1 -18 -5 -36 -15 -56c-19 -39 -64 -63 -119 -63
c-94 0 -149 5 -223 9c-1 -9 -4 -21 -7 -34c-12 -49 -62 -258 -74 -342c-21 -143 -29 -261 -18 -350c31 -2 61 -2 91 -1c82 4 116 10 139 27c41 -27 45 -99 -81 -108c-84 -6 -215 8 -291 8c-98 0 -153 -10 -214 -24c-37 39 -27 110 63 112c69 1 130 -2 184 -6
c-4 14 -6 30 -7 51c-2 65 38 342 76 496c14 56 32 135 40 179c-33 3 -70 6 -104 6c-45 0 -82 -4 -112 -12c16 -23 25 -47 25 -73c0 -66 -42 -112 -103 -112c-48 0 -79 29 -79 72c0 44 21 82 58 114c-54 26 -122 40 -165 40c-182 0 -358 -129 -544 -129
c-132 0 -235 75 -235 167c0 38 12 69 55 117c41 -70 190 -121 286 -121c124 0 281 35 420 35c100 0 187 -27 243 -70c61 31 144 50 240 55c33 2 79 2 116 2c90 0 214 -5 243 -5zM1153 576c0 24 -15 46 -39 64c-28 -20 -41 -48 -41 -84c0 -21 13 -37 33 -37c26 0 47 26 47 57
z" />
    <glyph glyph-name="Iogonek.salt" horiz-adv-x="1688" 
d="M1729 757c62 0 84 6 112 16c-1 -18 -5 -36 -15 -56c-19 -39 -64 -63 -119 -63c-94 0 -149 5 -223 9c-1 -9 -4 -21 -7 -34c-12 -49 -62 -258 -74 -342c-21 -143 -29 -261 -18 -350c31 -2 61 -2 91 -1c82 4 116 10 139 27c41 -27 45 -99 -81 -108c-50 -4 -116 0 -178 3
c-41 -38 -58 -66 -58 -93c0 -26 14 -43 38 -43c17 0 37 7 58 21c8 -4 11 -10 11 -18c0 -27 -46 -53 -91 -53c-59 0 -98 33 -98 80c0 55 47 90 84 109c-21 1 -40 2 -57 2c-98 0 -153 -10 -214 -24c-37 39 -27 110 63 112c69 1 130 -2 184 -6c-4 14 -6 30 -7 51
c-2 65 38 342 76 496c14 56 32 135 40 179c-33 3 -70 6 -104 6c-45 0 -82 -4 -112 -12c16 -23 25 -47 25 -73c0 -66 -42 -112 -103 -112c-48 0 -79 29 -79 72c0 44 21 82 58 114c-54 26 -122 40 -165 40c-182 0 -358 -129 -544 -129c-132 0 -235 75 -235 167
c0 38 12 69 55 117c41 -70 190 -121 286 -121c124 0 281 35 420 35c100 0 187 -27 243 -70c61 31 144 50 240 55c33 2 79 2 116 2c90 0 214 -5 243 -5zM1153 576c0 24 -15 46 -39 64c-28 -20 -41 -48 -41 -84c0 -21 13 -37 33 -37c26 0 47 26 47 57z" />
    <glyph glyph-name="J.salt" horiz-adv-x="1722" 
d="M1778 748c-15 -24 -35 -48 -64 -66c-21 -32 -34 -73 -42 -142c-12 -102 -17 -277 -26 -347c-32 -258 -259 -368 -432 -368c-162 0 -296 97 -296 181c0 41 33 68 65 94c59 -106 159 -182 280 -182c149 0 270 114 295 314c10 79 12 229 22 311c5 40 13 75 24 106
c-13 -1 -28 -2 -43 -2c-92 0 -199 24 -277 24c-45 0 -85 -8 -118 -22c19 -25 30 -53 30 -83c0 -56 -36 -109 -105 -109c-46 0 -76 26 -76 76c0 41 18 81 49 114c-52 23 -118 36 -168 36c-158 0 -353 -129 -532 -129c-132 0 -236 73 -236 169c0 41 19 75 55 115
c41 -68 178 -121 297 -121c97 0 282 35 403 35c98 0 181 -23 238 -62c51 31 118 49 194 49c101 0 157 -34 255 -34c24 0 45 2 64 6c25 39 56 61 89 61c22 0 44 -11 55 -24zM1155 551c0 25 -16 48 -40 66c-26 -22 -40 -50 -40 -81c0 -27 14 -40 32 -40c27 0 48 26 48 55z" />
    <glyph glyph-name="K.salt" horiz-adv-x="1616" 
d="M1631 598c-27 -24 -56 -44 -241 -158c-31 -19 -54 -33 -80 -48c30 -177 164 -344 326 -400c-31 -56 -75 -80 -102 -80c-64 0 -216 131 -280 330c-8 25 -20 68 -20 103c-67 -45 -120 -94 -141 -172c-15 -122 -6 -220 -1 -258c-21 -1 -51 -5 -74 0c-42 8 -55 44 -55 113
c0 183 86 510 95 676c-155 0 -230 -1 -337 -16c-332 -49 -522 -193 -522 -385c0 -130 91 -229 193 -229c79 0 204 55 204 216c0 31 -5 66 -14 93c24 10 48 15 69 15c58 0 101 -42 101 -116c0 -154 -159 -286 -358 -286c-188 0 -311 126 -311 297c0 283 303 429 625 476
c171 25 310 16 400 34c46 0 80 -35 80 -108c0 -58 -41 -218 -67 -357c84 78 112 97 178 141c149 100 224 160 323 286c44 -12 73 -44 73 -73c0 -26 -27 -62 -64 -94z" />
    <glyph glyph-name="Kcommaaccent.salt" horiz-adv-x="1616" 
d="M1631 598c-27 -24 -56 -44 -241 -158c-31 -19 -54 -33 -80 -48c30 -177 164 -344 326 -400c-31 -56 -75 -80 -102 -80c-64 0 -216 131 -280 330c-8 25 -20 68 -20 103c-67 -45 -120 -94 -141 -172c-15 -122 -6 -220 -1 -258c-21 -1 -51 -5 -74 0c-42 8 -55 44 -55 113
c0 183 86 510 95 676c-155 0 -230 -1 -337 -16c-332 -49 -522 -193 -522 -385c0 -130 91 -229 193 -229c79 0 204 55 204 216c0 31 -5 66 -14 93c24 10 48 15 69 15c58 0 101 -42 101 -116c0 -154 -159 -286 -358 -286c-188 0 -311 126 -311 297c0 283 303 429 625 476
c171 25 310 16 400 34c46 0 80 -35 80 -108c0 -58 -41 -218 -67 -357c84 78 112 97 178 141c149 100 224 160 323 286c44 -12 73 -44 73 -73c0 -26 -27 -62 -64 -94zM1293 -128c30 0 49 -25 49 -62c0 -56 -76 -145 -115 -145c-8 0 -15 6 -18 15c26 25 47 46 55 81
c-25 10 -38 28 -38 51c0 36 27 60 67 60z" />
    <glyph glyph-name="L.salt" horiz-adv-x="1274" 
d="M1218 -99c20 -25 30 -53 30 -75c0 -51 -59 -84 -160 -84c-148 0 -317 94 -449 124c-32 -38 -86 -55 -122 -55c-47 0 -85 30 -78 84c38 12 76 17 122 17c51 80 86 175 113 271c-46 -10 -93 -15 -139 -15c-206 0 -436 117 -436 341c0 136 100 241 209 241
c32 0 66 -12 91 -32c-86 -55 -148 -141 -148 -233c0 -147 114 -247 295 -247c47 0 98 7 148 22c7 27 14 54 20 80c56 231 132 446 308 446c76 0 115 -61 115 -138c0 -200 -160 -358 -354 -432c-37 -134 -77 -252 -121 -306c96 -9 165 -46 333 -46c73 0 144 12 223 37z
M814 335c-3 -11 -6 -22 -8 -33c142 70 259 195 259 357c0 40 -14 71 -50 71c-84 0 -133 -124 -201 -395z" />
    <glyph glyph-name="Lacute.salt" horiz-adv-x="1274" 
d="M1193 1010c0 -47 -122 -188 -192 -188c-9 0 -19 4 -31 14c81 86 103 148 115 177c17 9 38 14 59 14c28 0 49 -9 49 -17zM1218 -99c20 -25 30 -53 30 -75c0 -51 -59 -84 -160 -84c-148 0 -317 94 -449 124c-32 -38 -86 -55 -122 -55c-47 0 -85 30 -78 84
c38 12 76 17 122 17c51 80 86 175 113 271c-46 -10 -93 -15 -139 -15c-206 0 -436 117 -436 341c0 136 100 241 209 241c32 0 66 -12 91 -32c-86 -55 -148 -141 -148 -233c0 -147 114 -247 295 -247c47 0 98 7 148 22c7 27 14 54 20 80c56 231 132 446 308 446
c76 0 115 -61 115 -138c0 -200 -160 -358 -354 -432c-37 -134 -77 -252 -121 -306c96 -9 165 -46 333 -46c73 0 144 12 223 37zM814 335c-3 -11 -6 -22 -8 -33c142 70 259 195 259 357c0 40 -14 71 -50 71c-84 0 -133 -124 -201 -395z" />
    <glyph glyph-name="Lcaron.salt" horiz-adv-x="1274" 
d="M995 -136c73 0 144 12 223 37c20 -25 30 -53 30 -75c0 -51 -59 -84 -160 -84c-148 0 -317 94 -449 124c-32 -38 -86 -55 -122 -55c-47 0 -85 30 -78 84c38 12 76 17 122 17c51 80 86 175 113 271c-46 -10 -93 -15 -139 -15c-206 0 -436 117 -436 341
c0 136 100 241 209 241c32 0 66 -12 91 -32c-86 -55 -148 -141 -148 -233c0 -147 114 -247 295 -247c47 0 98 7 148 22c7 27 14 54 20 80c56 231 132 446 308 446c76 0 115 -61 115 -138c0 -200 -160 -358 -354 -432c-37 -134 -77 -252 -121 -306c96 -9 165 -46 333 -46z
M1284 766c42 15 86 6 86 -18c0 -63 -87 -171 -139 -171c-11 0 -20 5 -27 13c54 70 72 138 80 176zM814 335c-3 -11 -6 -22 -8 -33c142 70 259 195 259 357c0 40 -14 71 -50 71c-84 0 -133 -124 -201 -395z" />
    <glyph glyph-name="Lcommaaccent.salt" horiz-adv-x="1274" 
d="M1218 -99c20 -25 30 -53 30 -75c0 -51 -59 -84 -160 -84c-148 0 -317 94 -449 124c-32 -38 -86 -55 -122 -55c-47 0 -85 30 -78 84c38 12 76 17 122 17c51 80 86 175 113 271c-46 -10 -93 -15 -139 -15c-206 0 -436 117 -436 341c0 136 100 241 209 241
c32 0 66 -12 91 -32c-86 -55 -148 -141 -148 -233c0 -147 114 -247 295 -247c47 0 98 7 148 22c7 27 14 54 20 80c56 231 132 446 308 446c76 0 115 -61 115 -138c0 -200 -160 -358 -354 -432c-37 -134 -77 -252 -121 -306c96 -9 165 -46 333 -46c73 0 144 12 223 37z
M814 335c-3 -11 -6 -22 -8 -33c142 70 259 195 259 357c0 40 -14 71 -50 71c-84 0 -133 -124 -201 -395zM854 -251c30 0 49 -25 49 -62c0 -56 -76 -145 -115 -145c-8 0 -15 6 -18 15c26 25 47 46 55 81c-25 10 -38 28 -38 51c0 36 27 60 67 60z" />
    <glyph glyph-name="Lslash.salt" horiz-adv-x="820" 
d="M772 -99c26 -28 40 -58 40 -81c0 -48 -55 -78 -150 -78c-148 0 -329 94 -465 124c-27 -38 -79 -55 -115 -55c-47 0 -88 30 -88 84c36 12 74 17 120 17c28 55 48 117 62 182c-49 -4 -85 -6 -120 -17c-14 12 -22 30 -24 38c-2 36 72 44 158 50c4 21 7 42 10 62
c-33 -4 -67 -6 -101 -6c-218 0 -479 128 -479 374c0 116 81 208 181 208c32 0 67 -12 95 -32c-73 -50 -121 -130 -121 -204c0 -164 131 -276 327 -276c36 0 72 3 107 9c2 13 3 27 5 40c28 231 77 446 253 446c86 0 134 -72 134 -162c0 -202 -126 -324 -298 -375
c-3 -26 -7 -52 -12 -77c115 11 158 24 204 38c4 -6 6 -11 8 -15c8 -23 -1 -40 -32 -56c-33 -18 -93 -29 -193 -38c-16 -84 -37 -153 -63 -191c97 -9 171 -46 339 -46c73 0 142 12 218 37zM315 335c0 -2 -1 -4 -1 -6c121 48 213 146 213 310c0 51 -16 91 -60 91
c-84 0 -117 -124 -152 -395z" />
    <glyph glyph-name="M.salt" horiz-adv-x="1704" 
d="M1679 517c0 -78 -55 -234 -55 -454c0 -145 22 -162 37 -195c-27 -24 -61 -36 -100 -36c-49 0 -65 54 -65 120c0 139 94 407 94 509c0 27 -5 40 -16 40c-46 0 -233 -485 -307 -552c0 0 -1 0 -1 -1c-21 -23 -48 -38 -73 -38c-58 0 -93 70 -93 176c0 157 57 428 57 517
c0 23 4 63 -13 63c-68 0 -182 -225 -288 -446c-112 -233 -271 -361 -456 -361c-214 0 -341 124 -341 320c0 156 121 282 229 282c37 0 73 -13 98 -34c-105 -73 -164 -171 -164 -285c0 -106 54 -207 185 -207c133 0 223 96 353 324c66 116 268 498 410 498
c71 0 51 -123 51 -642c0 -37 4 -69 15 -96c254 488 307 622 386 622c34 0 57 -54 57 -124z" />
    <glyph glyph-name="N.salt" horiz-adv-x="1314" 
d="M666 676v48c62 16 109 13 130 -10c17 -19 25 -48 29 -100c6 -78 80 -369 137 -485c46 -93 82 -140 110 -140c40 0 69 99 96 302c35 265 70 467 206 467c41 0 64 -38 61 -92c-46 -27 -91 -10 -135 -213c-50 -229 -33 -544 -222 -570c-205 -28 -327 617 -333 716
c-46 -374 -96 -865 -514 -865c-142 0 -220 90 -220 171c0 55 38 105 115 124c29 -109 66 -150 147 -150c348 0 393 749 393 797z" />
    <glyph glyph-name="Nacute.salt" horiz-adv-x="1314" 
d="M1007 805c-9 0 -19 4 -31 14c81 86 103 148 115 177c17 9 38 14 59 14c28 0 49 -9 49 -17c0 -47 -122 -188 -192 -188zM666 676v48c62 16 109 13 130 -10c17 -19 25 -48 29 -100c6 -78 80 -369 137 -485c46 -93 82 -140 110 -140c40 0 69 99 96 302
c35 265 70 467 206 467c41 0 64 -38 61 -92c-46 -27 -91 -10 -135 -213c-50 -229 -33 -544 -222 -570c-205 -28 -327 617 -333 716c-46 -374 -96 -865 -514 -865c-142 0 -220 90 -220 171c0 55 38 105 115 124c29 -109 66 -150 147 -150c348 0 393 749 393 797z" />
    <glyph glyph-name="Ncaron.salt" horiz-adv-x="1314" 
d="M1038 806c-32 0 -70 39 -167 170c15 22 28 31 43 31c49 0 118 -90 139 -141c70 91 125 141 159 141c14 0 25 -9 35 -31c-129 -132 -177 -170 -209 -170zM666 676v48c62 16 109 13 130 -10c17 -19 25 -48 29 -100c6 -78 80 -369 137 -485c46 -93 82 -140 110 -140
c40 0 69 99 96 302c35 265 70 467 206 467c41 0 64 -38 61 -92c-46 -27 -91 -10 -135 -213c-50 -229 -33 -544 -222 -570c-205 -28 -327 617 -333 716c-46 -374 -96 -865 -514 -865c-142 0 -220 90 -220 171c0 55 38 105 115 124c29 -109 66 -150 147 -150
c348 0 393 749 393 797z" />
    <glyph glyph-name="Ncommaaccent.salt" horiz-adv-x="1314" 
d="M666 676v48c62 16 109 13 130 -10c17 -19 25 -48 29 -100c6 -78 80 -369 137 -485c46 -93 82 -140 110 -140c40 0 69 99 96 302c35 265 70 467 206 467c41 0 64 -38 61 -92c-46 -27 -91 -10 -135 -213c-50 -229 -33 -544 -222 -570c-205 -28 -327 617 -333 716
c-46 -374 -96 -865 -514 -865c-142 0 -220 90 -220 171c0 55 38 105 115 124c29 -109 66 -150 147 -150c348 0 393 749 393 797zM818 -399c-8 0 -15 6 -18 15c26 25 47 46 55 81c-25 10 -38 28 -38 51c0 36 27 60 67 60c30 0 49 -25 49 -62c0 -56 -76 -145 -115 -145z" />
    <glyph glyph-name="Ntilde.salt" horiz-adv-x="1314" 
d="M1124 825c-61 0 -110 58 -149 58c-22 0 -50 -21 -69 -52c-25 1 -39 12 -39 29c0 40 61 87 112 87c63 0 109 -58 148 -58c22 0 42 16 68 52c28 -1 43 -10 43 -24c0 -40 -63 -92 -114 -92zM666 676v48c62 16 109 13 130 -10c17 -19 25 -48 29 -100c6 -78 80 -369 137 -485
c46 -93 82 -140 110 -140c40 0 69 99 96 302c35 265 70 467 206 467c41 0 64 -38 61 -92c-46 -27 -91 -10 -135 -213c-50 -229 -33 -544 -222 -570c-205 -28 -327 617 -333 716c-46 -374 -96 -865 -514 -865c-142 0 -220 90 -220 171c0 55 38 105 115 124
c29 -109 66 -150 147 -150c348 0 393 749 393 797z" />
    <glyph glyph-name="O.salt" horiz-adv-x="1643" 
d="M1355 762c207 0 261 -203 261 -349c0 -364 -234 -551 -462 -551c-207 0 -327 144 -327 377c0 74 18 172 49 258c-231 -188 -729 -169 -729 -566c0 -127 79 -217 200 -217c107 0 217 96 217 221c0 60 -17 91 -41 120c32 23 64 35 93 35c64 0 104 -55 104 -134
c0 -165 -184 -305 -388 -305c-176 0 -293 116 -293 278c0 467 604 445 901 692c28 36 61 59 97 59c19 0 35 -8 45 -22c-84 -83 -139 -235 -139 -406c0 -202 78 -327 210 -327c194 0 345 206 345 506c0 169 -58 272 -159 272c-98 0 -179 -85 -179 -205
c0 -81 42 -140 112 -150c-17 -52 -54 -84 -96 -84c-69 0 -110 62 -110 156c0 151 103 342 289 342z" />
    <glyph glyph-name="Oacute.salt" horiz-adv-x="1643" 
d="M1439 1031c0 -47 -122 -188 -192 -188c-9 0 -19 4 -31 14c81 86 103 148 115 177c17 9 38 14 59 14c28 0 49 -9 49 -17zM1355 762c207 0 261 -203 261 -349c0 -364 -234 -551 -462 -551c-207 0 -327 144 -327 377c0 74 18 172 49 258c-231 -188 -729 -169 -729 -566
c0 -127 79 -217 200 -217c107 0 217 96 217 221c0 60 -17 91 -41 120c32 23 64 35 93 35c64 0 104 -55 104 -134c0 -165 -184 -305 -388 -305c-176 0 -293 116 -293 278c0 467 604 445 901 692c28 36 61 59 97 59c19 0 35 -8 45 -22c-84 -83 -139 -235 -139 -406
c0 -202 78 -327 210 -327c194 0 345 206 345 506c0 169 -58 272 -159 272c-98 0 -179 -85 -179 -205c0 -81 42 -140 112 -150c-17 -52 -54 -84 -96 -84c-69 0 -110 62 -110 156c0 151 103 342 289 342z" />
    <glyph glyph-name="Ocircumflex.salt" horiz-adv-x="1643" 
d="M1133 842c-15 0 -25 9 -35 31c129 131 177 170 208 170c33 0 71 -38 167 -170c-15 -22 -27 -31 -42 -31c-36 0 -91 60 -132 140c-57 -79 -128 -140 -166 -140zM1355 762c207 0 261 -203 261 -349c0 -364 -234 -551 -462 -551c-207 0 -327 144 -327 377
c0 74 18 172 49 258c-231 -188 -729 -169 -729 -566c0 -127 79 -217 200 -217c107 0 217 96 217 221c0 60 -17 91 -41 120c32 23 64 35 93 35c64 0 104 -55 104 -134c0 -165 -184 -305 -388 -305c-176 0 -293 116 -293 278c0 467 604 445 901 692c28 36 61 59 97 59
c19 0 35 -8 45 -22c-84 -83 -139 -235 -139 -406c0 -202 78 -327 210 -327c194 0 345 206 345 506c0 169 -58 272 -159 272c-98 0 -179 -85 -179 -205c0 -81 42 -140 112 -150c-17 -52 -54 -84 -96 -84c-69 0 -110 62 -110 156c0 151 103 342 289 342z" />
    <glyph glyph-name="Odieresis.salt" horiz-adv-x="1643" 
d="M1179 863c-32 0 -52 18 -52 48c0 41 33 69 76 69c34 0 55 -20 55 -50c0 -39 -33 -67 -79 -67zM1375 863c-32 0 -52 18 -52 48c0 41 33 69 76 69c34 0 55 -20 55 -50c0 -39 -33 -67 -79 -67zM1355 762c207 0 261 -203 261 -349c0 -364 -234 -551 -462 -551
c-207 0 -327 144 -327 377c0 74 18 172 49 258c-231 -188 -729 -169 -729 -566c0 -127 79 -217 200 -217c107 0 217 96 217 221c0 60 -17 91 -41 120c32 23 64 35 93 35c64 0 104 -55 104 -134c0 -165 -184 -305 -388 -305c-176 0 -293 116 -293 278c0 467 604 445 901 692
c28 36 61 59 97 59c19 0 35 -8 45 -22c-84 -83 -139 -235 -139 -406c0 -202 78 -327 210 -327c194 0 345 206 345 506c0 169 -58 272 -159 272c-98 0 -179 -85 -179 -205c0 -81 42 -140 112 -150c-17 -52 -54 -84 -96 -84c-69 0 -110 62 -110 156c0 151 103 342 289 342z
" />
    <glyph glyph-name="Ograve.salt" horiz-adv-x="1643" 
d="M1342 843c-66 0 -146 128 -146 183c0 13 24 22 53 22c21 0 41 -5 55 -14c5 -29 12 -91 72 -177c-14 -10 -25 -14 -34 -14zM1355 762c207 0 261 -203 261 -349c0 -364 -234 -551 -462 -551c-207 0 -327 144 -327 377c0 74 18 172 49 258c-231 -188 -729 -169 -729 -566
c0 -127 79 -217 200 -217c107 0 217 96 217 221c0 60 -17 91 -41 120c32 23 64 35 93 35c64 0 104 -55 104 -134c0 -165 -184 -305 -388 -305c-176 0 -293 116 -293 278c0 467 604 445 901 692c28 36 61 59 97 59c19 0 35 -8 45 -22c-84 -83 -139 -235 -139 -406
c0 -202 78 -327 210 -327c194 0 345 206 345 506c0 169 -58 272 -159 272c-98 0 -179 -85 -179 -205c0 -81 42 -140 112 -150c-17 -52 -54 -84 -96 -84c-69 0 -110 62 -110 156c0 151 103 342 289 342z" />
    <glyph glyph-name="Ohungarumlaut.salt" horiz-adv-x="1643" 
d="M1362 845c-9 0 -19 4 -31 14c82 86 103 148 115 177c17 9 38 14 59 14c28 0 49 -9 49 -17c0 -47 -122 -188 -192 -188zM1363 1030c0 -47 -122 -188 -192 -188c-9 0 -19 4 -31 14c81 86 103 148 115 177c17 9 38 14 59 14c28 0 49 -9 49 -17zM1355 762
c207 0 261 -203 261 -349c0 -364 -234 -551 -462 -551c-207 0 -327 144 -327 377c0 74 18 172 49 258c-231 -188 -729 -169 -729 -566c0 -127 79 -217 200 -217c107 0 217 96 217 221c0 60 -17 91 -41 120c32 23 64 35 93 35c64 0 104 -55 104 -134
c0 -165 -184 -305 -388 -305c-176 0 -293 116 -293 278c0 467 604 445 901 692c28 36 61 59 97 59c19 0 35 -8 45 -22c-84 -83 -139 -235 -139 -406c0 -202 78 -327 210 -327c194 0 345 206 345 506c0 169 -58 272 -159 272c-98 0 -179 -85 -179 -205
c0 -81 42 -140 112 -150c-17 -52 -54 -84 -96 -84c-69 0 -110 62 -110 156c0 151 103 342 289 342z" />
    <glyph glyph-name="Omacron.salt" horiz-adv-x="1643" 
d="M1195 844c-72 0 -95 9 -95 37c0 10 3 18 7 26c49 -3 149 -2 193 -2c43 0 84 4 117 4c42 0 57 -6 57 -23c0 -12 -7 -29 -16 -42c-27 3 -49 5 -76 5c-24 0 -51 0 -87 -2c-41 -2 -73 -3 -100 -3zM1355 762c207 0 261 -203 261 -349c0 -364 -234 -551 -462 -551
c-207 0 -327 144 -327 377c0 74 18 172 49 258c-231 -188 -729 -169 -729 -566c0 -127 79 -217 200 -217c107 0 217 96 217 221c0 60 -17 91 -41 120c32 23 64 35 93 35c64 0 104 -55 104 -134c0 -165 -184 -305 -388 -305c-176 0 -293 116 -293 278c0 467 604 445 901 692
c28 36 61 59 97 59c19 0 35 -8 45 -22c-84 -83 -139 -235 -139 -406c0 -202 78 -327 210 -327c194 0 345 206 345 506c0 169 -58 272 -159 272c-98 0 -179 -85 -179 -205c0 -81 42 -140 112 -150c-17 -52 -54 -84 -96 -84c-69 0 -110 62 -110 156c0 151 103 342 289 342z
" />
    <glyph glyph-name="Oslash.salt" horiz-adv-x="1643" 
d="M1619 717c0 -1 -22 -29 -57 -73c40 -69 54 -157 54 -231c0 -364 -234 -551 -462 -551c-75 0 -139 19 -190 54c-30 -35 -52 -62 -64 -77c-39 23 -54 41 -54 61c0 5 22 33 57 75c-49 64 -76 154 -76 264c0 74 18 172 49 258c-231 -188 -729 -169 -729 -566
c0 -127 79 -217 200 -217c107 0 217 96 217 221c0 60 -17 91 -41 120c32 23 64 35 93 35c64 0 104 -55 104 -134c0 -165 -184 -305 -388 -305c-176 0 -293 116 -293 278c0 467 604 445 901 692c28 36 61 59 97 59c19 0 35 -8 45 -22c-84 -83 -139 -235 -139 -406
c0 -77 11 -142 32 -194c53 61 116 133 179 208c-56 12 -88 70 -88 154c0 151 103 342 289 342c67 0 118 -21 156 -55c22 29 38 52 48 66c35 -8 60 -30 60 -56zM1339 703c-98 0 -179 -85 -179 -205c0 -65 27 -115 73 -138c78 95 159 195 221 274c-27 45 -66 69 -115 69z
M1498 431c0 44 -4 83 -11 118c-84 -105 -189 -237 -259 -321c-75 -91 -148 -177 -207 -245c34 -38 79 -58 132 -58c194 0 345 206 345 506z" />
    <glyph glyph-name="Otilde.salt" horiz-adv-x="1643" 
d="M1146 869c-25 1 -39 12 -39 29c0 40 61 87 112 87c63 0 109 -58 148 -58c22 0 42 16 68 52c28 -1 43 -10 43 -24c0 -40 -63 -92 -114 -92c-61 0 -110 58 -149 58c-22 0 -50 -21 -69 -52zM1355 762c207 0 261 -203 261 -349c0 -364 -234 -551 -462 -551
c-207 0 -327 144 -327 377c0 74 18 172 49 258c-231 -188 -729 -169 -729 -566c0 -127 79 -217 200 -217c107 0 217 96 217 221c0 60 -17 91 -41 120c32 23 64 35 93 35c64 0 104 -55 104 -134c0 -165 -184 -305 -388 -305c-176 0 -293 116 -293 278c0 467 604 445 901 692
c28 36 61 59 97 59c19 0 35 -8 45 -22c-84 -83 -139 -235 -139 -406c0 -202 78 -327 210 -327c194 0 345 206 345 506c0 169 -58 272 -159 272c-98 0 -179 -85 -179 -205c0 -81 42 -140 112 -150c-17 -52 -54 -84 -96 -84c-69 0 -110 62 -110 156c0 151 103 342 289 342z
" />
    <glyph glyph-name="P.salt" horiz-adv-x="1830" 
d="M1471 785c229 0 391 -113 391 -264c0 -178 -206 -379 -550 -379h-30c-14 -54 -24 -115 -24 -194c0 -41 5 -83 13 -110c-31 -7 -66 -9 -84 -7c-47 3 -63 35 -63 78c0 40 30 136 62 241c-220 39 -465 258 -705 258c-121 0 -216 -91 -216 -208c0 -37 13 -72 38 -96
c-27 -27 -61 -41 -99 -41c-76 0 -118 49 -118 133c0 219 187 315 365 315c288 0 557 -257 751 -307c32 107 62 214 62 275c0 31 -5 53 -20 74c25 16 48 24 68 24c34 0 57 -26 57 -72c0 -133 -41 -212 -73 -313c6 -1 11 -1 17 -1c208 0 372 129 407 299l1 4
c28 139 -101 234 -297 234c-167 0 -319 -84 -319 -188c0 -36 20 -57 38 -72c-15 -20 -46 -33 -77 -33c-46 0 -79 36 -79 84c0 100 163 266 484 266z" />
    <glyph glyph-name="Q.salt" horiz-adv-x="1493" 
d="M1549 -157c12 -97 -32 -161 -110 -161c-99 0 -254 154 -386 181c-10 -1 -20 -1 -30 -1c-216 0 -342 146 -342 386c0 53 9 115 25 174c-86 -68 -199 -109 -309 -109c-171 0 -288 74 -288 181c0 74 48 137 122 164c10 -78 77 -240 239 -240c110 0 223 64 296 155
c37 63 83 106 136 106c18 0 31 -7 38 -20c-78 -80 -151 -257 -151 -426c0 -201 81 -318 230 -318c209 0 336 269 336 504c0 162 -49 264 -138 264c-58 0 -112 -47 -145 -123c-48 -2 -78 24 -78 66c0 72 89 132 194 132c181 0 280 -127 280 -344c0 -219 -98 -445 -292 -523
c77 -29 142 -75 264 -75c33 0 73 10 109 27z" />
    <glyph glyph-name="R.salt" horiz-adv-x="1772" 
d="M1598 114c95 -162 165 -246 228 -272c-25 -63 -67 -96 -111 -88c-93 21 -146 207 -204 321c-26 52 -50 107 -81 138c-49 -10 -103 -15 -160 -15h-23c-22 -67 -40 -143 -40 -250c0 -41 5 -84 13 -111c-32 -6 -65 -8 -84 -6c-106 6 -52 149 -19 253c12 38 25 78 38 124
c-214 45 -463 208 -693 208c-121 0 -216 -91 -216 -208c0 -37 13 -72 38 -96c-27 -27 -61 -41 -99 -41c-76 0 -118 49 -118 133c0 219 187 315 365 315c272 0 547 -200 740 -251c7 27 15 56 22 88c15 54 20 105 20 124c0 30 -6 51 -20 73c38 25 91 32 107 9
c10 -10 17 -35 17 -59c0 -104 -26 -175 -52 -250h6c221 0 397 117 397 287c0 119 -113 196 -294 196c-163 0 -312 -78 -312 -172c0 -33 19 -53 38 -67c-19 -19 -55 -35 -84 -35c-46 0 -71 23 -71 63c0 110 158 260 474 260c226 0 386 -104 386 -243
c0 -115 -102 -241 -283 -304c22 -28 52 -85 75 -124z" />
    <glyph glyph-name="Racute.salt" horiz-adv-x="1772" 
d="M1605 1031c0 -47 -122 -188 -192 -188c-9 0 -19 4 -31 14c81 86 103 148 115 177c17 9 38 14 59 14c28 0 49 -9 49 -17zM1598 114c95 -162 165 -246 228 -272c-25 -63 -67 -96 -111 -88c-93 21 -146 207 -204 321c-26 52 -50 107 -81 138c-49 -10 -103 -15 -160 -15h-23
c-22 -67 -40 -143 -40 -250c0 -41 5 -84 13 -111c-32 -6 -65 -8 -84 -6c-106 6 -52 149 -19 253c12 38 25 78 38 124c-214 45 -463 208 -693 208c-121 0 -216 -91 -216 -208c0 -37 13 -72 38 -96c-27 -27 -61 -41 -99 -41c-76 0 -118 49 -118 133c0 219 187 315 365 315
c272 0 547 -200 740 -251c7 27 15 56 22 88c15 54 20 105 20 124c0 30 -6 51 -20 73c38 25 91 32 107 9c10 -10 17 -35 17 -59c0 -104 -26 -175 -52 -250h6c221 0 397 117 397 287c0 119 -113 196 -294 196c-163 0 -312 -78 -312 -172c0 -33 19 -53 38 -67
c-19 -19 -55 -35 -84 -35c-46 0 -71 23 -71 63c0 110 158 260 474 260c226 0 386 -104 386 -243c0 -115 -102 -241 -283 -304c22 -28 52 -85 75 -124z" />
    <glyph glyph-name="Rcaron.salt" horiz-adv-x="1772" 
d="M1444 844c-32 0 -70 39 -167 170c15 22 28 31 43 31c49 0 118 -90 139 -141c70 91 125 141 159 141c14 0 25 -9 35 -31c-129 -132 -177 -170 -209 -170zM1598 114c95 -162 165 -246 228 -272c-25 -63 -67 -96 -111 -88c-93 21 -146 207 -204 321c-26 52 -50 107 -81 138
c-49 -10 -103 -15 -160 -15h-23c-22 -67 -40 -143 -40 -250c0 -41 5 -84 13 -111c-32 -6 -65 -8 -84 -6c-106 6 -52 149 -19 253c12 38 25 78 38 124c-214 45 -463 208 -693 208c-121 0 -216 -91 -216 -208c0 -37 13 -72 38 -96c-27 -27 -61 -41 -99 -41
c-76 0 -118 49 -118 133c0 219 187 315 365 315c272 0 547 -200 740 -251c7 27 15 56 22 88c15 54 20 105 20 124c0 30 -6 51 -20 73c38 25 91 32 107 9c10 -10 17 -35 17 -59c0 -104 -26 -175 -52 -250h6c221 0 397 117 397 287c0 119 -113 196 -294 196
c-163 0 -312 -78 -312 -172c0 -33 19 -53 38 -67c-19 -19 -55 -35 -84 -35c-46 0 -71 23 -71 63c0 110 158 260 474 260c226 0 386 -104 386 -243c0 -115 -102 -241 -283 -304c22 -28 52 -85 75 -124z" />
    <glyph glyph-name="Rcommaaccent.salt" horiz-adv-x="1772" 
d="M1598 114c95 -162 165 -246 228 -272c-25 -63 -67 -96 -111 -88c-93 21 -146 207 -204 321c-26 52 -50 107 -81 138c-49 -10 -103 -15 -160 -15h-23c-22 -67 -40 -143 -40 -250c0 -41 5 -84 13 -111c-32 -6 -65 -8 -84 -6c-106 6 -52 149 -19 253c12 38 25 78 38 124
c-214 45 -463 208 -693 208c-121 0 -216 -91 -216 -208c0 -37 13 -72 38 -96c-27 -27 -61 -41 -99 -41c-76 0 -118 49 -118 133c0 219 187 315 365 315c272 0 547 -200 740 -251c7 27 15 56 22 88c15 54 20 105 20 124c0 30 -6 51 -20 73c38 25 91 32 107 9
c10 -10 17 -35 17 -59c0 -104 -26 -175 -52 -250h6c221 0 397 117 397 287c0 119 -113 196 -294 196c-163 0 -312 -78 -312 -172c0 -33 19 -53 38 -67c-19 -19 -55 -35 -84 -35c-46 0 -71 23 -71 63c0 110 158 260 474 260c226 0 386 -104 386 -243
c0 -115 -102 -241 -283 -304c22 -28 52 -85 75 -124zM1409 -235c30 0 49 -25 49 -62c0 -56 -76 -145 -115 -145c-8 0 -15 6 -18 15c26 25 47 46 55 81c-25 10 -38 28 -38 51c0 36 27 60 67 60z" />
    <glyph glyph-name="S.salt" horiz-adv-x="1504" 
d="M1434 82c0 -165 -221 -263 -417 -263c-238 0 -440 145 -659 145c-151 0 -239 -80 -288 -137c-29 25 -44 62 -44 103c0 116 104 197 281 197c162 0 301 -70 431 -137c93 -48 200 -102 318 -102c142 0 263 76 263 162c0 95 -168 113 -319 165c-169 58 -238 138 -238 243
c0 188 188 312 441 312c183 0 332 -68 332 -135c0 -48 -72 -70 -106 -70c-15 46 -94 150 -251 150c-141 0 -299 -81 -299 -214c0 -92 86 -139 189 -176c162 -58 366 -96 366 -243z" />
    <glyph glyph-name="Sacute.salt" horiz-adv-x="1504" 
d="M1177 843c-9 0 -19 4 -31 14c81 86 103 148 115 177c17 9 38 14 59 14c28 0 49 -9 49 -17c0 -47 -122 -188 -192 -188zM1434 82c0 -165 -221 -263 -417 -263c-238 0 -440 145 -659 145c-151 0 -239 -80 -288 -137c-29 25 -44 62 -44 103c0 116 104 197 281 197
c162 0 301 -70 431 -137c93 -48 200 -102 318 -102c142 0 263 76 263 162c0 95 -168 113 -319 165c-169 58 -238 138 -238 243c0 188 188 312 441 312c183 0 332 -68 332 -135c0 -48 -72 -70 -106 -70c-15 46 -94 150 -251 150c-141 0 -299 -81 -299 -214
c0 -92 86 -139 189 -176c162 -58 366 -96 366 -243z" />
    <glyph glyph-name="Scaron.salt" horiz-adv-x="1504" 
d="M1208 844c-32 0 -70 39 -167 170c15 22 28 31 43 31c49 0 118 -90 139 -141c70 91 125 141 159 141c14 0 25 -9 35 -31c-129 -132 -177 -170 -209 -170zM1434 82c0 -165 -221 -263 -417 -263c-238 0 -440 145 -659 145c-151 0 -239 -80 -288 -137c-29 25 -44 62 -44 103
c0 116 104 197 281 197c162 0 301 -70 431 -137c93 -48 200 -102 318 -102c142 0 263 76 263 162c0 95 -168 113 -319 165c-169 58 -238 138 -238 243c0 188 188 312 441 312c183 0 332 -68 332 -135c0 -48 -72 -70 -106 -70c-15 46 -94 150 -251 150
c-141 0 -299 -81 -299 -214c0 -92 86 -139 189 -176c162 -58 366 -96 366 -243z" />
    <glyph glyph-name="Scedilla.salt" horiz-adv-x="1504" 
d="M1178 715c-141 0 -299 -81 -299 -214c0 -92 86 -139 189 -176c162 -58 366 -96 366 -243c0 -149 -180 -243 -359 -260l-28 -48c52 -6 82 -33 82 -74c0 -53 -57 -94 -127 -94c-38 0 -74 17 -74 41c0 11 9 20 21 23c14 -13 26 -18 42 -18c31 0 58 26 58 59
c0 29 -24 37 -61 44l2 14l31 50h-4c-238 0 -440 145 -659 145c-151 0 -239 -80 -288 -137c-29 25 -44 62 -44 103c0 116 104 197 281 197c162 0 301 -70 431 -137c93 -48 200 -102 318 -102c142 0 263 76 263 162c0 95 -168 113 -319 165c-169 58 -238 138 -238 243
c0 188 188 312 441 312c183 0 332 -68 332 -135c0 -48 -72 -70 -106 -70c-15 46 -94 150 -251 150z" />
    <glyph glyph-name="Scommaaccent.salt" horiz-adv-x="1504" 
d="M1434 82c0 -165 -221 -263 -417 -263c-238 0 -440 145 -659 145c-151 0 -239 -80 -288 -137c-29 25 -44 62 -44 103c0 116 104 197 281 197c162 0 301 -70 431 -137c93 -48 200 -102 318 -102c142 0 263 76 263 162c0 95 -168 113 -319 165c-169 58 -238 138 -238 243
c0 188 188 312 441 312c183 0 332 -68 332 -135c0 -48 -72 -70 -106 -70c-15 46 -94 150 -251 150c-141 0 -299 -81 -299 -214c0 -92 86 -139 189 -176c162 -58 366 -96 366 -243zM1069 -450c-8 0 -15 6 -18 15c26 25 47 46 55 81c-25 10 -38 28 -38 51c0 36 27 60 67 60
c30 0 49 -25 49 -62c0 -56 -76 -145 -115 -145z" />
    <glyph glyph-name="T.salt" horiz-adv-x="1178" 
d="M1511 859c31 -14 45 -33 45 -51c0 -43 -77 -65 -293 -65c-42 0 -73 1 -131 -2l3 -12c-54 -153 -138 -443 -138 -672c0 -76 7 -149 22 -188c-19 -6 -52 -11 -75 -11c-62 0 -92 37 -92 92v34c0 193 108 611 190 752c-277 -16 -505 -33 -637 -99
c-119 -60 -200 -175 -200 -292c0 -121 83 -216 195 -216c110 0 200 86 200 213c0 25 -2 58 -8 80c23 8 42 11 59 11c62 0 102 -46 102 -109c0 -103 -119 -274 -364 -274c-214 0 -299 143 -299 291c0 172 107 305 279 383c247 112 567 72 1045 98c46 5 75 15 97 37z" />
    <glyph glyph-name="Tbar.salt" horiz-adv-x="1178" 
d="M1511 859c31 -14 45 -33 45 -51c0 -43 -77 -65 -293 -65c-42 0 -73 1 -131 -2l3 -12c-18 -52 -40 -119 -61 -195c95 1 184 4 184 -37c0 -13 -9 -32 -21 -45c-57 8 -98 9 -182 9c-32 -131 -58 -277 -58 -404c0 -76 7 -149 22 -188c-19 -6 -52 -11 -75 -11
c-62 0 -92 37 -92 92v34c0 115 38 310 86 478c-118 3 -146 13 -146 42c0 9 6 21 13 32c47 -2 78 -2 155 -2c27 85 56 157 82 202c-277 -16 -505 -33 -637 -99c-119 -60 -200 -175 -200 -292c0 -121 83 -216 195 -216c110 0 200 86 200 213c0 25 -2 58 -8 80
c23 8 42 11 59 11c62 0 102 -46 102 -109c0 -103 -119 -274 -364 -274c-214 0 -299 143 -299 291c0 172 107 305 279 383c247 112 567 72 1045 98c46 5 75 15 97 37z" />
    <glyph glyph-name="Tcaron.salt" horiz-adv-x="1178" 
d="M1100 869c-32 0 -70 39 -167 170c15 22 28 31 43 31c49 0 118 -90 139 -141c70 91 125 141 159 141c14 0 25 -9 35 -31c-129 -132 -177 -170 -209 -170zM1511 859c31 -14 45 -33 45 -51c0 -43 -77 -65 -293 -65c-42 0 -73 1 -131 -2l3 -12c-54 -153 -138 -443 -138 -672
c0 -76 7 -149 22 -188c-19 -6 -52 -11 -75 -11c-62 0 -92 37 -92 92v34c0 193 108 611 190 752c-277 -16 -505 -33 -637 -99c-119 -60 -200 -175 -200 -292c0 -121 83 -216 195 -216c110 0 200 86 200 213c0 25 -2 58 -8 80c23 8 42 11 59 11c62 0 102 -46 102 -109
c0 -103 -119 -274 -364 -274c-214 0 -299 143 -299 291c0 172 107 305 279 383c247 112 567 72 1045 98c46 5 75 15 97 37z" />
    <glyph glyph-name="uni0162.salt" horiz-adv-x="1178" 
d="M1511 859c31 -14 45 -33 45 -51c0 -43 -77 -65 -293 -65c-42 0 -73 1 -131 -2l3 -12c-54 -153 -138 -443 -138 -672c0 -76 7 -149 22 -188c-19 -6 -52 -11 -75 -11h-4l-23 -38c52 -6 82 -33 82 -74c0 -53 -57 -94 -127 -94c-38 0 -74 17 -74 41c0 11 9 20 21 23
c14 -13 26 -18 42 -18c31 0 58 26 58 59c0 29 -24 37 -61 44l2 14l33 54c-27 15 -41 44 -41 81v34c0 193 108 611 190 752c-277 -16 -505 -33 -637 -99c-119 -60 -200 -175 -200 -292c0 -121 83 -216 195 -216c110 0 200 86 200 213c0 25 -2 58 -8 80c23 8 42 11 59 11
c62 0 102 -46 102 -109c0 -103 -119 -274 -364 -274c-214 0 -299 143 -299 291c0 172 107 305 279 383c247 112 567 72 1045 98c46 5 75 15 97 37z" />
    <glyph glyph-name="uni021A.salt" horiz-adv-x="1178" 
d="M1511 859c31 -14 45 -33 45 -51c0 -43 -77 -65 -293 -65c-42 0 -73 1 -131 -2l3 -12c-54 -153 -138 -443 -138 -672c0 -76 7 -149 22 -188c-19 -6 -52 -11 -75 -11c-62 0 -92 37 -92 92v34c0 193 108 611 190 752c-277 -16 -505 -33 -637 -99
c-119 -60 -200 -175 -200 -292c0 -121 83 -216 195 -216c110 0 200 86 200 213c0 25 -2 58 -8 80c23 8 42 11 59 11c62 0 102 -46 102 -109c0 -103 -119 -274 -364 -274c-214 0 -299 143 -299 291c0 172 107 305 279 383c247 112 567 72 1045 98c46 5 75 15 97 37z
M1005 -197c30 0 49 -25 49 -62c0 -56 -76 -145 -115 -145c-8 0 -15 6 -18 15c26 25 47 46 55 81c-25 10 -38 28 -38 51c0 36 27 60 67 60z" />
    <glyph glyph-name="U.salt" horiz-adv-x="1552" 
d="M1467 363c-20 -129 -30 -337 27 -429c-31 -22 -61 -30 -93 -30c-30 0 -55 14 -66 51c-12 41 -12 113 -5 196c-101 -171 -254 -324 -377 -324c-140 0 -204 144 -165 382c23 142 61 280 80 394c-12 -20 -24 -38 -40 -59c-113 -151 -277 -245 -428 -245
c-167 0 -293 95 -295 220c-1 68 46 118 136 149c-4 -153 66 -251 188 -256c119 0 326 93 435 313c20 21 54 34 93 34c38 0 59 -25 59 -71c0 -95 -84 -290 -117 -502c-28 -176 -4 -265 73 -265c137 0 329 280 399 506c20 101 45 194 67 252c16 41 46 56 80 56
c19 0 41 -5 61 -13c-29 -60 -85 -187 -112 -359z" />
    <glyph glyph-name="Uacute.salt" horiz-adv-x="1552" 
d="M1407 993c0 -47 -122 -188 -192 -188c-9 0 -19 4 -31 14c81 86 103 148 115 177c17 9 38 14 59 14c28 0 49 -9 49 -17zM1467 363c-20 -129 -30 -337 27 -429c-31 -22 -61 -30 -93 -30c-30 0 -55 14 -66 51c-12 41 -12 113 -5 196c-101 -171 -254 -324 -377 -324
c-140 0 -204 144 -165 382c23 142 61 280 80 394c-12 -20 -24 -38 -40 -59c-113 -151 -277 -245 -428 -245c-167 0 -293 95 -295 220c-1 68 46 118 136 149c-4 -153 66 -251 188 -256c119 0 326 93 435 313c20 21 54 34 93 34c38 0 59 -25 59 -71c0 -95 -84 -290 -117 -502
c-28 -176 -4 -265 73 -265c137 0 329 280 399 506c20 101 45 194 67 252c16 41 46 56 80 56c19 0 41 -5 61 -13c-29 -60 -85 -187 -112 -359z" />
    <glyph glyph-name="Ucircumflex.salt" horiz-adv-x="1552" 
d="M1101 804c-15 0 -25 9 -35 31c129 131 177 170 208 170c33 0 71 -38 167 -170c-15 -22 -27 -31 -42 -31c-36 0 -91 60 -132 140c-57 -79 -128 -140 -166 -140zM1467 363c-20 -129 -30 -337 27 -429c-31 -22 -61 -30 -93 -30c-30 0 -55 14 -66 51c-12 41 -12 113 -5 196
c-101 -171 -254 -324 -377 -324c-140 0 -204 144 -165 382c23 142 61 280 80 394c-12 -20 -24 -38 -40 -59c-113 -151 -277 -245 -428 -245c-167 0 -293 95 -295 220c-1 68 46 118 136 149c-4 -153 66 -251 188 -256c119 0 326 93 435 313c20 21 54 34 93 34
c38 0 59 -25 59 -71c0 -95 -84 -290 -117 -502c-28 -176 -4 -265 73 -265c137 0 329 280 399 506c20 101 45 194 67 252c16 41 46 56 80 56c19 0 41 -5 61 -13c-29 -60 -85 -187 -112 -359z" />
    <glyph glyph-name="Udieresis.salt" horiz-adv-x="1552" 
d="M1147 825c-32 0 -52 18 -52 48c0 41 33 69 76 69c34 0 55 -20 55 -50c0 -39 -33 -67 -79 -67zM1343 825c-32 0 -52 18 -52 48c0 41 33 69 76 69c34 0 55 -20 55 -50c0 -39 -33 -67 -79 -67zM1467 363c-20 -129 -30 -337 27 -429c-31 -22 -61 -30 -93 -30
c-30 0 -55 14 -66 51c-12 41 -12 113 -5 196c-101 -171 -254 -324 -377 -324c-140 0 -204 144 -165 382c23 142 61 280 80 394c-12 -20 -24 -38 -40 -59c-113 -151 -277 -245 -428 -245c-167 0 -293 95 -295 220c-1 68 46 118 136 149c-4 -153 66 -251 188 -256
c119 0 326 93 435 313c20 21 54 34 93 34c38 0 59 -25 59 -71c0 -95 -84 -290 -117 -502c-28 -176 -4 -265 73 -265c137 0 329 280 399 506c20 101 45 194 67 252c16 41 46 56 80 56c19 0 41 -5 61 -13c-29 -60 -85 -187 -112 -359z" />
    <glyph glyph-name="Ugrave.salt" horiz-adv-x="1552" 
d="M1310 805c-66 0 -146 128 -146 183c0 13 24 22 53 22c21 0 41 -5 55 -14c5 -29 12 -91 72 -177c-14 -10 -25 -14 -34 -14zM1467 363c-20 -129 -30 -337 27 -429c-31 -22 -61 -30 -93 -30c-30 0 -55 14 -66 51c-12 41 -12 113 -5 196c-101 -171 -254 -324 -377 -324
c-140 0 -204 144 -165 382c23 142 61 280 80 394c-12 -20 -24 -38 -40 -59c-113 -151 -277 -245 -428 -245c-167 0 -293 95 -295 220c-1 68 46 118 136 149c-4 -153 66 -251 188 -256c119 0 326 93 435 313c20 21 54 34 93 34c38 0 59 -25 59 -71c0 -95 -84 -290 -117 -502
c-28 -176 -4 -265 73 -265c137 0 329 280 399 506c20 101 45 194 67 252c16 41 46 56 80 56c19 0 41 -5 61 -13c-29 -60 -85 -187 -112 -359z" />
    <glyph glyph-name="Uhungarumlaut.salt" horiz-adv-x="1552" 
d="M1330 807c-9 0 -19 4 -31 14c82 86 103 148 115 177c17 9 38 14 59 14c28 0 49 -9 49 -17c0 -47 -122 -188 -192 -188zM1331 992c0 -47 -122 -188 -192 -188c-9 0 -19 4 -31 14c81 86 103 148 115 177c17 9 38 14 59 14c28 0 49 -9 49 -17zM1467 363
c-20 -129 -30 -337 27 -429c-31 -22 -61 -30 -93 -30c-30 0 -55 14 -66 51c-12 41 -12 113 -5 196c-101 -171 -254 -324 -377 -324c-140 0 -204 144 -165 382c23 142 61 280 80 394c-12 -20 -24 -38 -40 -59c-113 -151 -277 -245 -428 -245c-167 0 -293 95 -295 220
c-1 68 46 118 136 149c-4 -153 66 -251 188 -256c119 0 326 93 435 313c20 21 54 34 93 34c38 0 59 -25 59 -71c0 -95 -84 -290 -117 -502c-28 -176 -4 -265 73 -265c137 0 329 280 399 506c20 101 45 194 67 252c16 41 46 56 80 56c19 0 41 -5 61 -13
c-29 -60 -85 -187 -112 -359z" />
    <glyph glyph-name="Umacron.salt" horiz-adv-x="1552" 
d="M1163 806c-72 0 -95 9 -95 37c0 10 3 18 7 26c49 -3 149 -2 193 -2c43 0 84 4 117 4c42 0 57 -6 57 -23c0 -12 -7 -29 -16 -42c-27 3 -49 5 -76 5c-24 0 -51 0 -87 -2c-41 -2 -73 -3 -100 -3zM1467 363c-20 -129 -30 -337 27 -429c-31 -22 -61 -30 -93 -30
c-30 0 -55 14 -66 51c-12 41 -12 113 -5 196c-101 -171 -254 -324 -377 -324c-140 0 -204 144 -165 382c23 142 61 280 80 394c-12 -20 -24 -38 -40 -59c-113 -151 -277 -245 -428 -245c-167 0 -293 95 -295 220c-1 68 46 118 136 149c-4 -153 66 -251 188 -256
c119 0 326 93 435 313c20 21 54 34 93 34c38 0 59 -25 59 -71c0 -95 -84 -290 -117 -502c-28 -176 -4 -265 73 -265c137 0 329 280 399 506c20 101 45 194 67 252c16 41 46 56 80 56c19 0 41 -5 61 -13c-29 -60 -85 -187 -112 -359z" />
    <glyph glyph-name="Uogonek.salt" horiz-adv-x="1552" 
d="M1488 -204c8 -4 11 -10 11 -18c0 -27 -46 -53 -91 -53c-59 0 -98 33 -98 80c0 48 36 81 70 102c-20 5 -37 20 -45 48c-12 41 -12 113 -5 196c-101 -171 -254 -324 -377 -324c-140 0 -204 144 -165 382c23 142 61 280 80 394c-12 -20 -24 -38 -40 -59
c-113 -151 -277 -245 -428 -245c-167 0 -293 95 -295 220c-1 68 46 118 136 149c-4 -153 66 -251 188 -256c119 0 326 93 435 313c20 21 54 34 93 34c38 0 59 -25 59 -71c0 -95 -84 -290 -117 -502c-28 -176 -4 -265 73 -265c137 0 329 280 399 506c20 101 45 194 67 252
c16 41 46 56 80 56c19 0 41 -5 61 -13c-29 -60 -85 -187 -112 -359c-20 -129 -30 -337 27 -429c-15 -10 -29 -18 -43 -22c-41 -39 -59 -67 -59 -94c0 -26 14 -43 38 -43c17 0 37 7 58 21z" />
    <glyph glyph-name="Uring.salt" horiz-adv-x="1552" 
d="M1248 815c-53 0 -88 32 -88 81c0 59 49 101 111 101c54 0 88 -32 88 -81c0 -59 -48 -101 -111 -101zM1268 968c-31 0 -52 -29 -52 -74c0 -32 12 -50 35 -50c31 0 51 30 51 75c0 31 -12 49 -34 49zM1467 363c-20 -129 -30 -337 27 -429c-31 -22 -61 -30 -93 -30
c-30 0 -55 14 -66 51c-12 41 -12 113 -5 196c-101 -171 -254 -324 -377 -324c-140 0 -204 144 -165 382c23 142 61 280 80 394c-12 -20 -24 -38 -40 -59c-113 -151 -277 -245 -428 -245c-167 0 -293 95 -295 220c-1 68 46 118 136 149c-4 -153 66 -251 188 -256
c119 0 326 93 435 313c20 21 54 34 93 34c38 0 59 -25 59 -71c0 -95 -84 -290 -117 -502c-28 -176 -4 -265 73 -265c137 0 329 280 399 506c20 101 45 194 67 252c16 41 46 56 80 56c19 0 41 -5 61 -13c-29 -60 -85 -187 -112 -359z" />
    <glyph glyph-name="V.salt" horiz-adv-x="1969" 
d="M1858 832c98 0 121 -132 121 -224c0 -369 -368 -782 -502 -782c-26 0 -97 73 -105 108c-20 125 -21 201 -52 392c-24 148 -55 223 -92 268c-36 -35 -100 -70 -169 -89c-167 -45 -339 -33 -508 -78c-174 -47 -274 -140 -274 -253c0 -62 41 -131 75 -172
c-52 -46 -98 -63 -142 -63c-83 0 -142 74 -142 191c0 170 147 308 372 368c246 66 620 23 752 171c14 22 37 32 69 32c175 0 180 -391 214 -701c3 -37 13 -55 37 -69c114 32 350 342 350 633c0 96 -23 186 -67 247c25 16 38 21 63 21z" />
    </font>
</defs>
</svg>
