<?xml version="1.0" standalone="no"?>
<!DOCTYPE svg PUBLIC "-//W3C//DTD SVG 1.1//EN" "http://www.w3.org/Graphics/SVG/1.1/DTD/svg11.dtd" >
<svg xmlns="http://www.w3.org/2000/svg" xmlns:xlink="http://www.w3.org/1999/xlink" version="1.1">
<metadata>
Created by FontForge 20161116 at Fri Jan  1 01:00:00 1904
 By Jimmy Wärting
 !22! Soft 1992
</metadata>
<defs>
<font id="JikharevPlain" horiz-adv-x="520" >
  <font-face 
    font-family="Jikharev"
    font-weight="700"
    font-stretch="normal"
    units-per-em="1000"
    panose-1="2 11 6 4 2 2 2 2 2 4"
    ascent="800"
    descent="-200"
    x-height="417"
    cap-height="724"
    bbox="-105 -246 1202 912.034"
    underline-thickness="76"
    underline-position="-169"
    unicode-range="U+0020-2219"
  />
<missing-glyph horiz-adv-x="500" 
d="M40 667h420v-667h-420v667zM60 647v-627h380v627h-380z" />
    <glyph glyph-name=".notdef" horiz-adv-x="500" 
d="M40 667h420v-667h-420v667zM60 647v-627h380v627h-380z" />
    <glyph glyph-name="glyph1" horiz-adv-x="0" 
 />
    <glyph glyph-name="space" unicode=" " horiz-adv-x="362" 
 />
    <glyph glyph-name="exclam" unicode="!" horiz-adv-x="418" 
d="M472 727l62 -22q16 -2 15 -20q-1 -19 -77 -163.5t-120 -222.5q-9 -17 -19.5 -34t-18.5 -32q-12 -25 -23 -39q-13 -21 -45 -14q-31 3 -31 20q0 5 20 46q14 28 21 43q12 25 24.5 49t23.5 51q7 14 13 28t12.5 28t12.5 27q26 59 39 91q11 22 28 64t29 68q9 20 15.5 28t18.5 4
zM176 96l35 -1q32 0 32 -24q0 -22 -25.5 -51t-53.5 -28q-34 0 -34 25q0 21 14 50.5t32 28.5z" />
    <glyph glyph-name="quotedbl" unicode="&#x22;" horiz-adv-x="455" 
d="M405 707l33 -2q16 0 21 -8t2 -16q-1 -16 -18 -37q-7 -13 -30 -46q-57 -76 -89 -77q-7 -1 -15 3q-6 3 -14 15q-5 5 -6 10q0 5 1 6q1 6 9 14q44 49 74 123q2 8 5 10q6 5 27 5zM544 707l32 -2q28 -1 24 -24q-2 -14 -19 -37q-15 -28 -30 -46q-60 -76 -88 -77q-9 -1 -16 3
q-4 3 -15 15q-6 8 -6 10q0 5 1 6q1 7 10 14q45 51 74 123q2 8 5 10q5 5 28 5z" />
    <glyph glyph-name="numbersign" unicode="#" horiz-adv-x="1087" 
d="M563 -60h-94l86 181h-197l-86 -181h-91l84 181h-182l40 94h185l89 197h-184l43 92h184l84 183h92l-84 -183h196l85 183h92l-84 -183h184l-43 -92h-184l-88 -197h183l-43 -94h-183zM597 215l88 197h-195l-89 -197h196z" />
    <glyph glyph-name="dollar" unicode="$" horiz-adv-x="563" 
d="M192 -79l-56 22l44 88q-64 35 -108 102l72 49q22 -49 70 -78l120 248q-83 88 -80 170q2 69 53 122t136 54q23 2 56 -3l36 75l56 -22l-36 -72q10 -2 30 -14.5t38.5 -36.5t26.5 -62l-82 -16q-2 49 -44 64l-107 -221q13 -16 18 -20q55 -64 71 -95q24 -48 21 -92
q-2 -56 -39.5 -103.5t-104.5 -69.5t-150 -3zM375 438l91 188q-45 10 -83.5 -20t-41.5 -74q-4 -48 34 -94zM376 308l-111 -234q23 -8 57 -8q38 3 65.5 22.5t41 47t13.5 56.5q0 32 -21.5 65t-44.5 51z" />
    <glyph glyph-name="percent" unicode="%" horiz-adv-x="737" 
d="M643 680l61 -50q-22 -24 -73 -88.5t-117.5 -156.5t-140 -207.5t-131.5 -230.5l-98 28q80 148 227 343q30 38 45.5 57.5t43.5 55.5q31 43 60 77q10 12 21.5 26t17.5 22q16 21 18 25l-4 5q-32 -22 -81 -19q-25 2 -37 9q-6 -61 -58 -105.5t-111 -44.5q-46 2 -75 34t-26 82
q5 83 73 135.5t154 43.5v-49q-87 -11 -122.5 -57t-35.5 -89q3 -38 26 -44q19 -8 43 3t40.5 39t16.5 68q0 16 -7 37l64 33q10 -10 20 -28q33 -14 63 -10q58 5 123 56zM635 183l74 28q11 -17 14 -50q0 -46 -22 -87.5t-61.5 -68t-88.5 -25.5q-30 0 -65.5 19t-38.5 82
q-1 51 30.5 98t84.5 73t119 20l4 -48q-82 -7 -124.5 -52.5t-44.5 -92.5q0 -25 14 -38.5t32 -11.5q37 2 65.5 51t7.5 103z" />
    <glyph glyph-name="ampersand" unicode="&#x26;" horiz-adv-x="780" 
d="M697 336l70 -32q-26 -51 -74.5 -107.5t-96.5 -92.5q31 -47 87 -44q36 0 70 21l27 -65q-47 -24 -112 -24q-96 -5 -146 60q-44 -30 -98.5 -48.5t-110.5 -19.5q-59 0 -104 23.5t-69.5 66.5t-24.5 99q2 75 56.5 135.5t185.5 123.5q-16 70 -6.5 123.5t36.5 89.5t64 54t71 15
q47 -4 73.5 -36.5t24.5 -71.5q-3 -95 -165 -194q41 -152 99 -245q90 65 143 169zM371 365q-150 -80 -152 -183q0 -49 27 -85t82 -35q68 3 149 57q-70 113 -106 246zM442 474q36 19 63 53.5t27 63.5q0 17 -11.5 28.5t-26.5 11.5q-18 2 -35 -16.5t-22.5 -54.5t5.5 -86z" />
    <glyph glyph-name="quotesingle" unicode="'" horiz-adv-x="317" 
d="M405 709l32 -4q26 -1 26 -20q-2 -28 -57 -94.5t-82 -69.5q-12 0 -22.5 10t-12.5 19q0 4 1 6q1 5 9 13q35 39 66 104q1 4 8 20q5 13 11 14.5t21 1.5z" />
    <glyph glyph-name="parenleft" unicode="(" horiz-adv-x="549" 
d="M187 -205q-15 59 -15 133q3 58 17 127.5t64 175.5t148 230t262 258l44 -56q-98 -78 -182.5 -174.5t-148 -207.5t-91 -226t-8.5 -226z" />
    <glyph glyph-name="parenright" unicode=")" horiz-adv-x="549" 
d="M520 719q15 -65 14 -131q0 -50 -15 -124t-64 -180t-149.5 -232t-260.5 -257l-45 56q209 167 339.5 395t88.5 440z" />
    <glyph glyph-name="asterisk" unicode="*" horiz-adv-x="411" 
d="M378 727l41 -3q9 0 12.5 -6t0.5 -16q0 -2 -0.5 -4t-0.5 -5l-6.5 -19.5t-5.5 -15.5q-3 -13 -3 -30q-3 -9 7 -9q26 0 64 20q4 5 14 7q11 6 15 -7l10 -53q2 -18 -14 -18h-11q-11 1 -32 1q-17 0 -27 -1q-7 0 -10 -1q-2 -6 4 -9q7 -12 10.5 -15.5t5.5 -7.5q14 -18 23 -26
q10 -7 12 -11q1 -4 -10 -15l-36 -26q-4 -3 -11.5 -3.5t-12.5 10.5q-4 10 -14 44q0 5 -4.5 17t-9.5 12q-5 1 -11.5 -9t-12.5 -22q-8 -22 -13 -32q-9 -18 -25 -10l-37 24q-12 7 -8 16q1 2 3 4t2 3q7 7 18 16t16 14t10 9.5t10.5 12t5.5 9.5q0 4 -5 4q-13 6 -30 6
q-9 2 -19.5 3.5l-17.5 2.5q-6 0 -10 3q-10 2 -5 15l15 44q2 9 12 9q1 0 7 -2q7 -3 17.5 -10l19.5 -13q6 -2 10 -4l12 -6q7 -3 11 -2q1 1 1.5 3t0.5 4q2 11 0 37q-2 14 -4 23.5t-3 15.5v10q3 13 19 12z" />
    <glyph glyph-name="plus" unicode="+" horiz-adv-x="693" 
d="M119 340h232l108 231h57l-108 -231h232l-28 -58h-232l-107 -231h-57l107 231h-231z" />
    <glyph glyph-name="comma" unicode="," horiz-adv-x="361" 
d="M188 101l32 -3q26 -2 26 -20q-2 -29 -57 -95t-82 -69q-8 0 -20.5 10t-14.5 19v7l11 14q41 47 65 102q2 6 8 20q5 13 12.5 15t19.5 0z" />
    <glyph glyph-name="hyphen" unicode="-" horiz-adv-x="418" 
d="M119 205l28 39q5 12 23 16h12q18 -2 53 -2q97 6 126 11q5 1 9.5 1.5l9 1t8.5 0.5q15 0 16 -10q1 -5 -1 -13q-1 -3 -3 -7.5t-7 -16.5q-6 -9 -8.5 -14t-5.5 -9q-9 -16 -25 -20.5t-78 -5.5h-88h-44q-28 2 -29 16q0 6 2 10t2 3z" />
    <glyph glyph-name="period" unicode="." horiz-adv-x="361" 
d="M177 96l36 -1q33 0 33 -24q-2 -26 -27.5 -53t-52.5 -26q-36 0 -36 25q0 24 13.5 52t33.5 27z" />
    <glyph glyph-name="slash" unicode="/" 
d="M614 723l50 -37q-143 -175 -251 -322.5t-186 -266.5t-126.5 -200t-66.5 -114l-91 36q11 16 24 35.5t21.5 33t19.5 29.5q36 51 51.5 72.5t70.5 98.5q70 100 132 182q61 83 138 181q38 47 64 81t56 70q14 18 94 121z" />
    <glyph glyph-name="zero" unicode="0" 
d="M300 572q78 73 163 71q48 -1 81.5 -25.5t48.5 -67.5t12 -91q-6 -100 -63 -209.5t-142 -184t-165 -75.5q-52 0 -98.5 29t-46.5 133q2 90 44.5 191.5t114.5 186.5l78 -69q-47 -52 -83 -114t-53 -117t-16 -94q1 -45 21.5 -63t49.5 -18q39 1 84.5 49t87.5 123t67.5 146
t25.5 115q2 35 -14.5 57t-46.5 24q-57 1 -119 -77z" />
    <glyph glyph-name="one" unicode="1" 
d="M309 482q83 27 143.5 66t130.5 106l58 -39q-24 -42 -39.5 -69t-33.5 -54q-6 -10 -23 -38t-37 -60q-140 -230 -224 -405l-90 26q81 170 175 309q30 47 94 141q4 8 6 11.5t6 11.5q-67 -36 -146 -61z" />
    <glyph glyph-name="two" unicode="2" 
d="M445 159l63 -57q-74 -98 -155 -102q-53 -1 -120 37q-51 28 -65 32q-17 8 -30 5q-23 -3 -42 -22l-64 54q27 37 48 46.5t50 11.5q5 0 8 2q19 6 79.5 47.5t128.5 98.5t119.5 116.5t56.5 102.5q3 20 -8.5 38t-35.5 17q-73 0 -155 -143l-70 50q22 42 54.5 80t79.5 62.5
t105 23.5q75 -1 99.5 -37t24.5 -76q-1 -95 -138.5 -219.5t-271.5 -195.5q16 -6 28 -11t19 -9q16 -7 26.5 -13t24.5 -11q22 -8 37 -8q47 0 104 80z" />
    <glyph glyph-name="three" unicode="3" 
d="M39 16l21 62q77 -21 146 -10.5t121 44t81.5 76t27.5 79.5q0 57 -63 55q-18 0 -27 -4q-6 -1 -42 -14q-24 -8 -29 -10l-29 63q62 21 116 56t85 71.5t31 65.5q0 18 -9 28t-27 10q-62 0 -167 -120l-62 58q125 129 239 129q56 0 89 -27t33 -78q-1 -100 -161 -174v-11
q49 5 87.5 -19t38.5 -80q0 -58 -46 -122t-132 -107t-189 -43q-68 0 -133 22z" />
    <glyph glyph-name="four" unicode="4" 
d="M286 664l80 -40q-71 -122 -74 -177q-1 -48 46 -48q46 0 87.5 35.5t75 85t66.5 111.5l78 -47q-58 -94 -89 -149q-26 -48 -42 -78t-36 -67q-57 -110 -69 -133q-48 -104 -68 -157l-87 27q71 172 196 357l-7 4q-29 -27 -70.5 -46t-81.5 -19q-43 2 -67.5 27.5t-27.5 67.5
q-6 86 90 246z" />
    <glyph glyph-name="five" unicode="5" 
d="M37 -6l3 65q110 -19 197.5 16.5t133.5 99t43 121.5q-3 60 -61 60q-61 0 -113 -41l-58 35q45 113 53 130q8 19 21 50t19 47q14 31 29 72q149 -19 183 -10q64 2 96 42l75 -59q-52 -63 -160 -67q-65 -1 -142 9q-10 -20 -15 -32q-18 -33 -23 -49q-8 -14 -20 -42q-3 -7 -9 -19
t-9 -19l5 -4q60 27 109 27q55 0 91 -36t33 -98q-2 -74 -52.5 -143t-135 -113t-187.5 -47q-41 -1 -106 5z" />
    <glyph glyph-name="six" unicode="6" 
d="M569 673l34 -62q-64 -27 -124.5 -64t-120 -95.5t-104.5 -133.5l8 -4q60 50 128 53q44 1 74.5 -16.5t45 -48.5t14.5 -69q-1 -57 -35.5 -114t-94 -94.5t-128.5 -40.5q-77 -3 -125.5 34t-48.5 108q0 84 59 190.5t169 203t249 153.5zM267 48q43 1 80.5 33.5t57 77t18.5 76.5
q0 29 -21 46.5t-50 14.5q-54 -3 -105 -55t-56 -106q-3 -39 18.5 -63.5t57.5 -23.5z" />
    <glyph glyph-name="seven" unicode="7" 
d="M391 300q74 0 124 -31l-27 -55q-73 23 -147 9q-63 -76 -151 -242l-94 38q36 60 122 182q-13 28 -13 53q1 19 35 32t63 15q133 156 241 259l-4 8q-108 -47 -187 -47q-64 0 -105 20.5t-52.5 54.5t8.5 70l85 -11q-6 -25 17 -43t92 -15q97 6 181 46l55 -50z" />
    <glyph glyph-name="eight" unicode="8" 
d="M389 672l43 -67q-47 -27 -74 -56.5t-30 -70.5q-2 -40 24 -100q30 12 74.5 39t78 56.5t34.5 50.5q1 15 -13.5 26t-36.5 12q-14 1 -30 -2l-3 74q84 18 133.5 -21.5t46.5 -92.5q-1 -60 -59.5 -102.5t-190.5 -114.5q45 -102 42 -150q0 -71 -59.5 -115t-140.5 -46
q-87 -1 -128 39t-43 90q0 62 61.5 115.5t160.5 101.5q-40 89 -44 137q-12 115 154 197zM310 261q-18 -10 -26 -15q-25 -15 -33 -21q-90 -53 -89 -102q0 -23 17.5 -39.5t49.5 -16.5q39 0 77.5 24t39.5 65q2 32 -36 105z" />
    <glyph glyph-name="nine" unicode="9" 
d="M125 -24l-33 63q64 27 125 64t119.5 93.5t104.5 134.5l-10 3q-64 -52 -127 -52q-66 -3 -100.5 36.5t-32.5 98.5q2 58 36 114.5t93 94.5t128 41q78 3 126.5 -34.5t48.5 -110.5q0 -63 -33.5 -139t-96 -152.5t-152 -143.5t-196.5 -111zM427 602q-44 -1 -80.5 -33.5t-57 -76
t-18.5 -78.5q2 -31 21 -47t51 -14q33 1 70 27t62.5 63.5t28.5 69.5q3 24 -6 45.5t-28.5 33t-42.5 10.5z" />
    <glyph glyph-name="colon" unicode=":" horiz-adv-x="361" 
d="M308 385l35 -1q32 0 32 -24q0 -26 -24.5 -54t-54.5 -27q-36 0 -36 28q0 23 14.5 51t33.5 27zM177 96l36 -1q33 0 33 -24q-2 -26 -27.5 -53t-52.5 -26q-36 0 -36 25q0 24 13.5 52t33.5 27z" />
    <glyph glyph-name="semicolon" unicode=";" horiz-adv-x="361" 
d="M308 385l35 -1q32 0 32 -24q0 -26 -24.5 -54t-54.5 -27q-36 0 -36 28q0 23 14.5 51t33.5 27zM190 101l30 -3q26 -2 26 -20q-2 -29 -57 -95t-82 -69q-6 0 -19.5 10t-15.5 19v7l11 14q37 40 65 102q2 6 8 20q5 13 13 15t21 0z" />
    <glyph glyph-name="semicolon" horiz-adv-x="361" 
d="M308 385l35 -1q32 0 32 -24q0 -26 -24.5 -54t-54.5 -27q-36 0 -36 28q0 23 14.5 51t33.5 27zM190 101l30 -3q26 -2 26 -20q-2 -29 -57 -95t-82 -69q-6 0 -19.5 10t-15.5 19v7l11 14q37 40 65 102q2 6 8 20q5 13 13 15t21 0z" />
    <glyph glyph-name="less" unicode="&#x3c;" horiz-adv-x="723" 
d="M123 396l669 304l8 -68l-595 -270l343 -269l-71 -69l-385 304z" />
    <glyph glyph-name="equal" unicode="=" horiz-adv-x="693" 
d="M248 441h520l-26 -57h-521zM167 268h520l-26 -57h-520z" />
    <glyph glyph-name="greater" unicode="&#x3e;" horiz-adv-x="723" 
d="M755 335l-668 -304l-7 68l592 269l-341 271l70 67l385 -304z" />
    <glyph glyph-name="question" unicode="?" horiz-adv-x="447" 
d="M294 526l-42 25q-12 7 -12 18q-3 23 31.5 61.5t83 67.5t92.5 29q55 -2 102 -39.5t44 -111.5q-2 -75 -73 -136q-21 -17 -41.5 -32t-42.5 -30q-99 -68 -147 -160q-4 -8 -14 -24q-5 -11 -13 -13q-5 -3 -11.5 -1.5t-13.5 2.5q-15 3 -17 4q-9 2 -11 10q-8 34 40.5 107.5
t144.5 148.5q10 8 19.5 16t19 15.5t18.5 15.5q55 53 51 99q-5 52 -53 52q-63 4 -125 -113q-2 -9 -7 -12q-4 -5 -9 -5q-5 -1 -14 6zM176 96l35 -1q32 0 32 -24q0 -22 -25.5 -51t-53.5 -28q-34 0 -34 25q0 21 14 50.5t32 28.5z" />
    <glyph glyph-name="at" unicode="@" horiz-adv-x="924" 
d="M588 -98q-63 -34 -116.5 -48t-111.5 -15q-90 -3 -151.5 29t-92 96.5t-24.5 151.5t50 198q41 103 108 192.5t146 152t169.5 98.5t171.5 35q109 0 171.5 -44.5t82.5 -116.5t7.5 -156t-46.5 -161q-50 -119 -133 -188.5t-168 -71.5q-28 0 -48.5 9.5t-19.5 51.5h-5
q-59 -72 -160 -69q-63 4 -106 51.5t17 202.5q29 70 73 126t99 89.5t110 36.5q92 4 100 -73h5l4 25l11 28h90l-129 -322q-18 -45 -14 -59.5t25 -14.5q52 0 101.5 51.5t78.5 126.5q37 87 43 162t-17.5 130.5t-74.5 85t-125 28.5q-144 -2 -287 -117t-211 -289
q-39 -102 -40.5 -179t26.5 -127t77 -74t114 -24q96 1 194 60zM634 297q15 37 23 74t-3.5 66.5t-55.5 29.5q-53 1 -101 -46t-77 -124q-30 -77 -21 -122.5t64 -44.5q65 0 111.5 62.5t59.5 104.5z" />
    <glyph glyph-name="A" unicode="A" horiz-adv-x="687" 
d="M757 732l91 -42l-165 -375h61l-28 -61l-57 2l-90 -262l-100 20l95 242l-132 -2q-63 -81 -120 -140.5t-109.5 -90t-100.5 -29.5q-42 3 -65.5 26t-22.5 63q2 36 21 81.5t38 34.5l58 -32q9 -5 11 -13q2 -3 0 -9q-1 -5 -12 -24q-10 -13 -7 -24q4 -15 24 -15q21 0 49 19
q22 16 55 53l23.5 23.5t26.5 28.5q10 11 18 20t22 23q-41 -1 -121 -22l33 68q8 15 22 15l122 8q25 30 54.5 65t45.5 54q76 90 115 136q43 49 145 159zM482 318h112q6 14 16.5 37.5t19.5 43.5q30 62 46 93q12 25 20.5 41.5t28.5 57.5q3 4 3.5 6t4.5 10l-10 5q-6 -7 -12 -12
q-26 -32 -37.5 -46t-18.5 -23q-28 -34 -43 -52l-45 -54q-56 -72 -85 -107z" />
    <glyph glyph-name="B" unicode="B" horiz-adv-x="641" 
d="M430 701l82 -42l-74 -129l7 -5q68 66 131 109.5t126 39.5q34 0 60 -22.5t23 -70.5q-3 -58 -41.5 -104.5t-96.5 -80t-118 -49.5v-9q70 7 98.5 -28t26.5 -78q-2 -52 -44.5 -111.5t-118 -101t-165.5 -41.5q-67 0 -109 21l31 54q50 -13 102.5 -3.5t96.5 37t70.5 64t28.5 76.5
q3 27 -11 50t-52 26q-17 0 -61 -9l-17 59q128 42 202 100t74 105q0 33 -32 34q-45 0 -111 -53t-129.5 -126.5t-90.5 -118.5q-30 -49 -57 -99q-74 -135 -111 -198l-93 22q18 31 48 85.5t56 100.5q38 67 67 120.5t48 87.5q38 66 61 106.5t51 92.5q14 29 42 89z" />
    <glyph glyph-name="C" unicode="C" horiz-adv-x="547" 
d="M535 135l-23 -71q-40 -29 -97 -49t-107 -20q-77 3 -126 55t-52 151q-1 98 40 189.5t113.5 169t152 120t152.5 40.5q59 0 97 -31t35 -81q0 -37 -21 -71t-53 -62t-62 -45l-75 44q54 35 88 74t36 67q0 16 -12.5 28.5t-37.5 13.5q-43 1 -105.5 -39.5t-118 -105t-93.5 -146.5
t-39 -165q0 -141 125 -134q82 3 183 68z" />
    <glyph glyph-name="D" unicode="D" horiz-adv-x="657" 
d="M562 531q-34 -41 -62.5 -83.5t-59.5 -99.5q-70 -128 -89 -157q-46 -70 -81 -94q-5 -3 -5 -6q2 -6 32 -16.5t54 -10.5q61 0 124.5 62t105 151.5t47.5 168.5q6 93 -33 142t-100 52q-99 0 -195 -150l-81 57q39 50 78 85.5t90 58t108 21.5q99 0 162.5 -77.5t63.5 -192.5
q0 -108 -51.5 -211.5t-134 -169.5t-171.5 -66q-31 0 -68 10q-12 4 -24.5 8.5t-22.5 7.5q-9 6 -23 11.5t-27 10.5q-54 -38 -116 -44q-50 -5 -56 13l-12 38q-7 26 46.5 50t101.5 24q20 -2 22 -3h5q13 1 45 48.5t45 73.5l35 66.5t26 46.5q66 119 156 212z" />
    <glyph glyph-name="E" unicode="E" horiz-adv-x="559" 
d="M518 210l60 -66q-157 -148 -291 -150q-80 0 -123.5 40t-48.5 91q-4 51 38 112t166 110v9q-43 -1 -63.5 15.5t-27 37.5t-6.5 38q-1 73 53.5 137.5t136 104.5t147.5 38q58 -2 96.5 -33t34.5 -83q-5 -63 -50 -108l-75 53q26 31 32 60q3 17 -8.5 30.5t-30.5 13.5
q-35 2 -95 -36.5t-106 -92.5t-43 -96q5 -36 46 -36q40 0 96 29l32 -58l-20 -10q-18 -10 -45 -23q-91 -50 -148 -109t-57 -109q0 -56 56 -60q58 -3 120.5 42t123.5 109z" />
    <glyph glyph-name="F" unicode="F" horiz-adv-x="546" 
d="M792 704l-30 -71q-6 0 -10.5 0.5t-13.5 0.5h-71q-26 0 -38 -4q-7 -2 -15 -11q-24 -34 -59 -98q-18 -32 -71 -133q108 9 173 -13l-51 -80q-8 8 -53.5 21t-102.5 3q-52 -96 -94 -162t-104.5 -116t-136.5 -47q-31 3 -71.5 28.5t-43.5 41.5q-1 10 6 17l46 49q3 5 10 5
q5 0 9 -5q2 0 3 -2l2 -4q35 -40 74 -40q40 0 84 49q36 40 80 132q8 14 12.5 23l9.5 19q-59 -16 -88 -33l-35 60q60 27 160 41q36 66 88 151q16 24 28 40.5t19 27.5q5 7 11 16.5t10 15.5q-123 -18 -262 -117l-50 82q81 52 171.5 78.5t185 33t218.5 1.5z" />
    <glyph glyph-name="G" unicode="G" horiz-adv-x="589" 
d="M662 480l-74 49q24 18 40.5 42t16.5 44q2 14 -11.5 27.5t-36.5 14.5q-43 1 -106 -36.5t-118 -96t-93.5 -136.5t-39.5 -151q0 -108 87 -116q46 -3 91 23.5t78 77t43 115.5l91 -4q-22 -122 -65.5 -240.5t-121 -206.5t-186.5 -88q-49 0 -88.5 24t-61.5 52.5t-20 39.5
q0 5 10 13l55 32q9 5 12 4q5 0 9 -4q7 -7 8 -12q6 -12 6 -13q15 -29 22 -36q26 -33 68 -33q43 0 78.5 31.5t72.5 96.5q23 34 55 98q7 10 23 40l-12 7q-63 -81 -163 -89q-84 -5 -135 45t-53 143q-1 90 40 175t112.5 156.5t153.5 112t152 39.5q58 0 95.5 -30.5t36.5 -81.5
q-1 -71 -71 -128z" />
    <glyph glyph-name="H" unicode="H" horiz-adv-x="659" 
d="M687 135l-28 -77q-33 -20 -83.5 -39t-77.5 -19q-25 0 -43.5 17t-19.5 51q-1 32 19 86t83 184q-93 2 -181 -16l-28 -52t-29 -53q-5 -10 -25.5 -50t-35.5 -70q-19 -34 -55 -100l-96 27q43 78 52 92q46 84 55 98q15 27 22 40.5t12 24.5q3 5 15 29q-53 -10 -93 -32
q-12 -4 -10 -4q-17 5 -11 19l19 52q5 15 31.5 24.5t105.5 20.5q7 13 13 26t12.5 26l12.5 25q28 53 47 93q52 106 85 165l84 -45q-69 -123 -148 -281q86 8 169 5q9 0 10 1q3 1 4 5q14 24 29 52t18 34q9 15 53 89q56 90 82 126l73 -50q-23 -38 -47 -75q-15 -22 -32.5 -51
t-28.5 -46q-16 -30 -26.5 -48t-22.5 -40q33 -2 49 -5l-25 -63q-10 2 -16 3t-14 2q-5 0 -10 0.5t-11 -0.5q-1 -1 -2.5 -1.5t-2.5 -1.5q-4 -2 -6 -9q-30 -58 -38 -75q-51 -104 -51 -142q0 -23 23 -23q34 3 119 51z" />
    <glyph glyph-name="I" unicode="I" horiz-adv-x="447" 
d="M597 691l38 -58q-89 -88 -133 -197q-9 -23 -18 -45.5t-18 -45.5q-53 -134 -108 -211.5t-109.5 -109.5t-109.5 -34q-22 0 -73 18.5t-52 32.5q0 6 2 8l44 65q4 5 9 7h4q1 0 2.5 -0.5t2.5 -0.5q4 -1 6 -6q41 -48 87 -46q39 1 68 33t47.5 71.5t46.5 106.5q42 97 55 126
q37 89 71 137.5t87 77.5l-4 10q-52 -10 -82 -10q-20 0 -43 5q-5 2 -13.5 4t-17.5 4q-8 2 -17 4t-16 2q-43 2 -73 -33l-58 80q48 41 119 38q16 0 54 -6q27 -8 57 -16q57 -15 85.5 -17.5t59.5 6.5z" />
    <glyph glyph-name="J" unicode="J" horiz-adv-x="447" 
d="M596 691l39 -58q-80 -78 -155 -245q-12 -27 -55 -140q-60 -146 -107.5 -237t-112.5 -150.5t-150 -62.5q-23 0 -72.5 19t-50.5 33q-2 4 1 7l46 65q4 9 9 9q1 1 4 0q2 0 3 -2q3 -1 6 -7q43 -47 86 -45q68 3 122 122q16 34 29.5 64.5t31.5 71.5q34 76 51 116
q14 32 29.5 68.5t24.5 55.5q51 115 86 166t85 79l-5 10q-50 -10 -81 -10q-20 0 -43 5q-5 2 -13.5 4t-17.5 4q-8 2 -18 4t-15 2q-43 2 -73 -33l-60 80q50 41 121 38q16 0 54 -6q27 -8 57 -16q55 -15 85 -17.5t59 6.5z" />
    <glyph glyph-name="K" unicode="K" horiz-adv-x="629" 
d="M411 690l86 -49l-144 -256q17 17 35 17q1 0 28 -3q37 0 81 16.5t113.5 90t139.5 212.5l86 -44q-83 -157 -177 -228.5t-171 -90.5q-30 -7 -34 -9q-22 -9 -26 -33q-6 -31 4.5 -89t34 -102.5t53.5 -47.5q43 -1 135 66l-26 -76q-76 -63 -136 -64q-43 0 -75 29.5t-52.5 84
t-26.5 117.5t2 133l-188 -375l-96 27z" />
    <glyph glyph-name="L" unicode="L" horiz-adv-x="547" 
d="M487 133l71 -38q-45 -109 -154 -110q-24 0 -54 7q-15 3 -30 6.5t-27 6t-32 6.5q-35 8 -67 8q-35 0 -69 -6.5t-90 -24.5l-21 61q50 17 84 61.5t73 133.5q13 28 25.5 59t24.5 61.5t25 58.5q32 81 69 147.5t90 111t126 45.5q76 1 111 -39.5t35 -95.5q1 -88 -80 -162l-76 44
q72 50 73 117q0 37 -20 51.5t-48 12.5q-54 -1 -95 -66q-15 -23 -45 -92q-12 -29 -25.5 -60t-26.5 -61q-17 -38 -30.5 -68t-29.5 -62q-47 -93 -112 -160l5 -8q32 14 58.5 17.5t35.5 4.5q41 0 77 -10q58 -17 73 -17q49 0 76 60z" />
    <glyph glyph-name="M" unicode="M" horiz-adv-x="908" 
d="M932 135l-24 -71q-26 -24 -70 -48t-76 -23q-66 7 -61 83q4 46 53 142l-6 5q-9 -9 -27 -28q-33 -39 -81 -89q-114 -112 -172 -112q-28 0 -44.5 17.5t-19.5 50.5q0 62 59 180l-7 2q-5 -5 -6 -7q-7 -7 -10 -13q-124 -142 -203.5 -184.5t-131.5 -46.5q-48 0 -69.5 24.5
t-21.5 56.5q0 41 30.5 90t51.5 35l52 -37q6 -4 6 -12q0 -3 -1 -6q-2 -2 -3 -3.5t-6 -6.5q-15 -20 -15 -33q0 -23 23 -25q34 0 88.5 36.5t125.5 115.5t150.5 198.5t163.5 285.5l84 -49q-3 -7 -7 -14t-7.5 -14.5t-7.5 -14.5q-27 -49 -73 -130q-165 -301 -168 -371
q0 -26 16 -27q31 -3 126.5 100.5t143.5 171.5q13 18 29.5 45.5t38.5 63.5q26 47 59 101q10 17 24.5 42.5t27.5 49.5l86 -51q-33 -56 -95 -163t-109.5 -204.5t-47.5 -136.5q0 -28 27 -29q20 0 50 16t55 37z" />
    <glyph glyph-name="N" unicode="N" horiz-adv-x="620" 
d="M399 718l91 -12q4 -119 7 -176l4 -102t2 -102q1 -44 1 -131l12 -1q22 73 51.5 147t74 159.5t95 156t99.5 114.5l102 -42q-102 -76 -171.5 -175.5t-123 -222t-130.5 -333.5l-91 9q-4 66 -7 182t-3.5 184t-0.5 129l-12 4q-80 -298 -185 -405.5t-190 -122.5l-38 85
q99 18 167 96.5t117.5 201.5t128.5 357z" />
    <glyph glyph-name="O" unicode="O" horiz-adv-x="630" 
d="M738 625l-64 -58q-46 73 -107 74q-63 1 -145 -73t-139.5 -181t-57.5 -201q1 -61 30.5 -89.5t63.5 -30.5q45 -2 99 35.5t99.5 106t70 161t14.5 193.5l104 -63q0 -114 -56 -232.5t-148 -196t-190 -76.5q-83 3 -132.5 62t-49.5 150q0 107 66.5 227t168 198.5t203.5 78.5
q104 0 170 -85z" />
    <glyph glyph-name="P" unicode="P" horiz-adv-x="620" 
d="M186 522q156 195 387 185q59 -3 105.5 -26.5t69 -64.5t18.5 -89q-7 -70 -68 -133.5t-166 -84.5l-37 53q70 18 119.5 65t53.5 100q3 33 -13 63.5t-48 40.5q-61 -71 -100 -159q-7 -17 -23 -51t-23 -51q-7 -16 -14.5 -32.5l-15 -33t-15.5 -33.5q-37 -81 -63 -121
q-101 -155 -239 -155q-58 0 -99 36q-5 5 -9 8q-5 7 -6 9q-2 8 5 15l36 47q6 10 13 10q1 -1 4 -1q2 -2 4 -3.5t2 -4.5q32 -38 79 -38q38 0 81.5 40.5t103.5 175.5q22 48 38 84t27 59q64 130 110 176q3 4 21 22q4 8 10 11q-136 5 -286 -176z" />
    <glyph glyph-name="Q" unicode="Q" horiz-adv-x="630" 
d="M738 626l-64 -58q-45 73 -107 75q-61 1 -143 -72.5t-140.5 -181t-58.5 -202.5q2 -65 42.5 -100t97.5 -13q-21 30 -67 59l38 57q62 -37 94 -80q68 60 108.5 135t56 156.5t7.5 160.5l104 -61q0 -37 -13 -110t-65 -170t-155 -168q65 -80 104 -195l-78 -50
q-10 46 -36.5 105.5t-57.5 101.5q-43 -20 -93 -20q-83 3 -132.5 62.5t-49.5 150.5q0 107 66 226t168 198t204 79q105 0 170 -85z" />
    <glyph glyph-name="R" unicode="R" horiz-adv-x="766" 
d="M262 465l-62 57q156 194 388 185q109 -4 171.5 -57t60.5 -125q0 -65 -58.5 -120t-163.5 -81q0 -123 17.5 -191t64.5 -64q17 2 39 17q12 7 22.5 14t22.5 14q18 12 28 20l-25 -77q-79 -59 -136 -59q-48 -1 -76 43t-38 102t-10.5 125.5t-0.5 82.5q118 19 166.5 67t48.5 98
q3 39 -22.5 73t-77.5 42q-56 -65 -100 -159q-7 -17 -20.5 -46.5t-25.5 -55.5q-55 -123 -97.5 -198t-105 -126t-143.5 -51q-59 0 -99 36q-2 2 -10 8q-5 7 -6 9q-3 7 5 15l36 47q6 10 13 10q1 -1 4 -1l3.5 -3.5t3.5 -4.5q12 -10 30.5 -24t47.5 -14q23 0 48 13t60.5 60.5
t77.5 142.5q42 96 64 143q64 130 110 176l5.5 5.5l8.5 8.5l8 8q7 10 10 11q-135 5 -287 -176z" />
    <glyph glyph-name="S" unicode="S" horiz-adv-x="497" 
d="M29 133l91 54q14 -48 49 -81t88 -32q65 3 106 42t39 88q-4 27 -12 44q-8 18 -52 71q-41 47 -63.5 87t-25.5 93q-3 88 57.5 153.5t156.5 71.5q81 4 127.5 -37t52.5 -110l-96 -37q5 35 -10 72t-68 37q-54 0 -93 -37t-35 -97q6 -63 71 -136q59 -65 75 -99q14 -38 15 -62
q5 -85 -73 -153.5t-192 -70.5q-59 0 -113.5 26t-94.5 113z" />
    <glyph glyph-name="T" unicode="T" horiz-adv-x="933" 
d="M1202 696l-29 -67q-221 20 -383 19q-27 -1 -68.5 -3t-95.5 -6q-59 -91 -138 -249q-20 -39 -40 -78.5t-43 -78.5q-133 -240 -280 -238q-42 3 -82.5 28t-42.5 44q0 5 7 14l39 37q9 7 13 7q8 1 14 -7q4 -4 9.5 -10.5t9.5 -11.5q25 -24 53 -24q34 0 72 34q46 41 100 145
q148 283 217 378q-108 -22 -257 -116l-45 76q65 43 138.5 69.5t171 40.5t230.5 15q74 2 185 -2t245 -16zM846 612q-55 -68 -109 -175q-8 -15 -36 -73t-49 -102q-42 -78 -60 -114q-41 -73 -58 -100q-13 -20 -33 -48l-89 19q45 55 105 163q8 14 35.5 69t47.5 96
q99 198 149 263zM1060 596q-19 -26 -86 -142.5t-119.5 -219.5t-52.5 -125q0 -35 34 -35q17 1 124 47l-27 -67q-108 -58 -161 -56q-67 2 -70 68q0 24 14 65.5t62.5 135.5t134.5 239q12 20 26 42.5t21 34.5q7 14 11 20z" />
    <glyph glyph-name="U" unicode="U" horiz-adv-x="634" 
d="M398 718l82 -51l-177 -321q-109 -196 -99 -216q0 -20 20 -20q42 0 178.5 138.5t183.5 211.5q20 30 40 65t32 54q38 64 56 95l80 -52q-30 -48 -99 -165t-119.5 -217t-50.5 -130q0 -27 30 -27q47 6 104 52l-25 -71q-69 -74 -136 -70q-75 0 -73 72q0 32 18 80.5t36 80.5
l-5 7q-56 -59 -109.5 -107.5t-114 -88.5t-101.5 -41q-39 -1 -50.5 23t-11.5 46q0 31 35.5 120.5t152.5 306.5q16 30 35 64.5t29 53.5q25 45 34.5 62.5t24.5 44.5z" />
    <glyph glyph-name="V" unicode="V" horiz-adv-x="438" 
d="M249 720l106 -25q-14 -96 -25.5 -163.5t-14.5 -85.5q-11 -74 -19 -123q-3 -20 -10 -70q-2 -14 -3.5 -21.5l-3.5 -17.5l11 -4q3 4 20 39q24 46 41 74q117 213 270 393l77 -54q-66 -72 -125 -147.5t-121 -170t-110.5 -183t-87.5 -171.5l-82 22q10 87 11 99q3 29 9 85t8 84
q26 276 49 440z" />
    <glyph glyph-name="W" unicode="W" horiz-adv-x="753" 
d="M565 215l12 -5q44 89 129 217t226 289l81 -54q-137 -131 -270 -319.5t-197 -352.5l-85 24q24 149 38 258t17 153l-9 3q-38 -53 -47 -67t-21.5 -31.5t-36.5 -53.5q-105 -160 -142 -286l-88 22q2 14 4.5 35.5t4.5 39.5q5 51 10 123q8 91 11 142q4 48 6 77.5t5 65.5
q2 25 3.5 54t2.5 45q5 63 6 127l106 -26q-7 -55 -12 -95q-3 -27 -5 -51t-6 -57q-11 -98 -16 -131q-4 -37 -7.5 -63t-7.5 -44q-1 -14 -5 -39l10 -4q54 111 116 197q19 29 32.5 46.5t37.5 49.5q6 9 18 25t17 24q12 14 21 23l3 109l66 -11l19 11l81 -55l-86 -91q-2 -26 -4 -46
t-3 -34q-4 -34 -14 -104q-10 -84 -13 -101q-2 -8 -4 -19.5t-4 -19.5z" />
    <glyph glyph-name="X" unicode="X" horiz-adv-x="666" 
d="M692 135l-26 -73q-68 -62 -132 -62q-62 -1 -92 59t-37 132q-73 -71 -129 -118.5t-105 -75.5t-90 -27q-28 0 -54 20t-27 63q0 27 19.5 71t35.5 44q6 2 14 -5l45 -27q12 -7 12 -18q0 -5 -2 -9q-2 -3 -4 -5.5t-4 -5.5q-6 -8 -6 -22q0 -20 21 -23q21 -1 86 51q8 6 35.5 30
t47.5 42q22 20 40.5 36.5t28.5 26.5q6 5 11.5 10.5t11 10.5t10.5 10q1 98 12.5 187t24.5 145.5t33 120.5l97 -40q-64 -175 -70 -321q116 121 323 306l76 -47q-9 -6 -15.5 -11t-21.5 -16q-18 -14 -35.5 -27t-39.5 -30q-62 -50 -82 -69q-19 -15 -30 -25t-30 -27
q-26 -22 -45.5 -40t-31.5 -28l-36 -33t-36 -35q-3 -71 10.5 -138.5t67.5 -63.5q25 1 60 19t59 38z" />
    <glyph glyph-name="Y" unicode="Y" horiz-adv-x="559" 
d="M357 725l84 -45q-126 -218 -122 -275q2 -29 29 -29q55 0 144 97.5t154 206.5l86 -45q-53 -96 -104 -199q-20 -42 -31 -67t-29 -61q-51 -107 -97.5 -174t-103 -102.5t-129.5 -36.5q-45 0 -83.5 23.5t-61.5 52.5t-21 40q0 7 11 10l55 35l12 3q6 0 9 -3q2 -2 7 -12
q6 -11 6 -13q20 -33 23 -36q22 -31 65 -31q44 0 81.5 35.5t62 78.5t73.5 136q7 14 39 76q9 14 21 37l-8 8q-46 -57 -112.5 -102t-122.5 -42q-74 3 -74 80q0 47 28 123t109 231z" />
    <glyph glyph-name="Z" unicode="Z" horiz-adv-x="556" 
d="M578 620l-5 6q-84 -39 -159 -43q-46 -1 -82.5 22t-45 61t14.5 77l89 -13q-12 -29 10 -51t78 -17q80 5 162 57l61 -55q-95 -90 -237 -274q35 3 74 -4t39 -22q1 -7 -8 -23q-2 -5 -3.5 -7.5t-6.5 -12.5q-6 -11 -9 -13q-4 -1 -11 -1q-15 1 -44 5q-35 4 -93 1q-14 -17 -37 -44
q-13 -16 -32.5 -36.5t-29.5 -31.5q-29 -33 -65 -66q-29 -27 -62 -49l6 -8q49 22 104 23q40 1 84 -10q18 -6 31.5 -10t25 -6.5t24.5 -2.5q54 0 78 61l72 -38q-45 -109 -154 -110q-23 0 -53 7q-15 3 -30 6.5t-30 6.5l-30 6q-35 8 -67 8q-62 0 -158 -31l-36 61q22 15 66 52
q13 12 31 31.5t41 44.5q30 38 59 71q13 15 39 47q-14 49 14 76t69 20q80 104 126 151.5t90 77.5z" />
    <glyph glyph-name="bracketleft" unicode="[" 
d="M693 712l-43 -78q-62 15 -129 11l-277 -743q-13 -39 7 -49t59 -10q29 0 54 4l-21 -56q-9 -1 -19 -1t-15 -1q-19 -3 -38 -3q-5 0 -15 -1t-19 -2q-91 0 -93 68q0 27 12 51l280 737l-14 -4l-15 57q59 25 137 31q76 3 149 -11z" />
    <glyph glyph-name="backslash" unicode="\" horiz-adv-x="723" 
d="M98 608l65 34l454 -848l-64 -34z" />
    <glyph glyph-name="bracketright" unicode="]" horiz-adv-x="577" 
d="M0 -206l43 77q65 -14 129 -10l277 744q13 38 -7 48t-58 10q-29 0 -56 -4l23 55q25 3 34 4q6 1 16.5 1.5t19.5 0.5q6 1 11 1t12.5 0.5t11.5 1.5q47 0 70 -19t23 -49q1 -19 -10 -50l-282 -738l13 3l16 -57q-57 -24 -136 -30q-78 -2 -150 11z" />
    <glyph glyph-name="asciicircum" unicode="^" horiz-adv-x="544" 
d="M170 766h203l109 -151h-80l-131 112l-131 -112h-80z" />
    <glyph glyph-name="underscore" unicode="_" horiz-adv-x="544" 
d="M-94 -202l40 87h544l-40 -87h-544z" />
    <glyph glyph-name="underscore" unicode="&#xad;" horiz-adv-x="544" 
d="M-94 -202l40 87h544l-40 -87h-544z" />
    <glyph glyph-name="grave" unicode="`" horiz-adv-x="317" 
d="M346 522l-33 3q-24 1 -24 21q2 19 28 57t59.5 71.5t49.5 34.5q10 1 22.5 -9t14.5 -19q0 -5 -2 -7q-1 -6 -9 -14q-41 -43 -66 -104l-3.5 -7t-4.5 -10q-5 -11 -10 -14.5t-10.5 -3t-11.5 0.5z" />
    <glyph glyph-name="a" unicode="a" horiz-adv-x="495" 
d="M441 384l74 -39l-92 -179q-23 -47 -23 -61q0 -18 13 -18q12 0 55.5 20.5t52.5 27.5l-22 -71q-87 -64 -135 -64q-23 0 -39 12.5t-18 36.5q-3 16 16 58l2 4t2 5q2 4 4 7l-5 1l-4 -4l-8 -8q-49 -54 -99.5 -83.5t-89.5 -28.5q-31 2 -57 27t-25 77q3 56 53.5 125t120.5 119
t124 51q56 1 87 -38zM408 321q-18 22 -47 22q-36 0 -85 -38.5t-87.5 -91t-41.5 -88.5q-4 -40 29 -43q21 -3 61 24.5t74.5 62t44.5 53.5z" />
    <glyph glyph-name="b" unicode="b" horiz-adv-x="446" 
d="M126 88q12 -15 26.5 -21.5t37.5 -6.5q30 3 62.5 25.5t66.5 60.5t52.5 74t18.5 64q0 39 -33 39q-42 3 -109.5 -64t-121.5 -171zM5 17q12 24 21.5 44t23.5 50q61 140 76 179q16 34 76 176q19 46 47 116q4 8 12 26.5t9 21.5l83 -28l-143 -303l10 -5q109 117 182 117
q38 -2 64 -28.5t23 -75.5q-1 -69 -51.5 -143.5t-123 -122.5t-133.5 -44q-56 3 -77 46l-25 -44z" />
    <glyph glyph-name="c" unicode="c" horiz-adv-x="361" 
d="M386 243l-67 39q8 14 10 21q7 9 5 16q-3 18 -21 15q-26 -1 -68 -39.5t-71.5 -90.5t-25.5 -94q4 -38 42 -38q30 -1 67 12q38 14 56 21q53 21 73 30l-24 -71q-31 -13 -54 -23q-63 -24 -79 -29q-40 -13 -85 -12q-97 3 -101 97q-3 68 49.5 142t130 123t137.5 46
q35 -1 54.5 -23.5t16.5 -55.5q-5 -47 -45 -86z" />
    <glyph glyph-name="d" unicode="d" horiz-adv-x="515" 
d="M428 361q60 133 117 269l88 -28q-5 -12 -18 -40t-14 -30q-13 -27 -77 -158q-118 -249 -116 -274q0 -16 14 -16q7 2 17 5t25 9q6 3 34 16q10 6 22 11t19 9l-22 -71q-111 -63 -153 -63q-20 0 -35.5 13t-16.5 36q-4 29 24 72l-8 4l-3.5 -3.5l-3.5 -3.5q-17 -20 -21 -23
q-95 -100 -175 -95q-30 2 -56.5 26t-25.5 78q1 58 53 129t125.5 120t129.5 46q46 -1 77 -38zM408 321q-18 22 -47 22q-36 0 -88.5 -41t-89.5 -95.5t-36 -91.5q2 -38 36 -33q38 3 85 45t85 96t55 98z" />
    <glyph glyph-name="e" unicode="e" horiz-adv-x="355" 
d="M21 130l24 15q18 52 52 97t82 82.5t93.5 56t84.5 18.5q38 0 59.5 -18.5t23.5 -47.5q2 -55 -65.5 -111t-235.5 -101q-6 -23 10.5 -38.5t49.5 -14.5q37 1 90 21.5t89 43.5l-22 -69q-40 -25 -100 -44.5t-109 -19.5q-44 2 -75 28t-31 60l-41 -25zM158 182q72 20 128.5 60.5
t56.5 70.5q0 18 -19 18q-34 4 -87.5 -45t-78.5 -104z" />
    <glyph glyph-name="f" unicode="f" horiz-adv-x="253" 
d="M185 362q-62 -6 -116 -19l13 62q40 10 123 17l33 76q30 74 65.5 110t96.5 35q45 -1 72.5 -28.5t26.5 -73.5q0 -24 -7 -46l-88 -3q10 22 10 42q0 31 -28 31q-25 1 -36.5 -16t-30.5 -59l-25 -64q72 4 134 -10l-42 -63q-55 15 -117 9q-52 -117 -63 -142q-15 -36 -28.5 -66
t-33.5 -80q-12 -27 -51 -123q-28 -67 -53 -134q-18 -47 -23 -63l-96 19q21 42 30 64q37 79 60 139q22 49 36 79.5t34 73.5q60 136 104 233z" />
    <glyph glyph-name="g" unicode="g" horiz-adv-x="464" 
d="M463 380l72 -37l-180 -343q-52 -97 -77.5 -137.5t-75 -75t-118.5 -31.5q-72 4 -127 48l48 72q34 -37 87 -42q48 -1 79.5 26t57.5 76q7 11 41 74q38 65 51 78l-11 7q-107 -95 -177 -95q-43 0 -65 24.5t-24 62.5q-1 48 30 103.5t81.5 103.5t109.5 78t104 27q44 -1 80 -39z
M422 314q-13 24 -41 27q-33 0 -88 -38t-96.5 -92t-42.5 -95q0 -29 28 -32q27 -3 72 25.5t91 82.5t77 122z" />
    <glyph glyph-name="h" unicode="h" horiz-adv-x="441" 
d="M5 17q12 24 21.5 44t23.5 50q61 140 76 179q16 34 76 176q19 46 47 116q4 8 12 26.5t9 21.5l83 -28l-186 -394l8 -7q139 170 206 170q30 0 47.5 -19.5t13.5 -47.5q-4 -24 -29 -70q-5 -10 -37 -67q-24 -43 -24 -56q0 -14 12 -14q6 0 24 5q15 7 25 10q18 8 31.5 13.5
t21.5 9.5l-23 -71q-116 -64 -140 -64q-20 0 -37 13t-18 42q-1 33 38 106q4 6 26 48q19 37 17 44q0 12 -12 12q-28 0 -149 -149q-16 -22 -25 -34t-27 -34q-28 -36 -43 -53z" />
    <glyph glyph-name="i" unicode="i" horiz-adv-x="246" 
d="M269 135l-25 -71q-124 -64 -157 -64q-25 0 -41.5 17.5t-16.5 44.5q2 32 34 97t145 258l71 -37l-130 -237q-14 -25 -14 -41q0 -12 14 -12q10 0 43 12q15 5 33 14q21 10 44 19zM310 607l36 -1q25 0 28 -17q5 -24 -24 -55.5t-60 -31.5q-28 0 -33 16v14q7 28 21 51.5t32 23.5
z" />
    <glyph glyph-name="i" unicode="&#xb3;" horiz-adv-x="246" 
d="M269 135l-25 -71q-124 -64 -157 -64q-25 0 -41.5 17.5t-16.5 44.5q2 32 34 97t145 258l71 -37l-130 -237q-14 -25 -14 -41q0 -12 14 -12q10 0 43 12q15 5 33 14q21 10 44 19zM310 607l36 -1q25 0 28 -17q5 -24 -24 -55.5t-60 -31.5q-28 0 -33 16v14q7 28 21 51.5t32 23.5
z" />
    <glyph glyph-name="j" unicode="j" horiz-adv-x="190" 
d="M10 -237l-97 18q43 144 197 446q35 68 42 82q23 47 52 105l72 -35q-36 -66 -66 -127.5t-81 -176.5t-79 -188.5t-40 -123.5zM290 607l34 -1q27 0 31 -17q6 -23 -20.5 -55t-57.5 -32q-37 0 -34 30q5 29 17 52t30 23z" />
    <glyph glyph-name="k" unicode="k" horiz-adv-x="413" 
d="M5 17q12 24 21.5 44t23.5 50q61 140 76 179q16 34 76 176q19 46 47 116q4 8 12 26.5t9 21.5l83 -28l-205 -439l8 -2q10 14 52.5 56t103 89.5t138.5 93.5l37 -67q-61 -27 -128.5 -70t-105.5 -76l4 -6q12 4 23 4q35 -3 33 -37q0 -6 -13 -36q-6 -21 -6 -24q-2 -23 23 -26
q18 -1 54 22t69 51l-23 -71q-73 -75 -140 -75q-64 0 -68 59q0 31 5 48q1 5 2.5 11.5t1.5 8.5q1 3 1 7q0 11 -8 11q-27 1 -137 -141z" />
    <glyph glyph-name="l" unicode="l" horiz-adv-x="233" 
d="M261 630l90 -27q-7 -16 -17 -36t-16 -33q-16 -36 -30 -65t-46 -95q-119 -249 -117 -274q0 -14 15 -14t42 14q5 2 10.5 4.5t11.5 5.5t11 5q7 3 14 6.5l14 7l13 6.5l-21 -71q-111 -64 -149 -64q-54 0 -57 59q-3 31 11 65q11 37 38 87q115 248 183 419z" />
    <glyph glyph-name="m" unicode="m" horiz-adv-x="645" 
d="M202 411l73 -37l-84 -155l9 -6q18 16 42.5 38t28.5 26q50 48 75 65q37 23 62 24q20 0 35.5 -12.5t15.5 -32.5q2 -33 -69 -125l10 -5q132 131 183 124q41 -2 42 -41q3 -30 -41 -98q-5 -7 -13.5 -20.5t-16.5 -25.5q-17 -28 -17 -34q0 -10 9 -10q2 -1 8 1q22 6 62 24
q14 6 25.5 11t29.5 13l-22 -71q-19 -10 -55 -28q-35 -19 -60 -30q-34 -12 -55 -12q-27 0 -39.5 17.5t-7.5 47.5q7 23 50 93q10 14 13 21q9 16 9 23q0 9 -9 9q-14 0 -51 -31t-84 -83.5t-78 -97.5l-76 21l113 215q6 13 -2 17q-6 0 -26 -18q-16 -11 -43 -38q-45 -43 -65 -65
q-32 -35 -62 -76.5t-39 -55.5l-77 21z" />
    <glyph glyph-name="n" unicode="n" horiz-adv-x="455" 
d="M201 413l68 -34l-87 -171l8 -7q3 6 9 10q6 6 11 12l10 12l16 16l15 15q100 103 148 103q17 0 31.5 -7.5t21.5 -23t4 -34.5q-4 -24 -29 -70q-7 -16 -18.5 -35.5t-17.5 -31.5q-25 -43 -25 -56q0 -14 13 -14q6 0 23 5q9 4 25 10q47 20 53 23l-23 -71q-42 -24 -82 -44
t-58 -20q-51 0 -55 55q-1 33 38 106q4 6 26 48q20 37 19 44q0 10 -12 10q-19 0 -46 -29q-27 -25 -49 -52q-37 -39 -55 -61q-5 -5 -45 -53q-9 -10 -26 -29.5t-39 -43.5l-68 22z" />
    <glyph glyph-name="o" unicode="o" horiz-adv-x="390" 
d="M348 425l17 -59q-68 -22 -123 -69.5t-83.5 -101.5t-19.5 -91q7 -36 44 -38q29 -2 65.5 30.5t59 92t14.5 130.5l94 27q14 -87 -22.5 -167.5t-103.5 -129.5t-134 -49q-112 0 -113 110q0 92 85.5 181.5t219.5 133.5z" />
    <glyph glyph-name="p" unicode="p" horiz-adv-x="435" 
d="M243 522l67 -32l-143 -276l10 -6q151 158 209 154q23 0 37 -16.5t14 -38.5q0 -35 -64 -145q-16 -28 -23 -43q-4 -7 -4 -14q-1 -13 13 -13q7 0 25 6q7 4 23 12q40 18 53 25l-22 -71q-30 -20 -75.5 -42t-70.5 -22q-49 0 -53 49q-1 36 41 109q8 12 29 47q19 29 19 44
q-4 13 -16 12q-32 -1 -81.5 -58t-95.5 -129t-72 -126q-4 -8 -16.5 -37t-21.5 -50.5t-19 -43.5q-10 -25 -13.5 -33t-11.5 -30l-74 19q76 196 166 398.5t170 350.5z" />
    <glyph glyph-name="q" unicode="q" horiz-adv-x="463" 
d="M463 380l72 -37q-122 -219 -199 -375t-98 -210l-95 32q47 96 82 153.5t75 116.5q7 8 17 24q2 3 3.5 6l3.5 7q2 3 5 9l-3 1q-3 -1 -9 -6q-5 -5 -8.5 -8t-8.5 -7q-94 -86 -169 -86q-33 0 -59 19.5t-29 67.5q-3 64 50.5 137.5t133 125.5t142.5 49q44 -1 80 -39zM421 314
q-11 24 -40 27q-33 0 -88 -38t-96.5 -92t-42.5 -95q0 -29 28 -32q27 -3 71.5 25.5t90.5 82.5t77 122z" />
    <glyph glyph-name="r" unicode="r" horiz-adv-x="339" 
d="M186 412l70 -32l-79 -162l9 -3q75 90 127.5 127.5t104.5 36.5q37 0 57 -23l-57 -98q-15 27 -44 27q-50 0 -139 -95.5t-130 -165.5l-19 -31l-81 22z" />
    <glyph glyph-name="s" unicode="s" horiz-adv-x="294" 
d="M391 317l-65 -31q-12 42 -51 45q-20 1 -33 -10.5t-15 -26.5q-2 -9 12 -34q6 -10 19 -29.5t16 -25.5q22 -37 22 -74q0 -50 -42.5 -92.5t-122.5 -48.5q-46 -3 -74.5 12.5t-35 41t7.5 57.5l86 11q-13 -21 -6 -40.5t34 -18.5q31 1 46.5 20t15.5 39q0 12 -11 38q-10 19 -19 32
t-18 28q-27 44 -27 75q-3 46 40 83.5t110 36.5q46 0 74.5 -23.5t36.5 -64.5z" />
    <glyph glyph-name="s" horiz-adv-x="294" 
d="M391 317l-65 -31q-12 42 -51 45q-20 1 -33 -10.5t-15 -26.5q-2 -9 12 -34q6 -10 19 -29.5t16 -25.5q22 -37 22 -74q0 -50 -42.5 -92.5t-122.5 -48.5q-46 -3 -74.5 12.5t-35 41t7.5 57.5l86 11q-13 -21 -6 -40.5t34 -18.5q31 1 46.5 20t15.5 39q0 12 -11 38q-10 19 -19 32
t-18 28q-27 44 -27 75q-3 46 40 83.5t110 36.5q46 0 74.5 -23.5t36.5 -64.5z" />
    <glyph glyph-name="t" unicode="t" horiz-adv-x="279" 
d="M181 353q-66 -3 -99 -15l18 62q63 14 113 18q53 97 77 133l74 -27q-48 -70 -60 -99q17 0 33.5 1t32.5 -1q38 0 68 -6l-38 -67q-43 16 -129 8q-115 -218 -118 -259q0 -15 15 -15q14 0 41 11q13 7 39 19q9 5 15 8l22 11l-22 -71q-33 -20 -79.5 -42t-71.5 -22
q-19 0 -36.5 13.5t-18.5 46.5q0 42 46 140.5t78 152.5z" />
    <glyph glyph-name="u" unicode="u" horiz-adv-x="454" 
d="M411 373l68 -36l-110 -208q-6 -17 -5 -23q0 -14 14 -16q10 0 31 11q25 13 31 15q11 7 37 19l-23 -71q-110 -65 -149 -64q-40 2 -45 40q-3 10 0 18q3 22 18 49t39 61l-4 4q-3 -1 -6 -5q-26 -22 -40 -36q-135 -135 -194 -131q-44 3 -44 52q0 20 34 96.5t138 268.5l70 -37
l-121 -227q-8 -16 -8 -23v-6q2 -10 11 -12q9 0 24 11q13 8 33 26q6 6 18 16.5t21 20.5q116 103 162 187z" />
    <glyph glyph-name="v" unicode="v" horiz-adv-x="393" 
d="M522 388l-11 -62l-71 -26q4 -46 -50 -117.5t-130 -127t-124 -55.5q-35 0 -64.5 30.5t-28.5 89.5q1 70 43 158t102 153l72 -43q-46 -55 -85 -126t-42 -128q0 -43 30 -43q23 0 66 37.5t78 85t38 68.5q-27 -9 -54 -7l-9 53q43 48 82 48q39 3 57 -26z" />
    <glyph glyph-name="w" unicode="w" horiz-adv-x="658" 
d="M188 431l72 -43q-45 -52 -84.5 -125t-42.5 -129q0 -43 31 -44q26 -1 74 42t75 77q0 77 20 103q3 4 27 21q6 3 44 26q19 7 24 7q31 3 32 -33q1 -43 -42 -104q-25 -44 -23 -95q0 -43 33 -43q24 -1 65.5 35.5t77.5 85.5t39 70q-26 -9 -54 -7l-9 53q43 48 82 48q39 3 57 -26
l101 38l-11 -62l-71 -26q4 -48 -50.5 -119t-129.5 -126t-123 -55q-36 0 -64.5 29.5t-28.5 74.5q-102 -106 -173 -104q-38 2 -66 31.5t-27 88.5q1 68 42.5 156.5t102.5 154.5z" />
    <glyph glyph-name="x" unicode="x" horiz-adv-x="413" 
d="M187 440l78 -38q-2 -52 4 -150q22 20 34 32t40 38q42 38 62 57l7.5 7.5l12.5 12.5l65 -35q-60 -45 -115 -92t-98 -90q8 -43 20.5 -68.5t38.5 -25.5q15 0 48 16.5t53 30.5l-23 -71q-68 -64 -113 -64q-30 0 -54 35t-34 98q-49 -60 -90.5 -96.5t-87.5 -36.5q-58 0 -64 67
q-1 22 8 42l78 40q-4 -14 -4 -34q-1 -31 23 -31q27 4 124 112q-18 115 -13 244z" />
    <glyph glyph-name="y" unicode="y" horiz-adv-x="395" 
d="M196 422l73 -37l-96 -176q-2 -4 -4 -8.5t-5 -10t-5.5 -10.5l-4.5 -9q-5 -9 -15 -29q-5 -10 -6 -17q-3 -3 -3 -9q0 -14 13 -15q25 -2 79.5 48t98.5 109q25 33 53 80q1 2 8.5 13t12.5 20l73 -34q-204 -363 -277 -571l-86 19q29 94 86 198q45 77 53 89q18 28 38 62l-8 2
q-136 -143 -198 -135q-47 4 -47 59q0 45 56.5 158t110.5 204z" />
    <glyph glyph-name="z" unicode="z" horiz-adv-x="371" 
d="M125 343l41 87q45 3 102 -12.5t101 -34t53 -24.5l-25 -75q-57 -28 -138 -93t-114 -112q29 -12 72 -15q90 0 171 40l-22 -65q-88 -37 -190 -39q-98 -2 -151 39l12 57q19 22 50.5 55.5t88.5 71.5q21 15 43 26q16 10 31 20t32 20q32 18 47 26q-77 30 -204 28z" />
    <glyph glyph-name="braceleft" unicode="{" horiz-adv-x="544" 
d="M142 287l33 72q62 5 97.5 46t69.5 101q8 15 14 32.5t10 26.5q5 10 9.5 20l9 20t8.5 19q47 102 117.5 142t137.5 42l-28 -58q-83 -17 -124 -105q-6 -14 -11 -26t-13 -30q-8 -22 -26 -64q-32 -70 -83 -118.5t-136 -79.5l-4 -9q56 -29 62 -78.5t-28 -119.5q-21 -42 -33 -63
q-7 -12 -28 -57q-41 -88 26 -104l-26 -57q-166 7 -85 182q10 20 17.5 34.5t11.5 23.5q8 17 16 31t14 29q60 138 -28 148z" />
    <glyph glyph-name="bar" unicode="|" horiz-adv-x="544" 
d="M-3 -205l506 1086h86l-506 -1086h-86z" />
    <glyph glyph-name="bar" unicode="&#xa6;" horiz-adv-x="544" 
d="M-3 -205l506 1086h86l-506 -1086h-86z" />
    <glyph glyph-name="braceright" unicode="}" horiz-adv-x="544" 
d="M402 359l-34 -72q-63 -6 -102 -51t-65 -97q-8 -20 -13 -31t-13 -29q-16 -38 -25 -58q-47 -100 -115 -139t-140 -43l26 57q53 10 84 44t42 60q8 17 12 28t12 29q7 15 13.5 32.5t12.5 30.5q34 71 84.5 119.5t133.5 78.5l4 9q-55 32 -60 80.5t27 117.5q7 16 16.5 32.5
t16.5 31.5q10 18 16 30t12 26q41 88 -28 105l28 58q67 -2 99.5 -42t-15.5 -142q-18 -39 -29 -59q-9 -17 -15.5 -30.5t-14.5 -28.5q-63 -139 30 -147z" />
    <glyph glyph-name="asciitilde" unicode="~" horiz-adv-x="544" 
d="M465 766q-36 -117 -117 -118q-24 0 -61 11q-9 4 -19 8t-20 7q-27 12 -51 12q-34 -3 -47 -32h-72q26 110 113 113q27 1 62 -11q14 -5 34 -13q38 -15 55 -15q35 0 49 38h74z" />
    <glyph glyph-name="Adieresis" unicode="&#xc0;" horiz-adv-x="687" 
d="M757 732l91 -42l-165 -375h61l-28 -61l-57 2l-90 -262l-100 20l95 242l-132 -2q-63 -81 -120 -140.5t-109.5 -90t-100.5 -29.5q-42 3 -65.5 26t-22.5 63q2 36 21 81.5t38 34.5l58 -32q9 -5 11 -13q2 -3 0 -9q-1 -5 -12 -24q-10 -13 -7 -24q4 -15 24 -15q21 0 49 19
q22 16 55 53l23.5 23.5t26.5 28.5q10 11 18 20t22 23q-41 -1 -121 -22l33 68q8 15 22 15l122 8q25 30 54.5 65t45.5 54q76 90 115 136q43 49 145 159zM482 318h112q6 14 16.5 37.5t19.5 43.5q30 62 46 93q12 25 20.5 41.5t28.5 57.5q3 4 3.5 6t4.5 10l-10 5q-6 -7 -12 -12
q-26 -32 -37.5 -46t-18.5 -23q-28 -34 -43 -52l-45 -54q-56 -72 -85 -107z" />
    <glyph glyph-name="Adieresis" unicode="&#x410;" horiz-adv-x="687" 
d="M757 732l91 -42l-165 -375h61l-28 -61l-57 2l-90 -262l-100 20l95 242l-132 -2q-63 -81 -120 -140.5t-109.5 -90t-100.5 -29.5q-42 3 -65.5 26t-22.5 63q2 36 21 81.5t38 34.5l58 -32q9 -5 11 -13q2 -3 0 -9q-1 -5 -12 -24q-10 -13 -7 -24q4 -15 24 -15q21 0 49 19
q22 16 55 53l23.5 23.5t26.5 28.5q10 11 18 20t22 23q-41 -1 -121 -22l33 68q8 15 22 15l122 8q25 30 54.5 65t45.5 54q76 90 115 136q43 49 145 159zM482 318h112q6 14 16.5 37.5t19.5 43.5q30 62 46 93q12 25 20.5 41.5t28.5 57.5q3 4 3.5 6t4.5 10l-10 5q-6 -7 -12 -12
q-26 -32 -37.5 -46t-18.5 -23q-28 -34 -43 -52l-45 -54q-56 -72 -85 -107z" />
    <glyph glyph-name="Aring" unicode="&#xc1;" horiz-adv-x="652" 
d="M204 610q76 27 185.5 50.5t267.5 24.5q94 0 255 -14l-41 -87q-157 30 -306 23q-25 -34 -34 -48q-13 -19 -35.5 -53.5t-41.5 -63.5q-52 -76 -75 -115q-8 -16 -10 -19l9 -4q39 35 99 63.5t106 22.5q33 -3 55 -20t32.5 -46.5t7.5 -62.5q-4 -69 -53.5 -134t-124 -105
t-149.5 -43q-54 -2 -105 9l31 58q74 -14 142 21.5t112 93t47 102.5q0 55 -49 55q-45 1 -98 -38.5t-101.5 -97t-85 -110t-52.5 -80.5l-91 38q32 51 47.5 75t27.5 44q30 48 44.5 72.5t44.5 72.5q40 66 64.5 105.5t63.5 96.5t77 105q-94 -15 -241 -64z" />
    <glyph glyph-name="Aring" unicode="&#x411;" horiz-adv-x="652" 
d="M204 610q76 27 185.5 50.5t267.5 24.5q94 0 255 -14l-41 -87q-157 30 -306 23q-25 -34 -34 -48q-13 -19 -35.5 -53.5t-41.5 -63.5q-52 -76 -75 -115q-8 -16 -10 -19l9 -4q39 35 99 63.5t106 22.5q33 -3 55 -20t32.5 -46.5t7.5 -62.5q-4 -69 -53.5 -134t-124 -105
t-149.5 -43q-54 -2 -105 9l31 58q74 -14 142 21.5t112 93t47 102.5q0 55 -49 55q-45 1 -98 -38.5t-101.5 -97t-85 -110t-52.5 -80.5l-91 38q32 51 47.5 75t27.5 44q30 48 44.5 72.5t44.5 72.5q40 66 64.5 105.5t63.5 96.5t77 105q-94 -15 -241 -64z" />
    <glyph glyph-name="Ccedilla" unicode="&#xc2;" horiz-adv-x="641" 
d="M430 701l82 -42l-74 -129l7 -5q68 66 131 109.5t126 39.5q34 0 60 -22.5t23 -70.5q-3 -58 -41.5 -104.5t-96.5 -80t-118 -49.5v-9q70 7 98.5 -28t26.5 -78q-2 -52 -44.5 -111.5t-118 -101t-165.5 -41.5q-67 0 -109 21l31 54q50 -13 102.5 -3.5t96.5 37t70.5 64t28.5 76.5
q3 27 -11 50t-52 26q-17 0 -61 -9l-17 59q128 42 202 100t74 105q0 33 -32 34q-45 0 -111 -53t-129.5 -126.5t-90.5 -118.5q-30 -49 -57 -99q-74 -135 -111 -198l-93 22q18 31 48 85.5t56 100.5q38 67 67 120.5t48 87.5q38 66 61 106.5t51 92.5q14 29 42 89z" />
    <glyph glyph-name="Ccedilla" unicode="&#x412;" horiz-adv-x="641" 
d="M430 701l82 -42l-74 -129l7 -5q68 66 131 109.5t126 39.5q34 0 60 -22.5t23 -70.5q-3 -58 -41.5 -104.5t-96.5 -80t-118 -49.5v-9q70 7 98.5 -28t26.5 -78q-2 -52 -44.5 -111.5t-118 -101t-165.5 -41.5q-67 0 -109 21l31 54q50 -13 102.5 -3.5t96.5 37t70.5 64t28.5 76.5
q3 27 -11 50t-52 26q-17 0 -61 -9l-17 59q128 42 202 100t74 105q0 33 -32 34q-45 0 -111 -53t-129.5 -126.5t-90.5 -118.5q-30 -49 -57 -99q-74 -135 -111 -198l-93 22q18 31 48 85.5t56 100.5q38 67 67 120.5t48 87.5q38 66 61 106.5t51 92.5q14 29 42 89z" />
    <glyph glyph-name="Eacute" unicode="&#xc3;" horiz-adv-x="517" 
d="M792 704l-30 -71q-6 0 -10.5 0.5t-13.5 0.5h-71q-26 0 -38 -4q-21 -8 -74 -109q-26 -48 -119 -230q-76 -139 -147.5 -219.5t-173.5 -77.5q-31 3 -71.5 28.5t-43.5 41.5q-1 10 6 17l46 49q3 5 10 5q5 0 9 -5q2 0 3 -2l2 -4q35 -40 74 -40q40 0 84 49q14 15 25 31t25 42
t23.5 44.5t16.5 34.5q86 164 137 241q16 24 28 40.5t19 27.5q5 7 11 16.5t10 15.5q-123 -18 -262 -117l-50 82q81 52 171.5 78.5t185 33t218.5 1.5z" />
    <glyph glyph-name="Eacute" unicode="&#x413;" horiz-adv-x="517" 
d="M792 704l-30 -71q-6 0 -10.5 0.5t-13.5 0.5h-71q-26 0 -38 -4q-21 -8 -74 -109q-26 -48 -119 -230q-76 -139 -147.5 -219.5t-173.5 -77.5q-31 3 -71.5 28.5t-43.5 41.5q-1 10 6 17l46 49q3 5 10 5q5 0 9 -5q2 0 3 -2l2 -4q35 -40 74 -40q40 0 84 49q14 15 25 31t25 42
t23.5 44.5t16.5 34.5q86 164 137 241q16 24 28 40.5t19 27.5q5 7 11 16.5t10 15.5q-123 -18 -262 -117l-50 82q81 52 171.5 78.5t185 33t218.5 1.5z" />
    <glyph glyph-name="Ntilde" unicode="&#xc4;" horiz-adv-x="695" 
d="M562 531q-34 -41 -62.5 -83.5t-59.5 -99.5q-70 -128 -89 -157q-46 -70 -81 -94q-5 -3 -5 -6q2 -7 30 -16.5t56 -10.5q71 -1 142 60.5t119 152t54 169.5q5 99 -49.5 146.5t-121.5 47.5q-99 0 -195 -150l-81 57q61 77 126 121t150 44q52 1 100 -17t86 -55t58 -86t20 -112
q1 -79 -31.5 -159.5t-90.5 -146t-129 -103.5t-144 -38q-47 4 -68 10q-12 4 -24.5 8.5t-22.5 7.5q-9 6 -23 11.5t-27 10.5q-54 -38 -116 -44q-50 -5 -56 13l-12 38q-7 26 46.5 50t101.5 24q20 -2 22 -3h5q13 1 45 48.5t45 73.5l35 66.5t26 46.5q66 119 156 212z" />
    <glyph glyph-name="Ntilde" unicode="&#x414;" horiz-adv-x="695" 
d="M562 531q-34 -41 -62.5 -83.5t-59.5 -99.5q-70 -128 -89 -157q-46 -70 -81 -94q-5 -3 -5 -6q2 -7 30 -16.5t56 -10.5q71 -1 142 60.5t119 152t54 169.5q5 99 -49.5 146.5t-121.5 47.5q-99 0 -195 -150l-81 57q61 77 126 121t150 44q52 1 100 -17t86 -55t58 -86t20 -112
q1 -79 -31.5 -159.5t-90.5 -146t-129 -103.5t-144 -38q-47 4 -68 10q-12 4 -24.5 8.5t-22.5 7.5q-9 6 -23 11.5t-27 10.5q-54 -38 -116 -44q-50 -5 -56 13l-12 38q-7 26 46.5 50t101.5 24q20 -2 22 -3h5q13 1 45 48.5t45 73.5l35 66.5t26 46.5q66 119 156 212z" />
    <glyph glyph-name="Odieresis" unicode="&#xc5;" horiz-adv-x="559" 
d="M518 210l60 -66q-157 -148 -291 -150q-80 0 -123.5 40t-48.5 91q-4 51 38 112t166 110v9q-43 -1 -63.5 15.5t-27 37.5t-6.5 38q-1 73 53.5 137.5t136 104.5t147.5 38q58 -2 96.5 -33t34.5 -83q-5 -63 -50 -108l-75 53q26 31 32 60q3 17 -8.5 30.5t-30.5 13.5
q-35 2 -95 -36.5t-106 -92.5t-43 -96q5 -36 46 -36q40 0 96 29l32 -58l-20 -10q-18 -10 -45 -23q-91 -50 -148 -109t-57 -109q0 -56 56 -60q58 -3 120.5 42t123.5 109z" />
    <glyph glyph-name="Odieresis" unicode="&#x415;" horiz-adv-x="559" 
d="M518 210l60 -66q-157 -148 -291 -150q-80 0 -123.5 40t-48.5 91q-4 51 38 112t166 110v9q-43 -1 -63.5 15.5t-27 37.5t-6.5 38q-1 73 53.5 137.5t136 104.5t147.5 38q58 -2 96.5 -33t34.5 -83q-5 -63 -50 -108l-75 53q26 31 32 60q3 17 -8.5 30.5t-30.5 13.5
q-35 2 -95 -36.5t-106 -92.5t-43 -96q5 -36 46 -36q40 0 96 29l32 -58l-20 -10q-18 -10 -45 -23q-91 -50 -148 -109t-57 -109q0 -56 56 -60q58 -3 120.5 42t123.5 109z" />
    <glyph glyph-name="Udieresis" unicode="&#xc6;" horiz-adv-x="917" 
d="M251 593q47 61 100.5 82t83.5 21q59 1 93 -36.5t36 -94.5q1 -44 -17 -97l6 -4q114 75 170 133l59 -33q-55 -81 -119 -203q-43 -79 -57 -108q-10 -18 -18 -31.5t-12 -22.5q-4 -6 -5.5 -9.5t-4.5 -10t-4 -8.5l10 -7q106 109 172 155q46 87 101.5 153t102 106t84.5 67
l59 -77q-115 -83 -189.5 -169t-105 -151t-32.5 -112q0 -30 14 -46t37 -18q24 0 65.5 22t59.5 39l-23 -69q-26 -24 -67.5 -44t-70.5 -20q-39 0 -69 26t-33 74q-2 44 23 99l-7 6q-28 -22 -54 -48q-20 -19 -58 -59q-11 -12 -33.5 -34.5t-32.5 -34.5q-16 -16 -25.5 -25
t-19.5 -21l-72 25q59 125 136 267q13 22 29 51t45 81q14 25 17 33l-5 7q-36 -26 -104 -72q-45 -93 -117 -185t-150 -150.5t-140 -58.5q-75 0 -80 62q-4 43 52 103.5t145 122t196 121.5q20 42 39.5 96.5t20.5 77.5q1 30 -17 45t-38 13q-48 -1 -105 -95zM384 309
q-81 -54 -169.5 -125t-89.5 -108q0 -23 23 -23q24 -1 75 48t100.5 111.5t64.5 91.5z" />
    <glyph glyph-name="Udieresis" unicode="&#x416;" horiz-adv-x="917" 
d="M251 593q47 61 100.5 82t83.5 21q59 1 93 -36.5t36 -94.5q1 -44 -17 -97l6 -4q114 75 170 133l59 -33q-55 -81 -119 -203q-43 -79 -57 -108q-10 -18 -18 -31.5t-12 -22.5q-4 -6 -5.5 -9.5t-4.5 -10t-4 -8.5l10 -7q106 109 172 155q46 87 101.5 153t102 106t84.5 67
l59 -77q-115 -83 -189.5 -169t-105 -151t-32.5 -112q0 -30 14 -46t37 -18q24 0 65.5 22t59.5 39l-23 -69q-26 -24 -67.5 -44t-70.5 -20q-39 0 -69 26t-33 74q-2 44 23 99l-7 6q-28 -22 -54 -48q-20 -19 -58 -59q-11 -12 -33.5 -34.5t-32.5 -34.5q-16 -16 -25.5 -25
t-19.5 -21l-72 25q59 125 136 267q13 22 29 51t45 81q14 25 17 33l-5 7q-36 -26 -104 -72q-45 -93 -117 -185t-150 -150.5t-140 -58.5q-75 0 -80 62q-4 43 52 103.5t145 122t196 121.5q20 42 39.5 96.5t20.5 77.5q1 30 -17 45t-38 13q-48 -1 -105 -95zM384 309
q-81 -54 -169.5 -125t-89.5 -108q0 -23 23 -23q24 -1 75 48t100.5 111.5t64.5 91.5z" />
    <glyph glyph-name="aacute" unicode="&#xc7;" horiz-adv-x="524" 
d="M232 579q49 60 118 100.5t142 40.5q67 0 101 -35.5t32 -83.5q-5 -129 -223 -222v-8q37 3 70 -9.5t53 -43.5t14 -79q-9 -69 -56 -127.5t-119 -92.5t-145 -30q-24 1 -66.5 19t-76 41.5t-33.5 36.5q0 5 10 15l51 43q4 6 15 3q5 -5 6 -9q45 -80 124 -80q29 0 61 15.5t58 40
t43 56.5t20 69q6 38 -13 62t-54 27q-38 2 -74 -11l-24 61q96 37 178 98.5t83 128.5q2 48 -45 48q-73 0 -186 -136z" />
    <glyph glyph-name="aacute" unicode="&#x417;" horiz-adv-x="524" 
d="M232 579q49 60 118 100.5t142 40.5q67 0 101 -35.5t32 -83.5q-5 -129 -223 -222v-8q37 3 70 -9.5t53 -43.5t14 -79q-9 -69 -56 -127.5t-119 -92.5t-145 -30q-24 1 -66.5 19t-76 41.5t-33.5 36.5q0 5 10 15l51 43q4 6 15 3q5 -5 6 -9q45 -80 124 -80q29 0 61 15.5t58 40
t43 56.5t20 69q6 38 -13 62t-54 27q-38 2 -74 -11l-24 61q96 37 178 98.5t83 128.5q2 48 -45 48q-73 0 -186 -136z" />
    <glyph glyph-name="agrave" unicode="&#xc8;" horiz-adv-x="634" 
d="M398 718l82 -51l-177 -321q-109 -196 -99 -216q0 -20 20 -20q42 0 178.5 138.5t183.5 211.5q20 30 40 65t32 54q38 64 56 95l80 -52q-30 -48 -99 -165t-119.5 -217t-50.5 -130q0 -27 30 -27q47 6 104 52l-25 -71q-69 -74 -136 -70q-75 0 -73 72q0 32 18 80.5t36 80.5
l-5 7q-56 -59 -109.5 -107.5t-114 -88.5t-101.5 -41q-39 -1 -50.5 23t-11.5 46q0 31 35.5 120.5t152.5 306.5q16 30 35 64.5t29 53.5q25 45 34.5 62.5t24.5 44.5z" />
    <glyph glyph-name="agrave" unicode="&#x418;" horiz-adv-x="634" 
d="M398 718l82 -51l-177 -321q-109 -196 -99 -216q0 -20 20 -20q42 0 178.5 138.5t183.5 211.5q20 30 40 65t32 54q38 64 56 95l80 -52q-30 -48 -99 -165t-119.5 -217t-50.5 -130q0 -27 30 -27q47 6 104 52l-25 -71q-69 -74 -136 -70q-75 0 -73 72q0 32 18 80.5t36 80.5
l-5 7q-56 -59 -109.5 -107.5t-114 -88.5t-101.5 -41q-39 -1 -50.5 23t-11.5 46q0 31 35.5 120.5t152.5 306.5q16 30 35 64.5t29 53.5q25 45 34.5 62.5t24.5 44.5z" />
    <glyph glyph-name="acircumflex" unicode="&#xc9;" horiz-adv-x="634" 
d="M398 718l82 -51l-177 -321q-109 -196 -99 -216q0 -20 20 -20q42 0 178.5 138.5t183.5 211.5q20 30 40 65t32 54q38 64 56 95l80 -52q-30 -48 -99 -165t-119.5 -217t-50.5 -130q0 -27 30 -27q47 6 104 52l-25 -71q-69 -74 -136 -70q-75 0 -73 72q0 32 18 80.5t36 80.5
l-5 7q-56 -59 -109.5 -107.5t-114 -88.5t-101.5 -41q-39 -1 -50.5 23t-11.5 46q0 31 35.5 120.5t152.5 306.5q16 30 35 64.5t29 53.5q25 45 34.5 62.5t24.5 44.5zM512 848l85 3q0 -27 11.5 -50t45.5 -20q50 3 113 80l41 -33q-33 -43 -80.5 -75t-106.5 -32q-62 1 -87.5 39.5
t-21.5 87.5z" />
    <glyph glyph-name="acircumflex" unicode="&#x419;" horiz-adv-x="634" 
d="M398 718l82 -51l-177 -321q-109 -196 -99 -216q0 -20 20 -20q42 0 178.5 138.5t183.5 211.5q20 30 40 65t32 54q38 64 56 95l80 -52q-30 -48 -99 -165t-119.5 -217t-50.5 -130q0 -27 30 -27q47 6 104 52l-25 -71q-69 -74 -136 -70q-75 0 -73 72q0 32 18 80.5t36 80.5
l-5 7q-56 -59 -109.5 -107.5t-114 -88.5t-101.5 -41q-39 -1 -50.5 23t-11.5 46q0 31 35.5 120.5t152.5 306.5q16 30 35 64.5t29 53.5q25 45 34.5 62.5t24.5 44.5zM512 848l85 3q0 -27 11.5 -50t45.5 -20q50 3 113 80l41 -33q-33 -43 -80.5 -75t-106.5 -32q-62 1 -87.5 39.5
t-21.5 87.5z" />
    <glyph glyph-name="adieresis" unicode="&#xca;" horiz-adv-x="629" 
d="M411 690l86 -49l-144 -256q17 17 35 17q1 0 28 -3q37 0 81 16.5t113.5 90t139.5 212.5l86 -44q-83 -157 -177 -228.5t-171 -90.5q-30 -7 -34 -9q-22 -9 -26 -33q-6 -31 4.5 -89t34 -102.5t53.5 -47.5q43 -1 135 66l-26 -76q-76 -63 -136 -64q-43 0 -75 29.5t-52.5 84
t-26.5 117.5t2 133l-188 -375l-96 27z" />
    <glyph glyph-name="adieresis" unicode="&#x41a;" horiz-adv-x="629" 
d="M411 690l86 -49l-144 -256q17 17 35 17q1 0 28 -3q37 0 81 16.5t113.5 90t139.5 212.5l86 -44q-83 -157 -177 -228.5t-171 -90.5q-30 -7 -34 -9q-22 -9 -26 -33q-6 -31 4.5 -89t34 -102.5t53.5 -47.5q43 -1 135 66l-26 -76q-76 -63 -136 -64q-43 0 -75 29.5t-52.5 84
t-26.5 117.5t2 133l-188 -375l-96 27z" />
    <glyph glyph-name="atilde" unicode="&#xcb;" horiz-adv-x="630" 
d="M655 135l-25 -71q-104 -72 -151 -72q-30 0 -48.5 20.5t-21.5 55.5q-1 47 28 107q22 48 40 85l12 24l12 24q2 5 6 13t6 13l-7 4q-3 -6 -7.5 -10.5t-10.5 -12.5q-14 -14 -28 -31q-8 -10 -16.5 -20t-21.5 -25q-207 -253 -320 -250q-26 0 -56.5 17.5t-31.5 66.5
q0 36 20.5 83.5t38.5 37.5l58 -32q9 -5 11 -13q2 -3 0 -7q-2 -11 -12 -26q-7 -9 -7 -21q2 -19 24 -19q40 0 116.5 74t165 186.5t159 217t93.5 153.5l94 -50q-10 -20 -20.5 -40.5t-21 -40.5t-21.5 -41q-58 -109 -84 -164q-69 -139 -92 -197t-21 -76q0 -20 25 -20
q21 1 55 19.5t60 37.5z" />
    <glyph glyph-name="atilde" unicode="&#x41b;" horiz-adv-x="630" 
d="M655 135l-25 -71q-104 -72 -151 -72q-30 0 -48.5 20.5t-21.5 55.5q-1 47 28 107q22 48 40 85l12 24l12 24q2 5 6 13t6 13l-7 4q-3 -6 -7.5 -10.5t-10.5 -12.5q-14 -14 -28 -31q-8 -10 -16.5 -20t-21.5 -25q-207 -253 -320 -250q-26 0 -56.5 17.5t-31.5 66.5
q0 36 20.5 83.5t38.5 37.5l58 -32q9 -5 11 -13q2 -3 0 -7q-2 -11 -12 -26q-7 -9 -7 -21q2 -19 24 -19q40 0 116.5 74t165 186.5t159 217t93.5 153.5l94 -50q-10 -20 -20.5 -40.5t-21 -40.5t-21.5 -41q-58 -109 -84 -164q-69 -139 -92 -197t-21 -76q0 -20 25 -20
q21 1 55 19.5t60 37.5z" />
    <glyph glyph-name="aring" unicode="&#xcc;" horiz-adv-x="908" 
d="M932 135l-24 -71q-26 -24 -70 -48t-76 -23q-66 7 -61 83q4 46 53 142l-6 5q-9 -9 -27 -28q-33 -39 -81 -89q-114 -112 -172 -112q-28 0 -44.5 17.5t-19.5 50.5q0 62 59 180l-7 2q-5 -5 -6 -7q-7 -7 -10 -13q-124 -142 -203.5 -184.5t-131.5 -46.5q-48 0 -69.5 24.5
t-21.5 56.5q0 41 30.5 90t51.5 35l52 -37q6 -4 6 -12q0 -3 -1 -6q-2 -2 -3 -3.5t-6 -6.5q-15 -20 -15 -33q0 -23 23 -25q34 0 88.5 36.5t125.5 115.5t150.5 198.5t163.5 285.5l84 -49q-3 -7 -7 -14t-7.5 -14.5t-7.5 -14.5q-27 -49 -73 -130q-165 -301 -168 -371
q0 -26 16 -27q31 -3 126.5 100.5t143.5 171.5q13 18 29.5 45.5t38.5 63.5q26 47 59 101q10 17 24.5 42.5t27.5 49.5l86 -51q-33 -56 -95 -163t-109.5 -204.5t-47.5 -136.5q0 -28 27 -29q20 0 50 16t55 37z" />
    <glyph glyph-name="aring" unicode="&#x41c;" horiz-adv-x="908" 
d="M932 135l-24 -71q-26 -24 -70 -48t-76 -23q-66 7 -61 83q4 46 53 142l-6 5q-9 -9 -27 -28q-33 -39 -81 -89q-114 -112 -172 -112q-28 0 -44.5 17.5t-19.5 50.5q0 62 59 180l-7 2q-5 -5 -6 -7q-7 -7 -10 -13q-124 -142 -203.5 -184.5t-131.5 -46.5q-48 0 -69.5 24.5
t-21.5 56.5q0 41 30.5 90t51.5 35l52 -37q6 -4 6 -12q0 -3 -1 -6q-2 -2 -3 -3.5t-6 -6.5q-15 -20 -15 -33q0 -23 23 -25q34 0 88.5 36.5t125.5 115.5t150.5 198.5t163.5 285.5l84 -49q-3 -7 -7 -14t-7.5 -14.5t-7.5 -14.5q-27 -49 -73 -130q-165 -301 -168 -371
q0 -26 16 -27q31 -3 126.5 100.5t143.5 171.5q13 18 29.5 45.5t38.5 63.5q26 47 59 101q10 17 24.5 42.5t27.5 49.5l86 -51q-33 -56 -95 -163t-109.5 -204.5t-47.5 -136.5q0 -28 27 -29q20 0 50 16t55 37z" />
    <glyph glyph-name="ccedilla" unicode="&#xcd;" horiz-adv-x="659" 
d="M687 135l-28 -77q-33 -20 -83.5 -39t-77.5 -19q-25 0 -43.5 17t-19.5 51q-1 32 19 86t83 184q-93 2 -181 -16l-28 -52t-29 -53q-5 -10 -25.5 -50t-35.5 -70q-19 -34 -55 -100l-96 27q43 78 52 92q46 84 55 98q15 27 22 40.5t12 24.5q3 5 15 29q-53 -10 -93 -32
q-12 -4 -10 -4q-17 5 -11 19l19 52q5 15 31.5 24.5t105.5 20.5q7 13 13 26t12.5 26l12.5 25q28 53 47 93q52 106 85 165l84 -45q-69 -123 -148 -281q86 8 169 5q9 0 10 1q3 1 4 5q14 24 29 52t18 34q9 15 53 89q56 90 82 126l73 -50q-23 -38 -47 -75q-15 -22 -32.5 -51
t-28.5 -46q-16 -30 -26.5 -48t-22.5 -40q33 -2 49 -5l-25 -63q-10 2 -16 3t-14 2q-5 0 -10 0.5t-11 -0.5q-1 -1 -2.5 -1.5t-2.5 -1.5q-4 -2 -6 -9q-30 -58 -38 -75q-51 -104 -51 -142q0 -23 23 -23q34 3 119 51z" />
    <glyph glyph-name="ccedilla" unicode="&#x41d;" horiz-adv-x="659" 
d="M687 135l-28 -77q-33 -20 -83.5 -39t-77.5 -19q-25 0 -43.5 17t-19.5 51q-1 32 19 86t83 184q-93 2 -181 -16l-28 -52t-29 -53q-5 -10 -25.5 -50t-35.5 -70q-19 -34 -55 -100l-96 27q43 78 52 92q46 84 55 98q15 27 22 40.5t12 24.5q3 5 15 29q-53 -10 -93 -32
q-12 -4 -10 -4q-17 5 -11 19l19 52q5 15 31.5 24.5t105.5 20.5q7 13 13 26t12.5 26l12.5 25q28 53 47 93q52 106 85 165l84 -45q-69 -123 -148 -281q86 8 169 5q9 0 10 1q3 1 4 5q14 24 29 52t18 34q9 15 53 89q56 90 82 126l73 -50q-23 -38 -47 -75q-15 -22 -32.5 -51
t-28.5 -46q-16 -30 -26.5 -48t-22.5 -40q33 -2 49 -5l-25 -63q-10 2 -16 3t-14 2q-5 0 -10 0.5t-11 -0.5q-1 -1 -2.5 -1.5t-2.5 -1.5q-4 -2 -6 -9q-30 -58 -38 -75q-51 -104 -51 -142q0 -23 23 -23q34 3 119 51z" />
    <glyph glyph-name="eacute" unicode="&#xce;" horiz-adv-x="630" 
d="M738 625l-64 -58q-46 73 -107 74q-63 1 -145 -73t-139.5 -181t-57.5 -201q1 -61 30.5 -89.5t63.5 -30.5q45 -2 99 35.5t99.5 106t70 161t14.5 193.5l104 -63q0 -114 -56 -232.5t-148 -196t-190 -76.5q-83 3 -132.5 62t-49.5 150q0 107 66.5 227t168 198.5t203.5 78.5
q104 0 170 -85z" />
    <glyph glyph-name="eacute" unicode="&#x41e;" horiz-adv-x="630" 
d="M738 625l-64 -58q-46 73 -107 74q-63 1 -145 -73t-139.5 -181t-57.5 -201q1 -61 30.5 -89.5t63.5 -30.5q45 -2 99 35.5t99.5 106t70 161t14.5 193.5l104 -63q0 -114 -56 -232.5t-148 -196t-190 -76.5q-83 3 -132.5 62t-49.5 150q0 107 66.5 227t168 198.5t203.5 78.5
q104 0 170 -85z" />
    <glyph glyph-name="egrave" unicode="&#xcf;" horiz-adv-x="743" 
d="M767 120l-24 -71q-44 -25 -86 -39.5t-80 -14.5q-66 0 -69 67q-1 46 49 153t115 217.5t109 173.5l80 -1q-10 -22 -17 -32q-11 -21 -21 -38t-24 -42q-23 -39 -102 -190q-57 -112 -73 -155q-10 -30 -10 -43q2 -32 29 -32h11q19 4 65 24l13 6.5t12 5.5t12 5t11 6zM1017 701
l-30 -70q-177 9 -245 8q-84 -6 -118 -10q-54 -77 -118 -202q-31 -59 -49.5 -96t-42.5 -82q-84 -164 -158.5 -213.5t-134.5 -49.5q-43 1 -82 24.5t-39 42.5q0 7 7 14l41 42q3 3 6 5t6 2q5 0 9 -2t12 -10q30 -37 68 -35q51 1 95 61.5t94 163.5q31 64 56 110q82 157 140 218
q-32 -2 -99 -28.5t-161 -87.5l-42 75q60 40 150 71.5t244.5 46.5t390.5 2z" />
    <glyph glyph-name="egrave" unicode="&#x41f;" horiz-adv-x="743" 
d="M767 120l-24 -71q-44 -25 -86 -39.5t-80 -14.5q-66 0 -69 67q-1 46 49 153t115 217.5t109 173.5l80 -1q-10 -22 -17 -32q-11 -21 -21 -38t-24 -42q-23 -39 -102 -190q-57 -112 -73 -155q-10 -30 -10 -43q2 -32 29 -32h11q19 4 65 24l13 6.5t12 5.5t12 5t11 6zM1017 701
l-30 -70q-177 9 -245 8q-84 -6 -118 -10q-54 -77 -118 -202q-31 -59 -49.5 -96t-42.5 -82q-84 -164 -158.5 -213.5t-134.5 -49.5q-43 1 -82 24.5t-39 42.5q0 7 7 14l41 42q3 3 6 5t6 2q5 0 9 -2t12 -10q30 -37 68 -35q51 1 95 61.5t94 163.5q31 64 56 110q82 157 140 218
q-32 -2 -99 -28.5t-161 -87.5l-42 75q60 40 150 71.5t244.5 46.5t390.5 2z" />
    <glyph glyph-name="ecircumflex" unicode="&#xd0;" horiz-adv-x="620" 
d="M186 522q156 195 387 185q59 -3 105.5 -26.5t69 -64.5t18.5 -89q-7 -70 -68 -133.5t-166 -84.5l-37 53q70 18 119.5 65t53.5 100q3 33 -13 63.5t-48 40.5q-61 -71 -100 -159q-7 -17 -23 -51t-23 -51q-7 -16 -14.5 -32.5l-15 -33t-15.5 -33.5q-37 -81 -63 -121
q-101 -155 -239 -155q-58 0 -99 36q-5 5 -9 8q-5 7 -6 9q-2 8 5 15l36 47q6 10 13 10q1 -1 4 -1q2 -2 4 -3.5t2 -4.5q32 -38 79 -38q38 0 81.5 40.5t103.5 175.5q22 48 38 84t27 59q64 130 110 176q3 4 21 22q4 8 10 11q-136 5 -286 -176z" />
    <glyph glyph-name="ecircumflex" unicode="&#x420;" horiz-adv-x="620" 
d="M186 522q156 195 387 185q59 -3 105.5 -26.5t69 -64.5t18.5 -89q-7 -70 -68 -133.5t-166 -84.5l-37 53q70 18 119.5 65t53.5 100q3 33 -13 63.5t-48 40.5q-61 -71 -100 -159q-7 -17 -23 -51t-23 -51q-7 -16 -14.5 -32.5l-15 -33t-15.5 -33.5q-37 -81 -63 -121
q-101 -155 -239 -155q-58 0 -99 36q-5 5 -9 8q-5 7 -6 9q-2 8 5 15l36 47q6 10 13 10q1 -1 4 -1q2 -2 4 -3.5t2 -4.5q32 -38 79 -38q38 0 81.5 40.5t103.5 175.5q22 48 38 84t27 59q64 130 110 176q3 4 21 22q4 8 10 11q-136 5 -286 -176z" />
    <glyph glyph-name="edieresis" unicode="&#xd1;" horiz-adv-x="547" 
d="M535 135l-23 -71q-40 -29 -97 -49t-107 -20q-77 3 -126 55t-52 151q-1 98 40 189.5t113.5 169t152 120t152.5 40.5q59 0 97 -31t35 -81q0 -37 -21 -71t-53 -62t-62 -45l-75 44q54 35 88 74t36 67q0 16 -12.5 28.5t-37.5 13.5q-43 1 -105.5 -39.5t-118 -105t-93.5 -146.5
t-39 -165q0 -141 125 -134q82 3 183 68z" />
    <glyph glyph-name="edieresis" unicode="&#x421;" horiz-adv-x="547" 
d="M535 135l-23 -71q-40 -29 -97 -49t-107 -20q-77 3 -126 55t-52 151q-1 98 40 189.5t113.5 169t152 120t152.5 40.5q59 0 97 -31t35 -81q0 -37 -21 -71t-53 -62t-62 -45l-75 44q54 35 88 74t36 67q0 16 -12.5 28.5t-37.5 13.5q-43 1 -105.5 -39.5t-118 -105t-93.5 -146.5
t-39 -165q0 -141 125 -134q82 3 183 68z" />
    <glyph glyph-name="iacute" unicode="&#xd2;" horiz-adv-x="933" 
d="M1202 696l-29 -67q-221 20 -383 19q-27 -1 -68.5 -3t-95.5 -6q-59 -91 -138 -249q-20 -39 -40 -78.5t-43 -78.5q-133 -240 -280 -238q-42 3 -82.5 28t-42.5 44q0 5 7 14l39 37q9 7 13 7q8 1 14 -7q4 -4 9.5 -10.5t9.5 -11.5q25 -24 53 -24q34 0 72 34q46 41 100 145
q148 283 217 378q-108 -22 -257 -116l-45 76q65 43 138.5 69.5t171 40.5t230.5 15q74 2 185 -2t245 -16zM846 612q-55 -68 -109 -175q-8 -15 -36 -73t-49 -102q-42 -78 -60 -114q-41 -73 -58 -100q-13 -20 -33 -48l-89 19q45 55 105 163q8 14 35.5 69t47.5 96
q99 198 149 263zM1060 596q-19 -26 -86 -142.5t-119.5 -219.5t-52.5 -125q0 -35 34 -35q17 1 124 47l-27 -67q-108 -58 -161 -56q-67 2 -70 68q0 24 14 65.5t62.5 135.5t134.5 239q12 20 26 42.5t21 34.5q7 14 11 20z" />
    <glyph glyph-name="iacute" unicode="&#x422;" horiz-adv-x="933" 
d="M1202 696l-29 -67q-221 20 -383 19q-27 -1 -68.5 -3t-95.5 -6q-59 -91 -138 -249q-20 -39 -40 -78.5t-43 -78.5q-133 -240 -280 -238q-42 3 -82.5 28t-42.5 44q0 5 7 14l39 37q9 7 13 7q8 1 14 -7q4 -4 9.5 -10.5t9.5 -11.5q25 -24 53 -24q34 0 72 34q46 41 100 145
q148 283 217 378q-108 -22 -257 -116l-45 76q65 43 138.5 69.5t171 40.5t230.5 15q74 2 185 -2t245 -16zM846 612q-55 -68 -109 -175q-8 -15 -36 -73t-49 -102q-42 -78 -60 -114q-41 -73 -58 -100q-13 -20 -33 -48l-89 19q45 55 105 163q8 14 35.5 69t47.5 96
q99 198 149 263zM1060 596q-19 -26 -86 -142.5t-119.5 -219.5t-52.5 -125q0 -35 34 -35q17 1 124 47l-27 -67q-108 -58 -161 -56q-67 2 -70 68q0 24 14 65.5t62.5 135.5t134.5 239q12 20 26 42.5t21 34.5q7 14 11 20z" />
    <glyph glyph-name="igrave" unicode="&#xd3;" horiz-adv-x="559" 
d="M357 725l84 -45q-126 -218 -122 -275q2 -29 29 -29q55 0 144 97.5t154 206.5l86 -45q-53 -96 -104 -199q-20 -42 -31 -67t-29 -61q-51 -107 -97.5 -174t-103 -102.5t-129.5 -36.5q-45 0 -83.5 23.5t-61.5 52.5t-21 40q0 7 11 10l55 35l12 3q6 0 9 -3q2 -2 7 -12
q6 -11 6 -13q20 -33 23 -36q22 -31 65 -31q44 0 81.5 35.5t62 78.5t73.5 136q7 14 39 76q9 14 21 37l-8 8q-46 -57 -112.5 -102t-122.5 -42q-74 3 -74 80q0 47 28 123t109 231z" />
    <glyph glyph-name="igrave" unicode="&#x423;" horiz-adv-x="559" 
d="M357 725l84 -45q-126 -218 -122 -275q2 -29 29 -29q55 0 144 97.5t154 206.5l86 -45q-53 -96 -104 -199q-20 -42 -31 -67t-29 -61q-51 -107 -97.5 -174t-103 -102.5t-129.5 -36.5q-45 0 -83.5 23.5t-61.5 52.5t-21 40q0 7 11 10l55 35l12 3q6 0 9 -3q2 -2 7 -12
q6 -11 6 -13q20 -33 23 -36q22 -31 65 -31q44 0 81.5 35.5t62 78.5t73.5 136q7 14 39 76q9 14 21 37l-8 8q-46 -57 -112.5 -102t-122.5 -42q-74 3 -74 80q0 47 28 123t109 231z" />
    <glyph glyph-name="icircumflex" unicode="&#xd4;" horiz-adv-x="856" 
d="M705 734l59 -36l-55 -100l7 -5q29 24 66.5 37t74.5 10q65 -4 94.5 -45t26.5 -94q-2 -40 -27.5 -90.5t-77 -96.5t-127 -74.5t-174.5 -28.5l-4 65q153 7 227.5 84t78.5 152q0 65 -55 64q-138 0 -308 -342q-37 -77 -54 -114q-10 -23 -32 -67t-32 -67l-95 34q29 65 121 224
q18 24 33 48q5 5 9 13l-5 7q-55 -44 -100 -58.5t-71 -14.5q-44 0 -78.5 31.5t-34.5 94.5q0 82 52.5 158.5t134 121t159.5 41.5q72 -2 123 -61zM606 578q-18 37 -80 38q-60 0 -122 -43.5t-100 -103t-33 -103.5q3 -24 18.5 -38.5t39.5 -14.5q89 4 154 78t123 187z" />
    <glyph glyph-name="icircumflex" unicode="&#x424;" horiz-adv-x="856" 
d="M705 734l59 -36l-55 -100l7 -5q29 24 66.5 37t74.5 10q65 -4 94.5 -45t26.5 -94q-2 -40 -27.5 -90.5t-77 -96.5t-127 -74.5t-174.5 -28.5l-4 65q153 7 227.5 84t78.5 152q0 65 -55 64q-138 0 -308 -342q-37 -77 -54 -114q-10 -23 -32 -67t-32 -67l-95 34q29 65 121 224
q18 24 33 48q5 5 9 13l-5 7q-55 -44 -100 -58.5t-71 -14.5q-44 0 -78.5 31.5t-34.5 94.5q0 82 52.5 158.5t134 121t159.5 41.5q72 -2 123 -61zM606 578q-18 37 -80 38q-60 0 -122 -43.5t-100 -103t-33 -103.5q3 -24 18.5 -38.5t39.5 -14.5q89 4 154 78t123 187z" />
    <glyph glyph-name="idieresis" unicode="&#xd5;" horiz-adv-x="666" 
d="M692 135l-26 -73q-68 -62 -132 -62q-62 -1 -92 59t-37 132q-73 -71 -129 -118.5t-105 -75.5t-90 -27q-28 0 -54 20t-27 63q0 27 19.5 71t35.5 44q6 2 14 -5l45 -27q12 -7 12 -18q0 -5 -2 -9q-2 -3 -4 -5.5t-4 -5.5q-6 -8 -6 -22q0 -20 21 -23q21 -1 86 51q8 6 35.5 30
t47.5 42q22 20 40.5 36.5t28.5 26.5q6 5 11.5 10.5t11 10.5t10.5 10q1 98 12.5 187t24.5 145.5t33 120.5l97 -40q-64 -175 -70 -321q116 121 323 306l76 -47q-9 -6 -15.5 -11t-21.5 -16q-18 -14 -35.5 -27t-39.5 -30q-62 -50 -82 -69q-19 -15 -30 -25t-30 -27
q-26 -22 -45.5 -40t-31.5 -28l-36 -33t-36 -35q-3 -71 10.5 -138.5t67.5 -63.5q25 1 60 19t59 38z" />
    <glyph glyph-name="idieresis" unicode="&#x425;" horiz-adv-x="666" 
d="M692 135l-26 -73q-68 -62 -132 -62q-62 -1 -92 59t-37 132q-73 -71 -129 -118.5t-105 -75.5t-90 -27q-28 0 -54 20t-27 63q0 27 19.5 71t35.5 44q6 2 14 -5l45 -27q12 -7 12 -18q0 -5 -2 -9q-2 -3 -4 -5.5t-4 -5.5q-6 -8 -6 -22q0 -20 21 -23q21 -1 86 51q8 6 35.5 30
t47.5 42q22 20 40.5 36.5t28.5 26.5q6 5 11.5 10.5t11 10.5t10.5 10q1 98 12.5 187t24.5 145.5t33 120.5l97 -40q-64 -175 -70 -321q116 121 323 306l76 -47q-9 -6 -15.5 -11t-21.5 -16q-18 -14 -35.5 -27t-39.5 -30q-62 -50 -82 -69q-19 -15 -30 -25t-30 -27
q-26 -22 -45.5 -40t-31.5 -28l-36 -33t-36 -35q-3 -71 10.5 -138.5t67.5 -63.5q25 1 60 19t59 38z" />
    <glyph glyph-name="ntilde" unicode="&#xd6;" horiz-adv-x="695" 
d="M655 147l55 -38q-48 -84 -78 -145t-64 -141l-99 23q45 77 101 149q16 16 33 40q7 9 8 10l-8 10q-76 -60 -119 -60q-31 0 -47 21.5t-18 46.5q0 30 18 72q4 9 11 24t13 28q11 22 17 33q2 7 5 9l-13 8q-9 -10 -23 -24l-33 -33q-43 -45 -77 -75q-122 -108 -185 -108
q-27 -2 -46 16.5t-19 55.5q0 30 11.5 62t46.5 109q30 69 107 217q95 185 115 221q13 24 21 34l82 -44q-273 -492 -269 -543q1 -18 19 -18q36 1 128 91t193 224t160 255l80 -46q-5 -10 -11 -20t-11.5 -20.5t-11.5 -21.5q-42 -73 -57.5 -100.5t-40.5 -70.5q-46 -84 -88 -172
t-41 -115q2 -28 33 -27q33 0 102 63z" />
    <glyph glyph-name="ntilde" unicode="&#x426;" horiz-adv-x="695" 
d="M655 147l55 -38q-48 -84 -78 -145t-64 -141l-99 23q45 77 101 149q16 16 33 40q7 9 8 10l-8 10q-76 -60 -119 -60q-31 0 -47 21.5t-18 46.5q0 30 18 72q4 9 11 24t13 28q11 22 17 33q2 7 5 9l-13 8q-9 -10 -23 -24l-33 -33q-43 -45 -77 -75q-122 -108 -185 -108
q-27 -2 -46 16.5t-19 55.5q0 30 11.5 62t46.5 109q30 69 107 217q95 185 115 221q13 24 21 34l82 -44q-273 -492 -269 -543q1 -18 19 -18q36 1 128 91t193 224t160 255l80 -46q-5 -10 -11 -20t-11.5 -20.5t-11.5 -21.5q-42 -73 -57.5 -100.5t-40.5 -70.5q-46 -84 -88 -172
t-41 -115q2 -28 33 -27q33 0 102 63z" />
    <glyph glyph-name="oacute" unicode="&#xd7;" horiz-adv-x="567" 
d="M326 725l83 -47q-119 -179 -118 -227q1 -39 51 -39q19 0 65.5 24.5t101.5 93.5q26 32 58 82q36 55 45 70l85 -47q-17 -24 -64 -103.5t-91 -163t-73.5 -153t-28.5 -95.5q2 -35 35 -37q11 0 33 9q22 10 48 26q12 6 19.5 10.5t16.5 9.5l-25 -71q-92 -67 -150 -67
q-37 2 -59 24t-25 59q-6 97 123 291q6 8 32 42q5 7 6.5 9.5t3.5 5.5l-10 7q-63 -53 -108 -80t-94 -27q-49 -1 -74 26t-25 65q0 29 22 85q4 10 42 82q23 47 39 74q6 12 36 62z" />
    <glyph glyph-name="oacute" unicode="&#x427;" horiz-adv-x="567" 
d="M326 725l83 -47q-119 -179 -118 -227q1 -39 51 -39q19 0 65.5 24.5t101.5 93.5q26 32 58 82q36 55 45 70l85 -47q-17 -24 -64 -103.5t-91 -163t-73.5 -153t-28.5 -95.5q2 -35 35 -37q11 0 33 9q22 10 48 26q12 6 19.5 10.5t16.5 9.5l-25 -71q-92 -67 -150 -67
q-37 2 -59 24t-25 59q-6 97 123 291q6 8 32 42q5 7 6.5 9.5t3.5 5.5l-10 7q-63 -53 -108 -80t-94 -27q-49 -1 -74 26t-25 65q0 29 22 85q4 10 42 82q23 47 39 74q6 12 36 62z" />
    <glyph glyph-name="ograve" unicode="&#xd8;" horiz-adv-x="908" 
d="M933 121l-25 -72q-29 -25 -64.5 -40t-68.5 -15q-39 3 -51.5 24t-12.5 39q-2 54 39 129l-12 4l-8.5 -8.5l-5.5 -5.5q-26 -28 -39 -41q-59 -57 -121 -101t-105 -44q-62 2 -62 64q0 46 57 147l-12 5q-91 -96 -159 -153.5t-127 -58.5q-28 0 -47 15.5t-22 48.5q-2 35 24 100
q7 18 51 111l34 68t31 63q60 120 166 307l82 -45q-19 -36 -108 -199q-69 -135 -105 -198q-6 -13 -16 -32t-23 -45q-26 -51 -28 -72q0 -21 22 -21q28 2 89.5 54t157 179.5t214.5 345.5l83 -46q-32 -50 -61 -106q-6 -9 -24 -41.5t-48 -87.5q-16 -30 -35.5 -65t-29.5 -56
q-65 -128 -66 -158q0 -27 18 -27q35 -1 133.5 99.5t146.5 165.5q31 49 43.5 69.5t26.5 42.5q66 112 100 167l80 -52q-18 -31 -26 -44.5t-20 -33.5q-92 -155 -104 -178q-87 -165 -86 -217q0 -25 24 -25q4 0 7 0.5t8 0.5q18 5 37 16q9 4 25 12t23 11z" />
    <glyph glyph-name="ograve" unicode="&#x428;" horiz-adv-x="908" 
d="M933 121l-25 -72q-29 -25 -64.5 -40t-68.5 -15q-39 3 -51.5 24t-12.5 39q-2 54 39 129l-12 4l-8.5 -8.5l-5.5 -5.5q-26 -28 -39 -41q-59 -57 -121 -101t-105 -44q-62 2 -62 64q0 46 57 147l-12 5q-91 -96 -159 -153.5t-127 -58.5q-28 0 -47 15.5t-22 48.5q-2 35 24 100
q7 18 51 111l34 68t31 63q60 120 166 307l82 -45q-19 -36 -108 -199q-69 -135 -105 -198q-6 -13 -16 -32t-23 -45q-26 -51 -28 -72q0 -21 22 -21q28 2 89.5 54t157 179.5t214.5 345.5l83 -46q-32 -50 -61 -106q-6 -9 -24 -41.5t-48 -87.5q-16 -30 -35.5 -65t-29.5 -56
q-65 -128 -66 -158q0 -27 18 -27q35 -1 133.5 99.5t146.5 165.5q31 49 43.5 69.5t26.5 42.5q66 112 100 167l80 -52q-18 -31 -26 -44.5t-20 -33.5q-92 -155 -104 -178q-87 -165 -86 -217q0 -25 24 -25q4 0 7 0.5t8 0.5q18 5 37 16q9 4 25 12t23 11z" />
    <glyph glyph-name="ocircumflex" unicode="&#xd9;" horiz-adv-x="966" 
d="M950 142l54 -37q-42 -74 -64 -110q-6 -12 -13 -24t-13.5 -24.5t-13.5 -24.5q-25 -45 -49 -108l-94 32q29 56 82 125q12 14 19.5 23.5t16.5 19.5q5 5 9 10.5l12 16.5l-8 5q-2 -1 -8 -5t-11 -7q-2 -1 -13 -8.5t-22 -13.5q-32 -17 -63 -17q-59 -2 -61 59q-1 31 20 85
q3 6 8.5 17.5t6.5 14.5q3 4 3.5 6t4.5 10l-10 5q-60 -71 -142.5 -134.5t-140.5 -63.5q-57 0 -60 51q-2 47 56 156l-13 3q-4 -6 -13 -14q-8 -8 -12.5 -13.5t-10.5 -12.5q-61 -61 -129 -113.5t-124 -52.5q-27 2 -45.5 18t-21.5 47q-3 48 58.5 177t132 254.5t121.5 211.5
l80 -47q-62 -102 -89 -148t-79.5 -140.5t-81.5 -157t-29 -90.5q0 -23 19 -23q31 0 82.5 42.5t115.5 120t134.5 185t131.5 223.5l87 -49q-37 -63 -53.5 -90.5t-33.5 -56.5q-39 -68 -60 -105t-30 -55q-92 -167 -92 -205q0 -22 24 -22q33 1 112.5 79t135.5 146q40 51 134 213
q11 20 30 52t28 48l89 -45q-28 -44 -38 -65q-76 -128 -111 -194q-12 -22 -21.5 -41t-25.5 -49l-14 -28t-20 -46q-10 -26 -13 -46q-1 -36 26 -36q45 0 113 66z" />
    <glyph glyph-name="ocircumflex" unicode="&#x429;" horiz-adv-x="966" 
d="M950 142l54 -37q-42 -74 -64 -110q-6 -12 -13 -24t-13.5 -24.5t-13.5 -24.5q-25 -45 -49 -108l-94 32q29 56 82 125q12 14 19.5 23.5t16.5 19.5q5 5 9 10.5l12 16.5l-8 5q-2 -1 -8 -5t-11 -7q-2 -1 -13 -8.5t-22 -13.5q-32 -17 -63 -17q-59 -2 -61 59q-1 31 20 85
q3 6 8.5 17.5t6.5 14.5q3 4 3.5 6t4.5 10l-10 5q-60 -71 -142.5 -134.5t-140.5 -63.5q-57 0 -60 51q-2 47 56 156l-13 3q-4 -6 -13 -14q-8 -8 -12.5 -13.5t-10.5 -12.5q-61 -61 -129 -113.5t-124 -52.5q-27 2 -45.5 18t-21.5 47q-3 48 58.5 177t132 254.5t121.5 211.5
l80 -47q-62 -102 -89 -148t-79.5 -140.5t-81.5 -157t-29 -90.5q0 -23 19 -23q31 0 82.5 42.5t115.5 120t134.5 185t131.5 223.5l87 -49q-37 -63 -53.5 -90.5t-33.5 -56.5q-39 -68 -60 -105t-30 -55q-92 -167 -92 -205q0 -22 24 -22q33 1 112.5 79t135.5 146q40 51 134 213
q11 20 30 52t28 48l89 -45q-28 -44 -38 -65q-76 -128 -111 -194q-12 -22 -21.5 -41t-25.5 -49l-14 -28t-20 -46q-10 -26 -13 -46q-1 -36 26 -36q45 0 113 66z" />
    <glyph glyph-name="odieresis" unicode="&#xda;" horiz-adv-x="544" 
d="M346 386l4 -7q62 37 111 37q56 0 88.5 -40t31.5 -105q-1 -69 -41.5 -134.5t-105 -104t-131.5 -37.5q-141 2 -145 139q-3 88 45 185t125.5 178t163.5 127l-4 7q-62 -10 -76 -9q-3 0 -24 3q-6 2 -14.5 4t-16.5 4q-30 6 -34 6q-45 0 -71 -33l-46 80q49 41 120 38q7 0 49 -6
q16 -3 46 -11t44 -12q30 -9 42 -10q31 -4 60 6l34 -52q-163 -128 -255 -253zM324 68q32 0 62 21.5t54 58t36.5 71.5t10.5 65q-8 67 -62 67q-58 0 -111.5 -66t-56.5 -133q0 -42 19 -62t48 -22z" />
    <glyph glyph-name="odieresis" unicode="&#x42a;" horiz-adv-x="544" 
d="M346 386l4 -7q62 37 111 37q56 0 88.5 -40t31.5 -105q-1 -69 -41.5 -134.5t-105 -104t-131.5 -37.5q-141 2 -145 139q-3 88 45 185t125.5 178t163.5 127l-4 7q-62 -10 -76 -9q-3 0 -24 3q-6 2 -14.5 4t-16.5 4q-30 6 -34 6q-45 0 -71 -33l-46 80q49 41 120 38q7 0 49 -6
q16 -3 46 -11t44 -12q30 -9 42 -10q31 -4 60 6l34 -52q-163 -128 -255 -253zM324 68q32 0 62 21.5t54 58t36.5 71.5t10.5 65q-8 67 -62 67q-58 0 -111.5 -66t-56.5 -133q0 -42 19 -62t48 -22z" />
    <glyph glyph-name="otilde" unicode="&#xdb;" horiz-adv-x="795" 
d="M819 126l-24 -71q-94 -56 -137 -55q-31 2 -53.5 22t-22.5 60q0 67 77 218q9 19 28.5 53.5t30.5 57.5q3 4 14 27l-8 4q-29 -23 -48 -34q-11 -7 -35 -18t-36 -17q-31 -15 -52 -22q-3 0 -9 -2t-10 -3q11 -33 11 -75q0 -67 -40 -132.5t-105 -105t-133 -38.5q-44 0 -89 26.5
t-48 111.5q-4 149 258 582l81 -51q-12 -20 -23 -39t-14 -23q-41 -72 -59 -103q-151 -257 -151 -347q-1 -44 19.5 -64t47.5 -20q40 0 83 41.5t64.5 102t6.5 110.5q-66 -3 -98 11l-7 51q23 26 81 32q17 1 33.5 -2.5t25 -8.5t11.5 -7q85 9 195 87.5t168 162.5l72 -43
q-140 -255 -188 -360t-46 -134q0 -28 30 -27q26 0 99 42z" />
    <glyph glyph-name="otilde" unicode="&#x42b;" horiz-adv-x="795" 
d="M819 126l-24 -71q-94 -56 -137 -55q-31 2 -53.5 22t-22.5 60q0 67 77 218q9 19 28.5 53.5t30.5 57.5q3 4 14 27l-8 4q-29 -23 -48 -34q-11 -7 -35 -18t-36 -17q-31 -15 -52 -22q-3 0 -9 -2t-10 -3q11 -33 11 -75q0 -67 -40 -132.5t-105 -105t-133 -38.5q-44 0 -89 26.5
t-48 111.5q-4 149 258 582l81 -51q-12 -20 -23 -39t-14 -23q-41 -72 -59 -103q-151 -257 -151 -347q-1 -44 19.5 -64t47.5 -20q40 0 83 41.5t64.5 102t6.5 110.5q-66 -3 -98 11l-7 51q23 26 81 32q17 1 33.5 -2.5t25 -8.5t11.5 -7q85 9 195 87.5t168 162.5l72 -43
q-140 -255 -188 -360t-46 -134q0 -28 30 -27q26 0 99 42z" />
    <glyph glyph-name="uacute" unicode="&#xdc;" horiz-adv-x="508" 
d="M388 715l81 -51q-12 -20 -23 -39t-14 -23q-41 -72 -59 -103q-34 -57 -64 -113l5 -7q62 37 112 37q57 0 89 -39.5t30 -105.5q-1 -69 -41 -134t-105 -104t-132 -38q-47 0 -90.5 27.5t-46.5 110.5q-2 41 8.5 83t36.5 105q19 44 72 144q39 74 87 157q10 20 54 93zM289 68
q32 0 61.5 21.5t52.5 56.5t36 71.5t11 66.5q0 28 -16 47.5t-45 19.5q-39 0 -78 -31.5t-63 -76.5t-26 -91q-1 -40 18 -61t49 -23z" />
    <glyph glyph-name="uacute" unicode="&#x42c;" horiz-adv-x="508" 
d="M388 715l81 -51q-12 -20 -23 -39t-14 -23q-41 -72 -59 -103q-34 -57 -64 -113l5 -7q62 37 112 37q57 0 89 -39.5t30 -105.5q-1 -69 -41 -134t-105 -104t-132 -38q-47 0 -90.5 27.5t-46.5 110.5q-2 41 8.5 83t36.5 105q19 44 72 144q39 74 87 157q10 20 54 93zM289 68
q32 0 61.5 21.5t52.5 56.5t36 71.5t11 66.5q0 28 -16 47.5t-45 19.5q-39 0 -78 -31.5t-63 -76.5t-26 -91q-1 -40 18 -61t49 -23z" />
    <glyph glyph-name="ugrave" unicode="&#xdd;" horiz-adv-x="576" 
d="M251 591q97 140 236 138q74 0 125 -51.5t51 -150.5q0 -96 -50.5 -220.5t-144 -216t-215.5 -95.5q-70 -3 -112.5 26t-58.5 74.5t-9 94.5l98 -9q-3 -53 20.5 -82.5t64.5 -31.5q70 -3 145 77t110 173q-40 30 -93 30q-59 -3 -104 -57l-58 69q65 54 143 55q56 3 136 -38
q37 90 37 163q0 118 -82 120t-168 -124z" />
    <glyph glyph-name="ugrave" unicode="&#x42d;" horiz-adv-x="576" 
d="M251 591q97 140 236 138q74 0 125 -51.5t51 -150.5q0 -96 -50.5 -220.5t-144 -216t-215.5 -95.5q-70 -3 -112.5 26t-58.5 74.5t-9 94.5l98 -9q-3 -53 20.5 -82.5t64.5 -31.5q70 -3 145 77t110 173q-40 30 -93 30q-59 -3 -104 -57l-58 69q65 54 143 55q56 3 136 -38
q37 90 37 163q0 118 -82 120t-168 -124z" />
    <glyph glyph-name="ucircumflex" unicode="&#xde;" horiz-adv-x="865" 
d="M370 697l90 -38q-43 -93 -79 -161q-38 -76 -58 -113q-28 -58 -44 -86q-2 -3 -4 -7t-4 -7l5 -5q63 61 146 127.5t137 96.5l61 -59q-42 -42 -81 -121t-45 -143q-7 -115 73 -118q58 -1 125.5 67.5t113.5 173t46 202.5q0 51 -18 83t-59 32q-40 0 -79 -36t-66 -82l-75 27
q38 65 98 115t131 47q85 -1 127.5 -60t40.5 -142q0 -90 -38 -178.5t-99.5 -161t-131 -114.5t-128.5 -42q-55 0 -103 39t-48 148q0 83 43 165l-5 5q-63 -37 -155 -147t-148 -206l-96 18q13 26 28.5 55.5t23.5 46.5q68 131 125 251q20 43 32 68.5t34 71.5q9 18 23.5 49.5
t27.5 58.5q11 28 33 80z" />
    <glyph glyph-name="ucircumflex" unicode="&#x42e;" horiz-adv-x="865" 
d="M370 697l90 -38q-43 -93 -79 -161q-38 -76 -58 -113q-28 -58 -44 -86q-2 -3 -4 -7t-4 -7l5 -5q63 61 146 127.5t137 96.5l61 -59q-42 -42 -81 -121t-45 -143q-7 -115 73 -118q58 -1 125.5 67.5t113.5 173t46 202.5q0 51 -18 83t-59 32q-40 0 -79 -36t-66 -82l-75 27
q38 65 98 115t131 47q85 -1 127.5 -60t40.5 -142q0 -90 -38 -178.5t-99.5 -161t-131 -114.5t-128.5 -42q-55 0 -103 39t-48 148q0 83 43 165l-5 5q-63 -37 -155 -147t-148 -206l-96 18q13 26 28.5 55.5t23.5 46.5q68 131 125 251q20 43 32 68.5t34 71.5q9 18 23.5 49.5
t27.5 58.5q11 28 33 80z" />
    <glyph glyph-name="udieresis" unicode="&#xdf;" horiz-adv-x="693" 
d="M718 129l-25 -75q-104 -66 -154 -64q-54 0 -57 56q-3 70 85 202q12 18 27.5 41.5t20.5 31.5q25 39 34 49q-63 -16 -86 -47q-24 -27 -45 -54q-62 -80 -141.5 -146t-149.5 -97.5t-115 -31.5q-43 0 -69.5 28.5t-28.5 64.5q-1 36 22 77.5t36 43.5q8 0 12 -6l49 -29
q11 -5 11 -17q-2 -8 -4 -11q-3 -7 -14 -15q-12 -19 -11 -35q0 -27 27 -27q53 -3 164 81t164 149q-7 -3 -13.5 -5t-16.5 -6q-2 0 -17 -5t-26 -7q-15 -5 -37 -5q-43 0 -66 25.5t-25 65.5q-1 45 27.5 109t74.5 118t107.5 90t124.5 33q48 -1 77.5 -34t28.5 -81q-7 -75 -74 -174
q46 24 84 56l60 -32q-11 -18 -59 -99q-56 -96 -68 -120q-5 -10 -10.5 -20.5l-11 -21t-11.5 -21.5q-12 -20 -17 -40q-4 -12 -4 -19q-1 -22 18 -22q47 5 102 46zM517 367q41 45 76.5 107.5t36.5 103.5q3 32 -13 41.5t-29 9.5q-42 1 -93.5 -43.5t-87 -103.5t-34.5 -97
q2 -47 52 -44q43 2 92 26z" />
    <glyph glyph-name="udieresis" unicode="&#x42f;" horiz-adv-x="693" 
d="M718 129l-25 -75q-104 -66 -154 -64q-54 0 -57 56q-3 70 85 202q12 18 27.5 41.5t20.5 31.5q25 39 34 49q-63 -16 -86 -47q-24 -27 -45 -54q-62 -80 -141.5 -146t-149.5 -97.5t-115 -31.5q-43 0 -69.5 28.5t-28.5 64.5q-1 36 22 77.5t36 43.5q8 0 12 -6l49 -29
q11 -5 11 -17q-2 -8 -4 -11q-3 -7 -14 -15q-12 -19 -11 -35q0 -27 27 -27q53 -3 164 81t164 149q-7 -3 -13.5 -5t-16.5 -6q-2 0 -17 -5t-26 -7q-15 -5 -37 -5q-43 0 -66 25.5t-25 65.5q-1 45 27.5 109t74.5 118t107.5 90t124.5 33q48 -1 77.5 -34t28.5 -81q-7 -75 -74 -174
q46 24 84 56l60 -32q-11 -18 -59 -99q-56 -96 -68 -120q-5 -10 -10.5 -20.5l-11 -21t-11.5 -21.5q-12 -20 -17 -40q-4 -12 -4 -19q-1 -22 18 -22q47 5 102 46zM517 367q41 45 76.5 107.5t36.5 103.5q3 32 -13 41.5t-29 9.5q-42 1 -93.5 -43.5t-87 -103.5t-34.5 -97
q2 -47 52 -44q43 2 92 26z" />
    <glyph glyph-name="dagger" unicode="&#x2020;" horiz-adv-x="532" 
d="M301 441h-219l23 58h219l106 235h86l-106 -235h215l-23 -58h-215l-269 -585h-82z" />
    <glyph glyph-name="degree" unicode="&#xb0;" horiz-adv-x="328" 
d="M441 704l-15 -56q-38 7 -70.5 -8t-51 -42.5t-18.5 -55.5q0 -49 45 -49q36 0 57.5 37.5t1.5 83.5l73 22q19 -49 3.5 -96.5t-54 -77.5t-86.5 -30q-32 0 -56.5 15t-37.5 37.5t-15 50.5q-3 46 28 90t84.5 67t111.5 12z" />
    <glyph glyph-name="cent" horiz-adv-x="361" 
d="M386 243l-67 39q8 14 10 21q7 9 5 16q-3 18 -21 15q-26 -1 -68 -39.5t-71.5 -90.5t-25.5 -94q4 -38 42 -38q30 -1 67 12q38 14 56 21q53 21 73 30l-24 -71q-31 -13 -54 -23q-63 -24 -79 -29q-40 -13 -85 -12q-97 3 -101 97q-3 68 49.5 142t130 123t137.5 46
q35 -1 54.5 -23.5t16.5 -55.5q-5 -47 -45 -86z" />
    <glyph glyph-name="sterling" horiz-adv-x="547" 
d="M222 405h17q2 6 4 10l3 6q32 81 69 147.5t90 111t126 45.5q76 1 111 -39.5t35 -95.5q1 -88 -80 -162l-76 44q72 50 73 117q0 37 -20 51.5t-48 12.5q-54 -1 -95 -67q-15 -23 -45 -91q-2 -6 -11 -22t-17 -31t-10.5 -21.5t2.5 -6.5q5 1 9 1.5t7.5 0.5t8.5 1q16 0 17 -10
q1 -5 -1 -13q-9 -20 -11 -24q-5 -7 -13 -23q-8 -13 -16 -16t-41 -6q-22 -52 -36 -79q-47 -93 -112 -160l5 -8q32 14 58.5 17.5t35.5 4.5q41 0 77 -10q58 -17 73 -17q49 0 76 60l71 -38q-45 -109 -154 -110q-24 0 -54 7q-15 3 -30 6.5t-27 6t-32 6.5q-35 8 -67 8
q-35 0 -69 -6.5t-90 -24.5l-21 61q50 17 84 61.5t73 133.5q6 13 21 41.5t18 37.5h-35h-43q-28 2 -29 16q0 6 2 10t2 3l28 39q5 12 23 16h11q19 -2 53 -2z" />
    <glyph glyph-name="section" unicode="&#xa7;" horiz-adv-x="592" 
d="M691 537h-91q3 24 3 28q1 23 -11.5 39t-31.5 18q-24 3 -45.5 -17.5t-22.5 -67.5q-2 -28 7 -74q8 -30 13.5 -53t8.5 -39q10 -56 10 -86q3 -100 -53.5 -175.5t-154.5 -87.5q5 -41 -8 -78.5t-37 -65t-56 -42t-72 -12.5q-65 4 -96.5 51.5t-23.5 107.5h105q-6 -83 38 -85
q22 -2 39 18t20 59q2 23 -8 70q-2 15 -7 41.5t-9 48.5q-7 35 -11 85q-1 91 45 166.5t115 90.5l18 -61q-25 -10 -55 -50t-24 -124q2 -22 8 -60q2 -10 4.5 -28t4.5 -33q2 -12 3.5 -21.5t1.5 -16.5q55 4 85 52.5t28 124.5q0 46 -14 109q-24 125 -19 163q4 42 28.5 82t63.5 62.5
t82 16.5q68 -7 100 -53.5t19 -102.5z" />
    <glyph glyph-name="bullet" unicode="&#xb7;" horiz-adv-x="693" 
d="M361 322q0 28 21 50.5t50 22.5q31 0 52.5 -22.5t21.5 -50.5q0 -39 -34.5 -60.5t-73.5 -1.5q-37 22 -37 62z" />
    <glyph glyph-name="bullet" unicode="&#x2022;" horiz-adv-x="693" 
d="M361 322q0 28 21 50.5t50 22.5q31 0 52.5 -22.5t21.5 -50.5q0 -39 -34.5 -60.5t-73.5 -1.5q-37 22 -37 62z" />
    <glyph glyph-name="paragraph" unicode="&#xb6;" horiz-adv-x="544" 
d="M-22 -202l282 606q-77 3 -103.5 56t7.5 124q23 48 64 88.5t93.5 66.5t107.5 27h87l-452 -968h-86zM136 -202l452 968h87l-452 -968h-87z" />
    <glyph glyph-name="germandbls" unicode="&#xb2;" horiz-adv-x="447" 
d="M597 691l38 -58q-89 -88 -133 -197q-9 -23 -18 -45.5t-18 -45.5q-53 -134 -108 -211.5t-109.5 -109.5t-109.5 -34q-22 0 -73 18.5t-52 32.5q0 6 2 8l44 65q4 5 9 7h4q1 0 2.5 -0.5t2.5 -0.5q4 -1 6 -6q41 -48 87 -46q39 1 68 33t47.5 71.5t46.5 106.5q42 97 55 126
q37 89 71 137.5t87 77.5l-4 10q-52 -10 -82 -10q-20 0 -43 5q-5 2 -13.5 4t-17.5 4q-8 2 -17 4t-16 2q-43 2 -73 -33l-58 80q48 41 119 38q16 0 54 -6q27 -8 57 -16q57 -15 85.5 -17.5t59.5 6.5zM585 912l36 -1q33 0 33 -24q-2 -26 -27.5 -53t-52.5 -26q-36 0 -36 25
q0 24 13.5 52t33.5 27z" />
    <glyph glyph-name="registered" unicode="&#xae;" horiz-adv-x="867" 
d="M172 347q0 101 50 183.5t135 129.5t177 47q101 0 184.5 -50t130.5 -133.5t47 -176.5q0 -94 -47 -177.5t-130.5 -133.5t-184.5 -50q-91 0 -176 46.5t-135.5 129.5t-50.5 185zM232 347q0 -79 39.5 -149.5t109 -112.5t153.5 -42q85 0 155 42t109 112.5t39 149.5
q0 65 -24 120t-68 97t-97.5 64t-113.5 22q-63 0 -119.5 -24.5t-98 -68.5t-63 -97t-21.5 -113zM427 418l-47 39q86 108 218 99q55 -1 93.5 -30t38.5 -76q1 -53 -33.5 -82t-79.5 -39q3 -68 9.5 -87t21.5 -17q2 1 3.5 1.5t3.5 0.5q5 3 9.5 6t6.5 4q3 3 7 5t5 5l27 -45
q-56 -38 -85 -38q-44 -1 -56.5 67.5t-6.5 141.5q55 5 80 28t25 48q0 19 -13.5 33.5t-32.5 15.5q-40 -38 -84 -134q-10 -25 -14.5 -35t-10.5 -25q-35 -76 -68.5 -114.5t-92.5 -26.5l-12 56q42 -7 67.5 20.5t50.5 86.5q5 11 33 74q24 54 59 89q4 4 6 6.5t5 5.5q4 2 5 5
q-66 -6 -138 -88z" />
    <glyph glyph-name="copyright" unicode="&#xa9;" horiz-adv-x="867" 
d="M172 347q0 101 50 183.5t135 129.5t177 47q101 0 184.5 -50t130.5 -133.5t47 -176.5q0 -94 -47 -177.5t-130.5 -133.5t-184.5 -50q-91 0 -176 46.5t-135.5 129.5t-50.5 185zM232 347q0 -79 39.5 -149.5t109 -112.5t153.5 -42q85 0 155 42t109 112.5t39 149.5
q0 65 -24 120t-68 97t-97.5 64t-113.5 22q-63 0 -119.5 -24.5t-98 -68.5t-63 -97t-21.5 -113zM644 384l-58 20q26 31 21 50q0 30 -31 30q-30 1 -64.5 -30t-55 -79t-16.5 -93q5 -61 54 -67q40 -2 116 52l26 -43q-82 -67 -158 -71q-50 -3 -81.5 31.5t-34.5 91.5q-1 69 34 133
t89 103t106 39q34 0 57.5 -20.5t23.5 -52.5q2 -44 -28 -94z" />
    <glyph glyph-name="trademark" horiz-adv-x="801" 
d="M402 706h-104l23 60h281l-24 -60h-105l-129 -325h-71zM687 381l22 293h-4l-18 -48l-96 -245h-69l152 385h93l-17 -264l-7 -39h4l23 39l191 264h94l-153 -385h-70l97 245l23 48h-5l-211 -293h-49z" />
    <glyph glyph-name="trademark" unicode="&#x2122;" horiz-adv-x="801" 
d="M402 706h-104l23 60h281l-24 -60h-105l-129 -325h-71zM687 381l22 293h-4l-18 -48l-96 -245h-69l152 385h93l-17 -264l-7 -39h4l23 39l191 264h94l-153 -385h-70l97 245l23 48h-5l-211 -293h-49z" />
    <glyph glyph-name="acute" horiz-adv-x="1089" 
d="M643 680l61 -50q-22 -24 -73 -88.5t-117.5 -156.5t-140 -207.5t-131.5 -230.5l-98 28q80 148 227 343q30 38 45.5 57.5t43.5 55.5q31 43 60 77q10 12 21.5 26t17.5 22q16 21 18 25l-4 5q-32 -22 -81 -19q-25 2 -37 9q-6 -61 -58 -105.5t-111 -44.5q-46 2 -75 34t-26 82
q5 83 73 135.5t154 43.5v-49q-87 -11 -122.5 -57t-35.5 -89q3 -38 26 -44q19 -8 43 3t40.5 39t16.5 68q0 16 -7 37l64 33q10 -10 20 -28q33 -14 63 -10q58 5 123 56zM635 183l74 28q11 -17 14 -50q0 -46 -22 -87.5t-61.5 -68t-88.5 -25.5q-30 0 -65.5 19t-38.5 82
q-1 51 30.5 98t84.5 73t119 20l4 -48q-82 -7 -124.5 -52.5t-44.5 -92.5q0 -25 14 -38.5t32 -11.5q37 2 65.5 51t7.5 103zM974 183l74 28q11 -17 14 -50q0 -46 -22 -87.5t-61.5 -68t-88.5 -25.5q-30 0 -65.5 19t-38.5 82q-1 51 30.5 98t84.5 73t119 20l4 -48
q-82 -7 -124.5 -52.5t-44.5 -92.5q0 -25 14 -38.5t32 -11.5q37 2 65.5 51t7.5 103z" />
    <glyph glyph-name="dieresis" unicode="&#xbd;" horiz-adv-x="693" 
d="M78 148l248 164l-83 162l60 40l83 -162l247 164l21 -41l-248 -164l83 -161l-61 -41l-82 162l-248 -164z" />
    <glyph glyph-name="notequal" horiz-adv-x="693" 
d="M505 380l-144 -115h253l-26 -57h-298l-240 -193l-44 53l175 140h-114l27 57h158l145 115h-249l26 58h294l245 195l43 -52l-180 -143h119l-27 -58h-163z" />
    <glyph glyph-name="AE" horiz-adv-x="517" 
d="M792 704l-30 -71q-6 0 -10.5 0.5t-13.5 0.5h-71q-26 0 -38 -4q-21 -8 -74 -109q-26 -48 -119 -230q-76 -139 -147.5 -219.5t-173.5 -77.5q-31 3 -71.5 28.5t-43.5 41.5q-1 10 6 17l46 49q3 5 10 5q5 0 9 -5q2 0 3 -2l2 -4q35 -40 74 -40q40 0 84 49q14 15 25 31t25 42
t23.5 44.5t16.5 34.5q86 164 137 241q16 24 28 40.5t19 27.5q5 7 11 16.5t10 15.5q-123 -18 -262 -117l-50 82q81 52 171.5 78.5t185 33t218.5 1.5z" />
    <glyph glyph-name="Oslash" horiz-adv-x="269" 
d="M98 345q91 54 162 54q56 -1 58 -51q1 -30 -27 -68q-8 -9 -25 -26l-26 -26q-110 -107 -107 -133q2 -9 7.5 -15t13.5 -6q15 0 59 19t82 42l-23 -71q-33 -23 -81.5 -43.5t-84.5 -20.5q-39 0 -57 18t-20 44q-3 66 124 189q29 24 42 40q22 17 22 30t-18 8q-12 0 -73 -30z" />
    <glyph glyph-name="plusminus" unicode="&#xb1;" horiz-adv-x="808" 
d="M216 364h232l107 232h57l-107 -232h231l-27 -58h-232l-107 -231h-57l107 231h-231zM48 -110l26 56h480l-27 -56h-479z" />
    <glyph glyph-name="lessequal" horiz-adv-x="723" 
d="M170 408l669 304l9 -67l-595 -271l343 -269l-71 -68l-385 304zM-97 -205l41 87h544l-41 -87h-544z" />
    <glyph glyph-name="greaterequal" horiz-adv-x="723" 
d="M732 341l-668 -304l-7 68l593 269l-341 271l69 67l385 -304zM-79 -205l41 87h544l-41 -87h-544z" />
    <glyph glyph-name="yen" horiz-adv-x="548" 
d="M98 444l118 -1q21 191 33 277l106 -25q-14 -96 -25.5 -163.5t-14.5 -85.5v-3l107 1q94 147 199 272l77 -54q-91 -98 -179 -218h99l-26 -57l-113 -1q-34 -48 -75 -115h134l-27 -57l-140 -1q-52 -89 -117 -223l-82 22q1 9 4.5 32.5t5 40t1.5 26.5q0 11 1.5 28.5t5 40
t4.5 33.5l-203 1l26 57h182l1 9q10 95 10 106l-139 1zM290 210l3 3l-14 1zM387 387l-81 -1q0 -8 -10 -63q0 -11 -4.5 -26.5t-4.5 -25.5l34 -1q17 32 30 53q10 21 36 64z" />
    <glyph glyph-name="mu" horiz-adv-x="454" 
d="M411 373l68 -36l-110 -208q-6 -17 -5 -23q0 -14 14 -16q10 0 31 11q25 13 31 15q11 7 37 19l-23 -71q-110 -65 -149 -64q-40 2 -45 40q-3 10 0 18q3 22 18 49t39 61l-4 4q-3 -1 -6 -5q-26 -22 -40 -36q-135 -135 -194 -131q-44 3 -44 52q0 20 34 96.5t138 268.5l70 -37
l-121 -227q-8 -16 -8 -23v-6q2 -10 11 -12q9 0 24 11q13 8 33 26q6 6 18 16.5t21 20.5q116 103 162 187z" />
    <glyph glyph-name="partialdiff" horiz-adv-x="390" 
d="M348 425l17 -59q-68 -22 -123 -69.5t-83.5 -101.5t-19.5 -91q7 -36 44 -38q29 -2 65.5 30.5t59 92t14.5 130.5l94 27q14 -87 -22.5 -167.5t-103.5 -129.5t-134 -49q-112 0 -113 110q0 92 85.5 181.5t219.5 133.5z" />
    <glyph glyph-name="summation" horiz-adv-x="447" 
d="M596 691l39 -58q-80 -78 -155 -245q-12 -27 -55 -140q-60 -146 -107.5 -237t-112.5 -150.5t-150 -62.5q-23 0 -72.5 19t-50.5 33q-2 4 1 7l46 65q4 9 9 9q1 1 4 0q2 0 3 -2q3 -1 6 -7q43 -47 86 -45q68 3 122 122q16 34 29.5 64.5t31.5 71.5q34 76 51 116
q14 32 29.5 68.5t24.5 55.5q51 115 86 166t85 79l-5 10q-50 -10 -81 -10q-20 0 -43 5q-5 2 -13.5 4t-17.5 4q-8 2 -18 4t-15 2q-43 2 -73 -33l-60 80q50 41 121 38q16 0 54 -6q27 -8 57 -16q55 -15 85 -17.5t59 6.5z" />
    <glyph glyph-name="integral" unicode="&#xaf;" horiz-adv-x="447" 
d="M597 691l38 -58q-89 -88 -133 -197q-9 -23 -18 -45.5t-18 -45.5q-53 -134 -108 -211.5t-109.5 -109.5t-109.5 -34q-22 0 -73 18.5t-52 32.5q0 6 2 8l44 65q4 5 9 7h4q1 0 2.5 -0.5t2.5 -0.5q4 -1 6 -6q41 -48 87 -46q39 1 68 33t47.5 71.5t46.5 106.5q42 97 55 126
q37 89 71 137.5t87 77.5l-4 10q-52 -10 -82 -10q-20 0 -43 5q-5 2 -13.5 4t-17.5 4q-8 2 -17 4t-16 2q-43 2 -73 -33l-58 80q48 41 119 38q16 0 54 -6q27 -8 57 -16q57 -15 85.5 -17.5t59.5 6.5z" />
    <glyph glyph-name="ordfeminine" unicode="&#xbf;" horiz-adv-x="246" 
d="M269 135l-25 -71q-124 -64 -157 -64q-25 0 -41.5 17.5t-16.5 44.5q2 32 34 97t145 258l71 -37l-130 -237q-14 -25 -14 -41q0 -12 14 -12q10 0 43 12q15 5 33 14q21 10 44 19zM310 607l36 -1q25 0 28 -17q5 -24 -24 -55.5t-60 -31.5q-28 0 -33 16v14q7 28 21 51.5t32 23.5
z" />
    <glyph glyph-name="ordmasculine" horiz-adv-x="630" 
d="M655 135l-25 -71q-104 -72 -151 -72q-30 0 -48.5 20.5t-21.5 55.5q-1 47 28 107q22 48 40 85l12 24l12 24q2 5 6 13t6 13l-7 4q-3 -6 -7.5 -10.5t-10.5 -12.5q-14 -14 -28 -31q-8 -10 -16.5 -20t-21.5 -25q-207 -253 -320 -250q-26 0 -56.5 17.5t-31.5 66.5
q0 36 20.5 83.5t38.5 37.5l58 -32q9 -5 11 -13q2 -3 0 -7q-2 -11 -12 -26q-7 -9 -7 -21q2 -19 24 -19q40 0 116.5 74t165 186.5t159 217t93.5 153.5l94 -50q-10 -20 -20.5 -40.5t-21 -40.5t-21.5 -41q-58 -109 -84 -164q-69 -139 -92 -197t-21 -76q0 -20 25 -20
q21 1 55 19.5t60 37.5z" />
    <glyph glyph-name="Omega" horiz-adv-x="414" 
d="M369 422l72 -36l-65 -133q-7 -18 -14.5 -36t-15.5 -36q-13 -27 -18 -43q-2 -16 -2 -24q2 -21 20 -21q20 -3 95 42l-23 -71q-101 -64 -132 -64q-21 0 -37.5 13.5t-19.5 41.5q0 35 34 98q2 5 12 20q1 6 7 13l-11 6q-2 -3 -4.5 -5.5l-5.5 -5.5q-8 -12 -17 -23
q-56 -74 -101.5 -115.5t-97.5 -42.5q-68 0 -74 67q-1 22 8 42l78 40q-4 -14 -4 -34q0 -12 4 -21.5t19 -9.5q45 3 138.5 121.5t154.5 216.5z" />
    <glyph glyph-name="ae" horiz-adv-x="659" 
d="M687 135l-28 -77q-33 -20 -83.5 -39t-77.5 -19q-25 0 -43.5 17t-19.5 51q-1 32 19 86t83 184q-93 2 -181 -16l-28 -52t-29 -53q-5 -10 -25.5 -50t-35.5 -70q-19 -34 -55 -100l-96 27q43 78 52 92q46 84 55 98q15 27 22 40.5t12 24.5q3 5 15 29q-53 -10 -93 -32
q-12 -4 -10 -4q-17 5 -11 19l19 52q5 15 31.5 24.5t105.5 20.5q7 13 13 26t12.5 26l12.5 25q28 53 47 93q52 106 85 165l84 -45q-69 -123 -148 -281q86 8 169 5q9 0 10 1q3 1 4 5q14 24 29 52t18 34q9 15 53 89q56 90 82 126l73 -50q-23 -38 -47 -75q-15 -22 -32.5 -51
t-28.5 -46q-16 -30 -26.5 -48t-22.5 -40q33 -2 49 -5l-25 -63q-10 2 -16 3t-14 2q-5 0 -10 0.5t-11 -0.5q-1 -1 -2.5 -1.5t-2.5 -1.5q-4 -2 -6 -9q-30 -58 -38 -75q-51 -104 -51 -142q0 -23 23 -23q34 3 119 51z" />
    <glyph glyph-name="oslash" horiz-adv-x="465" 
d="M208 413l71 -33l-84 -163q6 2 10.5 3t7.5 2q8 3 21.5 5t26.5 5l28 4t26 2q5 0 9.5 0.5t11.5 0.5l67 140l72 -31l-95 -192q-2 -5 -14 -31q0 -3 -1.5 -6.5t-3.5 -7.5q0 -3 -0.5 -5t-0.5 -5q0 -15 15 -15q14 0 42 14q6 3 11.5 5.5t11.5 5t11 4.5q10 5 18.5 9.5t22.5 10.5
l-22 -71q-110 -63 -151 -64q-30 -1 -46 16.5t-16 42.5q1 23 13 46q12 27 25 49q3 7 6 12.5t7 15.5q-72 -9 -142 -33l-76 -156l-85 24z" />
    <glyph glyph-name="questiondown" horiz-adv-x="190" 
d="M10 -237l-97 18q43 144 197 446q35 68 42 82q23 47 52 105l72 -35q-36 -66 -66 -127.5t-81 -176.5t-79 -188.5t-40 -123.5zM290 607l34 -1q27 0 31 -17q6 -23 -20.5 -55t-57.5 -32q-37 0 -34 30q5 29 17 52t30 23z" />
    <glyph glyph-name="exclamdown" horiz-adv-x="497" 
d="M29 133l91 54q14 -48 49 -81t88 -32q65 3 106 42t39 88q-4 27 -12 44q-8 18 -52 71q-41 47 -63.5 87t-25.5 93q-3 88 57.5 153.5t156.5 71.5q81 4 127.5 -37t52.5 -110l-96 -37q5 35 -10 72t-68 37q-54 0 -93 -37t-35 -97q6 -63 71 -136q59 -65 75 -99q14 -38 15 -62
q5 -85 -73 -153.5t-192 -70.5q-59 0 -113.5 26t-94.5 113z" />
    <glyph glyph-name="logicalnot" unicode="&#xac;" horiz-adv-x="418" 
d="M119 205l28 39q5 12 23 16h12q18 -2 53 -2q97 6 126 11q5 1 9.5 1.5l9 1t8.5 0.5q15 0 16 -10q1 -5 -1 -13q-1 -3 -3 -7.5t-7 -16.5q-6 -9 -8.5 -14t-5.5 -9q-9 -16 -25 -20.5t-78 -5.5h-88h-44q-28 2 -29 16q0 6 2 10t2 3z" />
    <glyph glyph-name="radical" horiz-adv-x="438" 
d="M19 432l12 76q86 0 133 -14t121 -48q12 -60 14 -78t-3 -45q-3 -20 -10 -70q-2 -14 -3.5 -21.5l-3.5 -17.5l11 -4q3 4 20 39q24 46 41 74q117 213 270 393l77 -54q-66 -72 -125 -147.5t-121 -170t-110.5 -183t-87.5 -171.5l-82 22q10 87 11 99q3 29 9 85t8 84q5 58 9 101
q-34 15 -53 26.5t-44.5 16t-92.5 8.5z" />
    <glyph glyph-name="florin" unicode="&#x192;" horiz-adv-x="438" 
d="M221 68q19 44 67 144t68 144q-66 -7 -115 -19l12 62q40 10 123 17l33 76q33 77 67 112t95 32q47 -2 74 -28.5t25 -73.5q0 -23 -7 -45l-88 -3q10 22 10 42q0 31 -28 31q-25 1 -37.5 -17.5t-28.5 -58.5l-26 -63q71 4 135 -10l-43 -63q-54 15 -116 9q-10 -23 -19 -43
t-21.5 -47.5t-23.5 -51.5q-7 -16 -8 -18.5t2 5.5t5 13l-70 -156q-50 -115 -109 -181.5t-162 -62.5q-72 4 -127 48l48 72q34 -37 87 -42q47 -1 79.5 26t58.5 76q11 18 19 34.5t21 39.5z" />
    <glyph glyph-name="approxequal" horiz-adv-x="389" 
d="M614 646l-28 -90q-14 -2 -38.5 -7t-45.5 -9q-51 -13 -65 -19q-19 -7 -23 -27q-1 -12 5.5 -42t6.5 -33q6 -26 6 -71q0 -92 -40 -173t-102.5 -128t-126.5 -47q-52 0 -85.5 30t-34.5 85q-2 82 74.5 161.5t192.5 103.5l26 -49q-96 -37 -144.5 -97t-52.5 -110
q0 -21 10.5 -36.5t26.5 -16.5q26 -3 66 24.5t72.5 77t42.5 111.5q9 38 0 94q-1 18 -9 48q-9 35 -17 54l-6.5 26t-5.5 21q-2 18 5 30.5t35.5 26.5t87 29t167.5 33z" />
    <glyph glyph-name="Delta" horiz-adv-x="438" 
d="M107 80q70 -17 94 -16.5t105 25.5q8 31 14 66.5t8 59t3 33.5q4 21 9.5 55t10.5 67q5 27 10 71q1 7 3.5 17.5t2.5 20.5l-10 4q-5 -9 -20 -38q-33 -61 -41 -75q-6 -12 -22.5 -37.5t-37.5 -58.5t-65 -98.5t-64 -95.5zM325 -32q-95 -10 -156 -9t-140 19l-31 96q67 87 122 163
t102.5 152.5t86.5 148t84 166.5l81 -23q-8 -66 -10 -99q-2 -31 -7 -79t-10 -90q-15 -150 -43 -360z" />
    <glyph glyph-name="guillemotleft" unicode="&#xab;" horiz-adv-x="506" 
d="M271 370l48 -44l-26.5 -26.5l-27.5 -27.5q-26 -24 -41 -35q-3 -3 -24 -22q-8 -4 -8 -9q-2 -7 7.5 -20t91.5 -124l-59 -43q-28 49 -59 93q-19 30 -33 47q-25 36 -25 47q0 2 5 12q8 8 15 14.5t17 16.5q71 62 119 121zM446 357l46 -40l-16.5 -16.5t-17 -17.5t-18.5 -18
q-29 -25 -62 -51q-8 -8 -8 -9l5 -10q9 -8 18.5 -20t17.5 -23q39 -49 46 -59l-59 -44q-2 3 -13 21.5t-19.5 30t-25.5 35.5t-19 27q-14 17 -21 33q-2 6 -2 9q1 7 35 41q13 13 27.5 26t28.5 26q19 19 57 59z" />
    <glyph glyph-name="guillemotright" unicode="&#xbb;" horiz-adv-x="506" 
d="M305 19l-48 45q9 9 56 54q10 9 18.5 17.5t20.5 18.5q5 4 12.5 9.5t13.5 9.5q2 3 5 6.5t3 5.5q1 6 -100 143l60 42q18 -31 58 -93q13 -18 20.5 -28.5t12.5 -19.5q26 -37 26 -44q-5 -11 -7 -13q-6 -7 -31 -30q-46 -40 -120 -123zM131 32l-44 41q23 29 52 52q19 19 61 51
q4 4 8 10q0 1 -7 10q-23 26 -34 42q-37 47 -47 60l61 43q33 -55 76 -116q14 -18 19 -30q3 -12 3 -10q-5 -12 -35 -40q-18 -18 -29 -28.5t-25 -23.5q-30 -28 -59 -61z" />
    <glyph glyph-name="ellipsis" unicode="&#xbe;" horiz-adv-x="756" 
d="M585 96l36 -1q33 0 33 -24q-2 -26 -27.5 -53t-52.5 -26q-36 0 -36 25q0 24 13.5 52t33.5 27zM381 96l36 -1q33 0 33 -24q-2 -26 -27.5 -53t-52.5 -26q-36 0 -36 25q0 24 13.5 52t33.5 27zM177 96l36 -1q33 0 33 -24q-2 -26 -27.5 -53t-52.5 -26q-36 0 -36 25
q0 24 13.5 52t33.5 27z" />
    <glyph glyph-name="ellipsis" unicode="&#x2026;" horiz-adv-x="756" 
d="M585 96l36 -1q33 0 33 -24q-2 -26 -27.5 -53t-52.5 -26q-36 0 -36 25q0 24 13.5 52t33.5 27zM381 96l36 -1q33 0 33 -24q-2 -26 -27.5 -53t-52.5 -26q-36 0 -36 25q0 24 13.5 52t33.5 27zM177 96l36 -1q33 0 33 -24q-2 -26 -27.5 -53t-52.5 -26q-36 0 -36 25
q0 24 13.5 52t33.5 27z" />
    <glyph glyph-name="Agrave" horiz-adv-x="354" 
d="M271 370l48 -44l-26.5 -26.5l-27.5 -27.5q-26 -24 -41 -35q-3 -3 -24 -22q-8 -4 -8 -9q-2 -7 7.5 -20t91.5 -124l-59 -43q-28 49 -59 93q-19 30 -33 47q-25 36 -25 47q0 2 5 12q8 8 15 14.5t17 16.5q71 62 119 121z" />
    <glyph glyph-name="Atilde" horiz-adv-x="324" 
d="M125 16l-48 45q9 9 56 54q10 9 18.5 17.5t20.5 18.5q5 4 12.5 9.5t13.5 9.5q2 3 5 6.5t3 5.5q1 6 -100 143l60 42q18 -31 58 -93q13 -18 20.5 -28.5t12.5 -19.5q26 -37 26 -44q-5 -11 -7 -13q-6 -7 -31 -30q-46 -40 -120 -123z" />
    <glyph glyph-name="Otilde" unicode="&#x152;" horiz-adv-x="629" 
d="M411 690l86 -49l-144 -256q17 17 35 17q1 0 28 -3q37 0 81 16.5t113.5 90t139.5 212.5l86 -44q-83 -157 -177 -228.5t-171 -90.5q-30 -7 -34 -9q-22 -9 -26 -33q-6 -31 4.5 -89t34 -102.5t53.5 -47.5q43 -1 135 66l-26 -76q-76 -63 -136 -64q-43 0 -75 29.5t-52.5 84
t-26.5 117.5t2 133l-188 -375l-96 27z" />
    <glyph glyph-name="OE" horiz-adv-x="436" 
d="M204 408l68 -42l-114 -203l4 -2q6 6 10.5 10t9.5 9q11 9 20.5 19.5t15.5 15.5q45 47 101 92.5t137 92.5l37 -67q-64 -29 -128 -70t-103 -77l1 -5q14 4 26 4q32 -3 28 -37q-1 -8 -13 -36q-4 -8 -8 -24v-7q5 -18 17 -22q22 -4 67.5 22.5t80.5 53.5l-21 -71
q-95 -82 -175 -78q-60 0 -60 62q0 27 10 47q3 6 4.5 9.5t4.5 11.5q1 3 1 7q3 11 -7 11q-15 1 -62 -50t-77 -91l-74 19z" />
    <glyph glyph-name="oe" unicode="&#x153;" horiz-adv-x="294" 
d="M391 317l-65 -31q-12 42 -51 45q-20 1 -33 -10.5t-15 -26.5q-2 -9 12 -34q6 -10 19 -29.5t16 -25.5q22 -37 22 -74q0 -50 -42.5 -92.5t-122.5 -48.5q-46 -3 -74.5 12.5t-35 41t7.5 57.5l86 11q-13 -21 -6 -40.5t34 -18.5q31 1 46.5 20t15.5 39q0 12 -11 38q-10 19 -19 32
t-18 28q-27 44 -27 75q-3 46 40 83.5t110 36.5q46 0 74.5 -23.5t36.5 -64.5z" />
    <glyph glyph-name="endash" horiz-adv-x="693" 
d="M236 355h520l-28 -58h-520z" />
    <glyph glyph-name="endash" unicode="&#x2013;" horiz-adv-x="693" 
d="M236 355h520l-28 -58h-520z" />
    <glyph glyph-name="emdash" horiz-adv-x="707" 
d="M119 191l23 36q6 13 17 15q9 2 18 1t18 -1q23 -2 72 -2q43 2 130 2q72 2 113.5 4.5t148.5 13.5q4 1 13 1q6 2 11 0q9 -2 10 -7q4 -4 0 -8q0 -5 -2 -9l-20 -45q-6 -16 -16.5 -19t-71.5 -6q-34 -1 -105 -1q-12 -1 -37 -1.5t-40.5 -0.5t-34.5 -1h-131q-65 -2 -97 1
q-22 5 -23 12q0 2 2 8t2 7z" />
    <glyph glyph-name="emdash" unicode="&#x2014;" horiz-adv-x="707" 
d="M119 191l23 36q6 13 17 15q9 2 18 1t18 -1q23 -2 72 -2q43 2 130 2q72 2 113.5 4.5t148.5 13.5q4 1 13 1q6 2 11 0q9 -2 10 -7q4 -4 0 -8q0 -5 -2 -9l-20 -45q-6 -16 -16.5 -19t-71.5 -6q-34 -1 -105 -1q-12 -1 -37 -1.5t-40.5 -0.5t-34.5 -1h-131q-65 -2 -97 1
q-22 5 -23 12q0 2 2 8t2 7z" />
    <glyph glyph-name="quotedblleft" horiz-adv-x="455" 
d="M482 522l-31 2q-25 1 -25 23q2 13 19 37q18 31 30 46q60 76 88 77q6 2 15 -2q6 -3 15 -14q7 -9 7 -11q0 -6 -2 -7q-1 -6 -9 -14q-29 -34 -47.5 -68t-26.5 -54q-3 -6 -6 -11q-5 -6 -27 -4zM345 522l-32 2q-24 1 -24 23q2 15 18 37q18 31 31 46q57 76 87 77q7 3 16 -2
q5 -2 14 -14q6 -12 6 -11q0 -6 -1 -7q-1 -6 -9 -14q-42 -47 -75 -122q-1 -6 -5 -11q-5 -7 -26 -4z" />
    <glyph glyph-name="quotedblleft" unicode="&#x201c;" horiz-adv-x="455" 
d="M482 522l-31 2q-25 1 -25 23q2 13 19 37q18 31 30 46q60 76 88 77q6 2 15 -2q6 -3 15 -14q7 -9 7 -11q0 -6 -2 -7q-1 -6 -9 -14q-29 -34 -47.5 -68t-26.5 -54q-3 -6 -6 -11q-5 -6 -27 -4zM345 522l-32 2q-24 1 -24 23q2 15 18 37q18 31 31 46q57 76 87 77q7 3 16 -2
q5 -2 14 -14q6 -12 6 -11q0 -6 -1 -7q-1 -6 -9 -14q-42 -47 -75 -122q-1 -6 -5 -11q-5 -7 -26 -4z" />
    <glyph glyph-name="quotedblright" horiz-adv-x="455" 
d="M405 707l33 -2q16 0 21 -8t2 -16q-1 -16 -18 -37q-7 -13 -30 -46q-57 -76 -89 -77q-7 -1 -15 3q-6 3 -14 15q-5 5 -6 10q0 5 1 6q1 6 9 14q44 49 74 123q2 8 5 10q6 5 27 5zM544 707l32 -2q28 -1 24 -24q-2 -14 -19 -37q-15 -28 -30 -46q-60 -76 -88 -77q-9 -1 -16 3
q-4 3 -15 15q-6 8 -6 10q0 5 1 6q1 7 10 14q45 51 74 123q2 8 5 10q5 5 28 5z" />
    <glyph glyph-name="quotedblright" unicode="&#x201d;" horiz-adv-x="455" 
d="M405 707l33 -2q16 0 21 -8t2 -16q-1 -16 -18 -37q-7 -13 -30 -46q-57 -76 -89 -77q-7 -1 -15 3q-6 3 -14 15q-5 5 -6 10q0 5 1 6q1 6 9 14q44 49 74 123q2 8 5 10q6 5 27 5zM544 707l32 -2q28 -1 24 -24q-2 -14 -19 -37q-15 -28 -30 -46q-60 -76 -88 -77q-9 -1 -16 3
q-4 3 -15 15q-6 8 -6 10q0 5 1 6q1 7 10 14q45 51 74 123q2 8 5 10q5 5 28 5z" />
    <glyph glyph-name="quoteleft" horiz-adv-x="317" 
d="M346 522l-33 3q-24 1 -24 21q2 19 28 57t59.5 71.5t49.5 34.5q10 1 22.5 -9t14.5 -19q0 -5 -2 -7q-1 -6 -9 -14q-41 -43 -66 -104l-3.5 -7t-4.5 -10q-5 -11 -10 -14.5t-10.5 -3t-11.5 0.5z" />
    <glyph glyph-name="quoteleft" unicode="&#x2018;" horiz-adv-x="317" 
d="M346 522l-33 3q-24 1 -24 21q2 19 28 57t59.5 71.5t49.5 34.5q10 1 22.5 -9t14.5 -19q0 -5 -2 -7q-1 -6 -9 -14q-41 -43 -66 -104l-3.5 -7t-4.5 -10q-5 -11 -10 -14.5t-10.5 -3t-11.5 0.5z" />
    <glyph glyph-name="quoteright" horiz-adv-x="317" 
d="M405 709l32 -4q26 -1 26 -20q-2 -28 -57 -94.5t-82 -69.5q-12 0 -22.5 10t-12.5 19q0 4 1 6q1 5 9 13q35 39 66 104q1 4 8 20q5 13 11 14.5t21 1.5z" />
    <glyph glyph-name="quoteright" unicode="&#x2019;" horiz-adv-x="317" 
d="M405 709l32 -4q26 -1 26 -20q-2 -28 -57 -94.5t-82 -69.5q-12 0 -22.5 10t-12.5 19q0 4 1 6q1 5 9 13q35 39 66 104q1 4 8 20q5 13 11 14.5t21 1.5z" />
    <glyph glyph-name="quoteright" unicode="&#xb4;" horiz-adv-x="317" 
d="M405 709l32 -4q26 -1 26 -20q-2 -28 -57 -94.5t-82 -69.5q-12 0 -22.5 10t-12.5 19q0 4 1 6q1 5 9 13q35 39 66 104q1 4 8 20q5 13 11 14.5t21 1.5z" />
    <glyph glyph-name="divide" unicode="&#xbc;" horiz-adv-x="693" 
d="M195 361h520l-28 -58h-520zM482 531l35 -1q33 0 33 -23q0 -26 -25.5 -54t-54.5 -27q-35 0 -35 28q0 22 13.5 50t33.5 27zM352 243l36 -1q32 0 32 -24q-2 -26 -27.5 -53t-51.5 -26q-37 0 -37 25q0 24 14.5 52t33.5 27z" />
    <glyph glyph-name="lozenge" unicode="&#xa3;" horiz-adv-x="455" 
d="M203 76l33 -2q16 0 21 -7.5t2 -15.5q-1 -18 -18 -38q-3 -5 -30 -46q-59 -75 -89 -76q-7 -2 -15 3q-5 3 -14 14q-5 5 -6 10q0 6 1 7q1 6 9 14q39 43 74 122q2 8 5 10q6 6 13.5 6t13.5 -1zM342 76l32 -2q28 -1 24 -23q-2 -15 -19 -38q-17 -28 -30 -46q-62 -75 -88 -76
q-9 -1 -16 3q-5 3 -14 14q-6 6 -7 10q0 6 1 7q1 5 10 14q39 43 74 122q2 8 5 10q6 6 13.5 6t14.5 -1z" />
    <glyph glyph-name="ydieresis" unicode="&#xa1;" horiz-adv-x="559" 
d="M357 725l84 -45q-126 -218 -122 -275q2 -29 29 -29q55 0 144 97.5t154 206.5l86 -45q-53 -96 -104 -199q-20 -42 -31 -67t-29 -61q-51 -107 -97.5 -174t-103 -102.5t-129.5 -36.5q-45 0 -83.5 23.5t-61.5 52.5t-21 40q0 7 11 10l55 35l12 3q6 0 9 -3q2 -2 7 -12
q6 -11 6 -13q20 -33 23 -36q22 -31 65 -31q44 0 81.5 35.5t62 78.5t73.5 136q7 14 39 76q9 14 21 37l-8 8q-46 -57 -112.5 -102t-122.5 -42q-74 3 -74 80q0 47 28 123t109 231z" />
    <glyph glyph-name="Ydieresis" unicode="&#xa2;" horiz-adv-x="395" 
d="M196 422l73 -37l-96 -176q-2 -4 -4 -8.5t-5 -10t-5.5 -10.5l-4.5 -9q-5 -9 -15 -29q-5 -10 -6 -17q-3 -3 -3 -9q0 -14 13 -15q25 -2 79.5 48t98.5 109q25 33 53 80q1 2 8.5 13t12.5 20l73 -34q-204 -363 -277 -571l-86 19q29 94 86 198q45 77 53 89q18 28 38 62l-8 2
q-136 -143 -198 -135q-47 4 -47 59q0 45 56.5 158t110.5 204z" />
    <glyph glyph-name="Ydieresis" unicode="&#x178;" horiz-adv-x="395" 
d="M196 422l73 -37l-96 -176q-2 -4 -4 -8.5t-5 -10t-5.5 -10.5l-4.5 -9q-5 -9 -15 -29q-5 -10 -6 -17q-3 -3 -3 -9q0 -14 13 -15q25 -2 79.5 48t98.5 109q25 33 53 80q1 2 8.5 13t12.5 20l73 -34q-204 -363 -277 -571l-86 19q29 94 86 198q45 77 53 89q18 28 38 62l-8 2
q-136 -143 -198 -135q-47 4 -47 59q0 45 56.5 158t110.5 204z" />
    <glyph glyph-name="fraction" horiz-adv-x="634" 
d="M398 718l82 -51l-177 -321q-109 -196 -99 -216q0 -20 20 -20q42 0 178.5 138.5t183.5 211.5q20 30 40 65t32 54q38 64 56 95l80 -52q-30 -48 -99 -165t-119.5 -217t-50.5 -130q0 -27 30 -27q47 6 104 52l-25 -71q-69 -74 -136 -70q-75 0 -73 72q0 32 18 80.5t36 80.5
l-5 7q-56 -59 -109.5 -107.5t-114 -88.5t-101.5 -41q-39 -1 -50.5 23t-11.5 46q0 31 35.5 120.5t152.5 306.5q16 30 35 64.5t29 53.5q25 45 34.5 62.5t24.5 44.5z" />
    <glyph glyph-name="currency" unicode="&#x2219;" horiz-adv-x="454" 
d="M411 373l68 -36l-110 -208q-6 -17 -5 -23q0 -14 14 -16q10 0 31 11q25 13 31 15q11 7 37 19l-23 -71q-110 -65 -149 -64q-40 2 -45 40q-3 10 0 18q3 22 18 49t39 61l-4 4q-3 -1 -6 -5q-26 -22 -40 -36q-135 -135 -194 -131q-44 3 -44 52q0 20 34 96.5t138 268.5l70 -37
l-121 -227q-8 -16 -8 -23v-6q2 -10 11 -12q9 0 24 11q13 8 33 26q6 6 18 16.5t21 20.5q116 103 162 187z" />
    <glyph glyph-name="guilsinglleft" unicode="&#xb9;" horiz-adv-x="983" 
d="M376 676l87 -14q3 -27 6.5 -73.5t7.5 -89.5q11 -119 17 -195q2 -22 4 -56.5t4 -66.5l13 -1q29 128 114.5 298.5t175.5 249.5l104 -38q-95 -72 -165 -175t-132 -262q-38 -104 -54 -156q-9 -27 -18.5 -53t-18.5 -52l-93 14q-23 224 -34 467l-14 2q-57 -283 -149.5 -386
t-172.5 -118l-44 84q97 14 160.5 93.5t102.5 192.5t99 335zM895 438l13 -58q-78 -11 -108 -65t-25 -95q3 -37 42 -43q31 0 56 35.5t21 81.5q-4 28 -14 51l67 34q26 -42 20 -92q-6 -68 -57.5 -112t-107.5 -42q-36 2 -63.5 26t-32.5 65q-5 46 17 93.5t67.5 82t104.5 38.5z
M885 86l-32 -80q-127 -8 -248 -5l31 70q125 -4 249 15z" />
    <glyph glyph-name="guilsinglleft" unicode="&#x2039;" horiz-adv-x="983" 
d="M376 676l87 -14q3 -27 6.5 -73.5t7.5 -89.5q11 -119 17 -195q2 -22 4 -56.5t4 -66.5l13 -1q29 128 114.5 298.5t175.5 249.5l104 -38q-95 -72 -165 -175t-132 -262q-38 -104 -54 -156q-9 -27 -18.5 -53t-18.5 -52l-93 14q-23 224 -34 467l-14 2q-57 -283 -149.5 -386
t-172.5 -118l-44 84q97 14 160.5 93.5t102.5 192.5t99 335zM895 438l13 -58q-78 -11 -108 -65t-25 -95q3 -37 42 -43q31 0 56 35.5t21 81.5q-4 28 -14 51l67 34q26 -42 20 -92q-6 -68 -57.5 -112t-107.5 -42q-36 2 -63.5 26t-32.5 65q-5 46 17 93.5t67.5 82t104.5 38.5z
M885 86l-32 -80q-127 -8 -248 -5l31 70q125 -4 249 15z" />
    <glyph glyph-name="guilsinglright" unicode="&#xa8;" horiz-adv-x="559" 
d="M365 759l21 49q4 9 16 14q3 0 38 3h24q29 0 31 -21q2 -13 -7 -31t-20 -24q-4 -2 -11.5 -4l-15 -4t-11.5 -4q-6 -2 -18.5 -8.5t-17.5 -7.5q-13 -4 -20 0q-20 9 -9 38zM596 775l9 27q10 27 61 27q47 3 53 -23v-11q0 -5 -1.5 -10.5t-3.5 -11.5q-7 -14 -9 -20q-3 -6 -8 -18
q-7 -10 -17 -8q-10 1 -22 11q-14 9 -33 12q-5 2 -18 2q-19 1 -11 23zM518 202l60 -67q-158 -149 -291 -149q-81 0 -124 39.5t-48 92.5q-4 56 40.5 115.5t163.5 105.5v8q-58 -1 -77.5 29.5t-19.5 63.5q0 56 32.5 107.5t84.5 90t112.5 60.5t107.5 21q58 0 96.5 -32t34.5 -84
q-5 -63 -50 -108l-75 54q26 31 32 59q3 17 -8.5 30.5t-30.5 13.5q-35 2 -95 -36.5t-106 -93.5t-43 -96q5 -35 46 -35q41 -1 96 30l32 -59q-2 0 -8.5 -3.5t-11.5 -6.5q-12 -7 -16.5 -9.5t-8.5 -4.5l-20 -10q-93 -51 -149 -109t-56 -108q0 -57 56 -59q56 -4 117.5 40.5
t126.5 109.5z" />
    <glyph glyph-name="guilsinglright" unicode="&#x203a;" horiz-adv-x="559" 
d="M365 759l21 49q4 9 16 14q3 0 38 3h24q29 0 31 -21q2 -13 -7 -31t-20 -24q-4 -2 -11.5 -4l-15 -4t-11.5 -4q-6 -2 -18.5 -8.5t-17.5 -7.5q-13 -4 -20 0q-20 9 -9 38zM596 775l9 27q10 27 61 27q47 3 53 -23v-11q0 -5 -1.5 -10.5t-3.5 -11.5q-7 -14 -9 -20q-3 -6 -8 -18
q-7 -10 -17 -8q-10 1 -22 11q-14 9 -33 12q-5 2 -18 2q-19 1 -11 23zM518 202l60 -67q-158 -149 -291 -149q-81 0 -124 39.5t-48 92.5q-4 56 40.5 115.5t163.5 105.5v8q-58 -1 -77.5 29.5t-19.5 63.5q0 56 32.5 107.5t84.5 90t112.5 60.5t107.5 21q58 0 96.5 -32t34.5 -84
q-5 -63 -50 -108l-75 54q26 31 32 59q3 17 -8.5 30.5t-30.5 13.5q-35 2 -95 -36.5t-106 -93.5t-43 -96q5 -35 46 -35q41 -1 96 30l32 -59q-2 0 -8.5 -3.5t-11.5 -6.5q-12 -7 -16.5 -9.5t-8.5 -4.5l-20 -10q-93 -51 -149 -109t-56 -108q0 -57 56 -59q56 -4 117.5 40.5
t126.5 109.5z" />
    <glyph glyph-name="fi" unicode="&#xb8;" horiz-adv-x="356" 
d="M21 130l24 15q18 52 52 97t82 82.5t93.5 56t84.5 18.5q38 0 59.5 -18.5t23.5 -47.5q2 -55 -65.5 -111t-235.5 -101q-6 -23 10.5 -38.5t49.5 -14.5q37 1 90 21.5t89 43.5l-22 -69q-40 -25 -100 -44.5t-109 -19.5q-44 2 -75 28t-31 60l-41 -25zM158 182q72 20 128.5 60.5
t56.5 70.5q0 18 -19 18q-34 4 -87.5 -45t-78.5 -104zM305 607l36 -1q24 0 28 -17q3 -13 -10 -35.5t-34 -37t-41 -14.5q-28 0 -32 16q-2 9 0 14q2 14 9.5 32t19.5 30.5t24 12.5zM478 607l35 -1q27 0 29 -17q3 -13 -10 -35.5t-34 -37t-41 -14.5q-27 0 -32 16q-3 9 0 14
q7 27 21.5 51t31.5 24z" />
    <glyph glyph-name="fl" unicode="&#xff;" horiz-adv-x="495" 
d="M438 388l71 -35l-90 -186q-21 -42 -21 -60q0 -20 19 -20q32 -1 104 48l-23 -71q-27 -21 -69 -42t-69 -22q-27 0 -42.5 13t-16.5 36q-1 31 36 96q3 5 5 7.5t4 6.5t3.5 6.5t1.5 4.5l-8 6q-3 -3 -6 -6.5t-8 -8.5q-10 -12 -17 -21q-117 -137 -211 -140q-49 -1 -74 25.5
t-27 64.5q0 25 5 33l85 38q-7 -28 -7 -42q-1 -55 40 -55q26 2 54.5 19.5t83.5 66.5l-4 6q-28 -13 -60 -16q-54 0 -57 59q-1 47 32 97.5t85 84t98 32.5q47 -3 73 -46zM404 321q-17 25 -42 25q-35 0 -75.5 -38.5t-43.5 -75.5q-4 -36 29 -38q28 -2 67.5 31t64.5 96z" />
    <glyph glyph-name="fl" unicode="&#x44f;" horiz-adv-x="495" 
d="M438 388l71 -35l-90 -186q-21 -42 -21 -60q0 -20 19 -20q32 -1 104 48l-23 -71q-27 -21 -69 -42t-69 -22q-27 0 -42.5 13t-16.5 36q-1 31 36 96q3 5 5 7.5t4 6.5t3.5 6.5t1.5 4.5l-8 6q-3 -3 -6 -6.5t-8 -8.5q-10 -12 -17 -21q-117 -137 -211 -140q-49 -1 -74 25.5
t-27 64.5q0 25 5 33l85 38q-7 -28 -7 -42q-1 -55 40 -55q26 2 54.5 19.5t83.5 66.5l-4 6q-28 -13 -60 -16q-54 0 -57 59q-1 47 32 97.5t85 84t98 32.5q47 -3 73 -46zM404 321q-17 25 -42 25q-35 0 -75.5 -38.5t-43.5 -75.5q-4 -36 29 -38q28 -2 67.5 31t64.5 96z" />
    <glyph glyph-name="daggerdbl" unicode="&#xe0;" horiz-adv-x="495" 
d="M441 384l74 -39l-92 -179q-23 -47 -23 -61q0 -18 13 -18q12 0 55.5 20.5t52.5 27.5l-22 -71q-87 -64 -135 -64q-23 0 -39 12.5t-18 36.5q-3 16 16 58l2 4t2 5q2 4 4 7l-5 1l-4 -4l-8 -8q-49 -54 -99.5 -83.5t-89.5 -28.5q-31 2 -57 27t-25 77q3 56 53.5 125t120.5 119
t124 51q56 1 87 -38zM408 321q-18 22 -47 22q-36 0 -85 -38.5t-87.5 -91t-41.5 -88.5q-4 -40 29 -43q21 -3 61 24.5t74.5 62t44.5 53.5z" />
    <glyph glyph-name="daggerdbl" unicode="&#x2021;" horiz-adv-x="495" 
d="M441 384l74 -39l-92 -179q-23 -47 -23 -61q0 -18 13 -18q12 0 55.5 20.5t52.5 27.5l-22 -71q-87 -64 -135 -64q-23 0 -39 12.5t-18 36.5q-3 16 16 58l2 4t2 5q2 4 4 7l-5 1l-4 -4l-8 -8q-49 -54 -99.5 -83.5t-89.5 -28.5q-31 2 -57 27t-25 77q3 56 53.5 125t120.5 119
t124 51q56 1 87 -38zM408 321q-18 22 -47 22q-36 0 -85 -38.5t-87.5 -91t-41.5 -88.5q-4 -40 29 -43q21 -3 61 24.5t74.5 62t44.5 53.5z" />
    <glyph glyph-name="daggerdbl" unicode="&#x430;" horiz-adv-x="495" 
d="M441 384l74 -39l-92 -179q-23 -47 -23 -61q0 -18 13 -18q12 0 55.5 20.5t52.5 27.5l-22 -71q-87 -64 -135 -64q-23 0 -39 12.5t-18 36.5q-3 16 16 58l2 4t2 5q2 4 4 7l-5 1l-4 -4l-8 -8q-49 -54 -99.5 -83.5t-89.5 -28.5q-31 2 -57 27t-25 77q3 56 53.5 125t120.5 119
t124 51q56 1 87 -38zM408 321q-18 22 -47 22q-36 0 -85 -38.5t-87.5 -91t-41.5 -88.5q-4 -40 29 -43q21 -3 61 24.5t74.5 62t44.5 53.5z" />
    <glyph glyph-name="periodcentered" unicode="&#xe1;" horiz-adv-x="389" 
d="M614 646l-28 -90q-14 -2 -38.5 -7t-45.5 -9q-51 -13 -65 -19q-19 -7 -23 -27q-1 -12 5.5 -42t6.5 -33q6 -26 6 -71q0 -92 -40 -173t-102.5 -128t-126.5 -47q-52 0 -85.5 30t-34.5 85q-2 82 74.5 161.5t192.5 103.5l26 -49q-96 -37 -144.5 -97t-52.5 -110
q0 -21 10.5 -36.5t26.5 -16.5q26 -3 66 24.5t72.5 77t42.5 111.5q9 38 0 94q-1 18 -9 48q-9 35 -17 54l-6.5 26t-5.5 21q-2 18 5 30.5t35.5 26.5t87 29t167.5 33z" />
    <glyph glyph-name="periodcentered" unicode="&#x431;" horiz-adv-x="389" 
d="M614 646l-28 -90q-14 -2 -38.5 -7t-45.5 -9q-51 -13 -65 -19q-19 -7 -23 -27q-1 -12 5.5 -42t6.5 -33q6 -26 6 -71q0 -92 -40 -173t-102.5 -128t-126.5 -47q-52 0 -85.5 30t-34.5 85q-2 82 74.5 161.5t192.5 103.5l26 -49q-96 -37 -144.5 -97t-52.5 -110
q0 -21 10.5 -36.5t26.5 -16.5q26 -3 66 24.5t72.5 77t42.5 111.5q9 38 0 94q-1 18 -9 48q-9 35 -17 54l-6.5 26t-5.5 21q-2 18 5 30.5t35.5 26.5t87 29t167.5 33z" />
    <glyph glyph-name="quotesinglbase" unicode="&#xe2;" horiz-adv-x="384" 
d="M22 135l33 24q23 113 95.5 218t163.5 168t161 56q60 -6 60 -71q-4 -145 -381 -368q-10 -28 -10 -55q8 -40 42 -40q33 0 63.5 38t30.5 118l87 15q6 -64 -19.5 -118.5t-72.5 -87t-104 -32.5q-45 0 -75.5 27.5t-40.5 70.5l-54 -34zM180 246q84 51 147 110q20 17 37.5 32.5
t28.5 24.5q28 28 39 43q17 22 18 42q3 27 -20 31q-29 3 -80 -46t-98.5 -116.5t-71.5 -120.5z" />
    <glyph glyph-name="quotesinglbase" unicode="&#x201a;" horiz-adv-x="384" 
d="M22 135l33 24q23 113 95.5 218t163.5 168t161 56q60 -6 60 -71q-4 -145 -381 -368q-10 -28 -10 -55q8 -40 42 -40q33 0 63.5 38t30.5 118l87 15q6 -64 -19.5 -118.5t-72.5 -87t-104 -32.5q-45 0 -75.5 27.5t-40.5 70.5l-54 -34zM180 246q84 51 147 110q20 17 37.5 32.5
t28.5 24.5q28 28 39 43q17 22 18 42q3 27 -20 31q-29 3 -80 -46t-98.5 -116.5t-71.5 -120.5z" />
    <glyph glyph-name="quotesinglbase" unicode="&#x432;" horiz-adv-x="384" 
d="M22 135l33 24q23 113 95.5 218t163.5 168t161 56q60 -6 60 -71q-4 -145 -381 -368q-10 -28 -10 -55q8 -40 42 -40q33 0 63.5 38t30.5 118l87 15q6 -64 -19.5 -118.5t-72.5 -87t-104 -32.5q-45 0 -75.5 27.5t-40.5 70.5l-54 -34zM180 246q84 51 147 110q20 17 37.5 32.5
t28.5 24.5q28 28 39 43q17 22 18 42q3 27 -20 31q-29 3 -80 -46t-98.5 -116.5t-71.5 -120.5z" />
    <glyph glyph-name="quotedblbase" unicode="&#xe3;" horiz-adv-x="269" 
d="M98 345q91 54 162 54q56 -1 58 -51q1 -30 -27 -68q-8 -9 -25 -26l-26 -26q-110 -107 -107 -133q2 -9 7.5 -15t13.5 -6q15 0 59 19t82 42l-23 -71q-33 -23 -81.5 -43.5t-84.5 -20.5q-39 0 -57 18t-20 44q-3 66 124 189q29 24 42 40q22 17 22 30t-18 8q-12 0 -73 -30z" />
    <glyph glyph-name="quotedblbase" unicode="&#x201e;" horiz-adv-x="269" 
d="M98 345q91 54 162 54q56 -1 58 -51q1 -30 -27 -68q-8 -9 -25 -26l-26 -26q-110 -107 -107 -133q2 -9 7.5 -15t13.5 -6q15 0 59 19t82 42l-23 -71q-33 -23 -81.5 -43.5t-84.5 -20.5q-39 0 -57 18t-20 44q-3 66 124 189q29 24 42 40q22 17 22 30t-18 8q-12 0 -73 -30z" />
    <glyph glyph-name="quotedblbase" unicode="&#x433;" horiz-adv-x="269" 
d="M98 345q91 54 162 54q56 -1 58 -51q1 -30 -27 -68q-8 -9 -25 -26l-26 -26q-110 -107 -107 -133q2 -9 7.5 -15t13.5 -6q15 0 59 19t82 42l-23 -71q-33 -23 -81.5 -43.5t-84.5 -20.5q-39 0 -57 18t-20 44q-3 66 124 189q29 24 42 40q22 17 22 30t-18 8q-12 0 -73 -30z" />
    <glyph glyph-name="perthousand" unicode="&#xe4;" horiz-adv-x="463" 
d="M463 380l72 -37q-122 -219 -199 -375t-98 -210l-95 32q47 96 82 153.5t75 116.5q7 8 17 24q2 3 3.5 6l3.5 7q2 3 5 9l-3 1q-3 -1 -9 -6q-5 -5 -8.5 -8t-8.5 -7q-94 -86 -169 -86q-33 0 -59 19.5t-29 67.5q-3 64 50.5 137.5t133 125.5t142.5 49q44 -1 80 -39zM421 314
q-11 24 -40 27q-33 0 -88 -38t-96.5 -92t-42.5 -95q0 -29 28 -32q27 -3 71.5 25.5t90.5 82.5t77 122z" />
    <glyph glyph-name="perthousand" unicode="&#x2030;" horiz-adv-x="463" 
d="M463 380l72 -37q-122 -219 -199 -375t-98 -210l-95 32q47 96 82 153.5t75 116.5q7 8 17 24q2 3 3.5 6l3.5 7q2 3 5 9l-3 1q-3 -1 -9 -6q-5 -5 -8.5 -8t-8.5 -7q-94 -86 -169 -86q-33 0 -59 19.5t-29 67.5q-3 64 50.5 137.5t133 125.5t142.5 49q44 -1 80 -39zM421 314
q-11 24 -40 27q-33 0 -88 -38t-96.5 -92t-42.5 -95q0 -29 28 -32q27 -3 71.5 25.5t90.5 82.5t77 122z" />
    <glyph glyph-name="perthousand" unicode="&#x434;" horiz-adv-x="463" 
d="M463 380l72 -37q-122 -219 -199 -375t-98 -210l-95 32q47 96 82 153.5t75 116.5q7 8 17 24q2 3 3.5 6l3.5 7q2 3 5 9l-3 1q-3 -1 -9 -6q-5 -5 -8.5 -8t-8.5 -7q-94 -86 -169 -86q-33 0 -59 19.5t-29 67.5q-3 64 50.5 137.5t133 125.5t142.5 49q44 -1 80 -39zM421 314
q-11 24 -40 27q-33 0 -88 -38t-96.5 -92t-42.5 -95q0 -29 28 -32q27 -3 71.5 25.5t90.5 82.5t77 122z" />
    <glyph glyph-name="Acircumflex" unicode="&#xe5;" horiz-adv-x="355" 
d="M21 130l24 15q18 52 52 97t82 82.5t93.5 56t84.5 18.5q38 0 59.5 -18.5t23.5 -47.5q2 -55 -65.5 -111t-235.5 -101q-6 -23 10.5 -38.5t49.5 -14.5q37 1 90 21.5t89 43.5l-22 -69q-40 -25 -100 -44.5t-109 -19.5q-44 2 -75 28t-31 60l-41 -25zM158 182q72 20 128.5 60.5
t56.5 70.5q0 18 -19 18q-34 4 -87.5 -45t-78.5 -104z" />
    <glyph glyph-name="Acircumflex" unicode="&#x435;" horiz-adv-x="355" 
d="M21 130l24 15q18 52 52 97t82 82.5t93.5 56t84.5 18.5q38 0 59.5 -18.5t23.5 -47.5q2 -55 -65.5 -111t-235.5 -101q-6 -23 10.5 -38.5t49.5 -14.5q37 1 90 21.5t89 43.5l-22 -69q-40 -25 -100 -44.5t-109 -19.5q-44 2 -75 28t-31 60l-41 -25zM158 182q72 20 128.5 60.5
t56.5 70.5q0 18 -19 18q-34 4 -87.5 -45t-78.5 -104z" />
    <glyph glyph-name="Ecircumflex" unicode="&#xe6;" horiz-adv-x="681" 
d="M154 359q51 33 92 44.5t48 8.5q71 -2 68 -73q-2 -51 -48 -116q-4 -5 -10 -15q-2 -3 -4.5 -6.5t-4.5 -5.5l5 -1q42 31 95 86t85 103l46 -29l-60 -107q-23 -43 -28 -57l5 -1q8 8 44.5 37.5t64.5 51t67.5 47t80.5 44.5l32 -56q-104 -57 -143.5 -110t-41.5 -90q-2 -39 22 -41
q18 -4 138 62l-24 -71q-99 -63 -153 -64q-46 0 -58 24t-12 52q2 44 27 78q2 3 3.5 5.5t3.5 6.5q3 3 3 5l-4 2q-51 -35 -89.5 -87t-60.5 -93l-58 26l95 181l-5 2l-14 -14q-11 -11 -33 -31q-165 -159 -246 -157q-35 1 -57.5 24.5t-24.5 63.5q0 26 5 38l81 35q-11 -22 -13 -50
q0 -20 8 -31.5t24 -11.5q27 0 69 50.5t74 113t32 91.5q0 26 -22 24q-18 0 -72 -34z" />
    <glyph glyph-name="Ecircumflex" unicode="&#x436;" horiz-adv-x="681" 
d="M154 359q51 33 92 44.5t48 8.5q71 -2 68 -73q-2 -51 -48 -116q-4 -5 -10 -15q-2 -3 -4.5 -6.5t-4.5 -5.5l5 -1q42 31 95 86t85 103l46 -29l-60 -107q-23 -43 -28 -57l5 -1q8 8 44.5 37.5t64.5 51t67.5 47t80.5 44.5l32 -56q-104 -57 -143.5 -110t-41.5 -90q-2 -39 22 -41
q18 -4 138 62l-24 -71q-99 -63 -153 -64q-46 0 -58 24t-12 52q2 44 27 78q2 3 3.5 5.5t3.5 6.5q3 3 3 5l-4 2q-51 -35 -89.5 -87t-60.5 -93l-58 26l95 181l-5 2l-14 -14q-11 -11 -33 -31q-165 -159 -246 -157q-35 1 -57.5 24.5t-24.5 63.5q0 26 5 38l81 35q-11 -22 -13 -50
q0 -20 8 -31.5t24 -11.5q27 0 69 50.5t74 113t32 91.5q0 26 -22 24q-18 0 -72 -34z" />
    <glyph glyph-name="Aacute" unicode="&#xe7;" horiz-adv-x="341" 
d="M123 331q95 85 176 81q43 0 64.5 -22.5t21.5 -50.5q0 -37 -30 -71t-80 -49q-3 0 -7 -0.5t-6 -1.5q-3 -1 -13 -4q-1 -1 -9 -3v-5q40 2 62 -9t22 -49q0 -31 -30 -66.5t-78 -58t-98 -22.5q-46 0 -81.5 21.5t-36.5 66.5q0 33 5 38l81 35q-8 -22 -8 -42q0 -28 16 -41.5
t40 -13.5q35 3 66.5 32.5t28.5 56.5q-1 35 -61 22l-11 49q90 28 117.5 57t21.5 47q-2 19 -26 19q-37 -1 -113 -57z" />
    <glyph glyph-name="Aacute" unicode="&#x437;" horiz-adv-x="341" 
d="M123 331q95 85 176 81q43 0 64.5 -22.5t21.5 -50.5q0 -37 -30 -71t-80 -49q-3 0 -7 -0.5t-6 -1.5q-3 -1 -13 -4q-1 -1 -9 -3v-5q40 2 62 -9t22 -49q0 -31 -30 -66.5t-78 -58t-98 -22.5q-46 0 -81.5 21.5t-36.5 66.5q0 33 5 38l81 35q-8 -22 -8 -42q0 -28 16 -41.5
t40 -13.5q35 3 66.5 32.5t28.5 56.5q-1 35 -61 22l-11 49q90 28 117.5 57t21.5 47q-2 19 -26 19q-37 -1 -113 -57z" />
    <glyph glyph-name="Edieresis" unicode="&#xe8;" horiz-adv-x="454" 
d="M411 373l68 -36l-110 -208q-6 -17 -5 -23q0 -14 14 -16q10 0 31 11q25 13 31 15q11 7 37 19l-23 -71q-110 -65 -149 -64q-40 2 -45 40q-3 10 0 18q3 22 18 49t39 61l-4 4q-3 -1 -6 -5q-26 -22 -40 -36q-135 -135 -194 -131q-44 3 -44 52q0 20 34 96.5t138 268.5l70 -37
l-121 -227q-8 -16 -8 -23v-6q2 -10 11 -12q9 0 24 11q13 8 33 26q6 6 18 16.5t21 20.5q116 103 162 187z" />
    <glyph glyph-name="Edieresis" unicode="&#x438;" horiz-adv-x="454" 
d="M411 373l68 -36l-110 -208q-6 -17 -5 -23q0 -14 14 -16q10 0 31 11q25 13 31 15q11 7 37 19l-23 -71q-110 -65 -149 -64q-40 2 -45 40q-3 10 0 18q3 22 18 49t39 61l-4 4q-3 -1 -6 -5q-26 -22 -40 -36q-135 -135 -194 -131q-44 3 -44 52q0 20 34 96.5t138 268.5l70 -37
l-121 -227q-8 -16 -8 -23v-6q2 -10 11 -12q9 0 24 11q13 8 33 26q6 6 18 16.5t21 20.5q116 103 162 187z" />
    <glyph glyph-name="Egrave" unicode="&#xe9;" horiz-adv-x="454" 
d="M411 373l68 -36l-110 -208q-6 -17 -5 -23q0 -14 14 -16q10 0 31 11q25 13 31 15q11 7 37 19l-23 -71q-110 -65 -149 -64q-40 2 -45 40q-3 10 0 18q3 22 18 49t39 61l-4 4q-3 -1 -6 -5q-26 -22 -40 -36q-135 -135 -194 -131q-44 3 -44 52q0 20 34 96.5t138 268.5l70 -37
l-121 -227q-8 -16 -8 -23v-6q2 -10 11 -12q9 0 24 11q13 8 33 26q6 6 18 16.5t21 20.5q116 103 162 187zM279 610l85 2q-2 -23 10 -47t45 -21q52 2 113 78l42 -31q-83 -109 -185 -108q-64 1 -89 39.5t-21 87.5z" />
    <glyph glyph-name="Egrave" unicode="&#x439;" horiz-adv-x="454" 
d="M411 373l68 -36l-110 -208q-6 -17 -5 -23q0 -14 14 -16q10 0 31 11q25 13 31 15q11 7 37 19l-23 -71q-110 -65 -149 -64q-40 2 -45 40q-3 10 0 18q3 22 18 49t39 61l-4 4q-3 -1 -6 -5q-26 -22 -40 -36q-135 -135 -194 -131q-44 3 -44 52q0 20 34 96.5t138 268.5l70 -37
l-121 -227q-8 -16 -8 -23v-6q2 -10 11 -12q9 0 24 11q13 8 33 26q6 6 18 16.5t21 20.5q116 103 162 187zM279 610l85 2q-2 -23 10 -47t45 -21q52 2 113 78l42 -31q-83 -109 -185 -108q-64 1 -89 39.5t-21 87.5z" />
    <glyph glyph-name="Iacute" unicode="&#xea;" horiz-adv-x="436" 
d="M204 408l68 -42l-114 -203l4 -2q6 6 10.5 10t9.5 9q11 9 20.5 19.5t15.5 15.5q45 47 101 92.5t137 92.5l37 -67q-64 -29 -128 -70t-103 -77l1 -5q14 4 26 4q32 -3 28 -37q-1 -8 -13 -36q-4 -8 -8 -24v-7q5 -18 17 -22q22 -4 67.5 22.5t80.5 53.5l-21 -71
q-95 -82 -175 -78q-60 0 -60 62q0 27 10 47q3 6 4.5 9.5t4.5 11.5q1 3 1 7q3 11 -7 11q-15 1 -62 -50t-77 -91l-74 19z" />
    <glyph glyph-name="Iacute" unicode="&#x43a;" horiz-adv-x="436" 
d="M204 408l68 -42l-114 -203l4 -2q6 6 10.5 10t9.5 9q11 9 20.5 19.5t15.5 15.5q45 47 101 92.5t137 92.5l37 -67q-64 -29 -128 -70t-103 -77l1 -5q14 4 26 4q32 -3 28 -37q-1 -8 -13 -36q-4 -8 -8 -24v-7q5 -18 17 -22q22 -4 67.5 22.5t80.5 53.5l-21 -71
q-95 -82 -175 -78q-60 0 -60 62q0 27 10 47q3 6 4.5 9.5t4.5 11.5q1 3 1 7q3 11 -7 11q-15 1 -62 -50t-77 -91l-74 19z" />
    <glyph glyph-name="Icircumflex" unicode="&#xeb;" horiz-adv-x="414" 
d="M369 422l72 -36l-65 -133q-7 -18 -14.5 -36t-15.5 -36q-13 -27 -18 -43q-2 -16 -2 -24q2 -21 20 -21q20 -3 95 42l-23 -71q-101 -64 -132 -64q-21 0 -37.5 13.5t-19.5 41.5q0 35 34 98q2 5 12 20q1 6 7 13l-11 6q-2 -3 -4.5 -5.5l-5.5 -5.5q-8 -12 -17 -23
q-56 -74 -101.5 -115.5t-97.5 -42.5q-68 0 -74 67q-1 22 8 42l78 40q-4 -14 -4 -34q0 -12 4 -21.5t19 -9.5q45 3 138.5 121.5t154.5 216.5z" />
    <glyph glyph-name="Icircumflex" unicode="&#x43b;" horiz-adv-x="414" 
d="M369 422l72 -36l-65 -133q-7 -18 -14.5 -36t-15.5 -36q-13 -27 -18 -43q-2 -16 -2 -24q2 -21 20 -21q20 -3 95 42l-23 -71q-101 -64 -132 -64q-21 0 -37.5 13.5t-19.5 41.5q0 35 34 98q2 5 12 20q1 6 7 13l-11 6q-2 -3 -4.5 -5.5l-5.5 -5.5q-8 -12 -17 -23
q-56 -74 -101.5 -115.5t-97.5 -42.5q-68 0 -74 67q-1 22 8 42l78 40q-4 -14 -4 -34q0 -12 4 -21.5t19 -9.5q45 3 138.5 121.5t154.5 216.5z" />
    <glyph glyph-name="Idieresis" unicode="&#xec;" horiz-adv-x="610" 
d="M378 422l64 -37l-91 -184q-28 -53 -30 -67v-10q2 -6 7 -6q17 -1 62.5 42.5t96 108.5t81.5 119l67 -38l-96 -178q-6 -8 -16.5 -32.5t-10.5 -29.5q0 -19 18 -19q3 0 15 2q8 3 17 7l27 12q16 8 27.5 13.5t18.5 9.5l-21 -71q-106 -63 -145 -64q-51 -2 -52 46q-2 33 47 110
l-9 6q-152 -162 -198 -168q-17 0 -29.5 12t-13.5 33q-1 34 37 100q3 5 5.5 10t5.5 9.5t5 9.5q3 4 4 8l-10 5q-8 -8 -14.5 -16.5t-13.5 -16.5q-16 -18 -25.5 -30t-21.5 -26q-83 -90 -141 -92q-28 0 -49 15.5t-25 51.5q-1 22 8 42l78 40q-4 -14 -4 -34q0 -12 4 -21.5t19 -9.5
q24 1 66 40t88.5 96t92 120.5t55.5 81.5z" />
    <glyph glyph-name="Idieresis" unicode="&#x43c;" horiz-adv-x="610" 
d="M378 422l64 -37l-91 -184q-28 -53 -30 -67v-10q2 -6 7 -6q17 -1 62.5 42.5t96 108.5t81.5 119l67 -38l-96 -178q-6 -8 -16.5 -32.5t-10.5 -29.5q0 -19 18 -19q3 0 15 2q8 3 17 7l27 12q16 8 27.5 13.5t18.5 9.5l-21 -71q-106 -63 -145 -64q-51 -2 -52 46q-2 33 47 110
l-9 6q-152 -162 -198 -168q-17 0 -29.5 12t-13.5 33q-1 34 37 100q3 5 5.5 10t5.5 9.5t5 9.5q3 4 4 8l-10 5q-8 -8 -14.5 -16.5t-13.5 -16.5q-16 -18 -25.5 -30t-21.5 -26q-83 -90 -141 -92q-28 0 -49 15.5t-25 51.5q-1 22 8 42l78 40q-4 -14 -4 -34q0 -12 4 -21.5t19 -9.5
q24 1 66 40t88.5 96t92 120.5t55.5 81.5z" />
    <glyph glyph-name="Igrave" unicode="&#xed;" horiz-adv-x="465" 
d="M208 413l71 -33l-84 -163q6 2 10.5 3t7.5 2q8 3 21.5 5t26.5 5l28 4t26 2q5 0 9.5 0.5t11.5 0.5l67 140l72 -31l-95 -192q-2 -5 -14 -31q0 -3 -1.5 -6.5t-3.5 -7.5q0 -3 -0.5 -5t-0.5 -5q0 -15 15 -15q14 0 42 14q6 3 11.5 5.5t11.5 5t11 4.5q10 5 18.5 9.5t22.5 10.5
l-22 -71q-110 -63 -151 -64q-30 -1 -46 16.5t-16 42.5q1 23 13 46q12 27 25 49q3 7 6 12.5t7 15.5q-72 -9 -142 -33l-76 -156l-85 24z" />
    <glyph glyph-name="Igrave" unicode="&#x43d;" horiz-adv-x="465" 
d="M208 413l71 -33l-84 -163q6 2 10.5 3t7.5 2q8 3 21.5 5t26.5 5l28 4t26 2q5 0 9.5 0.5t11.5 0.5l67 140l72 -31l-95 -192q-2 -5 -14 -31q0 -3 -1.5 -6.5t-3.5 -7.5q0 -3 -0.5 -5t-0.5 -5q0 -15 15 -15q14 0 42 14q6 3 11.5 5.5t11.5 5t11 4.5q10 5 18.5 9.5t22.5 10.5
l-22 -71q-110 -63 -151 -64q-30 -1 -46 16.5t-16 42.5q1 23 13 46q12 27 25 49q3 7 6 12.5t7 15.5q-72 -9 -142 -33l-76 -156l-85 24z" />
    <glyph glyph-name="Oacute" unicode="&#xee;" horiz-adv-x="390" 
d="M348 425l17 -59q-68 -22 -123 -69.5t-83.5 -101.5t-19.5 -91q7 -36 44 -38q29 -2 65.5 30.5t59 92t14.5 130.5l94 27q14 -87 -22.5 -167.5t-103.5 -129.5t-134 -49q-112 0 -113 110q0 92 85.5 181.5t219.5 133.5z" />
    <glyph glyph-name="Oacute" unicode="&#x43e;" horiz-adv-x="390" 
d="M348 425l17 -59q-68 -22 -123 -69.5t-83.5 -101.5t-19.5 -91q7 -36 44 -38q29 -2 65.5 30.5t59 92t14.5 130.5l94 27q14 -87 -22.5 -167.5t-103.5 -129.5t-134 -49q-112 0 -113 110q0 92 85.5 181.5t219.5 133.5z" />
    <glyph glyph-name="Ocircumflex" unicode="&#xef;" horiz-adv-x="455" 
d="M201 413l68 -34l-87 -171l8 -7q3 7 10 10q5 6 9.5 11t10.5 13q65 68 107.5 100.5t71.5 33.5q17 0 31.5 -7.5t21.5 -23t4 -34.5q0 -14 -29 -70q-7 -16 -18.5 -35.5t-17.5 -31.5q-25 -44 -25 -56q0 -14 13 -14q6 0 23 5q9 4 25 10q47 20 53 23l-23 -71q-42 -24 -82 -44
t-58 -20q-51 0 -55 55q0 35 38 106q16 26 26 48q20 38 20 44q-3 12 -13 10q-19 0 -46 -29q-34 -34 -49 -52q-37 -39 -55 -61q-7 -8 -45 -53q-9 -10 -26 -29.5t-39 -43.5l-68 22z" />
    <glyph glyph-name="Ocircumflex" unicode="&#x43f;" horiz-adv-x="455" 
d="M201 413l68 -34l-87 -171l8 -7q3 7 10 10q5 6 9.5 11t10.5 13q65 68 107.5 100.5t71.5 33.5q17 0 31.5 -7.5t21.5 -23t4 -34.5q0 -14 -29 -70q-7 -16 -18.5 -35.5t-17.5 -31.5q-25 -44 -25 -56q0 -14 13 -14q6 0 23 5q9 4 25 10q47 20 53 23l-23 -71q-42 -24 -82 -44
t-58 -20q-51 0 -55 55q0 35 38 106q16 26 26 48q20 38 20 44q-3 12 -13 10q-19 0 -46 -29q-34 -34 -49 -52q-37 -39 -55 -61q-7 -8 -45 -53q-9 -10 -26 -29.5t-39 -43.5l-68 22z" />
    <glyph glyph-name="apple" unicode="&#xf0;" horiz-adv-x="435" 
d="M243 522l67 -32l-143 -276l10 -6q151 158 209 154q23 0 37 -16.5t14 -38.5q0 -35 -64 -145q-16 -28 -23 -43q-4 -7 -4 -14q-1 -13 13 -13q7 0 25 6q7 4 23 12q40 18 53 25l-22 -71q-30 -20 -75.5 -42t-70.5 -22q-49 0 -53 49q-1 36 41 109q8 12 29 47q19 29 19 44
q-4 13 -16 12q-32 -1 -81.5 -58t-95.5 -129t-72 -126q-4 -8 -16.5 -37t-21.5 -50.5t-19 -43.5q-10 -25 -13.5 -33t-11.5 -30l-74 19q76 196 166 398.5t170 350.5z" />
    <glyph glyph-name="apple" unicode="&#x440;" horiz-adv-x="435" 
d="M243 522l67 -32l-143 -276l10 -6q151 158 209 154q23 0 37 -16.5t14 -38.5q0 -35 -64 -145q-16 -28 -23 -43q-4 -7 -4 -14q-1 -13 13 -13q7 0 25 6q7 4 23 12q40 18 53 25l-22 -71q-30 -20 -75.5 -42t-70.5 -22q-49 0 -53 49q-1 36 41 109q8 12 29 47q19 29 19 44
q-4 13 -16 12q-32 -1 -81.5 -58t-95.5 -129t-72 -126q-4 -8 -16.5 -37t-21.5 -50.5t-19 -43.5q-10 -25 -13.5 -33t-11.5 -30l-74 19q76 196 166 398.5t170 350.5z" />
    <glyph glyph-name="Ograve" unicode="&#xf1;" horiz-adv-x="361" 
d="M386 243l-67 39q8 14 10 21q7 9 5 16q-3 18 -21 15q-26 -1 -68 -39.5t-71.5 -90.5t-25.5 -94q4 -38 42 -38q30 -1 67 12q38 14 56 21q53 21 73 30l-24 -71q-31 -13 -54 -23q-63 -24 -79 -29q-40 -13 -85 -12q-97 3 -101 97q-3 68 49.5 142t130 123t137.5 46
q35 -1 54.5 -23.5t16.5 -55.5q-5 -47 -45 -86z" />
    <glyph glyph-name="Ograve" unicode="&#x441;" horiz-adv-x="361" 
d="M386 243l-67 39q8 14 10 21q7 9 5 16q-3 18 -21 15q-26 -1 -68 -39.5t-71.5 -90.5t-25.5 -94q4 -38 42 -38q30 -1 67 12q38 14 56 21q53 21 73 30l-24 -71q-31 -13 -54 -23q-63 -24 -79 -29q-40 -13 -85 -12q-97 3 -101 97q-3 68 49.5 142t130 123t137.5 46
q35 -1 54.5 -23.5t16.5 -55.5q-5 -47 -45 -86z" />
    <glyph glyph-name="Uacute" unicode="&#xf2;" horiz-adv-x="648" 
d="M202 411l73 -37l-84 -155l10 -6l44 40t26 24q50 48 75 65q33 23 62 24q23 0 37 -12.5t14 -32.5q2 -14 -9 -36q-5 -12 -31 -47q-10 -16 -20 -29q-2 -4 -3.5 -5.5t-5.5 -7.5l10 -5q84 83 125 105t58 19q41 -2 43 -41q0 -31 -42 -98q-5 -7 -13.5 -20.5t-16.5 -25.5
q-17 -28 -17 -34q0 -10 9 -10q2 -1 8 1q22 6 62 24q14 6 25.5 11t29.5 13l-22 -71q-19 -10 -55 -28q-35 -19 -60 -30q-34 -12 -55 -12q-27 0 -39.5 17.5t-7.5 47.5q10 29 50 93q4 6 8 11t7 10q9 19 7 23q0 9 -7 9q-22 2 -94 -70t-121 -142l-76 21l113 215q6 14 -2 17
q-6 0 -26 -18q-19 -14 -43 -38q-45 -43 -65 -65q-32 -35 -62 -76.5t-39 -55.5l-77 21zM321 428q202 122 424 130l-43 -95q-27 7 -72 7q-134 -3 -274 -89z" />
    <glyph glyph-name="Uacute" unicode="&#x442;" horiz-adv-x="648" 
d="M202 411l73 -37l-84 -155l10 -6l44 40t26 24q50 48 75 65q33 23 62 24q23 0 37 -12.5t14 -32.5q2 -14 -9 -36q-5 -12 -31 -47q-10 -16 -20 -29q-2 -4 -3.5 -5.5t-5.5 -7.5l10 -5q84 83 125 105t58 19q41 -2 43 -41q0 -31 -42 -98q-5 -7 -13.5 -20.5t-16.5 -25.5
q-17 -28 -17 -34q0 -10 9 -10q2 -1 8 1q22 6 62 24q14 6 25.5 11t29.5 13l-22 -71q-19 -10 -55 -28q-35 -19 -60 -30q-34 -12 -55 -12q-27 0 -39.5 17.5t-7.5 47.5q10 29 50 93q4 6 8 11t7 10q9 19 7 23q0 9 -7 9q-22 2 -94 -70t-121 -142l-76 21l113 215q6 14 -2 17
q-6 0 -26 -18q-19 -14 -43 -38q-45 -43 -65 -65q-32 -35 -62 -76.5t-39 -55.5l-77 21zM321 428q202 122 424 130l-43 -95q-27 7 -72 7q-134 -3 -274 -89z" />
    <glyph glyph-name="Ucircumflex" unicode="&#xf3;" horiz-adv-x="395" 
d="M196 422l73 -37l-96 -176q-2 -4 -4 -8.5t-5 -10t-5.5 -10.5l-4.5 -9q-5 -9 -15 -29q-5 -10 -6 -17q-3 -3 -3 -9q0 -14 13 -15q25 -2 79.5 48t98.5 109q25 33 53 80q1 2 8.5 13t12.5 20l73 -34q-204 -363 -277 -571l-86 19q29 94 86 198q45 77 53 89q18 28 38 62l-8 2
q-136 -143 -198 -135q-47 4 -47 59q0 45 56.5 158t110.5 204z" />
    <glyph glyph-name="Ucircumflex" unicode="&#x443;" horiz-adv-x="395" 
d="M196 422l73 -37l-96 -176q-2 -4 -4 -8.5t-5 -10t-5.5 -10.5l-4.5 -9q-5 -9 -15 -29q-5 -10 -6 -17q-3 -3 -3 -9q0 -14 13 -15q25 -2 79.5 48t98.5 109q25 33 53 80q1 2 8.5 13t12.5 20l73 -34q-204 -363 -277 -571l-86 19q29 94 86 198q45 77 53 89q18 28 38 62l-8 2
q-136 -143 -198 -135q-47 4 -47 59q0 45 56.5 158t110.5 204z" />
    <glyph glyph-name="Ugrave" unicode="&#xf4;" horiz-adv-x="619" 
d="M475 501l62 -27l-85 -167l5 -4q2 1 5 3.5t4.5 3.5t5.5 3q42 29 59 37q28 6 39 6q32 0 55.5 -23t22.5 -73q-1 -69 -47.5 -133.5t-118.5 -101t-145 -27.5l1 50q69 3 118 43t73.5 89t20.5 74q-6 23 -32 23q-47 0 -96.5 -57t-88 -135t-77.5 -175.5t-60 -151.5l-86 18
q57 129 146 282l-5 5q-77 -66 -139 -64q-69 2 -69 87q3 62 45 131t104.5 112.5t119.5 40.5q49 -1 76 -36zM362 291q-8 22 -38 22q-36 0 -81 -37.5t-74.5 -88.5t-25.5 -87q2 -27 24 -28q28 0 69 32t95 130z" />
    <glyph glyph-name="Ugrave" unicode="&#x444;" horiz-adv-x="619" 
d="M475 501l62 -27l-85 -167l5 -4q2 1 5 3.5t4.5 3.5t5.5 3q42 29 59 37q28 6 39 6q32 0 55.5 -23t22.5 -73q-1 -69 -47.5 -133.5t-118.5 -101t-145 -27.5l1 50q69 3 118 43t73.5 89t20.5 74q-6 23 -32 23q-47 0 -96.5 -57t-88 -135t-77.5 -175.5t-60 -151.5l-86 18
q57 129 146 282l-5 5q-77 -66 -139 -64q-69 2 -69 87q3 62 45 131t104.5 112.5t119.5 40.5q49 -1 76 -36zM362 291q-8 22 -38 22q-36 0 -81 -37.5t-74.5 -88.5t-25.5 -87q2 -27 24 -28q28 0 69 32t95 130z" />
    <glyph glyph-name="dotlessi" unicode="&#xf5;" horiz-adv-x="413" 
d="M187 440l78 -38q-2 -52 4 -150q22 20 34 32t40 38q42 38 62 57l7.5 7.5l12.5 12.5l65 -35q-60 -45 -115 -92t-98 -90q8 -43 20.5 -68.5t38.5 -25.5q15 0 48 16.5t53 30.5l-23 -71q-68 -64 -113 -64q-30 0 -54 35t-34 98q-49 -60 -90.5 -96.5t-87.5 -36.5q-58 0 -64 67
q-1 22 8 42l78 40q-4 -14 -4 -34q-1 -31 23 -31q27 4 124 112q-18 115 -13 244z" />
    <glyph glyph-name="dotlessi" unicode="&#x445;" horiz-adv-x="413" 
d="M187 440l78 -38q-2 -52 4 -150q22 20 34 32t40 38q42 38 62 57l7.5 7.5l12.5 12.5l65 -35q-60 -45 -115 -92t-98 -90q8 -43 20.5 -68.5t38.5 -25.5q15 0 48 16.5t53 30.5l-23 -71q-68 -64 -113 -64q-30 0 -54 35t-34 98q-49 -60 -90.5 -96.5t-87.5 -36.5q-58 0 -64 67
q-1 22 8 42l78 40q-4 -14 -4 -34q-1 -31 23 -31q27 4 124 112q-18 115 -13 244z" />
    <glyph glyph-name="circumflex" unicode="&#xf6;" horiz-adv-x="472" 
d="M205 417l69 -33l-118 -222q-16 -30 -16 -36q-1 -10 12 -14q19 0 66 41q22 20 35 33t29 28q14 14 37 36.5t43 45.5q29 34 54 71l71 -33l-70 -124q-4 -8 -8.5 -16t-9.5 -17q-7 -16 -19 -32q-24 -46 -24 -58q0 -14 14 -14q12 0 62 43l52 -34q-61 -109 -110 -234l-70 33
q20 48 61 105q5 6 12 15.5t13 17.5q4 6 5 13l-6 4q-50 -36 -85 -36q-40 2 -43 41q-1 34 39 99q2 4 5.5 8.5t7.5 10.5q2 3 3.5 6t2.5 6l-5 2q-2 -1 -6 -4.5t-8 -7.5q-3 -4 -21 -19q-10 -9 -32 -31q-126 -114 -175 -111q-43 2 -43 48q0 40 64.5 165t111.5 204z" />
    <glyph glyph-name="circumflex" unicode="&#x446;" horiz-adv-x="472" 
d="M205 417l69 -33l-118 -222q-16 -30 -16 -36q-1 -10 12 -14q19 0 66 41q22 20 35 33t29 28q14 14 37 36.5t43 45.5q29 34 54 71l71 -33l-70 -124q-4 -8 -8.5 -16t-9.5 -17q-7 -16 -19 -32q-24 -46 -24 -58q0 -14 14 -14q12 0 62 43l52 -34q-61 -109 -110 -234l-70 33
q20 48 61 105q5 6 12 15.5t13 17.5q4 6 5 13l-6 4q-50 -36 -85 -36q-40 2 -43 41q-1 34 39 99q2 4 5.5 8.5t7.5 10.5q2 3 3.5 6t2.5 6l-5 2q-2 -1 -6 -4.5t-8 -7.5q-3 -4 -21 -19q-10 -9 -32 -31q-126 -114 -175 -111q-43 2 -43 48q0 40 64.5 165t111.5 204z" />
    <glyph glyph-name="circumflex" unicode="&#x2c6;" horiz-adv-x="472" 
d="M205 417l69 -33l-118 -222q-16 -30 -16 -36q-1 -10 12 -14q19 0 66 41q22 20 35 33t29 28q14 14 37 36.5t43 45.5q29 34 54 71l71 -33l-70 -124q-4 -8 -8.5 -16t-9.5 -17q-7 -16 -19 -32q-24 -46 -24 -58q0 -14 14 -14q12 0 62 43l52 -34q-61 -109 -110 -234l-70 33
q20 48 61 105q5 6 12 15.5t13 17.5q4 6 5 13l-6 4q-50 -36 -85 -36q-40 2 -43 41q-1 34 39 99q2 4 5.5 8.5t7.5 10.5q2 3 3.5 6t2.5 6l-5 2q-2 -1 -6 -4.5t-8 -7.5q-3 -4 -21 -19q-10 -9 -32 -31q-126 -114 -175 -111q-43 2 -43 48q0 40 64.5 165t111.5 204z" />
    <glyph glyph-name="tilde" unicode="&#xf7;" horiz-adv-x="378" 
d="M154 423l66 -32l-66 -130q-4 -8 -6 -13q0 -2 -1.5 -5t-3.5 -6q0 -2 -0.5 -3.5t-0.5 -4.5q-4 -18 14 -18q26 0 79 45.5t96 113.5l60 -32l-91 -186q-20 -40 -20 -57q0 -13 11 -13q6 -1 14 2q30 14 54 26q12 8 23 13.5t22 11.5l-23 -71q-99 -64 -143 -64q-56 0 -56 50
q0 40 53 121q14 20 18 26q10 16 12 20l-5 2q-39 -32 -81 -56t-73 -23q-24 3 -38.5 18.5t-14.5 40.5q0 23 14 52z" />
    <glyph glyph-name="tilde" unicode="&#x447;" horiz-adv-x="378" 
d="M154 423l66 -32l-66 -130q-4 -8 -6 -13q0 -2 -1.5 -5t-3.5 -6q0 -2 -0.5 -3.5t-0.5 -4.5q-4 -18 14 -18q26 0 79 45.5t96 113.5l60 -32l-91 -186q-20 -40 -20 -57q0 -13 11 -13q6 -1 14 2q30 14 54 26q12 8 23 13.5t22 11.5l-23 -71q-99 -64 -143 -64q-56 0 -56 50
q0 40 53 121q14 20 18 26q10 16 12 20l-5 2q-39 -32 -81 -56t-73 -23q-24 3 -38.5 18.5t-14.5 40.5q0 23 14 52z" />
    <glyph glyph-name="tilde" unicode="&#x2dc;" horiz-adv-x="378" 
d="M154 423l66 -32l-66 -130q-4 -8 -6 -13q0 -2 -1.5 -5t-3.5 -6q0 -2 -0.5 -3.5t-0.5 -4.5q-4 -18 14 -18q26 0 79 45.5t96 113.5l60 -32l-91 -186q-20 -40 -20 -57q0 -13 11 -13q6 -1 14 2q30 14 54 26q12 8 23 13.5t22 11.5l-23 -71q-99 -64 -143 -64q-56 0 -56 50
q0 40 53 121q14 20 18 26q10 16 12 20l-5 2q-39 -32 -81 -56t-73 -23q-24 3 -38.5 18.5t-14.5 40.5q0 23 14 52z" />
    <glyph glyph-name="macron" unicode="&#xf8;" horiz-adv-x="645" 
d="M204 417l67 -33l-131 -254q-9 -16 -9 -21q0 -7 9 -9q18 -1 70.5 56t109 127t78.5 101l63 -29l-106 -207q-12 -23 -10 -29q2 -8 8 -8q15 -1 62.5 48t93 102t77.5 94l63 -33l-94 -183q-11 -21 -11 -34q2 -17 15 -17q10 0 25 7q9 2 23 10q37 16 64 30l-23 -71
q-43 -24 -88 -44t-67 -20q-21 0 -36 13t-15 32q0 14 5 27.5t17 35.5t20 39l-7 5l-6 -6l-10 -10q-30 -32 -42 -41q-51 -53 -78 -74t-52 -21q-20 0 -33.5 12t-15.5 31q0 21 32 75l7 10.5t6 9.5q4 6 6 10l4 8l-8 5q-3 -3 -6 -5.5t-6 -5.5q-5 -5 -10 -10.5t-10.5 -10.5
t-10.5 -11q-38 -39 -69.5 -67t-53.5 -39.5t-43 -11.5q-20 0 -34 13.5t-15 34.5q0 28 16 62z" />
    <glyph glyph-name="macron" unicode="&#x448;" horiz-adv-x="645" 
d="M204 417l67 -33l-131 -254q-9 -16 -9 -21q0 -7 9 -9q18 -1 70.5 56t109 127t78.5 101l63 -29l-106 -207q-12 -23 -10 -29q2 -8 8 -8q15 -1 62.5 48t93 102t77.5 94l63 -33l-94 -183q-11 -21 -11 -34q2 -17 15 -17q10 0 25 7q9 2 23 10q37 16 64 30l-23 -71
q-43 -24 -88 -44t-67 -20q-21 0 -36 13t-15 32q0 14 5 27.5t17 35.5t20 39l-7 5l-6 -6l-10 -10q-30 -32 -42 -41q-51 -53 -78 -74t-52 -21q-20 0 -33.5 12t-15.5 31q0 21 32 75l7 10.5t6 9.5q4 6 6 10l4 8l-8 5q-3 -3 -6 -5.5t-6 -5.5q-5 -5 -10 -10.5t-10.5 -10.5
t-10.5 -11q-38 -39 -69.5 -67t-53.5 -39.5t-43 -11.5q-20 0 -34 13.5t-15 34.5q0 28 16 62z" />
    <glyph glyph-name="breve" unicode="&#xf9;" horiz-adv-x="648" 
d="M213 423l66 -37q-26 -49 -47.5 -87.5t-35.5 -64.5q-37 -64 -42 -73q-16 -28 -16 -40q0 -10 7 -10t14 7q2 1 10.5 7.5t17.5 13.5q26 22 37 32q40 36 90 96.5t84 113.5l65 -35l-75 -131q-51 -79 -50 -97q0 -8 8 -8q14 0 66 50.5t103 107t73 84.5l66 -40l-66 -113
q-9 -13 -33 -60q-9 -19 -11 -23q-9 -19 -9 -23q4 -11 14 -11q23 0 59 36l54 -31q-55 -97 -116 -246l-68 29q2 14 11 29q10 20 28 48q29 44 37 54q16 25 18 29q3 6 4 7l-9 7q-1 -1 -3.5 -2.5t-5.5 -4.5q-7 -5 -11 -8l-12 -9q-30 -20 -56 -20q-19 0 -31.5 11.5t-12.5 29.5
q0 26 26 70q5 6 17 27q2 2 6 10l-9 6l-6 -6l-6 -6q-9 -9 -25 -27q-115 -115 -162 -115q-36 0 -39 35q-4 30 37 95q5 8 12 17q5 7 6.5 9.5t3.5 5.5l-9 4q-13 -13 -20 -19q-20 -22 -29 -32q-115 -115 -164 -115q-44 0 -45 49q0 36 28 91q9 19 40 77q17 31 31 56.5t36 65.5
q4 6 22.5 38.5t26.5 45.5z" />
    <glyph glyph-name="breve" unicode="&#x449;" horiz-adv-x="648" 
d="M213 423l66 -37q-26 -49 -47.5 -87.5t-35.5 -64.5q-37 -64 -42 -73q-16 -28 -16 -40q0 -10 7 -10t14 7q2 1 10.5 7.5t17.5 13.5q26 22 37 32q40 36 90 96.5t84 113.5l65 -35l-75 -131q-51 -79 -50 -97q0 -8 8 -8q14 0 66 50.5t103 107t73 84.5l66 -40l-66 -113
q-9 -13 -33 -60q-9 -19 -11 -23q-9 -19 -9 -23q4 -11 14 -11q23 0 59 36l54 -31q-55 -97 -116 -246l-68 29q2 14 11 29q10 20 28 48q29 44 37 54q16 25 18 29q3 6 4 7l-9 7q-1 -1 -3.5 -2.5t-5.5 -4.5q-7 -5 -11 -8l-12 -9q-30 -20 -56 -20q-19 0 -31.5 11.5t-12.5 29.5
q0 26 26 70q5 6 17 27q2 2 6 10l-9 6l-6 -6l-6 -6q-9 -9 -25 -27q-115 -115 -162 -115q-36 0 -39 35q-4 30 37 95q5 8 12 17q5 7 6.5 9.5t3.5 5.5l-9 4q-13 -13 -20 -19q-20 -22 -29 -32q-115 -115 -164 -115q-44 0 -45 49q0 36 28 91q9 19 40 77q17 31 31 56.5t36 65.5
q4 6 22.5 38.5t26.5 45.5z" />
    <glyph glyph-name="dotaccent" unicode="&#xfa;" horiz-adv-x="346" 
d="M152 465q108 -23 212 -80l-19 -52q-63 -20 -114.5 -63t-81 -91.5t-31.5 -83.5q-4 -37 27 -38q40 -1 88 48.5t42 81.5q-1 11 -12.5 16.5t-22.5 0.5l-13 43q29 20 71 18q37 -3 54.5 -25t14.5 -54q-3 -45 -36.5 -87.5t-83 -70.5t-98.5 -28t-76.5 29.5t-29.5 75.5
q-1 52 30.5 101.5t79 85.5t81.5 51q3 2 9 4q10 5 10 10q1 22 -135 31z" />
    <glyph glyph-name="dotaccent" unicode="&#x44a;" horiz-adv-x="346" 
d="M152 465q108 -23 212 -80l-19 -52q-63 -20 -114.5 -63t-81 -91.5t-31.5 -83.5q-4 -37 27 -38q40 -1 88 48.5t42 81.5q-1 11 -12.5 16.5t-22.5 0.5l-13 43q29 20 71 18q37 -3 54.5 -25t14.5 -54q-3 -45 -36.5 -87.5t-83 -70.5t-98.5 -28t-76.5 29.5t-29.5 75.5
q-1 52 30.5 101.5t79 85.5t81.5 51q3 2 9 4q10 5 10 10q1 22 -135 31z" />
    <glyph glyph-name="ring" unicode="&#xfb;" horiz-adv-x="568" 
d="M190 416l70 -37q-85 -143 -114 -201t-31 -86q0 -34 29 -34q26 0 61.5 34.5t51.5 77.5q3 7 4 10q1 1 1 5v2q0 3 -4 4h-4q-1 0 -4.5 -0.5t-7.5 -2.5q-19 -2 -28 -2q-8 1 -10 9l-12 23q-4 15 20 31t59 22q42 7 67 -18q57 8 111 41.5t78 78.5l67 -36l-93 -169
q-29 -51 -29 -68q-2 -18 16 -18q28 0 104 53l-23 -71q-82 -63 -144 -64q-25 0 -40 12t-15 37q0 20 10.5 46.5t27 55t30 48.5t16.5 23q2 5 10 15l4 6l-7 5q-3 -1 -5 -2.5t-6 -3.5q-5 -3 -10.5 -6l-11 -6t-10.5 -6q-18 -8 -37 -11q-5 -3 -17 -5l-8 -4q-1 -3 -1 -9
q-6 -54 -71.5 -124.5t-147.5 -70.5q-41 0 -70.5 28t-29.5 68q1 79 154 320z" />
    <glyph glyph-name="ring" unicode="&#x44b;" horiz-adv-x="568" 
d="M190 416l70 -37q-85 -143 -114 -201t-31 -86q0 -34 29 -34q26 0 61.5 34.5t51.5 77.5q3 7 4 10q1 1 1 5v2q0 3 -4 4h-4q-1 0 -4.5 -0.5t-7.5 -2.5q-19 -2 -28 -2q-8 1 -10 9l-12 23q-4 15 20 31t59 22q42 7 67 -18q57 8 111 41.5t78 78.5l67 -36l-93 -169
q-29 -51 -29 -68q-2 -18 16 -18q28 0 104 53l-23 -71q-82 -63 -144 -64q-25 0 -40 12t-15 37q0 20 10.5 46.5t27 55t30 48.5t16.5 23q2 5 10 15l4 6l-7 5q-3 -1 -5 -2.5t-6 -3.5q-5 -3 -10.5 -6l-11 -6t-10.5 -6q-18 -8 -37 -11q-5 -3 -17 -5l-8 -4q-1 -3 -1 -9
q-6 -54 -71.5 -124.5t-147.5 -70.5q-41 0 -70.5 28t-29.5 68q1 79 154 320z" />
    <glyph glyph-name="cedilla" unicode="&#xfc;" horiz-adv-x="333" 
d="M205 422l67 -43l-99 -139l9 -6q70 49 125 41q63 -9 63 -74q0 -48 -35.5 -95t-90.5 -77t-106 -29q-55 1 -77.5 28.5t-24.5 64.5q-4 82 169 329zM112 86q0 -30 28 -32q33 -1 82 48t49 86q0 21 -24 22q-35 3 -85 -42.5t-50 -81.5z" />
    <glyph glyph-name="cedilla" unicode="&#x44c;" horiz-adv-x="333" 
d="M205 422l67 -43l-99 -139l9 -6q70 49 125 41q63 -9 63 -74q0 -48 -35.5 -95t-90.5 -77t-106 -29q-55 1 -77.5 28.5t-24.5 64.5q-4 82 169 329zM112 86q0 -30 28 -32q33 -1 82 48t49 86q0 21 -24 22q-35 3 -85 -42.5t-50 -81.5z" />
    <glyph glyph-name="hungarumlaut" unicode="&#xfd;" horiz-adv-x="369" 
d="M148 347q68 65 136 65q51 0 84 -38t30 -99q-3 -62 -41 -128t-103.5 -108t-142.5 -39q-52 1 -80.5 25t-30.5 63q0 19 5 38l81 35q-8 -22 -8 -42q0 -56 48 -55q44 1 87.5 37.5t66.5 84.5q-25 5 -33 5q-39 1 -61 -21l-44 54q26 22 75 23q47 0 83 -14q15 32 15 67
q0 28 -12.5 39t-28.5 9q-35 0 -86 -49z" />
    <glyph glyph-name="hungarumlaut" unicode="&#x44d;" horiz-adv-x="369" 
d="M148 347q68 65 136 65q51 0 84 -38t30 -99q-3 -62 -41 -128t-103.5 -108t-142.5 -39q-52 1 -80.5 25t-30.5 63q0 19 5 38l81 35q-8 -22 -8 -42q0 -56 48 -55q44 1 87.5 37.5t66.5 84.5q-25 5 -33 5q-39 1 -61 -21l-44 54q26 22 75 23q47 0 83 -14q15 32 15 67
q0 28 -12.5 39t-28.5 9q-35 0 -86 -49z" />
    <glyph glyph-name="ogonek" unicode="&#xfe;" horiz-adv-x="592" 
d="M208 418l69 -39l-90 -164l8 -7q35 27 99 55q30 42 94.5 90t164.5 64l10 -55q-86 -22 -161 -98t-74 -143q1 -26 19 -39t37 -13q44 0 91.5 64t50.5 116q2 33 -6 69l96 27q15 -84 -22.5 -164t-106.5 -130.5t-140 -50.5q-50 0 -77.5 25t-29.5 71q-1 47 18 81l-7 5
q-55 -30 -93.5 -74t-76.5 -108l-76 22z" />
    <glyph glyph-name="ogonek" unicode="&#x44e;" horiz-adv-x="592" 
d="M208 418l69 -39l-90 -164l8 -7q35 27 99 55q30 42 94.5 90t164.5 64l10 -55q-86 -22 -161 -98t-74 -143q1 -26 19 -39t37 -13q44 0 91.5 64t50.5 116q2 33 -6 69l96 27q15 -84 -22.5 -164t-106.5 -130.5t-140 -50.5q-50 0 -77.5 25t-29.5 71q-1 47 18 81l-7 5
q-55 -30 -93.5 -74t-76.5 -108l-76 22z" />
  </font>
</defs>
</svg>
