<?xml version="1.0" standalone="no"?>
<!DOCTYPE svg PUBLIC "-//W3C//DTD SVG 1.1//EN" "http://www.w3.org/Graphics/SVG/1.1/DTD/svg11.dtd" >
<svg xmlns="http://www.w3.org/2000/svg" xmlns:xlink="http://www.w3.org/1999/xlink" version="1.1">
<metadata>
Created by FontForge 20161116 at Fri Jan  1 01:00:00 1904
 By Jimmy Warting
Bulka
</metadata>
<defs>
<font id="Bulka" horiz-adv-x="400" >
  <font-face 
    font-family="Bulka"
    font-weight="400"
    font-stretch="normal"
    units-per-em="1000"
    panose-1="4 0 0 0 0 0 0 0 0 0"
    ascent="800"
    descent="-200"
    x-height="528"
    cap-height="697"
    bbox="-65.3333 -334 1531 1129"
    underline-thickness="200"
    underline-position="-180"
    unicode-range="U+0020-2122"
  />
<missing-glyph horiz-adv-x="604" 
d="M40 0v693h524v-693h-524zM80 40h444v613h-444v-613z" />
    <glyph glyph-name=".notdef" horiz-adv-x="604" 
d="M40 0v693h524v-693h-524zM80 40h444v613h-444v-613z" />
    <glyph glyph-name="space" unicode=" " horiz-adv-x="280" 
 />
    <glyph glyph-name="exclam" unicode="!" horiz-adv-x="351" 
d="M311 643l-14 -52q-13 -47 -20 -92t-7 -91q0 -44 5.5 -68t5.5 -51q0 -14 -8 -22t-29 -8h-83q-23 0 -36.5 2t-22.5 12t-15 30t-14 56q-10 46 -16 78.5t-9.5 58.5t-4.5 49t-1 50q0 36 3.5 57t10.5 31.5t18.5 13.5t27.5 3h142q48 0 62.5 -3t14.5 -14q0 -14 -3.5 -23t-6.5 -17
zM185 -14q-47 0 -79.5 33t-32.5 80t32.5 80t79.5 33t79.5 -33t32.5 -80t-32.5 -80t-79.5 -33z" />
    <glyph glyph-name="quotedbl" unicode="&#x22;" horiz-adv-x="386" 
d="M359 668q0 -20 2.5 -55.5t0 -70.5t-13 -60.5t-37.5 -25.5h-60q-24 0 -24 28q0 15 -1 37t-2.5 46t-2.5 48.5t-1 43.5q0 18 7.5 29.5t17.5 11.5h82q18 0 25 -9t7 -23zM171 668q0 -20 2.5 -55.5t0 -70.5t-13.5 -60.5t-37 -25.5h-60q-11 0 -19 7t-8 21q0 16 -1 39t-2.5 47
t-2.5 47.5t-1 41.5t9.5 29.5t18.5 11.5h82q18 0 25 -9t7 -23z" />
    <glyph glyph-name="numbersign" unicode="#" horiz-adv-x="566" 
d="M329 501q16 0 29.5 7t18.5 28l34 160h70l-34 -160q-3 -20 2.5 -27.5t21.5 -7.5h79q16 0 16 -21q0 -15 -10.5 -32t-19.5 -17h-84q-17 0 -24.5 -11.5t-11.5 -28.5l-18 -95q-3 -15 0.5 -23t20.5 -8h81q13 0 16 -5.5t3 -15.5q0 -16 -11 -32.5t-22 -16.5h-81q-14 0 -22.5 -10
t-15.5 -24l-34 -161h-70l34 156q4 19 -2.5 29t-29.5 10q-31 0 -39.5 -9t-12.5 -29l-34 -157h-70l34 156q4 20 2.5 29.5t-20.5 9.5h-70q-10 0 -10 16t8.5 35t19.5 19h65q21 0 25.5 4t8.5 25l23 107q4 17 -5 23.5t-27 6.5h-57q-12 0 -12 19q0 16 11.5 33.5t25.5 17.5h56
q17 0 25.5 11.5t11.5 24.5l33 159h70l-34 -159q-5 -27 4 -31.5t32 -4.5zM348 401q4 30 -32 30q-20 0 -34 -6t-18 -28l-21 -98q-4 -25 7 -29.5t31 -4.5q28 0 36 13.5t14 41.5z" />
    <glyph glyph-name="dollar" unicode="$" horiz-adv-x="508" 
d="M480 206q0 -34 -8.5 -65.5t-30 -58t-57.5 -47t-90 -31.5q-1 0 -1.5 -8t-4.5 -17.5t-13 -17.5t-26 -8q-18 0 -30 10.5t-15 39.5q-33 3 -63 12t-53 21t-35 26t-9 27l19 76q6 25 9.5 37.5t14.5 12.5q12 0 22.5 -9t23 -19.5t27.5 -19.5t35 -9q7 0 12.5 13.5t5.5 47.5
q0 27 -0.5 42t-8 26t-25 21.5t-50.5 28.5q-44 24 -72.5 68t-28.5 98q0 59 35 110.5t125 77.5q22 6 27 14t6.5 14.5t6 11t24.5 4.5q18 0 24 -5t7 -11t-0.5 -11t0.5 -5q77 -9 110 -29t30 -33l-34 -113q-3 -10 -12 -7t-21 11.5t-25.5 17t-25.5 8.5q-10 0 -15.5 -11t-5.5 -49
q0 -39 5 -56t28 -26q71 -28 117 -81t46 -129zM213 467v97q0 10 -9 10q-12 0 -24 -20t-12 -41q0 -27 12 -42t23 -15q10 0 10 11zM330 203q0 29 -13.5 44.5t-31.5 15.5q-11 0 -13 -11.5t-2 -34.5q0 -21 5.5 -38t19.5 -17q11 0 22.5 11t12.5 30z" />
    <glyph glyph-name="percent" unicode="%" horiz-adv-x="630" 
d="M299 543q0 -32 -9 -63t-27 -55t-44 -39t-60 -15q-33 0 -58 15t-41 39.5t-24 55.5t-8 62q0 85 32 125.5t102 40.5q67 0 102 -44t35 -122zM500 647l-273 -629q-5 -11 -15 -18.5t-32 -7.5q-32 0 -47 3.5t-15 15.5t7 31l269 626q7 15 28.5 23.5t43.5 8.5q42 0 42 -21
q0 -11 -8 -32zM198 547q0 77 -35 77q-19 0 -28.5 -21t-9.5 -58q0 -40 11 -56t25 -16q19 0 28 16.5t9 57.5zM606 149q0 -32 -9 -63t-27 -55t-44 -39t-60 -15q-33 0 -58 15t-41 39.5t-24 55.5t-8 62q0 85 31.5 125.5t102.5 40.5q67 0 102 -44t35 -122zM505 153q0 77 -35 77
q-20 0 -29 -21t-9 -58q0 -40 11 -56t25 -16q19 0 28 16.5t9 57.5z" />
    <glyph glyph-name="ampersand" unicode="&#x26;" horiz-adv-x="768" 
d="M761 366q0 -23 -5.5 -41t-18.5 -18q-10 0 -19 1.5t-20 1.5q-9 0 -25.5 -11t-33 -27t-29 -34t-12.5 -31q0 -16 12 -26t28 -10t27 15t27 15q9 0 13.5 -10.5t4.5 -21.5q0 -83 -44 -125.5t-108 -42.5q-25 0 -51 8.5t-63 27.5q-2 1 -22 -6.5t-50.5 -17t-66 -17.5t-67.5 -8
q-102 0 -159.5 52.5t-57.5 137.5q0 38 25.5 89t95.5 122q6 6 6 13q0 5 -3 11q-18 34 -33.5 67t-15.5 81q0 45 21 79t55.5 56.5t80 34t95.5 11.5q46 0 86.5 -9.5t71 -28.5t48 -47.5t17.5 -65.5q0 -34 -18.5 -66t-41.5 -59.5t-41.5 -48.5t-18.5 -34q0 -7 6 -15t14 -8
q25 0 41.5 14.5t34.5 32t42 32t63 14.5q18 0 37.5 -6.5t35.5 -18.5t26 -28t10 -34zM369 575q0 17 -6.5 24.5t-28.5 7.5q-15 0 -20.5 -8t-5.5 -24q0 -20 10.5 -34.5t20.5 -14.5q7 0 18.5 14.5t11.5 34.5zM310 188l-36 50q-4 5 -8 5q-10 0 -17.5 -21t-7.5 -34
q0 -20 11.5 -29.5t26.5 -9.5q23 0 31 13.5t0 25.5z" />
    <glyph glyph-name="quotesingle" unicode="'" horiz-adv-x="215" 
d="M171 668q0 -20 2.5 -55.5t0 -70.5t-13 -60.5t-37.5 -25.5h-60q-24 0 -24 28q0 15 -1 37t-2.5 46t-2.5 48.5t-1 43.5q0 18 7.5 29.5t17.5 11.5h82q18 0 25 -9t7 -23z" />
    <glyph glyph-name="parenleft" unicode="(" horiz-adv-x="314" 
d="M316 650q0 -26 -13.5 -29.5t-48.5 -2.5q-21 0 -38.5 -27t-31 -66t-21 -83t-7.5 -77q0 -85 6.5 -146.5t14.5 -103t14.5 -65.5t6.5 -33q0 -11 -8 -18.5t-20 -12.5t-25 -7t-22 -2q-15 0 -30.5 38.5t-28 95.5t-20.5 123t-8 121q0 69 5 139t23.5 126.5t54.5 92.5t99 36
q48 0 73 -32.5t25 -66.5z" />
    <glyph glyph-name="parenright" unicode=")" horiz-adv-x="314" 
d="M36 650q0 -26 13.5 -29.5t48.5 -2.5q21 0 38.5 -27t31 -66t21 -83t7.5 -77q0 -85 -6.5 -146.5t-14.5 -103t-14.5 -65.5t-6.5 -33q0 -11 8 -18.5t20 -12.5t25 -7t22 -2q15 0 30.5 38.5t28 95.5t20.5 123t8 121q0 69 -5 139t-23.5 126.5t-54.5 92.5t-99 36q-48 0 -73 -32.5
t-25 -66.5z" />
    <glyph glyph-name="asterisk" unicode="*" horiz-adv-x="406" 
d="M373 554q-7 -25 -36 -34l-61 -16l39 -54q10 -16 10 -33q0 -19 -14 -32.5t-32 -13.5q-21 0 -31 13l-46 61l-47 -61q-5 -6 -15.5 -9.5t-19.5 -3.5q-18 0 -30.5 12t-12.5 32q0 7 2.5 17t7.5 18l36 53l-58 17q-19 4 -28 19.5t-9 35.5q0 17 14 29t29 12q7 0 18 -3l64 -19v56
q0 15 10.5 36t39.5 21q20 0 33 -15t13 -42v-55l82 21q15 2 29.5 -12.5t14.5 -32.5q0 -2 -0.5 -7t-1.5 -10z" />
    <glyph glyph-name="plus" unicode="+" horiz-adv-x="664" 
d="M260 598q0 18 15 29t58 11q41 0 54 -11t13 -29v-94q0 -54 15 -68t58 -14h104q17 0 27 -14t10 -54q0 -38 -10 -55t-27 -17h-84q-21 0 -38.5 -1t-29.5 -8.5t-19 -23.5t-7 -46v-95q1 -18 -13 -29t-57 -11q-41 0 -54.5 12t-13.5 28v99q0 28 -4 43.5t-12.5 22.5t-22.5 8t-34 1
h-101q-16 0 -25.5 15t-9.5 52q0 42 9.5 57.5t25.5 15.5h102q42 0 56.5 14t14.5 68v94z" />
    <glyph glyph-name="comma" unicode="," horiz-adv-x="280" 
d="M259 15q0 -29 -14.5 -53t-37 -41.5t-49.5 -27t-52 -9.5q-22 0 -22 23q0 11 7.5 25t7.5 30q0 17 -11.5 27.5t-31.5 10.5q-15 0 -24 10t-9 24q0 12 12 31.5t30 37.5t38 31t36 13q50 0 85 -38t35 -94z" />
    <glyph glyph-name="hyphen" unicode="-" horiz-adv-x="364" 
d="M336 342v-77q0 -12 -9 -21t-22 -9h-252q-25 0 -25 34v74q0 11 7 19.5t20 8.5h250q31 0 31 -29z" />
    <glyph glyph-name="period" unicode="." horiz-adv-x="290" 
d="M149 225q-25 0 -47 -9.5t-38.5 -26t-26 -38t-9.5 -46.5t9.5 -46.5t26 -38t38.5 -26t47 -9.5t46.5 9.5t38 26t26 38t9.5 46.5t-9.5 46.5t-26 38t-38 26t-46.5 9.5z" />
    <glyph glyph-name="slash" unicode="/" horiz-adv-x="453" 
d="M356 703q65 0 65 -29q0 -11 -9 -33t-28 -60l-247 -524q-15 -27 -31 -43.5t-47 -16.5q-24 0 -33.5 5t-10.5 14.5t5 23t14 30.5l263 571q11 23 22 42.5t37 19.5z" />
    <glyph glyph-name="zero" unicode="0" horiz-adv-x="572" 
d="M549 347q0 -79 -16 -145t-49.5 -113.5t-84 -73.5t-119.5 -26q-70 0 -119.5 26t-80.5 73.5t-45 113t-14 144.5t14.5 145.5t45 115.5t79 76.5t117.5 27.5q73 0 125 -30.5t84.5 -81t47.5 -116t15 -136.5zM333 346q0 93 -9.5 143.5t-40.5 50.5q-34 0 -43.5 -50.5t-9.5 -142.5
q0 -76 8.5 -121t42.5 -45q29 0 40.5 45t11.5 120z" />
    <glyph glyph-name="one" unicode="1" horiz-adv-x="357" 
d="M325 54q0 -30 -11 -42t-55 -12h-113q-33 0 -50.5 16.5t-17.5 45.5q0 53 -1 92t-2 69.5t-1.5 56t-0.5 51.5q1 60 3 97t4 58.5t3.5 32.5t1.5 20q0 24 -8 38t-18 23.5t-18 18t-8 21.5q0 23 28.5 36.5t65.5 20.5t73 8.5t52 1.5q33 0 46.5 -19.5t13.5 -53.5q0 -50 -4 -84.5
t-9 -64t-8.5 -57t-3.5 -63.5q0 -44 6 -92.5t13 -92t13 -77.5t6 -49z" />
    <glyph glyph-name="two" unicode="2" horiz-adv-x="552" 
d="M521 514q0 -77 -43 -137.5t-104 -104.5q-47 -34 -56.5 -53t-9.5 -32t15.5 -22t60.5 -9q26 0 41.5 7t26 15t18.5 15t19 7q30 0 30 -74q0 -38 -16.5 -65t-40.5 -44t-52 -25t-52 -8q-28 0 -47 5t-36 10.5t-35.5 10.5t-44.5 5q-13 0 -23 -3.5t-21 -8t-25 -8t-36 -3.5
q-26 0 -42.5 16t-16.5 41q0 80 50 151.5t143 164.5q38 38 50.5 65.5t12.5 46.5q0 59 -55 59q-12 0 -28 -11t-32 -24.5t-31.5 -24.5t-26.5 -11t-20.5 14t-16 32.5t-10.5 38.5t-4 32q0 18 20 40t52 40.5t71.5 31.5t79.5 13q105 0 170 -51.5t65 -141.5z" />
    <glyph glyph-name="three" unicode="3" horiz-adv-x="530" 
d="M495 217q0 -51 -20 -93.5t-55.5 -73t-84.5 -48t-107 -17.5q-34 0 -71 8.5t-68.5 21.5t-52 29.5t-20.5 32.5q0 4 7 22.5t17.5 39.5t23 37.5t23.5 16.5t21.5 -7l22.5 -15t27 -15t33 -7q33 0 56.5 23.5t23.5 60.5q0 51 -33.5 79t-97.5 38q-19 3 -26 13t-7 19q0 14 23 37.5
t50 48.5t50 49t23 39q0 8 -5 14.5t-15 6.5q-14 0 -36 -6.5t-43.5 -14.5t-39 -14.5t-23.5 -6.5q-26 0 -29 33l-10 118q-1 13 5.5 21t22.5 8q25 0 63.5 -3.5t83 -7.5t91.5 -7.5t88 -3.5q75 0 75 -52q0 -18 -17 -47.5t-37 -60t-37 -59t-17 -45.5q0 -6 19 -21.5t42 -41.5
t42 -63.5t19 -85.5z" />
    <glyph glyph-name="four" unicode="4" horiz-adv-x="584" 
d="M552 248q0 -38 -5.5 -50t-22.5 -12q-9 0 -20.5 2t-23.5 2q-17 0 -31 -12t-14 -47q0 -37 4.5 -51t4.5 -32q0 -48 -45 -48h-128q-31 0 -40.5 21t-9.5 44q0 17 10 47t10 49q0 17 -10.5 23t-30.5 6q-34 0 -65 -8t-50 -8q-44 0 -64.5 16t-20.5 69q0 25 11 67.5t31 92t46.5 100
t58 91.5t66 67t69.5 26q33 0 61.5 -1.5t49.5 -7t33.5 -15t12.5 -24.5q0 -7 -10 -18t-25.5 -26t-35.5 -33t-39 -39q-36 -39 -63.5 -83.5t-27.5 -82.5q0 -12 4 -18.5t18 -6.5q18 0 36 32.5t41.5 71.5t54 71.5t73.5 32.5q12 0 19.5 -8t7.5 -20q0 -11 -4.5 -29.5t-9.5 -40
t-9.5 -45t-4.5 -44.5q0 -17 13.5 -24t30 -17t30.5 -27t14 -53z" />
    <glyph glyph-name="five" unicode="5" horiz-adv-x="573" 
d="M530 235q0 -125 -81.5 -187t-229.5 -62q-35 0 -66.5 8t-56 20t-39 26.5t-14.5 26.5q0 11 6 25l35 82q11 26 28 26q12 0 23.5 -7.5t25 -17t29.5 -17t37 -7.5q29 0 51.5 21.5t22.5 64.5q0 38 -21.5 59.5t-54.5 21.5q-9 0 -18 -5.5t-19 -12t-20.5 -12t-22.5 -5.5
q-8 0 -23.5 5t-30 15t-25 24t-8.5 32l16 200q5 68 31.5 98.5t81.5 32.5l270 8q22 1 32.5 -7.5t10.5 -31.5q0 -24 -4.5 -46t-11.5 -38.5t-16 -26t-18 -8.5l-126 10q-22 1 -36.5 -10t-23 -25t-12 -28.5t-3.5 -21.5q0 -15 16 -15q11 0 27 5t35 5q43 0 80 -17t64.5 -47t43 -71.5
t15.5 -89.5z" />
    <glyph glyph-name="six" unicode="6" horiz-adv-x="575" 
d="M542 263q0 -143 -69 -211.5t-184 -68.5q-68 0 -117 24.5t-80 65.5t-45.5 95t-14.5 113q0 90 17 167.5t54.5 135t96 90.5t142.5 33q26 0 55 -4t53 -10.5t40 -15.5t16 -19q0 -14 -5.5 -33t-13.5 -36.5t-17 -29.5t-15 -12q-13 0 -37.5 8.5t-63.5 8.5q-20 0 -38 -11t-30 -26
t-16.5 -30.5t0.5 -25.5q0 -8 6 -13t13 -5q11 0 26 6.5t43 6.5q34 0 67 -15t59 -41.5t42 -64t16 -82.5zM330 239q0 29 -8.5 52t-29.5 23t-28 -23.5t-7 -51.5q0 -31 7.5 -52t26.5 -21q23 0 31 21t8 52z" />
    <glyph glyph-name="seven" unicode="7" horiz-adv-x="576" 
d="M510 645q0 -35 -22 -69t-44 -80q-23 -49 -39.5 -87.5t-27 -72t-15.5 -64t-5 -61.5q0 -53 24.5 -79t50.5 -27q10 0 17.5 -7t7.5 -18q0 -26 -17 -44.5t-43 -30t-56 -17t-56 -5.5q-91 0 -133.5 37.5t-42.5 91.5q0 51 21 114.5t59 125.5q21 35 41.5 61.5t36 47t25 36.5
t9.5 30q0 26 -28 26q-59 0 -91 -7t-49 -15.5t-25.5 -15.5t-21.5 -7q-8 0 -12 4t-6 19l-15 114q-4 23 4.5 37t38.5 14h192q43 0 81.5 6.5t64.5 6.5q45 0 60.5 -15.5t15.5 -48.5z" />
    <glyph glyph-name="eight" unicode="8" horiz-adv-x="574" 
d="M542 189q0 -101 -70 -154.5t-187 -53.5q-54 0 -100.5 13.5t-81 40t-54 65t-19.5 88.5q0 51 14 82.5t30 51.5t30 33.5t14 28.5q0 18 -9 29.5t-20 26.5t-20 37.5t-9 63.5q0 28 17.5 58.5t48 55.5t71.5 41t87 16q56 0 97.5 -16t68.5 -41t40.5 -55t13.5 -58q0 -42 -9 -65.5
t-20 -38.5t-20 -26t-9 -28q0 -16 15 -29t33 -33t33 -51t15 -82zM322 499q0 30 -8 47t-28 17t-28 -17.5t-8 -46.5q0 -17 11.5 -33t25.5 -16q16 0 25.5 15t9.5 34zM325 192q0 9 -2.5 21.5t-7.5 24t-12 20t-16 8.5q-10 0 -17 -8t-12 -20t-7.5 -25t-2.5 -22q0 -16 11 -28t28 -12
q19 0 28.5 11.5t9.5 29.5z" />
    <glyph glyph-name="nine" unicode="9" horiz-adv-x="575" 
d="M32 427q0 143 69 211.5t184 68.5q68 0 117 -24.5t80 -65.5t45.5 -95t14.5 -113q0 -90 -17 -167.5t-54.5 -135t-96 -90.5t-142.5 -33q-26 0 -55 4t-53 10.5t-40 15.5t-16 19q0 14 5.5 33t13.5 36.5t17 29.5t15 12q13 0 37.5 -8.5t63.5 -8.5q20 0 38 11t30 26t16.5 30.5
t-0.5 25.5q0 8 -6 13t-13 5q-11 0 -26 -6.5t-43 -6.5q-34 0 -67 15t-59 41.5t-42 64t-16 82.5zM244 451q0 -29 8.5 -52t29.5 -23t28 23.5t7 51.5q0 31 -7.5 52t-26.5 21q-23 0 -31 -21t-8 -52z" />
    <glyph glyph-name="colon" unicode=":" horiz-adv-x="306" 
d="M153 542q-25 0 -47 -9.5t-38.5 -26t-26 -38t-9.5 -46.5t9.5 -46.5t26 -38t38.5 -26t47 -9.5t46.5 9.5t38 26t26 38t9.5 46.5t-9.5 46.5t-26 38t-38 26t-46.5 9.5zM152 223q-25 0 -47 -9.5t-38.5 -26t-26 -38t-9.5 -46.5t9.5 -46.5t26 -38t38.5 -26t47 -9.5t46.5 9.5
t38 26t26 38t9.5 46.5t-9.5 46.5t-26 38t-38 26t-46.5 9.5z" />
    <glyph glyph-name="semicolon" unicode=";" horiz-adv-x="307" 
d="M285 15q0 -29 -14.5 -53t-37 -41.5t-49.5 -27t-52 -9.5q-22 0 -22 23q0 11 7.5 25t7.5 30q0 17 -11.5 27.5t-31.5 10.5q-15 0 -24 10t-9 24q0 12 12 31.5t30 37.5t38 31t36 13q50 0 85 -38t35 -94zM165 542q-25 0 -47 -9.5t-38.5 -26t-26 -38t-9.5 -46.5t9.5 -46.5
t26 -38t38.5 -26t47 -9.5t46.5 9.5t38 26t26 38t9.5 46.5t-9.5 46.5t-26 38t-38 26t-46.5 9.5z" />
    <glyph glyph-name="less" unicode="&#x3c;" horiz-adv-x="600" 
d="M554 503v-186l-266 -43q-16 -3 -24.5 -13t-8.5 -18q0 -9 7 -18t22 -14l270 -57v-173l-462 189q-23 10 -34.5 24t-11.5 39v22q0 20 15 34.5t35 22.5z" />
    <glyph glyph-name="equal" unicode="=" horiz-adv-x="604" 
d="M540 368v-54q0 -12 -8.5 -20.5t-21.5 -8.5h-425q-11 0 -18 10.5t-7 23.5v55q0 10 6 18.5t17 8.5h424q15 0 24 -9.5t9 -23.5zM540 170v-62q0 -27 -26 -27h-428q-11 0 -18.5 8.5t-7.5 21.5v59q0 10 7 18.5t18 8.5h426q29 0 29 -27z" />
    <glyph glyph-name="greater" unicode="&#x3e;" horiz-adv-x="600" 
d="M46 503v-186l266 -43q16 -3 24.5 -13t8.5 -18q0 -9 -7 -18t-22 -14l-270 -57v-173l462 189q23 10 34.5 24t11.5 39v22q0 20 -15 34.5t-35 22.5z" />
    <glyph glyph-name="question" unicode="?" horiz-adv-x="441" 
d="M420 526q0 -75 -32.5 -114.5t-92.5 -69.5q-24 -12 -31 -26t-7 -30q0 -19 -6.5 -25t-25.5 -6h-120q-18 0 -23.5 10.5t-5.5 29.5v30q0 47 21 76t64 58q21 14 30.5 32t9.5 34t-9.5 27t-27.5 11q-12 0 -22 -9.5t-20 -18t-21 -10t-25 13.5l-59 65q-11 12 -1.5 30.5t33.5 35
t60 28.5t78 12q118 -1 175.5 -53.5t57.5 -130.5zM172 -14q-46 0 -78.5 33t-32.5 79t32.5 79.5t78.5 33.5q23 0 43.5 -9t35.5 -24.5t24 -36t9 -43.5q0 -46 -33 -79t-79 -33z" />
    <glyph glyph-name="at" unicode="@" horiz-adv-x="800" 
d="M768 403q0 -64 -23.5 -111.5t-59.5 -79t-79.5 -47t-84.5 -15.5q-21 0 -33.5 5t-20.5 11t-13.5 11t-13.5 5t-15.5 -4t-19 -8.5t-28 -8.5t-42.5 -4q-31 0 -58 13.5t-47 36t-31.5 53t-11.5 64.5q0 45 14.5 85t40 71t61.5 49t79 18q21 0 36.5 -6.5t27.5 -14.5t22.5 -14.5
t20.5 -6.5q8 0 11.5 6.5t9 14.5t15.5 14.5t32 6.5q19 0 32.5 -7.5t13.5 -20.5q0 -20 -4 -32l-40 -182l-2.5 -15t-1.5 -18q0 -21 23 -21q22 0 40.5 14t32 36t20.5 49t7 53q0 54 -22 97t-60 72.5t-88.5 45.5t-107.5 16q-62 0 -113 -22t-88 -59.5t-57 -88.5t-20 -108
q0 -62 22 -113t59.5 -88t88.5 -57t108 -20q70 0 119.5 13.5t82.5 30t51 30t25 13.5q12 0 13.5 -17t1.5 -39q0 -26 -25 -48t-66 -38.5t-94.5 -26t-110.5 -9.5q-82 0 -149 27.5t-115 77t-74.5 117t-26.5 147.5q0 75 27.5 142t76.5 117t116.5 79.5t147.5 29.5q68 0 134 -20
t118 -60.5t84 -100.5t32 -140zM459 360q0 35 -21 60t-55 25q-39 0 -66.5 -33.5t-27.5 -73.5q0 -35 18 -60.5t52 -25.5q43 0 71.5 32.5t28.5 75.5zM383 409q23 0 38 -17t12 -40t-22 -40t-42 -17t-38 17t-12 40t22 40t42 17z" />
    <glyph glyph-name="A" unicode="A" horiz-adv-x="646" 
d="M625 185q0 -83 -12.5 -134t-42.5 -51h-174q-19 0 -27.5 4t-8.5 18q0 16 5 33t11 34t11 36t5 40q0 22 -14 33t-49 11q-70 0 -70 -44q1 -43 15.5 -77t15.5 -66q0 -15 -6.5 -18.5t-28.5 -3.5h-172q-31 0 -46.5 51t-15.5 133q0 27 4 64.5t13.5 78.5t25 84t38.5 82
q26 43 55 81.5t59 68t59.5 46.5t56.5 17q24 0 51.5 -17t55 -46.5t54.5 -68t51 -81.5q22 -39 37 -82t25 -84.5t14.5 -78t4.5 -63.5zM325 478q-12 0 -21.5 -13t-16.5 -29.5t-10.5 -32t-3.5 -19.5q0 -10 11.5 -19t40.5 -9q34 0 44.5 10t10.5 22q0 5 -4 19.5t-11.5 30.5
t-17.5 28t-22 12z" />
    <glyph glyph-name="B" unicode="B" horiz-adv-x="612" 
d="M598 169q0 -50 -20 -83t-55.5 -52t-85 -26.5t-109.5 -7.5h-210q-53 0 -72.5 43t-19.5 123q0 31 3 74t6.5 93.5t6.5 106.5t3 114q0 63 31.5 105t91.5 42q37 0 87.5 -2.5t139.5 -2.5q63 0 106.5 -37t43.5 -99q0 -32 -11.5 -52.5t-24.5 -36.5t-24.5 -30.5t-11.5 -34.5
q0 -12 19.5 -31.5t43 -48.5t43 -67.5t19.5 -89.5zM281 467q23 0 37 23.5t14 53.5q0 15 -9.5 23.5t-25.5 8.5q-23 0 -31 -10t-8 -30q0 -8 1 -19.5t4 -22.5t7.5 -19t10.5 -8zM363 206q0 39 -21.5 65.5t-38.5 26.5q-24 0 -34.5 -19t-10.5 -44q0 -36 15 -66.5t35 -30.5
q32 0 43.5 20t11.5 48z" />
    <glyph glyph-name="C" unicode="C" horiz-adv-x="593" 
d="M583 197q0 -52 -21.5 -92.5t-56 -69t-78.5 -43.5t-89 -15q-70 0 -128 27t-100 75.5t-65 115t-23 145.5q0 85 25 154.5t70 119t108.5 76.5t140.5 27q37 0 70.5 -11.5t59.5 -29.5t41.5 -39.5t15.5 -41.5q0 -50 -36 -80t-88 -30q-15 0 -20 12t-9.5 26t-12 25.5t-27.5 11.5
t-38.5 -16t-33 -43.5t-23.5 -65.5t-9 -82q0 -85 45 -137.5t115 -52.5q30 0 50 13.5t35 29.5t27.5 29.5t27.5 13.5q10 0 18.5 -11.5t8.5 -40.5z" />
    <glyph glyph-name="D" unicode="D" horiz-adv-x="619" 
d="M598 252q0 -131 -54 -199.5t-167 -68.5q-24 0 -45 2.5t-46.5 5.5t-58.5 5.5t-80 2.5q-63 0 -88.5 44t-25.5 142q0 40 4.5 75.5t10.5 74t11 82.5t5 101q1 100 27 143t84 43q27 0 59.5 -6t75.5 -6q53 0 105 -34.5t92.5 -94.5t65.5 -140t25 -172zM360 348q0 34 -5.5 66.5
t-15 57.5t-22.5 40t-30 15q-21 0 -18 -38.5t3 -109.5q0 -46 -4 -86t-4.5 -70t7.5 -47t32 -17q31 0 44 47.5t13 141.5z" />
    <glyph glyph-name="E" unicode="E" horiz-adv-x="551" 
d="M382 -15q-45 0 -80.5 2.5t-68 5t-63.5 5t-67 2.5q-23 0 -38.5 27.5t-24.5 68.5t-13 88t-4 86q0 92 10 170t31.5 135.5t57 90t86.5 32.5h276q30 0 42.5 -4t11.5 -22q0 -2 -0.5 -6t-1.5 -11l-41 -113q-6 -17 -16.5 -23t-25.5 -6q-6 0 -18.5 8.5t-29 19.5t-35.5 19.5
t-38 8.5q-21 0 -36 -9t-25 -22.5t-15 -28.5t-5 -26q0 -17 8.5 -19.5t18.5 -2.5q24 0 49.5 8.5t55.5 8.5q12 0 25.5 -1t25 -4t19.5 -9t8 -17q0 -9 -6 -28l-34 -96q-10 -31 -26 -31q-11 0 -25.5 11t-36.5 11q-39 0 -61.5 -24t-22.5 -61q0 -48 24 -75t64 -27q27 0 45.5 10.5
t33 23.5t27.5 23.5t29 10.5q13 0 22 -20l46 -132q3 -9 -8.5 -19t-33.5 -19t-52 -14.5t-64 -5.5z" />
    <glyph glyph-name="F" unicode="F" horiz-adv-x="525" 
d="M539 665l-35 -109q-4 -14 -13 -18t-19 -4q-12 0 -29 7t-36.5 15t-39.5 15t-38 7q-19 0 -33 -10.5t-22 -25.5t-12 -31t-4 -27q0 -10 9.5 -21t23.5 -11q15 0 33 2.5t36.5 4.5t35 4t27.5 2q29 0 38 -13.5t3 -32.5l-37 -130q-6 -20 -25 -20q-9 0 -26.5 11t-37.5 11
q-45 0 -60 -22.5t-15 -61.5q0 -24 6.5 -50.5t14 -50.5t14 -44.5t6.5 -33.5q0 -11 -7 -19.5t-23 -8.5h-175q-14 0 -26 14t-21 36.5t-14.5 50.5t-5.5 56q0 116 3.5 184.5t8 111.5t8 71t3.5 62q0 54 19.5 90.5t77.5 36.5q98 0 183 -6.5t177 -6.5q18 0 25 -10.5t2 -24.5z" />
    <glyph glyph-name="G" unicode="G" horiz-adv-x="623" 
d="M578 360q0 -24 3.5 -42.5l7 -37t7 -39t3.5 -48.5q0 -46 -16.5 -85t-49.5 -67.5t-82 -44.5t-114 -16q-72 0 -131 25.5t-100 70t-63.5 105t-22.5 131.5q0 98 29.5 174.5t81 128.5t121 79t149.5 27q37 0 70 -8t57.5 -23t39 -37t14.5 -50t-15 -48t-35.5 -33t-41 -19t-32.5 -6
q-13 0 -20.5 9t-7.5 19q0 14 -9.5 25.5t-37.5 11.5q-17 0 -39.5 -16t-42 -47t-33 -75t-13.5 -100q0 -69 21 -117t56 -48q16 0 29.5 12.5t13.5 37.5q0 24 -6.5 41t-15 29t-15 21t-6.5 18q0 6 3.5 12.5t12.5 10.5l178 78q22 10 37 -4.5t15 -54.5z" />
    <glyph glyph-name="H" unicode="H" horiz-adv-x="680" 
d="M658 298q0 -51 -3 -105.5t-11 -99t-22.5 -73t-37.5 -28.5q-34 0 -61 3.5t-46 3.5h-77q-16 0 -19 3q-5 5 -7 8t1 16.5t12.5 44t26.5 90.5q5 28 5 42q0 9 -0.5 17t-1.5 15q-4 49 -51 49q-29 0 -48 -11t-30 -28.5t-15 -39t-4 -41.5q0 -25 1.5 -34.5t5.5 -21.5l31 -98
q1 -2 -3 -5t-8 -5l-11 -2q-38 -7 -77 -4t-66 3q-34 0 -53 1t-29 7t-13 17.5t-5 32.5l-10 93l-4 66v73l3 74q1 35 2 66.5t4 58.5q1 11 4 35.5t11 60.5l10 48q7 35 27 55.5t56 20.5h124q43 0 43 -41q0 -10 -6.5 -31.5t-14.5 -49.5t-14.5 -58.5t-6.5 -57.5q0 -30 40 -30
q51 0 76.5 13t25.5 29q0 25 -9 51.5t-19 52t-19 48t-9 38.5q0 17 16.5 26.5t37.5 9.5h123q29 0 49 -14t28 -36l13 -39q12 -36 19 -69t10.5 -69.5t4.5 -80t1 -100.5z" />
    <glyph glyph-name="I" unicode="I" horiz-adv-x="322" 
d="M301 46q1 -28 -12 -37t-50 -9h-139q-47 0 -62.5 46t-15.5 165q0 49 4.5 100.5t10.5 104.5t10.5 105.5t4.5 102.5q0 34 20 53.5t54 19.5h135q29 0 39.5 -8.5t10.5 -30.5q0 -18 -7.5 -53t-17 -79.5t-17 -95t-7.5 -100.5q0 -57 6 -102t13.5 -80t13.5 -60t6 -42z" />
    <glyph glyph-name="J" unicode="J" horiz-adv-x="404" 
d="M381 382q0 -105 -17.5 -181.5t-49 -125.5t-75 -72.5t-94.5 -23.5q-88 0 -131 28.5t-43 62.5q0 14 6 27l33 72q10 24 30 24q10 0 17.5 -11t14 -23.5t15.5 -23.5t22 -11q16 0 24 22t11.5 54t4 69t0.5 66q0 69 -9.5 123t-21 94t-21 67.5t-9.5 44.5q0 16 9.5 27.5t37.5 11.5
h166q23 0 38.5 -31.5t24.5 -79.5t13 -104.5t4 -105.5z" />
    <glyph glyph-name="K" unicode="K" horiz-adv-x="602" 
d="M606 68q0 -33 -12.5 -50.5t-41.5 -17.5h-162q-27 0 -39 9.5t-15 27.5t-1 45.5t2 63.5q0 58 -11 83t-21 25q-19 0 -26 -12t-7 -34q0 -26 4.5 -65t4.5 -97q0 -20 -11.5 -33t-36.5 -13h-137q-15 0 -27.5 2.5t-21.5 10.5t-14.5 24.5t-5.5 43.5q0 90 -7 159.5t-7 140.5
q0 53 5.5 109.5t16 103t26 76.5t35.5 30h148q21 0 30 -12.5t9 -25.5q0 -24 -6 -48t-13.5 -45.5t-13.5 -40.5t-6 -32q0 -23 18 -23q9 0 19.5 16t23.5 42.5t27.5 61.5t32.5 72q9 19 24 27t35 8h119q41 0 41 -36q0 -14 -12.5 -36.5t-26.5 -47.5q-43 -73 -66.5 -112t-23.5 -59
q0 -23 23.5 -42t52 -52t52 -90t23.5 -157z" />
    <glyph glyph-name="L" unicode="L" horiz-adv-x="503" 
d="M477 194l30 -137q7 -21 7 -43q0 -14 -12 -22t-28 -8q-37 0 -66.5 3.5t-58 7.5t-58.5 7.5t-68 3.5q-31 0 -60.5 -3t-53.5 -3q-37 0 -60 28t-23 93q0 44 3.5 80.5t8 72.5t8 75.5t3.5 90.5q0 42 9.5 88t25.5 84.5t37 63.5t44 25h96q32 0 44 -8.5t12 -29.5q0 -19 -11.5 -45.5
t-25 -71.5t-25 -114.5t-11.5 -174.5q0 -49 14 -84t40 -35q22 0 41.5 13t37 28.5t33.5 28.5t32 13t24.5 -9t10.5 -18z" />
    <glyph glyph-name="M" unicode="M" horiz-adv-x="760" 
d="M734 259q0 -41 -4.5 -82t-9.5 -74t-10 -54t-5 -24q-5 -13 -16.5 -19t-45.5 -6h-155q-23 0 -32.5 10.5t-9.5 27.5q0 9 11 34.5t25 64.5t25 89.5t11 110.5q0 35 -27 35q-7 0 -15.5 -10.5t-8.5 -27.5q0 -35 -5 -68.5t-18 -59t-35.5 -41t-57.5 -15.5q-26 0 -36 34.5t-16 76.5
t-13.5 76.5t-28.5 34.5q-19 0 -19 -42t7.5 -88.5t17 -88.5t17 -74t7.5 -44q0 -19 -8 -27t-31 -8h-154q-21 1 -34.5 31.5t-22 77t-11.5 100.5t-3 102q0 36 3.5 76.5t8 82.5t8 83t3.5 77q0 39 16.5 54.5t47.5 15.5h117q34 0 55.5 -29t37 -64.5t28 -64.5t28.5 -29q14 0 25 29
t27 64.5t40 64.5t63 29h111q32 0 48 -27t16 -67q0 -70 14 -158t14 -189z" />
    <glyph glyph-name="N" unicode="N" horiz-adv-x="640" 
d="M617 363q0 -69 -1.5 -134.5t-9 -116.5t-22 -81.5t-39.5 -30.5h-118q-31 0 -47 11t-30 43q-16 37 -26.5 86t-19.5 92.5t-18.5 73.5t-23.5 30q-24 0 -24 -33q0 -31 5.5 -66t12.5 -69.5t12.5 -66.5t5.5 -58q0 -23 -10.5 -33t-44.5 -10h-132q-19 0 -32 19t-21.5 49.5t-12 70
t-3.5 80.5q0 67 4 138t4 135q0 46 2 84t8.5 65t20 42t36.5 15h136q32 0 56.5 -37t38.5 -82q20 -64 24.5 -93t24.5 -29q10 0 13.5 8.5t3.5 21.5q0 21 -5 49t-11 54.5t-11 47t-5 27.5q0 14 8.5 23.5t37.5 9.5h120q26 0 43.5 -29t28.5 -76.5t16 -107.5t5 -122z" />
    <glyph glyph-name="O" unicode="O" horiz-adv-x="659" 
d="M641 248q0 -46 -14 -92.5t-45.5 -83.5t-81.5 -60t-123 -23h-96q-66 0 -115.5 23.5t-81.5 60.5t-48 84t-16 93q0 84 22.5 168t63.5 151.5t98 109.5t126 42q62 0 118.5 -42.5t99 -110t68 -152t25.5 -168.5zM403 268q0 26 -2.5 68.5t-10.5 83.5t-22.5 70.5t-37.5 29.5
q-22 0 -35.5 -29.5t-21 -70.5t-10.5 -83.5t-3 -67.5q0 -48 15 -67t56 -19q43 0 57.5 19t14.5 66z" />
    <glyph glyph-name="P" unicode="P" horiz-adv-x="574" 
d="M578 541q0 -67 -21 -109t-53.5 -69.5t-71.5 -46t-75 -38.5q-23 -13 -39 -22.5t-26.5 -20.5t-15 -25t-4.5 -35q0 -42 13 -73.5t13 -68.5q0 -33 -40 -33h-160q-44 0 -66 56t-22 192q0 44 3 84t6.5 81t6.5 87t3 102q0 50 23 66.5t55 16.5q45 0 79 2t63 5t57.5 5t64.5 2
q62 0 102 -15.5t63.5 -39.5t32.5 -51.5t9 -51.5zM341 517q0 18 -8.5 32t-28.5 14q-8 0 -16.5 -10t-15 -25t-11 -33t-4.5 -34q0 -41 18 -41q6 0 17.5 8.5t22 22.5t18.5 31t8 35z" />
    <glyph glyph-name="Q" unicode="Q" horiz-adv-x="675" 
d="M625 357q0 -38 -4 -65t-9 -48.5t-8.5 -41.5t-3.5 -43q0 -36 16.5 -55.5t36 -39.5t35.5 -49t16 -84q0 -49 -17 -81.5t-44 -52.5t-60.5 -28.5t-66.5 -8.5q-59 0 -91.5 18t-32.5 50q0 15 15.5 22.5t34 17t34 25t15.5 45.5q0 25 -17 46.5t-36 21.5q-13 0 -45.5 -15.5
t-82.5 -15.5q-78 0 -132.5 29t-89.5 80.5t-51 122t-16 153.5q0 77 18 143t55.5 114t94.5 75.5t135 27.5q76 0 132.5 -29t94 -78.5t56 -115.5t18.5 -140zM389 387q0 79 -17 127t-48 48q-42 0 -58.5 -47t-15.5 -127q0 -46 4 -88t11 -74.5t17.5 -51.5t25.5 -19q8 0 13.5 4.5
t5.5 11.5q0 12 -6 22.5t-12.5 24.5t-12.5 33.5t-6 48.5q0 10 4 17.5t16 7.5q4 0 10 -6.5t13.5 -15t15.5 -15t15 -6.5q10 0 17.5 21.5t7.5 83.5z" />
    <glyph glyph-name="R" unicode="R" horiz-adv-x="628" 
d="M618 62q0 -28 -12 -45t-49 -17h-135q-46 0 -46 51q0 31 -9.5 64.5t-22.5 61.5t-27 46t-24 18q-11 0 -18 -12.5t-7 -32.5q0 -55 11.5 -99.5t12.5 -62.5q1 -17 -7.5 -25.5t-35.5 -8.5h-144q-21 0 -36.5 10.5t-26 39.5t-16 79.5t-5.5 129.5q0 80 8.5 146.5t8.5 115.5
q0 94 15.5 137t69.5 43q23 0 38.5 -1.5t29 -2.5t27.5 -2.5t32 -1.5q40 -1 69 2.5t63 3.5q42 0 81 -5.5t68.5 -22.5t47 -47.5t17.5 -80.5q0 -51 -18 -82.5t-40 -52t-40 -34.5t-18 -29q0 -23 21.5 -46.5t47.5 -55t47.5 -75t21.5 -106.5zM356 514q0 26 -12 38t-23 12
q-15 0 -27 -9.5t-20.5 -23.5t-13.5 -31.5t-5 -33.5q0 -48 23 -48q10 0 24 8t26 22t20 31t8 35z" />
    <glyph glyph-name="S" unicode="S" horiz-adv-x="570" 
d="M546 207q0 -55 -21.5 -98t-58 -73t-84 -46t-99.5 -16q-66 0 -117.5 16.5t-86.5 43.5t-53.5 60.5t-18.5 66.5q0 11 3.5 23.5t7.5 23.5l25 64q9 23 27 23q10 0 25.5 -24t36 -52.5t46.5 -52.5t57 -24q38 0 61.5 18.5t23.5 48.5q0 38 -18 54t-46.5 26.5t-64 22t-70.5 40.5
q-53 44 -69.5 87.5t-16.5 82.5q0 27 11 61t39.5 64t76.5 50t121 20q40 0 82 -8.5t77 -22.5t57.5 -31.5t22.5 -35.5q0 -8 -4 -17.5t-8 -18.5l-38 -74q-4 -6 -10.5 -11t-13.5 -5q-14 0 -28.5 11.5t-30.5 25.5t-34.5 25.5t-39.5 11.5q-26 0 -43.5 -15.5t-17.5 -40.5
q0 -31 29.5 -50t103.5 -45q159 -60 159 -209z" />
    <glyph glyph-name="T" unicode="T" horiz-adv-x="554" 
d="M571 606l-11 -120q-2 -14 -8 -23.5t-20 -9.5q-11 0 -26.5 16.5t-31.5 34.5q-18 20 -41 35t-35 15q-10 0 -17.5 -7t-7.5 -20q0 -139 9.5 -227.5t21.5 -141.5t21.5 -78.5t9.5 -39.5t-11.5 -27t-39.5 -13h-183q-19 0 -31.5 21.5t-19.5 54.5t-10 72.5t-3 74.5q0 47 5.5 91
t12.5 83.5t12.5 73.5t5.5 61q0 22 -25 22q-11 0 -31.5 -14t-39.5 -33t-36 -36.5t-33 -17.5q-10 0 -18 6t-7 23l5 148q1 21 26 36t65.5 24.5t92.5 13.5t108 4q65 0 120.5 -4t95 -15.5t60 -31t15.5 -51.5z" />
    <glyph glyph-name="U" unicode="U" horiz-adv-x="642" 
d="M618 334q0 -79 -17 -144.5t-53.5 -112.5t-93.5 -73.5t-137 -26.5q-141 0 -214.5 102.5t-73.5 280.5q0 100 7 165.5t21.5 104.5t37.5 55t56 16h108q13 -1 24.5 -9.5t11.5 -25.5q0 -22 -7 -52.5t-15 -67t-15 -78.5t-7 -89q0 -28 2.5 -61.5t10.5 -62t22 -47.5t36 -19
q24 0 39 19.5t23 48t11 60t3 57.5q0 59 -6.5 104t-14 79.5t-14 61t-6.5 48.5q0 18 9.5 26t38.5 8h74q37 0 63.5 -40.5t43 -98t24.5 -120.5t8 -108z" />
    <glyph glyph-name="V" unicode="V" horiz-adv-x="635" 
d="M608 465q0 -69 -21.5 -153t-59.5 -157t-91.5 -122.5t-118.5 -49.5q-63 0 -116 49.5t-91.5 122.5t-59.5 157t-21 153q0 32 4 72.5t13.5 76.5t24.5 60.5t38 24.5h151q26 0 31.5 -12.5t5.5 -26.5q0 -15 -7.5 -35t-16 -47t-16 -63.5t-7.5 -85.5q0 -35 5 -69.5t14 -61.5
t21.5 -44t28.5 -17q13 0 26 17t22.5 44t15.5 61t6 68q0 49 -5 86t-11.5 65t-11.5 47.5t-5 34.5q0 16 13 27.5t36 11.5h116q29 0 46.5 -25t26.5 -61t11.5 -76.5t2.5 -71.5z" />
    <glyph glyph-name="W" unicode="W" horiz-adv-x="851" 
d="M829 497q0 -92 -24 -182.5t-60.5 -162.5t-79.5 -117t-82 -45q-19 0 -36.5 12.5t-33.5 31t-29.5 40.5t-25.5 41q-11 18 -20.5 28t-23.5 10q-13 0 -20.5 -9t-17.5 -26q-13 -21 -25.5 -44t-26.5 -42t-30 -31t-34 -12q-45 0 -88 49t-77 120.5t-54.5 152t-20.5 143.5
q0 29 1.5 71.5t9 82t24 67.5t47.5 28h123q24 0 34 -8.5t10 -22.5q0 -12 -2 -24t-4.5 -30t-4.5 -45t-2 -69q0 -35 3 -69t9 -60.5t14.5 -43t19.5 -16.5q16 0 25 21t9 47q0 83 -13.5 146.5t-13.5 113.5q0 41 15.5 65t54.5 24q26 0 54.5 -13t52 -39.5t39 -67t15.5 -96.5
q0 -28 -5 -63t-5 -65q0 -31 9 -52t31 -21q8 0 15 16t12 42.5t8.5 61.5t3.5 73q0 44 -2.5 70.5t-5 43.5t-5 27.5t-2.5 21.5q0 14 8.5 23t29.5 9h108q54 0 71.5 -55t17.5 -151z" />
    <glyph glyph-name="X" unicode="X" horiz-adv-x="610" 
d="M594 46q0 -20 -9.5 -33t-32.5 -13h-182q-37 0 -47.5 32t-11.5 73q0 24 0.5 47t-0.5 42t-5.5 30.5t-15.5 11.5q-13 0 -21.5 -17.5t-13.5 -44.5t-7 -58.5t-2 -59.5q0 -56 -48 -56h-155q-16 0 -23.5 15.5t-7.5 31.5q0 76 23.5 127t51 86.5t51 60.5t23.5 49q0 38 -19 59.5
t-42 47t-42 66t-19 116.5q0 41 35 41h146q26 0 40.5 -13t21.5 -33t9 -43t4 -43t6 -33t15 -13t18.5 12.5t11.5 32t5.5 42.5t1.5 44q0 23 13.5 35t32.5 12h145q16 0 25 -12.5t9 -30.5q0 -78 -17.5 -120.5t-38 -69.5t-38 -48t-17.5 -57q0 -16 20 -39t43.5 -59t43.5 -89t20 -129
z" />
    <glyph glyph-name="Y" unicode="Y" horiz-adv-x="599" 
d="M601 636q0 -75 -16.5 -129.5t-41.5 -97.5t-53.5 -80t-53.5 -76.5t-41 -86.5t-16 -111q0 -25 -6.5 -40t-37.5 -15h-136q-34 1 -50.5 20t-16.5 66q0 19 7 40t15 42t15.5 42t7.5 41q0 27 -27.5 51.5t-61 62t-61.5 93.5t-28 146q0 46 13 71t50 25h146q24 0 37.5 -12t13.5 -50
q0 -35 2 -68t7.5 -58t14.5 -40t23 -15q17 0 27.5 17.5t15.5 43.5t6.5 58t1.5 60q0 39 13 51.5t31 12.5h123q34 0 55.5 -19.5t21.5 -44.5z" />
    <glyph glyph-name="Z" unicode="Z" horiz-adv-x="572" 
d="M495 200l60 -166q4 -9 4 -22q0 -6 -8.5 -8.5t-20.5 -2.5q-25 0 -59.5 3.5t-75.5 3.5q-27 0 -70 -3t-87.5 -7t-83 -7t-54.5 -3q-18 0 -33.5 3t-27.5 14.5t-18.5 35t-6.5 65.5q0 21 11 45t28 50.5t37 54.5t39 56q24 35 44.5 68t36 61.5t24.5 50t9 33.5q0 21 -14 21
q-15 0 -32 -10.5t-32.5 -23t-28 -23t-19.5 -10.5q-15 0 -23.5 8.5t-15.5 29.5l-42 125q-3 10 -3 21q0 7 7.5 14.5t27.5 12.5t54 8.5t87 3.5q45 0 77 2.5t58.5 6t50 6t50.5 2.5q51 0 76.5 -22.5t25.5 -81.5q0 -39 -31 -79t-69 -88q-24 -30 -51 -63t-50 -68t-38 -70t-15 -70
q0 -24 22 -24q18 0 40.5 12t44 26t39 26t24.5 12q22 0 32 -29z" />
    <glyph glyph-name="bracketleft" unicode="[" 
d="M350 695v-1q0 -20 -8.5 -29t-21.5 -19.5t-28.5 -28t-28.5 -53.5t-21.5 -97t-8.5 -159q0 -96 8.5 -157.5t21.5 -99t28.5 -56.5t28.5 -30t21.5 -20t8.5 -27q0 -22 -13 -31.5t-59 -9.5h-76q-48 0 -75.5 25.5t-41.5 79t-17.5 135t-3.5 193.5q0 113 5 193t19.5 130.5
t41.5 73.5t71 23h78q41 0 56 -13.5t15 -21.5z" />
    <glyph glyph-name="backslash" unicode="\" horiz-adv-x="453" 
d="M78 703q-65 0 -65 -29q0 -11 9 -33t28 -60l247 -524q15 -27 31 -43.5t47 -16.5q24 0 33.5 5t10.5 14.5t-5 23t-14 30.5l-263 571q-11 23 -22 42.5t-37 19.5z" />
    <glyph glyph-name="bracketright" unicode="]" 
d="M64 695v-1q0 -20 8.5 -29t21.5 -19.5t28.5 -28t28.5 -53.5t21.5 -97t8.5 -159q0 -96 -8.5 -157.5t-21.5 -99t-28.5 -56.5t-28.5 -30t-21.5 -20t-8.5 -27q0 -22 13 -31.5t59 -9.5h76q48 0 75.5 25.5t41.5 79t17.5 135t3.5 193.5q0 113 -5 193t-19.5 130.5t-41.5 73.5
t-71 23h-78q-41 0 -56 -13.5t-15 -21.5z" />
    <glyph glyph-name="asciicircum" unicode="^" horiz-adv-x="550" 
d="M482 469q0 -22 -11.5 -31.5t-38.5 -9.5q-40 0 -61.5 2t-30.5 16q-20 30 -31.5 47t-18.5 25.5t-11.5 10.5t-10.5 2q-5 0 -9.5 -2.5t-11.5 -11t-17.5 -25.5t-27.5 -46q-9 -15 -33.5 -16.5t-64.5 -1.5q-42 0 -42 40q0 27 22 49l105 108q18 18 33.5 25.5t44.5 7.5
q33 0 49.5 -9.5t31.5 -23.5l115 -110q19 -18 19 -46z" />
    <glyph glyph-name="underscore" unicode="_" horiz-adv-x="424" 
d="M484 -119q0 -10 -5 -23t-12.5 -25t-17.5 -20t-21 -8h-464q-24 0 -28 14.5t4 32.5t22.5 32.5t27.5 14.5h464q14 0 22 -3.5t8 -14.5z" />
    <glyph glyph-name="grave" unicode="`" horiz-adv-x="385" 
d="M308 589q0 -19 -36 -19q-18 0 -52.5 23t-69 54.5t-59.5 64t-25 52.5q0 18 17 21.5t34 3.5h41q27 0 38 -5t24 -27l76 -132q4 -7 8 -16t4 -20z" />
    <glyph glyph-name="a" unicode="a" horiz-adv-x="489" 
d="M444 210q0 -39 6 -56t14 -25t14 -13.5t6 -22.5q0 -13 -6 -32t-19.5 -36t-35.5 -29.5t-53 -12.5q-30 0 -52.5 2.5t-44.5 6t-47.5 6t-62.5 2.5q-68 0 -106 39t-38 108q0 30 8 57t27.5 51t52 44.5t82.5 36.5q35 11 44.5 23.5t9.5 23.5q0 12 -9.5 21.5t-25.5 9.5
q-15 0 -29 -9t-26.5 -20t-24 -20.5t-22.5 -9.5q-30 0 -51 26t-21 57q1 52 48.5 77t108.5 25q137 0 195 -79.5t58 -250.5zM244 186q0 37 -4.5 50.5t-13.5 13.5q-16 0 -28.5 -17.5t-12.5 -35.5q0 -39 12 -53t22 -14q17 0 21 16t4 40z" />
    <glyph glyph-name="b" unicode="b" horiz-adv-x="515" 
d="M497 322q0 -155 -59 -244t-179 -89q-42 0 -79.5 8t-81.5 8q-23 0 -38 19.5t-23.5 52t-12 73.5t-3.5 84q0 47 2.5 87.5t6 82.5t6 89.5t2.5 108.5q0 50 14 74t55 24h122q35 0 44 -10t9 -27q0 -11 -5 -23.5t-11.5 -26.5t-11.5 -28.5t-5 -29.5q0 -34 19 -34q10 0 24.5 7.5
t41.5 7.5q36 0 66 -15.5t51.5 -44t33.5 -68t12 -86.5zM289 297q0 59 -7.5 91t-23.5 32q-10 0 -16 -10.5t-9 -27.5t-3.5 -39t-0.5 -45q0 -75 8.5 -99.5t20.5 -24.5q15 0 23 25t8 98z" />
    <glyph glyph-name="c" unicode="c" horiz-adv-x="465" 
d="M450 130q0 -31 -13.5 -58.5t-38 -48t-58.5 -32.5t-74 -12q-116 0 -181 58.5t-65 175.5q0 164 77.5 248.5t209.5 84.5q57 0 99 -26.5t42 -78.5q0 -19 -8.5 -36t-20.5 -29t-26 -19t-26 -7q-13 0 -21.5 8t-16 17.5t-15.5 17t-21 7.5q-18 0 -29.5 -11t-19 -29t-10.5 -41.5
t-3 -47.5q0 -67 23.5 -97t55.5 -30q27 0 44 12t28.5 26.5t20 26.5t17.5 12q16 0 23 -25t7 -66z" />
    <glyph glyph-name="d" unicode="d" horiz-adv-x="514" 
d="M491 362q0 -64 -3 -110t-7 -79t-7 -55.5t-3 -40.5q0 -52 -20 -64.5t-65 -12.5q-26 0 -44 -3t-35 -6t-37 -6t-49 -3q-42 0 -78.5 22t-64.5 61.5t-44 94t-16 118.5q0 54 10.5 101t33 82t56.5 55t80 20q20 0 35 -3t23 -3q16 0 16 27q0 8 -7 22l-15 30t-15 32.5t-7 29.5
q0 9 3 22.5t25 13.5h139q30 0 48.5 -31t29.5 -80.5t14.5 -111t3.5 -122.5zM282 294q0 74 -5.5 101t-18.5 27q-18 0 -27.5 -39.5t-9.5 -88.5q0 -66 7 -100t29 -34q13 0 19 29t6 105z" />
    <glyph glyph-name="e" unicode="e" horiz-adv-x="503" 
d="M482 174q0 -34 -15 -68.5t-44 -62.5t-72 -45t-99 -17t-99 22.5t-72 61t-44 90.5t-15 112q0 72 20.5 124.5t56 87t82.5 51.5t100 17q41 0 76.5 -11t61.5 -31t41 -47.5t15 -60.5q0 -42 -17.5 -68.5t-43.5 -43.5t-57 -28t-57 -21.5t-43.5 -23t-17.5 -33.5q0 -23 21.5 -32.5
t46.5 -9.5q26 0 49 13.5t42.5 29.5t35 29.5t27.5 13.5q8 0 14.5 -14.5t6.5 -34.5zM232 341q7 0 17 4.5t19 12.5t15.5 19t6.5 24q0 16 -18 16t-39 -14.5t-21 -43.5q0 -5 4.5 -11.5t15.5 -6.5z" />
    <glyph glyph-name="f" unicode="f" horiz-adv-x="345" 
d="M363 650q0 -39 -6 -53.5t-17 -14.5q-9 0 -21 3t-21 3q-10 0 -15.5 -8t-5.5 -33q0 -14 11.5 -18t25.5 -7.5t25.5 -10t11.5 -25.5q0 -26 -2.5 -41t-6 -22t-8 -8.5t-7.5 -1.5q-10 0 -18.5 3.5t-16.5 3.5t-20 -5.5t-12 -27.5q0 -90 6 -149t14 -97t14 -60.5t6 -40.5
q0 -25 -19.5 -32.5t-50.5 -7.5h-85q-33 0 -52 8.5t-28.5 25.5t-11.5 44t-2 63q0 45 3 80t6.5 64t6.5 53.5t3 47.5q0 14 -3 22t-16 8q-7 0 -18 -4.5t-21 -4.5q-14 0 -18.5 9.5t-4.5 46.5q0 26 16.5 34t35.5 14.5t35.5 20.5t16.5 53q0 24 8.5 46.5t27.5 40.5t48.5 28.5
t71.5 10.5q38 0 60.5 -3t34.5 -10t15.5 -19t3.5 -29z" />
    <glyph glyph-name="g" unicode="g" horiz-adv-x="573" 
d="M554 538q0 -10 -11 -17t-23.5 -14t-23.5 -15t-11 -21q0 -12 7.5 -23.5t16.5 -27.5t16.5 -40t7.5 -63q0 -80 -33 -121.5t-90 -64.5q-30 -12 -61.5 -16.5t-57 -11t-41.5 -19t-16 -41.5q0 -12 5.5 -21t16.5 -9q26 0 52 9t51.5 20t50 20t48.5 9q46 0 76.5 -17t30.5 -40
q0 -14 -2 -28t-5 -22l-31 -81q-6 -16 -14.5 -25t-21.5 -9q-15 0 -27.5 7t-24.5 15t-25 15t-28 7q-28 0 -45.5 -9.5t-36 -20.5t-46 -20.5t-76.5 -9.5q-47 0 -80.5 12.5t-55 32.5t-31.5 45t-10 51q0 36 13.5 60.5t29.5 41.5t30 31t14 29q0 20 -11 33t-24.5 30.5t-25 44.5
t-11.5 74q0 41 20 80.5t55 70.5t83 50t104 19q20 0 34.5 -2t31.5 23q29 41 59 65t47 24q10 0 18 -4t20 -16l41 -43q15 -15 18 -27t3 -20zM314 324q0 68 -32 68q-16 0 -26.5 -17.5t-10.5 -50.5q0 -27 9.5 -39t26.5 -12q33 0 33 51z" />
    <glyph glyph-name="h" unicode="h" horiz-adv-x="542" 
d="M517 278q0 -83 -9.5 -137t-27.5 -85.5t-45 -43.5t-62 -12h-56q-18 0 -30.5 9t-12.5 27q0 12 5 31t11.5 47.5t11.5 66.5t5 87q0 139 -31 139q-20 0 -30 -33.5t-11 -105.5q-1 -100 5.5 -155t6.5 -77q0 -19 -17 -27.5t-40 -8.5h-82q-48 0 -62.5 20t-14.5 59q0 64 -5.5 122.5
t-5.5 113.5q0 84 6 154.5t18 122t31 80t45 28.5h122q22 0 29.5 -10t7.5 -24q0 -12 -5 -25t-11 -28.5t-10.5 -35t-4.5 -44.5q3 -18 15 -18q15 0 26.5 5t23 11.5t25 11.5t33.5 5q79 0 112 -62.5t34 -207.5z" />
    <glyph glyph-name="i" unicode="i" horiz-adv-x="290" 
d="M278 39q0 -21 -15 -29.5t-44 -9.5h-102q-56 0 -81.5 39t-24.5 118q0 26 2 44t4 42t3.5 60.5t1.5 99.5q0 58 27.5 95.5t106.5 37.5q57 0 73 -18.5t16 -43.5q0 -139 5 -215.5t11.5 -117.5t11.5 -60t5 -42zM133 575q-46 0 -78.5 32.5t-32.5 78.5t32.5 79t78.5 33t79 -33
t33 -79t-33 -78.5t-79 -32.5z" />
    <glyph glyph-name="j" unicode="j" horiz-adv-x="315" 
d="M171 575q-46 0 -78.5 32.5t-32.5 78.5t32.5 79t78.5 33t79 -33t33 -79t-33 -78.5t-79 -32.5zM282 432q0 -59 1.5 -99t4 -70.5t4 -57.5t1.5 -60q0 -71 -46 -117t-125 -46q-68 0 -100.5 24.5t-32.5 43.5q0 6 1 12t2 9l16 62q3 11 8.5 20t12.5 9q13 0 20 -12t19 -12
q28 0 28 41q0 61 -6 106t-13 79.5t-13 61t-6 51.5q0 57 108 57q67 0 91.5 -31.5t24.5 -70.5z" />
    <glyph glyph-name="k" unicode="k" horiz-adv-x="515" 
d="M394 302q0 -18 20 -38.5t44.5 -49.5t45 -70t20.5 -99q0 -22 -11.5 -33.5t-38.5 -11.5h-121q-15 0 -25.5 16t-19 40t-14.5 52t-10 51q-10 51 -32 51q-11 0 -15.5 -9.5t-4.5 -22.5q0 -18 4 -40t9 -42.5t9 -37t4 -23.5q0 -16 -12 -25.5t-45 -9.5h-124q-35 0 -46 71t-11 201
q0 44 3 81t6.5 74t6.5 77t3 90q0 52 22.5 79t53.5 27h81q40 0 53 -5.5t13 -24.5q0 -21 -6.5 -45.5t-14 -55t-14 -67t-6.5 -81.5q0 -27 18 -27q8 0 14.5 11.5t6.5 31.5q0 51 12.5 71.5t43.5 20.5h99q34 0 45.5 -10t11.5 -29q0 -33 -12.5 -61t-27 -51t-26.5 -42t-12 -34z" />
    <glyph glyph-name="l" unicode="l" horiz-adv-x="279" 
d="M231 352q0 -78 7 -131t16 -88t16 -57t7 -38t-13 -27t-33 -11h-117q-16 0 -33.5 5t-32 23t-24 54t-9.5 97q0 84 6 158.5t6 127.5q0 48 -0.5 91t6 74.5t25.5 50t58 18.5h115q17 0 26.5 -11.5t9.5 -28.5q0 -19 -5.5 -48t-12.5 -67.5t-12.5 -86.5t-5.5 -105z" />
    <glyph glyph-name="m" unicode="m" horiz-adv-x="801" 
d="M772 161q0 -23 -2 -51t-9 -52.5t-21 -41t-38 -16.5h-114q-26 0 -36.5 8t-10.5 28q0 14 3.5 28t7.5 40.5t7.5 70.5t3.5 118q0 50 -13 72t-30 22q-14 0 -17.5 -11t-2.5 -34.5t4.5 -59t3.5 -84.5q0 -33 -3 -68.5t-11 -64t-21.5 -47t-35.5 -18.5h-115q-23 0 -31.5 10t-8.5 22
q0 15 3 27t6.5 29t6.5 43t3 69q0 59 -1.5 95t-5.5 56t-11 27t-18 7q-13 0 -20.5 -31.5t-7.5 -110.5q0 -57 2.5 -102t0.5 -76.5t-12.5 -48t-37.5 -16.5h-99q-21 0 -33.5 11t-19 46.5t-8.5 101t-2 173.5q0 65 6 108t17 68t27.5 35t36.5 10h62q31 0 44 -8.5t18.5 -19t8.5 -19
t14 -8.5q10 0 20 4.5t21 10.5t25 11t33 5q22 0 36.5 -4.5t25.5 -10.5t21.5 -10.5t24.5 -4.5q12 0 20.5 6.5t21.5 13.5t33 13.5t55 6.5q47 0 79.5 -19.5t53.5 -64.5t30.5 -117t9.5 -177z" />
    <glyph glyph-name="n" unicode="n" horiz-adv-x="545" 
d="M25 254q0 135 11 207.5t56 72.5h89q26 0 34.5 -7.5t11 -16t4 -16t12.5 -7.5q15 0 26.5 8.5t25 19t31.5 19t46 8.5q49 0 77.5 -23.5t43 -63t18.5 -91.5t4 -108q0 -70 -3 -119t-12 -79.5t-27 -44t-48 -13.5h-106q-39 0 -39 31q0 41 13 103t13 136q0 56 -8 81t-21 25
t-26 -33t-13 -108q0 -41 1.5 -71t3 -53.5t3 -42.5t1.5 -38q0 -20 -15.5 -25t-39.5 -5h-98q-38 0 -53.5 57t-15.5 197z" />
    <glyph glyph-name="o" unicode="o" horiz-adv-x="535" 
d="M513 259q0 -66 -19.5 -118t-53.5 -87.5t-79 -54.5t-97 -19t-96 19t-76.5 54.5t-51 87.5t-18.5 118q0 67 18.5 120t51.5 90t77 56.5t95 19.5t96 -20t79 -57t54 -90t20 -119zM303 259q0 24 -0.5 45.5t-4 38.5t-11.5 26.5t-22 9.5t-21.5 -9.5t-11 -26.5t-4 -38.5t-0.5 -45.5
q0 -49 5 -82t33 -33t32.5 33.5t4.5 81.5z" />
    <glyph glyph-name="p" unicode="p" horiz-adv-x="525" 
d="M511 286q0 -73 -16 -127.5t-42 -91t-58.5 -54.5t-65.5 -18q-31 0 -45 9t-28 9q-27 0 -27 -37t10.5 -75.5t23.5 -74.5t23.5 -67t10.5 -52q0 -17 -13 -27t-30 -10h-176q-22 0 -35 26t-19 74t-7.5 116t-1.5 154q0 28 4.5 72t10.5 90t10.5 86t4.5 60q0 43 -6.5 72.5
t-6.5 48.5q0 32 19.5 51.5t57.5 19.5q29 0 53 -2t47.5 -4t48.5 -4t56 -2q107 0 152 -64t45 -178zM301 254q0 64 -9 89.5t-22 25.5q-17 0 -22.5 -11.5t-5.5 -37.5q0 -13 2 -40.5t2 -53.5v-65.5t1 -35.5t4.5 -15t9.5 -3q18 0 29 42t11 105z" />
    <glyph glyph-name="q" unicode="q" horiz-adv-x="527" 
d="M14 286q0 -73 14.5 -128t39 -92t55.5 -55t64 -18q22 0 34.5 6t22.5 6q22 0 22 -25q0 -24 -12 -50.5t-20 -48t-4.5 -36t34.5 -14.5h171q24 0 38 20.5t21 51.5t9 68.5t2 70.5q0 28 -4 72t-8.5 89.5t-8.5 85t-4 59.5q0 43 6.5 72.5t6.5 48.5q0 32 -19.5 51.5t-57.5 19.5
q-29 0 -53 -2t-47.5 -4t-48.5 -4t-56 -2q-107 0 -152 -64t-45 -178zM224 254q0 64 9 89.5t22 25.5q17 0 22.5 -11.5t5.5 -37.5q0 -13 -2 -40.5t-2 -53.5v-65.5t-1 -35.5t-4.5 -15t-9.5 -3q-18 0 -29 42t-11 105z" />
    <glyph glyph-name="r" unicode="r" horiz-adv-x="421" 
d="M419 455q0 -49 -26.5 -73t-54.5 -24q-10 0 -16.5 7.5t-13 16.5t-14 16.5t-18.5 7.5q-23 0 -34.5 -30t-11.5 -85q0 -28 5.5 -58t12.5 -62.5t12.5 -68.5t5.5 -75q0 -24 -21 -39.5t-49 -14.5q-14 0 -24 5.5t-21 11.5t-25 11t-35 5q-24 0 -38 19.5t-21 69.5t-9 135.5
t-2 217.5q0 49 14 66.5t64 17.5h83q12 0 18 -6.5t10 -15t7.5 -15t10.5 -6.5t13.5 10t17 22t27 22t43.5 10q44 0 67 -27.5t23 -70.5z" />
    <glyph glyph-name="s" unicode="s" horiz-adv-x="464" 
d="M440 148q0 -83 -55 -126.5t-152 -43.5q-46 0 -85.5 14.5t-68 40t-45 59t-16.5 72.5q0 33 9 45.5t22 12.5q11 0 23.5 -15t29 -33.5t37.5 -33.5t47 -15q46 0 46 36q0 25 -32.5 43.5t-74.5 44.5q-37 23 -64 59t-27 79q0 82 56.5 122t156.5 40q35 0 67.5 -10.5t57.5 -25.5
t40 -30.5t15 -25.5q0 -15 -14 -35l-35 -49q-12 -16 -28 -16q-10 0 -17 9t-16 20t-22 20t-34 9q-11 0 -19.5 -8t-8.5 -22q0 -13 12.5 -24t31.5 -21t41 -21t41 -24q43 -31 62 -67t19 -80z" />
    <glyph glyph-name="t" unicode="t" horiz-adv-x="353" 
d="M364 511q0 -37 -14.5 -47t-31.5 -14t-31.5 -10.5t-14.5 -36.5q0 -105 9.5 -163t21 -89t21 -45.5t9.5 -33.5q0 -14 -20 -28.5t-48.5 -27t-59.5 -20.5t-53 -8q-17 0 -31 26.5t-24 70.5t-15.5 102.5t-5.5 121.5q0 32 3.5 56.5t3.5 52.5q0 13 -12 13q-9 0 -20 -2.5t-21 -2.5
q-14 0 -20.5 9t-6.5 22q0 52 13.5 98.5t44.5 81t81.5 55t124.5 20.5q18 0 29 -8.5t11 -20.5q0 -17 -8 -36.5t-8 -51.5q0 -17 4.5 -22t14.5 -5q5 0 12.5 1t16.5 1q15 0 20 -14t5 -45z" />
    <glyph glyph-name="u" unicode="u" horiz-adv-x="545" 
d="M519 236q0 -45 -4 -87.5t-14.5 -75.5t-27.5 -53t-43 -20h-66q-20 0 -29.5 6.5t-14.5 15t-8.5 15t-11.5 6.5q-12 0 -21.5 -8.5t-23 -18t-32.5 -18t-50 -8.5q-47 0 -76.5 22t-46 61.5t-22.5 94.5t-6 121q0 120 21 182.5t77 62.5h100q39 0 39 -40q0 -29 -13.5 -92.5
t-13.5 -157.5q0 -38 9 -62.5t21 -24.5q22 0 32 25t10 67q0 54 -3.5 122t-3.5 125q0 38 47 38h86q30 0 48 -29.5t27 -74.5t11.5 -97t2.5 -97z" />
    <glyph glyph-name="v" unicode="v" horiz-adv-x="523" 
d="M501 517q0 -80 -9 -141.5t-22 -106t-26 -74t-22 -45.5q-15 -28 -35 -55t-41.5 -48t-44 -34t-42.5 -13q-21 0 -43.5 13t-44 34t-41 47.5t-34.5 53.5q-9 17 -23 46.5t-27 74.5t-22 107t-9 143q0 20 11 26.5t35 6.5h139q5 0 17.5 -3t12.5 -16q-1 -16 -6 -60.5t-5 -90.5
q1 -51 12 -88.5t30 -37.5t31 37t12 87q0 55 -5 87.5t-5 63.5q0 16 15 18.5t33 2.5h124q26 0 30.5 -8t4.5 -27z" />
    <glyph glyph-name="w" unicode="w" horiz-adv-x="737" 
d="M726 470q0 -74 -20.5 -159.5t-52.5 -158t-71 -120.5t-75 -48q-14 0 -27.5 10.5t-26 26.5t-23 36t-18.5 38q-5 13 -9.5 21t-15.5 8q-10 0 -15.5 -6.5t-12.5 -20.5q-10 -20 -23 -40t-27 -36.5t-28.5 -26.5t-28.5 -10q-40 0 -80 48t-72 120.5t-52 157.5t-20 159
q0 40 10.5 51t37.5 11h118q20 0 30 -13.5t13.5 -36.5t3 -53t-0.5 -63q0 -35 9.5 -60.5t31.5 -25.5q9 0 13 15.5t4 39.5q0 32 -4.5 73t-4.5 75q0 13 3.5 29.5t10 31.5t16 25t22.5 10q39 0 64.5 -19.5t41.5 -51.5t22.5 -72.5t6.5 -82.5q0 -32 5 -52.5t17 -20.5q13 0 19.5 18.5
t8.5 48.5t2 68v75q0 42 44 42h104q26 0 38 -17t12 -44z" />
    <glyph glyph-name="x" unicode="x" horiz-adv-x="513" 
d="M506 46q0 -21 -9.5 -33.5t-26.5 -12.5h-146q-28 0 -31 27l-14 122q-3 35 -22 35q-17 0 -21 -34l-15 -124q-3 -26 -35 -26h-150q-18 0 -24 13t-6 32q0 58 14.5 95.5t31.5 62t31.5 39.5t14.5 28t-12.5 30.5t-27.5 43.5t-27.5 63t-12.5 88q0 21 11.5 27t28.5 6h140
q28 0 29 -19l13 -102q3 -25 18 -25q6 0 12 6.5t7 18.5l17 103q3 18 25 18h126q19 0 29 -6t10 -26q0 -53 -10 -89.5t-22.5 -62t-22.5 -43t-10 -31.5q0 -12 13.5 -27t30 -39.5t30 -62t13.5 -95.5z" />
    <glyph glyph-name="y" unicode="y" horiz-adv-x="544" 
d="M522 454q0 -102 -28 -210.5t-86.5 -197.5t-149.5 -146t-217 -57q-17 0 -27 8.5t-8 32.5l4 80q1 19 4.5 37.5t19.5 18.5q15 0 36 3.5t39.5 12.5t31.5 24t13 38t-19.5 39t-43 50.5t-43 101.5t-19.5 193q0 33 9.5 42t32.5 9h142q20 0 27.5 -9t7.5 -21q0 -37 -3 -83.5t-3 -88
t7.5 -69.5t28.5 -28q19 0 26 28t8 69t-1.5 86.5t-2.5 80.5q0 9 0.5 15.5t6.5 11t19 6.5t38 2h108q26 0 34 -20t8 -59z" />
    <glyph glyph-name="z" unicode="z" horiz-adv-x="455" 
d="M407 130l26 -100q1 -6 -2.5 -13t-15 -13t-33 -10.5t-57.5 -4.5q-49 0 -100.5 5.5t-132.5 5.5q-28 0 -55.5 19.5t-27.5 55.5q0 37 5.5 57.5t17 37.5t30.5 37t46 56q18 25 36.5 48.5t33 44t23.5 35t9 21.5q0 19 -21 19q-14 0 -30 -7t-31.5 -16t-28.5 -16t-20 -7
q-16 0 -21 22l-25 108q-3 13 16 22t51 9q30 0 60 -2t55.5 -5t44 -5t26.5 -2q32 0 58 2.5t46 2.5q24 0 37.5 -18.5t13.5 -43.5q0 -23 -15.5 -47.5t-48.5 -60.5q-36 -40 -64 -77.5t-47.5 -70t-29.5 -57.5t-10 -40q0 -19 29 -19q18 0 34.5 9t31.5 19.5t29.5 19.5t29.5 9
q13 0 18.5 -8.5t8.5 -21.5z" />
    <glyph glyph-name="braceleft" unicode="{" 
d="M375 -97q0 -13 -30 -21.5t-64 -8.5q-59 0 -95 4.5t-55.5 22.5t-25.5 54t-6 97q0 102 -20 161.5t-84 85.5q65 33 84.5 95.5t19.5 150.5q0 63 7.5 99t28.5 54t57 22.5t93 4.5q90 0 90 -31q0 -18 -20 -29t-44 -24t-44 -33t-20 -56t6 -69.5t6 -86.5q0 -37 -17 -59t-48 -38
q65 -30 65 -99q0 -59 -6 -93t-6 -63q0 -35 20 -54.5t44 -32.5t44 -24t20 -29z" />
    <glyph glyph-name="bar" unicode="|" horiz-adv-x="279" 
d="M198 -84q0 -14 -20 -19.5t-43 -5.5q-22 0 -39.5 5.5t-17.5 19.5v786q0 13 20 21.5t42 8.5t40 -7t18 -23v-786z" />
    <glyph glyph-name="braceright" unicode="}" 
d="M-5 -97q0 -13 30 -21.5t64 -8.5q59 0 95 4.5t55.5 22.5t25.5 54t6 97q0 102 20 161.5t84 85.5q-65 33 -84.5 95.5t-19.5 150.5q0 63 -7.5 99t-28.5 54t-57 22.5t-93 4.5q-90 0 -90 -31q0 -18 20 -29t44 -24t44 -33t20 -56t-6 -69.5t-6 -86.5q0 -37 17 -59t48 -38
q-65 -30 -65 -99q0 -59 6 -93t6 -63q0 -35 -20 -54.5t-44 -32.5t-44 -24t-20 -29z" />
    <glyph glyph-name="asciitilde" unicode="~" horiz-adv-x="444" 
d="M425 512q0 -24 -10 -47t-29 -41t-45.5 -29t-59.5 -11q-18 0 -41 7.5t-48 16.5t-48.5 16.5t-41.5 7.5q-12 0 -19.5 -6t-14 -13t-13 -13t-15.5 -6q-8 0 -12.5 5t-4.5 12q0 24 10.5 46.5t27.5 39t39.5 26.5t47.5 10q20 0 41 -8t43.5 -17t46 -17t48.5 -8q15 0 26 8t20 17
t16.5 17t14.5 8q21 0 21 -21z" />
    <glyph glyph-name="FLW128" horiz-adv-x="631" 
d="M558 672q0 -10 -5 -23t-12.5 -25t-17.5 -20t-21 -8h-142q-25 0 -41 -11.5t-25 -28.5t-12.5 -35.5t-3.5 -32.5q0 -19 25 -29t62.5 -20.5t81 -25.5t81 -43t63 -74t25.5 -119q2 -65 -24 -106.5t-64 -65.5t-81 -33.5t-75 -9.5q-13 0 -21 8t-8 21q0 15 6.5 35t13.5 46.5
t13 59.5t6 74q0 39 -21.5 65.5t-38.5 26.5q-24 0 -34.5 -19t-10.5 -44q0 -18 4.5 -43t9.5 -52t9.5 -53t4.5 -46q0 -23 -11.5 -32t-39.5 -9h-117q-53 0 -72.5 43t-19.5 123q0 38 5.5 84t12.5 96.5t12.5 103.5t5.5 104q0 42 -43 42q-30 0 -30 22q0 10 5.5 23t14 23.5t18 18
t18.5 7.5h464q14 0 22 -3.5t8 -14.5z" />
    <glyph glyph-name="FLW128" unicode="&#x402;" horiz-adv-x="631" 
d="M558 672q0 -10 -5 -23t-12.5 -25t-17.5 -20t-21 -8h-142q-25 0 -41 -11.5t-25 -28.5t-12.5 -35.5t-3.5 -32.5q0 -19 25 -29t62.5 -20.5t81 -25.5t81 -43t63 -74t25.5 -119q2 -65 -24 -106.5t-64 -65.5t-81 -33.5t-75 -9.5q-13 0 -21 8t-8 21q0 15 6.5 35t13.5 46.5
t13 59.5t6 74q0 39 -21.5 65.5t-38.5 26.5q-24 0 -34.5 -19t-10.5 -44q0 -18 4.5 -43t9.5 -52t9.5 -53t4.5 -46q0 -23 -11.5 -32t-39.5 -9h-117q-53 0 -72.5 43t-19.5 123q0 38 5.5 84t12.5 96.5t12.5 103.5t5.5 104q0 42 -43 42q-30 0 -30 22q0 10 5.5 23t14 23.5t18 18
t18.5 7.5h464q14 0 22 -3.5t8 -14.5z" />
    <glyph glyph-name="FLW129" horiz-adv-x="503" 
d="M491 497l20 157q4 20 0.5 33.5t-29.5 13.5q-45 0 -78 -3t-62.5 -7t-58.5 -7t-65 -3q-30 0 -60 4t-56 4q-28 0 -41.5 -8.5t-19 -23t-5 -33.5t0.5 -41q0 -54 -10.5 -115.5t-10.5 -144.5q0 -57 4 -114.5t16 -104t33 -75.5t54 -29h131q26 0 36.5 13t10.5 32q0 17 -10.5 62
t-23.5 103.5t-23.5 124.5t-10.5 125q0 42 20.5 65.5t47.5 23.5q21 0 42.5 -12.5t42 -27.5t40 -27.5t35.5 -12.5q11 0 19 8t11 20zM246 764q0 -19 36 -19q18 0 52.5 23t69 54.5t59.5 64t25 52.5q0 18 -17 21.5t-34 3.5h-41q-27 0 -38 -5t-24 -27l-76 -132q-4 -7 -8 -16
t-4 -20z" />
    <glyph glyph-name="FLW129" unicode="&#x403;" horiz-adv-x="503" 
d="M491 497l20 157q4 20 0.5 33.5t-29.5 13.5q-45 0 -78 -3t-62.5 -7t-58.5 -7t-65 -3q-30 0 -60 4t-56 4q-28 0 -41.5 -8.5t-19 -23t-5 -33.5t0.5 -41q0 -54 -10.5 -115.5t-10.5 -144.5q0 -57 4 -114.5t16 -104t33 -75.5t54 -29h131q26 0 36.5 13t10.5 32q0 17 -10.5 62
t-23.5 103.5t-23.5 124.5t-10.5 125q0 42 20.5 65.5t47.5 23.5q21 0 42.5 -12.5t42 -27.5t40 -27.5t35.5 -12.5q11 0 19 8t11 20zM246 764q0 -19 36 -19q18 0 52.5 23t69 54.5t59.5 64t25 52.5q0 18 -17 21.5t-34 3.5h-41q-27 0 -38 -5t-24 -27l-76 -132q-4 -7 -8 -16
t-4 -20z" />
    <glyph glyph-name="FLW130" unicode="&#x201a;" horiz-adv-x="280" 
d="M259 15q0 -29 -14.5 -53t-37 -41.5t-49.5 -27t-52 -9.5q-22 0 -22 23q0 11 7.5 25t7.5 30q0 17 -11.5 27.5t-31.5 10.5q-15 0 -24 10t-9 24q0 12 12 31.5t30 37.5t38 31t36 13q50 0 85 -38t35 -94z" />
    <glyph glyph-name="florin" unicode="&#x192;" horiz-adv-x="447" 
d="M18 148q0 -83 55 -126.5t152 -43.5q46 0 85.5 14.5t68 40t45 59t16.5 72.5q0 33 -9 45.5t-22 12.5q-11 0 -23.5 -15t-29 -33.5t-37.5 -33.5t-47 -15q-46 0 -46 36q0 25 32.5 43.5t74.5 44.5q37 23 64 59t27 79q0 82 -56.5 122t-156.5 40q-35 0 -67.5 -10.5t-57.5 -25.5
t-40 -30.5t-15 -25.5q0 -15 14 -35l35 -49q12 -16 28 -16q10 0 17 9t16 20t22 20t34 9q11 0 19.5 -8t8.5 -22q0 -13 -12.5 -24t-31.5 -21t-41 -21t-41 -24q-43 -31 -62 -67t-19 -80zM210 629q0 -19 36 -19q18 0 52.5 23t69 54.5t59.5 64t25 52.5q0 18 -17 21.5t-34 3.5h-41
q-27 0 -38 -5t-24 -27l-76 -132q-4 -7 -8 -16t-4 -20z" />
    <glyph glyph-name="FLW132" unicode="&#x201e;" horiz-adv-x="561" 
d="M259 15q0 -29 -14.5 -53t-37 -41.5t-49.5 -27t-52 -9.5q-22 0 -22 23q0 11 7.5 25t7.5 30q0 17 -11.5 27.5t-31.5 10.5q-15 0 -24 10t-9 24q0 12 12 31.5t30 37.5t38 31t36 13q50 0 85 -38t35 -94zM531 15q0 -29 -14.5 -53t-37 -41.5t-49.5 -27t-52 -9.5q-22 0 -22 23
q0 11 7.5 25t7.5 30q0 17 -11.5 27.5t-31.5 10.5q-15 0 -24 10t-9 24q0 12 12 31.5t30 37.5t38 31t36 13q50 0 85 -38t35 -94z" />
    <glyph glyph-name="ellipsis" unicode="&#x2026;" horiz-adv-x="888" 
d="M738 220q-50 0 -85.5 -35t-35.5 -85t35.5 -85t85.5 -35t85 35t35 85t-35 85t-85 35zM442 220q-50 0 -85.5 -35t-35.5 -85t35.5 -85t85.5 -35t85 35t35 85t-35 85t-85 35zM150 220q-50 0 -85.5 -35t-35.5 -85t35.5 -85t85.5 -35t85 35t35 85t-35 85t-85 35z" />
    <glyph glyph-name="FLW134" unicode="&#x2020;" horiz-adv-x="633" 
d="M340 -289h1h-41q0 62 -2 130t-9.5 139.5t-24 146.5t-44.5 151q8 10 21 27t25 36.5t21 39t9 36.5q0 4 -3 7.5t-7 3.5q-15 0 -27.5 -13.5t-26.5 -30t-31.5 -30t-41.5 -13.5q-25 0 -43.5 33.5t-18.5 78.5q0 41 22 62.5t45 21.5q21 0 39 -9t33 -20t28.5 -20t25.5 -9t12 18
q0 23 -15.5 40t-33.5 31.5t-33.5 30t-15.5 35.5q0 27 28 51t89 24q57 0 85 -24t28 -51q0 -21 -15 -36.5t-32.5 -30t-32.5 -31t-15 -39.5q0 -18 13 -18q10 0 23 9t29 20t35 20t40 9q24 0 45 -21t21 -63q0 -45 -20.5 -78.5t-45.5 -33.5q-19 0 -36 13.5t-32 30t-28.5 30
t-26.5 13.5q-11 0 -11 -11q0 -15 8 -33.5t19.5 -37.5t24.5 -37t24 -31q-29 -76 -45 -151t-24 -147t-10 -139.5t-2 -129.5z" />
    <glyph glyph-name="FLW135" unicode="&#x2021;" horiz-adv-x="633" 
d="M222 210q8 10 21 32t25 50t20.5 60.5t8.5 64.5q0 4 -3 7.5t-7 3.5q-15 0 -27.5 -13.5t-26.5 -30t-31.5 -30t-41.5 -13.5q-25 0 -43.5 33.5t-18.5 78.5q0 41 22 62.5t45 21.5q21 0 39 -9t33 -20t28.5 -20t25.5 -9t12 18q0 23 -15.5 40t-33.5 31.5t-33.5 30t-15.5 35.5
q0 27 28 51t89 24q57 0 85 -24t28 -51q0 -21 -15 -36.5t-32.5 -30t-32.5 -31t-15 -39.5q0 -18 13 -18q10 0 23 9t29 20t35 20t40 9q24 0 45 -21t21 -63q0 -45 -20 -78.5t-46 -33.5q-19 0 -36 13.5t-32 30t-28.5 30t-26.5 13.5q-11 0 -11 -11q0 -32 8 -63.5t19.5 -59
t25 -49.5t23.5 -35q-10 -13 -23.5 -35t-25 -49.5t-19.5 -59t-8 -63.5q0 -11 11 -11q13 0 26.5 13.5t28.5 30t32 30t36 13.5q26 0 46 -33.5t20 -78.5q0 -42 -21 -63t-45 -21q-21 0 -40 9t-35 20t-29 20t-23 9q-13 0 -13 -18q0 -23 15 -39.5t32.5 -31t32.5 -30t15 -36.5
q0 -27 -28 -51t-85 -24q-61 0 -89 24t-28 51q0 20 15.5 35.5t33.5 30t33.5 31.5t15.5 40q0 18 -12 18t-25.5 -9t-28.5 -20t-33 -20t-39 -9q-23 0 -45 21.5t-22 62.5q0 45 18.5 78.5t43.5 33.5q24 0 41.5 -13.5t31.5 -30t26.5 -30t27.5 -13.5q4 0 7 3.5t3 7.5q0 32 -8.5 64.5
t-20.5 60.5t-25 50t-21 32z" />
    <glyph glyph-name="circumflex" unicode="&#x2c6;" horiz-adv-x="728" 
d="M634 304q0 -10 -6 -23t-15.5 -25t-22 -20t-25.5 -8h-88q-28 0 -28 -14q0 -11 9 -20.5t23.5 -16.5t32.5 -10.5t37 -3.5q30 0 50 13.5t35 29.5t27.5 29.5t27.5 13.5q10 0 18.5 -11.5t8.5 -40.5q0 -52 -21.5 -92.5t-56 -69t-78.5 -43.5t-89 -15q-96 0 -168.5 50t-110.5 135
q-18 40 -28.5 55t-31.5 15t-41 -2.5t-55 -2.5q-20 0 -27.5 7.5t-7.5 18.5t7 23t17 22.5t22.5 17.5t22.5 7q13 0 27.5 1t27.5 3.5t21.5 7.5t8.5 14q0 10 -5.5 13t-14.5 3q-11 0 -24 -2.5t-24 -2.5q-37 0 -37 24q0 10 6.5 22.5t17 23t22.5 17.5t23 7q19 0 32 8.5t21.5 20.5
t13.5 25t9 22q41 88 119.5 137.5t184.5 49.5q37 0 70.5 -11.5t59.5 -29.5t41.5 -39.5t15.5 -41.5q0 -50 -36 -80t-88 -30q-15 0 -20 12t-9.5 26t-12 25.5t-27.5 11.5q-8 0 -21.5 -7t-26.5 -19t-22 -27t-9 -32q0 -15 15.5 -18t27.5 -3h190q17 0 27 -3.5t10 -14.5
q0 -10 -6 -23t-15.5 -25t-22 -20t-25.5 -8h-158q-27 0 -47.5 -5.5t-20.5 -16.5q0 -6 4.5 -11t32.5 -5h169q17 0 27 -3.5t10 -14.5z" />
    <glyph glyph-name="FLW137" unicode="&#x2030;" horiz-adv-x="936" 
d="M299 543q0 -32 -9 -63t-27 -55t-44 -39t-60 -15q-33 0 -58 15t-41 39.5t-24 55.5t-8 62q0 85 32 125.5t102 40.5q67 0 102 -44t35 -122zM500 647l-273 -629q-5 -11 -15 -18.5t-32 -7.5q-32 0 -47 3.5t-15 15.5t7 31l269 626q7 15 28.5 23.5t43.5 8.5q42 0 42 -21
q0 -11 -8 -32zM198 547q0 77 -35 77q-19 0 -28.5 -21t-9.5 -58q0 -40 11 -56t25 -16q19 0 28 16.5t9 57.5zM606 149q0 -32 -9 -63t-27 -55t-44 -39t-60 -15q-33 0 -58 15t-41 39.5t-24 55.5t-8 62q0 85 31.5 125.5t102.5 40.5q67 0 102 -44t35 -122zM505 153q0 77 -35 77
q-20 0 -29 -21t-9 -58q0 -40 11 -56t25 -16q19 0 28 16.5t9 57.5zM905 149q0 -32 -9 -63t-27 -55t-44 -39t-60 -15q-33 0 -58 15t-41 39.5t-24 55.5t-8 62q0 85 32 125.5t102 40.5q67 0 102 -44t35 -122zM804 153q0 77 -35 77q-19 0 -28.5 -21t-9.5 -58q0 -40 11 -56t25 -16
q19 0 28 16.5t9 57.5z" />
    <glyph glyph-name="FLW138" unicode="&#x160;" horiz-adv-x="943" 
d="M933 196q0 -36 -9 -71.5t-32.5 -64t-63.5 -46t-102 -17.5q-36 0 -64.5 2t-58 5t-63 5t-78.5 2q-32 0 -55 16.5t-23 66.5q0 19 1 37t1.5 39t1.5 46.5t1 59.5t-6 67.5t-15.5 59.5t-22.5 42.5t-26 16.5q-16 0 -28.5 -17t-21.5 -44t-14 -61.5t-5 -69.5q0 -49 7.5 -85.5
t16 -63.5t16 -47t7.5 -35q0 -14 -5.5 -26.5t-31.5 -12.5h-151q-23 0 -38 24.5t-24.5 60.5t-13.5 76.5t-4 72.5q0 69 21 153t59.5 157t91.5 122.5t116 49.5q57 0 106 -39t86 -99q17 -27 33 -49t38.5 -40t54 -33t79.5 -28q39 -10 78 -24.5t70.5 -40t51 -65.5t19.5 -102z
M696 179q0 25 -8 43t-18.5 30t-22 18t-17.5 6q-18 0 -18 -41q0 -16 4 -34t11 -33t15.5 -25t16.5 -10q20 0 28.5 14t8.5 32z" />
    <glyph glyph-name="FLW139" unicode="&#x2039;" horiz-adv-x="441" 
d="M335 268q19 0 33.5 -14t14.5 -39q0 -22 -7.5 -47t-22 -46t-35.5 -35t-48 -14q-49 0 -91 38.5t-73 89t-48.5 100.5t-17.5 73q0 39 29 85.5t68.5 86.5t79.5 67t61 27q23 0 30.5 -8t7.5 -27q0 -18 -24 -39t-53.5 -48.5t-53.5 -62.5t-24 -82q0 -12 11 -32t26.5 -39.5
t31.5 -33.5t26 -14q19 0 28 2.5t16 5t14 4.5t21 2z" />
    <glyph glyph-name="FLW140" unicode="&#x152;" horiz-adv-x="988" 
d="M977 186q0 -36 -9 -71.5t-32.5 -64t-63.5 -46t-102 -17.5q-16 0 -40 2t-52 4.5t-58 4.5t-59 2q-36 0 -60 10t-39 26.5t-21.5 37.5t-6.5 42v59t-6 54t-20 39.5t-42 15.5q-29 0 -46.5 -9t-26.5 -23t-11.5 -32t-2.5 -36q0 -50 16 -87t17 -66q0 -13 -6 -22t-27 -9h-177
q-23 0 -37.5 25t-23 70.5t-11.5 108t-3 137.5q0 46 4.5 108.5t18 119.5t38 97t64.5 40h117q43 0 43 -41q0 -10 -6.5 -31.5t-14.5 -49.5t-14.5 -58.5t-6.5 -57.5q0 -30 40 -30q42 0 67 9t32 22v18.5t1 17.5q-4 23 -13 46t-18 44.5t-16 40.5t-7 34q0 17 16.5 26.5t37.5 9.5
h144q39 0 60.5 -43.5t31.5 -108.5q4 -29 11 -50t19.5 -36.5t32 -27.5t49.5 -22q38 -13 77 -27.5t70.5 -39.5t51.5 -64t20 -101zM740 169q0 25 -8 43t-18.5 30t-22 18t-17.5 6q-18 0 -18 -41q0 -16 4 -34t11 -33t15.5 -25t16.5 -10q20 0 28.5 14t8.5 32z" />
    <glyph glyph-name="FLW141" horiz-adv-x="602" 
d="M606 68q0 -33 -12.5 -50.5t-41.5 -17.5h-162q-27 0 -39 9.5t-15 27.5t-1 45.5t2 63.5q0 58 -11 83t-21 25q-19 0 -26 -12t-7 -34q0 -26 4.5 -65t4.5 -97q0 -20 -11.5 -33t-36.5 -13h-137q-15 0 -27.5 2.5t-21.5 10.5t-14.5 24.5t-5.5 43.5q0 90 -7 159.5t-7 140.5
q0 53 5.5 109.5t16 103t26 76.5t35.5 30h148q21 0 30 -12.5t9 -25.5q0 -24 -6 -48t-13.5 -45.5t-13.5 -40.5t-6 -32q0 -23 18 -23q9 0 19.5 16t23.5 42.5t27.5 61.5t32.5 72q9 19 24 27t35 8h119q41 0 41 -36q0 -14 -12.5 -36.5t-26.5 -47.5q-43 -73 -66.5 -112t-23.5 -59
q0 -23 23.5 -42t52 -52t52 -90t23.5 -157zM332 823q0 -19 36 -19q18 0 52.5 23t69 54.5t59.5 64t25 52.5q0 18 -17 21.5t-34 3.5h-41q-27 0 -38 -5t-24 -27l-76 -132q-4 -7 -8 -16t-4 -20z" />
    <glyph glyph-name="FLW141" unicode="&#x40c;" horiz-adv-x="602" 
d="M606 68q0 -33 -12.5 -50.5t-41.5 -17.5h-162q-27 0 -39 9.5t-15 27.5t-1 45.5t2 63.5q0 58 -11 83t-21 25q-19 0 -26 -12t-7 -34q0 -26 4.5 -65t4.5 -97q0 -20 -11.5 -33t-36.5 -13h-137q-15 0 -27.5 2.5t-21.5 10.5t-14.5 24.5t-5.5 43.5q0 90 -7 159.5t-7 140.5
q0 53 5.5 109.5t16 103t26 76.5t35.5 30h148q21 0 30 -12.5t9 -25.5q0 -24 -6 -48t-13.5 -45.5t-13.5 -40.5t-6 -32q0 -23 18 -23q9 0 19.5 16t23.5 42.5t27.5 61.5t32.5 72q9 19 24 27t35 8h119q41 0 41 -36q0 -14 -12.5 -36.5t-26.5 -47.5q-43 -73 -66.5 -112t-23.5 -59
q0 -23 23.5 -42t52 -52t52 -90t23.5 -157zM332 823q0 -19 36 -19q18 0 52.5 23t69 54.5t59.5 64t25 52.5q0 18 -17 21.5t-34 3.5h-41q-27 0 -38 -5t-24 -27l-76 -132q-4 -7 -8 -16t-4 -20z" />
    <glyph glyph-name="FLW142" horiz-adv-x="631" 
d="M558 672q0 -10 -5 -23t-12.5 -25t-17.5 -20t-21 -8h-142q-25 0 -41 -11.5t-25 -28.5t-12.5 -35.5t-3.5 -32.5q0 -19 25 -29t62.5 -20.5t81 -25.5t81 -43t63 -74t25.5 -119q0 -65 -7 -100.5t-19.5 -52.5t-29 -20.5t-35.5 -3.5h-116q-19 0 -32 12t-13 31q0 29 9 71t9 92
q0 39 -21.5 65.5t-38.5 26.5q-24 0 -34.5 -19t-10.5 -44q0 -18 4.5 -43t9.5 -52t9.5 -53t4.5 -46q0 -23 -11.5 -32t-39.5 -9h-117q-53 0 -72.5 43t-19.5 123q0 38 5.5 84t12.5 96.5t12.5 103.5t5.5 104q0 42 -43 42q-30 0 -30 22q0 10 5.5 23t14 23.5t18 18t18.5 7.5h464
q14 0 22 -3.5t8 -14.5z" />
    <glyph glyph-name="FLW142" unicode="&#x40b;" horiz-adv-x="631" 
d="M558 672q0 -10 -5 -23t-12.5 -25t-17.5 -20t-21 -8h-142q-25 0 -41 -11.5t-25 -28.5t-12.5 -35.5t-3.5 -32.5q0 -19 25 -29t62.5 -20.5t81 -25.5t81 -43t63 -74t25.5 -119q0 -65 -7 -100.5t-19.5 -52.5t-29 -20.5t-35.5 -3.5h-116q-19 0 -32 12t-13 31q0 29 9 71t9 92
q0 39 -21.5 65.5t-38.5 26.5q-24 0 -34.5 -19t-10.5 -44q0 -18 4.5 -43t9.5 -52t9.5 -53t4.5 -46q0 -23 -11.5 -32t-39.5 -9h-117q-53 0 -72.5 43t-19.5 123q0 38 5.5 84t12.5 96.5t12.5 103.5t5.5 104q0 42 -43 42q-30 0 -30 22q0 10 5.5 23t14 23.5t18 18t18.5 7.5h464
q14 0 22 -3.5t8 -14.5z" />
    <glyph glyph-name="FLW143" horiz-adv-x="616" 
d="M607 423q0 -75 -3 -137t-14 -110t-33 -83t-61 -57q-9 -5 -27 -12t-36 -16.5t-31.5 -22.5t-13.5 -30q0 -25 9 -53.5t9 -55.5q0 -39 -29.5 -68t-63.5 -29q-15 0 -29 10t-24.5 34t-16.5 63.5t-6 97.5q0 17 -17 31.5t-39 26.5t-43.5 22t-30.5 17q-30 24 -47 59t-26 81.5
t-11 104t-2 126.5q0 36 3.5 87t13 98t27.5 80t47 33h125q36 0 36 -40q0 -29 -5.5 -59t-12.5 -65.5t-12.5 -78.5t-5.5 -97q0 -28 1 -57.5t8.5 -52.5t22.5 -38t44 -15q28 0 43.5 15t22.5 39t8 53t1 57q0 54 -6.5 97t-14.5 78.5t-14.5 66t-6.5 60.5q0 37 42 37h114
q34 0 54.5 -33t32 -80t15 -97.5t3.5 -86.5z" />
    <glyph glyph-name="FLW143" unicode="&#x40f;" horiz-adv-x="616" 
d="M607 423q0 -75 -3 -137t-14 -110t-33 -83t-61 -57q-9 -5 -27 -12t-36 -16.5t-31.5 -22.5t-13.5 -30q0 -25 9 -53.5t9 -55.5q0 -39 -29.5 -68t-63.5 -29q-15 0 -29 10t-24.5 34t-16.5 63.5t-6 97.5q0 17 -17 31.5t-39 26.5t-43.5 22t-30.5 17q-30 24 -47 59t-26 81.5
t-11 104t-2 126.5q0 36 3.5 87t13 98t27.5 80t47 33h125q36 0 36 -40q0 -29 -5.5 -59t-12.5 -65.5t-12.5 -78.5t-5.5 -97q0 -28 1 -57.5t8.5 -52.5t22.5 -38t44 -15q28 0 43.5 15t22.5 39t8 53t1 57q0 54 -6.5 97t-14.5 78.5t-14.5 66t-6.5 60.5q0 37 42 37h114
q34 0 54.5 -33t32 -80t15 -97.5t3.5 -86.5z" />
    <glyph glyph-name="FLW144" horiz-adv-x="585" 
d="M556 682q0 -10 -5 -23t-12.5 -25t-17.5 -20t-21 -8h-155q-18 0 -28.5 -7.5t-16 -19t-7 -24t-2.5 -22.5q3 -18 15 -18q15 0 26.5 5t23 11.5t25 11.5t33.5 5q79 0 112 -62.5t34 -207.5q0 -83 -16.5 -154.5t-48 -124t-76.5 -82t-101 -29.5q-28 0 -36.5 10t-8.5 28
q0 12 12 33t26.5 59.5t26.5 99t12 150.5q0 139 -31 139q-19 0 -29.5 -33.5t-11.5 -105.5q-1 -100 5.5 -155t6.5 -77q0 -19 -17 -27.5t-40 -8.5h-82q-48 0 -62.5 20t-14.5 59q0 64 -5.5 122.5t-5.5 113.5q0 47 2 82.5t5 64.5t5 53.5t2 50.5q0 40 -41 40q-16 0 -23 7t-7 17
t5.5 22.5t14 23t18 17.5t18.5 7q22 0 35.5 5.5t21 13.5t11 16t6.5 13q22 41 48 41h122q22 0 29.5 -10t7.5 -24q0 -7 -3 -16.5t-3 -17.5q0 -9 9.5 -15t35.5 -6h144q14 0 22 -3.5t8 -14.5z" />
    <glyph glyph-name="FLW144" unicode="&#x452;" horiz-adv-x="585" 
d="M556 682q0 -10 -5 -23t-12.5 -25t-17.5 -20t-21 -8h-155q-18 0 -28.5 -7.5t-16 -19t-7 -24t-2.5 -22.5q3 -18 15 -18q15 0 26.5 5t23 11.5t25 11.5t33.5 5q79 0 112 -62.5t34 -207.5q0 -83 -16.5 -154.5t-48 -124t-76.5 -82t-101 -29.5q-28 0 -36.5 10t-8.5 28
q0 12 12 33t26.5 59.5t26.5 99t12 150.5q0 139 -31 139q-19 0 -29.5 -33.5t-11.5 -105.5q-1 -100 5.5 -155t6.5 -77q0 -19 -17 -27.5t-40 -8.5h-82q-48 0 -62.5 20t-14.5 59q0 64 -5.5 122.5t-5.5 113.5q0 47 2 82.5t5 64.5t5 53.5t2 50.5q0 40 -41 40q-16 0 -23 7t-7 17
t5.5 22.5t14 23t18 17.5t18.5 7q22 0 35.5 5.5t21 13.5t11 16t6.5 13q22 41 48 41h122q22 0 29.5 -10t7.5 -24q0 -7 -3 -16.5t-3 -17.5q0 -9 9.5 -15t35.5 -6h144q14 0 22 -3.5t8 -14.5z" />
    <glyph glyph-name="quoteleft" unicode="&#x2018;" horiz-adv-x="296" 
d="M24 579q0 29 14.5 53t37 41.5t49.5 27t52 9.5q22 0 22 -23q0 -11 -7.5 -25t-7.5 -30q0 -17 11.5 -27.5t31.5 -10.5q15 0 24 -10t9 -24q0 -12 -12 -31.5t-30 -37.5t-38 -31t-36 -13q-50 0 -85 38t-35 94z" />
    <glyph glyph-name="quoteright" unicode="&#x2019;" horiz-adv-x="304" 
d="M274 581q0 -29 -14.5 -53t-37 -41.5t-49.5 -27t-52 -9.5q-22 0 -22 23q0 11 7.5 25t7.5 30q0 17 -11.5 27.5t-31.5 10.5q-15 0 -24 10t-9 24q0 12 12 31.5t30 37.5t38 31t36 13q50 0 85 -38t35 -94z" />
    <glyph glyph-name="quotedblleft" unicode="&#x201c;" horiz-adv-x="562" 
d="M296 579q0 29 14.5 53t37 41.5t49.5 27t52 9.5q22 0 22 -23q0 -11 -7.5 -25t-7.5 -30q0 -17 11.5 -27.5t31.5 -10.5q15 0 24 -10t9 -24q0 -12 -12 -31.5t-30 -37.5t-38 -31t-36 -13q-50 0 -85 38t-35 94zM24 579q0 29 14.5 53t37 41.5t49.5 27t52 9.5q22 0 22 -23
q0 -11 -7.5 -25t-7.5 -30q0 -17 11.5 -27.5t31.5 -10.5q15 0 24 -10t9 -24q0 -12 -12 -31.5t-30 -37.5t-38 -31t-36 -13q-50 0 -85 38t-35 94z" />
    <glyph glyph-name="quotedblright" unicode="&#x201d;" horiz-adv-x="562" 
d="M260 581q0 -29 -14.5 -53t-37 -41.5t-49.5 -27t-52 -9.5q-22 0 -22 23q0 11 7.5 25t7.5 30q0 17 -11.5 27.5t-31.5 10.5q-15 0 -24 10t-9 24q0 12 12 31.5t30 37.5t38 31t36 13q50 0 85 -38t35 -94zM532 581q0 -29 -14.5 -53t-37 -41.5t-49.5 -27t-52 -9.5q-22 0 -22 23
q0 11 7.5 25t7.5 30q0 17 -11.5 27.5t-31.5 10.5q-15 0 -24 10t-9 24q0 12 12 31.5t30 37.5t38 31t36 13q50 0 85 -38t35 -94z" />
    <glyph glyph-name="bullet" unicode="&#x2022;" 
d="M400 400q0 -43 -15 -79.5t-42 -63.5t-63.5 -42t-79.5 -15t-79.5 15t-63.5 42t-42 63.5t-15 79.5t15 79.5t42 63.5t63.5 42t79.5 15t79.5 -15t63.5 -42t42 -63.5t15 -79.5z" />
    <glyph glyph-name="endash" unicode="&#x2013;" horiz-adv-x="840" 
d="M647 242h-532q-20 0 -26 8t-6 26q0 12 19.5 29.5t46.5 34t54.5 28.5t43.5 12h509q35 0 35 -33q0 -12 -15 -30t-37.5 -34.5t-47.5 -28.5t-44 -12z" />
    <glyph glyph-name="emdash" unicode="&#x2014;" horiz-adv-x="1058" 
d="M896 242h-821q-28 0 -28 33q0 12 14.5 30t36 34.5t46.5 28.5t47 12h788q23 0 29.5 -7t6.5 -21q0 -10 -11 -29t-28.5 -37t-38.5 -31t-41 -13z" />
    <glyph glyph-name="tilde" unicode="&#x2dc;" horiz-adv-x="410" 
d="M379 704q0 -24 -9 -47t-25 -41t-39.5 -29t-51.5 -11q-20 0 -41 8t-42 17t-39.5 17t-32.5 8q-11 0 -17 -6.5t-10.5 -14t-10 -14t-14.5 -6.5q-7 0 -12 5.5t-5 12.5q0 21 7 42.5t20.5 39.5t34 29t46.5 11q14 0 32 -8t39 -17t43 -17t43 -8q13 0 23.5 7.5t18.5 17t15 17
t13 7.5q14 0 14 -20z" />
    <glyph glyph-name="FLW153" unicode="&#x2122;" horiz-adv-x="1548" 
d="M771 627q0 -23 -2 -51t-9 -52.5t-21 -41t-38 -16.5h-114q-26 0 -36.5 8t-10.5 28q0 14 3.5 28t7.5 40.5t7.5 70.5t3.5 118q0 50 -13 72t-30 22q-14 0 -17.5 -11t-2.5 -34.5t4.5 -59t3.5 -84.5q0 -33 -3 -68.5t-11 -64t-21.5 -47t-35.5 -18.5h-115q-23 0 -31.5 10t-8.5 22
q0 15 3 27t6.5 29t6.5 43t3 69q0 59 -1.5 95t-5.5 56t-11 27t-18 7q-13 0 -20.5 -31.5t-7.5 -110.5q0 -57 2.5 -102t0.5 -76.5t-12.5 -48t-37.5 -16.5h-99q-21 0 -33.5 11t-19 46.5t-8.5 101t-2 173.5q0 65 6 108t17.5 68t27.5 35t36 10h62q31 0 44 -8.5t18.5 -19t8.5 -19
t14 -8.5t20.5 4.5t20.5 10.5t25 11t33 5q22 0 36.5 -4.5t25.5 -10.5t21.5 -10.5t24.5 -4.5q12 0 20.5 6.5t21 13.5t33 13.5t55.5 6.5q46 0 79 -19.5t54 -64.5t30.5 -117t9.5 -177zM1531 527q0 74 -20.5 159.5t-52.5 158t-71 120.5t-75 48q-14 0 -27.5 -10.5t-26 -26.5
t-23 -36t-18.5 -38q-5 -13 -9.5 -21t-15.5 -8q-13 0 -16.5 7l-10.5 21q-9 17 -21.5 36.5t-27.5 36t-30.5 28t-28.5 11.5q-40 0 -80 -48t-72 -120.5t-52 -157.5t-20 -159q0 -40 10.5 -51t37.5 -11h118q20 0 29.5 13.5t13.5 36.5t3.5 53t-0.5 63q0 35 9.5 60.5t31.5 25.5
q9 0 15 -13t6 -41q0 -24 -6.5 -65t-6.5 -86q0 -28 15 -48t50 -20q57 0 89.5 37t32.5 111q0 25 -4 47t-4 45q0 33 30 33q13 0 19 -19t8.5 -49t2.5 -67v-75q0 -42 44 -42h104q26 0 38 17t12 44z" />
    <glyph glyph-name="FLW154" unicode="&#x161;" horiz-adv-x="735" 
d="M383 -16q-36 0 -53 14.5t-22.5 40t-4.5 60t1 73.5q0 50 -12 87t-31 37t-30 -37.5t-12 -88.5q0 -46 5 -90.5t6 -60.5q0 -13 -12.5 -16t-17.5 -3h-139q-24 0 -35 6.5t-11 26.5q0 81 9 143t22 107t27 74.5t23 46.5q15 27 34.5 53.5t41 47.5t44 34t43.5 13q20 0 42.5 -13
t44 -34t41.5 -48t35 -55q22 -40 54.5 -49.5t75.5 -16.5q49 -8 82 -27.5t52.5 -45.5t27.5 -56t8 -60q0 -69 -38 -108t-106 -39q-37 0 -59 -2.5t-41 -5.5t-40 -5.5t-55 -2.5zM497 186q0 -24 4 -40t21 -16q10 0 22 14t12 53q0 21 -11.5 37t-29.5 16q-9 0 -13.5 -13.5
t-4.5 -50.5z" />
    <glyph glyph-name="FLW155" unicode="&#x203a;" horiz-adv-x="441" 
d="M87 444q-19 0 -33.5 14t-14.5 39q0 22 7.5 47t22 46t35.5 35t48 14q49 0 91 -38.5t73 -89t48.5 -100.5t17.5 -73q0 -39 -29 -85.5t-68.5 -86.5t-79.5 -67t-61 -27q-23 0 -30.5 8t-7.5 27q0 18 24 39t53.5 48.5t53.5 62.5t24 82q0 12 -11 32t-26.5 39.5t-31.5 33.5t-26 14
q-19 0 -28 -2.5t-16 -5t-14 -4.5t-21 -2z" />
    <glyph glyph-name="FLW156" unicode="&#x153;" horiz-adv-x="803" 
d="M456 0q-31 0 -50 17.5t-29.5 44t-14 58t-3.5 59.5q0 25 -13.5 42t-39.5 17q-28 0 -43.5 -17.5t-15.5 -44.5q0 -34 7 -69t7 -70q0 -24 -22.5 -38.5t-59.5 -14.5q-79 0 -116.5 77t-38.5 223q0 73 6 123t15.5 80.5t22.5 44t27 13.5h132q19 0 28.5 -11.5t9.5 -24.5
q0 -21 -6 -45.5t-6 -53.5q0 -37 6.5 -54t29.5 -17q31 0 45.5 23.5t14.5 58.5q0 34 -4 55t-4 41q0 48 79 48q41 0 75 -27t54 -94q5 -15 8.5 -30t11 -27.5t20.5 -22t35 -13.5q49 -8 82 -27.5t52.5 -45.5t27.5 -56t8 -60q0 -69 -38 -108t-106 -39q-37 0 -59 -2t-40.5 -5
t-39.5 -5.5t-55 -2.5zM569 201q0 -24 4 -40t21 -16q10 0 22 14t12 53q0 21 -11.5 37t-29.5 16q-9 0 -13.5 -13.5t-4.5 -50.5z" />
    <glyph glyph-name="FLW157" horiz-adv-x="515" 
d="M489 149q15 -47 22 -73.5t7 -40.5q0 -13 -9 -24t-31 -11h-132q-26 0 -35 10.5t-13 33.5l-15 103q-9 59 -25 59q-11 0 -15.5 -14t-4.5 -34q0 -19 3 -39t7 -38.5t7 -33t3 -21.5q0 -16 -12 -21t-45 -5h-122q-23 0 -37 50t-14 141q0 47 3 82t3 75q0 28 -3 54.5t-3 34.5
q0 43 11 67.5t39 24.5h103q35 0 45.5 -6.5t10.5 -25.5q0 -14 -6.5 -37.5t-6.5 -42.5q0 -22 12 -22q10 0 20.5 14.5t10.5 31.5q0 51 9 69.5t40 18.5h99q34 0 47.5 -5.5t13.5 -24.5q0 -9 -3.5 -26.5t-10 -38.5t-16.5 -42t-23 -37q-17 -20 -23 -33.5t-6 -19.5q0 -14 11.5 -27
t27.5 -29.5t31.5 -39.5t24.5 -57zM253 624q0 -19 36 -19q18 0 52.5 23t69 54.5t59.5 64t25 52.5q0 18 -17 21.5t-34 3.5h-41q-27 0 -38 -5t-24 -27l-76 -132q-4 -7 -8 -16t-4 -20z" />
    <glyph glyph-name="FLW157" unicode="&#x45c;" horiz-adv-x="515" 
d="M489 149q15 -47 22 -73.5t7 -40.5q0 -13 -9 -24t-31 -11h-132q-26 0 -35 10.5t-13 33.5l-15 103q-9 59 -25 59q-11 0 -15.5 -14t-4.5 -34q0 -19 3 -39t7 -38.5t7 -33t3 -21.5q0 -16 -12 -21t-45 -5h-122q-23 0 -37 50t-14 141q0 47 3 82t3 75q0 28 -3 54.5t-3 34.5
q0 43 11 67.5t39 24.5h103q35 0 45.5 -6.5t10.5 -25.5q0 -14 -6.5 -37.5t-6.5 -42.5q0 -22 12 -22q10 0 20.5 14.5t10.5 31.5q0 51 9 69.5t40 18.5h99q34 0 47.5 -5.5t13.5 -24.5q0 -9 -3.5 -26.5t-10 -38.5t-16.5 -42t-23 -37q-17 -20 -23 -33.5t-6 -19.5q0 -14 11.5 -27
t27.5 -29.5t31.5 -39.5t24.5 -57zM253 624q0 -19 36 -19q18 0 52.5 23t69 54.5t59.5 64t25 52.5q0 18 -17 21.5t-34 3.5h-41q-27 0 -38 -5t-24 -27l-76 -132q-4 -7 -8 -16t-4 -20z" />
    <glyph glyph-name="FLW158" horiz-adv-x="585" 
d="M556 682q0 -10 -5 -23t-12.5 -25t-17.5 -20t-21 -8h-155q-18 0 -28.5 -7.5t-16 -19t-7 -24t-2.5 -22.5q3 -18 15 -18q15 0 26.5 5t23 11.5t25 11.5t33.5 5q79 0 112 -62.5t34 -207.5q0 -83 -6.5 -137t-19.5 -85.5t-31.5 -43.5t-42.5 -12h-89q-44 0 -44 35q0 25 11.5 79
t11.5 154q0 139 -31 139q-19 0 -29.5 -33.5t-11.5 -105.5q-1 -100 5.5 -155t6.5 -77q0 -19 -17 -27.5t-40 -8.5h-82q-48 0 -62.5 20t-14.5 59q0 64 -5.5 122.5t-5.5 113.5q0 47 2 82.5t5 64.5t5 53.5t2 50.5q0 40 -41 40q-16 0 -23 7t-7 17t5.5 22.5t14 23t18 17.5t18.5 7
q22 0 35.5 5.5t21 13.5t11 16t6.5 13q22 41 48 41h122q22 0 29.5 -10t7.5 -24q0 -7 -3 -16.5t-3 -17.5q0 -9 9.5 -15t35.5 -6h144q14 0 22 -3.5t8 -14.5z" />
    <glyph glyph-name="FLW158" unicode="&#x45b;" horiz-adv-x="585" 
d="M556 682q0 -10 -5 -23t-12.5 -25t-17.5 -20t-21 -8h-155q-18 0 -28.5 -7.5t-16 -19t-7 -24t-2.5 -22.5q3 -18 15 -18q15 0 26.5 5t23 11.5t25 11.5t33.5 5q79 0 112 -62.5t34 -207.5q0 -83 -6.5 -137t-19.5 -85.5t-31.5 -43.5t-42.5 -12h-89q-44 0 -44 35q0 25 11.5 79
t11.5 154q0 139 -31 139q-19 0 -29.5 -33.5t-11.5 -105.5q-1 -100 5.5 -155t6.5 -77q0 -19 -17 -27.5t-40 -8.5h-82q-48 0 -62.5 20t-14.5 59q0 64 -5.5 122.5t-5.5 113.5q0 47 2 82.5t5 64.5t5 53.5t2 50.5q0 40 -41 40q-16 0 -23 7t-7 17t5.5 22.5t14 23t18 17.5t18.5 7
q22 0 35.5 5.5t21 13.5t11 16t6.5 13q22 41 48 41h122q22 0 29.5 -10t7.5 -24q0 -7 -3 -16.5t-3 -17.5q0 -9 9.5 -15t35.5 -6h144q14 0 22 -3.5t8 -14.5z" />
    <glyph glyph-name="FLW159" unicode="&#x178;" horiz-adv-x="545" 
d="M25 288q0 -68 12.5 -121t32.5 -90.5t45 -57t50 -19.5q31 0 45 -22t14 -61q0 -30 -1.5 -63t2 -60.5t15.5 -45.5t40 -18q8 0 22 5t27.5 16t24 28.5t10.5 42.5q0 16 -5 35t-11 37.5t-11 36.5t-5 32q0 37 40 37t67.5 23.5t44.5 59t24 77t7 77.5q0 59 -4 113.5t-15 97.5
t-29.5 68.5t-47.5 25.5h-100q-39 0 -39 -31q0 -41 13 -103t13 -136q0 -56 -8 -81t-21 -25t-26 33t-13 108q0 41 1.5 71t3 53.5t3 42.5t1.5 38q0 20 -15.5 25t-39.5 5h-98q-38 0 -53.5 -57t-15.5 -197z" />
    <glyph glyph-name="FLW160" unicode="&#xa0;" horiz-adv-x="280" 
 />
    <glyph glyph-name="FLW161" unicode="&#xa1;" horiz-adv-x="611" 
d="M613 636q0 -126 -33.5 -243.5t-101 -208t-169 -145t-237.5 -54.5q-24 0 -32.5 17t-8.5 55v134q0 19 11 29t29 10q33 0 72.5 -12.5t72.5 -12.5q23 0 38 10t15 38q0 17 -19 27.5t-48 23.5t-62.5 33.5t-62.5 57.5t-48 95.5t-19 147.5q0 35 11 47t39 12h165q20 0 32 -11.5
t12 -42.5q0 -33 4.5 -67t12.5 -61t19 -44.5t25 -17.5q16 0 25 20t13.5 49t5 62.5t0.5 60.5q0 29 9 40.5t30 11.5h155q22 0 33.5 -18t11.5 -43zM373 770q-46 0 -88 12.5t-74.5 38t-51.5 64.5t-19 91q0 61 26 104.5t76 43.5q31 0 57 -21t26 -51q0 -11 -9.5 -22.5t-20.5 -24
t-20 -26.5t-9 -29q0 -16 10.5 -26t28.5 -10q45 0 67.5 20.5t36 45t23.5 45t29 20.5q22 0 40 -17t31.5 -39.5t21 -44t7.5 -30.5q0 -21 -15.5 -46t-41.5 -47t-60 -36.5t-71 -14.5z" />
    <glyph glyph-name="FLW161" unicode="&#x40e;" horiz-adv-x="611" 
d="M613 636q0 -126 -33.5 -243.5t-101 -208t-169 -145t-237.5 -54.5q-24 0 -32.5 17t-8.5 55v134q0 19 11 29t29 10q33 0 72.5 -12.5t72.5 -12.5q23 0 38 10t15 38q0 17 -19 27.5t-48 23.5t-62.5 33.5t-62.5 57.5t-48 95.5t-19 147.5q0 35 11 47t39 12h165q20 0 32 -11.5
t12 -42.5q0 -33 4.5 -67t12.5 -61t19 -44.5t25 -17.5q16 0 25 20t13.5 49t5 62.5t0.5 60.5q0 29 9 40.5t30 11.5h155q22 0 33.5 -18t11.5 -43zM373 770q-46 0 -88 12.5t-74.5 38t-51.5 64.5t-19 91q0 61 26 104.5t76 43.5q31 0 57 -21t26 -51q0 -11 -9.5 -22.5t-20.5 -24
t-20 -26.5t-9 -29q0 -16 10.5 -26t28.5 -10q45 0 67.5 20.5t36 45t23.5 45t29 20.5q22 0 40 -17t31.5 -39.5t21 -44t7.5 -30.5q0 -21 -15.5 -46t-41.5 -47t-60 -36.5t-71 -14.5z" />
    <glyph glyph-name="cent" unicode="&#xa2;" horiz-adv-x="497" 
d="M482 453q0 -77 -9.5 -165.5t-31 -176t-56.5 -168t-86 -142t-119 -98.5t-156 -37q-16 0 -28 10t-10 34l10 149q3 38 35 38q63 0 103.5 12t64 31t32.5 42.5t9 46.5t-17 34.5t-42.5 25t-55 35t-55 64t-42.5 113t-17 181.5q0 33 9.5 42t32.5 9h142q20 0 27.5 -9t7.5 -21
q0 -21 -2 -48t-4.5 -56.5t-4.5 -59t-2 -56.5q1 -41 9.5 -68.5t33.5 -27.5q20 0 29 25.5t8 69.5q0 27 -1.5 56.5t-2.5 58.5t-2 55t-1 46q0 18 14 26.5t50 8.5h81q26 0 36.5 -20.5t10.5 -59.5zM303 608q-46 0 -88 12.5t-74.5 38t-51.5 64.5t-19 91q0 61 26 104.5t76 43.5
q31 0 57 -21t26 -51q0 -11 -9.5 -22.5t-20.5 -24t-20 -26.5t-9 -29q0 -16 10.5 -26t28.5 -10q45 0 67.5 20.5t36 45t23.5 45t29 20.5q22 0 40 -17t31.5 -39.5t21 -44t7.5 -30.5q0 -21 -15.5 -46t-41.5 -47t-60 -36.5t-71 -14.5z" />
    <glyph glyph-name="cent" unicode="&#x45e;" horiz-adv-x="497" 
d="M482 453q0 -77 -9.5 -165.5t-31 -176t-56.5 -168t-86 -142t-119 -98.5t-156 -37q-16 0 -28 10t-10 34l10 149q3 38 35 38q63 0 103.5 12t64 31t32.5 42.5t9 46.5t-17 34.5t-42.5 25t-55 35t-55 64t-42.5 113t-17 181.5q0 33 9.5 42t32.5 9h142q20 0 27.5 -9t7.5 -21
q0 -21 -2 -48t-4.5 -56.5t-4.5 -59t-2 -56.5q1 -41 9.5 -68.5t33.5 -27.5q20 0 29 25.5t8 69.5q0 27 -1.5 56.5t-2.5 58.5t-2 55t-1 46q0 18 14 26.5t50 8.5h81q26 0 36.5 -20.5t10.5 -59.5zM303 608q-46 0 -88 12.5t-74.5 38t-51.5 64.5t-19 91q0 61 26 104.5t76 43.5
q31 0 57 -21t26 -51q0 -11 -9.5 -22.5t-20.5 -24t-20 -26.5t-9 -29q0 -16 10.5 -26t28.5 -10q45 0 67.5 20.5t36 45t23.5 45t29 20.5q22 0 40 -17t31.5 -39.5t21 -44t7.5 -30.5q0 -21 -15.5 -46t-41.5 -47t-60 -36.5t-71 -14.5z" />
    <glyph glyph-name="sterling" unicode="&#xa3;" horiz-adv-x="404" 
d="M381 382q0 -105 -17.5 -181.5t-49 -125.5t-75 -72.5t-94.5 -23.5q-88 0 -131 28.5t-43 62.5q0 14 6 27l33 72q10 24 30 24q10 0 17.5 -11t14 -23.5t15.5 -23.5t22 -11q16 0 24 22t11.5 54t4 69t0.5 66q0 69 -9.5 123t-21 94t-21 67.5t-9.5 44.5q0 16 9.5 27.5t37.5 11.5
h166q23 0 38.5 -31.5t24.5 -79.5t13 -104.5t4 -105.5z" />
    <glyph glyph-name="sterling" unicode="&#x408;" horiz-adv-x="404" 
d="M381 382q0 -105 -17.5 -181.5t-49 -125.5t-75 -72.5t-94.5 -23.5q-88 0 -131 28.5t-43 62.5q0 14 6 27l33 72q10 24 30 24q10 0 17.5 -11t14 -23.5t15.5 -23.5t22 -11q16 0 24 22t11.5 54t4 69t0.5 66q0 69 -9.5 123t-21 94t-21 67.5t-9.5 44.5q0 16 9.5 27.5t37.5 11.5
h166q23 0 38.5 -31.5t24.5 -79.5t13 -104.5t4 -105.5z" />
    <glyph glyph-name="currency" unicode="&#xa4;" horiz-adv-x="611" 
d="M536 256q-7 -18 -11 -38t7 -32l34 -34l-61 -61l-35 35q-16 15 -32 7.5t-42 -17.5q-36 -14 -91 -14q-65 0 -108 21q-18 9 -31.5 12.5t-25.5 -9.5l-36 -36l-57 64l31 32q11 11 11.5 23.5t-12.5 38.5q-21 44 -21 102q0 53 19 97q9 21 13 34t-10 30l-34 37l61 61l35 -35
q12 -13 29.5 -6.5t38.5 14.5q39 16 97 16q56 0 98 -17q22 -9 40 -12t30 9l32 31l61 -61l-28 -28q-21 -24 1 -81q15 -39 15 -89q0 -26 -5 -50t-13 -44zM438 351q0 57 -38 97t-95 40t-95 -40t-38 -97q0 -29 10 -54.5t28 -44t42.5 -29.5t52.5 -11q57 0 95 40t38 99z" />
    <glyph glyph-name="yen" unicode="&#xa5;" horiz-adv-x="534" 
d="M491 497l37 293q3 20 -3 33.5t-32 13.5q-25 0 -45.5 -25t-42 -55.5t-48 -55.5t-62.5 -25q-30 0 -77 6.5t-96 6.5q-15 0 -30.5 -8.5t-27.5 -23t-19.5 -33.5t-7.5 -41q0 -54 -10.5 -115.5t-10.5 -144.5q0 -57 4 -114.5t16 -104t33 -75.5t54 -29h131q26 0 36.5 13t10.5 32
q0 17 -10.5 62t-23.5 103.5t-23.5 124.5t-10.5 125q0 42 20.5 65.5t47.5 23.5q21 0 42.5 -12.5t42 -27.5t40 -27.5t35.5 -12.5q11 0 19 8t11 20z" />
    <glyph glyph-name="yen" unicode="&#x490;" horiz-adv-x="534" 
d="M491 497l37 293q3 20 -3 33.5t-32 13.5q-25 0 -45.5 -25t-42 -55.5t-48 -55.5t-62.5 -25q-30 0 -77 6.5t-96 6.5q-15 0 -30.5 -8.5t-27.5 -23t-19.5 -33.5t-7.5 -41q0 -54 -10.5 -115.5t-10.5 -144.5q0 -57 4 -114.5t16 -104t33 -75.5t54 -29h131q26 0 36.5 13t10.5 32
q0 17 -10.5 62t-23.5 103.5t-23.5 124.5t-10.5 125q0 42 20.5 65.5t47.5 23.5q21 0 42.5 -12.5t42 -27.5t40 -27.5t35.5 -12.5q11 0 19 8t11 20z" />
    <glyph glyph-name="FLW166" unicode="&#xa6;" horiz-adv-x="279" 
d="M198 -84q0 -14 -20 -19.5t-43 -5.5q-22 0 -39.5 5.5t-17.5 19.5v346q0 15 18.5 25t40.5 10q23 1 42 -8t19 -26v-347zM198 367q0 -17 -20 -23t-41 -6q-24 0 -41.5 8.5t-17.5 21.5v334q0 13 20 21.5t42 8.5t40 -7t18 -23v-335z" />
    <glyph glyph-name="section" unicode="&#xa7;" horiz-adv-x="575" 
d="M542 254q0 -34 -15 -54t-33 -32.5t-33 -21t-15 -21.5q0 -15 7.5 -26t16 -25t16 -33t7.5 -49q0 -36 -18 -64t-47.5 -48t-67.5 -30t-77 -10t-77.5 9t-69 26.5t-49.5 44.5t-19 63q0 12 12 23.5t30.5 20.5t40 15t40.5 6q18 0 27 -15.5t9 -35.5q0 -18 16.5 -27t36.5 -9
q15 0 22.5 10t7.5 23q0 35 -71 79q-36 23 -72.5 48t-66.5 54t-48.5 62.5t-18.5 71.5q0 35 15.5 54.5t33.5 31t33.5 19t15.5 17.5q0 11 -7.5 21t-17 22.5t-17 29t-7.5 38.5q0 40 17.5 69.5t47 49t67.5 29t78 9.5q27 0 62 -7t65.5 -21t52 -35t21.5 -50q0 -48 -23.5 -70.5
t-55.5 -22.5q-14 0 -23 14.5t-20.5 32t-27 32t-42.5 14.5q-19 0 -31.5 -8t-12.5 -26q0 -36 73 -79q61 -36 101.5 -64t65 -52.5t35 -49t10.5 -53.5zM397 230q0 20 -24 45t-56 47t-64 37t-48 15q-18 0 -28.5 -11.5t-10.5 -26.5q0 -18 23 -43.5t53.5 -49t61.5 -39.5t46 -16
q18 0 32.5 11.5t14.5 30.5z" />
    <glyph glyph-name="dieresis" unicode="&#xa8;" horiz-adv-x="551" 
d="M379 -14q-45 0 -80.5 2.5t-68 5t-63.5 5t-67 2.5q-23 0 -38.5 27.5t-24.5 68.5t-13 88t-4 86q0 91 10 169.5t31.5 136t57 90t86.5 32.5h276q30 0 42.5 -4t11.5 -22q0 -2 -0.5 -6t-1.5 -11l-41 -113q-6 -17 -16.5 -23t-25.5 -6q-6 0 -18.5 8.5t-29 19t-35.5 19.5t-38 9
q-16 0 -36 -6t-28 -25l-10 -24q-7 -14 -7 -31t8.5 -19.5t18.5 -2.5q24 0 52.5 8.5t38.5 8.5q12 0 27.5 -1t30 -4t24.5 -9t10 -17q0 -9 -6 -28l-34 -96q-10 -31 -26 -31q-11 0 -25.5 11t-36.5 11q-39 0 -61.5 -24t-22.5 -61q0 -48 24 -75t64 -27q27 0 45.5 10.5t33 23.5
t27.5 23.5t29 10.5q13 0 22 -20l46 -132q3 -9 -8.5 -19t-33.5 -19t-52 -14.5t-64 -5.5zM393 734q-37 0 -63 26t-26 64t26 64.5t63 26.5t63 -26.5t26 -64.5t-26 -64t-63 -26zM164 733q-37 0 -63 26.5t-26 63.5t26 64t63 27t63 -27t26 -64t-26 -63.5t-63 -26.5z" />
    <glyph glyph-name="dieresis" unicode="&#x401;" horiz-adv-x="551" 
d="M379 -14q-45 0 -80.5 2.5t-68 5t-63.5 5t-67 2.5q-23 0 -38.5 27.5t-24.5 68.5t-13 88t-4 86q0 91 10 169.5t31.5 136t57 90t86.5 32.5h276q30 0 42.5 -4t11.5 -22q0 -2 -0.5 -6t-1.5 -11l-41 -113q-6 -17 -16.5 -23t-25.5 -6q-6 0 -18.5 8.5t-29 19t-35.5 19.5t-38 9
q-16 0 -36 -6t-28 -25l-10 -24q-7 -14 -7 -31t8.5 -19.5t18.5 -2.5q24 0 52.5 8.5t38.5 8.5q12 0 27.5 -1t30 -4t24.5 -9t10 -17q0 -9 -6 -28l-34 -96q-10 -31 -26 -31q-11 0 -25.5 11t-36.5 11q-39 0 -61.5 -24t-22.5 -61q0 -48 24 -75t64 -27q27 0 45.5 10.5t33 23.5
t27.5 23.5t29 10.5q13 0 22 -20l46 -132q3 -9 -8.5 -19t-33.5 -19t-52 -14.5t-64 -5.5zM393 734q-37 0 -63 26t-26 64t26 64.5t63 26.5t63 -26.5t26 -64.5t-26 -64t-63 -26zM164 733q-37 0 -63 26.5t-26 63.5t26 64t63 27t63 -27t26 -64t-26 -63.5t-63 -26.5z" />
    <glyph glyph-name="copyright" unicode="&#xa9;" horiz-adv-x="799" 
d="M556 263q0 -24 -11 -47.5t-30 -41.5t-45.5 -29t-57.5 -11q-91 0 -141.5 45.5t-50.5 136.5q0 128 60 194t163 66q45 0 78 -21t33 -61q0 -30 -22.5 -50.5t-40.5 -20.5q-11 0 -17.5 6t-12.5 13.5t-12 13.5t-16 6q-28 0 -38.5 -31t-10.5 -69q0 -52 18.5 -75.5t43.5 -23.5
q21 0 34.5 9.5t22.5 20.5t15 20.5t14 9.5q24 0 24 -60zM772 353q0 -107 -17 -178t-59 -113t-113 -59t-178 -17t-177.5 17t-112.5 59t-59 113t-17 178t17 177.5t59 112.5t112.5 59t177.5 17t178 -17t113 -59t59 -112.5t17 -177.5zM691 353q0 148 -66.5 216.5t-219.5 68.5
q-146 0 -215.5 -74t-69.5 -211q0 -142 68.5 -214t216.5 -72q152 0 219 65.5t67 220.5z" />
    <glyph glyph-name="FLW170" unicode="&#xaa;" horiz-adv-x="593" 
d="M581 197q0 -52 -21.5 -92.5t-56 -69t-78.5 -43.5t-89 -15q-70 0 -128 27t-100 75.5t-65 115t-23 145.5q0 85 25 154.5t70 119t108.5 76.5t140.5 27q37 0 70.5 -11.5t59.5 -29.5t41.5 -39.5t15.5 -41.5q0 -50 -36 -80t-88 -30q-15 0 -20 11.5t-10 26t-12.5 26t-26.5 11.5
q-16 0 -30.5 -9.5t-26 -23.5t-18 -31t-6.5 -32t6 -25.5t22 -10.5q20 0 46.5 6.5t60.5 6.5q28 0 56 -9.5t28 -31.5q0 -18 -3 -44.5t-9 -51.5t-14.5 -42.5t-19.5 -17.5q-13 0 -26 9t-29.5 20.5t-38 20.5t-50.5 9q-16 0 -22.5 -9.5t-6.5 -22.5q0 -18 9.5 -37t27.5 -34.5t43 -26
t57 -10.5q30 0 50 13.5t35 29.5t27.5 29.5t27.5 13.5q10 0 18.5 -11.5t8.5 -40.5z" />
    <glyph glyph-name="FLW170" unicode="&#x404;" horiz-adv-x="593" 
d="M581 197q0 -52 -21.5 -92.5t-56 -69t-78.5 -43.5t-89 -15q-70 0 -128 27t-100 75.5t-65 115t-23 145.5q0 85 25 154.5t70 119t108.5 76.5t140.5 27q37 0 70.5 -11.5t59.5 -29.5t41.5 -39.5t15.5 -41.5q0 -50 -36 -80t-88 -30q-15 0 -20 11.5t-10 26t-12.5 26t-26.5 11.5
q-16 0 -30.5 -9.5t-26 -23.5t-18 -31t-6.5 -32t6 -25.5t22 -10.5q20 0 46.5 6.5t60.5 6.5q28 0 56 -9.5t28 -31.5q0 -18 -3 -44.5t-9 -51.5t-14.5 -42.5t-19.5 -17.5q-13 0 -26 9t-29.5 20.5t-38 20.5t-50.5 9q-16 0 -22.5 -9.5t-6.5 -22.5q0 -18 9.5 -37t27.5 -34.5t43 -26
t57 -10.5q30 0 50 13.5t35 29.5t27.5 29.5t27.5 13.5q10 0 18.5 -11.5t8.5 -40.5z" />
    <glyph glyph-name="FLW171" unicode="&#xab;" horiz-adv-x="625" 
d="M487 73q-38 0 -72.5 24.5t-63.5 61.5q-15 -35 -38 -60.5t-43 -25.5q-49 0 -91 38.5t-73 89t-48.5 100.5t-17.5 73q0 39 29 85.5t68.5 86.5t79.5 67t61 27q23 0 30.5 -8t7.5 -27q0 -18 -24 -39t-53.5 -48.5t-53.5 -62.5t-24 -82q0 -12 11 -32t26.5 -39.5t31.5 -33.5
t26 -14q21 0 36 5q-16 36 -25.5 67.5t-9.5 47.5q0 39 29 85.5t68.5 86.5t79.5 67t61 27q23 0 30.5 -8t7.5 -27q0 -18 -24 -39t-53.5 -48.5t-53.5 -62.5t-24 -82q0 -12 11 -32t26.5 -39.5t31.5 -33.5t26 -14q18 0 29 3t20 7t17 7t19 3q18 0 22.5 -16.5t4.5 -30.5
q0 -24 -9.5 -51t-24.5 -50t-32 -38t-32 -15z" />
    <glyph glyph-name="FLW172" unicode="&#xac;" horiz-adv-x="574" 
d="M495 652v-218q0 -38 -17.5 -54t-28.5 -16q-35 0 -62 15t-27 51q0 30 5 52t5 39q0 18 -13.5 29t-46.5 18t-88.5 9.5t-139.5 2.5v118h362q21 0 36 -13t15 -33z" />
    <glyph glyph-name="FLW173" unicode="&#xad;" horiz-adv-x="500" 
d="M405 680q0 -11 -4.5 -28t-12 -33t-18 -27.5t-21.5 -11.5h-224q-14 0 -22 3.5t-8 14.5t4.5 28t12 33t18 27.5t21.5 11.5h224q14 0 22 -3.5t8 -14.5z" />
    <glyph glyph-name="registered" unicode="&#xae;" horiz-adv-x="789" 
d="M761 354q0 -107 -17 -178t-59 -113t-113 -59t-178 -17t-177.5 17t-112.5 59t-59 113t-17 178t17 177.5t59 112.5t112.5 59t177.5 17t178 -17t113 -59t59 -112.5t17 -177.5zM680 354q0 148 -66.5 216.5t-219.5 68.5q-146 0 -215.5 -74.5t-69.5 -210.5q0 -142 68.5 -214
t216.5 -72q152 0 219 65.5t67 220.5zM594 177q0 -18 -9 -25.5t-22 -7.5h-70q-22 0 -22 29q0 21 -7.5 45.5t-18.5 45.5t-23.5 34.5t-22.5 13.5q-15 0 -32.5 -13t-17.5 -32t4 -34t9.5 -27t9.5 -22.5t4 -21.5q0 -18 -21 -18h-89q-11 0 -19.5 16t-14.5 43t-9.5 62.5t-3.5 73.5
q0 42 5 83t16.5 73.5t28.5 53t41 20.5h123q61 0 102 -22t41 -74q0 -28 -13 -46.5t-29 -31t-29 -21.5t-13 -18q0 -16 16 -31.5t35 -35t35 -46.5t16 -66zM471 463q0 22 -18.5 33t-44.5 11q-40 0 -56 -20.5t-16 -84.5q0 -31 18 -31q13 0 32.5 8t38.5 21t32.5 29.5t13.5 33.5z
" />
    <glyph glyph-name="macron" unicode="&#x2c9;" horiz-adv-x="512" 
d="M355 46q1 -28 -12 -37t-50 -9h-139q-47 0 -62.5 46t-15.5 165q0 49 4.5 100.5t10.5 104.5t10.5 105.5t4.5 102.5q0 34 20 53.5t54 19.5h135q29 0 39.5 -8.5t10.5 -30.5q0 -18 -7.5 -53t-17 -79.5t-17 -95t-7.5 -100.5q0 -57 6 -102t13.5 -80t13.5 -60t6 -42zM393 774
q-46 0 -78.5 32.5t-32.5 78.5t32.5 79t78.5 33t79 -33t33 -79t-33 -78.5t-79 -32.5zM121 774q-46 0 -78.5 32.5t-32.5 78.5t32.5 79t78.5 33t79 -33t33 -79t-33 -78.5t-79 -32.5z" />
    <glyph glyph-name="FLW176" unicode="&#xb0;" 
d="M335 708q0 -52 -39 -89.5t-96 -38.5q-57 0 -96 39t-39 93q0 52 38 87t95 35q59 0 98 -35t39 -91zM251 710q0 21 -15 36t-37 15q-21 0 -35.5 -15.5t-14.5 -36.5q0 -23 13.5 -39t37.5 -16q23 0 37 16t14 40z" />
    <glyph glyph-name="FLW177" unicode="&#xb1;" horiz-adv-x="664" 
d="M260 677q0 18 15 29t58 11q41 0 54 -11t13 -29v-94q0 -54 15 -68t58 -14h104q17 0 27 -14t10 -54q0 -38 -10 -55t-27 -17h-84q-21 0 -38.5 -1t-29.5 -8.5t-19 -23.5t-7 -46v-95q1 -18 -13 -29t-57 -11q-41 0 -54.5 11.5t-13.5 28.5v99q0 28 -4 43.5t-12.5 22.5t-22.5 8
t-34 1h-101q-16 0 -25.5 14.5t-9.5 52.5q0 42 9.5 57.5t25.5 15.5h102q42 0 56.5 14t14.5 68v94zM611 105q0 -13 -5 -31.5t-12.5 -34.5t-17.5 -27.5t-21 -11.5h-465q-24 0 -28 20.5t4 44.5t22.5 44.5t27.5 20.5h465q14 0 22 -4.5t8 -20.5z" />
    <glyph glyph-name="FLW178" unicode="&#xb2;" horiz-adv-x="322" 
d="M301 46q1 -28 -12 -37t-50 -9h-139q-47 0 -62.5 46t-15.5 165q0 49 4.5 100.5t10.5 104.5t10.5 105.5t4.5 102.5q0 34 20 53.5t54 19.5h135q29 0 39.5 -8.5t10.5 -30.5q0 -18 -7.5 -53t-17 -79.5t-17 -95t-7.5 -100.5q0 -57 6 -102t13.5 -80t13.5 -60t6 -42z" />
    <glyph glyph-name="FLW178" unicode="&#x406;" horiz-adv-x="322" 
d="M301 46q1 -28 -12 -37t-50 -9h-139q-47 0 -62.5 46t-15.5 165q0 49 4.5 100.5t10.5 104.5t10.5 105.5t4.5 102.5q0 34 20 53.5t54 19.5h135q29 0 39.5 -8.5t10.5 -30.5q0 -18 -7.5 -53t-17 -79.5t-17 -95t-7.5 -100.5q0 -57 6 -102t13.5 -80t13.5 -60t6 -42z" />
    <glyph glyph-name="FLW179" unicode="&#xb3;" horiz-adv-x="290" 
d="M278 39q0 -21 -15 -29.5t-44 -9.5h-102q-56 0 -81.5 39t-24.5 118q0 26 2 44t4 42t3.5 60.5t1.5 99.5q0 58 27.5 95.5t106.5 37.5q57 0 73 -18.5t16 -43.5q0 -139 5 -215.5t11.5 -117.5t11.5 -60t5 -42zM133 575q-46 0 -78.5 32.5t-32.5 78.5t32.5 79t78.5 33t79 -33
t33 -79t-33 -78.5t-79 -32.5z" />
    <glyph glyph-name="FLW179" unicode="&#x456;" horiz-adv-x="290" 
d="M278 39q0 -21 -15 -29.5t-44 -9.5h-102q-56 0 -81.5 39t-24.5 118q0 26 2 44t4 42t3.5 60.5t1.5 99.5q0 58 27.5 95.5t106.5 37.5q57 0 73 -18.5t16 -43.5q0 -139 5 -215.5t11.5 -117.5t11.5 -60t5 -42zM133 575q-46 0 -78.5 32.5t-32.5 78.5t32.5 79t78.5 33t79 -33
t33 -79t-33 -78.5t-79 -32.5z" />
    <glyph glyph-name="acute" unicode="&#xb4;" horiz-adv-x="385" 
d="M341 762q0 -21 -25.5 -52.5t-60 -60.5t-70 -50t-55.5 -21q-10 0 -21.5 1.5t-11.5 5.5t5.5 14.5t6.5 11.5l76 142q11 20 24 26t38 6h23q7 0 13 0.5t11 0.5q28 0 37.5 -5.5t9.5 -18.5z" />
    <glyph glyph-name="acute" unicode="&#x491;" horiz-adv-x="385" 
d="M341 762q0 -21 -25.5 -52.5t-60 -60.5t-70 -50t-55.5 -21q-10 0 -21.5 1.5t-11.5 5.5t5.5 14.5t6.5 11.5l76 142q11 20 24 26t38 6h23q7 0 13 0.5t11 0.5q28 0 37.5 -5.5t9.5 -18.5z" />
    <glyph glyph-name="FLW181" unicode="&#xb5;" horiz-adv-x="563" 
d="M516 361q0 -34 -1 -57t-2 -40.5t-2 -32t-1 -32.5q0 -32 7 -45.5t15 -21.5t15 -17t7 -31q0 -14 -8 -28.5t-21.5 -27t-32 -20.5t-38.5 -8q-36 0 -57 7.5t-34.5 16.5t-22.5 16t-21 7q-15 0 -36.5 -27.5t-21.5 -79.5q0 -33 5 -54t11.5 -36.5t11.5 -27t5 -24.5
q0 -14 -10 -30.5t-26 -31t-36 -24t-39 -9.5q-12 0 -26 8.5t-27 23t-21.5 34t-8.5 41.5q0 45 8.5 88t8.5 64q0 41 -14 70.5t-31.5 61.5t-31.5 74.5t-14 109.5q0 70 2.5 119t12 79.5t27.5 44t48 13.5h106q39 0 39 -31q0 -41 -13 -103t-13 -136q0 -56 8 -81t21 -25
q14 0 26.5 33t12.5 108q0 41 -1.5 71t-3 53.5t-3 42.5t-1.5 38q0 20 15.5 25t39.5 5h98q19 0 32 -14t21.5 -38t12 -55t3.5 -66z" />
    <glyph glyph-name="FLW182" unicode="&#xb6;" horiz-adv-x="696" 
d="M355 -84h-120v296q0 39 -16 58.5t-40 29.5t-52.5 16t-52.5 18t-40 35t-16 66q0 145 108 221t308 76q64 0 112.5 -9.5t81.5 -24t49.5 -32t16.5 -33.5t-9.5 -28t-32.5 -12q-20 0 -47 2.5t-42 2.5q-17 0 -27.5 -10t-10.5 -38v-634h-120v657q0 34 -23 34q-10 0 -18.5 -7.5
t-8.5 -25.5v-658z" />
    <glyph glyph-name="periodcentered" unicode="&#xb7;" horiz-adv-x="278" 
d="M139 460q46 0 79 -33t33 -79t-33 -78.5t-79 -32.5t-78.5 32.5t-32.5 78.5t32.5 79t78.5 33z" />
    <glyph glyph-name="cedilla" unicode="&#xb8;" horiz-adv-x="503" 
d="M486 174q0 -34 -15 -68.5t-44 -62.5t-72 -45t-99 -17t-99 22.5t-72 61t-44 90.5t-15 112q0 72 20.5 124.5t56 87t82.5 51.5t100 17q41 0 76.5 -11t61.5 -31t41 -47.5t15 -60.5q0 -42 -17.5 -68.5t-43.5 -43.5t-57 -28t-57 -21.5t-43.5 -23t-17.5 -33.5q0 -23 21.5 -32.5
t46.5 -9.5q26 0 49 13.5t42.5 29.5t35 29.5t27.5 13.5q8 0 14.5 -14.5t6.5 -34.5zM236 341q7 0 16.5 5t18.5 13.5t15.5 19.5t6.5 24q0 14 -17 14q-18 0 -39 -14.5t-21 -43.5q0 -5 4.5 -11.5t15.5 -6.5zM373 578q-37 0 -63 26t-26 64t26 64.5t63 26.5t63 -26.5t26 -64.5
t-26 -64t-63 -26zM144 578q-37 0 -63 26t-26 64t26 64.5t63 26.5t63 -26.5t26 -64.5t-26 -64t-63 -26z" />
    <glyph glyph-name="cedilla" unicode="&#x451;" horiz-adv-x="503" 
d="M486 174q0 -34 -15 -68.5t-44 -62.5t-72 -45t-99 -17t-99 22.5t-72 61t-44 90.5t-15 112q0 72 20.5 124.5t56 87t82.5 51.5t100 17q41 0 76.5 -11t61.5 -31t41 -47.5t15 -60.5q0 -42 -17.5 -68.5t-43.5 -43.5t-57 -28t-57 -21.5t-43.5 -23t-17.5 -33.5q0 -23 21.5 -32.5
t46.5 -9.5q26 0 49 13.5t42.5 29.5t35 29.5t27.5 13.5q8 0 14.5 -14.5t6.5 -34.5zM236 341q7 0 16.5 5t18.5 13.5t15.5 19.5t6.5 24q0 14 -17 14q-18 0 -39 -14.5t-21 -43.5q0 -5 4.5 -11.5t15.5 -6.5zM373 578q-37 0 -63 26t-26 64t26 64.5t63 26.5t63 -26.5t26 -64.5
t-26 -64t-63 -26zM144 578q-37 0 -63 26t-26 64t26 64.5t63 26.5t63 -26.5t26 -64.5t-26 -64t-63 -26z" />
    <glyph glyph-name="FLW185" unicode="&#xb9;" horiz-adv-x="964" 
d="M954 304q0 -16 -13.5 -44.5t-39.5 -55.5t-63.5 -47t-86.5 -20q-57 0 -74.5 -11t-18.5 -27q0 -12 4 -25t4 -25q0 -21 -9 -35t-34 -14h-146q-31 0 -51 17.5t-34 49.5q-16 37 -30.5 83.5t-29.5 88t-32 69.5t-38 28q-24 0 -24 -33q0 -31 5.5 -66t12.5 -69.5t12.5 -66.5
t5.5 -58q0 -23 -10.5 -33t-44.5 -10h-132q-19 0 -32 19t-21.5 49.5t-12 70t-3.5 80.5q0 67 12 135.5t12 132.5q0 46 2 84.5t8.5 67t20 44.5t36.5 16h131q21 0 33.5 -14.5t12.5 -39.5q0 -27 5.5 -60t16 -62t26.5 -49t38 -20q10 0 15.5 10t5.5 23q0 14 -5.5 27.5t-12 31.5
t-12 43t-5.5 62q0 14 10 31t39 17h166q31 0 40.5 -8t9.5 -22q0 -13 -4.5 -27.5t-10.5 -30t-10.5 -34t-4.5 -39.5q0 -40 8.5 -81.5t29.5 -75.5t56 -55.5t88 -21.5q31 0 54 5.5t41.5 12.5t33 13t29.5 6q21 0 21 -37zM922 531q0 -75 -39.5 -121.5t-97.5 -46.5q-59 0 -98 45.5
t-39 121.5q0 88 40 128.5t96 40.5t97 -40.5t41 -127.5zM818 537q0 45 -7 63t-27 18q-16 0 -25.5 -18t-9.5 -63q0 -41 7.5 -59t27.5 -18q19 0 26.5 18t7.5 59z" />
    <glyph glyph-name="FLW185" unicode="&#x2116;" horiz-adv-x="964" 
d="M954 304q0 -16 -13.5 -44.5t-39.5 -55.5t-63.5 -47t-86.5 -20q-57 0 -74.5 -11t-18.5 -27q0 -12 4 -25t4 -25q0 -21 -9 -35t-34 -14h-146q-31 0 -51 17.5t-34 49.5q-16 37 -30.5 83.5t-29.5 88t-32 69.5t-38 28q-24 0 -24 -33q0 -31 5.5 -66t12.5 -69.5t12.5 -66.5
t5.5 -58q0 -23 -10.5 -33t-44.5 -10h-132q-19 0 -32 19t-21.5 49.5t-12 70t-3.5 80.5q0 67 12 135.5t12 132.5q0 46 2 84.5t8.5 67t20 44.5t36.5 16h131q21 0 33.5 -14.5t12.5 -39.5q0 -27 5.5 -60t16 -62t26.5 -49t38 -20q10 0 15.5 10t5.5 23q0 14 -5.5 27.5t-12 31.5
t-12 43t-5.5 62q0 14 10 31t39 17h166q31 0 40.5 -8t9.5 -22q0 -13 -4.5 -27.5t-10.5 -30t-10.5 -34t-4.5 -39.5q0 -40 8.5 -81.5t29.5 -75.5t56 -55.5t88 -21.5q31 0 54 5.5t41.5 12.5t33 13t29.5 6q21 0 21 -37zM922 531q0 -75 -39.5 -121.5t-97.5 -46.5q-59 0 -98 45.5
t-39 121.5q0 88 40 128.5t96 40.5t97 -40.5t41 -127.5zM818 537q0 45 -7 63t-27 18q-16 0 -25.5 -18t-9.5 -63q0 -41 7.5 -59t27.5 -18q19 0 26.5 18t7.5 59z" />
    <glyph glyph-name="FLW186" unicode="&#xba;" horiz-adv-x="470" 
d="M461 157q0 -34 -14 -66t-39.5 -57t-60 -40t-76.5 -15q-123 0 -190 68t-67 190q0 70 21 127t59 97.5t90.5 62.5t116.5 22q57 0 98 -26t41 -78q0 -14 -8 -30.5t-20 -30t-25.5 -22.5t-25.5 -9q-13 0 -21.5 8t-16 17.5t-15.5 17t-21 7.5q-22 0 -34.5 -13.5t-12.5 -28.5
q0 -51 47 -51q15 0 21 7t17 7q17 0 29 -21.5t12 -49.5q0 -22 -15.5 -35.5t-35.5 -13.5q-25 0 -41.5 14t-28.5 14q-8 0 -15.5 -7t-7.5 -19q0 -29 30.5 -44.5t66.5 -15.5q27 0 44 11t29 24.5t20.5 24.5t17.5 11q16 0 23.5 -11t7.5 -46z" />
    <glyph glyph-name="FLW186" unicode="&#x454;" horiz-adv-x="470" 
d="M461 157q0 -34 -14 -66t-39.5 -57t-60 -40t-76.5 -15q-123 0 -190 68t-67 190q0 70 21 127t59 97.5t90.5 62.5t116.5 22q57 0 98 -26t41 -78q0 -14 -8 -30.5t-20 -30t-25.5 -22.5t-25.5 -9q-13 0 -21.5 8t-16 17.5t-15.5 17t-21 7.5q-22 0 -34.5 -13.5t-12.5 -28.5
q0 -51 47 -51q15 0 21 7t17 7q17 0 29 -21.5t12 -49.5q0 -22 -15.5 -35.5t-35.5 -13.5q-25 0 -41.5 14t-28.5 14q-8 0 -15.5 -7t-7.5 -19q0 -29 30.5 -44.5t66.5 -15.5q27 0 44 11t29 24.5t20.5 24.5t17.5 11q16 0 23.5 -11t7.5 -46z" />
    <glyph glyph-name="FLW187" unicode="&#xbb;" horiz-adv-x="619" 
d="M137 640q38 0 72.5 -24.5t63.5 -61.5q15 34 38 60t43 26q49 0 91 -38.5t73 -89t48.5 -100.5t17.5 -73q0 -39 -29 -85.5t-68.5 -86.5t-79.5 -67t-61 -27q-23 0 -30.5 8t-7.5 27q0 18 24 39t53.5 48.5t53.5 62.5t24 82q0 12 -11 32t-26.5 39.5t-31.5 33.5t-26 14
q-21 0 -36 -5q16 -36 25.5 -67t9.5 -48q0 -39 -29 -85.5t-68.5 -86.5t-79.5 -67t-61 -27q-23 0 -30.5 8t-7.5 27q0 18 24 39t53.5 48.5t53.5 62.5t24 82q0 12 -11 32t-26.5 39.5t-31.5 33.5t-26 14q-18 0 -29 -3t-20 -7t-17 -7t-19 -3q-18 0 -22.5 16.5t-4.5 30.5
q0 24 9.5 51t24.5 50t32 38t32 15z" />
    <glyph glyph-name="FLW188" unicode="&#xbc;" horiz-adv-x="315" 
d="M171 575q-46 0 -78.5 32.5t-32.5 78.5t32.5 79t78.5 33t79 -33t33 -79t-33 -78.5t-79 -32.5zM282 432q0 -59 1.5 -99t4 -70.5t4 -57.5t1.5 -60q0 -71 -46 -117t-125 -46q-68 0 -100.5 24.5t-32.5 43.5q0 6 1 12t2 9l16 62q3 11 8.5 20t12.5 9q13 0 20 -12t19 -12
q28 0 28 41q0 61 -6 106t-13 79.5t-13 61t-6 51.5q0 57 108 57q67 0 91.5 -31.5t24.5 -70.5z" />
    <glyph glyph-name="FLW188" unicode="&#x458;" horiz-adv-x="315" 
d="M171 575q-46 0 -78.5 32.5t-32.5 78.5t32.5 79t78.5 33t79 -33t33 -79t-33 -78.5t-79 -32.5zM282 432q0 -59 1.5 -99t4 -70.5t4 -57.5t1.5 -60q0 -71 -46 -117t-125 -46q-68 0 -100.5 24.5t-32.5 43.5q0 6 1 12t2 9l16 62q3 11 8.5 20t12.5 9q13 0 20 -12t19 -12
q28 0 28 41q0 61 -6 106t-13 79.5t-13 61t-6 51.5q0 57 108 57q67 0 91.5 -31.5t24.5 -70.5z" />
    <glyph glyph-name="FLW189" unicode="&#xbd;" horiz-adv-x="570" 
d="M546 207q0 -55 -21.5 -98t-58 -73t-84 -46t-99.5 -16q-66 0 -117.5 16.5t-86.5 43.5t-53.5 60.5t-18.5 66.5q0 11 3.5 23.5t7.5 23.5l25 64q9 23 27 23q10 0 25.5 -24t36 -52.5t46.5 -52.5t57 -24q38 0 61.5 18.5t23.5 48.5q0 38 -18 54t-46.5 26.5t-64 22t-70.5 40.5
q-53 44 -69.5 87.5t-16.5 82.5q0 27 11 61t39.5 64t76.5 50t121 20q40 0 82 -8.5t77 -22.5t57.5 -31.5t22.5 -35.5q0 -8 -4 -17.5t-8 -18.5l-38 -74q-4 -6 -10.5 -11t-13.5 -5q-14 0 -28.5 11.5t-30.5 25.5t-34.5 25.5t-39.5 11.5q-26 0 -43.5 -15.5t-17.5 -40.5
q0 -31 29.5 -50t103.5 -45q159 -60 159 -209z" />
    <glyph glyph-name="FLW189" unicode="&#x405;" horiz-adv-x="570" 
d="M546 207q0 -55 -21.5 -98t-58 -73t-84 -46t-99.5 -16q-66 0 -117.5 16.5t-86.5 43.5t-53.5 60.5t-18.5 66.5q0 11 3.5 23.5t7.5 23.5l25 64q9 23 27 23q10 0 25.5 -24t36 -52.5t46.5 -52.5t57 -24q38 0 61.5 18.5t23.5 48.5q0 38 -18 54t-46.5 26.5t-64 22t-70.5 40.5
q-53 44 -69.5 87.5t-16.5 82.5q0 27 11 61t39.5 64t76.5 50t121 20q40 0 82 -8.5t77 -22.5t57.5 -31.5t22.5 -35.5q0 -8 -4 -17.5t-8 -18.5l-38 -74q-4 -6 -10.5 -11t-13.5 -5q-14 0 -28.5 11.5t-30.5 25.5t-34.5 25.5t-39.5 11.5q-26 0 -43.5 -15.5t-17.5 -40.5
q0 -31 29.5 -50t103.5 -45q159 -60 159 -209z" />
    <glyph glyph-name="FLW190" unicode="&#xbe;" horiz-adv-x="464" 
d="M440 148q0 -83 -55 -126.5t-152 -43.5q-46 0 -85.5 14.5t-68 40t-45 59t-16.5 72.5q0 33 9 45.5t22 12.5q11 0 23.5 -15t29 -33.5t37.5 -33.5t47 -15q46 0 46 36q0 25 -32.5 43.5t-74.5 44.5q-37 23 -64 59t-27 79q0 82 56.5 122t156.5 40q35 0 67.5 -10.5t57.5 -25.5
t40 -30.5t15 -25.5q0 -15 -14 -35l-35 -49q-12 -16 -28 -16q-10 0 -17 9t-16 20t-22 20t-34 9q-11 0 -19.5 -8t-8.5 -22q0 -13 12.5 -24t31.5 -21t41 -21t41 -24q43 -31 62 -67t19 -80z" />
    <glyph glyph-name="FLW190" unicode="&#x455;" horiz-adv-x="464" 
d="M440 148q0 -83 -55 -126.5t-152 -43.5q-46 0 -85.5 14.5t-68 40t-45 59t-16.5 72.5q0 33 9 45.5t22 12.5q11 0 23.5 -15t29 -33.5t37.5 -33.5t47 -15q46 0 46 36q0 25 -32.5 43.5t-74.5 44.5q-37 23 -64 59t-27 79q0 82 56.5 122t156.5 40q35 0 67.5 -10.5t57.5 -25.5
t40 -30.5t15 -25.5q0 -15 -14 -35l-35 -49q-12 -16 -28 -16q-10 0 -17 9t-16 20t-22 20t-34 9q-11 0 -19.5 -8t-8.5 -22q0 -13 12.5 -24t31.5 -21t41 -21t41 -24q43 -31 62 -67t19 -80z" />
    <glyph glyph-name="FLW191" unicode="&#xbf;" horiz-adv-x="508" 
d="M373 39q0 -21 -15 -29.5t-44 -9.5h-102q-56 0 -81.5 39t-24.5 118q0 26 2 44t4 42t3.5 60.5t1.5 99.5q0 58 27.5 95.5t106.5 37.5q57 0 73 -18.5t16 -43.5q0 -139 5 -215.5t11.5 -117.5t11.5 -60t5 -42zM389 575q-46 0 -78.5 32.5t-32.5 78.5t32.5 79t78.5 33t79 -33
t33 -79t-33 -78.5t-79 -32.5zM117 575q-46 0 -78.5 32.5t-32.5 78.5t32.5 79t78.5 33t79 -33t33 -79t-33 -78.5t-79 -32.5z" />
    <glyph glyph-name="FLW191" unicode="&#x457;" horiz-adv-x="508" 
d="M373 39q0 -21 -15 -29.5t-44 -9.5h-102q-56 0 -81.5 39t-24.5 118q0 26 2 44t4 42t3.5 60.5t1.5 99.5q0 58 27.5 95.5t106.5 37.5q57 0 73 -18.5t16 -43.5q0 -139 5 -215.5t11.5 -117.5t11.5 -60t5 -42zM389 575q-46 0 -78.5 32.5t-32.5 78.5t32.5 79t78.5 33t79 -33
t33 -79t-33 -78.5t-79 -32.5zM117 575q-46 0 -78.5 32.5t-32.5 78.5t32.5 79t78.5 33t79 -33t33 -79t-33 -78.5t-79 -32.5z" />
    <glyph glyph-name="Agrave" unicode="&#xc0;" horiz-adv-x="633" 
d="M625 185q0 -83 -12.5 -134t-42.5 -51h-174q-19 0 -27.5 4t-8.5 18q0 16 5 33t11 34t11 36t5 40q0 22 -14 33t-49 11q-70 0 -70 -44q1 -43 15.5 -77t15.5 -66q0 -15 -6.5 -18.5t-28.5 -3.5h-172q-31 0 -46.5 51t-15.5 133q0 27 4 64.5t13.5 78.5t25 84t38.5 82
q26 43 55 81.5t59 68t59.5 46.5t56.5 17q24 0 51.5 -17t55 -46.5t54.5 -68t51 -81.5q22 -39 37 -82t25 -84.5t14.5 -78t4.5 -63.5zM325 478q-12 0 -21.5 -13t-16.5 -29.5t-10.5 -32t-3.5 -19.5q0 -10 11.5 -19t40.5 -9q34 0 44.5 10t10.5 22q0 5 -3.5 19.5t-10.5 30.5
t-17.5 28t-23.5 12z" />
    <glyph glyph-name="Agrave" unicode="&#x410;" horiz-adv-x="633" 
d="M625 185q0 -83 -12.5 -134t-42.5 -51h-174q-19 0 -27.5 4t-8.5 18q0 16 5 33t11 34t11 36t5 40q0 22 -14 33t-49 11q-70 0 -70 -44q1 -43 15.5 -77t15.5 -66q0 -15 -6.5 -18.5t-28.5 -3.5h-172q-31 0 -46.5 51t-15.5 133q0 27 4 64.5t13.5 78.5t25 84t38.5 82
q26 43 55 81.5t59 68t59.5 46.5t56.5 17q24 0 51.5 -17t55 -46.5t54.5 -68t51 -81.5q22 -39 37 -82t25 -84.5t14.5 -78t4.5 -63.5zM325 478q-12 0 -21.5 -13t-16.5 -29.5t-10.5 -32t-3.5 -19.5q0 -10 11.5 -19t40.5 -9q34 0 44.5 10t10.5 22q0 5 -3.5 19.5t-10.5 30.5
t-17.5 28t-23.5 12z" />
    <glyph glyph-name="FLW193" unicode="&#xc1;" horiz-adv-x="612" 
d="M506 497q-3 -12 -9 -19.5t-17 -7.5q-10 0 -28 12t-39 27t-43.5 27t-43.5 12q-40 0 -53.5 -14t-13.5 -46q0 -19 25 -29.5t62.5 -22t81.5 -27.5t81.5 -45t63 -75.5t25.5 -119.5q0 -50 -20 -83t-55.5 -52t-85 -26.5t-109.5 -7.5h-210q-53 0 -72.5 43t-19.5 123
q0 38 5.5 93.5t12.5 115t12.5 114.5t5.5 93q0 22 -0.5 41t5 33.5t19 23t41.5 8.5q26 0 56 -4t60 -4q36 0 65.5 3t58.5 7t62 7t78 3q26 0 29.5 -13.5t-0.5 -33.5zM363 206q0 39 -21.5 65.5t-38.5 26.5q-24 0 -34.5 -19t-10.5 -44q0 -36 15 -66.5t35 -30.5q32 0 43.5 20
t11.5 48z" />
    <glyph glyph-name="FLW193" unicode="&#x411;" horiz-adv-x="612" 
d="M506 497q-3 -12 -9 -19.5t-17 -7.5q-10 0 -28 12t-39 27t-43.5 27t-43.5 12q-40 0 -53.5 -14t-13.5 -46q0 -19 25 -29.5t62.5 -22t81.5 -27.5t81.5 -45t63 -75.5t25.5 -119.5q0 -50 -20 -83t-55.5 -52t-85 -26.5t-109.5 -7.5h-210q-53 0 -72.5 43t-19.5 123
q0 38 5.5 93.5t12.5 115t12.5 114.5t5.5 93q0 22 -0.5 41t5 33.5t19 23t41.5 8.5q26 0 56 -4t60 -4q36 0 65.5 3t58.5 7t62 7t78 3q26 0 29.5 -13.5t-0.5 -33.5zM363 206q0 39 -21.5 65.5t-38.5 26.5q-24 0 -34.5 -19t-10.5 -44q0 -36 15 -66.5t35 -30.5q32 0 43.5 20
t11.5 48z" />
    <glyph glyph-name="Acircumflex" unicode="&#xc2;" horiz-adv-x="612" 
d="M598 169q0 -50 -20 -83t-55.5 -52t-85 -26.5t-109.5 -7.5h-210q-53 0 -72.5 43t-19.5 123q0 31 3 74t6.5 93.5t6.5 106.5t3 114q0 63 31.5 105t91.5 42q37 0 87.5 -2.5t139.5 -2.5q63 0 106.5 -37t43.5 -99q0 -32 -11.5 -52.5t-24.5 -36.5t-24.5 -30.5t-11.5 -34.5
q0 -12 19.5 -31.5t43 -48.5t43 -67.5t19.5 -89.5zM281 467q23 0 37 23.5t14 53.5q0 15 -9.5 23.5t-25.5 8.5q-23 0 -31 -10t-8 -30q0 -8 1 -19.5t4 -22.5t7.5 -19t10.5 -8zM363 206q0 39 -21.5 65.5t-38.5 26.5q-24 0 -34.5 -19t-10.5 -44q0 -36 15 -66.5t35 -30.5
q32 0 43.5 20t11.5 48z" />
    <glyph glyph-name="Acircumflex" unicode="&#x412;" horiz-adv-x="612" 
d="M598 169q0 -50 -20 -83t-55.5 -52t-85 -26.5t-109.5 -7.5h-210q-53 0 -72.5 43t-19.5 123q0 31 3 74t6.5 93.5t6.5 106.5t3 114q0 63 31.5 105t91.5 42q37 0 87.5 -2.5t139.5 -2.5q63 0 106.5 -37t43.5 -99q0 -32 -11.5 -52.5t-24.5 -36.5t-24.5 -30.5t-11.5 -34.5
q0 -12 19.5 -31.5t43 -48.5t43 -67.5t19.5 -89.5zM281 467q23 0 37 23.5t14 53.5q0 15 -9.5 23.5t-25.5 8.5q-23 0 -31 -10t-8 -30q0 -8 1 -19.5t4 -22.5t7.5 -19t10.5 -8zM363 206q0 39 -21.5 65.5t-38.5 26.5q-24 0 -34.5 -19t-10.5 -44q0 -36 15 -66.5t35 -30.5
q32 0 43.5 20t11.5 48z" />
    <glyph glyph-name="FLW195" unicode="&#xc3;" horiz-adv-x="503" 
d="M491 497l20 157q4 20 0.5 33.5t-29.5 13.5q-45 0 -78 -3t-62.5 -7t-58.5 -7t-65 -3q-30 0 -60 4t-56 4q-28 0 -41.5 -8.5t-19 -23t-5 -33.5t0.5 -41q0 -54 -10.5 -115.5t-10.5 -144.5q0 -57 4 -114.5t16 -104t33 -75.5t54 -29h131q26 0 36.5 13t10.5 32q0 17 -10.5 62
t-23.5 103.5t-23.5 124.5t-10.5 125q0 42 20.5 65.5t47.5 23.5q21 0 42.5 -12.5t42 -27.5t40 -27.5t35.5 -12.5q11 0 19 8t11 20z" />
    <glyph glyph-name="FLW195" unicode="&#x413;" horiz-adv-x="503" 
d="M491 497l20 157q4 20 0.5 33.5t-29.5 13.5q-45 0 -78 -3t-62.5 -7t-58.5 -7t-65 -3q-30 0 -60 4t-56 4q-28 0 -41.5 -8.5t-19 -23t-5 -33.5t0.5 -41q0 -54 -10.5 -115.5t-10.5 -144.5q0 -57 4 -114.5t16 -104t33 -75.5t54 -29h131q26 0 36.5 13t10.5 32q0 17 -10.5 62
t-23.5 103.5t-23.5 124.5t-10.5 125q0 42 20.5 65.5t47.5 23.5q21 0 42.5 -12.5t42 -27.5t40 -27.5t35.5 -12.5q11 0 19 8t11 20z" />
    <glyph glyph-name="FLW196" unicode="&#xc4;" horiz-adv-x="770" 
d="M680 234q0 -33 -2 -53.5t-2 -43.5q0 -28 18 -48.5t39 -43.5t39 -53.5t18 -78.5q0 -49 -17 -81.5t-44 -52.5t-60.5 -28.5t-66.5 -8.5q-59 0 -91.5 18t-32.5 50q0 15 15.5 22.5t34 17t34 25t15.5 45.5q0 31 -15 42.5t-36 11.5q-26 0 -62 -11t-70 -11q-38 0 -77 11t-66 11
q-19 0 -30 -14t-11 -40q0 -30 15.5 -45.5t34 -25t34 -17t15.5 -22.5q0 -32 -32.5 -50t-91.5 -18q-33 0 -66.5 8.5t-60.5 28.5t-44 52.5t-17 81.5q0 45 17 76.5t37.5 56t37.5 45t17 43.5q0 14 -1 24t-1.5 20t-1.5 23t-1 33q0 69 21 153t59.5 157t91.5 122.5t116 49.5
q65 0 118.5 -49.5t91.5 -122.5t59.5 -157t21.5 -153zM391 462q-17 0 -30 -16.5t-21.5 -43.5t-13 -60.5t-4.5 -67.5q0 -60 12 -83t59 -23q39 0 53.5 26t14.5 79q0 34 -6 68t-15.5 61t-22.5 43.5t-26 16.5z" />
    <glyph glyph-name="FLW196" unicode="&#x414;" horiz-adv-x="770" 
d="M680 234q0 -33 -2 -53.5t-2 -43.5q0 -28 18 -48.5t39 -43.5t39 -53.5t18 -78.5q0 -49 -17 -81.5t-44 -52.5t-60.5 -28.5t-66.5 -8.5q-59 0 -91.5 18t-32.5 50q0 15 15.5 22.5t34 17t34 25t15.5 45.5q0 31 -15 42.5t-36 11.5q-26 0 -62 -11t-70 -11q-38 0 -77 11t-66 11
q-19 0 -30 -14t-11 -40q0 -30 15.5 -45.5t34 -25t34 -17t15.5 -22.5q0 -32 -32.5 -50t-91.5 -18q-33 0 -66.5 8.5t-60.5 28.5t-44 52.5t-17 81.5q0 45 17 76.5t37.5 56t37.5 45t17 43.5q0 14 -1 24t-1.5 20t-1.5 23t-1 33q0 69 21 153t59.5 157t91.5 122.5t116 49.5
q65 0 118.5 -49.5t91.5 -122.5t59.5 -157t21.5 -153zM391 462q-17 0 -30 -16.5t-21.5 -43.5t-13 -60.5t-4.5 -67.5q0 -60 12 -83t59 -23q39 0 53.5 26t14.5 79q0 34 -6 68t-15.5 61t-22.5 43.5t-26 16.5z" />
    <glyph glyph-name="Aring" unicode="&#xc5;" horiz-adv-x="551" 
d="M382 -15q-45 0 -80.5 2.5t-68 5t-63.5 5t-67 2.5q-23 0 -38.5 27.5t-24.5 68.5t-13 88t-4 86q0 92 10 170t31.5 135.5t57 90t86.5 32.5h276q30 0 42.5 -4t11.5 -22q0 -2 -0.5 -6t-1.5 -11l-41 -113q-6 -17 -16.5 -23t-25.5 -6q-6 0 -18.5 8.5t-29 19.5t-35.5 19.5
t-38 8.5q-21 0 -36 -9t-25 -22.5t-15 -28.5t-5 -26q0 -17 8.5 -19.5t18.5 -2.5q24 0 52.5 8.5t38.5 8.5q12 0 27.5 -1t30 -4t24.5 -9t10 -17q0 -9 -6 -28l-34 -96q-10 -31 -26 -31q-11 0 -25.5 11t-36.5 11q-39 0 -61.5 -24t-22.5 -61q0 -48 24 -75t64 -27q27 0 45.5 10.5
t33 23.5t27.5 23.5t29 10.5q13 0 22 -20l46 -132q3 -9 -8.5 -19t-33.5 -19t-52 -14.5t-64 -5.5z" />
    <glyph glyph-name="Aring" unicode="&#x415;" horiz-adv-x="551" 
d="M382 -15q-45 0 -80.5 2.5t-68 5t-63.5 5t-67 2.5q-23 0 -38.5 27.5t-24.5 68.5t-13 88t-4 86q0 92 10 170t31.5 135.5t57 90t86.5 32.5h276q30 0 42.5 -4t11.5 -22q0 -2 -0.5 -6t-1.5 -11l-41 -113q-6 -17 -16.5 -23t-25.5 -6q-6 0 -18.5 8.5t-29 19.5t-35.5 19.5
t-38 8.5q-21 0 -36 -9t-25 -22.5t-15 -28.5t-5 -26q0 -17 8.5 -19.5t18.5 -2.5q24 0 52.5 8.5t38.5 8.5q12 0 27.5 -1t30 -4t24.5 -9t10 -17q0 -9 -6 -28l-34 -96q-10 -31 -26 -31q-11 0 -25.5 11t-36.5 11q-39 0 -61.5 -24t-22.5 -61q0 -48 24 -75t64 -27q27 0 45.5 10.5
t33 23.5t27.5 23.5t29 10.5q13 0 22 -20l46 -132q3 -9 -8.5 -19t-33.5 -19t-52 -14.5t-64 -5.5z" />
    <glyph glyph-name="FLW198" unicode="&#xc6;" horiz-adv-x="918" 
d="M11 68q0 100 23.5 157t52 90t52 52t23.5 42q0 20 -23.5 59t-66.5 112q-14 25 -26.5 47.5t-12.5 36.5q0 36 41 36h119q19 0 34.5 -8t24.5 -27q18 -37 32.5 -72t27.5 -61.5t23.5 -42.5t19.5 -16q18 0 18 23q0 26 -6 46t-13.5 39t-13.5 38t-6 43q0 13 9 25.5t30 12.5h187
q21 0 30 -12.5t9 -25.5q0 -24 -6 -43t-13.5 -37.5t-13.5 -39t-6 -46.5q0 -23 18 -23q9 0 19.5 16t23.5 42.5t27.5 61.5t32.5 72q9 19 24 27t35 8h119q41 0 41 -36q0 -14 -12.5 -36.5t-26.5 -47.5q-43 -73 -66.5 -112t-23.5 -59q0 -23 23.5 -42t52 -52t52 -90t23.5 -157
q0 -33 -12.5 -50.5t-41.5 -17.5h-162q-27 0 -39 9.5t-15 27.5t-1 45.5t2 63.5q0 58 -11 83t-21 25q-17 0 -27.5 -24t-18 -60t-14.5 -78t-18.5 -78t-29.5 -60t-47 -24q-27 0 -45 24t-30.5 60t-21 78t-16.5 78t-17.5 60t-23.5 24q-10 0 -21 -25t-11 -83q0 -36 2 -63.5
t-1 -45.5t-15 -27.5t-39 -9.5h-162q-29 0 -41.5 17.5t-12.5 50.5z" />
    <glyph glyph-name="FLW198" unicode="&#x416;" horiz-adv-x="918" 
d="M11 68q0 100 23.5 157t52 90t52 52t23.5 42q0 20 -23.5 59t-66.5 112q-14 25 -26.5 47.5t-12.5 36.5q0 36 41 36h119q19 0 34.5 -8t24.5 -27q18 -37 32.5 -72t27.5 -61.5t23.5 -42.5t19.5 -16q18 0 18 23q0 26 -6 46t-13.5 39t-13.5 38t-6 43q0 13 9 25.5t30 12.5h187
q21 0 30 -12.5t9 -25.5q0 -24 -6 -43t-13.5 -37.5t-13.5 -39t-6 -46.5q0 -23 18 -23q9 0 19.5 16t23.5 42.5t27.5 61.5t32.5 72q9 19 24 27t35 8h119q41 0 41 -36q0 -14 -12.5 -36.5t-26.5 -47.5q-43 -73 -66.5 -112t-23.5 -59q0 -23 23.5 -42t52 -52t52 -90t23.5 -157
q0 -33 -12.5 -50.5t-41.5 -17.5h-162q-27 0 -39 9.5t-15 27.5t-1 45.5t2 63.5q0 58 -11 83t-21 25q-17 0 -27.5 -24t-18 -60t-14.5 -78t-18.5 -78t-29.5 -60t-47 -24q-27 0 -45 24t-30.5 60t-21 78t-16.5 78t-17.5 60t-23.5 24q-10 0 -21 -25t-11 -83q0 -36 2 -63.5
t-1 -45.5t-15 -27.5t-39 -9.5h-162q-29 0 -41.5 17.5t-12.5 50.5z" />
    <glyph glyph-name="FLW199" unicode="&#xc7;" horiz-adv-x="487" 
d="M483 201q0 -96 -67 -157.5t-195 -61.5q-41 0 -80.5 9.5t-69 25t-45 35.5t-8.5 42l34 113q9 29 31 29q12 0 21 -11.5t20 -25.5t26 -25.5t39 -11.5q33 0 54 16.5t21 53.5q0 42 -23.5 54.5t-47.5 12.5q-12 0 -20.5 -1.5t-16.5 -2.5t-17.5 -2.5t-23.5 -1.5q-10 0 -18.5 8
t-3.5 24l26 94q4 16 13.5 22t15.5 6q46 0 75.5 11t29.5 55q0 18 -12.5 32.5t-37.5 14.5q-19 0 -34 -9t-28 -19t-25.5 -19t-27.5 -9q-28 0 -31 38l-9 108q-2 22 51.5 39.5t143.5 17.5q38 0 73 -10t62 -29.5t43.5 -48t16.5 -65.5q0 -35 -6 -58.5t-12.5 -40t-12.5 -28.5t-6 -24
q0 -17 13 -31.5t28 -35.5t28 -52.5t13 -80.5z" />
    <glyph glyph-name="FLW199" unicode="&#x417;" horiz-adv-x="487" 
d="M483 201q0 -96 -67 -157.5t-195 -61.5q-41 0 -80.5 9.5t-69 25t-45 35.5t-8.5 42l34 113q9 29 31 29q12 0 21 -11.5t20 -25.5t26 -25.5t39 -11.5q33 0 54 16.5t21 53.5q0 42 -23.5 54.5t-47.5 12.5q-12 0 -20.5 -1.5t-16.5 -2.5t-17.5 -2.5t-23.5 -1.5q-10 0 -18.5 8
t-3.5 24l26 94q4 16 13.5 22t15.5 6q46 0 75.5 11t29.5 55q0 18 -12.5 32.5t-37.5 14.5q-19 0 -34 -9t-28 -19t-25.5 -19t-27.5 -9q-28 0 -31 38l-9 108q-2 22 51.5 39.5t143.5 17.5q38 0 73 -10t62 -29.5t43.5 -48t16.5 -65.5q0 -35 -6 -58.5t-12.5 -40t-12.5 -28.5t-6 -24
q0 -17 13 -31.5t28 -35.5t28 -52.5t13 -80.5z" />
    <glyph glyph-name="FLW200" unicode="&#xc8;" horiz-adv-x="640" 
d="M19 363q0 -69 1.5 -134.5t9 -116.5t22 -81.5t39.5 -30.5h118q31 0 47 11t30 43q16 37 26.5 86t19.5 92.5t18.5 73.5t23.5 30q24 0 24 -33q0 -31 -5.5 -66t-12.5 -69.5t-12.5 -66.5t-5.5 -58q0 -23 10.5 -33t44.5 -10h132q19 0 32 19t21.5 49.5t12 70t3.5 80.5
q0 67 -4 138t-4 135q0 46 -2 84t-8.5 65t-20 42t-36.5 15h-136q-32 0 -56.5 -37t-38.5 -82q-20 -64 -24.5 -93t-24.5 -29q-10 0 -13.5 8.5t-3.5 21.5q0 21 5 49t11 54.5t11 47t5 27.5q0 14 -8.5 23.5t-37.5 9.5h-120q-26 0 -43.5 -29t-28.5 -76.5t-16 -107.5t-5 -122z" />
    <glyph glyph-name="FLW200" unicode="&#x418;" horiz-adv-x="640" 
d="M19 363q0 -69 1.5 -134.5t9 -116.5t22 -81.5t39.5 -30.5h118q31 0 47 11t30 43q16 37 26.5 86t19.5 92.5t18.5 73.5t23.5 30q24 0 24 -33q0 -31 -5.5 -66t-12.5 -69.5t-12.5 -66.5t-5.5 -58q0 -23 10.5 -33t44.5 -10h132q19 0 32 19t21.5 49.5t12 70t3.5 80.5
q0 67 -4 138t-4 135q0 46 -2 84t-8.5 65t-20 42t-36.5 15h-136q-32 0 -56.5 -37t-38.5 -82q-20 -64 -24.5 -93t-24.5 -29q-10 0 -13.5 8.5t-3.5 21.5q0 21 5 49t11 54.5t11 47t5 27.5q0 14 -8.5 23.5t-37.5 9.5h-120q-26 0 -43.5 -29t-28.5 -76.5t-16 -107.5t-5 -122z" />
    <glyph glyph-name="FLW201" unicode="&#xc9;" horiz-adv-x="640" 
d="M19 363q0 -69 1.5 -134.5t9 -116.5t22 -81.5t39.5 -30.5h118q31 0 47 11t30 43q16 37 26.5 86t19.5 92.5t18.5 73.5t23.5 30q24 0 24 -33q0 -31 -5.5 -66t-12.5 -69.5t-12.5 -66.5t-5.5 -58q0 -23 10.5 -33t44.5 -10h132q19 0 32 19t21.5 49.5t12 70t3.5 80.5
q0 67 -4 138t-4 135q0 46 -2 84t-8.5 65t-20 42t-36.5 15h-136q-32 0 -56.5 -37t-38.5 -82q-20 -64 -24.5 -93t-24.5 -29q-10 0 -13.5 8.5t-3.5 21.5q0 21 5 49t11 54.5t11 47t5 27.5q0 14 -8.5 23.5t-37.5 9.5h-120q-26 0 -43.5 -29t-28.5 -76.5t-16 -107.5t-5 -122z
M347 775q37 0 71 14.5t60 36.5t41.5 47t15.5 46q0 9 -7.5 30.5t-21 44t-31.5 39.5t-40 17q-19 0 -29 -20.5t-23.5 -45t-36 -45t-67.5 -20.5q-18 0 -28.5 10t-10.5 26q0 15 9 29t20 26.5t20.5 24t9.5 22.5q0 30 -26 51t-57 21q-50 0 -76 -43.5t-26 -104.5q0 -52 19 -91
t51.5 -64.5t74.5 -38t88 -12.5z" />
    <glyph glyph-name="FLW201" unicode="&#x419;" horiz-adv-x="640" 
d="M19 363q0 -69 1.5 -134.5t9 -116.5t22 -81.5t39.5 -30.5h118q31 0 47 11t30 43q16 37 26.5 86t19.5 92.5t18.5 73.5t23.5 30q24 0 24 -33q0 -31 -5.5 -66t-12.5 -69.5t-12.5 -66.5t-5.5 -58q0 -23 10.5 -33t44.5 -10h132q19 0 32 19t21.5 49.5t12 70t3.5 80.5
q0 67 -4 138t-4 135q0 46 -2 84t-8.5 65t-20 42t-36.5 15h-136q-32 0 -56.5 -37t-38.5 -82q-20 -64 -24.5 -93t-24.5 -29q-10 0 -13.5 8.5t-3.5 21.5q0 21 5 49t11 54.5t11 47t5 27.5q0 14 -8.5 23.5t-37.5 9.5h-120q-26 0 -43.5 -29t-28.5 -76.5t-16 -107.5t-5 -122z
M347 775q37 0 71 14.5t60 36.5t41.5 47t15.5 46q0 9 -7.5 30.5t-21 44t-31.5 39.5t-40 17q-19 0 -29 -20.5t-23.5 -45t-36 -45t-67.5 -20.5q-18 0 -28.5 10t-10.5 26q0 15 9 29t20 26.5t20.5 24t9.5 22.5q0 30 -26 51t-57 21q-50 0 -76 -43.5t-26 -104.5q0 -52 19 -91
t51.5 -64.5t74.5 -38t88 -12.5z" />
    <glyph glyph-name="Ecircumflex" unicode="&#xca;" horiz-adv-x="602" 
d="M606 68q0 -33 -12.5 -50.5t-41.5 -17.5h-162q-27 0 -39 9.5t-15 27.5t-1 45.5t2 63.5q0 58 -11 83t-21 25q-19 0 -26 -12t-7 -34q0 -26 4.5 -65t4.5 -97q0 -20 -11.5 -33t-36.5 -13h-137q-15 0 -27.5 2.5t-21.5 10.5t-14.5 24.5t-5.5 43.5q0 90 -7 159.5t-7 140.5
q0 53 5.5 109.5t16 103t26 76.5t35.5 30h148q21 0 30 -12.5t9 -25.5q0 -24 -6 -48t-13.5 -45.5t-13.5 -40.5t-6 -32q0 -23 18 -23q9 0 19.5 16t23.5 42.5t27.5 61.5t32.5 72q9 19 24 27t35 8h119q41 0 41 -36q0 -14 -12.5 -36.5t-26.5 -47.5q-43 -73 -66.5 -112t-23.5 -59
q0 -23 23.5 -42t52 -52t52 -90t23.5 -157z" />
    <glyph glyph-name="Ecircumflex" unicode="&#x41a;" horiz-adv-x="602" 
d="M606 68q0 -33 -12.5 -50.5t-41.5 -17.5h-162q-27 0 -39 9.5t-15 27.5t-1 45.5t2 63.5q0 58 -11 83t-21 25q-19 0 -26 -12t-7 -34q0 -26 4.5 -65t4.5 -97q0 -20 -11.5 -33t-36.5 -13h-137q-15 0 -27.5 2.5t-21.5 10.5t-14.5 24.5t-5.5 43.5q0 90 -7 159.5t-7 140.5
q0 53 5.5 109.5t16 103t26 76.5t35.5 30h148q21 0 30 -12.5t9 -25.5q0 -24 -6 -48t-13.5 -45.5t-13.5 -40.5t-6 -32q0 -23 18 -23q9 0 19.5 16t23.5 42.5t27.5 61.5t32.5 72q9 19 24 27t35 8h119q41 0 41 -36q0 -14 -12.5 -36.5t-26.5 -47.5q-43 -73 -66.5 -112t-23.5 -59
q0 -23 23.5 -42t52 -52t52 -90t23.5 -157z" />
    <glyph glyph-name="Edieresis" unicode="&#xcb;" horiz-adv-x="635" 
d="M608 234q0 69 -21.5 153t-59.5 157t-91.5 122.5t-118.5 49.5q-63 0 -116 -49.5t-91.5 -122.5t-59.5 -157t-21 -153q0 -32 4 -72.5t13.5 -76.5t24.5 -60.5t38 -24.5h151q26 0 31.5 12.5t5.5 26.5q0 15 -7.5 35t-16 47t-16 63.5t-7.5 85.5q0 35 5 69.5t14 61.5t21.5 44
t28.5 17q13 0 26 -17t22.5 -44t15.5 -61t6 -68q0 -49 -5 -86t-11.5 -65t-11.5 -47.5t-5 -34.5q0 -16 13 -27.5t36 -11.5h116q29 0 46.5 25t26.5 61t11.5 76.5t2.5 71.5z" />
    <glyph glyph-name="Edieresis" unicode="&#x41b;" horiz-adv-x="635" 
d="M608 234q0 69 -21.5 153t-59.5 157t-91.5 122.5t-118.5 49.5q-63 0 -116 -49.5t-91.5 -122.5t-59.5 -157t-21 -153q0 -32 4 -72.5t13.5 -76.5t24.5 -60.5t38 -24.5h151q26 0 31.5 12.5t5.5 26.5q0 15 -7.5 35t-16 47t-16 63.5t-7.5 85.5q0 35 5 69.5t14 61.5t21.5 44
t28.5 17q13 0 26 -17t22.5 -44t15.5 -61t6 -68q0 -49 -5 -86t-11.5 -65t-11.5 -47.5t-5 -34.5q0 -16 13 -27.5t36 -11.5h116q29 0 46.5 25t26.5 61t11.5 76.5t2.5 71.5z" />
    <glyph glyph-name="Igrave" unicode="&#xcc;" horiz-adv-x="760" 
d="M734 259q0 -41 -4.5 -82t-9.5 -74t-10 -54t-5 -24q-5 -13 -16.5 -19t-45.5 -6h-155q-23 0 -32.5 10.5t-9.5 27.5q0 9 11 34.5t25 64.5t25 89.5t11 110.5q0 35 -27 35q-7 0 -15.5 -10.5t-8.5 -27.5q0 -35 -5 -68.5t-18 -59t-35.5 -41t-57.5 -15.5q-26 0 -36 34.5t-16 76.5
t-13.5 76.5t-28.5 34.5q-19 0 -19 -42t7.5 -88.5t17 -88.5t17 -74t7.5 -44q0 -19 -8 -27t-31 -8h-154q-21 1 -34.5 31.5t-22 77t-11.5 100.5t-3 102q0 36 3.5 76.5t8 82.5t8 83t3.5 77q0 39 16.5 54.5t47.5 15.5h117q34 0 55.5 -29t37 -64.5t28 -64.5t28.5 -29q14 0 25 29
t27 64.5t40 64.5t63 29h111q32 0 48 -27t16 -67q0 -70 14 -158t14 -189z" />
    <glyph glyph-name="Igrave" unicode="&#x41c;" horiz-adv-x="760" 
d="M734 259q0 -41 -4.5 -82t-9.5 -74t-10 -54t-5 -24q-5 -13 -16.5 -19t-45.5 -6h-155q-23 0 -32.5 10.5t-9.5 27.5q0 9 11 34.5t25 64.5t25 89.5t11 110.5q0 35 -27 35q-7 0 -15.5 -10.5t-8.5 -27.5q0 -35 -5 -68.5t-18 -59t-35.5 -41t-57.5 -15.5q-26 0 -36 34.5t-16 76.5
t-13.5 76.5t-28.5 34.5q-19 0 -19 -42t7.5 -88.5t17 -88.5t17 -74t7.5 -44q0 -19 -8 -27t-31 -8h-154q-21 1 -34.5 31.5t-22 77t-11.5 100.5t-3 102q0 36 3.5 76.5t8 82.5t8 83t3.5 77q0 39 16.5 54.5t47.5 15.5h117q34 0 55.5 -29t37 -64.5t28 -64.5t28.5 -29q14 0 25 29
t27 64.5t40 64.5t63 29h111q32 0 48 -27t16 -67q0 -70 14 -158t14 -189z" />
    <glyph glyph-name="Iacute" unicode="&#xcd;" horiz-adv-x="680" 
d="M658 364q0 -51 -8 -114.5t-22.5 -118.5t-34.5 -93t-44 -38h-147q-12 0 -20.5 7t-8.5 20q0 14 7 33t15 44t15 56.5t7 71.5q0 25 -14 38.5t-37 13.5q-29 0 -46.5 -9t-26.5 -23t-11.5 -32t-2.5 -36q0 -50 16 -87t17 -66q0 -13 -6 -22t-27 -9h-177q-23 0 -37.5 25t-23 70.5
t-11.5 108t-3 137.5q0 46 4.5 108.5t18 119.5t38 97t64.5 40h117q43 0 43 -41q0 -10 -6.5 -31.5t-14.5 -49.5t-14.5 -58.5t-6.5 -57.5q0 -30 40 -30q51 0 76.5 13t25.5 29q0 25 -9 51.5t-19 52t-19 48t-9 38.5q0 17 16.5 26.5t37.5 9.5h144q32 0 52 -30.5t31.5 -79.5
t16 -110t4.5 -122z" />
    <glyph glyph-name="Iacute" unicode="&#x41d;" horiz-adv-x="680" 
d="M658 364q0 -51 -8 -114.5t-22.5 -118.5t-34.5 -93t-44 -38h-147q-12 0 -20.5 7t-8.5 20q0 14 7 33t15 44t15 56.5t7 71.5q0 25 -14 38.5t-37 13.5q-29 0 -46.5 -9t-26.5 -23t-11.5 -32t-2.5 -36q0 -50 16 -87t17 -66q0 -13 -6 -22t-27 -9h-177q-23 0 -37.5 25t-23 70.5
t-11.5 108t-3 137.5q0 46 4.5 108.5t18 119.5t38 97t64.5 40h117q43 0 43 -41q0 -10 -6.5 -31.5t-14.5 -49.5t-14.5 -58.5t-6.5 -57.5q0 -30 40 -30q51 0 76.5 13t25.5 29q0 25 -9 51.5t-19 52t-19 48t-9 38.5q0 17 16.5 26.5t37.5 9.5h144q32 0 52 -30.5t31.5 -79.5
t16 -110t4.5 -122z" />
    <glyph glyph-name="Icircumflex" unicode="&#xce;" horiz-adv-x="643" 
d="M641 248q0 -46 -14 -92.5t-45.5 -83.5t-81.5 -60t-123 -23h-96q-66 0 -115.5 23.5t-81.5 60.5t-48 84t-16 93q0 84 22.5 168t63.5 151.5t98 109.5t126 42q62 0 118.5 -42.5t99 -110t68 -152t25.5 -168.5zM403 268q0 26 -2.5 68.5t-10.5 83.5t-22.5 70.5t-37.5 29.5
q-22 0 -35.5 -29.5t-21 -70.5t-10.5 -83.5t-3 -67.5q0 -48 15 -67t56 -19q43 0 57.5 19t14.5 66z" />
    <glyph glyph-name="Icircumflex" unicode="&#x41e;" horiz-adv-x="643" 
d="M641 248q0 -46 -14 -92.5t-45.5 -83.5t-81.5 -60t-123 -23h-96q-66 0 -115.5 23.5t-81.5 60.5t-48 84t-16 93q0 84 22.5 168t63.5 151.5t98 109.5t126 42q62 0 118.5 -42.5t99 -110t68 -152t25.5 -168.5zM403 268q0 26 -2.5 68.5t-10.5 83.5t-22.5 70.5t-37.5 29.5
q-22 0 -35.5 -29.5t-21 -70.5t-10.5 -83.5t-3 -67.5q0 -48 15 -67t56 -19q43 0 57.5 19t14.5 66z" />
    <glyph glyph-name="FLW207" unicode="&#xcf;" horiz-adv-x="616" 
d="M607 297q0 107 -6.5 186.5t-36 132t-88.5 78.5t-164 26q-104 0 -162 -26t-87 -78.5t-35.5 -132t-6.5 -185.5q0 -36 3.5 -87t13 -98t27.5 -80t47 -33h125q36 0 36 40q0 29 -5.5 59t-12.5 65.5t-12.5 78.5t-5.5 97q0 28 1 57.5t8.5 52.5t22.5 38t44 15q28 0 43.5 -15
t22.5 -39t8 -53t1 -57q0 -54 -6.5 -97t-14.5 -78.5t-14.5 -66t-6.5 -60.5q0 -37 42 -37h114q34 0 54.5 33t32 80t15 97.5t3.5 86.5z" />
    <glyph glyph-name="FLW207" unicode="&#x41f;" horiz-adv-x="616" 
d="M607 297q0 107 -6.5 186.5t-36 132t-88.5 78.5t-164 26q-104 0 -162 -26t-87 -78.5t-35.5 -132t-6.5 -185.5q0 -36 3.5 -87t13 -98t27.5 -80t47 -33h125q36 0 36 40q0 29 -5.5 59t-12.5 65.5t-12.5 78.5t-5.5 97q0 28 1 57.5t8.5 52.5t22.5 38t44 15q28 0 43.5 -15
t22.5 -39t8 -53t1 -57q0 -54 -6.5 -97t-14.5 -78.5t-14.5 -66t-6.5 -60.5q0 -37 42 -37h114q34 0 54.5 33t32 80t15 97.5t3.5 86.5z" />
    <glyph glyph-name="FLW208" unicode="&#xd0;" horiz-adv-x="574" 
d="M578 541q0 -67 -21 -109t-53.5 -69.5t-71.5 -46t-75 -38.5q-23 -13 -39 -22.5t-26.5 -20.5t-15 -25t-4.5 -35q0 -42 13 -73.5t13 -68.5q0 -33 -40 -33h-160q-44 0 -66 56t-22 192q0 44 3 84t6.5 81t6.5 87t3 102q0 50 23 66.5t55 16.5q45 0 79 2t63 5t57.5 5t64.5 2
q62 0 102 -15.5t63.5 -39.5t32.5 -51.5t9 -51.5zM341 517q0 18 -8.5 32t-28.5 14q-8 0 -16.5 -10t-15 -25t-11 -33t-4.5 -34q0 -41 18 -41q6 0 17.5 8.5t22 22.5t18.5 31t8 35z" />
    <glyph glyph-name="FLW208" unicode="&#x420;" horiz-adv-x="574" 
d="M578 541q0 -67 -21 -109t-53.5 -69.5t-71.5 -46t-75 -38.5q-23 -13 -39 -22.5t-26.5 -20.5t-15 -25t-4.5 -35q0 -42 13 -73.5t13 -68.5q0 -33 -40 -33h-160q-44 0 -66 56t-22 192q0 44 3 84t6.5 81t6.5 87t3 102q0 50 23 66.5t55 16.5q45 0 79 2t63 5t57.5 5t64.5 2
q62 0 102 -15.5t63.5 -39.5t32.5 -51.5t9 -51.5zM341 517q0 18 -8.5 32t-28.5 14q-8 0 -16.5 -10t-15 -25t-11 -33t-4.5 -34q0 -41 18 -41q6 0 17.5 8.5t22 22.5t18.5 31t8 35z" />
    <glyph glyph-name="Ntilde" unicode="&#xd1;" horiz-adv-x="593" 
d="M583 197q0 -52 -21.5 -92.5t-56 -69t-78.5 -43.5t-89 -15q-70 0 -128 27t-100 75.5t-65 115t-23 145.5q0 85 25 154.5t70 119t108.5 76.5t140.5 27q37 0 70.5 -11.5t59.5 -29.5t41.5 -39.5t15.5 -41.5q0 -50 -36 -80t-88 -30q-15 0 -20 12t-9.5 26t-12 25.5t-27.5 11.5
q-19 0 -37.5 -16t-33.5 -43.5t-24 -65.5t-9 -82q0 -85 45 -137.5t115 -52.5q30 0 50 13.5t35 29.5t27.5 29.5t27.5 13.5q10 0 18.5 -11.5t8.5 -40.5z" />
    <glyph glyph-name="Ntilde" unicode="&#x421;" horiz-adv-x="593" 
d="M583 197q0 -52 -21.5 -92.5t-56 -69t-78.5 -43.5t-89 -15q-70 0 -128 27t-100 75.5t-65 115t-23 145.5q0 85 25 154.5t70 119t108.5 76.5t140.5 27q37 0 70.5 -11.5t59.5 -29.5t41.5 -39.5t15.5 -41.5q0 -50 -36 -80t-88 -30q-15 0 -20 12t-9.5 26t-12 25.5t-27.5 11.5
q-19 0 -37.5 -16t-33.5 -43.5t-24 -65.5t-9 -82q0 -85 45 -137.5t115 -52.5q30 0 50 13.5t35 29.5t27.5 29.5t27.5 13.5q10 0 18.5 -11.5t8.5 -40.5z" />
    <glyph glyph-name="Ograve" unicode="&#xd2;" horiz-adv-x="554" 
d="M571 606l-11 -120q-2 -14 -8 -23.5t-20 -9.5q-11 0 -26.5 16.5t-31.5 34.5q-18 20 -41 35t-35 15q-10 0 -17.5 -7t-7.5 -20q0 -139 9.5 -227.5t21.5 -141.5t21.5 -78.5t9.5 -39.5t-11.5 -27t-39.5 -13h-183q-19 0 -31.5 21.5t-19.5 54.5t-10 72.5t-3 74.5q0 47 5.5 91
t12.5 83.5t12.5 73.5t5.5 61q0 22 -25 22q-11 0 -31.5 -14t-39.5 -33t-36 -36.5t-33 -17.5q-10 0 -18 6t-7 23l5 148q1 21 26 36t65.5 24.5t92.5 13.5t108 4q65 0 120.5 -4t95 -15.5t60 -31t15.5 -51.5z" />
    <glyph glyph-name="Ograve" unicode="&#x422;" horiz-adv-x="554" 
d="M571 606l-11 -120q-2 -14 -8 -23.5t-20 -9.5q-11 0 -26.5 16.5t-31.5 34.5q-18 20 -41 35t-35 15q-10 0 -17.5 -7t-7.5 -20q0 -139 9.5 -227.5t21.5 -141.5t21.5 -78.5t9.5 -39.5t-11.5 -27t-39.5 -13h-183q-19 0 -31.5 21.5t-19.5 54.5t-10 72.5t-3 74.5q0 47 5.5 91
t12.5 83.5t12.5 73.5t5.5 61q0 22 -25 22q-11 0 -31.5 -14t-39.5 -33t-36 -36.5t-33 -17.5q-10 0 -18 6t-7 23l5 148q1 21 26 36t65.5 24.5t92.5 13.5t108 4q65 0 120.5 -4t95 -15.5t60 -31t15.5 -51.5z" />
    <glyph glyph-name="Oacute" unicode="&#xd3;" horiz-adv-x="611" 
d="M613 636q0 -126 -33.5 -243.5t-101 -208t-169 -145t-237.5 -54.5q-24 0 -32.5 17t-8.5 55v134q0 19 11 29t29 10q33 0 72.5 -12.5t72.5 -12.5q23 0 38 10t15 38q0 17 -19 27.5t-48 23.5t-62.5 33.5t-62.5 57.5t-48 95.5t-19 147.5q0 35 11 47t39 12h165q20 0 32 -11.5
t12 -42.5q0 -33 4.5 -67t12.5 -61t19 -44.5t25 -17.5q16 0 25 20t13.5 49t5 62.5t0.5 60.5q0 29 9 40.5t30 11.5h155q22 0 33.5 -18t11.5 -43z" />
    <glyph glyph-name="Oacute" unicode="&#x423;" horiz-adv-x="611" 
d="M613 636q0 -126 -33.5 -243.5t-101 -208t-169 -145t-237.5 -54.5q-24 0 -32.5 17t-8.5 55v134q0 19 11 29t29 10q33 0 72.5 -12.5t72.5 -12.5q23 0 38 10t15 38q0 17 -19 27.5t-48 23.5t-62.5 33.5t-62.5 57.5t-48 95.5t-19 147.5q0 35 11 47t39 12h165q20 0 32 -11.5
t12 -42.5q0 -33 4.5 -67t12.5 -61t19 -44.5t25 -17.5q16 0 25 20t13.5 49t5 62.5t0.5 60.5q0 29 9 40.5t30 11.5h155q22 0 33.5 -18t11.5 -43z" />
    <glyph glyph-name="FLW212" unicode="&#xd4;" horiz-adv-x="879" 
d="M10 541q0 24 9 51.5t32.5 51.5t63.5 39.5t102 15.5q64 0 120 -9t111 -9q52 0 108 9t120 9q62 0 102 -15.5t63.5 -39.5t32.5 -51.5t9 -51.5q0 -67 -21 -109t-53.5 -69.5t-71.5 -46t-75 -38.5q-46 -26 -64.5 -43t-19.5 -47q0 -18 6.5 -36.5t14.5 -37.5t14.5 -38t6.5 -37
q0 -15 -8 -27t-28 -12h-218q-25 0 -40 14t-15 51q0 29 2.5 57.5t2.5 59.5q0 22 -5.5 35.5t-16 23t-26.5 17.5t-37 20q-36 20 -75 38.5t-71.5 46t-53.5 69.5t-21 109zM646 517q0 18 -8.5 32t-28.5 14q-8 0 -16.5 -10t-15.5 -25t-11 -33t-4 -34q0 -41 18 -41q6 0 17.5 8.5
t22 22.5t18.5 31t8 35zM247 517q0 -18 8 -35t18.5 -31t22 -22.5t17.5 -8.5q18 0 18 41q0 16 -4.5 34t-11 33t-15 25t-16.5 10q-20 0 -28.5 -14t-8.5 -32z" />
    <glyph glyph-name="FLW212" unicode="&#x424;" horiz-adv-x="879" 
d="M10 541q0 24 9 51.5t32.5 51.5t63.5 39.5t102 15.5q64 0 120 -9t111 -9q52 0 108 9t120 9q62 0 102 -15.5t63.5 -39.5t32.5 -51.5t9 -51.5q0 -67 -21 -109t-53.5 -69.5t-71.5 -46t-75 -38.5q-46 -26 -64.5 -43t-19.5 -47q0 -18 6.5 -36.5t14.5 -37.5t14.5 -38t6.5 -37
q0 -15 -8 -27t-28 -12h-218q-25 0 -40 14t-15 51q0 29 2.5 57.5t2.5 59.5q0 22 -5.5 35.5t-16 23t-26.5 17.5t-37 20q-36 20 -75 38.5t-71.5 46t-53.5 69.5t-21 109zM646 517q0 18 -8.5 32t-28.5 14q-8 0 -16.5 -10t-15.5 -25t-11 -33t-4 -34q0 -41 18 -41q6 0 17.5 8.5
t22 22.5t18.5 31t8 35zM247 517q0 -18 8 -35t18.5 -31t22 -22.5t17.5 -8.5q18 0 18 41q0 16 -4.5 34t-11 33t-15 25t-16.5 10q-20 0 -28.5 -14t-8.5 -32z" />
    <glyph glyph-name="Otilde" unicode="&#xd5;" horiz-adv-x="610" 
d="M594 46q0 -20 -9.5 -33t-32.5 -13h-182q-37 0 -47.5 32t-11.5 73q0 24 0.5 47t-0.5 42t-5.5 30.5t-15.5 11.5q-13 0 -21.5 -17.5t-13.5 -44.5t-7 -58.5t-2 -59.5q0 -56 -48 -56h-155q-16 0 -23.5 15.5t-7.5 31.5q0 76 23.5 127t51 86.5t51 60.5t23.5 49q0 38 -19 59.5
t-42 47t-42 66t-19 116.5q0 41 35 41h146q26 0 40.5 -13t21.5 -33t9 -43t4 -43t6 -33t15 -13t18.5 12.5t11.5 32t5.5 42.5t1.5 44q0 23 13.5 35t32.5 12h145q16 0 25 -12.5t9 -30.5q0 -78 -17.5 -120.5t-38 -69.5t-38 -48t-17.5 -57q0 -16 20 -39t43.5 -59t43.5 -89t20 -129
z" />
    <glyph glyph-name="Otilde" unicode="&#x425;" horiz-adv-x="610" 
d="M594 46q0 -20 -9.5 -33t-32.5 -13h-182q-37 0 -47.5 32t-11.5 73q0 24 0.5 47t-0.5 42t-5.5 30.5t-15.5 11.5q-13 0 -21.5 -17.5t-13.5 -44.5t-7 -58.5t-2 -59.5q0 -56 -48 -56h-155q-16 0 -23.5 15.5t-7.5 31.5q0 76 23.5 127t51 86.5t51 60.5t23.5 49q0 38 -19 59.5
t-42 47t-42 66t-19 116.5q0 41 35 41h146q26 0 40.5 -13t21.5 -33t9 -43t4 -43t6 -33t15 -13t18.5 12.5t11.5 32t5.5 42.5t1.5 44q0 23 13.5 35t32.5 12h145q16 0 25 -12.5t9 -30.5q0 -78 -17.5 -120.5t-38 -69.5t-38 -48t-17.5 -57q0 -16 20 -39t43.5 -59t43.5 -89t20 -129
z" />
    <glyph glyph-name="FLW214" unicode="&#xd6;" horiz-adv-x="694" 
d="M607 402q0 -68 -9.5 -126t-9.5 -113q0 -28 18 -48.5t39.5 -43.5t39.5 -53.5t18 -78.5q0 -49 -17 -81.5t-44 -52.5t-60.5 -28.5t-66.5 -8.5q-59 0 -91.5 18t-32.5 50q0 15 15.5 22.5t34 17t34 25t15.5 45.5q0 31 -15 42.5t-36 11.5q-26 0 -59.5 -10.5t-67.5 -10.5
q-104 0 -162 26t-87 78.5t-35.5 131.5t-6.5 186q0 36 3.5 87t13 98t27.5 80t47 33h125q36 0 36 -40q0 -29 -5.5 -59t-12.5 -65.5t-12.5 -78.5t-5.5 -97q0 -29 1 -58t8.5 -52t22.5 -38t44 -15q28 0 43.5 15t22.5 39t8 53t1 57q0 54 -6.5 97t-14.5 78.5t-14.5 66t-6.5 60.5
q0 37 42 37h114q34 0 54.5 -33t32 -80t15 -97.5t3.5 -86.5z" />
    <glyph glyph-name="FLW214" unicode="&#x426;" horiz-adv-x="694" 
d="M607 402q0 -68 -9.5 -126t-9.5 -113q0 -28 18 -48.5t39.5 -43.5t39.5 -53.5t18 -78.5q0 -49 -17 -81.5t-44 -52.5t-60.5 -28.5t-66.5 -8.5q-59 0 -91.5 18t-32.5 50q0 15 15.5 22.5t34 17t34 25t15.5 45.5q0 31 -15 42.5t-36 11.5q-26 0 -59.5 -10.5t-67.5 -10.5
q-104 0 -162 26t-87 78.5t-35.5 131.5t-6.5 186q0 36 3.5 87t13 98t27.5 80t47 33h125q36 0 36 -40q0 -29 -5.5 -59t-12.5 -65.5t-12.5 -78.5t-5.5 -97q0 -29 1 -58t8.5 -52t22.5 -38t44 -15q28 0 43.5 15t22.5 39t8 53t1 57q0 54 -6.5 97t-14.5 78.5t-14.5 66t-6.5 60.5
q0 37 42 37h114q34 0 54.5 -33t32 -80t15 -97.5t3.5 -86.5z" />
    <glyph glyph-name="FLW215" unicode="&#xd7;" horiz-adv-x="640" 
d="M112 698q-17 0 -29.5 -13.5t-21 -36.5t-13 -53.5t-4.5 -64.5q0 -92 14 -148.5t37 -88.5t51.5 -43t57.5 -11q44 0 70.5 12.5t44 27t29 27t25.5 12.5q12 0 18.5 -11t6.5 -28q0 -43 -5.5 -79.5t-12.5 -66t-12.5 -52.5t-5.5 -38q0 -23 10.5 -33t44.5 -10h132q19 0 32 19
t21.5 49.5t12 70t3.5 80.5q0 67 -8 139t-8 136q0 46 -2.5 83.5t-9.5 64.5t-21 41.5t-37 14.5h-125q-32 0 -43 -15.5t-11 -46.5q0 -64 -6.5 -108.5t-18 -71.5t-26 -39t-30.5 -12q-10 0 -18 12t-8 34q0 21 5 54.5t11 66.5t11 59.5t5 33.5q0 14 -8.5 23.5t-37.5 9.5h-120z" />
    <glyph glyph-name="FLW215" unicode="&#x427;" horiz-adv-x="640" 
d="M112 698q-17 0 -29.5 -13.5t-21 -36.5t-13 -53.5t-4.5 -64.5q0 -92 14 -148.5t37 -88.5t51.5 -43t57.5 -11q44 0 70.5 12.5t44 27t29 27t25.5 12.5q12 0 18.5 -11t6.5 -28q0 -43 -5.5 -79.5t-12.5 -66t-12.5 -52.5t-5.5 -38q0 -23 10.5 -33t44.5 -10h132q19 0 32 19
t21.5 49.5t12 70t3.5 80.5q0 67 -8 139t-8 136q0 46 -2.5 83.5t-9.5 64.5t-21 41.5t-37 14.5h-125q-32 0 -43 -15.5t-11 -46.5q0 -64 -6.5 -108.5t-18 -71.5t-26 -39t-30.5 -12q-10 0 -18 12t-8 34q0 21 5 54.5t11 66.5t11 59.5t5 33.5q0 14 -8.5 23.5t-37.5 9.5h-120z" />
    <glyph glyph-name="FLW216" unicode="&#xd8;" horiz-adv-x="937" 
d="M925 402q0 -216 -72.5 -319.5t-196.5 -103.5q-41 0 -70 6t-51.5 13.5t-42.5 13.5t-44 6q-20 0 -36 -6t-35 -13.5t-44.5 -13.5t-63.5 -6q-129 0 -190.5 104.5t-61.5 317.5q0 36 3.5 87t13 98t27.5 80t47 33h125q36 0 36 -40q0 -29 -5.5 -59t-12.5 -65.5t-12.5 -78.5
t-5.5 -97q0 -29 2.5 -58t10.5 -52t23.5 -38t41.5 -15q40 0 50.5 37t10.5 95q0 31 -5 67t-11.5 73t-11.5 72t-5 65q0 39 13.5 66.5t51.5 27.5h140q47 0 47 -40q0 -29 -5.5 -59t-12.5 -65.5t-12.5 -78.5t-5.5 -97q0 -29 3 -58t10.5 -52t21 -38t34.5 -15q28 0 44.5 15t24.5 39
t10.5 53t2.5 57q0 54 -6.5 97t-14.5 78.5t-14.5 66t-6.5 60.5q0 37 42 37h114q34 0 54.5 -33t32 -80t15 -97.5t3.5 -86.5z" />
    <glyph glyph-name="FLW216" unicode="&#x428;" horiz-adv-x="937" 
d="M925 402q0 -216 -72.5 -319.5t-196.5 -103.5q-41 0 -70 6t-51.5 13.5t-42.5 13.5t-44 6q-20 0 -36 -6t-35 -13.5t-44.5 -13.5t-63.5 -6q-129 0 -190.5 104.5t-61.5 317.5q0 36 3.5 87t13 98t27.5 80t47 33h125q36 0 36 -40q0 -29 -5.5 -59t-12.5 -65.5t-12.5 -78.5
t-5.5 -97q0 -29 2.5 -58t10.5 -52t23.5 -38t41.5 -15q40 0 50.5 37t10.5 95q0 31 -5 67t-11.5 73t-11.5 72t-5 65q0 39 13.5 66.5t51.5 27.5h140q47 0 47 -40q0 -29 -5.5 -59t-12.5 -65.5t-12.5 -78.5t-5.5 -97q0 -29 3 -58t10.5 -52t21 -38t34.5 -15q28 0 44.5 15t24.5 39
t10.5 53t2.5 57q0 54 -6.5 97t-14.5 78.5t-14.5 66t-6.5 60.5q0 37 42 37h114q34 0 54.5 -33t32 -80t15 -97.5t3.5 -86.5z" />
    <glyph glyph-name="FLW217" unicode="&#xd9;" horiz-adv-x="1018" 
d="M931 402q0 -68 -9.5 -126t-9.5 -113q0 -28 18 -48.5t39.5 -43.5t39.5 -53.5t18 -78.5q0 -49 -17 -81.5t-44 -52.5t-60.5 -28.5t-66.5 -8.5q-59 0 -91.5 18t-32.5 50q0 15 15.5 22.5t34 17t34 25t15.5 45.5q0 31 -15 42.5t-36 11.5q-26 0 -59.5 -10.5t-67.5 -10.5
q-41 0 -68.5 6t-46.5 13.5t-34.5 13.5t-32.5 6q-20 0 -36 -6t-35 -13.5t-44.5 -13.5t-63.5 -6q-129 0 -190.5 104.5t-61.5 317.5q0 36 3.5 87t13 98t27.5 80t47 33h125q36 0 36 -40q0 -29 -5.5 -59t-12.5 -65.5t-12.5 -78.5t-5.5 -97q0 -29 2.5 -58t10.5 -52t23.5 -38
t41.5 -15q40 0 50.5 37t10.5 95q0 31 -5 67t-11.5 73t-11.5 72t-5 65q0 39 13.5 66.5t51.5 27.5h140q47 0 47 -40q0 -29 -5.5 -59t-12.5 -65.5t-12.5 -78.5t-5.5 -97q0 -29 1 -58t8.5 -52t22.5 -38t44 -15q28 0 43.5 15t22.5 39t8 53t1 57q0 54 -6.5 97t-14.5 78.5t-14.5 66
t-6.5 60.5q0 37 42 37h114q34 0 54.5 -33t32 -80t15 -97.5t3.5 -86.5z" />
    <glyph glyph-name="FLW217" unicode="&#x429;" horiz-adv-x="1018" 
d="M931 402q0 -68 -9.5 -126t-9.5 -113q0 -28 18 -48.5t39.5 -43.5t39.5 -53.5t18 -78.5q0 -49 -17 -81.5t-44 -52.5t-60.5 -28.5t-66.5 -8.5q-59 0 -91.5 18t-32.5 50q0 15 15.5 22.5t34 17t34 25t15.5 45.5q0 31 -15 42.5t-36 11.5q-26 0 -59.5 -10.5t-67.5 -10.5
q-41 0 -68.5 6t-46.5 13.5t-34.5 13.5t-32.5 6q-20 0 -36 -6t-35 -13.5t-44.5 -13.5t-63.5 -6q-129 0 -190.5 104.5t-61.5 317.5q0 36 3.5 87t13 98t27.5 80t47 33h125q36 0 36 -40q0 -29 -5.5 -59t-12.5 -65.5t-12.5 -78.5t-5.5 -97q0 -29 2.5 -58t10.5 -52t23.5 -38
t41.5 -15q40 0 50.5 37t10.5 95q0 31 -5 67t-11.5 73t-11.5 72t-5 65q0 39 13.5 66.5t51.5 27.5h140q47 0 47 -40q0 -29 -5.5 -59t-12.5 -65.5t-12.5 -78.5t-5.5 -97q0 -29 1 -58t8.5 -52t22.5 -38t44 -15q28 0 43.5 15t22.5 39t8 53t1 57q0 54 -6.5 97t-14.5 78.5t-14.5 66
t-6.5 60.5q0 37 42 37h114q34 0 54.5 -33t32 -80t15 -97.5t3.5 -86.5z" />
    <glyph glyph-name="FLW218" unicode="&#xda;" horiz-adv-x="796" 
d="M793 177q0 62 -20 101t-51.5 64t-70.5 39.5t-77 27.5q-25 9 -41.5 16.5t-26.5 17.5t-14.5 24t-4.5 35q0 42 15 79.5t16 70.5q0 15 -11.5 30t-31.5 15q-54 0 -94.5 3.5t-74 8t-64.5 8t-66 3.5q-48 0 -80.5 -14t-52.5 -37t-29 -52.5t-9 -61.5q0 -33 12.5 -63.5t31 -54
t39 -37.5t36.5 -14q21 0 21.5 23.5t-2.5 51.5t0 51.5t28 23.5q28 0 41 -33t13 -74q0 -44 3 -84t6.5 -81t6.5 -87t3 -102q0 -49 23 -66t55 -17q45 0 78.5 -2t63 -5t58 -5t64.5 -2q62 0 102 17.5t63.5 46t32.5 64t9 71.5zM556 160q0 -18 -8.5 -32t-28.5 -14q-8 0 -16.5 10
t-15.5 25t-11 33t-4 34q0 41 18 41q6 0 17.5 -6t22 -18t18.5 -30t8 -43z" />
    <glyph glyph-name="FLW218" unicode="&#x42a;" horiz-adv-x="796" 
d="M793 177q0 62 -20 101t-51.5 64t-70.5 39.5t-77 27.5q-25 9 -41.5 16.5t-26.5 17.5t-14.5 24t-4.5 35q0 42 15 79.5t16 70.5q0 15 -11.5 30t-31.5 15q-54 0 -94.5 3.5t-74 8t-64.5 8t-66 3.5q-48 0 -80.5 -14t-52.5 -37t-29 -52.5t-9 -61.5q0 -33 12.5 -63.5t31 -54
t39 -37.5t36.5 -14q21 0 21.5 23.5t-2.5 51.5t0 51.5t28 23.5q28 0 41 -33t13 -74q0 -44 3 -84t6.5 -81t6.5 -87t3 -102q0 -49 23 -66t55 -17q45 0 78.5 -2t63 -5t58 -5t64.5 -2q62 0 102 17.5t63.5 46t32.5 64t9 71.5zM556 160q0 -18 -8.5 -32t-28.5 -14q-8 0 -16.5 10
t-15.5 25t-11 33t-4 34q0 41 18 41q6 0 17.5 -6t22 -18t18.5 -30t8 -43z" />
    <glyph glyph-name="FLW219" unicode="&#xdb;" horiz-adv-x="889" 
d="M577 177q0 -36 -9 -71.5t-32.5 -64t-63.5 -46t-102 -17.5q-36 0 -64.5 2t-58 5t-63 5t-78.5 2q-32 0 -55 17t-23 66q0 56 -3 102t-6.5 87t-6.5 81t-3 84q0 137 21.5 202.5t65.5 65.5h165q20 0 31 -10.5t11 -25.5q0 -12 -5 -30t-11 -40t-11 -45t-5 -44t4.5 -35t14.5 -24
t26.5 -17.5t41.5 -16.5q38 -13 77 -27.5t70.5 -39.5t51.5 -64t20 -101zM340 160q0 25 -8 43t-18.5 30t-22 18t-17.5 6q-18 0 -18 -41q0 -16 4 -34t11 -33t15.5 -25t16.5 -10q20 0 28.5 14t8.5 32zM837 290q0 -41 6.5 -78.5t14 -69t14 -57.5t6.5 -45q0 -18 -12 -29t-32 -11
h-136q-33 0 -52 33.5t-28 80t-11.5 95.5t-2.5 79q0 29 0.5 71t3.5 87t8.5 90t14.5 81t23 58t33 22h158q24 0 34 -11.5t10 -33.5q0 -29 -8 -63t-18 -77t-18 -97.5t-8 -124.5z" />
    <glyph glyph-name="FLW219" unicode="&#x42b;" horiz-adv-x="889" 
d="M577 177q0 -36 -9 -71.5t-32.5 -64t-63.5 -46t-102 -17.5q-36 0 -64.5 2t-58 5t-63 5t-78.5 2q-32 0 -55 17t-23 66q0 56 -3 102t-6.5 87t-6.5 81t-3 84q0 137 21.5 202.5t65.5 65.5h165q20 0 31 -10.5t11 -25.5q0 -12 -5 -30t-11 -40t-11 -45t-5 -44t4.5 -35t14.5 -24
t26.5 -17.5t41.5 -16.5q38 -13 77 -27.5t70.5 -39.5t51.5 -64t20 -101zM340 160q0 25 -8 43t-18.5 30t-22 18t-17.5 6q-18 0 -18 -41q0 -16 4 -34t11 -33t15.5 -25t16.5 -10q20 0 28.5 14t8.5 32zM837 290q0 -41 6.5 -78.5t14 -69t14 -57.5t6.5 -45q0 -18 -12 -29t-32 -11
h-136q-33 0 -52 33.5t-28 80t-11.5 95.5t-2.5 79q0 29 0.5 71t3.5 87t8.5 90t14.5 81t23 58t33 22h158q24 0 34 -11.5t10 -33.5q0 -29 -8 -63t-18 -77t-18 -97.5t-8 -124.5z" />
    <glyph glyph-name="FLW220" unicode="&#xdc;" horiz-adv-x="580" 
d="M577 177q0 62 -20 101t-51.5 64t-70.5 39.5t-77 27.5q-25 9 -41.5 16.5t-26.5 17.5t-14.5 24t-4.5 35t5 44t11 45t11 40t5 30q0 15 -11 25.5t-31 10.5h-165q-44 0 -65.5 -65.5t-21.5 -202.5q0 -44 3 -84t6.5 -81t6.5 -87t3 -102q0 -49 23 -66t55 -17q45 0 78.5 -2t63 -5
t58 -5t64.5 -2q62 0 102 17.5t63.5 46t32.5 64t9 71.5zM340 160q0 -18 -8.5 -32t-28.5 -14q-8 0 -16.5 10t-15.5 25t-11 33t-4 34q0 41 18 41q6 0 17.5 -6t22 -18t18.5 -30t8 -43z" />
    <glyph glyph-name="FLW220" unicode="&#x42c;" horiz-adv-x="580" 
d="M577 177q0 62 -20 101t-51.5 64t-70.5 39.5t-77 27.5q-25 9 -41.5 16.5t-26.5 17.5t-14.5 24t-4.5 35t5 44t11 45t11 40t5 30q0 15 -11 25.5t-31 10.5h-165q-44 0 -65.5 -65.5t-21.5 -202.5q0 -44 3 -84t6.5 -81t6.5 -87t3 -102q0 -49 23 -66t55 -17q45 0 78.5 -2t63 -5
t58 -5t64.5 -2q62 0 102 17.5t63.5 46t32.5 64t9 71.5zM340 160q0 -18 -8.5 -32t-28.5 -14q-8 0 -16.5 10t-15.5 25t-11 33t-4 34q0 41 18 41q6 0 17.5 -6t22 -18t18.5 -30t8 -43z" />
    <glyph glyph-name="FLW221" unicode="&#xdd;" horiz-adv-x="593" 
d="M21 197q0 -52 21.5 -92.5t56 -69t78.5 -43.5t89 -15q70 0 128 27t100 75.5t65 115t23 145.5q0 85 -25 154.5t-70 119t-108.5 76.5t-140.5 27q-37 0 -70.5 -11.5t-59.5 -29.5t-41.5 -39.5t-15.5 -41.5q0 -50 36 -80t88 -30q15 0 20 11.5t10 26t12.5 26t26.5 11.5
q16 0 30.5 -9.5t26 -23.5t18 -31t6.5 -32t-6 -25.5t-22 -10.5q-20 0 -46.5 6.5t-60.5 6.5q-28 0 -56 -9.5t-28 -31.5q0 -18 3 -44.5t9 -51.5t14.5 -42.5t19.5 -17.5q13 0 26 9t29.5 20.5t38 20.5t50.5 9q16 0 22.5 -9.5t6.5 -22.5q0 -18 -9.5 -37t-27.5 -34.5t-43 -26
t-57 -10.5q-30 0 -50 13.5t-35 29.5t-27.5 29.5t-27.5 13.5q-10 0 -18.5 -11.5t-8.5 -40.5z" />
    <glyph glyph-name="FLW221" unicode="&#x42d;" horiz-adv-x="593" 
d="M21 197q0 -52 21.5 -92.5t56 -69t78.5 -43.5t89 -15q70 0 128 27t100 75.5t65 115t23 145.5q0 85 -25 154.5t-70 119t-108.5 76.5t-140.5 27q-37 0 -70.5 -11.5t-59.5 -29.5t-41.5 -39.5t-15.5 -41.5q0 -50 36 -80t88 -30q15 0 20 11.5t10 26t12.5 26t26.5 11.5
q16 0 30.5 -9.5t26 -23.5t18 -31t6.5 -32t-6 -25.5t-22 -10.5q-20 0 -46.5 6.5t-60.5 6.5q-28 0 -56 -9.5t-28 -31.5q0 -18 3 -44.5t9 -51.5t14.5 -42.5t19.5 -17.5q13 0 26 9t29.5 20.5t38 20.5t50.5 9q16 0 22.5 -9.5t6.5 -22.5q0 -18 -9.5 -37t-27.5 -34.5t-43 -26
t-57 -10.5q-30 0 -50 13.5t-35 29.5t-27.5 29.5t-27.5 13.5q-10 0 -18.5 -11.5t-8.5 -40.5z" />
    <glyph glyph-name="FLW222" unicode="&#xde;" horiz-adv-x="994" 
d="M267 200q0 -29 5.5 -52.5t12 -43t12.5 -35.5t6 -30q0 -16 -13 -27.5t-50 -11.5h-125q-39 0 -66 78t-27 252q0 39 5 101.5t17 121.5t33 102t53 43h134q24 0 34.5 -12.5t10.5 -34.5q0 -12 -6.5 -33.5t-14.5 -46t-14.5 -49.5t-6.5 -45q0 -13 12.5 -20t31.5 -7q27 0 55 13.5
t44 45.5q20 45 47 84t59 67.5t69.5 44.5t79.5 16q62 0 118.5 -42.5t99.5 -110t68 -152t25 -168.5q0 -46 -14 -92.5t-45.5 -83.5t-81.5 -60t-123 -23h-96q-63 0 -111.5 22t-82 57.5t-50.5 80.5t-17 92q0 24 -4.5 37.5t-16.5 13.5q-10 0 -22 -8.5t-22 -21.5t-16.5 -29.5
t-6.5 -32.5zM738 268q0 26 -2.5 68.5t-10.5 83.5t-22.5 70.5t-37.5 29.5q-22 0 -35.5 -29.5t-21 -70.5t-10.5 -83.5t-3 -67.5q0 -48 15 -67t56 -19q43 0 57.5 19t14.5 66z" />
    <glyph glyph-name="FLW222" unicode="&#x42e;" horiz-adv-x="994" 
d="M267 200q0 -29 5.5 -52.5t12 -43t12.5 -35.5t6 -30q0 -16 -13 -27.5t-50 -11.5h-125q-39 0 -66 78t-27 252q0 39 5 101.5t17 121.5t33 102t53 43h134q24 0 34.5 -12.5t10.5 -34.5q0 -12 -6.5 -33.5t-14.5 -46t-14.5 -49.5t-6.5 -45q0 -13 12.5 -20t31.5 -7q27 0 55 13.5
t44 45.5q20 45 47 84t59 67.5t69.5 44.5t79.5 16q62 0 118.5 -42.5t99.5 -110t68 -152t25 -168.5q0 -46 -14 -92.5t-45.5 -83.5t-81.5 -60t-123 -23h-96q-63 0 -111.5 22t-82 57.5t-50.5 80.5t-17 92q0 24 -4.5 37.5t-16.5 13.5q-10 0 -22 -8.5t-22 -21.5t-16.5 -29.5
t-6.5 -32.5zM738 268q0 26 -2.5 68.5t-10.5 83.5t-22.5 70.5t-37.5 29.5q-22 0 -35.5 -29.5t-21 -70.5t-10.5 -83.5t-3 -67.5q0 -48 15 -67t56 -19q43 0 57.5 19t14.5 66z" />
    <glyph glyph-name="FLW223" unicode="&#xdf;" horiz-adv-x="636" 
d="M26 35q0 -35 41 -35h131q31 0 44.5 2t19.5 11t9 28t14 52q14 44 25 72t20 43.5t16.5 21t14.5 5.5q24 0 24 -30q0 -17 -3.5 -38.5t-7.5 -44.5t-7.5 -45.5t-3.5 -40.5q0 -36 36 -36h161q21 0 34.5 21.5t21.5 57t11.5 82t3.5 97.5q0 68 -9 140t-9 128q0 38 -2.5 70.5
t-10.5 56.5t-23.5 38t-41.5 14q-41 0 -104 -4t-129 -4q-49 0 -94.5 -6.5t-80 -23.5t-55 -47t-20.5 -77q0 -42 23.5 -85t80.5 -94q12 -9 12 -19t-14 -27q-27 -32 -50.5 -72.5t-40.5 -80t-27 -74.5t-10 -56zM292 518q0 18 10 32t26 14q22 0 40.5 -33.5t18.5 -85.5
q0 -28 -22 -28q-17 0 -30.5 11.5t-23 27.5t-14.5 33t-5 29z" />
    <glyph glyph-name="FLW223" unicode="&#x42f;" horiz-adv-x="636" 
d="M26 35q0 -35 41 -35h131q31 0 44.5 2t19.5 11t9 28t14 52q14 44 25 72t20 43.5t16.5 21t14.5 5.5q24 0 24 -30q0 -17 -3.5 -38.5t-7.5 -44.5t-7.5 -45.5t-3.5 -40.5q0 -36 36 -36h161q21 0 34.5 21.5t21.5 57t11.5 82t3.5 97.5q0 68 -9 140t-9 128q0 38 -2.5 70.5
t-10.5 56.5t-23.5 38t-41.5 14q-41 0 -104 -4t-129 -4q-49 0 -94.5 -6.5t-80 -23.5t-55 -47t-20.5 -77q0 -42 23.5 -85t80.5 -94q12 -9 12 -19t-14 -27q-27 -32 -50.5 -72.5t-40.5 -80t-27 -74.5t-10 -56zM292 518q0 18 10 32t26 14q22 0 40.5 -33.5t18.5 -85.5
q0 -28 -22 -28q-17 0 -30.5 11.5t-23 27.5t-14.5 33t-5 29z" />
    <glyph glyph-name="agrave" unicode="&#xe0;" horiz-adv-x="489" 
d="M444 210q0 -39 6 -56t14 -25t14 -13.5t6 -22.5q0 -13 -6 -32t-19.5 -36t-35.5 -29.5t-53 -12.5q-30 0 -52.5 2.5t-44.5 6t-47.5 6t-62.5 2.5q-68 0 -106 39t-38 108q0 30 8 57t27.5 51t52 44.5t82.5 36.5q35 11 44.5 23.5t9.5 23.5q0 12 -9.5 21.5t-25.5 9.5
q-15 0 -29 -9t-26.5 -20t-24 -20.5t-22.5 -9.5q-30 0 -51 26t-21 57q1 52 48.5 77t108.5 25q137 0 195 -79.5t58 -250.5zM244 186q0 37 -4.5 50.5t-13.5 13.5q-16 0 -28.5 -17.5t-12.5 -35.5q0 -39 12 -53t22 -14q17 0 21 16t4 40z" />
    <glyph glyph-name="agrave" unicode="&#x430;" horiz-adv-x="489" 
d="M444 210q0 -39 6 -56t14 -25t14 -13.5t6 -22.5q0 -13 -6 -32t-19.5 -36t-35.5 -29.5t-53 -12.5q-30 0 -52.5 2.5t-44.5 6t-47.5 6t-62.5 2.5q-68 0 -106 39t-38 108q0 30 8 57t27.5 51t52 44.5t82.5 36.5q35 11 44.5 23.5t9.5 23.5q0 12 -9.5 21.5t-25.5 9.5
q-15 0 -29 -9t-26.5 -20t-24 -20.5t-22.5 -9.5q-30 0 -51 26t-21 57q1 52 48.5 77t108.5 25q137 0 195 -79.5t58 -250.5zM244 186q0 37 -4.5 50.5t-13.5 13.5q-16 0 -28.5 -17.5t-12.5 -35.5q0 -39 12 -53t22 -14q17 0 21 16t4 40z" />
    <glyph glyph-name="aacute" unicode="&#xe1;" horiz-adv-x="505" 
d="M494 297q0 -66 -14 -121t-43.5 -94t-75.5 -60.5t-110 -21.5q-45 0 -85.5 20t-71 65t-48.5 117.5t-18 178.5q0 119 26 210t62.5 153t74.5 94t62 32h194q38 0 38 -31q0 -21 -36 -44q-33 -21 -71 -54.5t-70.5 -71t-54 -75t-21.5 -65.5q0 -7 5 -13t12 -6q15 0 36.5 13
t48.5 13q41 0 71 -18.5t50 -51t29.5 -76t9.5 -93.5zM289 287q0 65 -12 92t-27 27q-17 0 -28 -27t-11 -92q0 -70 12.5 -91.5t25.5 -21.5q7 0 14 4.5t13 17t9.5 34.5t3.5 57z" />
    <glyph glyph-name="aacute" unicode="&#x431;" horiz-adv-x="505" 
d="M494 297q0 -66 -14 -121t-43.5 -94t-75.5 -60.5t-110 -21.5q-45 0 -85.5 20t-71 65t-48.5 117.5t-18 178.5q0 119 26 210t62.5 153t74.5 94t62 32h194q38 0 38 -31q0 -21 -36 -44q-33 -21 -71 -54.5t-70.5 -71t-54 -75t-21.5 -65.5q0 -7 5 -13t12 -6q15 0 36.5 13
t48.5 13q41 0 71 -18.5t50 -51t29.5 -76t9.5 -93.5zM289 287q0 65 -12 92t-27 27q-17 0 -28 -27t-11 -92q0 -70 12.5 -91.5t25.5 -21.5q7 0 14 4.5t13 17t9.5 34.5t3.5 57z" />
    <glyph glyph-name="acircumflex" unicode="&#xe2;" horiz-adv-x="504" 
d="M494 232q0 -46 -14.5 -88.5t-44 -74t-75.5 -50.5t-109 -19q-45 0 -85.5 12t-71 50.5t-48.5 111.5t-18 196q0 119 34.5 212t82.5 157t99.5 97.5t84.5 33.5q46 0 74.5 -11t44.5 -30.5t21.5 -45t5.5 -54.5q0 -67 -19.5 -120.5t-46 -91t-53.5 -58t-42 -20.5q-14 0 -23 4.5
t-9 25.5q0 8 11 24.5t24.5 41t24.5 56.5t11 71q0 11 -6.5 20t-14.5 9q-16 0 -33 -23t-30.5 -57.5t-23.5 -75t-12.5 -75t4.5 -57.5t25 -23q23 0 42.5 12.5t51.5 11.5q25 -1 50 -10.5t44.5 -30.5t31.5 -53t12 -78zM306 200q0 44 -12 62t-26 18q-16 0 -26 -17.5t-10 -64.5
q0 -35 12 -51.5t24 -16.5t25 16.5t13 53.5z" />
    <glyph glyph-name="acircumflex" unicode="&#x432;" horiz-adv-x="504" 
d="M494 232q0 -46 -14.5 -88.5t-44 -74t-75.5 -50.5t-109 -19q-45 0 -85.5 12t-71 50.5t-48.5 111.5t-18 196q0 119 34.5 212t82.5 157t99.5 97.5t84.5 33.5q46 0 74.5 -11t44.5 -30.5t21.5 -45t5.5 -54.5q0 -67 -19.5 -120.5t-46 -91t-53.5 -58t-42 -20.5q-14 0 -23 4.5
t-9 25.5q0 8 11 24.5t24.5 41t24.5 56.5t11 71q0 11 -6.5 20t-14.5 9q-16 0 -33 -23t-30.5 -57.5t-23.5 -75t-12.5 -75t4.5 -57.5t25 -23q23 0 42.5 12.5t51.5 11.5q25 -1 50 -10.5t44.5 -30.5t31.5 -53t12 -78zM306 200q0 44 -12 62t-26 18q-16 0 -26 -17.5t-10 -64.5
q0 -35 12 -51.5t24 -16.5t25 16.5t13 53.5z" />
    <glyph glyph-name="atilde" unicode="&#xe3;" horiz-adv-x="447" 
d="M18 148q0 -83 55 -126.5t152 -43.5q46 0 85.5 14.5t68 40t45 59t16.5 72.5q0 33 -9 45.5t-22 12.5q-11 0 -23.5 -15t-29 -33.5t-37.5 -33.5t-47 -15q-46 0 -46 36q0 25 32.5 43.5t74.5 44.5q37 23 64 59t27 79q0 82 -56.5 122t-156.5 40q-35 0 -67.5 -10.5t-57.5 -25.5
t-40 -30.5t-15 -25.5q0 -15 14 -35l35 -49q12 -16 28 -16q10 0 17 9t16 20t22 20t34 9q11 0 19.5 -8t8.5 -22q0 -13 -12.5 -24t-31.5 -21t-41 -21t-41 -24q-43 -31 -62 -67t-19 -80z" />
    <glyph glyph-name="atilde" unicode="&#x433;" horiz-adv-x="447" 
d="M18 148q0 -83 55 -126.5t152 -43.5q46 0 85.5 14.5t68 40t45 59t16.5 72.5q0 33 -9 45.5t-22 12.5q-11 0 -23.5 -15t-29 -33.5t-37.5 -33.5t-47 -15q-46 0 -46 36q0 25 32.5 43.5t74.5 44.5q37 23 64 59t27 79q0 82 -56.5 122t-156.5 40q-35 0 -67.5 -10.5t-57.5 -25.5
t-40 -30.5t-15 -25.5q0 -15 14 -35l35 -49q12 -16 28 -16q10 0 17 9t16 20t22 20t34 9q11 0 19.5 -8t8.5 -22q0 -13 -12.5 -24t-31.5 -21t-41 -21t-41 -24q-43 -31 -62 -67t-19 -80z" />
    <glyph glyph-name="adieresis" unicode="&#xe4;" horiz-adv-x="505" 
d="M28 297q0 -67 12.5 -122t40 -94t72 -60t108.5 -21q45 0 87 21t74.5 67t52 118.5t19.5 174.5q0 100 -31.5 189t-89 155.5t-138.5 105.5t-180 39q-25 0 -36 -10.5t-11 -37.5v-151q0 -23 9 -33t33 -10q28 0 60 6.5t67 6.5q47 0 80 -23.5t33 -88.5q0 -7 -5 -13t-12 -6
q-15 0 -36.5 13t-48.5 13q-41 0 -71 -18.5t-50 -51t-29.5 -76t-9.5 -93.5zM232 287q0 65 9 92.5t20 27.5q13 0 21 -27.5t8 -92.5q0 -70 -9 -91.5t-19 -21.5q-5 0 -10.5 4.5t-10 17t-7 34.5t-2.5 57z" />
    <glyph glyph-name="adieresis" unicode="&#x434;" horiz-adv-x="505" 
d="M28 297q0 -67 12.5 -122t40 -94t72 -60t108.5 -21q45 0 87 21t74.5 67t52 118.5t19.5 174.5q0 100 -31.5 189t-89 155.5t-138.5 105.5t-180 39q-25 0 -36 -10.5t-11 -37.5v-151q0 -23 9 -33t33 -10q28 0 60 6.5t67 6.5q47 0 80 -23.5t33 -88.5q0 -7 -5 -13t-12 -6
q-15 0 -36.5 13t-48.5 13q-41 0 -71 -18.5t-50 -51t-29.5 -76t-9.5 -93.5zM232 287q0 65 9 92.5t20 27.5q13 0 21 -27.5t8 -92.5q0 -70 -9 -91.5t-19 -21.5q-5 0 -10.5 4.5t-10 17t-7 34.5t-2.5 57z" />
    <glyph glyph-name="aring" unicode="&#xe5;" horiz-adv-x="487" 
d="M482 174q0 -34 -15 -68.5t-44 -62.5t-72 -45t-99 -17t-99 22.5t-72 61t-44 90.5t-15 112q0 72 20.5 124.5t56 87t82.5 51.5t100 17q41 0 76.5 -11t61.5 -31t41 -47.5t15 -60.5q0 -42 -17.5 -68.5t-43.5 -43.5t-57 -28t-57 -21.5t-43.5 -23t-17.5 -33.5q0 -23 21.5 -32.5
t46.5 -9.5q26 0 49 13.5t42.5 29.5t35 29.5t27.5 13.5q8 0 14.5 -14.5t6.5 -34.5zM232 341q7 0 16.5 5t18.5 13.5t15.5 19.5t6.5 24q0 14 -17 14q-18 0 -39 -14.5t-21 -43.5q0 -5 4.5 -11.5t15.5 -6.5z" />
    <glyph glyph-name="aring" unicode="&#x435;" horiz-adv-x="487" 
d="M482 174q0 -34 -15 -68.5t-44 -62.5t-72 -45t-99 -17t-99 22.5t-72 61t-44 90.5t-15 112q0 72 20.5 124.5t56 87t82.5 51.5t100 17q41 0 76.5 -11t61.5 -31t41 -47.5t15 -60.5q0 -42 -17.5 -68.5t-43.5 -43.5t-57 -28t-57 -21.5t-43.5 -23t-17.5 -33.5q0 -23 21.5 -32.5
t46.5 -9.5q26 0 49 13.5t42.5 29.5t35 29.5t27.5 13.5q8 0 14.5 -14.5t6.5 -34.5zM232 341q7 0 16.5 5t18.5 13.5t15.5 19.5t6.5 24q0 14 -17 14q-18 0 -39 -14.5t-21 -43.5q0 -5 4.5 -11.5t15.5 -6.5z" />
    <glyph glyph-name="ae" unicode="&#xe6;" horiz-adv-x="802" 
d="M47 149q9 34 24.5 57t31.5 39.5t27.5 29.5t11.5 27q0 6 -6 19.5t-23 33.5q-13 16 -23 37t-16.5 42t-10 38.5t-3.5 26.5q0 19 13.5 24.5t47.5 5.5h99q31 0 40 -18.5t9 -69.5q0 -17 10.5 -31.5t20.5 -14.5q12 0 12 22q0 19 -6.5 42.5t-6.5 37.5q0 19 10.5 25.5t45.5 6.5
h113q35 0 45.5 -6.5t10.5 -25.5q0 -14 -6.5 -37.5t-6.5 -42.5q0 -22 12 -22q10 0 20.5 14.5t10.5 31.5q0 51 9 69.5t40 18.5h99q34 0 47.5 -5.5t13.5 -24.5q0 -9 -3.5 -26.5t-10 -38.5t-16.5 -42t-23 -37q-17 -20 -23 -33.5t-6 -19.5q0 -14 11.5 -27t27.5 -29.5t31.5 -39.5
t24.5 -57q15 -47 22 -73.5t7 -40.5q0 -13 -9 -24t-31 -11h-132q-26 0 -35.5 10.5t-12.5 33.5l-12 104q-8 59 -28 59q-18 0 -28 -17.5t-17 -44t-12 -57.5t-12 -59q-16 -65 -68 -65q-25 0 -41 17t-25 47q-8 27 -14 58.5t-12.5 58t-15 44t-22.5 17.5q-16 0 -25 -59l-15 -103
q-4 -23 -13 -33.5t-35 -10.5h-132q-22 0 -31 11t-9 24q0 14 7 40.5t22 73.5z" />
    <glyph glyph-name="ae" unicode="&#x436;" horiz-adv-x="802" 
d="M47 149q9 34 24.5 57t31.5 39.5t27.5 29.5t11.5 27q0 6 -6 19.5t-23 33.5q-13 16 -23 37t-16.5 42t-10 38.5t-3.5 26.5q0 19 13.5 24.5t47.5 5.5h99q31 0 40 -18.5t9 -69.5q0 -17 10.5 -31.5t20.5 -14.5q12 0 12 22q0 19 -6.5 42.5t-6.5 37.5q0 19 10.5 25.5t45.5 6.5
h113q35 0 45.5 -6.5t10.5 -25.5q0 -14 -6.5 -37.5t-6.5 -42.5q0 -22 12 -22q10 0 20.5 14.5t10.5 31.5q0 51 9 69.5t40 18.5h99q34 0 47.5 -5.5t13.5 -24.5q0 -9 -3.5 -26.5t-10 -38.5t-16.5 -42t-23 -37q-17 -20 -23 -33.5t-6 -19.5q0 -14 11.5 -27t27.5 -29.5t31.5 -39.5
t24.5 -57q15 -47 22 -73.5t7 -40.5q0 -13 -9 -24t-31 -11h-132q-26 0 -35.5 10.5t-12.5 33.5l-12 104q-8 59 -28 59q-18 0 -28 -17.5t-17 -44t-12 -57.5t-12 -59q-16 -65 -68 -65q-25 0 -41 17t-25 47q-8 27 -14 58.5t-12.5 58t-15 44t-22.5 17.5q-16 0 -25 -59l-15 -103
q-4 -23 -13 -33.5t-35 -10.5h-132q-22 0 -31 11t-9 24q0 14 7 40.5t22 73.5z" />
    <glyph glyph-name="ccedilla" unicode="&#xe7;" horiz-adv-x="478" 
d="M239 325q0 61 -38 61q-20 0 -30 -12t-17 -26.5t-15 -26.5t-23 -12q-96 0 -96 94q0 42 19 69t48 43t65 22.5t70 6.5q54 0 94 -18.5t66.5 -48t40 -67t13.5 -75.5q0 -42 -15.5 -66t-33.5 -39t-33.5 -26.5t-15.5 -30.5q0 -15 10 -20t24.5 -7.5t31.5 -6.5t31.5 -17.5
t24.5 -39.5t10 -73q0 -53 -18 -113t-43.5 -110t-52.5 -83t-45 -33h-205q-22 0 -30.5 11t-8.5 32q0 17 31.5 48.5t68.5 73.5t68.5 91.5t31.5 102.5q0 19 -8 26.5t-20 7.5q-10 0 -24 -7t-30.5 -16t-35.5 -16t-40 -7q-24 0 -33 10.5t-9 32.5q0 23 27 44.5t59 50t59 69t27 101.5
z" />
    <glyph glyph-name="ccedilla" unicode="&#x437;" horiz-adv-x="478" 
d="M239 325q0 61 -38 61q-20 0 -30 -12t-17 -26.5t-15 -26.5t-23 -12q-96 0 -96 94q0 42 19 69t48 43t65 22.5t70 6.5q54 0 94 -18.5t66.5 -48t40 -67t13.5 -75.5q0 -42 -15.5 -66t-33.5 -39t-33.5 -26.5t-15.5 -30.5q0 -15 10 -20t24.5 -7.5t31.5 -6.5t31.5 -17.5
t24.5 -39.5t10 -73q0 -53 -18 -113t-43.5 -110t-52.5 -83t-45 -33h-205q-22 0 -30.5 11t-8.5 32q0 17 31.5 48.5t68.5 73.5t68.5 91.5t31.5 102.5q0 19 -8 26.5t-20 7.5q-10 0 -24 -7t-30.5 -16t-35.5 -16t-40 -7q-24 0 -33 10.5t-9 32.5q0 23 27 44.5t59 50t59 69t27 101.5
z" />
    <glyph glyph-name="egrave" unicode="&#xe8;" horiz-adv-x="563" 
d="M516 361q0 -34 -1 -57t-2 -40.5t-2 -32t-1 -32.5q0 -32 7 -45.5t15 -21.5t15 -17t7 -31q0 -14 -8 -28.5t-21.5 -27t-32 -20.5t-38.5 -8q-36 0 -57 7.5t-34.5 16.5t-22.5 16t-21 7q-16 0 -26 -9t-22.5 -19.5t-32 -19.5t-53.5 -9q-49 0 -80 24t-48.5 64t-24 92t-6.5 108
q0 70 3 119t12 79.5t27 44t48 13.5h106q39 0 39 -31q0 -41 -13 -103t-13 -136q0 -56 8 -81t21 -25q14 0 26.5 33t12.5 108q0 41 -1.5 71t-3 53.5t-3 42.5t-1.5 38q0 20 15.5 25t39.5 5h98q19 0 32 -14t21.5 -38t12 -55t3.5 -66z" />
    <glyph glyph-name="egrave" unicode="&#x438;" horiz-adv-x="563" 
d="M516 361q0 -34 -1 -57t-2 -40.5t-2 -32t-1 -32.5q0 -32 7 -45.5t15 -21.5t15 -17t7 -31q0 -14 -8 -28.5t-21.5 -27t-32 -20.5t-38.5 -8q-36 0 -57 7.5t-34.5 16.5t-22.5 16t-21 7q-16 0 -26 -9t-22.5 -19.5t-32 -19.5t-53.5 -9q-49 0 -80 24t-48.5 64t-24 92t-6.5 108
q0 70 3 119t12 79.5t27 44t48 13.5h106q39 0 39 -31q0 -41 -13 -103t-13 -136q0 -56 8 -81t21 -25q14 0 26.5 33t12.5 108q0 41 -1.5 71t-3 53.5t-3 42.5t-1.5 38q0 20 15.5 25t39.5 5h98q19 0 32 -14t21.5 -38t12 -55t3.5 -66z" />
    <glyph glyph-name="eacute" unicode="&#xe9;" horiz-adv-x="565" 
d="M516 361q0 -34 -1 -57t-2 -40.5t-2 -32t-1 -32.5q0 -32 7 -45.5t15 -21.5t15 -17t7 -31q0 -14 -8 -28.5t-21.5 -27t-32 -20.5t-38.5 -8q-36 0 -57 7.5t-34.5 16.5t-22.5 16t-21 7q-16 0 -26 -9t-22.5 -19.5t-32 -19.5t-53.5 -9q-49 0 -80 24t-48.5 64t-24 92t-6.5 108
q0 70 3 119t12 79.5t27 44t48 13.5h106q39 0 39 -31q0 -41 -13 -103t-13 -136q0 -56 8 -81t21 -25q14 0 26.5 33t12.5 108q0 41 -1.5 71t-3 53.5t-3 42.5t-1.5 38q0 20 15.5 25t39.5 5h98q19 0 32 -14t21.5 -38t12 -55t3.5 -66zM310 593q37 0 71 14.5t60 36.5t41.5 47
t15.5 46q0 9 -7.5 30.5t-21 44t-31.5 39.5t-40 17q-19 0 -29 -20.5t-23.5 -45t-36 -45t-67.5 -20.5q-18 0 -28.5 10t-10.5 26q0 15 9 29t20 26.5t20.5 24t9.5 22.5q0 30 -26 51t-57 21q-53 -1 -77.5 -44t-24.5 -104q0 -52 19.5 -91t51.5 -64.5t74 -38t88 -12.5z" />
    <glyph glyph-name="eacute" unicode="&#x439;" horiz-adv-x="565" 
d="M516 361q0 -34 -1 -57t-2 -40.5t-2 -32t-1 -32.5q0 -32 7 -45.5t15 -21.5t15 -17t7 -31q0 -14 -8 -28.5t-21.5 -27t-32 -20.5t-38.5 -8q-36 0 -57 7.5t-34.5 16.5t-22.5 16t-21 7q-16 0 -26 -9t-22.5 -19.5t-32 -19.5t-53.5 -9q-49 0 -80 24t-48.5 64t-24 92t-6.5 108
q0 70 3 119t12 79.5t27 44t48 13.5h106q39 0 39 -31q0 -41 -13 -103t-13 -136q0 -56 8 -81t21 -25q14 0 26.5 33t12.5 108q0 41 -1.5 71t-3 53.5t-3 42.5t-1.5 38q0 20 15.5 25t39.5 5h98q19 0 32 -14t21.5 -38t12 -55t3.5 -66zM310 593q37 0 71 14.5t60 36.5t41.5 47
t15.5 46q0 9 -7.5 30.5t-21 44t-31.5 39.5t-40 17q-19 0 -29 -20.5t-23.5 -45t-36 -45t-67.5 -20.5q-18 0 -28.5 10t-10.5 26q0 15 9 29t20 26.5t20.5 24t9.5 22.5q0 30 -26 51t-57 21q-53 -1 -77.5 -44t-24.5 -104q0 -52 19.5 -91t51.5 -64.5t74 -38t88 -12.5z" />
    <glyph glyph-name="ecircumflex" unicode="&#xea;" horiz-adv-x="515" 
d="M489 149q15 -47 22 -73.5t7 -40.5q0 -13 -9 -24t-31 -11h-132q-26 0 -35 10.5t-13 33.5l-15 103q-9 59 -25 59q-11 0 -15.5 -14t-4.5 -34q0 -19 3 -39t7 -38.5t7 -33t3 -21.5q0 -16 -12 -21t-45 -5h-122q-23 0 -37 50t-14 141q0 47 3 82t3 75q0 28 -3 54.5t-3 34.5
q0 43 11 67.5t39 24.5h103q35 0 45.5 -6.5t10.5 -25.5q0 -14 -6.5 -37.5t-6.5 -42.5q0 -22 12 -22q10 0 20.5 14.5t10.5 31.5q0 51 9 69.5t40 18.5h99q34 0 47.5 -5.5t13.5 -24.5q0 -9 -3.5 -26.5t-10 -38.5t-16.5 -42t-23 -37q-17 -20 -23 -33.5t-6 -19.5q0 -14 11.5 -27
t27.5 -29.5t31.5 -39.5t24.5 -57z" />
    <glyph glyph-name="ecircumflex" unicode="&#x43a;" horiz-adv-x="515" 
d="M489 149q15 -47 22 -73.5t7 -40.5q0 -13 -9 -24t-31 -11h-132q-26 0 -35 10.5t-13 33.5l-15 103q-9 59 -25 59q-11 0 -15.5 -14t-4.5 -34q0 -19 3 -39t7 -38.5t7 -33t3 -21.5q0 -16 -12 -21t-45 -5h-122q-23 0 -37 50t-14 141q0 47 3 82t3 75q0 28 -3 54.5t-3 34.5
q0 43 11 67.5t39 24.5h103q35 0 45.5 -6.5t10.5 -25.5q0 -14 -6.5 -37.5t-6.5 -42.5q0 -22 12 -22q10 0 20.5 14.5t10.5 31.5q0 51 9 69.5t40 18.5h99q34 0 47.5 -5.5t13.5 -24.5q0 -9 -3.5 -26.5t-10 -38.5t-16.5 -42t-23 -37q-17 -20 -23 -33.5t-6 -19.5q0 -14 11.5 -27
t27.5 -29.5t31.5 -39.5t24.5 -57z" />
    <glyph glyph-name="edieresis" unicode="&#xeb;" horiz-adv-x="523" 
d="M501 35q0 80 -9 141.5t-22 106t-26 74t-22 45.5q-15 28 -35 55t-41.5 48t-44 34t-42.5 13q-21 0 -43.5 -13t-44 -34t-41 -47.5t-34.5 -53.5q-9 -17 -23 -46.5t-27 -74.5t-22 -107t-9 -143q0 -20 11 -26.5t35 -6.5h139q5 0 17.5 3t12.5 16q-1 16 -6 60.5t-5 90.5
q1 51 12 88.5t30 37.5t31 -37t12 -87q0 -55 -5 -87.5t-5 -63.5q0 -16 15 -18.5t33 -2.5h124q26 0 30.5 8t4.5 27z" />
    <glyph glyph-name="edieresis" unicode="&#x43b;" horiz-adv-x="523" 
d="M501 35q0 80 -9 141.5t-22 106t-26 74t-22 45.5q-15 28 -35 55t-41.5 48t-44 34t-42.5 13q-21 0 -43.5 -13t-44 -34t-41 -47.5t-34.5 -53.5q-9 -17 -23 -46.5t-27 -74.5t-22 -107t-9 -143q0 -20 11 -26.5t35 -6.5h139q5 0 17.5 3t12.5 16q-1 16 -6 60.5t-5 90.5
q1 51 12 88.5t30 37.5t31 -37t12 -87q0 -55 -5 -87.5t-5 -63.5q0 -16 15 -18.5t33 -2.5h124q26 0 30.5 8t4.5 27z" />
    <glyph glyph-name="igrave" unicode="&#xec;" horiz-adv-x="721" 
d="M716 61q0 74 -20.5 159.5t-52.5 158t-71 120.5t-75 48q-14 0 -27.5 -10.5t-26 -26.5t-23 -36t-18.5 -38q-5 -13 -9.5 -21t-15.5 -8q-13 0 -16 7t-11 21q-9 17 -21.5 36.5t-27.5 36t-30 28t-29 11.5q-40 0 -80 -48t-72 -120.5t-52 -157.5t-20 -159q0 -40 10.5 -51
t37.5 -11h118q20 0 30 13.5t13.5 36.5t3 53t-0.5 63q0 35 9.5 60.5t31.5 25.5q9 0 15 -13t6 -41q0 -24 -6.5 -65t-6.5 -86q0 -28 15.5 -48t49.5 -20q57 0 89.5 37t32.5 111q0 25 -4 47t-4 45q0 33 30 33q13 0 19.5 -19t8.5 -49t2 -67v-75q0 -42 44 -42h104q26 0 38 17t12 44
z" />
    <glyph glyph-name="igrave" unicode="&#x43c;" horiz-adv-x="721" 
d="M716 61q0 74 -20.5 159.5t-52.5 158t-71 120.5t-75 48q-14 0 -27.5 -10.5t-26 -26.5t-23 -36t-18.5 -38q-5 -13 -9.5 -21t-15.5 -8q-13 0 -16 7t-11 21q-9 17 -21.5 36.5t-27.5 36t-30 28t-29 11.5q-40 0 -80 -48t-72 -120.5t-52 -157.5t-20 -159q0 -40 10.5 -51
t37.5 -11h118q20 0 30 13.5t13.5 36.5t3 53t-0.5 63q0 35 9.5 60.5t31.5 25.5q9 0 15 -13t6 -41q0 -24 -6.5 -65t-6.5 -86q0 -28 15.5 -48t49.5 -20q57 0 89.5 37t32.5 111q0 25 -4 47t-4 45q0 33 30 33q13 0 19.5 -19t8.5 -49t2 -67v-75q0 -42 44 -42h104q26 0 38 17t12 44
z" />
    <glyph glyph-name="iacute" unicode="&#xed;" horiz-adv-x="585" 
d="M24 284q0 73 6 123t15.5 80.5t22.5 44t27 13.5h132q19 0 28.5 -11.5t9.5 -24.5q0 -21 -6 -45.5t-6 -53.5q0 -37 6.5 -54t29.5 -17q31 0 45.5 24.5t14.5 59.5q0 30 -4 52t-4 42q0 48 79 48q33 0 61 -16.5t49 -56t32.5 -105t11.5 -163.5t-22.5 -161t-65.5 -63h-111
q-25 0 -33 11.5t-8 25.5q0 9 3.5 24.5t7.5 35t7.5 40.5t3.5 41q0 26 -12 43t-38 17q-28 0 -43.5 -17.5t-15.5 -44.5q0 -34 7 -69t7 -70q0 -24 -22.5 -38.5t-59.5 -14.5q-79 0 -116.5 77t-38.5 223z" />
    <glyph glyph-name="iacute" unicode="&#x43d;" horiz-adv-x="585" 
d="M24 284q0 73 6 123t15.5 80.5t22.5 44t27 13.5h132q19 0 28.5 -11.5t9.5 -24.5q0 -21 -6 -45.5t-6 -53.5q0 -37 6.5 -54t29.5 -17q31 0 45.5 24.5t14.5 59.5q0 30 -4 52t-4 42q0 48 79 48q33 0 61 -16.5t49 -56t32.5 -105t11.5 -163.5t-22.5 -161t-65.5 -63h-111
q-25 0 -33 11.5t-8 25.5q0 9 3.5 24.5t7.5 35t7.5 40.5t3.5 41q0 26 -12 43t-38 17q-28 0 -43.5 -17.5t-15.5 -44.5q0 -34 7 -69t7 -70q0 -24 -22.5 -38.5t-59.5 -14.5q-79 0 -116.5 77t-38.5 223z" />
    <glyph glyph-name="icircumflex" unicode="&#xee;" horiz-adv-x="521" 
d="M513 259q0 -66 -19.5 -118t-53.5 -87.5t-79 -54.5t-97 -19t-96 19t-76.5 54.5t-51 87.5t-18.5 118q0 67 18.5 120t51.5 90t77 56.5t95 19.5t96 -20t79 -57t54 -90t20 -119zM303 259q0 24 -0.5 45.5t-4 38.5t-11.5 26.5t-22 9.5t-21.5 -9.5t-11 -26.5t-4 -38.5t-0.5 -45.5
q0 -49 5 -82t33 -33t32.5 33.5t4.5 81.5z" />
    <glyph glyph-name="icircumflex" unicode="&#x43e;" horiz-adv-x="521" 
d="M513 259q0 -66 -19.5 -118t-53.5 -87.5t-79 -54.5t-97 -19t-96 19t-76.5 54.5t-51 87.5t-18.5 118q0 67 18.5 120t51.5 90t77 56.5t95 19.5t96 -20t79 -57t54 -90t20 -119zM303 259q0 24 -0.5 45.5t-4 38.5t-11.5 26.5t-22 9.5t-21.5 -9.5t-11 -26.5t-4 -38.5t-0.5 -45.5
q0 -49 5 -82t33 -33t32.5 33.5t4.5 81.5z" />
    <glyph glyph-name="idieresis" unicode="&#xef;" horiz-adv-x="545" 
d="M25 254q0 135 11 207.5t56 72.5h89q26 0 34.5 -7.5t11 -16t4 -16t12.5 -7.5q15 0 26.5 8.5t25 19t31.5 19t46 8.5q40 0 67.5 -23.5t44.5 -59t24 -77t7 -77.5q0 -59 -4 -113.5t-15 -97.5t-29.5 -68.5t-47.5 -25.5h-100q-39 0 -39 31q0 41 13 103t13 136q0 56 -8 81t-21 25
t-26 -33t-13 -108q0 -41 1.5 -71t3 -53.5t3 -42.5t1.5 -38q0 -20 -15.5 -25t-39.5 -5h-98q-38 0 -53.5 57t-15.5 197z" />
    <glyph glyph-name="idieresis" unicode="&#x43f;" horiz-adv-x="545" 
d="M25 254q0 135 11 207.5t56 72.5h89q26 0 34.5 -7.5t11 -16t4 -16t12.5 -7.5q15 0 26.5 8.5t25 19t31.5 19t46 8.5q40 0 67.5 -23.5t44.5 -59t24 -77t7 -77.5q0 -59 -4 -113.5t-15 -97.5t-29.5 -68.5t-47.5 -25.5h-100q-39 0 -39 31q0 41 13 103t13 136q0 56 -8 81t-21 25
t-26 -33t-13 -108q0 -41 1.5 -71t3 -53.5t3 -42.5t1.5 -38q0 -20 -15.5 -25t-39.5 -5h-98q-38 0 -53.5 57t-15.5 197z" />
    <glyph glyph-name="eth" unicode="&#xf0;" horiz-adv-x="525" 
d="M511 286q0 -73 -16 -127.5t-42 -91t-58.5 -54.5t-65.5 -18q-31 0 -45 9t-28 9q-27 0 -27 -37t10.5 -75.5t23.5 -74.5t23.5 -67t10.5 -52q0 -17 -13 -27t-30 -10h-176q-22 0 -35 26t-19 74t-7.5 116t-1.5 154q0 28 4.5 72t10.5 90t10.5 86t4.5 60q0 43 -6.5 72.5
t-6.5 48.5q0 32 19.5 51.5t57.5 19.5q29 0 53 -2t47.5 -4t48.5 -4t56 -2q107 0 152 -64t45 -178zM301 254q0 64 -9 89.5t-22 25.5q-17 0 -22.5 -11.5t-5.5 -37.5q0 -13 2 -40.5t2 -53.5q0 -33 -2 -55.5t-2 -37t3.5 -20.5t15.5 -6q18 0 29 42t11 105z" />
    <glyph glyph-name="eth" unicode="&#x440;" horiz-adv-x="525" 
d="M511 286q0 -73 -16 -127.5t-42 -91t-58.5 -54.5t-65.5 -18q-31 0 -45 9t-28 9q-27 0 -27 -37t10.5 -75.5t23.5 -74.5t23.5 -67t10.5 -52q0 -17 -13 -27t-30 -10h-176q-22 0 -35 26t-19 74t-7.5 116t-1.5 154q0 28 4.5 72t10.5 90t10.5 86t4.5 60q0 43 -6.5 72.5
t-6.5 48.5q0 32 19.5 51.5t57.5 19.5q29 0 53 -2t47.5 -4t48.5 -4t56 -2q107 0 152 -64t45 -178zM301 254q0 64 -9 89.5t-22 25.5q-17 0 -22.5 -11.5t-5.5 -37.5q0 -13 2 -40.5t2 -53.5q0 -33 -2 -55.5t-2 -37t3.5 -20.5t15.5 -6q18 0 29 42t11 105z" />
    <glyph glyph-name="ntilde" unicode="&#xf1;" horiz-adv-x="465" 
d="M450 144q0 -31 -13.5 -60.5t-38 -53t-58.5 -37.5t-74 -14q-116 0 -181 58.5t-65 175.5q0 164 77.5 248.5t209.5 84.5q57 0 99 -26.5t42 -78.5q0 -19 -8.5 -36t-20.5 -29t-26 -19t-26 -7q-13 0 -21.5 8t-16 17t-15.5 17t-21 8q-18 0 -29.5 -11t-19 -29t-10.5 -41.5
t-3 -47.5q0 -67 23.5 -97t55.5 -30q27 0 44 12t28.5 26.5t20 26.5t17.5 12q30 0 30 -77z" />
    <glyph glyph-name="ntilde" unicode="&#x441;" horiz-adv-x="465" 
d="M450 144q0 -31 -13.5 -60.5t-38 -53t-58.5 -37.5t-74 -14q-116 0 -181 58.5t-65 175.5q0 164 77.5 248.5t209.5 84.5q57 0 99 -26.5t42 -78.5q0 -19 -8.5 -36t-20.5 -29t-26 -19t-26 -7q-13 0 -21.5 8t-16 17t-15.5 17t-21 8q-18 0 -29.5 -11t-19 -29t-10.5 -41.5
t-3 -47.5q0 -67 23.5 -97t55.5 -30q27 0 44 12t28.5 26.5t20 26.5t17.5 12q30 0 30 -77z" />
    <glyph glyph-name="ograve" unicode="&#xf2;" horiz-adv-x="801" 
d="M772 161q0 -23 -2 -51t-9 -52.5t-21 -41t-38 -16.5h-114q-26 0 -36.5 8t-10.5 28q0 14 3.5 28t7.5 40.5t7.5 70.5t3.5 118q0 50 -13 72t-30 22q-14 0 -17.5 -11t-2.5 -34.5t4.5 -59t3.5 -84.5q0 -33 -3 -68.5t-11 -64t-21.5 -47t-35.5 -18.5h-115q-23 0 -31.5 10t-8.5 22
q0 15 3 27t6.5 29t6.5 43t3 69q0 59 -1.5 95t-5.5 56t-11 27t-18 7q-13 0 -20.5 -31.5t-7.5 -110.5q0 -57 2.5 -102t0.5 -76.5t-12.5 -48t-37.5 -16.5h-99q-21 0 -33.5 11t-19 46.5t-8.5 101t-2 173.5q0 65 6 108t17 68t27.5 35t36.5 10h62q31 0 44 -8.5t18.5 -19t8.5 -19
t14 -8.5q10 0 20 4.5t21 10.5t25 11t33 5q22 0 36.5 -4.5t25.5 -10.5t21.5 -10.5t24.5 -4.5q12 0 20.5 6.5t21.5 13.5t33 13.5t55 6.5q47 0 79.5 -19.5t53.5 -64.5t30.5 -117t9.5 -177z" />
    <glyph glyph-name="ograve" unicode="&#x442;" horiz-adv-x="801" 
d="M772 161q0 -23 -2 -51t-9 -52.5t-21 -41t-38 -16.5h-114q-26 0 -36.5 8t-10.5 28q0 14 3.5 28t7.5 40.5t7.5 70.5t3.5 118q0 50 -13 72t-30 22q-14 0 -17.5 -11t-2.5 -34.5t4.5 -59t3.5 -84.5q0 -33 -3 -68.5t-11 -64t-21.5 -47t-35.5 -18.5h-115q-23 0 -31.5 10t-8.5 22
q0 15 3 27t6.5 29t6.5 43t3 69q0 59 -1.5 95t-5.5 56t-11 27t-18 7q-13 0 -20.5 -31.5t-7.5 -110.5q0 -57 2.5 -102t0.5 -76.5t-12.5 -48t-37.5 -16.5h-99q-21 0 -33.5 11t-19 46.5t-8.5 101t-2 173.5q0 65 6 108t17 68t27.5 35t36.5 10h62q31 0 44 -8.5t18.5 -19t8.5 -19
t14 -8.5q10 0 20 4.5t21 10.5t25 11t33 5q22 0 36.5 -4.5t25.5 -10.5t21.5 -10.5t24.5 -4.5q12 0 20.5 6.5t21.5 13.5t33 13.5t55 6.5q47 0 79.5 -19.5t53.5 -64.5t30.5 -117t9.5 -177z" />
    <glyph glyph-name="oacute" unicode="&#xf3;" horiz-adv-x="497" 
d="M482 453q0 -77 -9.5 -165.5t-31 -176t-56.5 -168t-86 -142t-119 -98.5t-156 -37q-16 0 -28 10t-10 34l10 149q3 38 35 38q63 0 103.5 12t64 31t32.5 42.5t9 46.5t-17 34.5t-42.5 25t-55 35t-55 64t-42.5 113t-17 181.5q0 33 9.5 42t32.5 9h142q20 0 27.5 -9t7.5 -21
q0 -21 -2 -48t-4.5 -56.5t-4.5 -59t-2 -56.5q1 -41 9.5 -68.5t33.5 -27.5q20 0 29 25.5t8 69.5q0 27 -1.5 56.5t-2.5 58.5t-2 55t-1 46q0 18 14 26.5t50 8.5h81q26 0 36.5 -20.5t10.5 -59.5z" />
    <glyph glyph-name="oacute" unicode="&#x443;" horiz-adv-x="497" 
d="M482 453q0 -77 -9.5 -165.5t-31 -176t-56.5 -168t-86 -142t-119 -98.5t-156 -37q-16 0 -28 10t-10 34l10 149q3 38 35 38q63 0 103.5 12t64 31t32.5 42.5t9 46.5t-17 34.5t-42.5 25t-55 35t-55 64t-42.5 113t-17 181.5q0 33 9.5 42t32.5 9h142q20 0 27.5 -9t7.5 -21
q0 -21 -2 -48t-4.5 -56.5t-4.5 -59t-2 -56.5q1 -41 9.5 -68.5t33.5 -27.5q20 0 29 25.5t8 69.5q0 27 -1.5 56.5t-2.5 58.5t-2 55t-1 46q0 18 14 26.5t50 8.5h81q26 0 36.5 -20.5t10.5 -59.5z" />
    <glyph glyph-name="ocircumflex" unicode="&#xf4;" horiz-adv-x="783" 
d="M34 281q0 47 11 91.5t32 79t52.5 55.5t71.5 21q25 0 39.5 -7t27.5 -7q18 0 20 14.5t6 31.5t19 31.5t60 14.5q41 0 56.5 -14.5t21.5 -31.5t10.5 -31.5t22.5 -14.5q15 0 37.5 7t41.5 7q49 0 86 -19t62 -52t37.5 -79t12.5 -100q0 -73 -15 -126.5t-39.5 -88t-55.5 -51.5
t-64 -17q-31 0 -45 9t-28 9q-27 0 -27 -37t7.5 -75t17 -73t17 -65.5t7.5 -51.5q0 -17 -11 -29t-33 -12h-164q-35 0 -40.5 42.5t-6.5 117.5q0 22 2.5 46.5t5.5 47t5.5 40.5t2.5 28q0 21 -16 21q-12 0 -17 -3t-11 -6t-16.5 -6t-32.5 -3q-33 0 -63.5 17.5t-54 52.5t-38 89
t-14.5 127zM559 254q0 64 -9 89.5t-22 25.5q-17 0 -23.5 -6.5t-6.5 -23.5q0 -6 1 -19.5t1.5 -29.5t1.5 -33t1 -30q0 -27 -2 -49t-2 -37.5t4 -24.5t16 -9q18 0 29 42t11 105zM239 254q0 -63 11 -105t29 -42q13 0 21.5 12.5t8.5 65.5q0 39 -1.5 72.5t-6 58t-12 39t-19.5 14.5
q-13 0 -22 -25.5t-9 -89.5z" />
    <glyph glyph-name="ocircumflex" unicode="&#x444;" horiz-adv-x="783" 
d="M34 281q0 47 11 91.5t32 79t52.5 55.5t71.5 21q25 0 39.5 -7t27.5 -7q18 0 20 14.5t6 31.5t19 31.5t60 14.5q41 0 56.5 -14.5t21.5 -31.5t10.5 -31.5t22.5 -14.5q15 0 37.5 7t41.5 7q49 0 86 -19t62 -52t37.5 -79t12.5 -100q0 -73 -15 -126.5t-39.5 -88t-55.5 -51.5
t-64 -17q-31 0 -45 9t-28 9q-27 0 -27 -37t7.5 -75t17 -73t17 -65.5t7.5 -51.5q0 -17 -11 -29t-33 -12h-164q-35 0 -40.5 42.5t-6.5 117.5q0 22 2.5 46.5t5.5 47t5.5 40.5t2.5 28q0 21 -16 21q-12 0 -17 -3t-11 -6t-16.5 -6t-32.5 -3q-33 0 -63.5 17.5t-54 52.5t-38 89
t-14.5 127zM559 254q0 64 -9 89.5t-22 25.5q-17 0 -23.5 -6.5t-6.5 -23.5q0 -6 1 -19.5t1.5 -29.5t1.5 -33t1 -30q0 -27 -2 -49t-2 -37.5t4 -24.5t16 -9q18 0 29 42t11 105zM239 254q0 -63 11 -105t29 -42q13 0 21.5 12.5t8.5 65.5q0 39 -1.5 72.5t-6 58t-12 39t-19.5 14.5
q-13 0 -22 -25.5t-9 -89.5z" />
    <glyph glyph-name="otilde" unicode="&#xf5;" horiz-adv-x="513" 
d="M506 46q0 -21 -9.5 -33.5t-26.5 -12.5h-146q-28 0 -31 27l-14 122q-3 35 -22 35q-17 0 -21 -34l-15 -124q-3 -26 -35 -26h-150q-18 0 -24 13t-6 32q0 58 14.5 95.5t31.5 62t31.5 39.5t14.5 28t-12.5 30.5t-27.5 43.5t-27.5 63t-12.5 88q0 21 11.5 27t28.5 6h140
q28 0 29 -19l13 -102q3 -25 18 -25q6 0 12 6.5t7 18.5l17 103q3 18 25 18h126q19 0 29 -6t10 -26q0 -53 -10 -89.5t-22.5 -62t-22.5 -43t-10 -31.5q0 -12 13.5 -27t30 -39.5t30 -62t13.5 -95.5z" />
    <glyph glyph-name="otilde" unicode="&#x445;" horiz-adv-x="513" 
d="M506 46q0 -21 -9.5 -33.5t-26.5 -12.5h-146q-28 0 -31 27l-14 122q-3 35 -22 35q-17 0 -21 -34l-15 -124q-3 -26 -35 -26h-150q-18 0 -24 13t-6 32q0 58 14.5 95.5t31.5 62t31.5 39.5t14.5 28t-12.5 30.5t-27.5 43.5t-27.5 63t-12.5 88q0 21 11.5 27t28.5 6h140
q28 0 29 -19l13 -102q3 -25 18 -25q6 0 12 6.5t7 18.5l17 103q3 18 25 18h126q19 0 29 -6t10 -26q0 -53 -10 -89.5t-22.5 -62t-22.5 -43t-10 -31.5q0 -12 13.5 -27t30 -39.5t30 -62t13.5 -95.5z" />
    <glyph glyph-name="odieresis" unicode="&#xf6;" horiz-adv-x="541" 
d="M16 333q0 33 3 68.5t11 64t21.5 47t35.5 18.5h115q23 0 31.5 -10t8.5 -22q0 -15 -3 -27t-6.5 -29t-6.5 -43t-3 -69q0 -59 1.5 -95t5.5 -56t11 -27t18 -7q13 0 20.5 31t7.5 111q0 55 -3 111.5t-3 89.5q0 19 12.5 30.5t40.5 11.5h99q21 0 33.5 -7t19 -26t8.5 -53.5t2 -88.5
q0 -16 -1.5 -41t-3 -53l-3 -56t-1.5 -50q0 -30 7 -48.5t15.5 -35t15.5 -34.5t7 -46q0 -46 -17 -77t-44.5 -50t-61 -27t-66.5 -8q-59 0 -91.5 18t-32.5 50q0 15 15 20t32.5 11.5t32 19.5t14.5 43q0 14 -13.5 27t-29.5 13q-10 0 -21 -5t-24 -11t-28 -11.5t-34 -5.5
q-22 0 -47.5 14.5t-47.5 52t-37 102t-15 165.5z" />
    <glyph glyph-name="odieresis" unicode="&#x446;" horiz-adv-x="541" 
d="M16 333q0 33 3 68.5t11 64t21.5 47t35.5 18.5h115q23 0 31.5 -10t8.5 -22q0 -15 -3 -27t-6.5 -29t-6.5 -43t-3 -69q0 -59 1.5 -95t5.5 -56t11 -27t18 -7q13 0 20.5 31t7.5 111q0 55 -3 111.5t-3 89.5q0 19 12.5 30.5t40.5 11.5h99q21 0 33.5 -7t19 -26t8.5 -53.5t2 -88.5
q0 -16 -1.5 -41t-3 -53l-3 -56t-1.5 -50q0 -30 7 -48.5t15.5 -35t15.5 -34.5t7 -46q0 -46 -17 -77t-44.5 -50t-61 -27t-66.5 -8q-59 0 -91.5 18t-32.5 50q0 15 15 20t32.5 11.5t32 19.5t14.5 43q0 14 -13.5 27t-29.5 13q-10 0 -21 -5t-24 -11t-28 -11.5t-34 -5.5
q-22 0 -47.5 14.5t-47.5 52t-37 102t-15 165.5z" />
    <glyph glyph-name="divide" unicode="&#xf7;" horiz-adv-x="506" 
d="M156 213q-49 0 -78 33.5t-44 78.5t-19.5 89.5t-4.5 66.5q0 19 10.5 33.5t44.5 14.5h99q31 0 40 -18.5t9 -69.5q0 -34 9.5 -55.5t28.5 -21.5q13 0 18.5 8.5t5.5 19.5q0 14 -3 41t-3 42q0 28 10.5 41t38.5 13h103q29 0 40 -7t11 -26q0 -18 -3.5 -41.5t-3.5 -65.5
q0 -85 5 -139t10.5 -90t10.5 -60.5t5 -50.5q0 -16 -11 -32.5t-44 -16.5h-108q-31 0 -46 27.5t-15 97.5q0 19 1.5 39t1.5 36q0 14 -6 23.5t-20 9.5q-21 0 -39 -10t-54 -10z" />
    <glyph glyph-name="divide" unicode="&#x447;" horiz-adv-x="506" 
d="M156 213q-49 0 -78 33.5t-44 78.5t-19.5 89.5t-4.5 66.5q0 19 10.5 33.5t44.5 14.5h99q31 0 40 -18.5t9 -69.5q0 -34 9.5 -55.5t28.5 -21.5q13 0 18.5 8.5t5.5 19.5q0 14 -3 41t-3 42q0 28 10.5 41t38.5 13h103q29 0 40 -7t11 -26q0 -18 -3.5 -41.5t-3.5 -65.5
q0 -85 5 -139t10.5 -90t10.5 -60.5t5 -50.5q0 -16 -11 -32.5t-44 -16.5h-108q-31 0 -46 27.5t-15 97.5q0 19 1.5 39t1.5 36q0 14 -6 23.5t-20 9.5q-21 0 -39 -10t-54 -10z" />
    <glyph glyph-name="oslash" unicode="&#xf8;" horiz-adv-x="785" 
d="M27 370q0 23 2 51t9 52.5t21 41t38 16.5h114q26 0 36.5 -8.5t10.5 -27.5q0 -14 -3.5 -28t-7.5 -40.5t-7.5 -70.5t-3.5 -118q0 -50 13 -72t30 -22q14 0 17.5 11t2.5 34.5t-4.5 59t-3.5 84.5q0 33 3 68.5t11 64t21.5 47t35.5 18.5h115q23 0 31.5 -10t8.5 -22q0 -15 -3 -27
t-6.5 -29t-6.5 -43t-3 -69q0 -59 1.5 -95t5.5 -56t11 -27t18 -7q13 0 20.5 31t7.5 111q0 68 -2.5 121t-2.5 85q0 21 10 29t31 8h110q21 0 33.5 -11t19 -46.5t8.5 -101t2 -173.5q0 -65 -6 -108t-17.5 -68t-27.5 -35t-36 -10h-62q-32 0 -44.5 8.5t-18 19t-8 19t-14.5 8.5
q-11 0 -20.5 -4.5t-20.5 -10.5t-25 -11t-33 -5q-22 0 -36.5 4.5t-25.5 10t-21.5 10.5t-24.5 5q-12 0 -20.5 -6t-21.5 -14t-33.5 -14t-54.5 -6q-46 0 -79 19.5t-54 64.5t-30.5 117t-9.5 177z" />
    <glyph glyph-name="oslash" unicode="&#x448;" horiz-adv-x="785" 
d="M27 370q0 23 2 51t9 52.5t21 41t38 16.5h114q26 0 36.5 -8.5t10.5 -27.5q0 -14 -3.5 -28t-7.5 -40.5t-7.5 -70.5t-3.5 -118q0 -50 13 -72t30 -22q14 0 17.5 11t2.5 34.5t-4.5 59t-3.5 84.5q0 33 3 68.5t11 64t21.5 47t35.5 18.5h115q23 0 31.5 -10t8.5 -22q0 -15 -3 -27
t-6.5 -29t-6.5 -43t-3 -69q0 -59 1.5 -95t5.5 -56t11 -27t18 -7q13 0 20.5 31t7.5 111q0 68 -2.5 121t-2.5 85q0 21 10 29t31 8h110q21 0 33.5 -11t19 -46.5t8.5 -101t2 -173.5q0 -65 -6 -108t-17.5 -68t-27.5 -35t-36 -10h-62q-32 0 -44.5 8.5t-18 19t-8 19t-14.5 8.5
q-11 0 -20.5 -4.5t-20.5 -10.5t-25 -11t-33 -5q-22 0 -36.5 4.5t-25.5 10t-21.5 10.5t-24.5 5q-12 0 -20.5 -6t-21.5 -14t-33.5 -14t-54.5 -6q-46 0 -79 19.5t-54 64.5t-30.5 117t-9.5 177z" />
    <glyph glyph-name="ugrave" unicode="&#xf9;" horiz-adv-x="812" 
d="M27 370q0 23 2 51t9 52.5t21 41t38 16.5h114q26 0 36.5 -8.5t10.5 -27.5q0 -14 -3.5 -28t-7.5 -40.5t-7.5 -70.5t-3.5 -118q0 -50 13 -72t30 -22q14 0 17.5 11t2.5 34.5t-4.5 59t-3.5 84.5q0 33 3 68.5t11 64t21.5 47t35.5 18.5h115q23 0 31.5 -10t8.5 -22q0 -15 -3 -27
t-6.5 -29t-6.5 -43t-3 -69q0 -59 1.5 -95t5.5 -56t11 -27t18 -7q13 0 20.5 31t7.5 111q0 69 -2 122.5t-2 85.5q0 35 45 35h105q21 0 33.5 -7t19 -26t8.5 -53.5t2 -88.5q0 -16 -1.5 -41t-3 -53l-3 -56t-1.5 -50q0 -30 7 -48.5t15.5 -35t15.5 -34.5t7 -46q0 -46 -17 -77
t-44.5 -50t-61 -27t-66.5 -8q-58 0 -91 18t-33 50q0 15 15 20t32.5 11.5t32 19.5t14.5 43q0 14 -13.5 27t-29.5 13q-11 0 -22 -5t-23.5 -11t-27.5 -11.5t-34 -5.5q-22 0 -36.5 5t-25.5 11.5t-21.5 11.5t-24.5 5q-12 0 -20.5 -6t-21.5 -14t-33.5 -14t-54.5 -6q-46 0 -79 19.5
t-54 64.5t-30.5 117t-9.5 177z" />
    <glyph glyph-name="ugrave" unicode="&#x449;" horiz-adv-x="812" 
d="M27 370q0 23 2 51t9 52.5t21 41t38 16.5h114q26 0 36.5 -8.5t10.5 -27.5q0 -14 -3.5 -28t-7.5 -40.5t-7.5 -70.5t-3.5 -118q0 -50 13 -72t30 -22q14 0 17.5 11t2.5 34.5t-4.5 59t-3.5 84.5q0 33 3 68.5t11 64t21.5 47t35.5 18.5h115q23 0 31.5 -10t8.5 -22q0 -15 -3 -27
t-6.5 -29t-6.5 -43t-3 -69q0 -59 1.5 -95t5.5 -56t11 -27t18 -7q13 0 20.5 31t7.5 111q0 69 -2 122.5t-2 85.5q0 35 45 35h105q21 0 33.5 -7t19 -26t8.5 -53.5t2 -88.5q0 -16 -1.5 -41t-3 -53l-3 -56t-1.5 -50q0 -30 7 -48.5t15.5 -35t15.5 -34.5t7 -46q0 -46 -17 -77
t-44.5 -50t-61 -27t-66.5 -8q-58 0 -91 18t-33 50q0 15 15 20t32.5 11.5t32 19.5t14.5 43q0 14 -13.5 27t-29.5 13q-11 0 -22 -5t-23.5 -11t-27.5 -11.5t-34 -5.5q-22 0 -36.5 5t-25.5 11.5t-21.5 11.5t-24.5 5q-12 0 -20.5 -6t-21.5 -14t-33.5 -14t-54.5 -6q-46 0 -79 19.5
t-54 64.5t-30.5 117t-9.5 177z" />
    <glyph glyph-name="uacute" unicode="&#xfa;" horiz-adv-x="518" 
d="M89 142q0 -18 2 -45t11 -52t26 -43t47 -18q34 0 55 2.5t40 5.5t41 5.5t59 2.5q68 0 106 39t38 108q0 30 -8 60t-27.5 56t-52.5 45.5t-82 27.5q-37 6 -42.5 21t-5.5 26q0 25 4 42t4 45q0 23 -21.5 41.5t-52.5 18.5q-33 0 -72 -11t-72.5 -28.5t-56 -40t-22.5 -44.5
q0 -32 25 -32q9 0 20.5 3.5t22.5 3.5q15 0 21 -18.5t6 -35.5q0 -40 -6.5 -92.5t-6.5 -92.5zM289 186q0 37 4.5 50.5t13.5 13.5q18 0 29.5 -16t11.5 -37q0 -39 -12 -53t-22 -14q-17 0 -21 16t-4 40z" />
    <glyph glyph-name="uacute" unicode="&#x44a;" horiz-adv-x="518" 
d="M89 142q0 -18 2 -45t11 -52t26 -43t47 -18q34 0 55 2.5t40 5.5t41 5.5t59 2.5q68 0 106 39t38 108q0 30 -8 60t-27.5 56t-52.5 45.5t-82 27.5q-37 6 -42.5 21t-5.5 26q0 25 4 42t4 45q0 23 -21.5 41.5t-52.5 18.5q-33 0 -72 -11t-72.5 -28.5t-56 -40t-22.5 -44.5
q0 -32 25 -32q9 0 20.5 3.5t22.5 3.5q15 0 21 -18.5t6 -35.5q0 -40 -6.5 -92.5t-6.5 -92.5zM289 186q0 37 4.5 50.5t13.5 13.5q18 0 29.5 -16t11.5 -37q0 -39 -12 -53t-22 -14q-17 0 -21 16t-4 40z" />
    <glyph glyph-name="ucircumflex" unicode="&#xfb;" horiz-adv-x="754" 
d="M40 214q0 41 -3 73t-6.5 59t-6.5 52.5t-3 52.5q0 41 17.5 60t65.5 19h101q52 0 52 -38q0 -28 -8 -56t-8 -53q0 -11 8.5 -26t45.5 -21q49 -8 82 -27.5t52.5 -45.5t27.5 -56t8 -60q0 -69 -38 -108t-106 -39q-37 0 -59 -2.5t-41 -5.5t-40 -5.5t-55 -2.5q-36 0 -54 21
t-25 54.5t-7 74.5v80zM240 186q0 -24 4 -40t21 -16q10 0 22 14t12 53q0 18 -12.5 35.5t-28.5 17.5q-9 0 -13.5 -13.5t-4.5 -50.5zM726 417q0 -126 4 -191.5t9 -98t9 -45.5t4 -34q0 -48 -72 -48h-113q-45 0 -63.5 28t-18.5 90q0 38 4 74t8.5 78t8.5 93t4 119q1 30 14.5 39
t41.5 9h81q40 0 59.5 -32t19.5 -81z" />
    <glyph glyph-name="ucircumflex" unicode="&#x44b;" horiz-adv-x="754" 
d="M40 214q0 41 -3 73t-6.5 59t-6.5 52.5t-3 52.5q0 41 17.5 60t65.5 19h101q52 0 52 -38q0 -28 -8 -56t-8 -53q0 -11 8.5 -26t45.5 -21q49 -8 82 -27.5t52.5 -45.5t27.5 -56t8 -60q0 -69 -38 -108t-106 -39q-37 0 -59 -2.5t-41 -5.5t-40 -5.5t-55 -2.5q-36 0 -54 21
t-25 54.5t-7 74.5v80zM240 186q0 -24 4 -40t21 -16q10 0 22 14t12 53q0 18 -12.5 35.5t-28.5 17.5q-9 0 -13.5 -13.5t-4.5 -50.5zM726 417q0 -126 4 -191.5t9 -98t9 -45.5t4 -34q0 -48 -72 -48h-113q-45 0 -63.5 28t-18.5 90q0 38 4 74t8.5 78t8.5 93t4 119q1 30 14.5 39
t41.5 9h81q40 0 59.5 -32t19.5 -81z" />
    <glyph glyph-name="udieresis" unicode="&#xfc;" horiz-adv-x="469" 
d="M40 214v-80t7 -74.5t25 -54.5t54 -21q34 0 55 2.5t40 5.5t41 5.5t59 2.5q68 0 106 39t38 108q0 30 -8 60t-27.5 56t-52.5 45.5t-82 27.5q-37 6 -45.5 21t-8.5 26q0 25 8 53t8 56q0 38 -52 38h-101q-48 0 -65.5 -19t-17.5 -60q0 -27 3 -52.5t6.5 -52.5t6.5 -59t3 -73z
M240 186q0 37 4.5 50.5t13.5 13.5q18 0 29.5 -16t11.5 -37q0 -39 -12 -53t-22 -14q-17 0 -21 16t-4 40z" />
    <glyph glyph-name="udieresis" unicode="&#x44c;" horiz-adv-x="469" 
d="M40 214v-80t7 -74.5t25 -54.5t54 -21q34 0 55 2.5t40 5.5t41 5.5t59 2.5q68 0 106 39t38 108q0 30 -8 60t-27.5 56t-52.5 45.5t-82 27.5q-37 6 -45.5 21t-8.5 26q0 25 8 53t8 56q0 38 -52 38h-101q-48 0 -65.5 -19t-17.5 -60q0 -27 3 -52.5t6.5 -52.5t6.5 -59t3 -73z
M240 186q0 37 4.5 50.5t13.5 13.5q18 0 29.5 -16t11.5 -37q0 -39 -12 -53t-22 -14q-17 0 -21 16t-4 40z" />
    <glyph glyph-name="yacute" unicode="&#xfd;" horiz-adv-x="470" 
d="M15 157q0 -34 14 -66t39.5 -57t60 -40t76.5 -15q123 0 190 68t67 190q0 70 -21 127t-59 97.5t-90.5 62.5t-116.5 22q-57 0 -98 -26t-41 -78q0 -14 8 -30.5t20 -30t25.5 -22.5t25.5 -9q13 0 21.5 8t16 17.5t15.5 17t21 7.5q22 0 34.5 -13.5t12.5 -28.5q0 -51 -47 -51
q-15 0 -21 7t-17 7q-17 0 -29 -21.5t-12 -49.5q0 -22 15.5 -35.5t35.5 -13.5q25 0 41.5 14t28.5 14q8 0 15.5 -7t7.5 -19q0 -29 -30.5 -44.5t-66.5 -15.5q-27 0 -44 11t-29 24.5t-20.5 24.5t-17.5 11q-16 0 -23.5 -11t-7.5 -46z" />
    <glyph glyph-name="yacute" unicode="&#x44d;" horiz-adv-x="470" 
d="M15 157q0 -34 14 -66t39.5 -57t60 -40t76.5 -15q123 0 190 68t67 190q0 70 -21 127t-59 97.5t-90.5 62.5t-116.5 22q-57 0 -98 -26t-41 -78q0 -14 8 -30.5t20 -30t25.5 -22.5t25.5 -9q13 0 21.5 8t16 17.5t15.5 17t21 7.5q22 0 34.5 -13.5t12.5 -28.5q0 -51 -47 -51
q-15 0 -21 7t-17 7q-17 0 -29 -21.5t-12 -49.5q0 -22 15.5 -35.5t35.5 -13.5q25 0 41.5 14t28.5 14q8 0 15.5 -7t7.5 -19q0 -29 -30.5 -44.5t-66.5 -15.5q-27 0 -44 11t-29 24.5t-20.5 24.5t-17.5 11q-16 0 -23.5 -11t-7.5 -46z" />
    <glyph glyph-name="thorn" unicode="&#xfe;" horiz-adv-x="824" 
d="M18 267q0 73 6 123t15.5 80.5t22.5 44t27 13.5h132q19 0 28.5 -11.5t9.5 -24.5q0 -21 -6 -45.5t-6 -53.5q0 -37 9.5 -54t31.5 -17q18 0 31 8.5t17 23.5q23 91 86 141t145 50q51 0 96 -20t79 -57t54 -90t20 -119t-19.5 -118t-53 -87.5t-79 -54.5t-97.5 -19
q-90 0 -154.5 55.5t-81.5 157.5q-2 14 -14.5 21.5t-28.5 7.5q-28 0 -37.5 -18t-9.5 -45q0 -34 5.5 -61t5.5 -62q0 -51 -76 -51q-80 0 -118.5 68t-39.5 214zM606 259q0 48 -5 84t-33 36q-14 0 -21.5 -9.5t-11 -26.5t-4 -38.5t-0.5 -45.5q0 -49 5 -82t33 -33t32.5 33.5
t4.5 81.5z" />
    <glyph glyph-name="thorn" unicode="&#x44e;" horiz-adv-x="824" 
d="M18 267q0 73 6 123t15.5 80.5t22.5 44t27 13.5h132q19 0 28.5 -11.5t9.5 -24.5q0 -21 -6 -45.5t-6 -53.5q0 -37 9.5 -54t31.5 -17q18 0 31 8.5t17 23.5q23 91 86 141t145 50q51 0 96 -20t79 -57t54 -90t20 -119t-19.5 -118t-53 -87.5t-79 -54.5t-97.5 -19
q-90 0 -154.5 55.5t-81.5 157.5q-2 14 -14.5 21.5t-28.5 7.5q-28 0 -37.5 -18t-9.5 -45q0 -34 5.5 -61t5.5 -62q0 -51 -76 -51q-80 0 -118.5 68t-39.5 214zM606 259q0 48 -5 84t-33 36q-14 0 -21.5 -9.5t-11 -26.5t-4 -38.5t-0.5 -45.5q0 -49 5 -82t33 -33t32.5 33.5
t4.5 81.5z" />
    <glyph glyph-name="ydieresis" unicode="&#xff;" horiz-adv-x="613" 
d="M580 341q0 -72 4 -119t9.5 -78.5t9.5 -53t4 -42.5q0 -24 -17.5 -36t-42.5 -12h-103q-43 0 -69.5 30t-26.5 98q0 39 6 81t6 79q0 58 -20 91.5t-52 33.5q-20 0 -29 -10.5t-9 -24.5q0 -32 13.5 -45.5t29 -22.5t29 -20t13.5 -39q0 -42 -13 -89.5t-39.5 -88.5t-66.5 -67.5
t-94 -26.5q-24 0 -49 34t-40 75t-14.5 75t27.5 34q17 0 29 -5.5t46 -5.5q25 0 44 21t19 41q0 12 -15.5 23.5t-34.5 28t-34.5 41.5t-15.5 64q0 68 39 107t139 39q38 0 62.5 -3t45 -7t41.5 -7t53 -3q20 0 40.5 -6t37.5 -25.5t27.5 -57.5t10.5 -101z" />
    <glyph glyph-name="ydieresis" unicode="&#x44f;" horiz-adv-x="613" 
d="M580 341q0 -72 4 -119t9.5 -78.5t9.5 -53t4 -42.5q0 -24 -17.5 -36t-42.5 -12h-103q-43 0 -69.5 30t-26.5 98q0 39 6 81t6 79q0 58 -20 91.5t-52 33.5q-20 0 -29 -10.5t-9 -24.5q0 -32 13.5 -45.5t29 -22.5t29 -20t13.5 -39q0 -42 -13 -89.5t-39.5 -88.5t-66.5 -67.5
t-94 -26.5q-24 0 -49 34t-40 75t-14.5 75t27.5 34q17 0 29 -5.5t46 -5.5q25 0 44 21t19 41q0 12 -15.5 23.5t-34.5 28t-34.5 41.5t-15.5 64q0 68 39 107t139 39q38 0 62.5 -3t45 -7t41.5 -7t53 -3q20 0 40.5 -6t37.5 -25.5t27.5 -57.5t10.5 -101z" />
  </font>
</defs>
</svg>
