<?xml version="1.0" standalone="no"?>
<!DOCTYPE svg PUBLIC "-//W3C//DTD SVG 1.1//EN" "http://www.w3.org/Graphics/SVG/1.1/DTD/svg11.dtd" >
<svg xmlns="http://www.w3.org/2000/svg" xmlns:xlink="http://www.w3.org/1999/xlink" version="1.1">
<metadata>
Created by FontForge 20161116 at Sat Oct 17 11:49:09 2015
 By Jimmy Warting
Copyright \(c\) 2015 by DearType, Veneta Rangelova. All rights reserved.
</metadata>
<defs>
<font id="LifehackItalic-Bold" horiz-adv-x="0" >
  <font-face 
    font-family="Lifehack Italic Bold"
    font-weight="700"
    font-stretch="normal"
    units-per-em="1000"
    panose-1="0 0 8 0 0 0 0 0 0 0"
    ascent="730"
    descent="-270"
    x-height="449"
    cap-height="805"
    bbox="-627.258 -473 2378 1088"
    underline-thickness="50"
    underline-position="-100"
    stemv="189"
    unicode-range="U+0020-FB02"
  />
<missing-glyph horiz-adv-x="500" 
d="M410 730v-1000h-317v1000h317zM333 663h-165v-33h65v-37h-66v-33h166v33h-66v37h66v33zM267 534h-100v-104h166v34h-66v70zM233 500v-36h-33v36h33zM333 403h-166v-33h66v-37h-66v-33h100v70h66v33zM333 343h-33v-66h-133v-34h166v100zM333 221h-100v-56h34v23h33v-47
h-100v80h-33v-113h166v113zM333 48h-166v-113h166v113zM300 15v-47h-100v47h100zM333 -88h-166v-33h70l-70 -47v-33h166v33h-102l70 47h32v33z" />
    <glyph glyph-name="fi" unicode="fi" horiz-adv-x="560" 
d="M461 386c49 0 73 -24 73 -68c0 -26 -13 -63 -43 -311c-25 -16 -45 -23 -66 -23c-48 0 -62 34 -62 88c0 53 15 108 26 188c-24 -27 -57 -47 -99 -47c-9 0 -17 1 -26 2c19 -36 24 -91 15 -163c-21 -171 -97 -298 -182 -298c-95 0 -120 143 -87 413c41 335 121 535 233 535
c36 0 63 -21 78 -57c-16 -81 -74 -189 -128 -244c-4 -29 -7 -51 -11 -74c35 -32 73 -54 118 -54c66 0 95 80 102 101v4c19 3 38 8 59 8zM506 552c36 0 60 -23 60 -54c0 -39 -57 -86 -96 -86c-43 0 -54 51 -54 79c0 37 41 61 90 61zM200 76c9 71 -2 123 -31 155l-14 -105
c-17 -129 -35 -265 -26 -265c7 0 56 94 71 215z" />
    <glyph glyph-name="fl" unicode="fl" horiz-adv-x="771" 
d="M852 331c25 5 33 -10 33 -25c0 -66 -219 -303 -363 -303c-87 0 -139 75 -139 212v19c-25 -19 -60 -33 -105 -33h-8c14 -36 17 -86 9 -149c-21 -171 -97 -298 -182 -298c-95 0 -120 143 -87 413c41 335 121 535 233 535c36 0 63 -21 78 -57c-16 -81 -74 -189 -128 -244
c-4 -29 -7 -51 -11 -74c35 -32 73 -54 118 -54c61 0 80 35 102 91c44 182 159 348 261 348c44 0 73 -31 73 -76c0 -120 -128 -300 -210 -408v-3c0 -80 18 -135 46 -135c55 0 183 113 280 241zM598 554c-19 -53 -39 -117 -52 -180c81 131 115 214 115 251c0 10 -3 17 -8 17
c-12 0 -37 -37 -55 -88zM200 76c9 71 -2 123 -31 155l-14 -105c-17 -129 -35 -265 -26 -265c7 0 56 94 71 215z" />
    <glyph glyph-name="a_z.liga" unicode="az" horiz-adv-x="1105" 
d="M1161 323c46 0 49 -25 46 -45c-33 -7 -123 -30 -288 -130c7 -22 10 -47 7 -75c-19 -154 -176 -328 -318 -328c-54 0 -97 28 -97 77c0 72 102 203 261 318c-16 33 -55 53 -121 65c-12 28 -7 42 21 60c75 46 112 83 116 116c-25 0 -67 -6 -105 -6c-13 0 -24 1 -34 2
c-60 -144 -180 -294 -293 -294c-41 0 -60 24 -68 51c-42 -60 -113 -104 -179 -105c-63 -1 -123 41 -123 132c0 144 144 292 286 292c93 0 144 -65 149 -107c-19 -56 -31 -102 -31 -130c0 -29 10 -45 20 -45c28 0 108 89 175 238c-8 10 -12 22 -12 36c0 52 49 86 108 86
c28 0 45 -11 45 -29c0 -11 -6 -25 -17 -41c11 -1 25 -1 40 -1h52c74 0 119 -29 119 -73c0 -40 -47 -91 -112 -128c24 -8 51 -24 74 -48c91 52 219 112 279 112zM148 142c34 0 115 121 144 216c-4 15 -9 23 -19 23c-39 0 -143 -132 -143 -206c0 -23 9 -33 18 -33zM614 -177
c22 0 136 111 162 226c-99 -80 -171 -166 -171 -212c0 -8 3 -14 9 -14z" />
    <glyph glyph-name="a_z_z.liga" unicode="azz" horiz-adv-x="1551" 
d="M1614 323c46 0 49 -25 46 -45c-33 -7 -123 -30 -288 -130c7 -22 10 -47 7 -75c-19 -154 -176 -328 -318 -328c-54 0 -97 28 -97 77c0 72 102 203 261 318c-16 33 -55 53 -121 65c-12 28 -7 42 21 60c75 46 112 83 116 116c-25 0 -67 -6 -105 -6c-9 0 -17 1 -25 1
c-47 -71 -113 -157 -216 -233c6 -21 9 -44 6 -70c-19 -154 -176 -328 -318 -328c-54 0 -97 28 -97 77c0 73 107 190 264 310c-14 39 -53 60 -124 73c-12 28 -7 42 21 60c75 46 112 83 116 116c-25 0 -67 -6 -105 -6h-10c-61 -143 -180 -292 -292 -292c-41 0 -60 24 -68 51
c-42 -60 -113 -104 -179 -105c-63 -1 -123 41 -123 132c0 144 144 292 286 292c93 0 144 -65 149 -107c-19 -56 -31 -102 -31 -130c0 -29 10 -45 20 -45c27 0 102 83 168 222c-19 11 -30 29 -30 51c0 54 49 87 108 87c28 0 45 -11 45 -29c0 -11 -6 -25 -17 -41
c11 -1 25 -1 40 -1h52c74 0 119 -29 119 -73c0 -40 -47 -91 -112 -128c25 -8 54 -26 77 -52c69 49 129 109 186 194c-13 11 -20 26 -20 44c0 52 49 86 108 86c28 0 45 -11 45 -29c0 -11 -6 -25 -17 -41c11 -1 25 -1 40 -1h52c74 0 119 -29 119 -73c0 -40 -47 -91 -112 -128
c24 -8 51 -24 74 -48c91 52 219 112 279 112zM148 142c34 0 115 121 144 216c-4 15 -9 23 -19 23c-39 0 -143 -132 -143 -206c0 -23 9 -33 18 -33zM1067 -177c22 0 136 111 162 226c-99 -80 -171 -166 -171 -212c0 -8 3 -14 9 -14zM589 -177c21 0 129 105 159 215
c-97 -77 -168 -156 -168 -201c0 -8 3 -14 9 -14z" />
    <glyph glyph-name="b_z.liga" unicode="bz" horiz-adv-x="1070" 
d="M1156 323c46 0 49 -25 46 -45c-33 -7 -123 -30 -288 -130c7 -22 10 -47 7 -75c-19 -154 -176 -328 -318 -328c-54 0 -97 28 -97 77c0 72 102 203 261 318c-16 33 -55 53 -121 65c-12 28 -7 42 21 60c75 46 112 83 116 116c-25 0 -67 -6 -105 -6c-8 0 -15 0 -22 1
c-44 -89 -134 -220 -232 -245c-44 -95 -130 -187 -229 -187c-112 0 -198 105 -174 298c22 178 108 460 289 460c63 0 83 -40 75 -100c-12 -103 -108 -263 -209 -367c-2 -102 19 -183 50 -183c26 0 63 38 90 86c-58 21 -79 67 -73 114c7 51 52 107 131 107
c59 0 90 -50 81 -127c-1 -4 -1 -9 -2 -13c53 33 105 107 142 177c-17 11 -27 28 -27 49c0 52 49 86 108 86c28 0 45 -11 45 -29c0 -11 -6 -25 -17 -41c11 -1 25 -1 40 -1h52c74 0 119 -29 119 -73c0 -40 -47 -91 -112 -128c24 -8 51 -24 74 -48c91 52 219 112 279 112z
M283 590c-23 0 -71 -121 -93 -233c63 91 96 176 100 210c2 16 -1 23 -7 23zM325 263c-2 -18 7 -36 24 -48c3 11 6 22 7 32c2 23 1 51 -11 51c-10 0 -18 -13 -20 -35zM609 -177c22 0 136 111 162 226c-99 -80 -171 -166 -171 -212c0 -8 3 -14 9 -14z" />
    <glyph glyph-name="c_z.liga" unicode="cz" horiz-adv-x="1050" 
d="M1137 323c46 0 49 -25 46 -45c-33 -7 -123 -30 -288 -130c7 -22 10 -47 7 -75c-19 -154 -176 -328 -318 -328c-54 0 -97 28 -97 77c0 72 102 203 261 318c-16 33 -55 53 -121 65c-12 28 -7 42 21 60c75 46 112 83 116 116c-25 0 -67 -6 -105 -6c-7 0 -14 0 -20 1
c-77 -141 -263 -358 -442 -358c-131 0 -200 81 -185 201c14 112 105 235 252 235c74 0 144 -47 139 -92c-3 -24 -26 -40 -82 -62c-22 48 -39 67 -59 67c-41 0 -82 -59 -91 -136c-9 -74 16 -127 76 -127c89 0 224 135 327 293c-16 11 -25 28 -25 48c0 52 49 86 108 86
c28 0 45 -11 45 -29c0 -11 -6 -25 -17 -41c11 -1 25 -1 40 -1h52c74 0 119 -29 119 -73c0 -40 -47 -91 -112 -128c24 -8 51 -24 74 -48c91 52 219 112 279 112zM590 -177c22 0 136 111 162 226c-99 -80 -171 -166 -171 -212c0 -8 3 -14 9 -14z" />
    <glyph glyph-name="d_d.liga" unicode="dd" horiz-adv-x="1155" 
d="M1217 343c31 -1 54 -19 54 -38c0 -41 -148 -282 -294 -282c-56 0 -89 41 -109 93c-37 -53 -93 -84 -155 -84c-75 0 -120 39 -139 93c-40 -68 -100 -131 -180 -131c-64 0 -93 52 -105 118c-33 -57 -83 -109 -148 -109c-219 0 -159 416 50 416c40 0 77 -15 105 -47
c1 7 2 13 2 17c24 191 61 309 143 309c22 0 39 -12 59 -35c-47 -98 -81 -213 -94 -315c-8 -68 -33 -275 39 -275c46 0 94 87 117 131c4 105 76 220 198 220c33 0 63 -9 87 -26c18 239 88 305 160 305c26 0 42 -12 65 -40c-57 -119 -98 -263 -98 -403c0 -89 16 -147 42 -147
c43 0 113 78 201 230zM750 124c43 0 75 66 92 157c-12 32 -27 57 -57 57c-34 0 -69 -68 -69 -141c0 -45 13 -73 34 -73zM177 85c33 0 83 72 107 193c-13 31 -32 55 -68 55c-37 0 -70 -41 -78 -110c-9 -76 10 -138 39 -138z" />
    <glyph glyph-name="d_z.liga" unicode="dz" horiz-adv-x="1145" 
d="M1231 323c46 0 49 -25 46 -45c-33 -7 -123 -30 -288 -130c7 -22 10 -47 7 -75c-19 -154 -176 -328 -318 -328c-54 0 -97 28 -97 77c0 72 102 203 261 318c-16 33 -55 53 -121 65c-12 28 -7 42 21 60c75 46 112 83 116 116c-25 0 -67 -6 -105 -6h-5
c-64 -140 -210 -352 -330 -352c-56 0 -89 41 -109 93c-37 -53 -93 -84 -155 -84c-235 0 -178 392 47 392c33 0 63 -9 87 -26c18 239 88 305 160 305c26 0 42 -12 65 -40c-57 -119 -98 -263 -98 -403c0 -89 16 -147 42 -147c37 0 136 104 221 278c-22 11 -35 30 -35 54
c0 52 49 86 108 86c28 0 45 -11 45 -29c0 -11 -6 -25 -17 -41c11 -1 25 -1 40 -1h52c74 0 119 -29 119 -73c0 -40 -47 -91 -112 -128c24 -8 51 -24 74 -48c91 52 219 112 279 112zM191 124c43 0 75 66 92 157c-12 32 -27 57 -57 57c-34 0 -69 -68 -69 -141
c0 -45 13 -73 34 -73zM684 -177c22 0 136 111 162 226c-99 -80 -171 -166 -171 -212c0 -8 3 -14 9 -14z" />
    <glyph glyph-name="e_z.liga" unicode="ez" horiz-adv-x="1056" 
d="M1142 323c46 0 49 -25 46 -45c-33 -7 -123 -30 -288 -130c7 -22 10 -47 7 -75c-19 -154 -176 -328 -318 -328c-54 0 -97 28 -97 77c0 72 102 203 261 318c-16 33 -55 53 -121 65c-12 28 -7 42 21 60c75 46 112 83 116 116c-25 0 -67 -6 -105 -6c-7 0 -13 0 -19 1
c-73 -146 -228 -365 -423 -365c-118 0 -203 87 -203 208c0 143 104 264 223 264c70 0 109 -41 109 -111c0 -98 -80 -170 -150 -214c17 -32 44 -50 79 -50c70 0 188 89 298 290c-15 11 -24 27 -24 47c0 52 49 86 108 86c28 0 45 -11 45 -29c0 -11 -6 -25 -17 -41
c11 -1 25 -1 40 -1h52c74 0 119 -29 119 -73c0 -40 -47 -91 -112 -128c24 -8 51 -24 74 -48c91 52 219 112 279 112zM237 393c-22 0 -57 -60 -57 -135c0 -7 0 -13 1 -20c38 35 69 77 69 126c0 18 -5 29 -13 29zM595 -177c22 0 136 111 162 226c-99 -80 -171 -166 -171 -212
c0 -8 3 -14 9 -14z" />
    <glyph glyph-name="e_z_z.liga" unicode="ezz" horiz-adv-x="1535" 
d="M1622 323c46 0 49 -25 46 -45c-33 -7 -123 -30 -288 -130c7 -22 10 -47 7 -75c-19 -154 -176 -328 -318 -328c-54 0 -97 28 -97 77c0 72 102 203 261 318c-16 33 -55 53 -121 65c-12 28 -7 42 21 60c75 46 112 83 116 116c-25 0 -67 -6 -105 -6c-11 0 -20 1 -29 2
c-46 -72 -112 -158 -216 -234c6 -21 9 -44 6 -70c-19 -154 -176 -328 -318 -328c-54 0 -97 28 -97 77c0 73 107 190 264 310c-14 39 -53 60 -124 73c-12 28 -7 42 21 60c75 46 112 83 116 116c-25 0 -67 -6 -105 -6c-6 0 -12 0 -17 1c-73 -146 -228 -365 -423 -365
c-118 0 -203 87 -203 208c0 143 104 264 223 264c70 0 109 -41 109 -111c0 -98 -80 -170 -150 -214c17 -32 44 -50 79 -50c70 0 188 88 297 288c-16 11 -25 28 -25 48c0 54 49 87 108 87c28 0 45 -11 45 -29c0 -11 -6 -25 -17 -41c11 -1 25 -1 40 -1h52
c74 0 119 -29 119 -73c0 -40 -47 -91 -112 -128c25 -8 54 -26 77 -52c69 49 130 111 187 196c-11 11 -17 25 -17 42c0 52 49 86 108 86c28 0 45 -11 45 -29c0 -11 -6 -25 -17 -41c11 -1 25 -1 40 -1h52c74 0 119 -29 119 -73c0 -40 -47 -91 -112 -128c24 -8 51 -24 74 -48
c91 52 219 112 279 112zM237 393c-22 0 -57 -60 -57 -135c0 -7 0 -13 1 -20c38 35 69 77 69 126c0 18 -5 29 -13 29zM1075 -177c22 0 136 111 162 226c-99 -80 -171 -166 -171 -212c0 -8 3 -14 9 -14zM593 -177c21 0 129 105 159 215c-97 -77 -168 -156 -168 -201
c0 -8 3 -14 9 -14z" />
    <glyph glyph-name="f_z.liga" unicode="fz" horiz-adv-x="943" 
d="M1031 323c46 0 49 -25 46 -45c-33 -7 -123 -30 -288 -130c7 -22 10 -47 7 -75c-19 -154 -176 -328 -318 -328c-54 0 -97 28 -97 77c0 72 102 203 261 318c-16 33 -55 53 -121 65c-12 28 -7 42 21 60c75 46 112 83 116 116c-25 0 -67 -6 -105 -6c-8 0 -16 0 -23 1
c-65 -103 -164 -163 -242 -163c-9 0 -18 0 -25 1c13 -26 20 -63 20 -109c0 -186 -86 -351 -186 -351c-69 0 -101 91 -101 254c0 305 79 694 247 694c35 0 63 -21 78 -57c-17 -81 -74 -189 -129 -244c-3 -29 -7 -51 -10 -74c31 -27 65 -43 115 -43c60 0 120 44 170 113
c-15 11 -24 28 -24 48c0 52 49 86 108 86c28 0 45 -11 45 -29c0 -11 -6 -25 -17 -41c11 -1 25 -1 40 -1h52c74 0 119 -29 119 -73c0 -40 -47 -91 -112 -128c24 -8 51 -24 74 -48c91 52 219 112 279 112zM129 -139c8 0 73 122 73 253c0 50 -11 89 -34 116
c-4 -28 -9 -61 -14 -104c-16 -129 -34 -265 -25 -265zM484 -177c22 0 136 111 162 226c-99 -80 -171 -166 -171 -212c0 -8 3 -14 9 -14z" />
    <glyph glyph-name="g_z.liga" unicode="gz" horiz-adv-x="1008" 
d="M1099 323c46 0 49 -25 46 -45c-33 -7 -123 -30 -288 -130c7 -22 10 -47 7 -75c-19 -154 -176 -328 -318 -328c-54 0 -97 28 -97 77c0 72 102 203 261 318c-16 33 -55 53 -121 65c-12 28 -7 42 21 60c75 46 112 83 116 116c-25 0 -67 -6 -105 -6c-11 0 -21 1 -29 2
c-61 -85 -149 -134 -225 -180c-19 -198 -116 -465 -289 -465c-63 0 -98 36 -98 98c0 119 110 252 249 353c0 7 1 12 1 18c-39 -37 -80 -55 -121 -55c-60 0 -93 38 -93 104c0 131 150 258 281 258c39 0 77 -15 77 -45c0 -27 -28 -44 -87 -59c-5 17 -13 24 -22 24
c-46 0 -116 -105 -116 -170c0 -20 6 -28 16 -28c26 0 76 61 67 115c52 32 65 32 84 32c38 0 54 -29 55 -105c59 34 115 69 160 129c-13 11 -20 26 -20 44c0 52 49 86 108 86c28 0 45 -11 45 -29c0 -11 -6 -25 -17 -41c11 -1 25 -1 40 -1h52c74 0 119 -29 119 -73
c0 -40 -47 -91 -112 -128c24 -8 51 -24 74 -48c91 52 219 112 279 112zM87 -211c47 0 99 156 125 286c-83 -86 -138 -181 -138 -261c0 -15 4 -25 13 -25zM552 -177c22 0 136 111 162 226c-99 -80 -171 -166 -171 -212c0 -8 3 -14 9 -14z" />
    <glyph glyph-name="h_z.liga" unicode="hz" horiz-adv-x="1099" 
d="M1182 323c46 0 49 -25 46 -45c-33 -7 -123 -30 -288 -130c7 -22 10 -47 7 -75c-19 -154 -176 -328 -318 -328c-54 0 -97 28 -97 77c0 72 102 203 261 318c-16 33 -55 53 -121 65c-12 28 -7 42 21 60c75 46 112 83 116 116c-25 0 -67 -6 -105 -6c-6 0 -11 0 -16 1
c-103 -218 -227 -373 -330 -373c-59 0 -88 62 -91 140c-59 -144 -129 -237 -191 -237c-51 0 -76 53 -76 154c0 199 121 601 281 601c49 0 79 -42 79 -100c0 -92 -67 -184 -194 -269c-18 -100 -33 -200 -39 -248c14 0 125 320 219 292c33 -10 54 -27 66 -54
c-12 -28 -26 -79 -26 -117c0 -31 8 -51 27 -51c37 0 135 131 206 283c-16 11 -25 28 -25 48c0 52 49 86 108 86c28 0 45 -11 45 -29c0 -11 -6 -25 -17 -41c11 -1 25 -1 40 -1h52c74 0 119 -29 119 -73c0 -40 -47 -91 -112 -128c24 -8 51 -24 74 -48c91 52 219 112 279 112z
M247 564c-17 0 -39 -70 -59 -160c40 44 71 105 71 140c0 11 -2 20 -12 20zM635 -177c22 0 136 111 162 226c-99 -80 -171 -166 -171 -212c0 -8 3 -14 9 -14z" />
    <glyph glyph-name="j_z.liga" unicode="jz" horiz-adv-x="957" 
d="M165 447c-50 0 -87 32 -87 75c0 42 58 73 122 73c43 0 67 -16 67 -45c0 -32 -34 -103 -102 -103zM1045 323c46 0 49 -25 46 -45c-33 -7 -123 -30 -288 -130c7 -22 10 -47 7 -75c-19 -154 -176 -328 -318 -328c-54 0 -97 28 -97 77c0 72 102 203 261 318
c-16 33 -55 53 -121 65c-12 28 -7 42 21 60c75 46 112 83 116 116c-25 0 -67 -6 -105 -6c-12 0 -23 1 -32 2c-73 -99 -183 -181 -271 -256c-10 -272 -119 -380 -226 -380c-46 0 -76 34 -76 82c0 66 72 162 162 256c-3 112 -30 234 -55 293c37 29 58 38 87 38
c64 0 99 -94 107 -202c69 55 150 112 209 197c-9 11 -15 25 -15 40c0 52 49 86 108 86c28 0 45 -11 45 -29c0 -11 -6 -25 -17 -41c11 -1 25 -1 40 -1h52c74 0 119 -29 119 -73c0 -40 -47 -91 -112 -128c24 -8 51 -24 74 -48c91 52 219 112 279 112zM498 -177
c22 0 136 111 162 226c-99 -80 -171 -166 -171 -212c0 -8 3 -14 9 -14zM57 -180c23 0 53 79 60 134l3 25c-45 -54 -75 -104 -75 -143c0 -10 4 -16 12 -16z" />
    <glyph glyph-name="k_z.liga" unicode="kz" horiz-adv-x="1087" 
d="M1174 323c46 0 49 -25 46 -45c-33 -7 -123 -30 -288 -130c7 -22 10 -47 7 -75c-19 -154 -176 -328 -318 -328c-54 0 -97 28 -97 77c0 72 102 203 261 318c-16 33 -55 53 -121 65c-12 28 -7 42 21 60c75 46 112 83 116 116c-25 0 -67 -6 -105 -6h-12
c-59 -153 -163 -351 -308 -351c-85 0 -138 68 -174 134c-20 -12 -41 -23 -63 -35c-1 -11 -3 -22 -4 -33c-8 -66 -38 -105 -84 -105c-29 0 -56 15 -64 24c19 48 80 142 80 539c0 28 -1 105 -3 127c39 22 73 33 100 33c40 0 58 -25 58 -77c0 -37 -23 -146 -47 -279
c47 74 111 138 175 138c51 0 80 -28 80 -76c0 -50 -39 -115 -126 -185c29 -56 65 -100 102 -100c80 0 163 150 214 262c-21 11 -34 30 -34 54c0 52 49 86 108 86c28 0 45 -11 45 -29c0 -11 -6 -25 -17 -41c11 -1 25 -1 40 -1h52c74 0 119 -29 119 -73
c0 -40 -47 -91 -112 -128c24 -8 51 -24 74 -48c91 52 219 112 279 112zM290 392c-21 0 -94 -97 -134 -173c69 44 149 114 149 159c0 8 -4 14 -15 14zM627 -177c22 0 136 111 162 226c-99 -80 -171 -166 -171 -212c0 -8 3 -14 9 -14z" />
    <glyph glyph-name="l_z.liga" unicode="lz" horiz-adv-x="977" 
d="M1066 323c46 0 49 -25 46 -45c-33 -7 -123 -30 -288 -130c7 -22 10 -47 7 -75c-19 -154 -176 -328 -318 -328c-54 0 -97 28 -97 77c0 72 102 203 261 318c-16 33 -55 53 -121 65c-12 28 -7 42 21 60c75 46 112 83 116 116c-25 0 -67 -6 -105 -6c-10 0 -20 1 -28 2
c-79 -158 -219 -374 -388 -374c-92 0 -145 76 -145 212c0 229 151 497 280 497c44 0 73 -31 73 -76c0 -120 -128 -300 -210 -408v-1c0 -81 19 -137 56 -137c48 0 169 97 271 312c-12 11 -19 26 -19 43c0 52 49 86 108 86c28 0 45 -11 45 -29c0 -11 -6 -25 -17 -41
c11 -1 25 -1 40 -1h52c74 0 119 -29 119 -73c0 -40 -47 -91 -112 -128c24 -8 51 -24 74 -48c91 52 219 112 279 112zM242 554c-19 -53 -39 -118 -52 -180c81 131 115 214 115 251c0 10 -3 17 -8 17c-12 0 -37 -37 -55 -88zM519 -177c22 0 136 111 162 226
c-99 -80 -171 -166 -171 -212c0 -8 3 -14 9 -14z" />
    <glyph glyph-name="m_z.liga" unicode="mz" horiz-adv-x="1402" 
d="M1492 323c46 0 49 -25 46 -45c-33 -7 -123 -30 -288 -130c7 -22 10 -47 7 -75c-19 -154 -176 -328 -318 -328c-54 0 -97 28 -97 77c0 72 102 203 261 318c-16 33 -55 53 -121 65c-12 28 -7 42 21 60c75 46 112 83 116 116c-25 0 -67 -6 -105 -6c-8 0 -15 0 -22 1
c-83 -161 -183 -342 -363 -342c-80 0 -110 54 -110 113c0 60 26 120 32 173c-12 -17 -36 -63 -61 -111c-53 -103 -90 -146 -135 -146c-31 0 -59 17 -72 44c5 17 31 94 41 176c4 31 1 50 4 57c-31 -35 -145 -296 -259 -296c-33 0 -66 15 -81 37c27 127 65 248 43 351
c19 19 53 32 81 32c39 0 52 -43 52 -93c0 -68 -25 -147 -37 -192c85 148 138 267 244 267c54 0 68 -81 50 -179c51 90 110 170 190 170c51 0 82 -32 82 -82c0 -49 -29 -132 -29 -184c0 -37 13 -53 34 -53c53 0 152 127 228 282c-14 11 -22 26 -22 45c0 52 49 86 108 86
c28 0 45 -11 45 -29c0 -11 -6 -25 -17 -41c11 -1 25 -1 40 -1h52c74 0 119 -29 119 -73c0 -40 -47 -91 -112 -128c24 -8 51 -24 74 -48c91 52 219 112 279 112zM945 -177c22 0 136 111 162 226c-99 -80 -171 -166 -171 -212c0 -8 3 -14 9 -14z" />
    <glyph glyph-name="n_z.liga" unicode="nz" horiz-adv-x="1211" 
d="M1304 323c46 0 49 -25 46 -45c-33 -7 -123 -30 -288 -130c7 -22 10 -47 7 -75c-19 -154 -176 -328 -318 -328c-54 0 -97 28 -97 77c0 72 102 203 261 318c-16 33 -55 53 -121 65c-12 28 -7 42 21 60c75 46 112 83 116 116c-25 0 -67 -6 -105 -6c-7 0 -14 0 -21 1
c-88 -164 -234 -384 -386 -384c-89 0 -120 66 -120 137c0 83 45 151 45 217c0 15 -3 21 -10 23c-40 -19 -105 -117 -176 -302c-15 -8 -32 -13 -53 -13c-68 0 -84 46 -84 97c0 101 36 168 36 254c0 15 -1 34 -3 45c24 21 63 37 93 37c40 0 63 -24 63 -64
c0 -20 -11 -69 -19 -123c76 104 141 147 201 147c70 0 91 -48 91 -109c0 -57 -25 -120 -25 -188c0 -30 7 -54 28 -54c42 0 154 119 250 305c-13 11 -20 26 -20 44c0 52 49 86 108 86c28 0 45 -11 45 -29c0 -11 -6 -25 -17 -41c11 -1 25 -1 40 -1h52c74 0 119 -29 119 -73
c0 -40 -47 -91 -112 -128c24 -8 51 -24 74 -48c91 52 219 112 279 112zM757 -177c22 0 136 111 162 226c-99 -80 -171 -166 -171 -212c0 -8 3 -14 9 -14z" />
    <glyph glyph-name="o_z.liga" unicode="oz" horiz-adv-x="1093" 
d="M1178 323c46 0 49 -25 46 -45c-33 -7 -123 -30 -288 -130c7 -22 10 -47 7 -75c-19 -154 -176 -328 -318 -328c-54 0 -97 28 -97 77c0 72 102 203 261 318c-16 33 -55 53 -121 65c-12 28 -7 42 21 60c75 46 112 83 116 116c-25 0 -67 -6 -105 -6c-9 0 -18 1 -25 1
c-62 -100 -142 -178 -242 -178c-13 0 -25 1 -36 4c-35 -91 -113 -168 -224 -171c-122 -3 -169 93 -169 176c0 85 49 153 120 159c18 69 78 110 151 110c90 0 143 -65 143 -163c0 -11 -1 -22 -2 -33c10 -5 23 -9 38 -9c55 0 106 45 160 126c-15 12 -24 28 -24 48
c0 52 49 86 108 86c28 0 45 -11 45 -29c0 -11 -6 -25 -17 -41c11 -1 25 -1 40 -1h52c74 0 119 -29 119 -73c0 -40 -47 -91 -112 -128c24 -8 51 -24 74 -48c91 52 219 112 279 112zM185 94c38 0 82 93 82 191c0 64 -19 102 -48 102c-20 0 -35 -17 -44 -29
c20 -12 31 -33 31 -63c0 -18 -3 -30 -12 -55c-24 0 -48 -45 -48 -81c0 -35 18 -65 39 -65zM631 -177c22 0 136 111 162 226c-99 -80 -171 -166 -171 -212c0 -8 3 -14 9 -14z" />
    <glyph glyph-name="o_z_z.liga" unicode="ozz" horiz-adv-x="1570" 
d="M1651 323c46 0 49 -25 46 -45c-33 -7 -123 -30 -288 -130c7 -22 10 -47 7 -75c-19 -154 -176 -328 -318 -328c-54 0 -97 28 -97 77c0 72 102 203 261 318c-16 33 -55 53 -121 65c-12 28 -7 42 21 60c75 46 112 83 116 116c-25 0 -67 -6 -105 -6c-9 0 -17 1 -25 1
c-47 -71 -113 -157 -216 -233c6 -21 9 -44 6 -70c-19 -154 -176 -328 -318 -328c-54 0 -97 28 -97 77c0 73 107 190 264 310c-14 39 -53 60 -124 73c-12 28 -7 42 21 60c75 46 112 83 116 116c-25 0 -67 -6 -105 -6c-7 0 -14 0 -21 1c-61 -100 -141 -178 -241 -178
c-13 0 -25 1 -36 4c-35 -91 -113 -168 -224 -171c-122 -3 -169 93 -169 176c0 85 49 153 120 159c18 69 78 110 151 110c90 0 143 -65 143 -163c0 -11 -1 -22 -2 -33c10 -5 23 -9 38 -9c54 0 105 44 159 124c-18 11 -28 28 -28 49c0 54 49 87 108 87c28 0 45 -11 45 -29
c0 -11 -6 -25 -17 -41c11 -1 25 -1 40 -1h52c74 0 119 -29 119 -73c0 -40 -47 -91 -112 -128c25 -8 54 -26 77 -52c69 49 129 109 186 194c-13 11 -20 26 -20 44c0 52 49 86 108 86c28 0 45 -11 45 -29c0 -11 -6 -25 -17 -41c11 -1 25 -1 40 -1h52c74 0 119 -29 119 -73
c0 -40 -47 -91 -112 -128c24 -8 51 -24 74 -48c91 52 219 112 279 112zM185 94c38 0 82 93 82 191c0 64 -19 102 -48 102c-20 0 -35 -17 -44 -29c20 -12 31 -33 31 -63c0 -18 -3 -30 -12 -55c-24 0 -48 -45 -48 -81c0 -35 18 -65 39 -65zM1104 -177c22 0 136 111 162 226
c-99 -80 -171 -166 -171 -212c0 -8 3 -14 9 -14zM626 -177c21 0 129 105 159 215c-97 -77 -168 -156 -168 -201c0 -8 3 -14 9 -14z" />
    <glyph glyph-name="p_z.liga" unicode="pz" horiz-adv-x="1058" 
d="M1146 323c46 0 49 -25 46 -45c-33 -7 -123 -30 -288 -130c7 -22 10 -47 7 -75c-19 -154 -176 -328 -318 -328c-54 0 -97 28 -97 77c0 72 102 203 261 318c-16 33 -55 53 -121 65c-12 28 -7 42 21 60c75 46 112 83 116 116c-25 0 -67 -6 -105 -6c-18 0 -34 2 -47 5
c-62 -55 -143 -83 -209 -102c-45 -83 -124 -160 -184 -160c-31 0 -44 18 -44 42c0 65 58 119 134 152c6 21 10 40 10 50c0 14 -5 20 -16 20c-86 0 -184 -218 -184 -534l1 -81c-31 -7 -59 -11 -81 -11c-76 0 -91 45 -67 185c27 156 68 351 68 460c0 27 -2 66 -6 94
c29 25 62 39 88 39c37 0 57 -27 57 -72c0 -13 -3 -35 -9 -56c67 47 129 75 181 75c49 0 89 -25 89 -84c0 -14 -2 -29 -6 -45c44 15 87 34 124 62c-6 9 -9 20 -9 31c0 52 49 86 108 86c28 0 45 -11 45 -29c0 -11 -6 -25 -17 -41c11 -1 25 -1 40 -1h52c74 0 119 -29 119 -73
c0 -40 -47 -91 -112 -128c24 -8 51 -24 74 -48c91 52 219 112 279 112zM239 153c13 0 34 39 53 85c-42 -25 -60 -59 -60 -75c0 -6 2 -10 7 -10zM599 -177c22 0 136 111 162 226c-99 -80 -171 -166 -171 -212c0 -8 3 -14 9 -14z" />
    <glyph glyph-name="q_z.liga" unicode="qz" horiz-adv-x="1104" 
d="M1194 323c46 0 49 -25 46 -45c-33 -7 -123 -30 -288 -130c7 -22 10 -47 7 -75c-19 -154 -176 -328 -318 -328c-54 0 -97 28 -97 77c0 72 102 203 261 318c-16 33 -55 53 -121 65c-12 28 -7 42 21 60c75 46 112 83 116 116c-25 0 -67 -6 -105 -6c-16 0 -30 1 -42 4
c-93 -113 -232 -282 -363 -590c-21 -19 -70 -39 -89 -39c-45 0 -62 37 -62 120c0 111 24 206 55 282c-43 -36 -91 -57 -134 -57c-57 0 -92 45 -84 111c19 150 186 281 355 281c39 0 66 -19 66 -46c0 -23 -17 -39 -42 -52c-13 11 -20 14 -37 14c-76 0 -209 -107 -209 -196
c0 -13 6 -18 15 -18c33 0 108 74 121 131c22 17 49 27 72 27c27 0 48 -15 48 -48c0 -43 -54 -131 -86 -306c-3 -14 -9 -44 -13 -75c126 251 259 412 331 491c-8 10 -12 22 -12 36c0 52 49 86 108 86c28 0 45 -11 45 -29c0 -11 -6 -25 -17 -41c11 -1 25 -1 40 -1h52
c74 0 119 -29 119 -73c0 -40 -47 -91 -112 -128c24 -8 51 -24 74 -48c91 52 219 112 279 112zM647 -177c22 0 136 111 162 226c-99 -80 -171 -166 -171 -212c0 -8 3 -14 9 -14z" />
    <glyph glyph-name="r_z.liga" unicode="rz" horiz-adv-x="1033" 
d="M1128 323c46 0 49 -25 46 -45c-33 -7 -123 -30 -288 -130c7 -22 10 -47 7 -75c-19 -154 -176 -328 -318 -328c-54 0 -97 28 -97 77c0 72 102 203 261 318c-16 33 -55 53 -121 65c-12 28 -7 42 21 60c75 46 112 83 116 116c-25 0 -67 -6 -105 -6c-8 0 -15 0 -21 1
c-123 -240 -259 -412 -401 -412c-87 0 -127 48 -127 114c0 70 44 144 76 191c-135 21 -158 83 -158 123c0 87 88 133 140 133c35 0 45 -27 45 -47c0 -25 -14 -56 -36 -94c71 -16 190 -16 190 -71c0 -56 -116 -153 -116 -230c0 -22 10 -34 28 -34c74 0 204 183 291 351
c-13 11 -21 27 -21 45c0 52 49 86 108 86c28 0 45 -11 45 -29c0 -11 -6 -25 -17 -41c11 -1 25 -1 40 -1h52c74 0 119 -29 119 -73c0 -40 -47 -91 -112 -128c24 -8 51 -24 74 -48c91 52 219 112 279 112zM581 -177c22 0 136 111 162 226c-99 -80 -171 -166 -171 -212
c0 -8 3 -14 9 -14z" />
    <glyph glyph-name="s_z.liga" unicode="sz" horiz-adv-x="954" 
d="M1044 323c46 0 49 -25 46 -45c-33 -7 -123 -30 -288 -130c7 -22 10 -47 7 -75c-19 -154 -176 -328 -318 -328c-54 0 -97 28 -97 77c0 72 102 203 261 318c-16 33 -55 53 -121 65c-12 28 -7 42 21 60c75 46 112 83 116 116c-25 0 -67 -6 -105 -6c-15 0 -28 1 -39 3
c-69 -65 -158 -115 -228 -151c15 -22 23 -46 23 -70c0 -98 -121 -156 -214 -156c-57 0 -103 24 -103 75c0 40 41 86 100 126c-27 27 -56 60 -56 111c0 61 44 111 110 131c77 23 140 6 150 -18c-5 -45 -56 -74 -119 -72c-2 -22 17 -43 54 -71l6 -4c70 32 149 72 217 132
c-7 9 -11 21 -11 34c0 52 49 86 108 86c28 0 45 -11 45 -29c0 -11 -6 -25 -17 -41c11 -1 25 -1 40 -1h52c74 0 119 -29 119 -73c0 -40 -47 -91 -112 -128c24 -8 51 -24 74 -48c91 52 219 112 279 112zM91 60c19 0 61 32 61 68c0 6 -1 12 -3 17c-41 -28 -67 -54 -67 -75
c0 -7 3 -10 9 -10zM497 -177c22 0 136 111 162 226c-99 -80 -171 -166 -171 -212c0 -8 3 -14 9 -14z" />
    <glyph glyph-name="t_z.liga" unicode="tz" horiz-adv-x="993" 
d="M1077 323c46 0 49 -25 46 -45c-33 -7 -123 -30 -288 -130c7 -22 10 -47 7 -75c-19 -154 -176 -328 -318 -328c-54 0 -97 28 -97 77c0 72 102 203 261 318c-16 33 -55 53 -121 65c-12 28 -7 42 21 60c75 46 112 83 116 116c-25 0 -67 -6 -105 -6c-8 0 -15 0 -22 1
c-95 -187 -208 -385 -382 -385c-103 0 -157 71 -157 193c0 75 19 154 42 232h-40c-30 0 -47 15 -47 41c0 16 7 33 19 57c23 -7 55 -12 94 -14c22 72 44 144 51 210c98 2 138 -6 138 -71c0 -47 -14 -95 -33 -144h142c-3 -14 -7 -23 -16 -42c-14 -29 -47 -36 -158 -38
c-30 -75 -59 -156 -59 -250c0 -69 36 -84 65 -84c89 0 197 166 271 322c-11 11 -18 25 -18 42c0 52 49 86 108 86c28 0 45 -11 45 -29c0 -11 -6 -25 -17 -41c11 -1 25 -1 40 -1h52c74 0 119 -29 119 -73c0 -40 -47 -91 -112 -128c24 -8 51 -24 74 -48c91 52 219 112 279 112
zM530 -177c22 0 136 111 162 226c-99 -80 -171 -166 -171 -212c0 -8 3 -14 9 -14z" />
    <glyph glyph-name="u_z.liga" unicode="uz" horiz-adv-x="1121" 
d="M1207 323c46 0 49 -25 46 -45c-33 -7 -123 -30 -288 -130c7 -22 10 -47 7 -75c-19 -154 -176 -328 -318 -328c-54 0 -97 28 -97 77c0 72 102 203 261 318c-16 33 -55 53 -121 65c-12 28 -7 42 21 60c75 46 112 83 116 116c-25 0 -67 -6 -105 -6c-8 0 -16 1 -23 1
c-107 -197 -211 -336 -333 -336c-56 0 -100 32 -110 97c-46 -50 -105 -98 -167 -98c-61 0 -91 36 -91 103c0 54 35 163 35 251c0 15 -1 34 -2 46c30 5 58 10 86 10c42 0 62 -19 62 -63c0 -41 -33 -154 -33 -205c0 -23 5 -33 13 -33c15 0 57 26 101 83c10 53 28 110 28 168
c0 15 -1 31 -3 39c17 3 38 6 56 6c55 0 81 -27 81 -87c0 -46 -34 -135 -34 -196c0 -26 5 -40 18 -40c38 0 126 99 225 281c-12 11 -19 26 -19 43c0 52 49 86 108 86c28 0 45 -11 45 -29c0 -11 -6 -25 -17 -41c11 -1 25 -1 40 -1h52c74 0 119 -29 119 -73
c0 -40 -47 -91 -112 -128c24 -8 51 -24 74 -48c91 52 219 112 279 112zM660 -177c22 0 136 111 162 226c-99 -80 -171 -166 -171 -212c0 -8 3 -14 9 -14z" />
    <glyph glyph-name="u_z_z.liga" unicode="uzz" horiz-adv-x="1595" 
d="M1683 323c46 0 49 -25 46 -45c-33 -7 -123 -30 -288 -130c7 -22 10 -47 7 -75c-19 -154 -176 -328 -318 -328c-54 0 -97 28 -97 77c0 72 102 203 261 318c-16 33 -55 53 -121 65c-12 28 -7 42 21 60c75 46 112 83 116 116c-25 0 -67 -6 -105 -6c-9 0 -17 1 -25 1
c-47 -71 -113 -157 -216 -233c6 -21 9 -44 6 -70c-19 -154 -176 -328 -318 -328c-54 0 -97 28 -97 77c0 73 107 190 264 310c-14 39 -53 60 -124 73c-12 28 -7 42 21 60c75 46 112 83 116 116c-25 0 -67 -6 -105 -6c-7 0 -14 0 -21 1c-107 -197 -211 -336 -333 -336
c-56 0 -100 32 -110 97c-46 -50 -105 -98 -167 -98c-61 0 -91 36 -91 103c0 54 35 163 35 251c0 15 -1 34 -2 46c30 5 58 10 86 10c42 0 62 -19 62 -63c0 -41 -33 -154 -33 -205c0 -23 5 -33 13 -33c15 0 57 26 101 83c10 53 28 110 28 168c0 15 -1 31 -3 39c17 3 38 6 56 6
c55 0 81 -27 81 -87c0 -46 -34 -135 -34 -196c0 -26 5 -40 18 -40c38 0 126 98 224 279c-13 11 -20 26 -20 44c0 54 49 87 108 87c28 0 45 -11 45 -29c0 -11 -6 -25 -17 -41c11 -1 25 -1 40 -1h52c74 0 119 -29 119 -73c0 -40 -47 -91 -112 -128c25 -8 54 -26 77 -52
c69 49 129 109 186 194c-13 11 -20 26 -20 44c0 52 49 86 108 86c28 0 45 -11 45 -29c0 -11 -6 -25 -17 -41c11 -1 25 -1 40 -1h52c74 0 119 -29 119 -73c0 -40 -47 -91 -112 -128c24 -8 51 -24 74 -48c91 52 219 112 279 112zM1136 -177c22 0 136 111 162 226
c-99 -80 -171 -166 -171 -212c0 -8 3 -14 9 -14zM658 -177c21 0 129 105 159 215c-97 -77 -168 -156 -168 -201c0 -8 3 -14 9 -14z" />
    <glyph glyph-name="v_z.liga" unicode="vz" horiz-adv-x="1098" 
d="M1187 323c46 0 49 -25 46 -45c-33 -7 -123 -30 -288 -130c7 -22 10 -47 7 -75c-19 -154 -176 -328 -318 -328c-54 0 -97 28 -97 77c0 72 102 203 261 318c-16 33 -55 53 -121 65c-12 28 -7 42 21 60c75 46 112 83 116 116c-25 0 -67 -6 -105 -6c-10 0 -18 1 -26 1
c-58 -77 -148 -137 -228 -137c-18 0 -39 3 -59 8c-67 -135 -159 -229 -231 -229c-98 0 -80 167 -138 368c33 35 76 54 121 54c53 0 70 -26 70 -83c0 -72 -26 -141 -26 -194c0 -22 4 -35 13 -35c21 0 66 99 97 198c-7 17 -10 38 -10 58c0 66 43 109 90 109
c43 0 67 -31 67 -82c0 -26 -6 -52 -19 -86c14 -5 30 -7 46 -7c44 0 93 31 140 85c-11 11 -17 26 -17 42c0 52 49 86 108 86c28 0 45 -11 45 -29c0 -11 -6 -25 -17 -41c11 -1 25 -1 40 -1h52c74 0 119 -29 119 -73c0 -40 -47 -91 -112 -128c24 -8 51 -24 74 -48
c91 52 219 112 279 112zM640 -177c22 0 136 111 162 226c-99 -80 -171 -166 -171 -212c0 -8 3 -14 9 -14z" />
    <glyph glyph-name="w_i.liga" unicode="wi" horiz-adv-x="941" 
d="M866 552c36 0 60 -23 60 -54c0 -39 -57 -86 -96 -86c-43 0 -54 51 -54 79c0 37 41 61 90 61zM821 386c49 0 73 -24 73 -68c0 -26 -13 -63 -43 -311c-25 -16 -45 -23 -66 -23c-48 0 -62 34 -62 88c0 59 18 119 29 212c-24 -17 -56 -30 -89 -30c-24 0 -42 4 -58 11
c-20 -109 -96 -229 -217 -229c-53 0 -78 34 -88 88c-34 -73 -98 -105 -155 -105c-78 0 -121 72 -121 189c0 110 5 268 140 268c22 0 50 -7 75 -19c-38 -71 -57 -147 -57 -250c0 -60 8 -102 21 -102c25 0 59 64 59 169v28c14 12 40 20 62 20c49 0 57 -30 57 -149
c0 -52 8 -70 25 -70c38 0 67 90 67 179c0 72 -18 108 -23 123c13 15 45 31 78 31c32 0 55 -14 68 -40c2 -1 3 -2 4 -4c21 -54 43 -74 77 -74c36 0 69 31 85 60c19 3 38 8 59 8z" />
    <glyph glyph-name="w_z.liga" unicode="wz" horiz-adv-x="1256" 
d="M1346 323c46 0 49 -25 46 -45c-33 -7 -123 -30 -288 -130c7 -22 10 -47 7 -75c-19 -154 -176 -328 -318 -328c-54 0 -97 28 -97 77c0 72 102 203 261 318c-16 33 -55 53 -121 65c-12 28 -7 42 21 60c75 46 112 83 116 116c-25 0 -67 -6 -105 -6c-13 0 -24 1 -35 3
c-63 -79 -120 -111 -179 -111c-16 0 -30 2 -43 6c-18 -111 -95 -237 -219 -237c-53 0 -78 34 -88 88c-34 -73 -98 -105 -155 -105c-78 0 -121 72 -121 189c0 116 8 268 140 268c22 0 49 -7 76 -19c-38 -71 -58 -146 -58 -249c0 -61 8 -103 21 -103c25 0 59 64 59 169v28
c14 12 39 20 62 20c50 0 57 -30 57 -148c0 -52 7 -71 25 -71c38 0 67 90 67 179c0 72 -18 108 -23 123c13 15 45 31 78 31c42 0 69 -24 79 -69c18 -16 34 -25 56 -25c35 0 69 30 101 70c-6 9 -10 20 -10 33c0 52 49 86 108 86c28 0 45 -11 45 -29c0 -11 -6 -25 -17 -41
c11 -1 25 -1 40 -1h52c74 0 119 -29 119 -73c0 -40 -47 -91 -112 -128c24 -8 51 -24 74 -48c91 52 219 112 279 112zM799 -177c22 0 136 111 162 226c-99 -80 -171 -166 -171 -212c0 -8 3 -14 9 -14z" />
    <glyph glyph-name="y_z.liga" unicode="yz" horiz-adv-x="1015" 
d="M1104 323c46 0 49 -25 46 -45c-33 -7 -123 -30 -288 -130c7 -22 10 -47 7 -75c-19 -154 -176 -328 -318 -328c-54 0 -97 28 -97 77c0 72 102 203 261 318c-16 33 -55 53 -121 65c-12 28 -7 42 21 60c75 46 112 83 116 116c-25 0 -67 -6 -105 -6c-15 0 -28 1 -39 3
c-62 -74 -141 -130 -216 -181c-58 -308 -243 -465 -316 -465c-49 0 -79 39 -79 100c0 129 113 247 245 341c3 12 5 24 7 35c-36 -36 -75 -56 -113 -56c-58 0 -90 53 -90 135c0 37 10 68 14 110c2 21 3 40 4 58c10 9 37 19 67 19c44 0 68 -19 68 -51c0 -24 -24 -92 -24 -139
c0 -21 4 -38 17 -38c30 0 66 89 80 207c16 17 52 24 73 24c51 0 65 -36 65 -85c0 -38 -2 -74 -5 -108c55 40 104 81 143 127c-7 9 -11 21 -11 34c0 52 49 86 108 86c28 0 45 -11 45 -29c0 -11 -6 -25 -17 -41c11 -1 25 -1 40 -1h52c74 0 119 -29 119 -73
c0 -40 -47 -91 -112 -128c24 -8 51 -24 74 -48c91 52 219 112 279 112zM60 -192c28 0 84 121 125 245c-80 -77 -134 -156 -134 -228c0 -10 3 -17 9 -17zM557 -177c22 0 136 111 162 226c-99 -80 -171 -166 -171 -212c0 -8 3 -14 9 -14z" />
    <glyph glyph-name="z_z.liga" unicode="zz" horiz-adv-x="1027" 
d="M1117 323c46 0 49 -25 46 -45c-33 -7 -123 -30 -288 -130c7 -22 10 -47 7 -75c-19 -154 -176 -328 -318 -328c-54 0 -97 28 -97 77c0 72 102 203 261 318c-16 33 -55 53 -121 65c-12 28 -7 42 21 60c75 46 112 83 116 116c-25 0 -67 -6 -105 -6c-9 0 -17 1 -25 1
c-47 -71 -113 -157 -216 -233c6 -21 9 -44 6 -70c-19 -154 -176 -328 -318 -328c-54 0 -97 28 -97 77c0 73 107 190 264 310c-14 39 -53 60 -124 73c-12 28 -7 42 21 60c75 46 112 83 116 116c-25 0 -67 -6 -105 -6c-34 1 -59 6 -74 15c-22 10 -36 30 -36 54
c0 54 49 87 108 87c28 0 45 -11 45 -29c0 -11 -6 -25 -17 -41c11 -1 25 -1 40 -1h52c74 0 119 -29 119 -73c0 -40 -47 -91 -112 -128c25 -8 54 -26 77 -52c69 49 129 109 186 194c-13 11 -20 26 -20 44c0 52 49 86 108 86c28 0 45 -11 45 -29c0 -11 -6 -25 -17 -41
c11 -1 25 -1 40 -1h52c74 0 119 -29 119 -73c0 -40 -47 -91 -112 -128c24 -8 51 -24 74 -48c91 52 219 112 279 112zM570 -177c22 0 136 111 162 226c-99 -80 -171 -166 -171 -212c0 -8 3 -14 9 -14zM92 -177c21 0 129 105 159 215c-97 -77 -168 -156 -168 -201
c0 -8 3 -14 9 -14z" />
    <glyph glyph-name="uni04300437.liga" unicode="&#x430;&#x437;" horiz-adv-x="1105" 
d="M1161 323c46 0 49 -25 46 -45c-33 -7 -123 -30 -288 -130c7 -22 10 -47 7 -75c-19 -154 -176 -328 -318 -328c-54 0 -97 28 -97 77c0 72 102 203 261 318c-16 33 -55 53 -121 65c-12 28 -7 42 21 60c75 46 112 83 116 116c-25 0 -67 -6 -105 -6c-13 0 -24 1 -34 2
c-60 -144 -180 -294 -293 -294c-41 0 -60 24 -68 51c-42 -60 -113 -104 -179 -105c-63 -1 -123 41 -123 132c0 144 144 292 286 292c93 0 144 -65 149 -107c-19 -56 -31 -102 -31 -130c0 -29 10 -45 20 -45c28 0 108 89 175 238c-8 10 -12 22 -12 36c0 52 49 86 108 86
c28 0 45 -11 45 -29c0 -11 -6 -25 -17 -41c11 -1 25 -1 40 -1h52c74 0 119 -29 119 -73c0 -40 -47 -91 -112 -128c24 -8 51 -24 74 -48c91 52 219 112 279 112zM148 142c34 0 115 121 144 216c-4 15 -9 23 -19 23c-39 0 -143 -132 -143 -206c0 -23 9 -33 18 -33zM614 -177
c22 0 136 111 162 226c-99 -80 -171 -166 -171 -212c0 -8 3 -14 9 -14z" />
    <glyph glyph-name="uni04310437.liga" unicode="&#x431;&#x437;" horiz-adv-x="1078" 
d="M1136 323c46 0 49 -25 46 -45c-33 -7 -123 -30 -288 -130c7 -22 10 -47 7 -75c-19 -154 -176 -328 -318 -328c-54 0 -97 28 -97 77c0 72 102 203 261 318c-16 33 -55 53 -121 65c-12 28 -7 42 21 60c75 46 112 83 116 116c-25 0 -67 -6 -105 -6c-13 0 -25 1 -36 3
c-43 -66 -110 -127 -198 -127c-9 0 -18 1 -26 2c-16 -112 -100 -245 -239 -245c-99 0 -163 70 -163 170c0 120 73 220 174 258c-44 34 -99 66 -99 120c0 126 218 187 313 187c34 0 56 -17 56 -42c0 -24 -18 -48 -48 -68c-62 9 -195 -21 -195 -65c0 -43 147 -112 180 -176
c3 -5 6 -11 9 -17c5 -11 8 -22 11 -35c13 -7 28 -11 47 -11c38 0 75 23 118 78c-9 10 -14 23 -14 38c0 52 49 86 108 86c28 0 45 -11 45 -29c0 -11 -6 -25 -17 -41c11 -1 25 -1 40 -1h52c74 0 119 -29 119 -73c0 -40 -47 -91 -112 -128c24 -8 51 -24 74 -48
c91 52 219 112 279 112zM179 91c29 0 67 83 67 178c0 51 -10 97 -22 97c-25 0 -70 -92 -70 -183c0 -51 11 -92 25 -92zM589 -177c22 0 136 111 162 226c-99 -80 -171 -166 -171 -212c0 -8 3 -14 9 -14z" />
    <glyph glyph-name="uni04320437.liga" unicode="&#x432;&#x437;" horiz-adv-x="1070" 
d="M1156 323c46 0 49 -25 46 -45c-33 -7 -123 -30 -288 -130c7 -22 10 -47 7 -75c-19 -154 -176 -328 -318 -328c-54 0 -97 28 -97 77c0 72 102 203 261 318c-16 33 -55 53 -121 65c-12 28 -7 42 21 60c75 46 112 83 116 116c-25 0 -67 -6 -105 -6c-8 0 -15 0 -22 1
c-44 -89 -134 -220 -232 -245c-44 -95 -130 -187 -229 -187c-112 0 -198 105 -174 298c22 178 108 460 289 460c63 0 83 -40 75 -100c-12 -103 -108 -263 -209 -367c-2 -102 19 -183 50 -183c26 0 63 38 90 86c-58 21 -79 67 -73 114c7 51 52 107 131 107
c59 0 90 -50 81 -127c-1 -4 -1 -9 -2 -13c53 33 105 107 142 177c-17 11 -27 28 -27 49c0 52 49 86 108 86c28 0 45 -11 45 -29c0 -11 -6 -25 -17 -41c11 -1 25 -1 40 -1h52c74 0 119 -29 119 -73c0 -40 -47 -91 -112 -128c24 -8 51 -24 74 -48c91 52 219 112 279 112z
M283 590c-23 0 -71 -121 -93 -233c63 91 96 176 100 210c2 16 -1 23 -7 23zM325 263c-2 -18 7 -36 24 -48c3 11 6 22 7 32c2 23 1 51 -11 51c-10 0 -18 -13 -20 -35zM609 -177c22 0 136 111 162 226c-99 -80 -171 -166 -171 -212c0 -8 3 -14 9 -14z" />
    <glyph glyph-name="uni04330437.liga" unicode="&#x433;&#x437;" horiz-adv-x="1021" 
d="M1108 323c46 0 49 -25 46 -45c-33 -7 -123 -30 -288 -130c7 -22 10 -47 7 -75c-19 -154 -176 -328 -318 -328c-54 0 -97 28 -97 77c0 72 102 203 261 318c-16 33 -55 53 -121 65c-12 28 -7 42 21 60c75 46 112 83 116 116c-25 0 -67 -6 -105 -6c-9 0 -18 1 -26 1
c-76 -129 -263 -393 -441 -393c-82 0 -115 51 -115 102c0 110 156 190 156 240c0 5 -2 7 -8 7c-35 0 -77 -76 -128 -76c-24 0 -39 16 -40 36c80 103 141 150 220 150c68 0 111 -35 111 -94c0 -116 -148 -172 -148 -243c0 -15 7 -27 25 -27c77 0 211 175 308 320
c-15 11 -24 27 -24 47c0 52 49 86 108 86c28 0 45 -11 45 -29c0 -11 -6 -25 -17 -41c11 -1 25 -1 40 -1h52c74 0 119 -29 119 -73c0 -40 -47 -91 -112 -128c24 -8 51 -24 74 -48c91 52 219 112 279 112zM561 -177c22 0 136 111 162 226c-99 -80 -171 -166 -171 -212
c0 -8 3 -14 9 -14z" />
    <glyph glyph-name="uni04340437.liga" unicode="&#x434;&#x437;" horiz-adv-x="1008" 
d="M1099 323c46 0 49 -25 46 -45c-33 -7 -123 -30 -288 -130c7 -22 10 -47 7 -75c-19 -154 -176 -328 -318 -328c-54 0 -97 28 -97 77c0 72 102 203 261 318c-16 33 -55 53 -121 65c-12 28 -7 42 21 60c75 46 112 83 116 116c-25 0 -67 -6 -105 -6c-11 0 -21 1 -29 2
c-61 -85 -149 -134 -225 -180c-19 -198 -116 -465 -289 -465c-63 0 -98 36 -98 98c0 119 110 252 249 353c0 7 1 12 1 18c-39 -37 -80 -55 -121 -55c-60 0 -93 38 -93 104c0 131 150 258 281 258c39 0 77 -15 77 -45c0 -27 -28 -44 -87 -59c-5 17 -13 24 -22 24
c-46 0 -116 -105 -116 -170c0 -20 6 -28 16 -28c26 0 76 61 67 115c52 32 65 32 84 32c38 0 54 -29 55 -105c59 34 115 69 160 129c-13 11 -20 26 -20 44c0 52 49 86 108 86c28 0 45 -11 45 -29c0 -11 -6 -25 -17 -41c11 -1 25 -1 40 -1h52c74 0 119 -29 119 -73
c0 -40 -47 -91 -112 -128c24 -8 51 -24 74 -48c91 52 219 112 279 112zM87 -211c47 0 99 156 125 286c-83 -86 -138 -181 -138 -261c0 -15 4 -25 13 -25zM552 -177c22 0 136 111 162 226c-99 -80 -171 -166 -171 -212c0 -8 3 -14 9 -14z" />
    <glyph glyph-name="uni04350437.liga" unicode="&#x435;&#x437;" horiz-adv-x="1056" 
d="M1142 323c46 0 49 -25 46 -45c-33 -7 -123 -30 -288 -130c7 -22 10 -47 7 -75c-19 -154 -176 -328 -318 -328c-54 0 -97 28 -97 77c0 72 102 203 261 318c-16 33 -55 53 -121 65c-12 28 -7 42 21 60c75 46 112 83 116 116c-25 0 -67 -6 -105 -6c-7 0 -13 0 -19 1
c-73 -146 -228 -365 -423 -365c-118 0 -203 87 -203 208c0 143 104 264 223 264c70 0 109 -41 109 -111c0 -98 -80 -170 -150 -214c17 -32 44 -50 79 -50c70 0 188 89 298 290c-15 11 -24 27 -24 47c0 52 49 86 108 86c28 0 45 -11 45 -29c0 -11 -6 -25 -17 -41
c11 -1 25 -1 40 -1h52c74 0 119 -29 119 -73c0 -40 -47 -91 -112 -128c24 -8 51 -24 74 -48c91 52 219 112 279 112zM237 393c-22 0 -57 -60 -57 -135c0 -7 0 -13 1 -20c38 35 69 77 69 126c0 18 -5 29 -13 29zM595 -177c22 0 136 111 162 226c-99 -80 -171 -166 -171 -212
c0 -8 3 -14 9 -14z" />
    <glyph glyph-name="uni04360437.liga" unicode="&#x436;&#x437;" horiz-adv-x="1575" 
d="M1665 323c46 0 49 -25 46 -45c-33 -7 -123 -30 -288 -130c7 -22 10 -47 7 -75c-19 -154 -176 -328 -318 -328c-54 0 -97 28 -97 77c0 72 102 203 261 318c-16 33 -55 53 -121 65c-12 28 -7 42 21 60c75 46 112 83 116 116c-25 0 -67 -6 -105 -6c-11 0 -20 1 -29 2
c-86 -124 -274 -359 -448 -359c-99 0 -162 63 -168 158c-20 -22 -40 -42 -52 -54c-8 -68 -13 -147 -1 -178c-27 -20 -56 -33 -77 -33c-38 0 -56 24 -56 74c0 26 18 124 30 210c-16 -17 -37 -33 -60 -52c-35 -85 -115 -140 -213 -140c-72 0 -122 25 -122 62c0 17 9 32 33 57
c28 -23 49 -33 67 -33c56 0 113 53 113 139c0 51 -20 97 -60 116c-8 -13 -24 -34 -53 -55c-40 -3 -67 21 -67 55c0 52 62 96 134 96c112 0 186 -84 186 -200v-1c19 18 37 36 55 54l19 163c4 32 2 65 -4 89c21 22 61 40 89 40c35 0 49 -19 49 -63c0 -54 -28 -171 -46 -291
c14 11 31 28 50 47c35 102 130 176 232 176c90 0 109 -60 109 -86c0 -29 -27 -50 -74 -60c-20 13 -36 28 -46 45c-68 -26 -95 -84 -95 -158c0 -56 22 -92 63 -92c79 0 217 122 347 303c-10 10 -15 24 -15 39c0 52 49 86 108 86c28 0 45 -11 45 -29c0 -11 -6 -25 -17 -41
c11 -1 25 -1 40 -1h52c74 0 119 -29 119 -73c0 -40 -47 -91 -112 -128c24 -8 51 -24 74 -48c91 52 219 112 279 112zM1118 -177c22 0 136 111 162 226c-99 -80 -171 -166 -171 -212c0 -8 3 -14 9 -14z" />
    <glyph glyph-name="uni04380437.liga" unicode="&#x438;&#x437;" horiz-adv-x="1121" 
d="M1207 323c46 0 49 -25 46 -45c-33 -7 -123 -30 -288 -130c7 -22 10 -47 7 -75c-19 -154 -176 -328 -318 -328c-54 0 -97 28 -97 77c0 72 102 203 261 318c-16 33 -55 53 -121 65c-12 28 -7 42 21 60c75 46 112 83 116 116c-25 0 -67 -6 -105 -6c-8 0 -16 1 -23 1
c-107 -197 -211 -336 -333 -336c-56 0 -100 32 -110 97c-46 -50 -105 -98 -167 -98c-61 0 -91 36 -91 103c0 54 35 163 35 251c0 15 -1 34 -2 46c30 5 58 10 86 10c42 0 62 -19 62 -63c0 -41 -33 -154 -33 -205c0 -23 5 -33 13 -33c15 0 57 26 101 83c10 53 28 110 28 168
c0 15 -1 31 -3 39c17 3 38 6 56 6c55 0 81 -27 81 -87c0 -46 -34 -135 -34 -196c0 -26 5 -40 18 -40c38 0 126 99 225 281c-12 11 -19 26 -19 43c0 52 49 86 108 86c28 0 45 -11 45 -29c0 -11 -6 -25 -17 -41c11 -1 25 -1 40 -1h52c74 0 119 -29 119 -73
c0 -40 -47 -91 -112 -128c24 -8 51 -24 74 -48c91 52 219 112 279 112zM660 -177c22 0 136 111 162 226c-99 -80 -171 -166 -171 -212c0 -8 3 -14 9 -14z" />
    <glyph glyph-name="uni04390437.liga" unicode="&#x439;&#x437;" horiz-adv-x="1121" 
d="M236 468c-46 0 -141 19 -141 96c0 31 22 48 51 48c12 0 27 -3 39 -9c43 -22 23 -55 59 -55c58 0 36 59 115 59c29 0 52 -17 52 -36c0 -77 -115 -103 -175 -103zM1207 323c46 0 49 -25 46 -45c-33 -7 -123 -30 -288 -130c7 -22 10 -47 7 -75c-19 -154 -176 -328 -318 -328
c-54 0 -97 28 -97 77c0 72 102 203 261 318c-16 33 -55 53 -121 65c-12 28 -7 42 21 60c75 46 112 83 116 116c-25 0 -67 -6 -105 -6c-8 0 -16 1 -23 1c-107 -197 -211 -336 -333 -336c-56 0 -100 32 -110 97c-46 -50 -105 -98 -167 -98c-61 0 -91 36 -91 103
c0 54 35 163 35 251c0 15 -1 34 -2 46c30 5 58 10 86 10c42 0 62 -19 62 -63c0 -41 -33 -154 -33 -205c0 -23 5 -33 13 -33c15 0 57 26 101 83c10 53 28 110 28 168c0 15 -1 31 -3 39c17 3 38 6 56 6c55 0 81 -27 81 -87c0 -46 -34 -135 -34 -196c0 -26 5 -40 18 -40
c38 0 126 99 225 281c-12 11 -19 26 -19 43c0 52 49 86 108 86c28 0 45 -11 45 -29c0 -11 -6 -25 -17 -41c11 -1 25 -1 40 -1h52c74 0 119 -29 119 -73c0 -40 -47 -91 -112 -128c24 -8 51 -24 74 -48c91 52 219 112 279 112zM660 -177c22 0 136 111 162 226
c-99 -80 -171 -166 -171 -212c0 -8 3 -14 9 -14z" />
    <glyph glyph-name="uni043A0437.liga" unicode="&#x43a;&#x437;" horiz-adv-x="1158" 
d="M1246 323c46 0 49 -25 46 -45c-33 -7 -123 -30 -288 -130c7 -22 10 -47 7 -75c-19 -154 -176 -328 -318 -328c-54 0 -97 28 -97 77c0 72 102 203 261 318c-16 33 -55 53 -121 65c-12 28 -7 42 21 60c75 46 112 83 116 116c-25 0 -67 -6 -105 -6c-10 0 -19 1 -27 2
c-91 -176 -222 -353 -341 -353c-85 0 -156 69 -197 135c-20 -12 -41 -24 -64 -36c-1 -10 -3 -21 -4 -33c-8 -66 -38 -105 -84 -105c-29 0 -56 15 -64 24c19 48 63 142 63 377c0 29 -2 78 -8 109c39 22 73 33 100 33c38 0 52 -24 52 -71c0 -34 -5 -57 -13 -92
c46 69 107 125 169 125c51 0 80 -28 80 -76c0 -50 -39 -115 -125 -185c30 -54 70 -96 113 -96c86 0 189 154 258 270c-12 11 -18 25 -18 42c0 52 49 86 108 86c28 0 45 -11 45 -29c0 -11 -6 -25 -17 -41c11 -1 25 -1 40 -1h52c74 0 119 -29 119 -73c0 -40 -47 -91 -112 -128
c24 -8 51 -24 74 -48c91 52 219 112 279 112zM290 392c-21 0 -94 -97 -134 -173c69 44 149 114 149 159c0 8 -4 14 -15 14zM699 -177c22 0 136 111 162 226c-99 -80 -171 -166 -171 -212c0 -8 3 -14 9 -14z" />
    <glyph glyph-name="uni043B0437.liga" unicode="&#x43b;&#x437;" horiz-adv-x="1090" 
d="M1178 323c46 0 49 -25 46 -45c-33 -7 -123 -30 -288 -130c7 -22 10 -47 7 -75c-19 -154 -176 -328 -318 -328c-54 0 -97 28 -97 77c0 72 102 203 261 318c-16 33 -55 53 -121 65c-12 28 -7 42 21 60c75 46 112 83 116 116c-25 0 -67 -6 -105 -6c-6 0 -12 0 -17 1
c-147 -291 -246 -363 -335 -364c-77 -1 -111 52 -138 176c-18 82 -19 120 -26 120c-10 0 -69 -144 -82 -209c-7 -35 -9 -57 -7 -71c-14 -7 -69 -17 -95 -17c-49 0 -66 23 -55 73c9 40 39 97 68 155c37 75 84 130 127 216c102 24 126 16 150 -66c70 -242 83 -269 107 -269
c47 0 129 117 212 282c-12 10 -19 26 -19 43c0 52 49 86 108 86c28 0 45 -11 45 -29c0 -11 -6 -25 -17 -41c11 -1 25 -1 40 -1h52c74 0 119 -29 119 -73c0 -40 -47 -91 -112 -128c24 -8 51 -24 74 -48c91 52 219 112 279 112zM631 -177c22 0 136 111 162 226
c-99 -80 -171 -166 -171 -212c0 -8 3 -14 9 -14z" />
    <glyph glyph-name="uni043C0437.liga" unicode="&#x43c;&#x437;" horiz-adv-x="1325" 
d="M1411 323c46 0 49 -25 46 -45c-33 -7 -123 -30 -288 -130c7 -22 10 -47 7 -75c-19 -154 -176 -328 -318 -328c-54 0 -97 28 -97 77c0 72 102 203 261 318c-16 33 -55 53 -121 65c-12 28 -7 42 21 60c75 46 112 83 116 116c-25 0 -67 -6 -105 -6c-12 0 -22 1 -32 2
c-114 -208 -208 -357 -354 -357c-117 0 -137 97 -131 198c-58 -92 -107 -118 -151 -118c-60 0 -84 48 -91 100c-3 -20 -5 -42 -8 -64c-9 -74 -20 -141 -115 -141c-29 0 -58 6 -75 15c32 67 76 201 95 318c5 31 11 96 9 112c12 8 40 19 69 19c46 0 71 -26 84 -57
c19 -46 3 -205 46 -205c50 0 127 151 186 223c51 62 129 39 139 16c-20 -53 -43 -132 -43 -219c0 -59 11 -99 41 -99c47 0 118 60 239 285c-12 11 -18 25 -18 42c0 52 49 86 108 86c28 0 45 -11 45 -29c0 -11 -6 -25 -17 -41c11 -1 25 -1 40 -1h52c74 0 119 -29 119 -73
c0 -40 -47 -91 -112 -128c24 -8 51 -24 74 -48c91 52 219 112 279 112zM864 -177c22 0 136 111 162 226c-99 -80 -171 -166 -171 -212c0 -8 3 -14 9 -14z" />
    <glyph glyph-name="uni043D0437.liga" unicode="&#x43d;&#x437;" horiz-adv-x="1140" 
d="M1230 323c46 0 49 -25 46 -45c-33 -7 -123 -30 -288 -130c7 -22 10 -47 7 -75c-19 -154 -176 -328 -318 -328c-54 0 -97 28 -97 77c0 72 102 203 261 318c-16 33 -55 53 -121 65c-12 28 -7 42 21 60c75 46 112 83 116 116c-25 0 -67 -6 -105 -6c-10 0 -20 1 -28 2
c-139 -236 -212 -356 -340 -356c-75 0 -114 43 -114 130c0 16 1 32 4 48c-32 -1 -72 -2 -111 -5c-3 -29 -6 -59 -6 -89c0 -32 3 -58 7 -69c-24 -8 -63 -15 -87 -15c-53 0 -75 29 -75 96s38 184 38 277c0 14 -1 34 -2 45c31 4 58 10 87 10c50 0 70 -20 70 -66
c0 -22 -9 -63 -19 -112c35 2 74 4 113 4c8 40 17 81 17 123c0 15 -1 33 -2 40c18 3 39 6 59 6c62 0 90 -28 90 -92c0 -48 -35 -141 -35 -205c0 -28 5 -43 18 -43c26 0 99 78 225 298c-12 11 -19 26 -19 43c0 52 49 86 108 86c28 0 45 -11 45 -29c0 -11 -6 -25 -17 -41
c11 -1 25 -1 40 -1h52c74 0 119 -29 119 -73c0 -40 -47 -91 -112 -128c24 -8 51 -24 74 -48c91 52 219 112 279 112zM683 -177c22 0 136 111 162 226c-99 -80 -171 -166 -171 -212c0 -8 3 -14 9 -14z" />
    <glyph glyph-name="uni043E0437.liga" unicode="&#x43e;&#x437;" horiz-adv-x="1093" 
d="M1178 323c46 0 49 -25 46 -45c-33 -7 -123 -30 -288 -130c7 -22 10 -47 7 -75c-19 -154 -176 -328 -318 -328c-54 0 -97 28 -97 77c0 72 102 203 261 318c-16 33 -55 53 -121 65c-12 28 -7 42 21 60c75 46 112 83 116 116c-25 0 -67 -6 -105 -6c-9 0 -18 1 -25 1
c-62 -100 -142 -178 -242 -178c-13 0 -25 1 -36 4c-35 -91 -113 -168 -224 -171c-122 -3 -169 93 -169 176c0 85 49 153 120 159c18 69 78 110 151 110c90 0 143 -65 143 -163c0 -11 -1 -22 -2 -33c10 -5 23 -9 38 -9c55 0 106 45 160 126c-15 12 -24 28 -24 48
c0 52 49 86 108 86c28 0 45 -11 45 -29c0 -11 -6 -25 -17 -41c11 -1 25 -1 40 -1h52c74 0 119 -29 119 -73c0 -40 -47 -91 -112 -128c24 -8 51 -24 74 -48c91 52 219 112 279 112zM185 94c38 0 82 93 82 191c0 64 -19 102 -48 102c-20 0 -35 -17 -44 -29
c20 -12 31 -33 31 -63c0 -18 -3 -30 -12 -55c-24 0 -48 -45 -48 -81c0 -35 18 -65 39 -65zM631 -177c22 0 136 111 162 226c-99 -80 -171 -166 -171 -212c0 -8 3 -14 9 -14z" />
    <glyph glyph-name="uni043F0437.liga" unicode="&#x43f;&#x437;" horiz-adv-x="1211" 
d="M1304 323c46 0 49 -25 46 -45c-33 -7 -123 -30 -288 -130c7 -22 10 -47 7 -75c-19 -154 -176 -328 -318 -328c-54 0 -97 28 -97 77c0 72 102 203 261 318c-16 33 -55 53 -121 65c-12 28 -7 42 21 60c75 46 112 83 116 116c-25 0 -67 -6 -105 -6c-7 0 -14 0 -21 1
c-88 -164 -234 -384 -386 -384c-89 0 -120 66 -120 137c0 83 45 151 45 217c0 15 -3 21 -10 23c-40 -19 -105 -117 -176 -302c-15 -8 -32 -13 -53 -13c-68 0 -84 46 -84 97c0 101 36 168 36 254c0 15 -1 34 -3 45c24 21 63 37 93 37c40 0 63 -24 63 -64
c0 -20 -11 -69 -19 -123c76 104 141 147 201 147c70 0 91 -48 91 -109c0 -57 -25 -120 -25 -188c0 -30 7 -54 28 -54c42 0 154 119 250 305c-13 11 -20 26 -20 44c0 52 49 86 108 86c28 0 45 -11 45 -29c0 -11 -6 -25 -17 -41c11 -1 25 -1 40 -1h52c74 0 119 -29 119 -73
c0 -40 -47 -91 -112 -128c24 -8 51 -24 74 -48c91 52 219 112 279 112zM757 -177c22 0 136 111 162 226c-99 -80 -171 -166 -171 -212c0 -8 3 -14 9 -14z" />
    <glyph glyph-name="uni04400437.liga" unicode="&#x440;&#x437;" horiz-adv-x="1058" 
d="M1146 323c46 0 49 -25 46 -45c-33 -7 -123 -30 -288 -130c7 -22 10 -47 7 -75c-19 -154 -176 -328 -318 -328c-54 0 -97 28 -97 77c0 72 102 203 261 318c-16 33 -55 53 -121 65c-12 28 -7 42 21 60c75 46 112 83 116 116c-25 0 -67 -6 -105 -6c-18 0 -34 2 -47 5
c-62 -55 -143 -83 -209 -102c-45 -83 -124 -160 -184 -160c-31 0 -44 18 -44 42c0 65 58 119 134 152c6 21 10 40 10 50c0 14 -5 20 -16 20c-86 0 -184 -218 -184 -534l1 -81c-31 -7 -59 -11 -81 -11c-76 0 -91 45 -67 185c27 156 68 351 68 460c0 27 -2 66 -6 94
c29 25 62 39 88 39c37 0 57 -27 57 -72c0 -13 -3 -35 -9 -56c67 47 129 75 181 75c49 0 89 -25 89 -84c0 -14 -2 -29 -6 -45c44 15 87 34 124 62c-6 9 -9 20 -9 31c0 52 49 86 108 86c28 0 45 -11 45 -29c0 -11 -6 -25 -17 -41c11 -1 25 -1 40 -1h52c74 0 119 -29 119 -73
c0 -40 -47 -91 -112 -128c24 -8 51 -24 74 -48c91 52 219 112 279 112zM239 153c13 0 34 39 53 85c-42 -25 -60 -59 -60 -75c0 -6 2 -10 7 -10zM599 -177c22 0 136 111 162 226c-99 -80 -171 -166 -171 -212c0 -8 3 -14 9 -14z" />
    <glyph glyph-name="uni04410437.liga" unicode="&#x441;&#x437;" horiz-adv-x="1050" 
d="M1137 323c46 0 49 -25 46 -45c-33 -7 -123 -30 -288 -130c7 -22 10 -47 7 -75c-19 -154 -176 -328 -318 -328c-54 0 -97 28 -97 77c0 72 102 203 261 318c-16 33 -55 53 -121 65c-12 28 -7 42 21 60c75 46 112 83 116 116c-25 0 -67 -6 -105 -6c-7 0 -14 0 -20 1
c-77 -141 -263 -358 -442 -358c-131 0 -200 81 -185 201c14 112 105 235 252 235c74 0 144 -47 139 -92c-3 -24 -26 -40 -82 -62c-22 48 -39 67 -59 67c-41 0 -82 -59 -91 -136c-9 -74 16 -127 76 -127c89 0 224 135 327 293c-16 11 -25 28 -25 48c0 52 49 86 108 86
c28 0 45 -11 45 -29c0 -11 -6 -25 -17 -41c11 -1 25 -1 40 -1h52c74 0 119 -29 119 -73c0 -40 -47 -91 -112 -128c24 -8 51 -24 74 -48c91 52 219 112 279 112zM590 -177c22 0 136 111 162 226c-99 -80 -171 -166 -171 -212c0 -8 3 -14 9 -14z" />
    <glyph glyph-name="uni04420437.liga" unicode="&#x442;&#x437;" horiz-adv-x="1402" 
d="M1492 323c46 0 49 -25 46 -45c-33 -7 -123 -30 -288 -130c7 -22 10 -47 7 -75c-19 -154 -176 -328 -318 -328c-54 0 -97 28 -97 77c0 72 102 203 261 318c-16 33 -55 53 -121 65c-12 28 -7 42 21 60c75 46 112 83 116 116c-25 0 -67 -6 -105 -6c-8 0 -15 0 -22 1
c-83 -161 -183 -342 -363 -342c-80 0 -110 54 -110 113c0 60 26 120 32 173c-12 -17 -36 -63 -61 -111c-53 -103 -90 -146 -135 -146c-31 0 -59 17 -72 44c5 17 31 94 41 176c4 31 1 50 4 57c-31 -35 -145 -296 -259 -296c-33 0 -66 15 -81 37c27 127 65 248 43 351
c19 19 53 32 81 32c39 0 52 -43 52 -93c0 -68 -25 -147 -37 -192c85 148 138 267 244 267c54 0 68 -81 50 -179c51 90 110 170 190 170c51 0 82 -32 82 -82c0 -49 -29 -132 -29 -184c0 -37 13 -53 34 -53c53 0 152 127 228 282c-14 11 -22 26 -22 45c0 52 49 86 108 86
c28 0 45 -11 45 -29c0 -11 -6 -25 -17 -41c11 -1 25 -1 40 -1h52c74 0 119 -29 119 -73c0 -40 -47 -91 -112 -128c24 -8 51 -24 74 -48c91 52 219 112 279 112zM945 -177c22 0 136 111 162 226c-99 -80 -171 -166 -171 -212c0 -8 3 -14 9 -14z" />
    <glyph glyph-name="uni04430437.liga" unicode="&#x443;&#x437;" horiz-adv-x="1015" 
d="M1104 323c46 0 49 -25 46 -45c-33 -7 -123 -30 -288 -130c7 -22 10 -47 7 -75c-19 -154 -176 -328 -318 -328c-54 0 -97 28 -97 77c0 72 102 203 261 318c-16 33 -55 53 -121 65c-12 28 -7 42 21 60c75 46 112 83 116 116c-25 0 -67 -6 -105 -6c-15 0 -28 1 -39 3
c-62 -74 -141 -130 -216 -181c-58 -308 -243 -465 -316 -465c-49 0 -79 39 -79 100c0 129 113 247 245 341c3 12 5 24 7 35c-36 -36 -75 -56 -113 -56c-58 0 -90 53 -90 135c0 37 10 68 14 110c2 21 3 40 4 58c10 9 37 19 67 19c44 0 68 -19 68 -51c0 -24 -24 -92 -24 -139
c0 -21 4 -38 17 -38c30 0 66 89 80 207c16 17 52 24 73 24c51 0 65 -36 65 -85c0 -38 -2 -74 -5 -108c55 40 104 81 143 127c-7 9 -11 21 -11 34c0 52 49 86 108 86c28 0 45 -11 45 -29c0 -11 -6 -25 -17 -41c11 -1 25 -1 40 -1h52c74 0 119 -29 119 -73
c0 -40 -47 -91 -112 -128c24 -8 51 -24 74 -48c91 52 219 112 279 112zM60 -192c28 0 84 121 125 245c-80 -77 -134 -156 -134 -228c0 -10 3 -17 9 -17zM557 -177c22 0 136 111 162 226c-99 -80 -171 -166 -171 -212c0 -8 3 -14 9 -14z" />
    <glyph glyph-name="uni04440437.liga" unicode="&#x444;&#x437;" horiz-adv-x="1408" 
d="M1496 323c46 0 49 -25 46 -45c-33 -7 -123 -30 -288 -130c7 -22 10 -47 7 -75c-19 -154 -176 -328 -318 -328c-54 0 -97 28 -97 77c0 72 102 203 261 318c-16 33 -55 53 -121 65c-12 28 -7 42 21 60c75 46 112 83 116 116c-25 0 -67 -6 -105 -6c-15 0 -29 1 -40 3
c-56 -51 -132 -80 -197 -104c-7 -108 -93 -203 -177 -203c-47 0 -75 27 -75 71c0 69 56 120 125 154c-4 34 -15 61 -35 61c-89 0 -219 -231 -219 -518c0 -20 2 -44 5 -54c-20 -18 -58 -33 -83 -33c-42 0 -61 24 -61 74c0 42 26 178 49 328c-38 -54 -90 -97 -152 -97
c-85 0 -139 67 -139 164c0 130 104 223 189 223c57 0 101 -29 101 -65c0 -33 -36 -53 -57 -57c-12 33 -24 47 -38 47c-36 0 -66 -73 -66 -143c0 -48 16 -79 43 -79c31 0 86 33 135 124c11 82 19 163 19 227c0 62 -2 105 -6 118c22 22 64 40 95 40c40 0 58 -23 58 -69
c0 -27 -23 -167 -55 -321c54 120 124 174 203 174c65 0 114 -39 133 -98c63 24 106 44 143 73c-5 9 -8 19 -8 30c0 52 49 86 108 86c28 0 45 -11 45 -29c0 -11 -6 -25 -17 -41c11 -1 25 -1 40 -1h52c74 0 119 -29 119 -73c0 -40 -47 -91 -112 -128c24 -8 51 -24 74 -48
c91 52 219 112 279 112zM612 119c21 0 38 50 43 99c-34 -23 -56 -50 -56 -81c0 -9 3 -18 13 -18zM949 -177c22 0 136 111 162 226c-99 -80 -171 -166 -171 -212c0 -8 3 -14 9 -14z" />
    <glyph glyph-name="uni044C0437.liga" unicode="&#x44c;&#x437;" horiz-adv-x="1044" 
d="M1133 323c46 0 49 -25 46 -45c-33 -7 -123 -30 -288 -130c7 -22 10 -47 7 -75c-19 -154 -176 -328 -318 -328c-54 0 -97 28 -97 77c0 72 102 203 261 318c-16 33 -55 53 -121 65c-12 28 -7 42 21 60c75 46 112 83 116 116c-25 0 -67 -6 -105 -6c-9 0 -17 1 -24 1
c-66 -101 -163 -221 -269 -264c-25 -68 -97 -126 -195 -126c-110 0 -176 72 -176 181c0 94 48 194 48 262c0 16 -3 32 -7 41c13 3 28 3 39 3c97 0 119 -45 119 -89c0 -28 -10 -66 -21 -105c20 10 45 16 72 16c76 0 120 -50 129 -107c70 41 142 125 198 210
c-14 11 -23 28 -23 47c0 52 49 86 108 86c28 0 45 -11 45 -29c0 -11 -6 -25 -17 -41c11 -1 25 -1 40 -1h52c74 0 119 -29 119 -73c0 -40 -47 -91 -112 -128c24 -8 51 -24 74 -48c91 52 219 112 279 112zM224 219c-10 0 -17 -7 -17 -19c0 -19 19 -29 40 -35v11
c0 25 -11 43 -23 43zM182 71c16 0 32 13 44 33c-39 10 -67 32 -84 56c-1 -8 -1 -15 -1 -22c0 -42 15 -67 41 -67zM586 -177c22 0 136 111 162 226c-99 -80 -171 -166 -171 -212c0 -8 3 -14 9 -14z" />
    <glyph glyph-name="uni044A0436.liga" unicode="&#x44a;&#x436;" horiz-adv-x="1631" 
d="M1714 362c35 -8 46 -25 34 -52c-20 -49 -244 -292 -423 -292c-98 0 -161 63 -167 158c-20 -22 -40 -42 -52 -54c-8 -68 -13 -147 -1 -178c-27 -20 -56 -33 -77 -33c-38 0 -56 24 -56 74c0 26 18 124 30 210c-16 -17 -37 -33 -60 -52c-35 -85 -115 -140 -213 -140
c-72 0 -122 25 -122 62c0 17 9 32 33 57c28 -23 49 -33 67 -33c56 0 113 53 113 139c0 51 -20 97 -59 116c-1 -4 -3 -9 -4 -14c-39 -127 -180 -269 -320 -300c-46 -65 -134 -112 -223 -112c-90 0 -150 60 -140 138c10 77 57 150 90 199c-113 7 -165 45 -157 113
c7 54 68 105 131 105c49 0 68 -20 63 -54c-3 -24 -15 -45 -37 -73h10c22 0 46 1 68 1c66 0 105 -21 101 -56c-2 -18 -15 -43 -31 -72c16 5 32 8 50 8c66 0 114 -54 106 -119c72 32 149 97 196 190c-15 10 -24 26 -24 46c0 52 62 96 134 96c112 0 186 -84 186 -200v-1
c19 18 37 36 55 54l19 163c4 32 2 65 -4 89c21 22 61 40 89 40c35 0 49 -19 49 -63c0 -54 -28 -171 -46 -291c14 11 31 28 50 47c35 102 130 176 232 176c90 0 109 -60 109 -86c0 -29 -27 -50 -74 -60c-20 13 -36 28 -46 45c-68 -26 -95 -84 -95 -157c0 -57 23 -93 72 -93
c77 0 246 127 344 259zM318 132c-1 -17 10 -31 28 -39c2 5 2 9 3 14c2 21 -8 44 -18 44c-6 0 -11 -8 -13 -19zM261 3c20 0 40 12 57 32c-34 11 -60 32 -73 57c-6 -16 -10 -30 -12 -43c-4 -29 7 -46 28 -46z" />
    <glyph glyph-name="uni044A0437.liga" unicode="&#x44a;&#x437;" horiz-adv-x="1156" 
d="M1243 323c46 0 49 -25 46 -45c-33 -7 -123 -30 -288 -130c7 -22 10 -47 7 -75c-19 -154 -176 -328 -318 -328c-54 0 -97 28 -97 77c0 72 102 203 261 318c-16 33 -55 53 -121 65c-12 28 -7 42 21 60c75 46 112 83 116 116c-25 0 -67 -6 -105 -6c-8 0 -16 1 -23 1
c-87 -166 -188 -296 -298 -338c-43 -68 -136 -120 -230 -120c-84 0 -141 53 -141 125c0 79 53 159 91 212c-105 7 -158 42 -158 102s65 116 132 116c45 0 64 -17 64 -47c0 -27 -12 -49 -38 -80h10c22 0 45 1 68 1c62 0 101 -19 101 -52c0 -18 -13 -45 -30 -75
c15 4 31 7 49 7c61 0 106 -47 107 -107c68 47 140 142 211 277c-16 11 -25 28 -25 48c0 52 49 86 108 86c28 0 45 -11 45 -29c0 -11 -6 -25 -17 -41c11 -1 25 -1 40 -1h52c74 0 119 -29 119 -73c0 -40 -47 -91 -112 -128c24 -8 51 -24 74 -48c91 52 219 112 279 112z
M318 132c-1 -17 10 -31 28 -39c2 5 2 9 3 14c2 21 -9 44 -18 44c-6 0 -11 -8 -13 -19zM261 3c20 0 40 12 56 30c-33 12 -59 34 -72 60c-8 -19 -13 -37 -13 -53c0 -23 11 -37 29 -37zM696 -177c22 0 136 111 162 226c-99 -80 -171 -166 -171 -212c0 -8 3 -14 9 -14z" />
    <glyph glyph-name="uni044B0437.liga" unicode="&#x44b;&#x437;" horiz-adv-x="1366" 
d="M1456 323c46 0 49 -25 46 -45c-33 -7 -123 -30 -288 -130c7 -22 10 -47 7 -75c-19 -154 -176 -328 -318 -328c-54 0 -97 28 -97 77c0 72 102 203 261 318c-16 33 -55 53 -121 65c-12 28 -7 42 21 60c75 46 112 83 116 116c-25 0 -67 -6 -105 -6c-9 0 -17 1 -25 1
c-79 -153 -206 -378 -366 -378c-106 0 -147 74 -150 159c-23 -17 -47 -32 -72 -42c-26 -66 -97 -121 -193 -121c-110 0 -176 72 -176 181c0 94 48 194 48 262c0 16 -3 32 -7 41c13 3 28 3 39 3c97 0 119 -45 119 -89c0 -28 -10 -65 -21 -105c20 10 45 16 72 16
c81 0 126 -57 131 -119c23 15 46 35 68 58c12 60 36 105 36 169c0 19 -2 37 -6 52c19 7 50 12 74 12c58 0 87 -32 87 -90c0 -76 -49 -185 -49 -240c0 -28 11 -59 37 -59c93 0 203 194 267 312c-14 11 -23 28 -23 47c0 52 49 86 108 86c28 0 45 -11 45 -29
c0 -11 -6 -25 -17 -41c11 -1 25 -1 40 -1h52c74 0 119 -29 119 -73c0 -40 -47 -91 -112 -128c24 -8 51 -24 74 -48c91 52 219 112 279 112zM229 227c-10 0 -17 -7 -17 -19c0 -20 17 -34 39 -42c1 6 1 12 1 18c0 25 -11 43 -23 43zM187 79c15 0 31 12 43 31
c-38 12 -66 34 -83 58c-1 -8 -1 -15 -1 -22c0 -42 15 -67 41 -67zM909 -177c22 0 136 111 162 226c-99 -80 -171 -166 -171 -212c0 -8 3 -14 9 -14z" />
    <glyph glyph-name="uni044D0437.liga" unicode="&#x44d;&#x437;" horiz-adv-x="1053" 
d="M1136 323c46 0 49 -25 46 -45c-33 -7 -123 -30 -288 -130c7 -22 10 -47 7 -75c-19 -154 -176 -328 -318 -328c-54 0 -97 28 -97 77c0 72 102 203 261 318c-16 33 -55 53 -121 65c-12 28 -7 42 21 60c75 46 112 83 116 116c-25 0 -67 -6 -105 -6c-8 0 -15 0 -22 1
c-38 -71 -118 -161 -214 -161c-7 0 -15 0 -24 2c-14 -104 -99 -210 -250 -210c-89 0 -137 39 -137 87c0 40 31 65 87 62c5 -34 26 -52 55 -52c41 0 77 35 93 88c-15 -3 -32 -5 -51 -5c-81 0 -83 38 -64 85c39 -9 92 -2 123 1c-6 54 -33 94 -70 94c-25 0 -50 -17 -77 -62
c-47 16 -71 34 -71 53c0 29 58 96 168 96c107 0 168 -69 188 -148c12 -7 25 -11 44 -11c48 1 92 34 139 101c-17 11 -27 28 -27 49c0 52 49 86 108 86c28 0 45 -11 45 -29c0 -11 -6 -25 -17 -41c11 -1 25 -1 40 -1h52c74 0 119 -29 119 -73c0 -40 -47 -91 -112 -128
c24 -8 51 -24 74 -48c91 52 219 112 279 112zM589 -177c22 0 136 111 162 226c-99 -80 -171 -166 -171 -212c0 -8 3 -14 9 -14z" />
    <glyph glyph-name="uni044E0437.liga" unicode="&#x44e;&#x437;" horiz-adv-x="1284" 
d="M1373 323c46 0 49 -25 46 -45c-33 -7 -123 -30 -288 -130c7 -22 10 -47 7 -75c-19 -154 -176 -328 -318 -328c-54 0 -97 28 -97 77c0 72 102 203 261 318c-16 33 -55 53 -121 65c-12 28 -7 42 21 60c75 46 112 83 116 116c-25 0 -67 -6 -105 -6c-10 0 -20 1 -28 2
c-44 -76 -128 -177 -242 -177c-10 0 -19 1 -27 3c-31 -101 -112 -195 -233 -195c-108 0 -159 79 -154 177c-27 -22 -55 -49 -72 -82v-16c0 -18 0 -43 1 -53c-12 -6 -36 -13 -62 -13c-61 0 -76 44 -76 94c0 95 36 173 36 255c0 14 -1 32 -2 42c21 21 56 37 87 37
c33 0 54 -20 54 -66c0 -23 -12 -78 -22 -141c27 21 55 39 83 51c44 94 133 160 228 160c93 0 146 -66 146 -162v-4c11 -5 23 -9 36 -9c44 0 97 33 157 123c-13 11 -20 26 -20 44c0 52 49 86 108 86c28 0 45 -11 45 -29c0 -11 -6 -25 -17 -41c11 -1 25 -1 40 -1h52
c74 0 119 -29 119 -73c0 -40 -47 -91 -112 -128c24 -8 51 -24 74 -48c91 52 219 112 279 112zM394 92c28 0 67 97 67 188c0 48 -10 86 -24 86c-26 0 -70 -89 -70 -184c0 -51 12 -90 27 -90zM826 -177c22 0 136 111 162 226c-99 -80 -171 -166 -171 -212c0 -8 3 -14 9 -14z
" />
    <glyph glyph-name="uni044F0437.liga" unicode="&#x44f;&#x437;" horiz-adv-x="1069" 
d="M1158 323c46 0 49 -25 46 -45c-33 -7 -123 -30 -288 -130c7 -22 10 -47 7 -75c-19 -154 -176 -328 -318 -328c-54 0 -97 28 -97 77c0 72 102 203 261 318c-16 33 -55 53 -121 65c-12 28 -7 42 21 60c75 46 112 83 116 116c-25 0 -67 -6 -105 -6c-7 0 -14 0 -21 1
c-103 -202 -188 -326 -310 -326c-54 0 -87 31 -98 79c-42 -70 -108 -129 -176 -129c-42 0 -68 29 -74 79c65 16 117 46 167 96c-16 -5 -32 -8 -46 -8c-60 0 -96 41 -96 104c0 109 104 211 207 211c48 0 77 -23 95 -45c9 5 20 7 34 7c23 0 56 -15 63 -29
c-17 -41 -57 -151 -57 -215c0 -38 12 -62 33 -62c46 0 126 110 198 256c-18 11 -29 29 -29 51c0 52 49 86 108 86c28 0 45 -11 45 -29c0 -11 -6 -25 -17 -41c11 -1 25 -1 40 -1h52c74 0 119 -29 119 -73c0 -40 -47 -91 -112 -128c24 -8 51 -24 74 -48c91 52 219 112 279 112
zM256 410c-39 0 -91 -65 -91 -124c0 -17 5 -28 16 -28c30 0 62 46 108 135c-10 12 -21 17 -33 17zM611 -177c22 0 136 111 162 226c-99 -80 -171 -166 -171 -212c0 -8 3 -14 9 -14z" />
    <glyph glyph-name=".notdef" horiz-adv-x="500" 
d="M410 730v-1000h-317v1000h317zM333 663h-165v-33h65v-37h-66v-33h166v33h-66v37h66v33zM267 534h-100v-104h166v34h-66v70zM233 500v-36h-33v36h33zM333 403h-166v-33h66v-37h-66v-33h100v70h66v33zM333 343h-33v-66h-133v-34h166v100zM333 221h-100v-56h34v23h33v-47
h-100v80h-33v-113h166v113zM333 48h-166v-113h166v113zM300 15v-47h-100v47h100zM333 -88h-166v-33h70l-70 -47v-33h166v33h-102l70 47h32v33z" />
    <glyph glyph-name="space" unicode=" " horiz-adv-x="187" 
 />
    <glyph glyph-name="A" unicode="A" horiz-adv-x="899" 
d="M880 637c0 -76 -66 -449 -66 -509c0 -99 27 -156 50 -191c-15 -18 -53 -55 -112 -55c-88 0 -128 79 -111 216c3 22 7 46 12 73c-48 -10 -104 -14 -162 -14c-55 0 -111 4 -163 11c-59 -108 -107 -216 -129 -308c-8 -35 -11 -98 -9 -138c-106 8 -177 12 -177 95
c0 77 72 228 161 384c-51 16 -85 37 -90 60c-9 42 11 98 8 148c46 -25 102 -53 165 -77c112 153 356 426 521 450c82 -10 102 -75 102 -145zM753 610c3 57 -5 67 -16 78c-70 -31 -215 -203 -339 -401c61 -15 126 -24 191 -24c29 0 58 2 87 6c32 133 74 280 77 341z" />
    <glyph glyph-name="Aacute" unicode="&#xc1;" horiz-adv-x="899" 
d="M903 1066c40 0 69 -14 69 -33c0 -53 -134 -208 -216 -208c-26 0 -49 21 -58 30c93 93 112 159 126 189c20 13 50 22 79 22zM778 782c82 -10 102 -75 102 -145c0 -76 -66 -449 -66 -509c0 -99 27 -156 50 -191c-15 -18 -53 -55 -112 -55c-88 0 -128 79 -111 216
c3 22 7 46 12 73c-48 -10 -104 -14 -162 -14c-55 0 -111 4 -163 11c-59 -108 -107 -216 -129 -308c-8 -35 -11 -98 -9 -138c-106 8 -177 12 -177 95c0 77 72 228 161 384c-51 16 -85 37 -90 60c-9 42 11 98 8 148c46 -25 102 -53 165 -77c112 153 356 426 521 450zM753 610
c3 57 -5 67 -16 78c-70 -31 -215 -203 -339 -401c61 -15 126 -24 191 -24c29 0 58 2 87 6c32 133 74 280 77 341z" />
    <glyph glyph-name="Abreve" unicode="&#x102;" horiz-adv-x="899" 
d="M939 1052c41 0 62 -15 62 -46c0 -88 -104 -171 -212 -171c-89 0 -157 68 -157 149c0 48 24 68 77 68c26 0 52 -9 61 -20c-8 -69 6 -112 36 -112c36 0 56 36 65 112c11 11 39 20 68 20zM778 782c82 -10 102 -75 102 -145c0 -76 -66 -449 -66 -509c0 -99 27 -156 50 -191
c-15 -18 -53 -55 -112 -55c-88 0 -128 79 -111 216c3 22 7 46 12 73c-48 -10 -104 -14 -162 -14c-55 0 -111 4 -163 11c-59 -108 -107 -216 -129 -308c-8 -35 -11 -98 -9 -138c-106 8 -177 12 -177 95c0 77 72 228 161 384c-51 16 -85 37 -90 60c-9 42 11 98 8 148
c46 -25 102 -53 165 -77c112 153 356 426 521 450zM753 610c3 57 -5 67 -16 78c-70 -31 -215 -203 -339 -401c61 -15 126 -24 191 -24c29 0 58 2 87 6c32 133 74 280 77 341z" />
    <glyph glyph-name="Acircumflex" unicode="&#xc2;" horiz-adv-x="899" 
d="M820 1061c43 0 84 -42 190 -186c-22 -35 -44 -51 -70 -51c-41 0 -92 48 -134 120c-58 -71 -122 -120 -164 -120c-27 0 -45 16 -58 51c141 144 193 186 236 186zM778 782c82 -10 102 -75 102 -145c0 -76 -66 -449 -66 -509c0 -99 27 -156 50 -191
c-15 -18 -53 -55 -112 -55c-88 0 -128 79 -111 216c3 22 7 46 12 73c-48 -10 -104 -14 -162 -14c-55 0 -111 4 -163 11c-59 -108 -107 -216 -129 -308c-8 -35 -11 -98 -9 -138c-106 8 -177 12 -177 95c0 77 72 228 161 384c-51 16 -85 37 -90 60c-9 42 11 98 8 148
c46 -25 102 -53 165 -77c112 153 356 426 521 450zM753 610c3 57 -5 67 -16 78c-70 -31 -215 -203 -339 -401c61 -15 126 -24 191 -24c29 0 58 2 87 6c32 133 74 280 77 341z" />
    <glyph glyph-name="Adieresis" unicode="&#xc4;" horiz-adv-x="899" 
d="M688 845c-44 0 -72 26 -72 65c0 50 44 88 100 88c45 0 75 -27 75 -66c0 -50 -45 -87 -103 -87zM912 998c45 0 75 -27 75 -66c0 -50 -45 -87 -103 -87c-44 0 -72 26 -72 65c0 50 44 88 100 88zM778 782c82 -10 102 -75 102 -145c0 -76 -66 -449 -66 -509
c0 -99 27 -156 50 -191c-15 -18 -53 -55 -112 -55c-88 0 -128 79 -111 216c3 22 7 46 12 73c-48 -10 -104 -14 -162 -14c-55 0 -111 4 -163 11c-59 -108 -107 -216 -129 -308c-8 -35 -11 -98 -9 -138c-106 8 -177 12 -177 95c0 77 72 228 161 384c-51 16 -85 37 -90 60
c-9 42 11 98 8 148c46 -25 102 -53 165 -77c112 153 356 426 521 450zM753 610c3 57 -5 67 -16 78c-70 -31 -215 -203 -339 -401c61 -15 126 -24 191 -24c29 0 58 2 87 6c32 133 74 280 77 341z" />
    <glyph glyph-name="Agrave" unicode="&#xc0;" horiz-adv-x="899" 
d="M851 825c-78 0 -166 140 -166 201c0 24 34 40 77 40c30 0 57 -9 74 -22c6 -30 10 -96 79 -189c-11 -9 -39 -30 -64 -30zM778 782c82 -10 102 -75 102 -145c0 -76 -66 -449 -66 -509c0 -99 27 -156 50 -191c-15 -18 -53 -55 -112 -55c-88 0 -128 79 -111 216
c3 22 7 46 12 73c-48 -10 -104 -14 -162 -14c-55 0 -111 4 -163 11c-59 -108 -107 -216 -129 -308c-8 -35 -11 -98 -9 -138c-106 8 -177 12 -177 95c0 77 72 228 161 384c-51 16 -85 37 -90 60c-9 42 11 98 8 148c46 -25 102 -53 165 -77c112 153 356 426 521 450zM753 610
c3 57 -5 67 -16 78c-70 -31 -215 -203 -339 -401c61 -15 126 -24 191 -24c29 0 58 2 87 6c32 133 74 280 77 341z" />
    <glyph glyph-name="Amacron" unicode="&#x100;" horiz-adv-x="899" 
d="M930 927c53 0 77 -12 77 -39c0 -20 -13 -47 -30 -64c-33 5 -56 7 -87 7c-22 0 -49 0 -85 -2c-40 -2 -73 -3 -101 -3c-82 0 -115 15 -115 53c0 18 8 35 18 47c40 -4 158 -3 207 -3c41 0 82 4 116 4zM778 782c82 -10 102 -75 102 -145c0 -76 -66 -449 -66 -509
c0 -99 27 -156 50 -191c-15 -18 -53 -55 -112 -55c-88 0 -128 79 -111 216c3 22 7 46 12 73c-48 -10 -104 -14 -162 -14c-55 0 -111 4 -163 11c-59 -108 -107 -216 -129 -308c-8 -35 -11 -98 -9 -138c-106 8 -177 12 -177 95c0 77 72 228 161 384c-51 16 -85 37 -90 60
c-9 42 11 98 8 148c46 -25 102 -53 165 -77c112 153 356 426 521 450zM753 610c3 57 -5 67 -16 78c-70 -31 -215 -203 -339 -401c61 -15 126 -24 191 -24c29 0 58 2 87 6c32 133 74 280 77 341z" />
    <glyph glyph-name="Aogonek" unicode="&#x104;" horiz-adv-x="899" 
d="M833 -195c23 -7 34 -20 34 -38c0 -38 -58 -72 -115 -72c-70 0 -118 40 -118 96c0 47 29 82 62 105c-48 29 -68 99 -55 202c3 22 7 46 12 73c-48 -10 -104 -14 -162 -14c-55 0 -111 4 -163 11c-59 -108 -107 -216 -129 -308c-8 -35 -11 -98 -9 -138
c-106 8 -177 12 -177 95c0 77 72 228 161 384c-51 16 -85 37 -90 60c-9 42 11 98 8 148c46 -25 102 -53 165 -77c112 153 356 426 521 450c82 -10 102 -75 102 -145c0 -76 -66 -449 -66 -509c0 -99 27 -156 50 -191c-6 -7 -15 -17 -28 -26c-48 -43 -76 -74 -76 -104
c0 -17 6 -26 18 -26c14 0 33 8 55 24zM589 263c29 0 58 2 87 6c32 133 74 280 77 341c3 57 -5 67 -16 78c-70 -31 -215 -203 -339 -401c61 -15 126 -24 191 -24z" />
    <glyph glyph-name="Aring" unicode="&#xc5;" horiz-adv-x="899" 
d="M817 1053c64 0 107 -40 107 -97c0 -70 -60 -121 -135 -121c-65 0 -108 40 -108 97c0 70 61 121 136 121zM795 894c19 0 32 25 32 64c0 23 -7 36 -18 36c-18 0 -32 -24 -32 -63c0 -24 7 -37 18 -37zM778 782c82 -10 102 -75 102 -145c0 -76 -66 -449 -66 -509
c0 -99 27 -156 50 -191c-15 -18 -53 -55 -112 -55c-88 0 -128 79 -111 216c3 22 7 46 12 73c-48 -10 -104 -14 -162 -14c-55 0 -111 4 -163 11c-59 -108 -107 -216 -129 -308c-8 -35 -11 -98 -9 -138c-106 8 -177 12 -177 95c0 77 72 228 161 384c-51 16 -85 37 -90 60
c-9 42 11 98 8 148c46 -25 102 -53 165 -77c112 153 356 426 521 450zM753 610c3 57 -5 67 -16 78c-70 -31 -215 -203 -339 -401c61 -15 126 -24 191 -24c29 0 58 2 87 6c32 133 74 280 77 341z" />
    <glyph glyph-name="Atilde" unicode="&#xc3;" horiz-adv-x="899" 
d="M935 997c46 2 76 -14 76 -40c0 -40 -65 -112 -138 -112c-70 0 -119 58 -149 58c-15 0 -38 -22 -53 -52c-46 -3 -75 15 -75 45c0 51 72 107 136 107c73 0 119 -58 148 -58c19 0 41 33 55 52zM778 782c82 -10 102 -75 102 -145c0 -76 -66 -449 -66 -509
c0 -99 27 -156 50 -191c-15 -18 -53 -55 -112 -55c-88 0 -128 79 -111 216c3 22 7 46 12 73c-48 -10 -104 -14 -162 -14c-55 0 -111 4 -163 11c-59 -108 -107 -216 -129 -308c-8 -35 -11 -98 -9 -138c-106 8 -177 12 -177 95c0 77 72 228 161 384c-51 16 -85 37 -90 60
c-9 42 11 98 8 148c46 -25 102 -53 165 -77c112 153 356 426 521 450zM753 610c3 57 -5 67 -16 78c-70 -31 -215 -203 -339 -401c61 -15 126 -24 191 -24c29 0 58 2 87 6c32 133 74 280 77 341z" />
    <glyph glyph-name="AE" unicode="&#xc6;" horiz-adv-x="1406" 
d="M1080 631c-117 0 -179 -49 -215 -167c-12 -39 -22 -91 -32 -162c236 40 374 81 383 118c45 -19 75 -54 75 -83c0 -113 -293 -111 -475 -147c-50 -244 -36 -328 57 -328c123 0 275 134 381 134c45 0 73 -26 73 -67c0 -40 -25 -87 -65 -125c-137 27 -211 -48 -396 -48
c-171 0 -241 56 -241 201c0 54 16 133 36 218c-93 -20 -208 -23 -318 -9c-60 -110 -108 -223 -129 -319c-8 -36 -12 -98 -10 -138c-106 8 -191 24 -191 110c0 68 58 199 161 382c-51 18 -85 39 -90 60c-9 42 11 98 8 148c48 -25 104 -53 164 -77c111 151 354 425 520 450
c60 1 80 -28 102 -83c89 34 192 44 287 56c38 5 93 28 115 58c57 -16 87 -48 87 -92c0 -95 -173 -90 -287 -90zM413 284c78 -17 184 -20 274 -10c34 130 71 256 76 316c5 53 -2 83 -19 86c-63 -25 -205 -192 -331 -392z" />
    <glyph glyph-name="B" unicode="B" horiz-adv-x="818" 
d="M863 578c0 -134 -157 -232 -268 -264c115 -29 171 -122 171 -214c0 -108 -96 -248 -312 -248c-110 0 -185 50 -185 105c0 21 14 38 35 50c29 -18 64 -37 136 -37c124 0 185 91 185 175c0 66 -39 112 -100 114c-58 0 -111 -1 -153 -24c-29 10 -43 31 -43 51
c0 45 38 64 86 64c19 0 39 -3 58 -8c78 27 200 112 200 227c0 83 -70 133 -191 133c-27 0 -56 -3 -85 -7c5 -11 8 -22 7 -33c-154 -244 -229 -744 -156 -901c-14 -15 -79 -23 -108 -23c-72 0 -114 42 -115 112c-5 218 102 560 181 730c13 28 25 49 38 69
c-50 -21 -94 -47 -128 -77c-31 8 -51 28 -51 48c0 8 3 14 9 23c27 39 209 141 436 141c276 0 353 -120 353 -206z" />
    <glyph glyph-name="C" unicode="C" horiz-adv-x="925" 
d="M480 -160c-244 0 -414 158 -414 373c0 253 237 551 609 551c168 0 287 -92 287 -212c0 -74 -36 -124 -93 -124c-55 0 -100 35 -98 45c2 9 50 67 50 117c0 61 -59 81 -128 81c-260 0 -437 -240 -437 -453c0 -150 84 -278 248 -278c192 0 298 130 316 160
c40 3 66 -16 66 -46c0 -85 -219 -214 -406 -214z" />
    <glyph glyph-name="Cacute" unicode="&#x106;" horiz-adv-x="925" 
d="M611 825c-26 0 -49 21 -58 30c93 93 112 159 126 189c20 13 50 22 79 22c40 0 69 -14 69 -33c0 -53 -134 -208 -216 -208zM480 -160c-244 0 -414 158 -414 373c0 253 237 551 609 551c168 0 287 -92 287 -212c0 -74 -36 -124 -93 -124c-55 0 -100 35 -98 45
c2 9 50 67 50 117c0 61 -59 81 -128 81c-260 0 -437 -240 -437 -453c0 -150 84 -278 248 -278c192 0 298 130 316 160c40 3 66 -16 66 -46c0 -85 -219 -214 -406 -214z" />
    <glyph glyph-name="Ccaron" unicode="&#x10c;" horiz-adv-x="925" 
d="M642 826c-43 0 -85 42 -190 186c22 35 43 51 70 51c51 0 112 -69 142 -120c65 79 116 120 156 120c26 0 44 -16 57 -51c-140 -144 -192 -186 -235 -186zM480 -160c-244 0 -414 158 -414 373c0 253 237 551 609 551c168 0 287 -92 287 -212c0 -74 -36 -124 -93 -124
c-55 0 -100 35 -98 45c2 9 50 67 50 117c0 61 -59 81 -128 81c-260 0 -437 -240 -437 -453c0 -150 84 -278 248 -278c192 0 298 130 316 160c40 3 66 -16 66 -46c0 -85 -219 -214 -406 -214z" />
    <glyph glyph-name="Ccedilla" unicode="&#xc7;" horiz-adv-x="925" 
d="M869 428c-55 0 -100 35 -98 45c2 9 50 67 50 117c0 61 -59 81 -128 81c-260 0 -437 -240 -437 -453c0 -150 84 -278 248 -278c192 0 298 130 316 160c40 3 66 -16 66 -46c0 -78 -186 -194 -362 -212l-20 -33c50 -7 71 -38 71 -78c0 -66 -67 -121 -150 -121
c-54 0 -86 28 -86 56c0 17 12 39 42 46c11 -15 24 -21 36 -21c19 0 35 16 35 41s-21 39 -49 39l4 30l19 42c-215 21 -360 171 -360 370c0 253 237 551 609 551c168 0 287 -92 287 -212c0 -74 -36 -124 -93 -124z" />
    <glyph glyph-name="Cdotaccent" unicode="&#x10a;" horiz-adv-x="925" 
d="M647 847c-42 0 -70 25 -70 60c0 46 41 81 93 81c41 0 69 -25 69 -61c0 -44 -42 -80 -92 -80zM480 -160c-244 0 -414 158 -414 373c0 253 237 551 609 551c168 0 287 -92 287 -212c0 -74 -36 -124 -93 -124c-55 0 -100 35 -98 45c2 9 50 67 50 117c0 61 -59 81 -128 81
c-260 0 -437 -240 -437 -453c0 -150 84 -278 248 -278c192 0 298 130 316 160c40 3 66 -16 66 -46c0 -85 -219 -214 -406 -214z" />
    <glyph glyph-name="D" unicode="D" horiz-adv-x="867" 
d="M416 742c306 -33 436 -188 436 -353c0 -325 -450 -538 -671 -538c-86 0 -135 33 -136 93c329 -5 630 204 630 447c0 151 -116 256 -296 272c-66 -133 -130 -324 -159 -544c-6 -46 -10 -94 -12 -143c-15 -5 -29 -7 -42 -7c-65 0 -98 62 -98 146c0 162 94 390 175 540
c-47 -11 -81 -26 -125 -26c-52 0 -67 27 -67 59c0 14 3 26 7 43c86 11 164 17 235 17h4c21 31 38 52 48 57c16 -8 71 -16 71 -60v-3z" />
    <glyph glyph-name="Eth" unicode="&#xd0;" horiz-adv-x="867" 
d="M416 742c306 -33 436 -188 436 -353c0 -325 -450 -538 -671 -538c-86 0 -135 33 -136 93c329 -5 630 204 630 447c0 151 -116 256 -296 272c-36 -73 -72 -162 -101 -265c92 1 184 0 184 -53c0 -22 -16 -50 -37 -66c-59 9 -97 10 -175 10c-12 -54 -22 -111 -30 -170
c-6 -46 -10 -94 -12 -143c-15 -5 -29 -7 -42 -7c-65 0 -98 62 -98 146c0 53 10 113 26 175c-95 3 -142 14 -142 58c0 15 11 36 23 52c52 -1 81 -2 153 -2c33 93 76 184 115 257c-47 -11 -81 -26 -125 -26c-52 0 -67 27 -67 59c0 14 3 26 7 43c86 11 164 17 235 17h4
c21 31 38 52 48 57c16 -8 71 -16 71 -60v-3z" />
    <glyph glyph-name="Dcaron" unicode="&#x10e;" horiz-adv-x="867" 
d="M533 772c-43 0 -85 42 -190 186c22 35 43 51 70 51c51 0 112 -69 142 -120c65 79 116 120 156 120c26 0 44 -16 57 -51c-140 -144 -192 -186 -235 -186zM416 742c306 -33 436 -188 436 -353c0 -325 -450 -538 -671 -538c-86 0 -135 33 -136 93c329 -5 630 204 630 447
c0 151 -116 256 -296 272c-66 -133 -130 -324 -159 -544c-6 -46 -10 -94 -12 -143c-15 -5 -29 -7 -42 -7c-65 0 -98 62 -98 146c0 162 94 390 175 540c-47 -11 -81 -26 -125 -26c-52 0 -67 27 -67 59c0 14 3 26 7 43c86 11 164 17 235 17h4c21 31 38 52 48 57
c16 -8 71 -16 71 -60v-3z" />
    <glyph glyph-name="Dcroat" unicode="&#x110;" horiz-adv-x="867" 
d="M416 742c306 -33 436 -188 436 -353c0 -325 -450 -538 -671 -538c-86 0 -135 33 -136 93c329 -5 630 204 630 447c0 151 -116 256 -296 272c-36 -73 -72 -162 -101 -265c92 1 184 0 184 -53c0 -22 -16 -50 -37 -66c-59 9 -97 10 -175 10c-12 -54 -22 -111 -30 -170
c-6 -46 -10 -94 -12 -143c-15 -5 -29 -7 -42 -7c-65 0 -98 62 -98 146c0 53 10 113 26 175c-95 3 -142 14 -142 58c0 15 11 36 23 52c52 -1 81 -2 153 -2c33 93 76 184 115 257c-47 -11 -81 -26 -125 -26c-52 0 -67 27 -67 59c0 14 3 26 7 43c86 11 164 17 235 17h4
c21 31 38 52 48 57c16 -8 71 -16 71 -60v-3z" />
    <glyph glyph-name="E" unicode="E" horiz-adv-x="790" 
d="M547 812c198 0 369 -88 358 -185c-4 -36 -35 -60 -90 -72c-58 101 -97 176 -251 176c-195 0 -298 -120 -298 -241c0 -57 22 -128 87 -170c36 6 74 9 115 9c87 0 137 -16 148 -46v-1c1 -2 1 -4 2 -5c9 -47 -51 -86 -138 -86c-45 0 -113 12 -181 38
c-54 -29 -92 -85 -92 -147c0 -84 79 -151 187 -151c146 0 258 81 310 127c32 -10 47 -28 41 -48c-6 -21 -116 -178 -408 -178c-174 0 -305 95 -305 216c0 80 60 169 173 225c-84 50 -151 122 -151 219c0 177 227 320 493 320z" />
    <glyph glyph-name="Eacute" unicode="&#xc9;" horiz-adv-x="790" 
d="M729 1041c0 -53 -134 -208 -216 -208c-26 0 -49 21 -58 30c93 93 112 159 126 189c20 13 50 22 79 22c40 0 69 -14 69 -33zM547 812c198 0 369 -88 358 -185c-4 -36 -35 -60 -90 -72c-58 101 -97 176 -251 176c-195 0 -298 -120 -298 -241c0 -57 22 -128 87 -170
c36 6 74 9 115 9c87 0 137 -16 148 -46v-1c1 -2 1 -4 2 -5c9 -47 -51 -86 -138 -86c-45 0 -113 12 -181 38c-54 -29 -92 -85 -92 -147c0 -84 79 -151 187 -151c146 0 258 81 310 127c32 -10 47 -28 41 -48c-6 -21 -116 -178 -408 -178c-174 0 -305 95 -305 216
c0 80 60 169 173 225c-84 50 -151 122 -151 219c0 177 227 320 493 320z" />
    <glyph glyph-name="Ecaron" unicode="&#x11a;" horiz-adv-x="790" 
d="M544 834c-43 0 -85 42 -190 186c22 35 43 51 70 51c51 0 112 -69 142 -120c65 79 116 120 156 120c26 0 44 -16 57 -51c-140 -144 -192 -186 -235 -186zM547 812c198 0 369 -88 358 -185c-4 -36 -35 -60 -90 -72c-58 101 -97 176 -251 176c-195 0 -298 -120 -298 -241
c0 -57 22 -128 87 -170c36 6 74 9 115 9c87 0 137 -16 148 -46v-1c1 -2 1 -4 2 -5c9 -47 -51 -86 -138 -86c-45 0 -113 12 -181 38c-54 -29 -92 -85 -92 -147c0 -84 79 -151 187 -151c146 0 258 81 310 127c32 -10 47 -28 41 -48c-6 -21 -116 -178 -408 -178
c-174 0 -305 95 -305 216c0 80 60 169 173 225c-84 50 -151 122 -151 219c0 177 227 320 493 320z" />
    <glyph glyph-name="Ecircumflex" unicode="&#xca;" horiz-adv-x="790" 
d="M399 832c-27 0 -45 16 -58 51c141 144 193 186 236 186s84 -42 190 -186c-22 -35 -44 -51 -70 -51c-41 0 -92 48 -134 120c-58 -71 -122 -120 -164 -120zM547 812c198 0 369 -88 358 -185c-4 -36 -35 -60 -90 -72c-58 101 -97 176 -251 176c-195 0 -298 -120 -298 -241
c0 -57 22 -128 87 -170c36 6 74 9 115 9c87 0 137 -16 148 -46v-1c1 -2 1 -4 2 -5c9 -47 -51 -86 -138 -86c-45 0 -113 12 -181 38c-54 -29 -92 -85 -92 -147c0 -84 79 -151 187 -151c146 0 258 81 310 127c32 -10 47 -28 41 -48c-6 -21 -116 -178 -408 -178
c-174 0 -305 95 -305 216c0 80 60 169 173 225c-84 50 -151 122 -151 219c0 177 227 320 493 320z" />
    <glyph glyph-name="Edieresis" unicode="&#xcb;" horiz-adv-x="790" 
d="M445 853c-44 0 -72 26 -72 65c0 50 44 88 100 88c45 0 75 -27 75 -66c0 -50 -45 -87 -103 -87zM641 853c-44 0 -72 26 -72 65c0 50 44 88 100 88c45 0 75 -27 75 -66c0 -50 -45 -87 -103 -87zM547 812c198 0 369 -88 358 -185c-4 -36 -35 -60 -90 -72
c-58 101 -97 176 -251 176c-195 0 -298 -120 -298 -241c0 -57 22 -128 87 -170c36 6 74 9 115 9c87 0 137 -16 148 -46v-1c1 -2 1 -4 2 -5c9 -47 -51 -86 -138 -86c-45 0 -113 12 -181 38c-54 -29 -92 -85 -92 -147c0 -84 79 -151 187 -151c146 0 258 81 310 127
c32 -10 47 -28 41 -48c-6 -21 -116 -178 -408 -178c-174 0 -305 95 -305 216c0 80 60 169 173 225c-84 50 -151 122 -151 219c0 177 227 320 493 320z" />
    <glyph glyph-name="Edotaccent" unicode="&#x116;" horiz-adv-x="790" 
d="M549 855c-42 0 -70 25 -70 60c0 46 41 81 93 81c41 0 69 -25 69 -61c0 -44 -42 -80 -92 -80zM547 812c198 0 369 -88 358 -185c-4 -36 -35 -60 -90 -72c-58 101 -97 176 -251 176c-195 0 -298 -120 -298 -241c0 -57 22 -128 87 -170c36 6 74 9 115 9
c87 0 137 -16 148 -46v-1c1 -2 1 -4 2 -5c9 -47 -51 -86 -138 -86c-45 0 -113 12 -181 38c-54 -29 -92 -85 -92 -147c0 -84 79 -151 187 -151c146 0 258 81 310 127c32 -10 47 -28 41 -48c-6 -21 -116 -178 -408 -178c-174 0 -305 95 -305 216c0 80 60 169 173 225
c-84 50 -151 122 -151 219c0 177 227 320 493 320z" />
    <glyph glyph-name="Egrave" unicode="&#xc8;" horiz-adv-x="790" 
d="M608 833c-78 0 -166 140 -166 201c0 24 34 40 77 40c30 0 57 -9 74 -22c6 -30 10 -96 79 -189c-11 -9 -39 -30 -64 -30zM547 812c198 0 369 -88 358 -185c-4 -36 -35 -60 -90 -72c-58 101 -97 176 -251 176c-195 0 -298 -120 -298 -241c0 -57 22 -128 87 -170
c36 6 74 9 115 9c87 0 137 -16 148 -46v-1c1 -2 1 -4 2 -5c9 -47 -51 -86 -138 -86c-45 0 -113 12 -181 38c-54 -29 -92 -85 -92 -147c0 -84 79 -151 187 -151c146 0 258 81 310 127c32 -10 47 -28 41 -48c-6 -21 -116 -178 -408 -178c-174 0 -305 95 -305 216
c0 80 60 169 173 225c-84 50 -151 122 -151 219c0 177 227 320 493 320z" />
    <glyph glyph-name="Emacron" unicode="&#x112;" horiz-adv-x="790" 
d="M461 834c-82 0 -115 15 -115 53c0 18 8 35 18 47c40 -4 158 -3 207 -3c41 0 82 4 116 4c53 0 77 -12 77 -39c0 -20 -13 -47 -30 -64c-33 5 -56 7 -87 7c-22 0 -49 0 -85 -2c-40 -2 -73 -3 -101 -3zM547 812c198 0 369 -88 358 -185c-4 -36 -35 -60 -90 -72
c-58 101 -97 176 -251 176c-195 0 -298 -120 -298 -241c0 -57 22 -128 87 -170c36 6 74 9 115 9c87 0 137 -16 148 -46v-1c1 -2 1 -4 2 -5c9 -47 -51 -86 -138 -86c-45 0 -113 12 -181 38c-54 -29 -92 -85 -92 -147c0 -84 79 -151 187 -151c146 0 258 81 310 127
c32 -10 47 -28 41 -48c-6 -21 -116 -178 -408 -178c-174 0 -305 95 -305 216c0 80 60 169 173 225c-84 50 -151 122 -151 219c0 177 227 320 493 320z" />
    <glyph glyph-name="Eogonek" unicode="&#x118;" horiz-adv-x="790" 
d="M547 812c198 0 369 -88 358 -185c-4 -36 -35 -60 -90 -72c-58 101 -97 176 -251 176c-195 0 -298 -120 -298 -241c0 -57 22 -128 87 -170c36 6 74 9 115 9c87 0 137 -16 148 -46v-1c1 -2 1 -4 2 -5c9 -47 -51 -86 -138 -86c-45 0 -113 12 -181 38
c-54 -29 -92 -85 -92 -147c0 -84 79 -151 187 -151c146 0 258 81 310 127c32 -10 47 -28 41 -48c-5 -17 -74 -118 -247 -160c-45 -39 -70 -69 -70 -98c0 -17 6 -26 18 -26c14 0 33 8 55 24c23 -7 34 -20 34 -38c0 -38 -58 -72 -115 -72c-70 0 -118 40 -118 96
c0 41 23 73 50 96h-15c-174 0 -305 95 -305 216c0 80 60 169 173 225c-84 50 -151 122 -151 219c0 177 227 320 493 320z" />
    <glyph glyph-name="F" unicode="F" horiz-adv-x="753" 
d="M1046 917c23 -34 36 -62 36 -94c0 -56 -38 -104 -114 -111c-42 -4 -96 -7 -154 -9c-113 -5 -246 -16 -357 -41v-33c0 -66 -13 -138 -30 -212c10 3 20 6 29 8c62 15 130 22 182 22c69 0 107 -17 107 -48c0 -17 -27 -56 -57 -87c-37 10 -66 19 -104 19
c-59 0 -124 -13 -187 -33c-27 -108 -54 -216 -54 -314c0 -54 7 -103 20 -133c-32 -10 -74 -24 -109 -23c-56 4 -83 39 -83 103c0 56 37 178 75 304c-37 -19 -71 -39 -100 -59c1 38 8 66 20 89c18 34 63 67 116 95c23 84 41 160 41 210c0 18 -2 32 -4 45
c-64 -32 -104 -75 -104 -134c0 -18 7 -36 18 -47c-83 -72 -169 -55 -169 27c0 187 237 266 434 307c160 33 278 59 391 82c96 19 120 39 157 67z" />
    <glyph glyph-name="G" unicode="G" horiz-adv-x="1028" 
d="M492 -142c-282 0 -413 184 -413 379c0 246 206 528 596 530c197 1 343 -100 343 -156c0 -28 -38 -81 -120 -89c-48 100 -135 155 -245 154c-231 -1 -390 -236 -390 -439c0 -148 77 -276 241 -276c196 0 351 135 351 232c0 36 -42 53 -111 44c-48 -6 -103 -15 -154 -15
c-53 0 -86 23 -86 59c0 28 16 57 52 93c57 -22 108 -23 162 -23c140 0 269 -18 269 -125c0 -233 -311 -368 -495 -368z" />
    <glyph glyph-name="Gbreve" unicode="&#x11e;" horiz-adv-x="1028" 
d="M672 835c-89 0 -157 68 -157 149c0 48 24 68 77 68c26 0 52 -9 61 -20c-8 -69 6 -112 36 -112c36 0 56 36 65 112c11 11 39 20 68 20c41 0 62 -15 62 -46c0 -88 -104 -171 -212 -171zM492 -142c-282 0 -413 184 -413 379c0 246 206 528 596 530c197 1 343 -100 343 -156
c0 -28 -38 -81 -120 -89c-48 100 -135 155 -245 154c-231 -1 -390 -236 -390 -439c0 -148 77 -276 241 -276c196 0 351 135 351 232c0 36 -42 53 -111 44c-48 -6 -103 -15 -154 -15c-53 0 -86 23 -86 59c0 28 16 57 52 93c57 -22 108 -23 162 -23c140 0 269 -18 269 -125
c0 -233 -311 -368 -495 -368z" />
    <glyph glyph-name="Gcommaaccent" unicode="&#x122;" horiz-adv-x="1028" 
d="M492 -142c-282 0 -413 184 -413 379c0 246 206 528 596 530c197 1 343 -100 343 -156c0 -28 -38 -81 -120 -89c-48 100 -135 155 -245 154c-231 -1 -390 -236 -390 -439c0 -148 77 -276 241 -276c196 0 351 135 351 232c0 36 -42 53 -111 44c-48 -6 -103 -15 -154 -15
c-53 0 -86 23 -86 59c0 28 16 57 52 93c57 -22 108 -23 162 -23c140 0 269 -18 269 -125c0 -233 -311 -368 -495 -368zM485 -392c-18 0 -33 13 -36 33c27 25 45 41 54 70c-23 13 -35 33 -35 57c0 46 38 77 88 77c40 0 66 -31 66 -77c0 -64 -86 -160 -137 -160z" />
    <glyph glyph-name="Gdotaccent" unicode="&#x120;" horiz-adv-x="1028" 
d="M675 847c-42 0 -70 25 -70 60c0 46 41 81 93 81c41 0 69 -25 69 -61c0 -44 -42 -80 -92 -80zM492 -142c-282 0 -413 184 -413 379c0 246 206 528 596 530c197 1 343 -100 343 -156c0 -28 -38 -81 -120 -89c-48 100 -135 155 -245 154c-231 -1 -390 -236 -390 -439
c0 -148 77 -276 241 -276c196 0 351 135 351 232c0 36 -42 53 -111 44c-48 -6 -103 -15 -154 -15c-53 0 -86 23 -86 59c0 28 16 57 52 93c57 -22 108 -23 162 -23c140 0 269 -18 269 -125c0 -233 -311 -368 -495 -368z" />
    <glyph glyph-name="H" unicode="H" horiz-adv-x="815" 
d="M865 744c0 -161 -131 -445 -131 -693c0 -56 6 -108 18 -139c-36 -10 -94 -18 -123 -15c-137 10 -64 208 -28 336c4 13 7 26 11 39c-33 8 -91 21 -148 25c-73 5 -135 1 -189 -7l-38 -147c-46 -181 -49 -289 -49 -291c0 -13 1 -32 2 -39c-65 19 -160 25 -160 125
c0 73 39 167 79 299c-46 -24 -71 -45 -75 -48c-35 -5 -51 20 -51 43c0 37 68 81 159 117c30 109 48 190 48 250c0 53 -12 93 -40 126c54 58 91 83 128 83c65 0 88 -62 72 -192c-6 -47 -25 -130 -46 -216c64 16 127 25 177 25c79 0 153 -13 160 -28l4 -4c14 52 28 110 44 178
c11 48 20 76 20 108c0 30 -7 66 -23 112c22 33 64 55 105 55c50 0 74 -33 74 -102z" />
    <glyph glyph-name="Hbar" unicode="&#x126;" horiz-adv-x="815" 
d="M844 601c32 -10 52 -24 52 -44c0 -21 -20 -47 -50 -62c-9 2 -18 3 -28 5c-37 -140 -84 -301 -84 -449c0 -56 6 -108 18 -139c-36 -10 -94 -18 -123 -15c-137 10 -64 208 -28 336c4 13 7 26 11 39c-33 8 -91 21 -148 25c-73 5 -135 1 -189 -7l-38 -147
c-46 -181 -49 -289 -49 -291c0 -13 1 -32 2 -39c-65 19 -160 25 -160 125c0 73 39 167 79 299c-46 -24 -71 -45 -75 -48c-35 -5 -51 20 -51 43c0 37 68 81 159 117c18 67 32 124 40 171c-53 4 -78 16 -78 44c0 13 12 29 31 48c20 -1 38 -2 55 -2c-2 48 -14 84 -40 115
c54 58 91 83 128 83c64 0 88 -61 72 -188c47 2 105 4 183 4c56 0 114 0 168 -3c5 21 8 39 8 58c0 30 -7 66 -23 112c22 33 64 55 105 55c50 0 74 -33 74 -102c0 -41 -8 -89 -21 -143zM645 393c10 37 20 77 31 121c-66 4 -132 6 -178 6c-64 0 -119 -1 -166 -2
c-8 -36 -18 -76 -28 -118c64 16 127 25 177 25c79 0 153 -13 160 -28z" />
    <glyph glyph-name="I" unicode="I" horiz-adv-x="678" 
d="M853 812c5 -28 1 -53 -15 -82c-13 -24 -53 -69 -140 -69s-141 7 -205 9c3 -11 1 -24 -4 -44c-14 -48 -62 -256 -74 -339c-22 -147 -28 -256 -20 -337c25 -1 48 -1 71 0c94 5 114 10 137 33c61 -21 86 -135 -79 -146c-86 -6 -218 8 -293 8c-102 0 -154 -11 -221 -27
c-68 59 -25 145 74 147c58 1 109 -1 156 -4c-1 10 -3 20 -3 32c-3 68 38 346 77 502c20 80 39 154 37 173c-124 -9 -191 -36 -207 -85c-48 -7 -81 32 -72 79c27 88 163 132 407 132c91 0 215 -4 244 -4c73 0 83 6 130 22z" />
    <glyph glyph-name="Iacute" unicode="&#xcd;" horiz-adv-x="678" 
d="M670 1033c0 -53 -134 -208 -216 -208c-26 0 -49 21 -58 30c93 93 112 159 126 189c20 13 50 22 79 22c40 0 69 -14 69 -33zM853 812c5 -28 1 -53 -15 -82c-13 -24 -53 -69 -140 -69s-141 7 -205 9c3 -11 1 -24 -4 -44c-14 -48 -62 -256 -74 -339
c-22 -147 -28 -256 -20 -337c25 -1 48 -1 71 0c94 5 114 10 137 33c61 -21 86 -135 -79 -146c-86 -6 -218 8 -293 8c-102 0 -154 -11 -221 -27c-68 59 -25 145 74 147c58 1 109 -1 156 -4c-1 10 -3 20 -3 32c-3 68 38 346 77 502c20 80 39 154 37 173
c-124 -9 -191 -36 -207 -85c-48 -7 -81 32 -72 79c27 88 163 132 407 132c91 0 215 -4 244 -4c73 0 83 6 130 22z" />
    <glyph glyph-name="Icircumflex" unicode="&#xce;" horiz-adv-x="678" 
d="M340 824c-27 0 -45 16 -58 51c141 144 193 186 236 186s84 -42 190 -186c-22 -35 -44 -51 -70 -51c-41 0 -92 48 -134 120c-58 -71 -122 -120 -164 -120zM853 812c5 -28 1 -53 -15 -82c-13 -24 -53 -69 -140 -69s-141 7 -205 9c3 -11 1 -24 -4 -44
c-14 -48 -62 -256 -74 -339c-22 -147 -28 -256 -20 -337c25 -1 48 -1 71 0c94 5 114 10 137 33c61 -21 86 -135 -79 -146c-86 -6 -218 8 -293 8c-102 0 -154 -11 -221 -27c-68 59 -25 145 74 147c58 1 109 -1 156 -4c-1 10 -3 20 -3 32c-3 68 38 346 77 502
c20 80 39 154 37 173c-124 -9 -191 -36 -207 -85c-48 -7 -81 32 -72 79c27 88 163 132 407 132c91 0 215 -4 244 -4c73 0 83 6 130 22z" />
    <glyph glyph-name="Idieresis" unicode="&#xcf;" horiz-adv-x="678" 
d="M386 845c-44 0 -72 26 -72 65c0 50 44 88 100 88c45 0 75 -27 75 -66c0 -50 -45 -87 -103 -87zM582 845c-44 0 -72 26 -72 65c0 50 44 88 100 88c45 0 75 -27 75 -66c0 -50 -45 -87 -103 -87zM853 812c5 -28 1 -53 -15 -82c-13 -24 -53 -69 -140 -69s-141 7 -205 9
c3 -11 1 -24 -4 -44c-14 -48 -62 -256 -74 -339c-22 -147 -28 -256 -20 -337c25 -1 48 -1 71 0c94 5 114 10 137 33c61 -21 86 -135 -79 -146c-86 -6 -218 8 -293 8c-102 0 -154 -11 -221 -27c-68 59 -25 145 74 147c58 1 109 -1 156 -4c-1 10 -3 20 -3 32
c-3 68 38 346 77 502c20 80 39 154 37 173c-124 -9 -191 -36 -207 -85c-48 -7 -81 32 -72 79c27 88 163 132 407 132c91 0 215 -4 244 -4c73 0 83 6 130 22z" />
    <glyph glyph-name="Idotaccent" unicode="&#x130;" horiz-adv-x="678" 
d="M490 847c-42 0 -70 25 -70 60c0 46 41 81 93 81c41 0 69 -25 69 -61c0 -44 -42 -80 -92 -80zM853 812c5 -28 1 -53 -15 -82c-13 -24 -53 -69 -140 -69s-141 7 -205 9c3 -11 1 -24 -4 -44c-14 -48 -62 -256 -74 -339c-22 -147 -28 -256 -20 -337c25 -1 48 -1 71 0
c94 5 114 10 137 33c61 -21 86 -135 -79 -146c-86 -6 -218 8 -293 8c-102 0 -154 -11 -221 -27c-68 59 -25 145 74 147c58 1 109 -1 156 -4c-1 10 -3 20 -3 32c-3 68 38 346 77 502c20 80 39 154 37 173c-124 -9 -191 -36 -207 -85c-48 -7 -81 32 -72 79
c27 88 163 132 407 132c91 0 215 -4 244 -4c73 0 83 6 130 22z" />
    <glyph glyph-name="Igrave" unicode="&#xcc;" horiz-adv-x="678" 
d="M549 825c-78 0 -166 140 -166 201c0 24 34 40 77 40c30 0 57 -9 74 -22c6 -30 10 -96 79 -189c-11 -9 -39 -30 -64 -30zM853 812c5 -28 1 -53 -15 -82c-13 -24 -53 -69 -140 -69s-141 7 -205 9c3 -11 1 -24 -4 -44c-14 -48 -62 -256 -74 -339c-22 -147 -28 -256 -20 -337
c25 -1 48 -1 71 0c94 5 114 10 137 33c61 -21 86 -135 -79 -146c-86 -6 -218 8 -293 8c-102 0 -154 -11 -221 -27c-68 59 -25 145 74 147c58 1 109 -1 156 -4c-1 10 -3 20 -3 32c-3 68 38 346 77 502c20 80 39 154 37 173c-124 -9 -191 -36 -207 -85c-48 -7 -81 32 -72 79
c27 88 163 132 407 132c91 0 215 -4 244 -4c73 0 83 6 130 22z" />
    <glyph glyph-name="Imacron" unicode="&#x12a;" horiz-adv-x="678" 
d="M402 826c-82 0 -115 15 -115 53c0 18 8 35 18 47c40 -4 158 -3 207 -3c41 0 82 4 116 4c53 0 77 -12 77 -39c0 -20 -13 -47 -30 -64c-33 5 -56 7 -87 7c-22 0 -49 0 -85 -2c-40 -2 -73 -3 -101 -3zM853 812c5 -28 1 -53 -15 -82c-13 -24 -53 -69 -140 -69s-141 7 -205 9
c3 -11 1 -24 -4 -44c-14 -48 -62 -256 -74 -339c-22 -147 -28 -256 -20 -337c25 -1 48 -1 71 0c94 5 114 10 137 33c61 -21 86 -135 -79 -146c-86 -6 -218 8 -293 8c-102 0 -154 -11 -221 -27c-68 59 -25 145 74 147c58 1 109 -1 156 -4c-1 10 -3 20 -3 32
c-3 68 38 346 77 502c20 80 39 154 37 173c-124 -9 -191 -36 -207 -85c-48 -7 -81 32 -72 79c27 88 163 132 407 132c91 0 215 -4 244 -4c73 0 83 6 130 22z" />
    <glyph glyph-name="Iogonek" unicode="&#x12e;" horiz-adv-x="678" 
d="M853 812c5 -28 1 -53 -15 -82c-13 -24 -53 -69 -140 -69s-141 7 -205 9c3 -11 1 -24 -4 -44c-14 -48 -62 -256 -74 -339c-22 -147 -28 -256 -20 -337c25 -1 48 -1 71 0c94 5 114 10 137 33c61 -21 86 -135 -79 -146c-48 -3 -110 0 -169 3c-28 -28 -44 -52 -44 -74
c0 -17 6 -26 18 -26c14 0 33 8 55 24c23 -7 34 -20 34 -38c0 -38 -58 -72 -115 -72c-70 0 -118 40 -118 96c0 41 22 72 49 95h-3c-102 0 -154 -11 -221 -27c-68 59 -25 145 74 147c58 1 109 -1 156 -4c-1 10 -3 20 -3 32c-3 68 38 346 77 502c20 80 39 154 37 173
c-124 -9 -191 -36 -207 -85c-48 -7 -81 32 -72 79c27 88 163 132 407 132c91 0 215 -4 244 -4c73 0 83 6 130 22z" />
    <glyph glyph-name="J" unicode="J" horiz-adv-x="885" 
d="M966 745c-7 -17 -26 -50 -74 -77c-18 -29 -27 -64 -33 -114c-17 -139 -16 -264 -30 -378c-26 -211 -227 -369 -467 -369c-143 0 -302 94 -302 204c0 53 36 101 109 114c34 -106 145 -189 253 -189c146 0 255 112 276 285c13 107 10 226 23 328c4 29 9 56 17 81
c-10 -1 -20 -1 -30 -1c-63 0 -126 9 -181 9c-104 0 -160 -45 -149 -115c-27 -18 -61 -29 -90 -29c-50 0 -80 28 -80 71c0 80 102 183 252 183c91 0 184 -25 263 -25c24 0 43 1 60 4c29 40 65 63 105 63c36 0 74 -22 78 -45z" />
    <glyph glyph-name="K" unicode="K" horiz-adv-x="784" 
d="M751 584c-43 -36 -133 -73 -259 -152l-54 -34c29 -180 170 -350 333 -396c-34 -70 -82 -107 -138 -109c-68 -2 -267 167 -314 421c-50 -44 -85 -93 -100 -162c-4 -36 -6 -72 -6 -105c0 -72 6 -121 11 -144c-17 -4 -57 -11 -86 -11c-61 0 -89 14 -89 132
c0 286 128 564 128 736c0 19 -1 50 -5 66c101 23 150 -36 150 -108c0 -56 -34 -187 -64 -332c38 36 85 74 137 107c130 81 267 204 323 292c62 -10 105 -50 105 -95c0 -28 -30 -70 -72 -106z" />
    <glyph glyph-name="Kcommaaccent" unicode="&#x136;" horiz-adv-x="784" 
d="M751 584c-43 -36 -133 -73 -259 -152l-54 -34c29 -180 170 -350 333 -396c-34 -70 -82 -107 -138 -109c-68 -2 -267 167 -314 421c-50 -44 -85 -93 -100 -162c-4 -36 -6 -72 -6 -105c0 -72 6 -121 11 -144c-17 -4 -57 -11 -86 -11c-61 0 -89 14 -89 132
c0 286 128 564 128 736c0 19 -1 50 -5 66c101 23 150 -36 150 -108c0 -56 -34 -187 -64 -332c38 36 85 74 137 107c130 81 267 204 323 292c62 -10 105 -50 105 -95c0 -28 -30 -70 -72 -106zM402 -113c40 0 66 -31 66 -77c0 -64 -86 -160 -137 -160c-18 0 -33 13 -36 33
c27 25 45 41 54 70c-23 13 -35 33 -35 57c0 46 38 77 88 77z" />
    <glyph glyph-name="L" unicode="L" horiz-adv-x="820" 
d="M773 -77c28 -32 43 -67 43 -95c0 -64 -72 -104 -184 -104c-156 0 -322 100 -452 126c-34 -38 -73 -55 -120 -55c-73 0 -109 42 -95 114c40 9 82 15 127 17c42 66 72 140 97 217c-34 -6 -68 -9 -102 -9c-80 0 -127 48 -108 113c84 -1 168 8 247 27c70 264 113 519 348 519
c76 0 125 -66 125 -160c0 -181 -164 -361 -367 -447c-32 -103 -68 -200 -114 -264c85 -12 185 -40 326 -40c80 0 151 14 229 41zM548 712c-73 0 -121 -187 -176 -387c134 64 227 170 227 323c0 36 -16 64 -51 64z" />
    <glyph glyph-name="Lacute" unicode="&#x139;" horiz-adv-x="820" 
d="M759 1012c0 -53 -134 -208 -216 -208c-26 0 -49 21 -58 30c93 93 112 159 126 189c20 13 50 22 79 22c40 0 69 -14 69 -33zM773 -77c28 -32 43 -67 43 -95c0 -64 -72 -104 -184 -104c-156 0 -322 100 -452 126c-34 -38 -73 -55 -120 -55c-73 0 -109 42 -95 114
c40 9 82 15 127 17c42 66 72 140 97 217c-34 -6 -68 -9 -102 -9c-80 0 -127 48 -108 113c84 -1 168 8 247 27c70 264 113 519 348 519c76 0 125 -66 125 -160c0 -181 -164 -361 -367 -447c-32 -103 -68 -200 -114 -264c85 -12 185 -40 326 -40c80 0 151 14 229 41zM548 712
c-73 0 -121 -187 -176 -387c134 64 227 170 227 323c0 36 -16 64 -51 64z" />
    <glyph glyph-name="Lcaron" unicode="&#x13d;" horiz-adv-x="820" 
d="M544 -118c80 0 151 14 229 41c28 -32 43 -67 43 -95c0 -64 -72 -104 -184 -104c-156 0 -322 100 -452 126c-34 -38 -73 -55 -120 -55c-73 0 -109 42 -95 114c40 9 82 15 127 17c42 66 72 140 97 217c-34 -6 -68 -9 -102 -9c-80 0 -127 48 -108 113c84 -1 168 8 247 27
c70 264 113 519 348 519c76 0 125 -66 125 -160c0 -181 -164 -361 -367 -447c-32 -103 -68 -200 -114 -264c85 -12 185 -40 326 -40zM808 777c35 19 128 24 128 -27c0 -75 -97 -191 -163 -191c-22 0 -42 12 -51 31c62 74 78 149 86 187zM548 712c-73 0 -121 -187 -176 -387
c134 64 227 170 227 323c0 36 -16 64 -51 64z" />
    <glyph glyph-name="Lcommaaccent" unicode="&#x13b;" horiz-adv-x="820" 
d="M773 -77c28 -32 43 -67 43 -95c0 -64 -72 -104 -184 -104c-156 0 -322 100 -452 126c-34 -38 -73 -55 -120 -55c-73 0 -109 42 -95 114c40 9 82 15 127 17c42 66 72 140 97 217c-34 -6 -68 -9 -102 -9c-80 0 -127 48 -108 113c84 -1 168 8 247 27c70 264 113 519 348 519
c76 0 125 -66 125 -160c0 -181 -164 -361 -367 -447c-32 -103 -68 -200 -114 -264c85 -12 185 -40 326 -40c80 0 151 14 229 41zM548 712c-73 0 -121 -187 -176 -387c134 64 227 170 227 323c0 36 -16 64 -51 64zM400 -236c40 0 66 -31 66 -77c0 -64 -86 -160 -137 -160
c-18 0 -33 13 -36 33c27 25 45 41 54 70c-23 13 -35 33 -35 57c0 46 38 77 88 77z" />
    <glyph glyph-name="Lslash" unicode="&#x141;" horiz-adv-x="820" 
d="M773 -77c28 -32 43 -67 43 -95c0 -64 -72 -104 -184 -104c-156 0 -322 100 -452 126c-34 -38 -73 -55 -120 -55c-73 0 -109 42 -95 114c40 9 82 15 127 17c42 66 72 140 97 217c-34 -6 -68 -9 -102 -9c-80 0 -127 48 -108 113c84 -1 168 8 247 27c15 57 29 115 44 169
c-43 -3 -76 -7 -110 -17c-30 16 -46 43 -50 54c-7 50 88 64 193 71c51 141 123 242 271 242c76 0 125 -66 125 -160c0 -14 -1 -27 -3 -41c13 3 26 7 39 10c13 -14 19 -21 23 -29c15 -33 -3 -57 -56 -79c-11 -5 -24 -9 -40 -13c-59 -124 -185 -233 -330 -295
c-32 -103 -68 -200 -114 -264c85 -12 185 -40 326 -40c80 0 151 14 229 41zM548 712c-42 0 -76 -62 -108 -153c65 4 113 9 151 14c5 23 8 48 8 75c0 36 -16 64 -51 64zM407 451c-12 -41 -23 -83 -35 -126c70 33 129 79 170 136c-33 -3 -71 -6 -113 -9c-8 0 -15 -1 -22 -1z
" />
    <glyph glyph-name="M" unicode="M" horiz-adv-x="1192" 
d="M1159 519c0 -80 -55 -236 -55 -453c0 -139 21 -150 39 -200c-31 -33 -76 -52 -126 -52c-58 0 -85 47 -85 139c0 126 79 375 90 470l7 60c-22 0 -192 -412 -274 -525c-20 -32 -61 -66 -106 -66c-72 0 -113 77 -113 193c0 133 67 459 67 545c0 12 -2 18 -5 18
c-80 0 -324 -529 -379 -797c-8 -39 -12 -105 -8 -140c-90 11 -186 17 -186 102c0 78 83 275 173 453c58 115 274 509 432 509c86 0 56 -133 56 -691c0 -11 1 -21 2 -30c243 467 296 605 394 605c48 0 77 -60 77 -140z" />
    <glyph glyph-name="N" unicode="N" horiz-adv-x="872" 
d="M894 776c57 0 88 -49 80 -118c-62 -44 -94 -20 -135 -206c-50 -229 -30 -559 -243 -587c-193 -26 -293 435 -327 642c-36 -242 -58 -500 -58 -502c0 -44 3 -96 8 -124c-12 -12 -69 -29 -116 -21c-44 8 -64 45 -64 128c0 249 123 447 123 685c0 19 0 47 -1 63
c72 22 140 23 170 -9c21 -23 30 -55 34 -110c5 -77 79 -365 135 -479c41 -84 85 -131 100 -131c16 0 49 108 72 284c35 266 73 485 222 485z" />
    <glyph glyph-name="Nacute" unicode="&#x143;" horiz-adv-x="872" 
d="M742 995c0 -53 -134 -208 -216 -208c-26 0 -49 21 -58 30c93 93 112 159 126 189c20 13 50 22 79 22c40 0 69 -14 69 -33zM894 776c57 0 88 -49 80 -118c-62 -44 -94 -20 -135 -206c-50 -229 -30 -559 -243 -587c-193 -26 -293 435 -327 642c-36 -242 -58 -500 -58 -502
c0 -44 3 -96 8 -124c-12 -12 -69 -29 -116 -21c-44 8 -64 45 -64 128c0 249 123 447 123 685c0 19 0 47 -1 63c72 22 140 23 170 -9c21 -23 30 -55 34 -110c5 -77 79 -365 135 -479c41 -84 85 -131 100 -131c16 0 49 108 72 284c35 266 73 485 222 485z" />
    <glyph glyph-name="Ncaron" unicode="&#x147;" horiz-adv-x="872" 
d="M557 788c-43 0 -85 42 -190 186c22 35 43 51 70 51c51 0 112 -69 142 -120c65 79 116 120 156 120c26 0 44 -16 57 -51c-140 -144 -192 -186 -235 -186zM894 776c57 0 88 -49 80 -118c-62 -44 -94 -20 -135 -206c-50 -229 -30 -559 -243 -587c-193 -26 -293 435 -327 642
c-36 -242 -58 -500 -58 -502c0 -44 3 -96 8 -124c-12 -12 -69 -29 -116 -21c-44 8 -64 45 -64 128c0 249 123 447 123 685c0 19 0 47 -1 63c72 22 140 23 170 -9c21 -23 30 -55 34 -110c5 -77 79 -365 135 -479c41 -84 85 -131 100 -131c16 0 49 108 72 284
c35 266 73 485 222 485z" />
    <glyph glyph-name="Ncommaaccent" unicode="&#x145;" horiz-adv-x="872" 
d="M894 776c57 0 88 -49 80 -118c-62 -44 -94 -20 -135 -206c-50 -229 -30 -559 -243 -587c-193 -26 -293 435 -327 642c-36 -242 -58 -500 -58 -502c0 -44 3 -96 8 -124c-12 -12 -69 -29 -116 -21c-44 8 -64 45 -64 128c0 249 123 447 123 685c0 19 0 47 -1 63
c72 22 140 23 170 -9c21 -23 30 -55 34 -110c5 -77 79 -365 135 -479c41 -84 85 -131 100 -131c16 0 49 108 72 284c35 266 73 485 222 485zM407 -177c40 0 66 -31 66 -77c0 -64 -86 -160 -137 -160c-18 0 -33 13 -36 33c27 25 45 41 54 70c-23 13 -35 33 -35 57
c0 46 38 77 88 77z" />
    <glyph glyph-name="Eng" unicode="&#x14a;" horiz-adv-x="854" 
d="M894 776c57 0 88 -49 80 -118c-62 -44 -94 -20 -135 -206c-22 -101 -30 -221 -51 -326c-56 -303 -188 -476 -374 -476c-89 0 -126 48 -126 88c0 44 45 75 96 66c15 -36 32 -50 59 -50c49 0 90 36 124 111c-166 21 -265 406 -298 561c-24 -120 -53 -228 -53 -421
c0 -44 3 -96 8 -124c-13 -12 -69 -29 -121 -21c-45 7 -64 45 -64 127c0 250 123 448 123 686c0 19 0 47 -1 63c72 22 140 23 170 -9c21 -23 30 -55 34 -110c5 -77 79 -366 135 -479c43 -87 62 -110 90 -110c23 0 49 78 74 263c35 266 74 485 230 485z" />
    <glyph glyph-name="Ntilde" unicode="&#xd1;" horiz-adv-x="872" 
d="M441 813c-46 -3 -75 15 -75 45c0 51 72 107 136 107c73 0 119 -58 148 -58c19 0 41 33 55 52c46 2 76 -14 76 -40c0 -40 -65 -112 -138 -112c-70 0 -119 58 -149 58c-15 0 -38 -22 -53 -52zM894 776c57 0 88 -49 80 -118c-62 -44 -94 -20 -135 -206
c-50 -229 -30 -559 -243 -587c-193 -26 -293 435 -327 642c-36 -242 -58 -500 -58 -502c0 -44 3 -96 8 -124c-12 -12 -69 -29 -116 -21c-44 8 -64 45 -64 128c0 249 123 447 123 685c0 19 0 47 -1 63c72 22 140 23 170 -9c21 -23 30 -55 34 -110c5 -77 79 -365 135 -479
c41 -84 85 -131 100 -131c16 0 49 108 72 284c35 266 73 485 222 485z" />
    <glyph glyph-name="O" unicode="O" horiz-adv-x="898" 
d="M397 -156c-219 0 -348 151 -348 393c0 164 90 461 236 461c31 0 58 -17 67 -42c-81 -73 -142 -227 -142 -404c0 -193 70 -319 189 -319c179 0 322 209 322 498c0 159 -50 264 -138 264c-84 0 -156 -88 -156 -196c0 -81 45 -136 117 -134c-15 -72 -65 -119 -125 -119
c-81 0 -130 69 -130 173c0 155 113 361 313 361c224 0 281 -217 281 -367c0 -371 -249 -569 -486 -569z" />
    <glyph glyph-name="Oacute" unicode="&#xd3;" horiz-adv-x="898" 
d="M491 825c-26 0 -49 21 -58 30c93 93 112 159 126 189c20 13 50 22 79 22c40 0 69 -14 69 -33c0 -53 -134 -208 -216 -208zM397 -156c-219 0 -348 151 -348 393c0 164 90 461 236 461c31 0 58 -17 67 -42c-81 -73 -142 -227 -142 -404c0 -193 70 -319 189 -319
c179 0 322 209 322 498c0 159 -50 264 -138 264c-84 0 -156 -88 -156 -196c0 -81 45 -136 117 -134c-15 -72 -65 -119 -125 -119c-81 0 -130 69 -130 173c0 155 113 361 313 361c224 0 281 -217 281 -367c0 -371 -249 -569 -486 -569z" />
    <glyph glyph-name="Ocircumflex" unicode="&#xd4;" horiz-adv-x="898" 
d="M377 824c-27 0 -45 16 -58 51c141 144 193 186 236 186s84 -42 190 -186c-22 -35 -44 -51 -70 -51c-41 0 -92 48 -134 120c-58 -71 -122 -120 -164 -120zM397 -156c-219 0 -348 151 -348 393c0 164 90 461 236 461c31 0 58 -17 67 -42c-81 -73 -142 -227 -142 -404
c0 -193 70 -319 189 -319c179 0 322 209 322 498c0 159 -50 264 -138 264c-84 0 -156 -88 -156 -196c0 -81 45 -136 117 -134c-15 -72 -65 -119 -125 -119c-81 0 -130 69 -130 173c0 155 113 361 313 361c224 0 281 -217 281 -367c0 -371 -249 -569 -486 -569z" />
    <glyph glyph-name="Odieresis" unicode="&#xd6;" horiz-adv-x="898" 
d="M423 845c-44 0 -72 26 -72 65c0 50 44 88 100 88c45 0 75 -27 75 -66c0 -50 -45 -87 -103 -87zM619 845c-44 0 -72 26 -72 65c0 50 44 88 100 88c45 0 75 -27 75 -66c0 -50 -45 -87 -103 -87zM397 -156c-219 0 -348 151 -348 393c0 164 90 461 236 461
c31 0 58 -17 67 -42c-81 -73 -142 -227 -142 -404c0 -193 70 -319 189 -319c179 0 322 209 322 498c0 159 -50 264 -138 264c-84 0 -156 -88 -156 -196c0 -81 45 -136 117 -134c-15 -72 -65 -119 -125 -119c-81 0 -130 69 -130 173c0 155 113 361 313 361
c224 0 281 -217 281 -367c0 -371 -249 -569 -486 -569z" />
    <glyph glyph-name="Ograve" unicode="&#xd2;" horiz-adv-x="898" 
d="M586 825c-78 0 -166 140 -166 201c0 24 34 40 77 40c30 0 57 -9 74 -22c6 -30 10 -96 79 -189c-11 -9 -39 -30 -64 -30zM397 -156c-219 0 -348 151 -348 393c0 164 90 461 236 461c31 0 58 -17 67 -42c-81 -73 -142 -227 -142 -404c0 -193 70 -319 189 -319
c179 0 322 209 322 498c0 159 -50 264 -138 264c-84 0 -156 -88 -156 -196c0 -81 45 -136 117 -134c-15 -72 -65 -119 -125 -119c-81 0 -130 69 -130 173c0 155 113 361 313 361c224 0 281 -217 281 -367c0 -371 -249 -569 -486 -569z" />
    <glyph glyph-name="Ohungarumlaut" unicode="&#x150;" horiz-adv-x="898" 
d="M606 827c-26 0 -49 21 -57 30c92 93 112 159 125 189c20 13 50 22 79 22c40 0 69 -14 69 -33c0 -53 -134 -208 -216 -208zM415 824c-26 0 -49 21 -58 30c92 93 112 159 126 189c20 13 50 22 79 22c40 0 69 -14 69 -33c0 -53 -134 -208 -216 -208zM397 -156
c-219 0 -348 151 -348 393c0 164 90 461 236 461c31 0 58 -17 67 -42c-81 -73 -142 -227 -142 -404c0 -193 70 -319 189 -319c179 0 322 209 322 498c0 159 -50 264 -138 264c-84 0 -156 -88 -156 -196c0 -81 45 -136 117 -134c-15 -72 -65 -119 -125 -119
c-81 0 -130 69 -130 173c0 155 113 361 313 361c224 0 281 -217 281 -367c0 -371 -249 -569 -486 -569z" />
    <glyph glyph-name="Omacron" unicode="&#x14c;" horiz-adv-x="898" 
d="M712 824c-33 5 -56 7 -87 7c-22 0 -49 0 -85 -2c-40 -2 -73 -3 -101 -3c-82 0 -115 15 -115 53c0 18 8 35 18 47c40 -4 158 -3 207 -3c41 0 82 4 116 4c53 0 77 -12 77 -39c0 -20 -13 -47 -30 -64zM397 -156c-219 0 -348 151 -348 393c0 164 90 461 236 461
c31 0 58 -17 67 -42c-81 -73 -142 -227 -142 -404c0 -193 70 -319 189 -319c179 0 322 209 322 498c0 159 -50 264 -138 264c-84 0 -156 -88 -156 -196c0 -81 45 -136 117 -134c-15 -72 -65 -119 -125 -119c-81 0 -130 69 -130 173c0 155 113 361 313 361
c224 0 281 -217 281 -367c0 -371 -249 -569 -486 -569z" />
    <glyph glyph-name="Oslash" unicode="&#xd8;" horiz-adv-x="898" 
d="M887 721c0 -4 -20 -33 -55 -78c38 -71 51 -158 51 -230c0 -371 -249 -569 -486 -569c-71 0 -133 16 -184 46c-44 -52 -67 -81 -56 -74l5 -9c-66 35 -92 60 -92 92c0 8 20 34 53 74c-48 66 -74 156 -74 264c0 164 90 461 236 461c31 0 58 -17 67 -42
c-81 -73 -142 -227 -142 -404c0 -59 6 -111 19 -156c42 48 89 103 138 161c-49 23 -78 82 -78 162c0 155 113 361 313 361c63 0 112 -17 151 -45c22 29 36 50 41 59c53 -6 90 -37 93 -73zM583 695c-84 0 -156 -88 -156 -196c0 -50 17 -91 48 -113c72 87 144 177 202 251
c-23 37 -55 58 -94 58zM721 431c0 23 -1 45 -3 66c-67 -85 -148 -184 -227 -280c-73 -87 -143 -170 -201 -237c29 -31 66 -47 109 -47c179 0 322 209 322 498z" />
    <glyph glyph-name="Otilde" unicode="&#xd5;" horiz-adv-x="898" 
d="M608 845c-70 0 -119 58 -149 58c-15 0 -38 -22 -53 -52c-46 -3 -75 15 -75 45c0 51 72 107 136 107c73 0 119 -58 148 -58c19 0 41 33 55 52c46 2 76 -14 76 -40c0 -40 -65 -112 -138 -112zM397 -156c-219 0 -348 151 -348 393c0 164 90 461 236 461c31 0 58 -17 67 -42
c-81 -73 -142 -227 -142 -404c0 -193 70 -319 189 -319c179 0 322 209 322 498c0 159 -50 264 -138 264c-84 0 -156 -88 -156 -196c0 -81 45 -136 117 -134c-15 -72 -65 -119 -125 -119c-81 0 -130 69 -130 173c0 155 113 361 313 361c224 0 281 -217 281 -367
c0 -371 -249 -569 -486 -569z" />
    <glyph glyph-name="OE" unicode="&#x152;" horiz-adv-x="1443" 
d="M1340 834c74 -17 112 -55 105 -106c-11 -90 -189 -85 -298 -85c-140 0 -197 15 -220 -72c-9 -36 -21 -99 -30 -157c-1 -10 -1 -19 -2 -29c144 1 338 37 358 104c58 -19 89 -54 84 -94c-15 -126 -289 -111 -458 -127c-4 -23 -10 -45 -17 -67c-31 -181 -13 -246 59 -246
c117 0 269 132 381 132c52 0 84 -28 84 -72c0 -41 -26 -88 -71 -129c-144 32 -197 -45 -402 -45c-126 0 -199 29 -232 97c-85 -66 -186 -99 -285 -99c-226 0 -359 154 -359 399c0 163 90 465 248 465c37 0 70 -20 79 -47c-64 -55 -119 -182 -136 -320
c-29 -238 41 -398 171 -398c124 0 233 110 284 294c9 52 19 108 28 162c2 26 3 52 3 79c0 129 -27 217 -96 217c-77 0 -137 -70 -137 -177c0 -85 45 -151 117 -142c-15 -79 -70 -130 -139 -130c-89 0 -140 83 -140 192c0 155 107 352 318 352c73 0 126 -24 165 -60
c121 65 348 39 429 50c37 5 89 26 109 59z" />
    <glyph glyph-name="P" unicode="P" horiz-adv-x="946" 
d="M590 803c239 0 410 -120 410 -281c0 -185 -220 -398 -574 -398h-11c-11 -49 -19 -105 -19 -175c0 -49 7 -96 20 -123c-33 -9 -90 -16 -117 -13c-61 3 -80 44 -80 94c0 43 28 134 58 233c-34 10 -88 31 -88 67c0 50 47 59 86 85c7 -17 18 -33 35 -46c26 87 48 169 48 218
c0 33 -7 66 -26 91c29 29 61 42 90 42c47 0 85 -35 85 -93c0 -125 -36 -203 -67 -295c182 3 376 111 376 306c0 118 -105 195 -278 195c-132 0 -295 -64 -295 -169c0 -37 23 -52 44 -67c-15 -33 -61 -57 -107 -57c-58 0 -99 43 -99 101c0 107 177 285 509 285z" />
    <glyph glyph-name="Thorn" unicode="&#xde;" horiz-adv-x="885" 
d="M332 -13h-15v-25c0 -52 5 -104 17 -134c-33 -10 -90 -18 -117 -15c-131 10 -66 195 -32 316c24 86 50 177 83 314l6 24c-65 -25 -114 -66 -114 -117c0 -25 13 -41 42 -58c-15 -29 -58 -50 -100 -50c-55 0 -94 38 -94 88c0 72 96 179 280 226c1 10 1 19 1 27
c0 37 -7 60 -25 87c48 47 131 59 155 21c12 -16 20 -46 20 -76c0 -13 0 -26 -1 -38c13 1 27 1 41 1c225 0 385 -104 385 -246c0 -160 -203 -345 -532 -345zM432 496h-2c-24 -154 -91 -245 -109 -435h16c158 0 353 83 353 247c5 115 -87 188 -258 188z" />
    <glyph glyph-name="Q" unicode="Q" horiz-adv-x="900" 
d="M943 -127c26 -123 -28 -209 -129 -209c-109 0 -262 153 -388 181c-10 -1 -19 -1 -28 -1c-229 0 -362 153 -362 403c0 175 97 450 246 450c30 0 53 -16 59 -41c-75 -66 -153 -252 -153 -422c0 -191 74 -301 210 -301c193 0 312 254 312 485c0 151 -42 247 -110 247
c-41 0 -90 -47 -119 -122c-69 -9 -116 26 -116 82c0 69 86 151 210 151c186 0 292 -134 292 -361c0 -208 -90 -427 -267 -522c63 -28 123 -59 220 -59c30 0 76 10 123 39z" />
    <glyph glyph-name="R" unicode="R" horiz-adv-x="883" 
d="M728 125c102 -175 175 -258 235 -272c-26 -81 -84 -128 -144 -117c-106 24 -160 214 -217 329c-25 51 -47 100 -71 128c-47 -8 -98 -13 -152 -13h-4c-20 -62 -35 -134 -35 -231c0 -49 7 -96 20 -123c-34 -9 -88 -16 -117 -13c-130 8 -70 169 -37 274c10 34 22 68 33 107
c-61 16 -94 38 -94 64c0 45 39 62 70 84c9 -17 28 -32 53 -43l15 60c14 47 20 95 20 120c0 31 -8 52 -26 76c23 23 118 65 153 19c14 -14 21 -41 21 -68c0 -95 -20 -162 -43 -229c173 6 350 84 350 261c0 110 -104 180 -274 180c-129 0 -288 -59 -288 -153
c0 -33 23 -48 45 -62c-15 -30 -72 -59 -115 -59c-57 0 -91 30 -91 80c0 116 173 279 499 279c236 0 405 -110 405 -259c0 -115 -100 -243 -275 -313c15 -22 35 -56 64 -106z" />
    <glyph glyph-name="Racute" unicode="&#x154;" horiz-adv-x="883" 
d="M738 1033c0 -53 -134 -208 -216 -208c-26 0 -49 21 -58 30c93 93 112 159 126 189c20 13 50 22 79 22c40 0 69 -14 69 -33zM728 125c102 -175 175 -258 235 -272c-26 -81 -84 -128 -144 -117c-106 24 -160 214 -217 329c-25 51 -47 100 -71 128c-47 -8 -98 -13 -152 -13
h-4c-20 -62 -35 -134 -35 -231c0 -49 7 -96 20 -123c-34 -9 -88 -16 -117 -13c-130 8 -70 169 -37 274c10 34 22 68 33 107c-61 16 -94 38 -94 64c0 45 39 62 70 84c9 -17 28 -32 53 -43l15 60c14 47 20 95 20 120c0 31 -8 52 -26 76c23 23 118 65 153 19
c14 -14 21 -41 21 -68c0 -95 -20 -162 -43 -229c173 6 350 84 350 261c0 110 -104 180 -274 180c-129 0 -288 -59 -288 -153c0 -33 23 -48 45 -62c-15 -30 -72 -59 -115 -59c-57 0 -91 30 -91 80c0 116 173 279 499 279c236 0 405 -110 405 -259c0 -115 -100 -243 -275 -313
c15 -22 35 -56 64 -106z" />
    <glyph glyph-name="Rcaron" unicode="&#x158;" horiz-adv-x="883" 
d="M553 826c-43 0 -85 42 -190 186c22 35 43 51 70 51c51 0 112 -69 142 -120c65 79 116 120 156 120c26 0 44 -16 57 -51c-140 -144 -192 -186 -235 -186zM728 125c102 -175 175 -258 235 -272c-26 -81 -84 -128 -144 -117c-106 24 -160 214 -217 329
c-25 51 -47 100 -71 128c-47 -8 -98 -13 -152 -13h-4c-20 -62 -35 -134 -35 -231c0 -49 7 -96 20 -123c-34 -9 -88 -16 -117 -13c-130 8 -70 169 -37 274c10 34 22 68 33 107c-61 16 -94 38 -94 64c0 45 39 62 70 84c9 -17 28 -32 53 -43l15 60c14 47 20 95 20 120
c0 31 -8 52 -26 76c23 23 118 65 153 19c14 -14 21 -41 21 -68c0 -95 -20 -162 -43 -229c173 6 350 84 350 261c0 110 -104 180 -274 180c-129 0 -288 -59 -288 -153c0 -33 23 -48 45 -62c-15 -30 -72 -59 -115 -59c-57 0 -91 30 -91 80c0 116 173 279 499 279
c236 0 405 -110 405 -259c0 -115 -100 -243 -275 -313c15 -22 35 -56 64 -106z" />
    <glyph glyph-name="Rcommaaccent" unicode="&#x156;" horiz-adv-x="883" 
d="M728 125c102 -175 175 -258 235 -272c-26 -81 -84 -128 -144 -117c-106 24 -160 214 -217 329c-25 51 -47 100 -71 128c-47 -8 -98 -13 -152 -13h-4c-20 -62 -35 -134 -35 -231c0 -49 7 -96 20 -123c-34 -9 -88 -16 -117 -13c-130 8 -70 169 -37 274c10 34 22 68 33 107
c-61 16 -94 38 -94 64c0 45 39 62 70 84c9 -17 28 -32 53 -43l15 60c14 47 20 95 20 120c0 31 -8 52 -26 76c23 23 118 65 153 19c14 -14 21 -41 21 -68c0 -95 -20 -162 -43 -229c173 6 350 84 350 261c0 110 -104 180 -274 180c-129 0 -288 -59 -288 -153
c0 -33 23 -48 45 -62c-15 -30 -72 -59 -115 -59c-57 0 -91 30 -91 80c0 116 173 279 499 279c236 0 405 -110 405 -259c0 -115 -100 -243 -275 -313c15 -22 35 -56 64 -106zM522 -220c40 0 66 -31 66 -77c0 -64 -86 -160 -137 -160c-18 0 -33 13 -36 33c27 25 45 41 54 70
c-23 13 -35 33 -35 57c0 46 38 77 88 77z" />
    <glyph glyph-name="S" unicode="S" horiz-adv-x="885" 
d="M390 -199c-158 0 -291 41 -291 119c0 30 17 58 55 90c71 -51 158 -104 285 -104c120 0 236 67 236 140c0 85 -153 99 -304 152c-173 61 -252 142 -252 256c0 228 234 334 473 334c154 0 343 -61 343 -155c0 -59 -96 -91 -146 -85c-2 32 -73 149 -234 149
c-134 0 -279 -82 -279 -183c0 -99 113 -142 237 -182c153 -50 323 -97 323 -242c0 -189 -243 -289 -446 -289z" />
    <glyph glyph-name="Sacute" unicode="&#x15a;" horiz-adv-x="885" 
d="M556 825c-26 0 -49 21 -58 30c93 93 112 159 126 189c20 13 50 22 79 22c40 0 69 -14 69 -33c0 -53 -134 -208 -216 -208zM390 -199c-158 0 -291 41 -291 119c0 30 17 58 55 90c71 -51 158 -104 285 -104c120 0 236 67 236 140c0 85 -153 99 -304 152
c-173 61 -252 142 -252 256c0 228 234 334 473 334c154 0 343 -61 343 -155c0 -59 -96 -91 -146 -85c-2 32 -73 149 -234 149c-134 0 -279 -82 -279 -183c0 -99 113 -142 237 -182c153 -50 323 -97 323 -242c0 -189 -243 -289 -446 -289z" />
    <glyph glyph-name="Scaron" unicode="&#x160;" horiz-adv-x="885" 
d="M587 826c-43 0 -85 42 -190 186c22 35 43 51 70 51c51 0 112 -69 142 -120c65 79 116 120 156 120c26 0 44 -16 57 -51c-140 -144 -192 -186 -235 -186zM390 -199c-158 0 -291 41 -291 119c0 30 17 58 55 90c71 -51 158 -104 285 -104c120 0 236 67 236 140
c0 85 -153 99 -304 152c-173 61 -252 142 -252 256c0 228 234 334 473 334c154 0 343 -61 343 -155c0 -59 -96 -91 -146 -85c-2 32 -73 149 -234 149c-134 0 -279 -82 -279 -183c0 -99 113 -142 237 -182c153 -50 323 -97 323 -242c0 -189 -243 -289 -446 -289z" />
    <glyph glyph-name="Scedilla" unicode="&#x15e;" horiz-adv-x="885" 
d="M555 697c-134 0 -279 -82 -279 -183c0 -99 113 -142 237 -182c153 -50 323 -97 323 -242c0 -163 -180 -259 -359 -283l-19 -31c50 -7 71 -38 71 -78c0 -66 -67 -121 -150 -121c-54 0 -86 28 -86 56c0 17 12 39 42 46c11 -15 24 -21 36 -21c19 0 35 16 35 41
s-21 39 -49 39l4 30l15 33c-152 2 -277 43 -277 119c0 30 17 58 55 90c71 -51 158 -104 285 -104c120 0 236 67 236 140c0 85 -153 99 -304 152c-173 61 -252 142 -252 256c0 228 234 334 473 334c154 0 343 -61 343 -155c0 -59 -96 -91 -146 -85c-2 32 -73 149 -234 149z
" />
    <glyph glyph-name="Scommaaccent" unicode="&#x218;" horiz-adv-x="885" 
d="M390 -199c-158 0 -291 41 -291 119c0 30 17 58 55 90c71 -51 158 -104 285 -104c120 0 236 67 236 140c0 85 -153 99 -304 152c-173 61 -252 142 -252 256c0 228 234 334 473 334c154 0 343 -61 343 -155c0 -59 -96 -91 -146 -85c-2 32 -73 149 -234 149
c-134 0 -279 -82 -279 -183c0 -99 113 -142 237 -182c153 -50 323 -97 323 -242c0 -189 -243 -289 -446 -289zM447 -465c-18 0 -33 13 -36 33c27 25 45 41 54 70c-23 13 -35 33 -35 57c0 46 38 77 88 77c40 0 66 -31 66 -77c0 -64 -86 -160 -137 -160z" />
    <glyph glyph-name="T" unicode="T" horiz-adv-x="699" 
d="M1025 882c46 -15 74 -42 74 -70c0 -87 -210 -82 -323 -83c-32 0 -62 -1 -91 -2c-44 -117 -111 -340 -142 -538c-24 -153 -23 -265 1 -326c-3 -10 -61 -23 -101 -23c-64 0 -102 39 -102 103c0 36 4 75 11 121c31 202 114 510 195 656c-170 -15 -261 -49 -261 -108
c0 -23 13 -39 42 -56c-24 -29 -74 -50 -117 -50c-64 0 -105 38 -105 94c0 113 151 195 394 222c173 19 313 6 434 19c49 5 70 15 91 41z" />
    <glyph glyph-name="Tbar" unicode="&#x166;" horiz-adv-x="699" 
d="M1025 882c46 -15 74 -42 74 -70c0 -87 -210 -82 -323 -83c-32 0 -62 -1 -91 -2c-30 -82 -73 -216 -106 -356c86 0 168 -4 168 -54c0 -22 -16 -50 -37 -66c-54 8 -90 10 -154 10c-5 -24 -9 -48 -13 -72c-24 -153 -23 -265 1 -326c-3 -10 -61 -23 -101 -23
c-64 0 -102 39 -102 103c0 36 4 75 11 121c9 59 23 127 39 198c-103 2 -154 13 -154 58c0 15 11 36 23 52c53 -1 82 -2 159 -2c37 136 82 268 128 350c-170 -15 -261 -49 -261 -108c0 -23 13 -39 42 -56c-24 -29 -74 -50 -117 -50c-64 0 -105 38 -105 94
c0 113 151 195 394 222c173 19 313 6 434 19c49 5 70 15 91 41z" />
    <glyph glyph-name="Tcaron" unicode="&#x164;" horiz-adv-x="699" 
d="M622 851c-43 0 -85 42 -190 186c22 35 43 51 70 51c51 0 112 -69 142 -120c65 79 116 120 156 120c26 0 44 -16 57 -51c-140 -144 -192 -186 -235 -186zM1025 882c46 -15 74 -42 74 -70c0 -87 -210 -82 -323 -83c-32 0 -62 -1 -91 -2c-44 -117 -111 -340 -142 -538
c-24 -153 -23 -265 1 -326c-3 -10 -61 -23 -101 -23c-64 0 -102 39 -102 103c0 36 4 75 11 121c31 202 114 510 195 656c-170 -15 -261 -49 -261 -108c0 -23 13 -39 42 -56c-24 -29 -74 -50 -117 -50c-64 0 -105 38 -105 94c0 113 151 195 394 222c173 19 313 6 434 19
c49 5 70 15 91 41z" />
    <glyph glyph-name="uni0162" unicode="&#x162;" horiz-adv-x="699" 
d="M1025 882c46 -15 74 -42 74 -70c0 -87 -210 -82 -323 -83c-32 0 -62 -1 -91 -2c-44 -117 -111 -340 -142 -538c-24 -153 -23 -265 1 -326c-2 -8 -38 -17 -72 -21l-12 -20c50 -7 71 -38 71 -78c0 -66 -67 -121 -150 -121c-54 0 -86 28 -86 56c0 17 12 39 42 46
c11 -15 24 -21 36 -21c19 0 35 16 35 41s-21 39 -49 39l4 30l19 42c-26 17 -41 47 -41 87c0 36 4 75 11 121c31 202 114 510 195 656c-170 -15 -261 -49 -261 -108c0 -23 13 -39 42 -56c-24 -29 -74 -50 -117 -50c-64 0 -105 38 -105 94c0 113 151 195 394 222
c173 19 313 6 434 19c49 5 70 15 91 41z" />
    <glyph glyph-name="uni021A" unicode="&#x21a;" horiz-adv-x="699" 
d="M1025 882c46 -15 74 -42 74 -70c0 -87 -210 -82 -323 -83c-32 0 -62 -1 -91 -2c-44 -117 -111 -340 -142 -538c-24 -153 -23 -265 1 -326c-3 -10 -61 -23 -101 -23c-64 0 -102 39 -102 103c0 36 4 75 11 121c31 202 114 510 195 656c-170 -15 -261 -49 -261 -108
c0 -23 13 -39 42 -56c-24 -29 -74 -50 -117 -50c-64 0 -105 38 -105 94c0 113 151 195 394 222c173 19 313 6 434 19c49 5 70 15 91 41zM520 -182c40 0 66 -31 66 -77c0 -64 -86 -160 -137 -160c-18 0 -33 13 -36 33c27 25 45 41 54 70c-23 13 -35 33 -35 57
c0 46 38 77 88 77z" />
    <glyph glyph-name="U" unicode="U" horiz-adv-x="871" 
d="M926 724c-31 -60 -143 -248 -143 -537c0 -138 21 -198 53 -251c-30 -28 -64 -51 -111 -51c-38 0 -76 18 -91 63c-10 30 -13 74 -12 127c-103 -147 -238 -266 -352 -266c-156 0 -225 151 -185 401c24 148 65 291 82 408c8 57 1 79 -8 109c21 30 69 50 119 50
s79 -33 79 -89c0 -96 -85 -291 -117 -502c-25 -165 -6 -247 54 -247c117 0 310 266 377 500c21 98 46 188 68 244c19 49 64 70 108 70c30 0 60 -10 79 -29z" />
    <glyph glyph-name="Uacute" unicode="&#xda;" horiz-adv-x="871" 
d="M750 995c0 -53 -134 -208 -216 -208c-26 0 -49 21 -58 30c93 93 112 159 126 189c20 13 50 22 79 22c40 0 69 -14 69 -33zM926 724c-31 -60 -143 -248 -143 -537c0 -138 21 -198 53 -251c-30 -28 -64 -51 -111 -51c-38 0 -76 18 -91 63c-10 30 -13 74 -12 127
c-103 -147 -238 -266 -352 -266c-156 0 -225 151 -185 401c24 148 65 291 82 408c8 57 1 79 -8 109c21 30 69 50 119 50s79 -33 79 -89c0 -96 -85 -291 -117 -502c-25 -165 -6 -247 54 -247c117 0 310 266 377 500c21 98 46 188 68 244c19 49 64 70 108 70
c30 0 60 -10 79 -29z" />
    <glyph glyph-name="Ucircumflex" unicode="&#xdb;" horiz-adv-x="871" 
d="M420 786c-27 0 -45 16 -58 51c141 144 193 186 236 186s84 -42 190 -186c-22 -35 -44 -51 -70 -51c-41 0 -92 48 -134 120c-58 -71 -122 -120 -164 -120zM926 724c-31 -60 -143 -248 -143 -537c0 -138 21 -198 53 -251c-30 -28 -64 -51 -111 -51c-38 0 -76 18 -91 63
c-10 30 -13 74 -12 127c-103 -147 -238 -266 -352 -266c-156 0 -225 151 -185 401c24 148 65 291 82 408c8 57 1 79 -8 109c21 30 69 50 119 50s79 -33 79 -89c0 -96 -85 -291 -117 -502c-25 -165 -6 -247 54 -247c117 0 310 266 377 500c21 98 46 188 68 244
c19 49 64 70 108 70c30 0 60 -10 79 -29z" />
    <glyph glyph-name="Udieresis" unicode="&#xdc;" horiz-adv-x="871" 
d="M466 807c-44 0 -72 26 -72 65c0 50 44 88 100 88c45 0 75 -27 75 -66c0 -50 -45 -87 -103 -87zM662 807c-44 0 -72 26 -72 65c0 50 44 88 100 88c45 0 75 -27 75 -66c0 -50 -45 -87 -103 -87zM926 724c-31 -60 -143 -248 -143 -537c0 -138 21 -198 53 -251
c-30 -28 -64 -51 -111 -51c-38 0 -76 18 -91 63c-10 30 -13 74 -12 127c-103 -147 -238 -266 -352 -266c-156 0 -225 151 -185 401c24 148 65 291 82 408c8 57 1 79 -8 109c21 30 69 50 119 50s79 -33 79 -89c0 -96 -85 -291 -117 -502c-25 -165 -6 -247 54 -247
c117 0 310 266 377 500c21 98 46 188 68 244c19 49 64 70 108 70c30 0 60 -10 79 -29z" />
    <glyph glyph-name="Ugrave" unicode="&#xd9;" horiz-adv-x="871" 
d="M629 787c-78 0 -166 140 -166 201c0 24 34 40 77 40c30 0 57 -9 74 -22c6 -30 10 -96 79 -189c-11 -9 -39 -30 -64 -30zM926 724c-31 -60 -143 -248 -143 -537c0 -138 21 -198 53 -251c-30 -28 -64 -51 -111 -51c-38 0 -76 18 -91 63c-10 30 -13 74 -12 127
c-103 -147 -238 -266 -352 -266c-156 0 -225 151 -185 401c24 148 65 291 82 408c8 57 1 79 -8 109c21 30 69 50 119 50s79 -33 79 -89c0 -96 -85 -291 -117 -502c-25 -165 -6 -247 54 -247c117 0 310 266 377 500c21 98 46 188 68 244c19 49 64 70 108 70
c30 0 60 -10 79 -29z" />
    <glyph glyph-name="Uhungarumlaut" unicode="&#x170;" horiz-adv-x="871" 
d="M649 789c-26 0 -49 21 -57 30c92 93 112 159 125 189c20 13 50 22 79 22c40 0 69 -14 69 -33c0 -53 -134 -208 -216 -208zM674 994c0 -53 -134 -208 -216 -208c-26 0 -49 21 -58 30c92 93 112 159 126 189c20 13 50 22 79 22c40 0 69 -14 69 -33zM926 724
c-31 -60 -143 -248 -143 -537c0 -138 21 -198 53 -251c-30 -28 -64 -51 -111 -51c-38 0 -76 18 -91 63c-10 30 -13 74 -12 127c-103 -147 -238 -266 -352 -266c-156 0 -225 151 -185 401c24 148 65 291 82 408c8 57 1 79 -8 109c21 30 69 50 119 50s79 -33 79 -89
c0 -96 -85 -291 -117 -502c-25 -165 -6 -247 54 -247c117 0 310 266 377 500c21 98 46 188 68 244c19 49 64 70 108 70c30 0 60 -10 79 -29z" />
    <glyph glyph-name="Umacron" unicode="&#x16a;" horiz-adv-x="871" 
d="M482 788c-82 0 -115 15 -115 53c0 18 8 35 18 47c40 -4 158 -3 207 -3c41 0 82 4 116 4c53 0 77 -12 77 -39c0 -20 -13 -47 -30 -64c-33 5 -56 7 -87 7c-22 0 -49 0 -85 -2c-40 -2 -73 -3 -101 -3zM926 724c-31 -60 -143 -248 -143 -537c0 -138 21 -198 53 -251
c-30 -28 -64 -51 -111 -51c-38 0 -76 18 -91 63c-10 30 -13 74 -12 127c-103 -147 -238 -266 -352 -266c-156 0 -225 151 -185 401c24 148 65 291 82 408c8 57 1 79 -8 109c21 30 69 50 119 50s79 -33 79 -89c0 -96 -85 -291 -117 -502c-25 -165 -6 -247 54 -247
c117 0 310 266 377 500c21 98 46 188 68 244c19 49 64 70 108 70c30 0 60 -10 79 -29z" />
    <glyph glyph-name="Uogonek" unicode="&#x172;" horiz-adv-x="871" 
d="M777 -105c-48 -42 -76 -73 -76 -103c0 -17 6 -26 18 -26c14 0 33 8 55 24c23 -7 34 -20 34 -38c0 -38 -58 -72 -115 -72c-70 0 -118 40 -118 96c0 63 52 103 93 125c-15 10 -27 26 -34 47c-10 30 -13 74 -12 127c-103 -147 -238 -266 -352 -266c-156 0 -225 151 -185 401
c24 148 65 291 82 408c8 57 1 79 -8 109c21 30 69 50 119 50s79 -33 79 -89c0 -96 -85 -291 -117 -502c-25 -165 -6 -247 54 -247c117 0 310 266 377 500c21 98 46 188 68 244c19 49 64 70 108 70c30 0 60 -10 79 -29c-31 -60 -143 -248 -143 -537c0 -138 21 -198 53 -251
c-18 -17 -37 -31 -59 -41z" />
    <glyph glyph-name="Uring" unicode="&#x16e;" horiz-adv-x="871" 
d="M567 797c-65 0 -108 40 -108 97c0 70 61 121 136 121c64 0 107 -40 107 -97c0 -70 -60 -121 -135 -121zM587 956c-18 0 -32 -24 -32 -63c0 -24 7 -37 18 -37c19 0 32 25 32 64c0 23 -7 36 -18 36zM926 724c-31 -60 -143 -248 -143 -537c0 -138 21 -198 53 -251
c-30 -28 -64 -51 -111 -51c-38 0 -76 18 -91 63c-10 30 -13 74 -12 127c-103 -147 -238 -266 -352 -266c-156 0 -225 151 -185 401c24 148 65 291 82 408c8 57 1 79 -8 109c21 30 69 50 119 50s79 -33 79 -89c0 -96 -85 -291 -117 -502c-25 -165 -6 -247 54 -247
c117 0 310 266 377 500c21 98 46 188 68 244c19 49 64 70 108 70c30 0 60 -10 79 -29z" />
    <glyph glyph-name="V" unicode="V" horiz-adv-x="911" 
d="M416 -192c-40 0 -115 85 -123 121c-21 127 -23 203 -53 392c-28 176 -66 252 -149 299c9 60 54 99 114 99c195 0 200 -406 234 -716c2 -27 8 -42 20 -51c109 44 323 333 323 611c0 102 -26 195 -78 254c38 17 57 33 98 33c115 0 141 -146 141 -244
c0 -372 -379 -798 -527 -798z" />
    <glyph glyph-name="W" unicode="W" horiz-adv-x="1087" 
d="M980 871c120 0 152 -89 118 -335c-30 -219 -164 -661 -440 -661c-203 0 -196 343 -207 484c-17 -72 -42 -159 -67 -233c-46 -165 -144 -285 -236 -285c-82 0 -125 50 -125 178c0 134 34 283 34 381c0 52 -8 122 -36 151c50 29 110 92 169 92c44 0 64 -35 64 -105
c0 -120 -85 -381 -85 -480c0 -37 10 -65 23 -65c43 0 145 196 183 510c12 100 138 139 168 139c46 0 52 -39 54 -77c7 -169 -69 -553 73 -553c18 0 246 46 246 560c0 102 -11 237 -31 288c32 7 66 11 95 11z" />
    <glyph glyph-name="Wacute" unicode="&#x1e82;" horiz-adv-x="1087" 
d="M711 962c0 -53 -134 -208 -216 -208c-26 0 -49 21 -58 30c93 93 112 159 126 189c20 13 50 22 79 22c40 0 69 -14 69 -33zM980 871c120 0 152 -89 118 -335c-30 -219 -164 -661 -440 -661c-203 0 -196 343 -207 484c-17 -72 -42 -159 -67 -233
c-46 -165 -144 -285 -236 -285c-82 0 -125 50 -125 178c0 134 34 283 34 381c0 52 -8 122 -36 151c50 29 110 92 169 92c44 0 64 -35 64 -105c0 -120 -85 -381 -85 -480c0 -37 10 -65 23 -65c43 0 145 196 183 510c12 100 138 139 168 139c46 0 52 -39 54 -77
c7 -169 -69 -553 73 -553c18 0 246 46 246 560c0 102 -11 237 -31 288c32 7 66 11 95 11z" />
    <glyph glyph-name="Wcircumflex" unicode="&#x174;" horiz-adv-x="1087" 
d="M381 753c-27 0 -45 16 -58 51c141 144 193 186 236 186s84 -42 190 -186c-22 -35 -44 -51 -70 -51c-41 0 -92 48 -134 120c-58 -71 -122 -120 -164 -120zM980 871c120 0 152 -89 118 -335c-30 -219 -164 -661 -440 -661c-203 0 -196 343 -207 484
c-17 -72 -42 -159 -67 -233c-46 -165 -144 -285 -236 -285c-82 0 -125 50 -125 178c0 134 34 283 34 381c0 52 -8 122 -36 151c50 29 110 92 169 92c44 0 64 -35 64 -105c0 -120 -85 -381 -85 -480c0 -37 10 -65 23 -65c43 0 145 196 183 510c12 100 138 139 168 139
c46 0 52 -39 54 -77c7 -169 -69 -553 73 -553c18 0 246 46 246 560c0 102 -11 237 -31 288c32 7 66 11 95 11z" />
    <glyph glyph-name="Wdieresis" unicode="&#x1e84;" horiz-adv-x="1087" 
d="M427 774c-44 0 -72 26 -72 65c0 50 44 88 100 88c45 0 75 -27 75 -66c0 -50 -45 -87 -103 -87zM623 774c-44 0 -72 26 -72 65c0 50 44 88 100 88c45 0 75 -27 75 -66c0 -50 -45 -87 -103 -87zM980 871c120 0 152 -89 118 -335c-30 -219 -164 -661 -440 -661
c-203 0 -196 343 -207 484c-17 -72 -42 -159 -67 -233c-46 -165 -144 -285 -236 -285c-82 0 -125 50 -125 178c0 134 34 283 34 381c0 52 -8 122 -36 151c50 29 110 92 169 92c44 0 64 -35 64 -105c0 -120 -85 -381 -85 -480c0 -37 10 -65 23 -65c43 0 145 196 183 510
c12 100 138 139 168 139c46 0 52 -39 54 -77c7 -169 -69 -553 73 -553c18 0 246 46 246 560c0 102 -11 237 -31 288c32 7 66 11 95 11z" />
    <glyph glyph-name="Wgrave" unicode="&#x1e80;" horiz-adv-x="1087" 
d="M590 754c-78 0 -166 140 -166 201c0 24 34 40 77 40c30 0 57 -9 74 -22c6 -30 10 -96 79 -189c-11 -9 -39 -30 -64 -30zM980 871c120 0 152 -89 118 -335c-30 -219 -164 -661 -440 -661c-203 0 -196 343 -207 484c-17 -72 -42 -159 -67 -233
c-46 -165 -144 -285 -236 -285c-82 0 -125 50 -125 178c0 134 34 283 34 381c0 52 -8 122 -36 151c50 29 110 92 169 92c44 0 64 -35 64 -105c0 -120 -85 -381 -85 -480c0 -37 10 -65 23 -65c43 0 145 196 183 510c12 100 138 139 168 139c46 0 52 -39 54 -77
c7 -169 -69 -553 73 -553c18 0 246 46 246 560c0 102 -11 237 -31 288c32 7 66 11 95 11z" />
    <glyph glyph-name="X" unicode="X" horiz-adv-x="804" 
d="M791 756c89 0 131 -63 98 -153c-38 12 -62 17 -83 17c-81 0 -153 -96 -344 -339c-3 -3 -5 -6 -8 -10c82 -170 206 -247 297 -268c4 -94 -37 -159 -100 -159c-56 0 -123 59 -199 174c-32 48 -60 95 -86 141c-42 -54 -91 -114 -149 -183c-70 -83 -117 -151 -224 -151
c-73 0 -115 75 -72 127c51 -6 77 -10 143 47c48 41 127 140 237 292c-61 138 -89 252 -89 312c0 87 76 151 160 138c-4 -123 8 -227 29 -315c172 227 293 330 390 330z" />
    <glyph glyph-name="Y" unicode="Y" horiz-adv-x="761" 
d="M595 591c18 137 84 190 209 167c-36 -64 -45 -125 -79 -405c-60 -488 -392 -529 -487 -529c-107 0 -202 41 -202 94c0 38 33 75 94 107c42 -80 109 -104 140 -104c189 0 260 163 290 360c-70 -97 -154 -154 -240 -154c-169 0 -220 157 -220 301c0 119 33 234 81 277
c37 33 102 54 189 46c-60 -91 -112 -144 -112 -369c0 -98 29 -152 82 -152c98 0 205 150 254 360z" />
    <glyph glyph-name="Yacute" unicode="&#xdd;" horiz-adv-x="761" 
d="M679 995c0 -53 -134 -208 -216 -208c-26 0 -49 21 -58 30c93 93 112 159 126 189c20 13 50 22 79 22c40 0 69 -14 69 -33zM595 591c18 137 84 190 209 167c-36 -64 -45 -125 -79 -405c-60 -488 -392 -529 -487 -529c-107 0 -202 41 -202 94c0 38 33 75 94 107
c42 -80 109 -104 140 -104c189 0 260 163 290 360c-70 -97 -154 -154 -240 -154c-169 0 -220 157 -220 301c0 119 33 234 81 277c37 33 102 54 189 46c-60 -91 -112 -144 -112 -369c0 -98 29 -152 82 -152c98 0 205 150 254 360z" />
    <glyph glyph-name="Ycircumflex" unicode="&#x176;" horiz-adv-x="761" 
d="M349 786c-27 0 -45 16 -58 51c141 144 193 186 236 186s84 -42 190 -186c-22 -35 -44 -51 -70 -51c-41 0 -92 48 -134 120c-58 -71 -122 -120 -164 -120zM595 591c18 137 84 190 209 167c-36 -64 -45 -125 -79 -405c-60 -488 -392 -529 -487 -529c-107 0 -202 41 -202 94
c0 38 33 75 94 107c42 -80 109 -104 140 -104c189 0 260 163 290 360c-70 -97 -154 -154 -240 -154c-169 0 -220 157 -220 301c0 119 33 234 81 277c37 33 102 54 189 46c-60 -91 -112 -144 -112 -369c0 -98 29 -152 82 -152c98 0 205 150 254 360z" />
    <glyph glyph-name="Ydieresis" unicode="&#x178;" horiz-adv-x="761" 
d="M395 807c-44 0 -72 26 -72 65c0 50 44 88 100 88c45 0 75 -27 75 -66c0 -50 -45 -87 -103 -87zM591 807c-44 0 -72 26 -72 65c0 50 44 88 100 88c45 0 75 -27 75 -66c0 -50 -45 -87 -103 -87zM595 591c18 137 84 190 209 167c-36 -64 -45 -125 -79 -405
c-60 -488 -392 -529 -487 -529c-107 0 -202 41 -202 94c0 38 33 75 94 107c42 -80 109 -104 140 -104c189 0 260 163 290 360c-70 -97 -154 -154 -240 -154c-169 0 -220 157 -220 301c0 119 33 234 81 277c37 33 102 54 189 46c-60 -91 -112 -144 -112 -369
c0 -98 29 -152 82 -152c98 0 205 150 254 360z" />
    <glyph glyph-name="Ygrave" unicode="&#x1ef2;" horiz-adv-x="761" 
d="M558 787c-78 0 -166 140 -166 201c0 24 34 40 77 40c30 0 57 -9 74 -22c6 -30 10 -96 79 -189c-11 -9 -39 -30 -64 -30zM595 591c18 137 84 190 209 167c-36 -64 -45 -125 -79 -405c-60 -488 -392 -529 -487 -529c-107 0 -202 41 -202 94c0 38 33 75 94 107
c42 -80 109 -104 140 -104c189 0 260 163 290 360c-70 -97 -154 -154 -240 -154c-169 0 -220 157 -220 301c0 119 33 234 81 277c37 33 102 54 189 46c-60 -91 -112 -144 -112 -369c0 -98 29 -152 82 -152c98 0 205 150 254 360z" />
    <glyph glyph-name="Z" unicode="Z" horiz-adv-x="786" 
d="M548 -157c-163 0 -402 51 -493 48c-9 20 -26 52 -26 97c0 72 27 100 180 249c116 113 245 235 383 364c-89 0 -158 4 -212 4c-84 0 -116 -12 -152 -56c-44 23 -67 53 -67 86c0 65 87 115 195 115c137 0 240 -71 305 -66c29 20 76 44 116 44c49 0 65 -29 63 -108
c5 -1 -110 -6 -452 -382c-99 -109 -153 -168 -208 -233c65 -11 201 -26 308 -26c67 0 196 28 241 54c56 -155 -51 -190 -181 -190z" />
    <glyph glyph-name="Zacute" unicode="&#x179;" horiz-adv-x="786" 
d="M507 787c-26 0 -49 21 -58 30c93 93 112 159 126 189c20 13 50 22 79 22c40 0 69 -14 69 -33c0 -53 -134 -208 -216 -208zM548 -157c-163 0 -402 51 -493 48c-9 20 -26 52 -26 97c0 72 27 100 180 249c116 113 245 235 383 364c-89 0 -158 4 -212 4
c-84 0 -116 -12 -152 -56c-44 23 -67 53 -67 86c0 65 87 115 195 115c137 0 240 -71 305 -66c29 20 76 44 116 44c49 0 65 -29 63 -108c5 -1 -110 -6 -452 -382c-99 -109 -153 -168 -208 -233c65 -11 201 -26 308 -26c67 0 196 28 241 54c56 -155 -51 -190 -181 -190z" />
    <glyph glyph-name="Zcaron" unicode="&#x17d;" horiz-adv-x="786" 
d="M538 788c-43 0 -85 42 -190 186c22 35 43 51 70 51c51 0 112 -69 142 -120c65 79 116 120 156 120c26 0 44 -16 57 -51c-140 -144 -192 -186 -235 -186zM548 -157c-163 0 -402 51 -493 48c-9 20 -26 52 -26 97c0 72 27 100 180 249c116 113 245 235 383 364
c-89 0 -158 4 -212 4c-84 0 -116 -12 -152 -56c-44 23 -67 53 -67 86c0 65 87 115 195 115c137 0 240 -71 305 -66c29 20 76 44 116 44c49 0 65 -29 63 -108c5 -1 -110 -6 -452 -382c-99 -109 -153 -168 -208 -233c65 -11 201 -26 308 -26c67 0 196 28 241 54
c56 -155 -51 -190 -181 -190z" />
    <glyph glyph-name="Zdotaccent" unicode="&#x17b;" horiz-adv-x="786" 
d="M543 809c-42 0 -70 25 -70 60c0 46 41 81 93 81c41 0 69 -25 69 -61c0 -44 -42 -80 -92 -80zM548 -157c-163 0 -402 51 -493 48c-9 20 -26 52 -26 97c0 72 27 100 180 249c116 113 245 235 383 364c-89 0 -158 4 -212 4c-84 0 -116 -12 -152 -56c-44 23 -67 53 -67 86
c0 65 87 115 195 115c137 0 240 -71 305 -66c29 20 76 44 116 44c49 0 65 -29 63 -108c5 -1 -110 -6 -452 -382c-99 -109 -153 -168 -208 -233c65 -11 201 -26 308 -26c67 0 196 28 241 54c56 -155 -51 -190 -181 -190z" />
    <glyph glyph-name="A.salt" horiz-adv-x="1724" 
d="M1705 638c0 -24 -66 -506 -66 -510c0 -99 27 -156 50 -191c-15 -18 -53 -55 -112 -55c-87 0 -129 79 -111 216c3 22 7 47 13 73c-94 -17 -216 -11 -324 5c-60 -110 -108 -222 -131 -316c-8 -35 -11 -98 -9 -138c-106 8 -177 12 -177 95c0 79 75 234 166 392
c-232 68 -380 183 -543 183c-161 0 -289 -110 -289 -259c0 -102 68 -187 157 -187c111 0 183 122 193 214c93 0 150 -48 150 -121c0 -100 -128 -228 -317 -228c-190 0 -324 132 -324 308c0 292 248 425 461 425c225 0 378 -141 587 -216c110 152 357 430 524 454
c82 -10 102 -75 102 -144zM1500 268c32 134 73 281 73 342c0 46 -13 67 -19 78c-69 -31 -212 -203 -334 -401c89 -22 185 -32 280 -19z" />
    <glyph glyph-name="Aacute.salt" horiz-adv-x="1724" 
d="M1728 1066c40 0 69 -14 69 -33c0 -53 -134 -208 -216 -208c-26 0 -49 21 -58 30c93 93 112 159 126 189c20 13 50 22 79 22zM1603 782c82 -10 102 -75 102 -144c0 -24 -66 -506 -66 -510c0 -99 27 -156 50 -191c-15 -18 -53 -55 -112 -55c-87 0 -129 79 -111 216
c3 22 7 47 13 73c-94 -17 -216 -11 -324 5c-60 -110 -108 -222 -131 -316c-8 -35 -11 -98 -9 -138c-106 8 -177 12 -177 95c0 79 75 234 166 392c-232 68 -380 183 -543 183c-161 0 -289 -110 -289 -259c0 -102 68 -187 157 -187c111 0 183 122 193 214
c93 0 150 -48 150 -121c0 -100 -128 -228 -317 -228c-190 0 -324 132 -324 308c0 292 248 425 461 425c225 0 378 -141 587 -216c110 152 357 430 524 454zM1500 268c32 134 73 281 73 342c0 46 -13 67 -19 78c-69 -31 -212 -203 -334 -401c89 -22 185 -32 280 -19z" />
    <glyph glyph-name="Abreve.salt" horiz-adv-x="1724" 
d="M1764 1052c41 0 62 -15 62 -46c0 -88 -104 -171 -212 -171c-89 0 -157 68 -157 149c0 48 24 68 77 68c26 0 52 -9 61 -20c-8 -69 6 -112 36 -112c36 0 56 36 65 112c11 11 39 20 68 20zM1603 782c82 -10 102 -75 102 -144c0 -24 -66 -506 -66 -510c0 -99 27 -156 50 -191
c-15 -18 -53 -55 -112 -55c-87 0 -129 79 -111 216c3 22 7 47 13 73c-94 -17 -216 -11 -324 5c-60 -110 -108 -222 -131 -316c-8 -35 -11 -98 -9 -138c-106 8 -177 12 -177 95c0 79 75 234 166 392c-232 68 -380 183 -543 183c-161 0 -289 -110 -289 -259
c0 -102 68 -187 157 -187c111 0 183 122 193 214c93 0 150 -48 150 -121c0 -100 -128 -228 -317 -228c-190 0 -324 132 -324 308c0 292 248 425 461 425c225 0 378 -141 587 -216c110 152 357 430 524 454zM1500 268c32 134 73 281 73 342c0 46 -13 67 -19 78
c-69 -31 -212 -203 -334 -401c89 -22 185 -32 280 -19z" />
    <glyph glyph-name="Acircumflex.salt" horiz-adv-x="1724" 
d="M1645 1061c43 0 84 -42 190 -186c-22 -35 -44 -51 -70 -51c-41 0 -92 48 -134 120c-58 -71 -122 -120 -164 -120c-27 0 -45 16 -58 51c141 144 193 186 236 186zM1603 782c82 -10 102 -75 102 -144c0 -24 -66 -506 -66 -510c0 -99 27 -156 50 -191
c-15 -18 -53 -55 -112 -55c-87 0 -129 79 -111 216c3 22 7 47 13 73c-94 -17 -216 -11 -324 5c-60 -110 -108 -222 -131 -316c-8 -35 -11 -98 -9 -138c-106 8 -177 12 -177 95c0 79 75 234 166 392c-232 68 -380 183 -543 183c-161 0 -289 -110 -289 -259
c0 -102 68 -187 157 -187c111 0 183 122 193 214c93 0 150 -48 150 -121c0 -100 -128 -228 -317 -228c-190 0 -324 132 -324 308c0 292 248 425 461 425c225 0 378 -141 587 -216c110 152 357 430 524 454zM1500 268c32 134 73 281 73 342c0 46 -13 67 -19 78
c-69 -31 -212 -203 -334 -401c89 -22 185 -32 280 -19z" />
    <glyph glyph-name="Adieresis.salt" horiz-adv-x="1724" 
d="M1513 845c-44 0 -72 26 -72 65c0 50 44 88 100 88c45 0 75 -27 75 -66c0 -50 -45 -87 -103 -87zM1737 998c45 0 75 -27 75 -66c0 -50 -45 -87 -103 -87c-44 0 -72 26 -72 65c0 50 44 88 100 88zM1603 782c82 -10 102 -75 102 -144c0 -24 -66 -506 -66 -510
c0 -99 27 -156 50 -191c-15 -18 -53 -55 -112 -55c-87 0 -129 79 -111 216c3 22 7 47 13 73c-94 -17 -216 -11 -324 5c-60 -110 -108 -222 -131 -316c-8 -35 -11 -98 -9 -138c-106 8 -177 12 -177 95c0 79 75 234 166 392c-232 68 -380 183 -543 183
c-161 0 -289 -110 -289 -259c0 -102 68 -187 157 -187c111 0 183 122 193 214c93 0 150 -48 150 -121c0 -100 -128 -228 -317 -228c-190 0 -324 132 -324 308c0 292 248 425 461 425c225 0 378 -141 587 -216c110 152 357 430 524 454zM1500 268c32 134 73 281 73 342
c0 46 -13 67 -19 78c-69 -31 -212 -203 -334 -401c89 -22 185 -32 280 -19z" />
    <glyph glyph-name="Agrave.salt" horiz-adv-x="1724" 
d="M1676 825c-78 0 -166 140 -166 201c0 24 34 40 77 40c30 0 57 -9 74 -22c6 -30 10 -96 79 -189c-11 -9 -39 -30 -64 -30zM1603 782c82 -10 102 -75 102 -144c0 -24 -66 -506 -66 -510c0 -99 27 -156 50 -191c-15 -18 -53 -55 -112 -55c-87 0 -129 79 -111 216
c3 22 7 47 13 73c-94 -17 -216 -11 -324 5c-60 -110 -108 -222 -131 -316c-8 -35 -11 -98 -9 -138c-106 8 -177 12 -177 95c0 79 75 234 166 392c-232 68 -380 183 -543 183c-161 0 -289 -110 -289 -259c0 -102 68 -187 157 -187c111 0 183 122 193 214
c93 0 150 -48 150 -121c0 -100 -128 -228 -317 -228c-190 0 -324 132 -324 308c0 292 248 425 461 425c225 0 378 -141 587 -216c110 152 357 430 524 454zM1500 268c32 134 73 281 73 342c0 46 -13 67 -19 78c-69 -31 -212 -203 -334 -401c89 -22 185 -32 280 -19z" />
    <glyph glyph-name="Amacron.salt" horiz-adv-x="1724" 
d="M1755 927c53 0 77 -12 77 -39c0 -20 -13 -47 -30 -64c-33 5 -56 7 -87 7c-22 0 -49 0 -85 -2c-40 -2 -73 -3 -101 -3c-82 0 -115 15 -115 53c0 18 8 35 18 47c40 -4 158 -3 207 -3c41 0 82 4 116 4zM1603 782c82 -10 102 -75 102 -144c0 -24 -66 -506 -66 -510
c0 -99 27 -156 50 -191c-15 -18 -53 -55 -112 -55c-87 0 -129 79 -111 216c3 22 7 47 13 73c-94 -17 -216 -11 -324 5c-60 -110 -108 -222 -131 -316c-8 -35 -11 -98 -9 -138c-106 8 -177 12 -177 95c0 79 75 234 166 392c-232 68 -380 183 -543 183
c-161 0 -289 -110 -289 -259c0 -102 68 -187 157 -187c111 0 183 122 193 214c93 0 150 -48 150 -121c0 -100 -128 -228 -317 -228c-190 0 -324 132 -324 308c0 292 248 425 461 425c225 0 378 -141 587 -216c110 152 357 430 524 454zM1500 268c32 134 73 281 73 342
c0 46 -13 67 -19 78c-69 -31 -212 -203 -334 -401c89 -22 185 -32 280 -19z" />
    <glyph glyph-name="Aogonek.salt" horiz-adv-x="1724" 
d="M1658 -195c23 -7 34 -20 34 -38c0 -38 -58 -72 -115 -72c-70 0 -118 40 -118 96c0 47 29 82 62 105c-48 29 -69 99 -55 202c3 22 7 47 13 73c-94 -17 -216 -11 -324 5c-60 -110 -108 -222 -131 -316c-8 -35 -11 -98 -9 -138c-106 8 -177 12 -177 95c0 79 75 234 166 392
c-232 68 -380 183 -543 183c-161 0 -289 -110 -289 -259c0 -102 68 -187 157 -187c111 0 183 122 193 214c93 0 150 -48 150 -121c0 -100 -128 -228 -317 -228c-190 0 -324 132 -324 308c0 292 248 425 461 425c225 0 378 -141 587 -216c110 152 357 430 524 454
c82 -10 102 -75 102 -144c0 -24 -66 -506 -66 -510c0 -99 27 -156 50 -191c-6 -7 -15 -17 -28 -26c-48 -43 -76 -74 -76 -104c0 -17 6 -26 18 -26c14 0 33 8 55 24zM1220 287c89 -22 185 -32 280 -19c32 134 73 281 73 342c0 46 -13 67 -19 78c-69 -31 -212 -203 -334 -401z
" />
    <glyph glyph-name="Aring.salt" horiz-adv-x="1724" 
d="M1642 1053c64 0 107 -40 107 -97c0 -70 -60 -121 -135 -121c-65 0 -108 40 -108 97c0 70 61 121 136 121zM1620 894c19 0 32 25 32 64c0 23 -7 36 -18 36c-18 0 -32 -24 -32 -63c0 -24 7 -37 18 -37zM1603 782c82 -10 102 -75 102 -144c0 -24 -66 -506 -66 -510
c0 -99 27 -156 50 -191c-15 -18 -53 -55 -112 -55c-87 0 -129 79 -111 216c3 22 7 47 13 73c-94 -17 -216 -11 -324 5c-60 -110 -108 -222 -131 -316c-8 -35 -11 -98 -9 -138c-106 8 -177 12 -177 95c0 79 75 234 166 392c-232 68 -380 183 -543 183
c-161 0 -289 -110 -289 -259c0 -102 68 -187 157 -187c111 0 183 122 193 214c93 0 150 -48 150 -121c0 -100 -128 -228 -317 -228c-190 0 -324 132 -324 308c0 292 248 425 461 425c225 0 378 -141 587 -216c110 152 357 430 524 454zM1500 268c32 134 73 281 73 342
c0 46 -13 67 -19 78c-69 -31 -212 -203 -334 -401c89 -22 185 -32 280 -19z" />
    <glyph glyph-name="Atilde.salt" horiz-adv-x="1724" 
d="M1760 997c46 2 76 -14 76 -40c0 -40 -65 -112 -138 -112c-70 0 -119 58 -149 58c-15 0 -38 -22 -53 -52c-46 -3 -75 15 -75 45c0 51 72 107 136 107c73 0 119 -58 148 -58c19 0 41 33 55 52zM1603 782c82 -10 102 -75 102 -144c0 -24 -66 -506 -66 -510
c0 -99 27 -156 50 -191c-15 -18 -53 -55 -112 -55c-87 0 -129 79 -111 216c3 22 7 47 13 73c-94 -17 -216 -11 -324 5c-60 -110 -108 -222 -131 -316c-8 -35 -11 -98 -9 -138c-106 8 -177 12 -177 95c0 79 75 234 166 392c-232 68 -380 183 -543 183
c-161 0 -289 -110 -289 -259c0 -102 68 -187 157 -187c111 0 183 122 193 214c93 0 150 -48 150 -121c0 -100 -128 -228 -317 -228c-190 0 -324 132 -324 308c0 292 248 425 461 425c225 0 378 -141 587 -216c110 152 357 430 524 454zM1500 268c32 134 73 281 73 342
c0 46 -13 67 -19 78c-69 -31 -212 -203 -334 -401c89 -22 185 -32 280 -19z" />
    <glyph glyph-name="B.salt" horiz-adv-x="1275" 
d="M1320 579c0 -135 -157 -233 -268 -265c115 -29 171 -122 171 -214c0 -108 -95 -248 -312 -248c-110 0 -185 50 -185 105c0 21 14 38 35 50c29 -18 64 -37 136 -37c124 0 185 91 185 174c0 67 -39 113 -100 115c-58 0 -111 -1 -153 -24c-29 10 -43 31 -43 51
c0 45 38 64 86 64c19 0 38 -3 58 -8c77 27 200 111 200 227c0 83 -71 133 -191 133c-25 0 -54 -2 -85 -6c6 -11 8 -23 7 -34c-155 -244 -229 -744 -155 -901c-15 -15 -80 -23 -109 -23c-72 0 -113 42 -115 112c-6 218 105 559 182 730c15 35 29 59 45 85
c-207 -62 -431 -203 -431 -442c0 -98 67 -184 156 -190c-12 -81 -82 -133 -174 -133c-137 0 -203 139 -203 245c0 406 508 639 911 639c276 0 352 -119 352 -205z" />
    <glyph glyph-name="C.salt" horiz-adv-x="930" 
d="M1732 812c91 -28 133 -67 133 -127c0 -142 -179 -180 -315 -180c-160 0 -385 54 -439 65c-92 19 -137 27 -169 31v-7c0 -89 -78 -203 -225 -203c-88 0 -147 44 -147 114c0 89 81 137 168 161c-15 3 -33 5 -54 5c-246 0 -429 -240 -429 -455c0 -148 83 -276 256 -276
c178 0 291 129 309 160c41 3 66 -16 66 -46c0 -85 -210 -214 -420 -214c-225 0 -399 158 -399 377c0 251 243 547 601 547c106 0 193 -28 239 -78c124 -4 415 -40 585 -40c156 0 204 31 240 166zM714 491c55 0 101 60 101 104v6c-40 -4 -70 -11 -92 -21
c-30 -13 -46 -38 -46 -58c0 -17 12 -31 37 -31z" />
    <glyph glyph-name="Cacute.salt" horiz-adv-x="930" 
d="M827 1033c0 -53 -134 -208 -216 -208c-26 0 -49 21 -58 30c93 93 112 159 126 189c20 13 50 22 79 22c40 0 69 -14 69 -33zM1732 812c91 -28 133 -67 133 -127c0 -142 -179 -180 -315 -180c-160 0 -385 54 -439 65c-92 19 -137 27 -169 31v-7c0 -89 -78 -203 -225 -203
c-88 0 -147 44 -147 114c0 89 81 137 168 161c-15 3 -33 5 -54 5c-246 0 -429 -240 -429 -455c0 -148 83 -276 256 -276c178 0 291 129 309 160c41 3 66 -16 66 -46c0 -85 -210 -214 -420 -214c-225 0 -399 158 -399 377c0 251 243 547 601 547c106 0 193 -28 239 -78
c124 -4 415 -40 585 -40c156 0 204 31 240 166zM714 491c55 0 101 60 101 104v6c-40 -4 -70 -11 -92 -21c-30 -13 -46 -38 -46 -58c0 -17 12 -31 37 -31z" />
    <glyph glyph-name="Ccaron.salt" horiz-adv-x="930" 
d="M642 826c-43 0 -85 42 -190 186c22 35 43 51 70 51c51 0 112 -69 142 -120c65 79 116 120 156 120c26 0 44 -16 57 -51c-140 -144 -192 -186 -235 -186zM1732 812c91 -28 133 -67 133 -127c0 -142 -179 -180 -315 -180c-160 0 -385 54 -439 65c-92 19 -137 27 -169 31v-7
c0 -89 -78 -203 -225 -203c-88 0 -147 44 -147 114c0 89 81 137 168 161c-15 3 -33 5 -54 5c-246 0 -429 -240 -429 -455c0 -148 83 -276 256 -276c178 0 291 129 309 160c41 3 66 -16 66 -46c0 -85 -210 -214 -420 -214c-225 0 -399 158 -399 377c0 251 243 547 601 547
c106 0 193 -28 239 -78c124 -4 415 -40 585 -40c156 0 204 31 240 166zM714 491c55 0 101 60 101 104v6c-40 -4 -70 -11 -92 -21c-30 -13 -46 -38 -46 -58c0 -17 12 -31 37 -31z" />
    <glyph glyph-name="Ccedilla.salt" horiz-adv-x="930" 
d="M1732 812c91 -28 133 -67 133 -127c0 -142 -179 -180 -315 -180c-160 0 -385 54 -439 65c-92 19 -137 27 -169 31v-7c0 -89 -78 -203 -225 -203c-88 0 -147 44 -147 114c0 89 81 137 168 161c-15 3 -33 5 -54 5c-246 0 -429 -240 -429 -455c0 -148 83 -276 256 -276
c178 0 291 129 309 160c41 3 66 -16 66 -46c0 -77 -173 -190 -361 -211l-21 -34c50 -7 71 -38 71 -78c0 -66 -67 -121 -150 -121c-54 0 -86 28 -86 56c0 17 12 39 42 46c11 -15 24 -21 36 -21c19 0 35 16 35 41s-21 39 -49 39l4 30l18 41c-205 18 -358 169 -358 375
c0 251 243 547 601 547c106 0 193 -28 239 -78c124 -4 415 -40 585 -40c156 0 204 31 240 166zM714 491c55 0 101 60 101 104v6c-40 -4 -70 -11 -92 -21c-30 -13 -46 -38 -46 -58c0 -17 12 -31 37 -31z" />
    <glyph glyph-name="Cdotaccent.salt" horiz-adv-x="930" 
d="M647 847c-42 0 -70 25 -70 60c0 46 41 81 93 81c41 0 69 -25 69 -61c0 -44 -42 -80 -92 -80zM1732 812c91 -28 133 -67 133 -127c0 -142 -179 -180 -315 -180c-160 0 -385 54 -439 65c-92 19 -137 27 -169 31v-7c0 -89 -78 -203 -225 -203c-88 0 -147 44 -147 114
c0 89 81 137 168 161c-15 3 -33 5 -54 5c-246 0 -429 -240 -429 -455c0 -148 83 -276 256 -276c178 0 291 129 309 160c41 3 66 -16 66 -46c0 -85 -210 -214 -420 -214c-225 0 -399 158 -399 377c0 251 243 547 601 547c106 0 193 -28 239 -78c124 -4 415 -40 585 -40
c156 0 204 31 240 166zM714 491c55 0 101 60 101 104v6c-40 -4 -70 -11 -92 -21c-30 -13 -46 -38 -46 -58c0 -17 12 -31 37 -31z" />
    <glyph glyph-name="D.salt" horiz-adv-x="1108" 
d="M654 741c329 -32 457 -197 437 -385c-43 -350 -496 -505 -704 -505c-271 0 -350 140 -350 247c0 189 174 318 352 345c31 79 66 154 99 215c-33 -5 -70 -12 -103 -16c-79 -10 -108 13 -86 89c85 11 163 16 233 16h8c20 31 36 51 46 58c34 -7 73 -22 68 -64zM364 -53
c301 0 555 211 555 460c0 140 -119 242 -299 257c-30 -62 -61 -137 -88 -221c102 -15 207 -63 207 -143c0 -57 -49 -92 -84 -117c-54 51 -106 88 -165 107c-22 -97 -37 -203 -41 -314c-78 -25 -142 31 -142 119c0 62 13 133 33 206c-109 -19 -180 -93 -180 -196
c0 -115 111 -158 204 -158z" />
    <glyph glyph-name="Eth.salt" horiz-adv-x="1078" 
d="M563 741c333 -32 481 -197 484 -385c0 -350 -434 -505 -642 -505c-293 0 -381 158 -381 269c0 90 50 159 134 159c35 0 115 -21 89 -142c-61 37 -101 -2 -101 -43c0 -129 126 -147 225 -147c281 0 499 190 499 435c0 154 -136 266 -332 281c-27 -72 -52 -162 -69 -265h35
c104 0 233 10 233 -53c0 -22 -16 -50 -37 -66c-68 10 -108 10 -211 10h-34c-10 -97 -12 -203 -3 -313c-78 -26 -151 35 -157 128c-4 59 0 124 11 190c-53 7 -79 22 -79 54c0 15 11 36 23 52c29 -1 50 -1 76 -2c22 96 53 188 83 261c-34 -5 -70 -12 -103 -17
c-78 -10 -109 13 -96 89c83 11 160 16 230 16h9c16 31 29 52 38 58c35 -7 76 -22 76 -64z" />
    <glyph glyph-name="Dcaron.salt" horiz-adv-x="1108" 
d="M778 772c-43 0 -85 42 -190 186c22 35 43 51 70 51c51 0 112 -69 142 -120c65 79 116 120 156 120c26 0 44 -16 57 -51c-140 -144 -192 -186 -235 -186zM654 741c329 -32 457 -197 437 -385c-43 -350 -496 -505 -704 -505c-271 0 -350 140 -350 247
c0 189 174 318 352 345c31 79 66 154 99 215c-33 -5 -70 -12 -103 -16c-79 -10 -108 13 -86 89c85 11 163 16 233 16h8c20 31 36 51 46 58c34 -7 73 -22 68 -64zM364 -53c301 0 555 211 555 460c0 140 -119 242 -299 257c-30 -62 -61 -137 -88 -221
c102 -15 207 -63 207 -143c0 -57 -49 -92 -84 -117c-54 51 -106 88 -165 107c-22 -97 -37 -203 -41 -314c-78 -25 -142 31 -142 119c0 62 13 133 33 206c-109 -19 -180 -93 -180 -196c0 -115 111 -158 204 -158z" />
    <glyph glyph-name="Dcroat.salt" horiz-adv-x="1078" 
d="M563 741c333 -32 481 -197 484 -385c0 -350 -434 -505 -642 -505c-293 0 -381 158 -381 269c0 90 50 159 134 159c35 0 115 -21 89 -142c-61 37 -101 -2 -101 -43c0 -129 126 -147 225 -147c281 0 499 190 499 435c0 154 -136 266 -332 281c-27 -72 -52 -162 -69 -265h35
c104 0 233 10 233 -53c0 -22 -16 -50 -37 -66c-68 10 -108 10 -211 10h-34c-10 -97 -12 -203 -3 -313c-78 -26 -151 35 -157 128c-4 59 0 124 11 190c-53 7 -79 22 -79 54c0 15 11 36 23 52c29 -1 50 -1 76 -2c22 96 53 188 83 261c-34 -5 -70 -12 -103 -17
c-78 -10 -109 13 -96 89c83 11 160 16 230 16h9c16 31 29 52 38 58c35 -7 76 -22 76 -64z" />
    <glyph glyph-name="E.salt" horiz-adv-x="760" 
d="M1619 859c89 -26 135 -69 135 -123c0 -149 -181 -184 -308 -184c-169 0 -369 50 -447 65c-62 12 -118 25 -168 31c1 -5 1 -11 1 -16c0 -103 -107 -194 -226 -194c-90 0 -149 45 -149 112c0 96 87 145 185 167c-21 9 -47 14 -78 14c-195 0 -298 -120 -298 -241
c0 -57 22 -128 87 -170c36 6 74 9 115 9c87 0 137 -16 148 -46c17 -50 -46 -92 -136 -92c-45 0 -113 12 -181 38c-54 -29 -92 -85 -92 -147c0 -84 79 -151 187 -151c146 0 258 81 310 127c36 -11 44 -30 36 -50c-6 -14 -111 -176 -403 -176c-174 0 -305 95 -305 216
c0 80 60 169 173 225c-84 50 -151 122 -151 219c0 177 229 320 494 320c111 0 193 -32 240 -79h3c96 0 391 -40 611 -40c132 0 187 42 217 166zM600 538c54 0 102 60 102 103v7c-79 -7 -138 -27 -138 -80c0 -17 11 -30 36 -30z" />
    <glyph glyph-name="Eacute.salt" horiz-adv-x="760" 
d="M729 1041c0 -53 -134 -208 -216 -208c-26 0 -49 21 -58 30c93 93 112 159 126 189c20 13 50 22 79 22c40 0 69 -14 69 -33zM1619 859c89 -26 135 -69 135 -123c0 -149 -181 -184 -308 -184c-169 0 -369 50 -447 65c-62 12 -118 25 -168 31c1 -5 1 -11 1 -16
c0 -103 -107 -194 -226 -194c-90 0 -149 45 -149 112c0 96 87 145 185 167c-21 9 -47 14 -78 14c-195 0 -298 -120 -298 -241c0 -57 22 -128 87 -170c36 6 74 9 115 9c87 0 137 -16 148 -46c17 -50 -46 -92 -136 -92c-45 0 -113 12 -181 38c-54 -29 -92 -85 -92 -147
c0 -84 79 -151 187 -151c146 0 258 81 310 127c36 -11 44 -30 36 -50c-6 -14 -111 -176 -403 -176c-174 0 -305 95 -305 216c0 80 60 169 173 225c-84 50 -151 122 -151 219c0 177 229 320 494 320c111 0 193 -32 240 -79h3c96 0 391 -40 611 -40c132 0 187 42 217 166z
M600 538c54 0 102 60 102 103v7c-79 -7 -138 -27 -138 -80c0 -17 11 -30 36 -30z" />
    <glyph glyph-name="Ecaron.salt" horiz-adv-x="760" 
d="M544 834c-43 0 -85 42 -190 186c22 35 43 51 70 51c51 0 112 -69 142 -120c65 79 116 120 156 120c26 0 44 -16 57 -51c-140 -144 -192 -186 -235 -186zM1619 859c89 -26 135 -69 135 -123c0 -149 -181 -184 -308 -184c-169 0 -369 50 -447 65c-62 12 -118 25 -168 31
c1 -5 1 -11 1 -16c0 -103 -107 -194 -226 -194c-90 0 -149 45 -149 112c0 96 87 145 185 167c-21 9 -47 14 -78 14c-195 0 -298 -120 -298 -241c0 -57 22 -128 87 -170c36 6 74 9 115 9c87 0 137 -16 148 -46c17 -50 -46 -92 -136 -92c-45 0 -113 12 -181 38
c-54 -29 -92 -85 -92 -147c0 -84 79 -151 187 -151c146 0 258 81 310 127c36 -11 44 -30 36 -50c-6 -14 -111 -176 -403 -176c-174 0 -305 95 -305 216c0 80 60 169 173 225c-84 50 -151 122 -151 219c0 177 229 320 494 320c111 0 193 -32 240 -79h3c96 0 391 -40 611 -40
c132 0 187 42 217 166zM600 538c54 0 102 60 102 103v7c-79 -7 -138 -27 -138 -80c0 -17 11 -30 36 -30z" />
    <glyph glyph-name="Ecircumflex.salt" horiz-adv-x="760" 
d="M399 832c-27 0 -45 16 -58 51c141 144 193 186 236 186s84 -42 190 -186c-22 -35 -44 -51 -70 -51c-41 0 -92 48 -134 120c-58 -71 -122 -120 -164 -120zM1619 859c89 -26 135 -69 135 -123c0 -149 -181 -184 -308 -184c-169 0 -369 50 -447 65c-62 12 -118 25 -168 31
c1 -5 1 -11 1 -16c0 -103 -107 -194 -226 -194c-90 0 -149 45 -149 112c0 96 87 145 185 167c-21 9 -47 14 -78 14c-195 0 -298 -120 -298 -241c0 -57 22 -128 87 -170c36 6 74 9 115 9c87 0 137 -16 148 -46c17 -50 -46 -92 -136 -92c-45 0 -113 12 -181 38
c-54 -29 -92 -85 -92 -147c0 -84 79 -151 187 -151c146 0 258 81 310 127c36 -11 44 -30 36 -50c-6 -14 -111 -176 -403 -176c-174 0 -305 95 -305 216c0 80 60 169 173 225c-84 50 -151 122 -151 219c0 177 229 320 494 320c111 0 193 -32 240 -79h3c96 0 391 -40 611 -40
c132 0 187 42 217 166zM600 538c54 0 102 60 102 103v7c-79 -7 -138 -27 -138 -80c0 -17 11 -30 36 -30z" />
    <glyph glyph-name="Edieresis.salt" horiz-adv-x="760" 
d="M445 853c-44 0 -72 26 -72 65c0 50 44 88 100 88c45 0 75 -27 75 -66c0 -50 -45 -87 -103 -87zM641 853c-44 0 -72 26 -72 65c0 50 44 88 100 88c45 0 75 -27 75 -66c0 -50 -45 -87 -103 -87zM1619 859c89 -26 135 -69 135 -123c0 -149 -181 -184 -308 -184
c-169 0 -369 50 -447 65c-62 12 -118 25 -168 31c1 -5 1 -11 1 -16c0 -103 -107 -194 -226 -194c-90 0 -149 45 -149 112c0 96 87 145 185 167c-21 9 -47 14 -78 14c-195 0 -298 -120 -298 -241c0 -57 22 -128 87 -170c36 6 74 9 115 9c87 0 137 -16 148 -46
c17 -50 -46 -92 -136 -92c-45 0 -113 12 -181 38c-54 -29 -92 -85 -92 -147c0 -84 79 -151 187 -151c146 0 258 81 310 127c36 -11 44 -30 36 -50c-6 -14 -111 -176 -403 -176c-174 0 -305 95 -305 216c0 80 60 169 173 225c-84 50 -151 122 -151 219c0 177 229 320 494 320
c111 0 193 -32 240 -79h3c96 0 391 -40 611 -40c132 0 187 42 217 166zM600 538c54 0 102 60 102 103v7c-79 -7 -138 -27 -138 -80c0 -17 11 -30 36 -30z" />
    <glyph glyph-name="Edotaccent.salt" horiz-adv-x="760" 
d="M549 855c-42 0 -70 25 -70 60c0 46 41 81 93 81c41 0 69 -25 69 -61c0 -44 -42 -80 -92 -80zM1619 859c89 -26 135 -69 135 -123c0 -149 -181 -184 -308 -184c-169 0 -369 50 -447 65c-62 12 -118 25 -168 31c1 -5 1 -11 1 -16c0 -103 -107 -194 -226 -194
c-90 0 -149 45 -149 112c0 96 87 145 185 167c-21 9 -47 14 -78 14c-195 0 -298 -120 -298 -241c0 -57 22 -128 87 -170c36 6 74 9 115 9c87 0 137 -16 148 -46c17 -50 -46 -92 -136 -92c-45 0 -113 12 -181 38c-54 -29 -92 -85 -92 -147c0 -84 79 -151 187 -151
c146 0 258 81 310 127c36 -11 44 -30 36 -50c-6 -14 -111 -176 -403 -176c-174 0 -305 95 -305 216c0 80 60 169 173 225c-84 50 -151 122 -151 219c0 177 229 320 494 320c111 0 193 -32 240 -79h3c96 0 391 -40 611 -40c132 0 187 42 217 166zM600 538
c54 0 102 60 102 103v7c-79 -7 -138 -27 -138 -80c0 -17 11 -30 36 -30z" />
    <glyph glyph-name="Egrave.salt" horiz-adv-x="760" 
d="M608 833c-78 0 -166 140 -166 201c0 24 34 40 77 40c30 0 57 -9 74 -22c6 -30 10 -96 79 -189c-11 -9 -39 -30 -64 -30zM1619 859c89 -26 135 -69 135 -123c0 -149 -181 -184 -308 -184c-169 0 -369 50 -447 65c-62 12 -118 25 -168 31c1 -5 1 -11 1 -16
c0 -103 -107 -194 -226 -194c-90 0 -149 45 -149 112c0 96 87 145 185 167c-21 9 -47 14 -78 14c-195 0 -298 -120 -298 -241c0 -57 22 -128 87 -170c36 6 74 9 115 9c87 0 137 -16 148 -46c17 -50 -46 -92 -136 -92c-45 0 -113 12 -181 38c-54 -29 -92 -85 -92 -147
c0 -84 79 -151 187 -151c146 0 258 81 310 127c36 -11 44 -30 36 -50c-6 -14 -111 -176 -403 -176c-174 0 -305 95 -305 216c0 80 60 169 173 225c-84 50 -151 122 -151 219c0 177 229 320 494 320c111 0 193 -32 240 -79h3c96 0 391 -40 611 -40c132 0 187 42 217 166z
M600 538c54 0 102 60 102 103v7c-79 -7 -138 -27 -138 -80c0 -17 11 -30 36 -30z" />
    <glyph glyph-name="Emacron.salt" horiz-adv-x="760" 
d="M461 834c-82 0 -115 15 -115 53c0 18 8 35 18 47c40 -4 158 -3 207 -3c41 0 82 4 116 4c53 0 77 -12 77 -39c0 -20 -13 -47 -30 -64c-33 5 -56 7 -87 7c-22 0 -49 0 -85 -2c-40 -2 -73 -3 -101 -3zM1619 859c89 -26 135 -69 135 -123c0 -149 -181 -184 -308 -184
c-169 0 -369 50 -447 65c-62 12 -118 25 -168 31c1 -5 1 -11 1 -16c0 -103 -107 -194 -226 -194c-90 0 -149 45 -149 112c0 96 87 145 185 167c-21 9 -47 14 -78 14c-195 0 -298 -120 -298 -241c0 -57 22 -128 87 -170c36 6 74 9 115 9c87 0 137 -16 148 -46
c17 -50 -46 -92 -136 -92c-45 0 -113 12 -181 38c-54 -29 -92 -85 -92 -147c0 -84 79 -151 187 -151c146 0 258 81 310 127c36 -11 44 -30 36 -50c-6 -14 -111 -176 -403 -176c-174 0 -305 95 -305 216c0 80 60 169 173 225c-84 50 -151 122 -151 219c0 177 229 320 494 320
c111 0 193 -32 240 -79h3c96 0 391 -40 611 -40c132 0 187 42 217 166zM600 538c54 0 102 60 102 103v7c-79 -7 -138 -27 -138 -80c0 -17 11 -30 36 -30z" />
    <glyph glyph-name="Eogonek.salt" horiz-adv-x="760" 
d="M1619 859c89 -26 135 -69 135 -123c0 -149 -181 -184 -308 -184c-169 0 -369 50 -447 65c-62 12 -118 25 -168 31c1 -5 1 -11 1 -16c0 -103 -107 -194 -226 -194c-90 0 -149 45 -149 112c0 96 87 145 185 167c-21 9 -47 14 -78 14c-195 0 -298 -120 -298 -241
c0 -57 22 -128 87 -170c36 6 74 9 115 9c87 0 137 -16 148 -46c17 -50 -46 -92 -136 -92c-45 0 -113 12 -181 38c-54 -29 -92 -85 -92 -147c0 -84 79 -151 187 -151c146 0 258 81 310 127c36 -11 44 -30 36 -50c-5 -11 -71 -114 -241 -157c-45 -40 -71 -70 -71 -99
c0 -17 6 -26 18 -26c14 0 33 8 55 24c23 -7 34 -20 34 -38c0 -38 -58 -72 -115 -72c-70 0 -118 40 -118 96c0 41 23 73 50 96h-15c-174 0 -305 95 -305 216c0 80 60 169 173 225c-84 50 -151 122 -151 219c0 177 229 320 494 320c111 0 193 -32 240 -79h3
c96 0 391 -40 611 -40c132 0 187 42 217 166zM600 538c54 0 102 60 102 103v7c-79 -7 -138 -27 -138 -80c0 -17 11 -30 36 -30z" />
    <glyph glyph-name="F.salt" horiz-adv-x="1688" 
d="M1981 917c23 -34 34 -62 34 -94c0 -67 -40 -109 -112 -116c-42 -4 -96 -7 -154 -9c-144 -7 -263 -18 -358 -36v-33c0 -66 -13 -138 -30 -211c10 2 19 5 28 7c63 15 130 22 183 22c68 0 107 -17 107 -48c0 -18 -28 -56 -57 -87c-37 10 -66 19 -104 19
c-59 0 -124 -13 -187 -33c-27 -108 -54 -216 -54 -314c0 -54 7 -103 20 -133c-32 -10 -74 -24 -109 -23c-56 4 -83 39 -83 103c0 56 38 178 75 304c-37 -19 -71 -39 -100 -59c1 38 8 66 20 89c18 34 64 67 117 95c23 83 40 160 40 210c0 24 -4 42 -7 56
c-26 -9 -49 -19 -68 -30c22 -25 34 -56 34 -91c0 -74 -56 -123 -134 -123c-53 0 -93 40 -93 93c0 34 8 64 23 90c-20 3 -40 4 -59 4c-237 0 -413 -251 -679 -251c-124 0 -211 70 -211 164c0 42 18 83 57 135c9 -49 122 -88 222 -88c159 0 417 144 619 144
c52 0 97 -7 135 -21c90 60 223 93 337 116c160 33 278 59 391 82c96 19 120 39 157 67zM1110 460c12 0 23 15 23 34c0 15 -8 28 -22 38c-9 -16 -13 -33 -13 -51c0 -7 2 -21 12 -21z" />
    <glyph glyph-name="G.salt" horiz-adv-x="1533" 
d="M1214 328c160 15 277 6 277 -109c0 -194 -263 -361 -513 -361c-249 0 -393 175 -393 383c0 29 3 57 8 84c-310 15 -500 116 -500 293c0 161 138 277 330 277c201 0 261 -137 261 -211c0 -70 -62 -119 -150 -119c-27 0 -64 5 -66 8c12 18 23 42 23 94
c0 74 -32 124 -97 124c-88 0 -133 -80 -133 -153c0 -145 186 -202 360 -219c92 215 343 348 567 348c170 0 235 -82 235 -154c0 -155 -295 -268 -645 -287c-7 -31 -11 -63 -11 -94c0 -142 77 -271 249 -271c185 0 344 139 344 229c0 35 -27 49 -110 28
c-59 -15 -107 -32 -151 -36c-60 -6 -95 15 -95 55c0 26 16 56 44 91c57 -17 107 -6 166 0zM1175 677c-166 0 -302 -118 -367 -262c253 13 489 95 489 187c0 30 -24 75 -122 75z" />
    <glyph glyph-name="Gbreve.salt" horiz-adv-x="1533" 
d="M1178 835c-89 0 -157 68 -157 149c0 48 24 68 77 68c26 0 52 -9 61 -20c-8 -69 6 -112 36 -112c36 0 56 36 65 112c11 11 39 20 68 20c41 0 62 -15 62 -46c0 -88 -104 -171 -212 -171zM1214 328c160 15 277 6 277 -109c0 -194 -263 -361 -513 -361
c-249 0 -393 175 -393 383c0 29 3 57 8 84c-310 15 -500 116 -500 293c0 161 138 277 330 277c201 0 261 -137 261 -211c0 -70 -62 -119 -150 -119c-27 0 -64 5 -66 8c12 18 23 42 23 94c0 74 -32 124 -97 124c-88 0 -133 -80 -133 -153c0 -145 186 -202 360 -219
c92 215 343 348 567 348c170 0 235 -82 235 -154c0 -155 -295 -268 -645 -287c-7 -31 -11 -63 -11 -94c0 -142 77 -271 249 -271c185 0 344 139 344 229c0 35 -27 49 -110 28c-59 -15 -107 -32 -151 -36c-60 -6 -95 15 -95 55c0 26 16 56 44 91c57 -17 107 -6 166 0z
M1175 677c-166 0 -302 -118 -367 -262c253 13 489 95 489 187c0 30 -24 75 -122 75z" />
    <glyph glyph-name="Gcommaaccent.salt" horiz-adv-x="1533" 
d="M1214 328c160 15 277 6 277 -109c0 -194 -263 -361 -513 -361c-249 0 -393 175 -393 383c0 29 3 57 8 84c-310 15 -500 116 -500 293c0 161 138 277 330 277c201 0 261 -137 261 -211c0 -70 -62 -119 -150 -119c-27 0 -64 5 -66 8c12 18 23 42 23 94
c0 74 -32 124 -97 124c-88 0 -133 -80 -133 -153c0 -145 186 -202 360 -219c92 215 343 348 567 348c170 0 235 -82 235 -154c0 -155 -295 -268 -645 -287c-7 -31 -11 -63 -11 -94c0 -142 77 -271 249 -271c185 0 344 139 344 229c0 35 -27 49 -110 28
c-59 -15 -107 -32 -151 -36c-60 -6 -95 15 -95 55c0 26 16 56 44 91c57 -17 107 -6 166 0zM1175 677c-166 0 -302 -118 -367 -262c253 13 489 95 489 187c0 30 -24 75 -122 75zM1062 -155c40 0 66 -31 66 -77c0 -64 -86 -160 -137 -160c-18 0 -33 13 -36 33
c27 25 45 41 54 70c-23 13 -35 33 -35 57c0 46 38 77 88 77z" />
    <glyph glyph-name="Gdotaccent.salt" horiz-adv-x="1533" 
d="M1181 847c-42 0 -70 25 -70 60c0 46 41 81 93 81c41 0 69 -25 69 -61c0 -44 -42 -80 -92 -80zM1214 328c160 15 277 6 277 -109c0 -194 -263 -361 -513 -361c-249 0 -393 175 -393 383c0 29 3 57 8 84c-310 15 -500 116 -500 293c0 161 138 277 330 277
c201 0 261 -137 261 -211c0 -70 -62 -119 -150 -119c-27 0 -64 5 -66 8c12 18 23 42 23 94c0 74 -32 124 -97 124c-88 0 -133 -80 -133 -153c0 -145 186 -202 360 -219c92 215 343 348 567 348c170 0 235 -82 235 -154c0 -155 -295 -268 -645 -287c-7 -31 -11 -63 -11 -94
c0 -142 77 -271 249 -271c185 0 344 139 344 229c0 35 -27 49 -110 28c-59 -15 -107 -32 -151 -36c-60 -6 -95 15 -95 55c0 26 16 56 44 91c57 -17 107 -6 166 0zM1175 677c-166 0 -302 -118 -367 -262c253 13 489 95 489 187c0 30 -24 75 -122 75z" />
    <glyph glyph-name="H.salt" horiz-adv-x="1434" 
d="M1488 744c0 -161 -131 -445 -131 -693c0 -56 6 -108 18 -139c-36 -10 -94 -18 -123 -15c-137 10 -64 208 -28 336c4 13 7 26 11 39c-33 8 -91 21 -149 25c-72 5 -134 1 -187 -7l-39 -147c-46 -181 -49 -289 -49 -291c0 -13 1 -32 2 -39c-67 6 -160 24 -160 125
c0 73 39 167 79 299c-46 -23 -71 -45 -75 -47c-35 -6 -51 19 -51 42c0 37 68 81 158 117c31 109 48 189 48 243c0 60 -19 106 -73 106c-168 0 -477 -229 -477 -451c0 -98 67 -184 156 -190c-12 -81 -82 -144 -174 -144c-136 0 -203 149 -203 256c0 348 463 637 778 637
c90 0 156 -52 156 -161c0 -48 -22 -145 -47 -245c64 16 127 25 176 25c79 0 153 -13 161 -27c1 -1 2 -2 4 -3c13 51 27 108 43 176c11 48 20 76 20 108c0 30 -7 66 -23 112c22 33 64 55 105 55c50 0 74 -33 74 -102z" />
    <glyph glyph-name="Hbar.salt" horiz-adv-x="1434" 
d="M1467 600c29 -10 47 -24 47 -43c0 -21 -20 -47 -50 -62c-7 1 -15 3 -23 4c-37 -140 -84 -300 -84 -448c0 -56 6 -108 18 -139c-36 -10 -94 -18 -123 -15c-137 10 -64 208 -28 336c4 13 7 26 11 39c-33 8 -91 21 -149 25c-72 5 -134 1 -187 -7l-39 -147
c-46 -181 -49 -289 -49 -291c0 -13 1 -32 2 -39c-67 6 -160 24 -160 125c0 73 39 167 79 299c-46 -23 -71 -45 -75 -47c-35 -6 -51 19 -51 42c0 37 68 81 158 117c19 68 33 125 41 171c-57 4 -83 15 -83 44c0 13 12 29 31 48c21 -1 40 -2 58 -1c-3 50 -24 87 -72 87
c-168 0 -477 -229 -477 -451c0 -98 67 -184 156 -190c-12 -81 -82 -144 -174 -144c-136 0 -203 149 -203 256c0 348 463 637 778 637c90 0 156 -52 156 -161c0 -7 -1 -16 -1 -25c45 2 102 4 177 4c57 0 118 0 173 -3c5 21 8 39 8 58c0 30 -7 66 -23 112c22 33 64 55 105 55
c50 0 74 -33 74 -102c0 -41 -8 -90 -21 -144zM1269 395c9 36 19 75 29 119c-67 4 -135 6 -182 6c-61 0 -114 -1 -160 -1c-8 -37 -18 -78 -28 -119c64 16 127 25 176 25c79 0 153 -13 161 -27c1 -1 2 -2 4 -3z" />
    <glyph glyph-name="I.salt" horiz-adv-x="1688" 
d="M1862 799c4 -30 -1 -57 -17 -89c-12 -25 -53 -74 -140 -74c-85 0 -138 4 -202 8c0 -5 -2 -11 -4 -18c-14 -48 -62 -256 -74 -339c-22 -148 -28 -257 -19 -337c24 -1 47 -1 70 0c94 5 114 10 137 33c61 -21 86 -135 -79 -146c-86 -6 -218 8 -293 8
c-102 0 -154 -11 -220 -27c-69 59 -26 145 73 147c58 1 109 -1 156 -4c-1 10 -3 20 -3 32c-3 67 38 346 77 502c17 67 33 130 37 160c-27 2 -56 4 -82 4c-30 0 -55 -2 -77 -5c9 -19 14 -39 14 -60c0 -77 -53 -132 -127 -132c-60 0 -99 36 -99 89c0 44 17 80 45 110
c-45 17 -97 27 -133 27c-174 0 -350 -129 -543 -129c-143 0 -255 82 -255 183c0 53 17 88 87 157c6 -79 172 -141 278 -141c122 0 280 35 420 35c88 0 181 -24 245 -67c71 32 159 48 237 52c34 2 80 2 117 2c91 0 215 -5 243 -5c74 0 83 7 131 24zM1108 537
c11 0 23 18 23 38c0 14 -6 27 -17 39c-13 -15 -19 -34 -19 -57c0 -10 3 -20 13 -20z" />
    <glyph glyph-name="Iacute.salt" horiz-adv-x="1688" 
d="M1679 1033c0 -53 -134 -208 -216 -208c-26 0 -49 21 -58 30c93 93 112 159 126 189c20 13 50 22 79 22c40 0 69 -14 69 -33zM1862 799c4 -30 -1 -57 -17 -89c-12 -25 -53 -74 -140 -74c-85 0 -138 4 -202 8c0 -5 -2 -11 -4 -18c-14 -48 -62 -256 -74 -339
c-22 -148 -28 -257 -19 -337c24 -1 47 -1 70 0c94 5 114 10 137 33c61 -21 86 -135 -79 -146c-86 -6 -218 8 -293 8c-102 0 -154 -11 -220 -27c-69 59 -26 145 73 147c58 1 109 -1 156 -4c-1 10 -3 20 -3 32c-3 67 38 346 77 502c17 67 33 130 37 160c-27 2 -56 4 -82 4
c-30 0 -55 -2 -77 -5c9 -19 14 -39 14 -60c0 -77 -53 -132 -127 -132c-60 0 -99 36 -99 89c0 44 17 80 45 110c-45 17 -97 27 -133 27c-174 0 -350 -129 -543 -129c-143 0 -255 82 -255 183c0 53 17 88 87 157c6 -79 172 -141 278 -141c122 0 280 35 420 35
c88 0 181 -24 245 -67c71 32 159 48 237 52c34 2 80 2 117 2c91 0 215 -5 243 -5c74 0 83 7 131 24zM1108 537c11 0 23 18 23 38c0 14 -6 27 -17 39c-13 -15 -19 -34 -19 -57c0 -10 3 -20 13 -20z" />
    <glyph glyph-name="Icircumflex.salt" horiz-adv-x="1688" 
d="M1349 824c-27 0 -45 16 -58 51c141 144 193 186 236 186s84 -42 190 -186c-22 -35 -44 -51 -70 -51c-41 0 -92 48 -134 120c-58 -71 -122 -120 -164 -120zM1862 799c4 -30 -1 -57 -17 -89c-12 -25 -53 -74 -140 -74c-85 0 -138 4 -202 8c0 -5 -2 -11 -4 -18
c-14 -48 -62 -256 -74 -339c-22 -148 -28 -257 -19 -337c24 -1 47 -1 70 0c94 5 114 10 137 33c61 -21 86 -135 -79 -146c-86 -6 -218 8 -293 8c-102 0 -154 -11 -220 -27c-69 59 -26 145 73 147c58 1 109 -1 156 -4c-1 10 -3 20 -3 32c-3 67 38 346 77 502
c17 67 33 130 37 160c-27 2 -56 4 -82 4c-30 0 -55 -2 -77 -5c9 -19 14 -39 14 -60c0 -77 -53 -132 -127 -132c-60 0 -99 36 -99 89c0 44 17 80 45 110c-45 17 -97 27 -133 27c-174 0 -350 -129 -543 -129c-143 0 -255 82 -255 183c0 53 17 88 87 157
c6 -79 172 -141 278 -141c122 0 280 35 420 35c88 0 181 -24 245 -67c71 32 159 48 237 52c34 2 80 2 117 2c91 0 215 -5 243 -5c74 0 83 7 131 24zM1108 537c11 0 23 18 23 38c0 14 -6 27 -17 39c-13 -15 -19 -34 -19 -57c0 -10 3 -20 13 -20z" />
    <glyph glyph-name="Idieresis.salt" horiz-adv-x="1688" 
d="M1395 845c-44 0 -72 26 -72 65c0 50 44 88 100 88c45 0 75 -27 75 -66c0 -50 -45 -87 -103 -87zM1591 845c-44 0 -72 26 -72 65c0 50 44 88 100 88c45 0 75 -27 75 -66c0 -50 -45 -87 -103 -87zM1862 799c4 -30 -1 -57 -17 -89c-12 -25 -53 -74 -140 -74
c-85 0 -138 4 -202 8c0 -5 -2 -11 -4 -18c-14 -48 -62 -256 -74 -339c-22 -148 -28 -257 -19 -337c24 -1 47 -1 70 0c94 5 114 10 137 33c61 -21 86 -135 -79 -146c-86 -6 -218 8 -293 8c-102 0 -154 -11 -220 -27c-69 59 -26 145 73 147c58 1 109 -1 156 -4
c-1 10 -3 20 -3 32c-3 67 38 346 77 502c17 67 33 130 37 160c-27 2 -56 4 -82 4c-30 0 -55 -2 -77 -5c9 -19 14 -39 14 -60c0 -77 -53 -132 -127 -132c-60 0 -99 36 -99 89c0 44 17 80 45 110c-45 17 -97 27 -133 27c-174 0 -350 -129 -543 -129c-143 0 -255 82 -255 183
c0 53 17 88 87 157c6 -79 172 -141 278 -141c122 0 280 35 420 35c88 0 181 -24 245 -67c71 32 159 48 237 52c34 2 80 2 117 2c91 0 215 -5 243 -5c74 0 83 7 131 24zM1108 537c11 0 23 18 23 38c0 14 -6 27 -17 39c-13 -15 -19 -34 -19 -57c0 -10 3 -20 13 -20z" />
    <glyph glyph-name="Idotaccent.salt" horiz-adv-x="1688" 
d="M1499 847c-42 0 -70 25 -70 60c0 46 41 81 93 81c41 0 69 -25 69 -61c0 -44 -42 -80 -92 -80zM1862 799c4 -30 -1 -57 -17 -89c-12 -25 -53 -74 -140 -74c-85 0 -138 4 -202 8c0 -5 -2 -11 -4 -18c-14 -48 -62 -256 -74 -339c-22 -148 -28 -257 -19 -337
c24 -1 47 -1 70 0c94 5 114 10 137 33c61 -21 86 -135 -79 -146c-86 -6 -218 8 -293 8c-102 0 -154 -11 -220 -27c-69 59 -26 145 73 147c58 1 109 -1 156 -4c-1 10 -3 20 -3 32c-3 67 38 346 77 502c17 67 33 130 37 160c-27 2 -56 4 -82 4c-30 0 -55 -2 -77 -5
c9 -19 14 -39 14 -60c0 -77 -53 -132 -127 -132c-60 0 -99 36 -99 89c0 44 17 80 45 110c-45 17 -97 27 -133 27c-174 0 -350 -129 -543 -129c-143 0 -255 82 -255 183c0 53 17 88 87 157c6 -79 172 -141 278 -141c122 0 280 35 420 35c88 0 181 -24 245 -67
c71 32 159 48 237 52c34 2 80 2 117 2c91 0 215 -5 243 -5c74 0 83 7 131 24zM1108 537c11 0 23 18 23 38c0 14 -6 27 -17 39c-13 -15 -19 -34 -19 -57c0 -10 3 -20 13 -20z" />
    <glyph glyph-name="Igrave.salt" horiz-adv-x="1688" 
d="M1558 825c-78 0 -166 140 -166 201c0 24 34 40 77 40c30 0 57 -9 74 -22c6 -30 10 -96 79 -189c-11 -9 -39 -30 -64 -30zM1862 799c4 -30 -1 -57 -17 -89c-12 -25 -53 -74 -140 -74c-85 0 -138 4 -202 8c0 -5 -2 -11 -4 -18c-14 -48 -62 -256 -74 -339
c-22 -148 -28 -257 -19 -337c24 -1 47 -1 70 0c94 5 114 10 137 33c61 -21 86 -135 -79 -146c-86 -6 -218 8 -293 8c-102 0 -154 -11 -220 -27c-69 59 -26 145 73 147c58 1 109 -1 156 -4c-1 10 -3 20 -3 32c-3 67 38 346 77 502c17 67 33 130 37 160c-27 2 -56 4 -82 4
c-30 0 -55 -2 -77 -5c9 -19 14 -39 14 -60c0 -77 -53 -132 -127 -132c-60 0 -99 36 -99 89c0 44 17 80 45 110c-45 17 -97 27 -133 27c-174 0 -350 -129 -543 -129c-143 0 -255 82 -255 183c0 53 17 88 87 157c6 -79 172 -141 278 -141c122 0 280 35 420 35
c88 0 181 -24 245 -67c71 32 159 48 237 52c34 2 80 2 117 2c91 0 215 -5 243 -5c74 0 83 7 131 24zM1108 537c11 0 23 18 23 38c0 14 -6 27 -17 39c-13 -15 -19 -34 -19 -57c0 -10 3 -20 13 -20z" />
    <glyph glyph-name="Imacron.salt" horiz-adv-x="1688" 
d="M1411 826c-82 0 -115 15 -115 53c0 18 8 35 18 47c40 -4 158 -3 207 -3c41 0 82 4 116 4c53 0 77 -12 77 -39c0 -20 -13 -47 -30 -64c-33 5 -56 7 -87 7c-22 0 -49 0 -85 -2c-40 -2 -73 -3 -101 -3zM1862 799c4 -30 -1 -57 -17 -89c-12 -25 -53 -74 -140 -74
c-85 0 -138 4 -202 8c0 -5 -2 -11 -4 -18c-14 -48 -62 -256 -74 -339c-22 -148 -28 -257 -19 -337c24 -1 47 -1 70 0c94 5 114 10 137 33c61 -21 86 -135 -79 -146c-86 -6 -218 8 -293 8c-102 0 -154 -11 -220 -27c-69 59 -26 145 73 147c58 1 109 -1 156 -4
c-1 10 -3 20 -3 32c-3 67 38 346 77 502c17 67 33 130 37 160c-27 2 -56 4 -82 4c-30 0 -55 -2 -77 -5c9 -19 14 -39 14 -60c0 -77 -53 -132 -127 -132c-60 0 -99 36 -99 89c0 44 17 80 45 110c-45 17 -97 27 -133 27c-174 0 -350 -129 -543 -129c-143 0 -255 82 -255 183
c0 53 17 88 87 157c6 -79 172 -141 278 -141c122 0 280 35 420 35c88 0 181 -24 245 -67c71 32 159 48 237 52c34 2 80 2 117 2c91 0 215 -5 243 -5c74 0 83 7 131 24zM1108 537c11 0 23 18 23 38c0 14 -6 27 -17 39c-13 -15 -19 -34 -19 -57c0 -10 3 -20 13 -20z" />
    <glyph glyph-name="Iogonek.salt" horiz-adv-x="1688" 
d="M1862 799c4 -30 -1 -57 -17 -89c-12 -25 -53 -74 -140 -74c-85 0 -138 4 -202 8c0 -5 -2 -11 -4 -18c-14 -48 -62 -256 -74 -339c-22 -148 -28 -257 -19 -337c24 -1 47 -1 70 0c94 5 114 10 137 33c61 -21 86 -135 -79 -146c-48 -3 -111 0 -170 3
c-28 -28 -44 -52 -44 -74c0 -17 6 -26 18 -26c14 0 33 8 55 24c23 -7 34 -20 34 -38c0 -38 -58 -72 -115 -72c-70 0 -118 40 -118 96c0 41 22 72 49 95h-2c-102 0 -154 -11 -220 -27c-69 59 -26 145 73 147c58 1 109 -1 156 -4c-1 10 -3 20 -3 32c-3 67 38 346 77 502
c17 67 33 130 37 160c-27 2 -56 4 -82 4c-30 0 -55 -2 -77 -5c9 -19 14 -39 14 -60c0 -77 -53 -132 -127 -132c-60 0 -99 36 -99 89c0 44 17 80 45 110c-45 17 -97 27 -133 27c-174 0 -350 -129 -543 -129c-143 0 -255 82 -255 183c0 53 17 88 87 157
c6 -79 172 -141 278 -141c122 0 280 35 420 35c88 0 181 -24 245 -67c71 32 159 48 237 52c34 2 80 2 117 2c91 0 215 -5 243 -5c74 0 83 7 131 24zM1108 537c11 0 23 18 23 38c0 14 -6 27 -17 39c-13 -15 -19 -34 -19 -57c0 -10 3 -20 13 -20z" />
    <glyph glyph-name="J.salt" horiz-adv-x="1722" 
d="M1803 745c-5 -16 -27 -49 -74 -76c-18 -31 -27 -68 -34 -124c-14 -111 -18 -280 -27 -352c-33 -269 -274 -386 -456 -386c-162 0 -315 94 -315 203c0 54 36 102 109 115c33 -102 137 -189 258 -189c123 0 246 89 272 296c10 80 12 227 22 311c4 31 10 60 17 86h-19
c-90 0 -199 24 -274 24c-32 0 -60 -4 -85 -11c14 -22 21 -46 21 -73c0 -75 -54 -130 -129 -130c-50 0 -96 26 -96 92c0 39 14 77 40 109c-45 16 -96 25 -137 25c-155 0 -348 -129 -534 -129c-143 0 -256 79 -256 185c0 57 30 98 88 155c6 -77 159 -141 287 -141
c95 0 286 35 403 35c88 0 175 -21 238 -58c54 28 121 45 195 45c105 0 160 -34 256 -34c17 0 33 1 47 4c29 40 65 63 104 63c38 0 75 -22 79 -45zM1109 514c14 0 24 19 24 37c0 14 -6 27 -17 39c-12 -16 -19 -35 -19 -55c0 -13 4 -21 12 -21z" />
    <glyph glyph-name="K.salt" horiz-adv-x="1689" 
d="M1657 593c-42 -36 -133 -73 -259 -152c-34 -22 -66 -41 -95 -61c59 -169 212 -325 373 -369c-26 -70 -69 -108 -125 -109c-64 -2 -270 155 -356 392c-40 -43 -66 -93 -75 -163c-1 -13 -1 -26 -1 -39c0 -72 10 -131 33 -154c-51 -41 -90 -58 -119 -58
c-62 0 -81 81 -81 191c0 106 37 244 75 394c23 87 45 173 53 246c-294 -90 -508 -54 -689 -137c-96 -44 -171 -161 -171 -273c0 -110 79 -209 178 -209c100 0 176 81 176 197c0 34 -6 74 -18 102c32 16 68 25 96 25c74 0 122 -54 122 -130c0 -150 -145 -308 -389 -308
c-193 0 -324 132 -324 317c0 163 109 310 272 388c233 111 487 67 746 152c100 23 150 -36 150 -108c0 -60 -39 -191 -70 -336c38 37 87 77 142 111c130 80 267 204 323 292c62 -10 105 -50 105 -95c0 -28 -29 -69 -72 -106z" />
    <glyph glyph-name="Kcommaaccent.salt" horiz-adv-x="1689" 
d="M1657 593c-42 -36 -133 -73 -259 -152c-34 -22 -66 -41 -95 -61c59 -169 212 -325 373 -369c-26 -70 -69 -108 -125 -109c-64 -2 -270 155 -356 392c-40 -43 -66 -93 -75 -163c-1 -13 -1 -26 -1 -39c0 -72 10 -131 33 -154c-51 -41 -90 -58 -119 -58
c-62 0 -81 81 -81 191c0 106 37 244 75 394c23 87 45 173 53 246c-294 -90 -508 -54 -689 -137c-96 -44 -171 -161 -171 -273c0 -110 79 -209 178 -209c100 0 176 81 176 197c0 34 -6 74 -18 102c32 16 68 25 96 25c74 0 122 -54 122 -130c0 -150 -145 -308 -389 -308
c-193 0 -324 132 -324 317c0 163 109 310 272 388c233 111 487 67 746 152c100 23 150 -36 150 -108c0 -60 -39 -191 -70 -336c38 37 87 77 142 111c130 80 267 204 323 292c62 -10 105 -50 105 -95c0 -28 -29 -69 -72 -106zM1295 -113c40 0 66 -31 66 -77
c0 -64 -86 -160 -137 -160c-18 0 -33 13 -36 33c27 25 45 41 54 70c-23 13 -35 33 -35 57c0 46 38 77 88 77z" />
    <glyph glyph-name="L.salt" horiz-adv-x="1274" 
d="M1228 -77c27 -32 42 -67 42 -95c0 -65 -72 -104 -184 -104c-157 0 -323 100 -453 126c-34 -37 -72 -55 -119 -55c-73 0 -109 42 -95 114c40 9 82 15 127 17c45 72 77 154 103 239c-47 -10 -95 -15 -139 -15c-214 0 -433 124 -433 355c0 149 111 263 233 263
c46 0 94 -20 123 -52c-91 -48 -160 -137 -160 -229c0 -117 80 -231 275 -231c40 0 86 6 132 18c70 265 113 519 348 519c76 0 125 -66 125 -160c0 -199 -168 -348 -361 -425c-33 -112 -71 -217 -120 -286c85 -12 185 -40 326 -40c80 0 150 14 230 41zM1002 712
c-72 0 -120 -182 -174 -381c123 66 225 174 225 316c0 36 -16 65 -51 65z" />
    <glyph glyph-name="Lacute.salt" horiz-adv-x="1274" 
d="M1215 1012c0 -53 -134 -208 -216 -208c-26 0 -49 21 -58 30c93 93 112 159 126 189c20 13 50 22 79 22c40 0 69 -14 69 -33zM1228 -77c27 -32 42 -67 42 -95c0 -65 -72 -104 -184 -104c-157 0 -323 100 -453 126c-34 -37 -72 -55 -119 -55c-73 0 -109 42 -95 114
c40 9 82 15 127 17c45 72 77 154 103 239c-47 -10 -95 -15 -139 -15c-214 0 -433 124 -433 355c0 149 111 263 233 263c46 0 94 -20 123 -52c-91 -48 -160 -137 -160 -229c0 -117 80 -231 275 -231c40 0 86 6 132 18c70 265 113 519 348 519c76 0 125 -66 125 -160
c0 -199 -168 -348 -361 -425c-33 -112 -71 -217 -120 -286c85 -12 185 -40 326 -40c80 0 150 14 230 41zM1002 712c-72 0 -120 -182 -174 -381c123 66 225 174 225 316c0 36 -16 65 -51 65z" />
    <glyph glyph-name="Lcaron.salt" horiz-adv-x="1274" 
d="M998 -118c80 0 150 14 230 41c27 -32 42 -67 42 -95c0 -65 -72 -104 -184 -104c-157 0 -323 100 -453 126c-34 -37 -72 -55 -119 -55c-73 0 -109 42 -95 114c40 9 82 15 127 17c45 72 77 154 103 239c-47 -10 -95 -15 -139 -15c-214 0 -433 124 -433 355
c0 149 111 263 233 263c46 0 94 -20 123 -52c-91 -48 -160 -137 -160 -229c0 -117 80 -231 275 -231c40 0 86 6 132 18c70 265 113 519 348 519c76 0 125 -66 125 -160c0 -199 -168 -348 -361 -425c-33 -112 -71 -217 -120 -286c85 -12 185 -40 326 -40zM1264 777
c35 19 128 24 128 -27c0 -75 -97 -191 -163 -191c-22 0 -42 12 -51 31c62 74 78 149 86 187zM1002 712c-72 0 -120 -182 -174 -381c123 66 225 174 225 316c0 36 -16 65 -51 65z" />
    <glyph glyph-name="Lcommaaccent.salt" horiz-adv-x="1274" 
d="M1228 -77c27 -32 42 -67 42 -95c0 -65 -72 -104 -184 -104c-157 0 -323 100 -453 126c-34 -37 -72 -55 -119 -55c-73 0 -109 42 -95 114c40 9 82 15 127 17c45 72 77 154 103 239c-47 -10 -95 -15 -139 -15c-214 0 -433 124 -433 355c0 149 111 263 233 263
c46 0 94 -20 123 -52c-91 -48 -160 -137 -160 -229c0 -117 80 -231 275 -231c40 0 86 6 132 18c70 265 113 519 348 519c76 0 125 -66 125 -160c0 -199 -168 -348 -361 -425c-33 -112 -71 -217 -120 -286c85 -12 185 -40 326 -40c80 0 150 14 230 41zM1002 712
c-72 0 -120 -182 -174 -381c123 66 225 174 225 316c0 36 -16 65 -51 65zM856 -236c40 0 66 -31 66 -77c0 -64 -86 -160 -137 -160c-18 0 -33 13 -36 33c27 25 45 41 54 70c-23 13 -35 33 -35 57c0 46 38 77 88 77z" />
    <glyph glyph-name="Lslash.salt" horiz-adv-x="820" 
d="M779 -77c35 -36 55 -72 55 -103c0 -60 -66 -96 -172 -96c-158 0 -336 100 -468 126c-30 -37 -66 -55 -113 -55c-73 0 -114 42 -109 114c39 9 80 15 125 17c23 46 41 96 54 148c-41 -3 -71 -7 -101 -18c-24 16 -37 43 -40 54c-5 52 76 65 164 72l9 53
c-41 -5 -82 -7 -122 -7c-228 0 -479 136 -479 392c0 126 90 226 203 226c46 0 96 -20 129 -52c-79 -44 -133 -127 -133 -202c0 -128 91 -258 305 -258c35 0 73 2 112 7c31 239 60 452 275 452c84 0 146 -78 146 -188c2 -188 -134 -293 -301 -342l-12 -71
c112 11 149 23 200 40c10 -14 15 -21 18 -29c12 -33 -2 -57 -44 -79c-36 -19 -98 -31 -197 -40c-16 -63 -35 -120 -59 -162c86 -12 189 -40 330 -40c80 0 149 14 225 41zM457 712c-67 0 -93 -156 -121 -336c101 41 180 119 180 258c0 43 -19 78 -59 78z" />
    <glyph glyph-name="M.salt" horiz-adv-x="1734" 
d="M1701 520c0 -86 -55 -291 -55 -454c0 -141 24 -157 39 -200c-32 -35 -83 -52 -122 -52c-61 0 -89 47 -89 137c0 131 78 370 90 472l7 60c-24 0 -227 -487 -287 -543c-22 -25 -54 -48 -94 -48c-71 0 -101 71 -101 185c0 105 45 402 55 492c6 61 0 79 -13 79
c-32 0 -176 -281 -256 -434c-84 -160 -214 -373 -486 -373c-220 0 -353 145 -353 329c0 200 145 309 256 309c47 0 99 -21 126 -53c-106 -66 -174 -163 -174 -281c0 -92 44 -192 171 -192c144 0 223 120 325 313c74 140 271 509 440 509c79 0 63 -137 63 -662
c0 -11 0 -21 1 -31c262 513 305 577 371 577c59 0 86 -57 86 -139z" />
    <glyph glyph-name="N.salt" horiz-adv-x="1354" 
d="M1376 776c57 0 88 -49 80 -118c-63 -44 -93 -20 -134 -206c-51 -229 -32 -558 -244 -587c-193 -27 -292 432 -326 640c-48 -332 -96 -789 -523 -789c-160 0 -239 101 -239 193c0 66 43 127 129 146c26 -104 80 -158 156 -158c306 0 369 693 369 778c0 18 0 46 -1 61
c72 22 141 23 170 -9c21 -23 32 -55 35 -110c4 -77 78 -365 134 -478c42 -85 85 -132 100 -132c16 0 49 108 72 284c35 266 73 485 222 485z" />
    <glyph glyph-name="Nacute.salt" horiz-adv-x="1354" 
d="M1221 995c0 -53 -134 -208 -216 -208c-26 0 -49 21 -58 30c93 93 112 159 126 189c20 13 50 22 79 22c40 0 69 -14 69 -33zM1376 776c57 0 88 -49 80 -118c-63 -44 -93 -20 -134 -206c-51 -229 -32 -558 -244 -587c-193 -27 -292 432 -326 640
c-48 -332 -96 -789 -523 -789c-160 0 -239 101 -239 193c0 66 43 127 129 146c26 -104 80 -158 156 -158c306 0 369 693 369 778c0 18 0 46 -1 61c72 22 141 23 170 -9c21 -23 32 -55 35 -110c4 -77 78 -365 134 -478c42 -85 85 -132 100 -132c16 0 49 108 72 284
c35 266 73 485 222 485z" />
    <glyph glyph-name="Ncaron.salt" horiz-adv-x="1354" 
d="M1036 788c-43 0 -85 42 -190 186c22 35 43 51 70 51c51 0 112 -69 142 -120c65 79 116 120 156 120c26 0 44 -16 57 -51c-140 -144 -192 -186 -235 -186zM1376 776c57 0 88 -49 80 -118c-63 -44 -93 -20 -134 -206c-51 -229 -32 -558 -244 -587
c-193 -27 -292 432 -326 640c-48 -332 -96 -789 -523 -789c-160 0 -239 101 -239 193c0 66 43 127 129 146c26 -104 80 -158 156 -158c306 0 369 693 369 778c0 18 0 46 -1 61c72 22 141 23 170 -9c21 -23 32 -55 35 -110c4 -77 78 -365 134 -478c42 -85 85 -132 100 -132
c16 0 49 108 72 284c35 266 73 485 222 485z" />
    <glyph glyph-name="Ncommaaccent.salt" horiz-adv-x="1354" 
d="M1376 776c57 0 88 -49 80 -118c-63 -44 -93 -20 -134 -206c-51 -229 -32 -558 -244 -587c-193 -27 -292 432 -326 640c-48 -332 -96 -789 -523 -789c-160 0 -239 101 -239 193c0 66 43 127 129 146c26 -104 80 -158 156 -158c306 0 369 693 369 778c0 18 0 46 -1 61
c72 22 141 23 170 -9c21 -23 32 -55 35 -110c4 -77 78 -365 134 -478c42 -85 85 -132 100 -132c16 0 49 108 72 284c35 266 73 485 222 485zM886 -177c40 0 66 -31 66 -77c0 -64 -86 -160 -137 -160c-18 0 -33 13 -36 33c27 25 45 41 54 70c-23 13 -35 33 -35 57
c0 46 38 77 88 77z" />
    <glyph glyph-name="Ntilde.salt" horiz-adv-x="1354" 
d="M920 813c-46 -3 -75 15 -75 45c0 51 72 107 136 107c73 0 119 -58 148 -58c19 0 41 33 55 52c46 2 76 -14 76 -40c0 -40 -65 -112 -138 -112c-70 0 -119 58 -149 58c-15 0 -38 -22 -53 -52zM1376 776c57 0 88 -49 80 -118c-63 -44 -93 -20 -134 -206
c-51 -229 -32 -558 -244 -587c-193 -27 -292 432 -326 640c-48 -332 -96 -789 -523 -789c-160 0 -239 101 -239 193c0 66 43 127 129 146c26 -104 80 -158 156 -158c306 0 369 693 369 778c0 18 0 46 -1 61c72 22 141 23 170 -9c21 -23 32 -55 35 -110
c4 -77 78 -365 134 -478c42 -85 85 -132 100 -132c16 0 49 108 72 284c35 266 73 485 222 485z" />
    <glyph glyph-name="O.salt" horiz-adv-x="1653" 
d="M1357 780c224 0 281 -216 281 -367c0 -371 -249 -569 -486 -569c-219 0 -348 151 -348 393c0 59 12 135 33 209c-250 -158 -668 -151 -668 -514c0 -117 71 -200 180 -200c94 0 193 87 193 203c0 63 -20 89 -48 121c39 33 85 52 124 52c76 0 124 -62 124 -150
c0 -155 -171 -325 -412 -325c-188 0 -313 124 -313 294c0 487 611 452 909 704c32 41 71 67 114 67c31 0 58 -17 68 -42c-83 -73 -143 -227 -143 -405c0 -192 70 -318 189 -318c178 0 322 209 322 498c0 159 -50 264 -138 264c-84 0 -156 -89 -156 -196
c0 -81 45 -136 117 -134c-15 -72 -65 -119 -125 -119c-82 0 -130 69 -130 173c0 155 113 361 313 361z" />
    <glyph glyph-name="Oacute.salt" horiz-adv-x="1653" 
d="M1461 1033c0 -53 -134 -208 -216 -208c-26 0 -49 21 -58 30c93 93 112 159 126 189c20 13 50 22 79 22c40 0 69 -14 69 -33zM1357 780c224 0 281 -216 281 -367c0 -371 -249 -569 -486 -569c-219 0 -348 151 -348 393c0 59 12 135 33 209c-250 -158 -668 -151 -668 -514
c0 -117 71 -200 180 -200c94 0 193 87 193 203c0 63 -20 89 -48 121c39 33 85 52 124 52c76 0 124 -62 124 -150c0 -155 -171 -325 -412 -325c-188 0 -313 124 -313 294c0 487 611 452 909 704c32 41 71 67 114 67c31 0 58 -17 68 -42c-83 -73 -143 -227 -143 -405
c0 -192 70 -318 189 -318c178 0 322 209 322 498c0 159 -50 264 -138 264c-84 0 -156 -89 -156 -196c0 -81 45 -136 117 -134c-15 -72 -65 -119 -125 -119c-82 0 -130 69 -130 173c0 155 113 361 313 361z" />
    <glyph glyph-name="Ocircumflex.salt" horiz-adv-x="1653" 
d="M1131 824c-27 0 -45 16 -58 51c141 144 193 186 236 186s84 -42 190 -186c-22 -35 -44 -51 -70 -51c-41 0 -92 48 -134 120c-58 -71 -122 -120 -164 -120zM1357 780c224 0 281 -216 281 -367c0 -371 -249 -569 -486 -569c-219 0 -348 151 -348 393c0 59 12 135 33 209
c-250 -158 -668 -151 -668 -514c0 -117 71 -200 180 -200c94 0 193 87 193 203c0 63 -20 89 -48 121c39 33 85 52 124 52c76 0 124 -62 124 -150c0 -155 -171 -325 -412 -325c-188 0 -313 124 -313 294c0 487 611 452 909 704c32 41 71 67 114 67c31 0 58 -17 68 -42
c-83 -73 -143 -227 -143 -405c0 -192 70 -318 189 -318c178 0 322 209 322 498c0 159 -50 264 -138 264c-84 0 -156 -89 -156 -196c0 -81 45 -136 117 -134c-15 -72 -65 -119 -125 -119c-82 0 -130 69 -130 173c0 155 113 361 313 361z" />
    <glyph glyph-name="Odieresis.salt" horiz-adv-x="1653" 
d="M1177 845c-44 0 -72 26 -72 65c0 50 44 88 100 88c45 0 75 -27 75 -66c0 -50 -45 -87 -103 -87zM1373 845c-44 0 -72 26 -72 65c0 50 44 88 100 88c45 0 75 -27 75 -66c0 -50 -45 -87 -103 -87zM1357 780c224 0 281 -216 281 -367c0 -371 -249 -569 -486 -569
c-219 0 -348 151 -348 393c0 59 12 135 33 209c-250 -158 -668 -151 -668 -514c0 -117 71 -200 180 -200c94 0 193 87 193 203c0 63 -20 89 -48 121c39 33 85 52 124 52c76 0 124 -62 124 -150c0 -155 -171 -325 -412 -325c-188 0 -313 124 -313 294c0 487 611 452 909 704
c32 41 71 67 114 67c31 0 58 -17 68 -42c-83 -73 -143 -227 -143 -405c0 -192 70 -318 189 -318c178 0 322 209 322 498c0 159 -50 264 -138 264c-84 0 -156 -89 -156 -196c0 -81 45 -136 117 -134c-15 -72 -65 -119 -125 -119c-82 0 -130 69 -130 173
c0 155 113 361 313 361z" />
    <glyph glyph-name="Ograve.salt" horiz-adv-x="1653" 
d="M1340 825c-78 0 -166 140 -166 201c0 24 34 40 77 40c30 0 57 -9 74 -22c6 -30 10 -96 79 -189c-11 -9 -39 -30 -64 -30zM1357 780c224 0 281 -216 281 -367c0 -371 -249 -569 -486 -569c-219 0 -348 151 -348 393c0 59 12 135 33 209c-250 -158 -668 -151 -668 -514
c0 -117 71 -200 180 -200c94 0 193 87 193 203c0 63 -20 89 -48 121c39 33 85 52 124 52c76 0 124 -62 124 -150c0 -155 -171 -325 -412 -325c-188 0 -313 124 -313 294c0 487 611 452 909 704c32 41 71 67 114 67c31 0 58 -17 68 -42c-83 -73 -143 -227 -143 -405
c0 -192 70 -318 189 -318c178 0 322 209 322 498c0 159 -50 264 -138 264c-84 0 -156 -89 -156 -196c0 -81 45 -136 117 -134c-15 -72 -65 -119 -125 -119c-82 0 -130 69 -130 173c0 155 113 361 313 361z" />
    <glyph glyph-name="Ohungarumlaut.salt" horiz-adv-x="1653" 
d="M1360 827c-26 0 -49 21 -57 30c92 93 112 159 125 189c20 13 50 22 79 22c40 0 69 -14 69 -33c0 -53 -134 -208 -216 -208zM1385 1032c0 -53 -134 -208 -216 -208c-26 0 -49 21 -58 30c92 93 112 159 126 189c20 13 50 22 79 22c40 0 69 -14 69 -33zM1357 780
c224 0 281 -216 281 -367c0 -371 -249 -569 -486 -569c-219 0 -348 151 -348 393c0 59 12 135 33 209c-250 -158 -668 -151 -668 -514c0 -117 71 -200 180 -200c94 0 193 87 193 203c0 63 -20 89 -48 121c39 33 85 52 124 52c76 0 124 -62 124 -150
c0 -155 -171 -325 -412 -325c-188 0 -313 124 -313 294c0 487 611 452 909 704c32 41 71 67 114 67c31 0 58 -17 68 -42c-83 -73 -143 -227 -143 -405c0 -192 70 -318 189 -318c178 0 322 209 322 498c0 159 -50 264 -138 264c-84 0 -156 -89 -156 -196
c0 -81 45 -136 117 -134c-15 -72 -65 -119 -125 -119c-82 0 -130 69 -130 173c0 155 113 361 313 361z" />
    <glyph glyph-name="Omacron.salt" horiz-adv-x="1653" 
d="M1193 826c-82 0 -115 15 -115 53c0 18 8 35 18 47c40 -4 158 -3 207 -3c41 0 82 4 116 4c53 0 77 -12 77 -39c0 -20 -13 -47 -30 -64c-33 5 -56 7 -87 7c-22 0 -49 0 -85 -2c-40 -2 -73 -3 -101 -3zM1357 780c224 0 281 -216 281 -367c0 -371 -249 -569 -486 -569
c-219 0 -348 151 -348 393c0 59 12 135 33 209c-250 -158 -668 -151 -668 -514c0 -117 71 -200 180 -200c94 0 193 87 193 203c0 63 -20 89 -48 121c39 33 85 52 124 52c76 0 124 -62 124 -150c0 -155 -171 -325 -412 -325c-188 0 -313 124 -313 294c0 487 611 452 909 704
c32 41 71 67 114 67c31 0 58 -17 68 -42c-83 -73 -143 -227 -143 -405c0 -192 70 -318 189 -318c178 0 322 209 322 498c0 159 -50 264 -138 264c-84 0 -156 -89 -156 -196c0 -81 45 -136 117 -134c-15 -72 -65 -119 -125 -119c-82 0 -130 69 -130 173
c0 155 113 361 313 361z" />
    <glyph glyph-name="Oslash.salt" horiz-adv-x="1653" 
d="M1641 721c0 -4 -20 -32 -54 -77c38 -71 51 -159 51 -231c0 -371 -249 -569 -486 -569c-72 0 -133 16 -184 46c-44 -52 -68 -81 -57 -74l5 -9c-66 35 -92 60 -92 92c0 8 20 35 53 74c-47 67 -73 156 -73 264c0 59 12 135 33 209c-250 -158 -668 -151 -668 -514
c0 -117 71 -200 180 -200c94 0 193 87 193 203c0 63 -20 89 -48 121c39 33 85 52 124 52c76 0 124 -62 124 -150c0 -155 -171 -325 -412 -325c-188 0 -313 124 -313 294c0 487 611 452 909 704c32 41 71 67 114 67c31 0 58 -17 68 -42c-83 -73 -143 -227 -143 -405
c0 -58 6 -110 19 -154c41 48 88 102 138 160c-50 24 -78 83 -78 162c0 155 113 361 313 361c62 0 112 -17 151 -44c21 29 35 49 40 58c53 -6 90 -37 93 -73zM1338 695c-84 0 -156 -89 -156 -196c0 -50 17 -90 47 -113c72 87 145 177 203 251c-23 37 -55 58 -94 58zM1476 431
c0 24 -1 46 -3 67c-68 -85 -148 -185 -228 -281c-72 -87 -143 -170 -200 -237c29 -30 66 -47 109 -47c178 0 322 209 322 498z" />
    <glyph glyph-name="Otilde.salt" horiz-adv-x="1653" 
d="M1160 851c-46 -3 -75 15 -75 45c0 51 72 107 136 107c73 0 119 -58 148 -58c19 0 41 33 55 52c46 2 76 -14 76 -40c0 -40 -65 -112 -138 -112c-70 0 -119 58 -149 58c-15 0 -38 -22 -53 -52zM1357 780c224 0 281 -216 281 -367c0 -371 -249 -569 -486 -569
c-219 0 -348 151 -348 393c0 59 12 135 33 209c-250 -158 -668 -151 -668 -514c0 -117 71 -200 180 -200c94 0 193 87 193 203c0 63 -20 89 -48 121c39 33 85 52 124 52c76 0 124 -62 124 -150c0 -155 -171 -325 -412 -325c-188 0 -313 124 -313 294c0 487 611 452 909 704
c32 41 71 67 114 67c31 0 58 -17 68 -42c-83 -73 -143 -227 -143 -405c0 -192 70 -318 189 -318c178 0 322 209 322 498c0 159 -50 264 -138 264c-84 0 -156 -89 -156 -196c0 -81 45 -136 117 -134c-15 -72 -65 -119 -125 -119c-82 0 -130 69 -130 173
c0 155 113 361 313 361z" />
    <glyph glyph-name="P.salt" horiz-adv-x="1830" 
d="M1474 803c240 0 410 -119 410 -281c0 -185 -220 -398 -574 -398h-11c-11 -49 -19 -105 -19 -174c0 -50 7 -97 20 -124c-33 -9 -89 -16 -117 -13c-61 3 -80 44 -80 94c0 43 27 131 57 228c-219 51 -458 255 -681 255c-108 0 -192 -83 -192 -189c0 -38 16 -73 44 -95
c-31 -38 -79 -61 -129 -61c-88 0 -138 56 -138 150c0 230 205 334 389 334c282 0 548 -232 737 -297c28 93 52 181 52 232c0 33 -7 66 -26 91c29 29 61 42 90 42c47 0 85 -35 85 -93c0 -125 -36 -203 -67 -295c182 3 376 111 376 306c0 118 -105 195 -278 195
c-132 0 -295 -65 -295 -169c0 -37 23 -52 44 -67c-16 -33 -62 -57 -107 -57c-58 0 -99 43 -99 101c0 107 177 285 509 285z" />
    <glyph glyph-name="Q.salt" horiz-adv-x="1523" 
d="M1566 -127c26 -123 -28 -209 -129 -209c-109 0 -262 153 -388 181c-10 -1 -19 -1 -28 -1c-229 0 -362 153 -362 403c0 40 5 85 15 131c-83 -52 -183 -83 -279 -83c-147 0 -308 62 -308 197c0 92 65 167 165 191c-2 -63 56 -247 221 -247c102 0 208 72 285 160
c40 60 90 101 147 101c30 0 53 -16 59 -41c-75 -66 -153 -252 -153 -422c0 -191 74 -301 210 -301c193 0 313 254 313 501c0 140 -32 231 -104 231c-49 0 -98 -47 -127 -122c-69 -9 -116 26 -116 82c0 69 86 151 218 151c180 0 285 -133 285 -361c0 -208 -90 -427 -267 -522
c63 -28 123 -59 220 -59c30 0 76 10 123 39z" />
    <glyph glyph-name="R.salt" horiz-adv-x="1772" 
d="M1617 125c103 -175 175 -258 235 -272c-26 -81 -84 -128 -144 -117c-106 24 -161 215 -217 329c-25 51 -47 100 -71 128c-47 -8 -98 -13 -152 -13h-5c-19 -62 -34 -133 -34 -230c0 -50 7 -97 20 -124c-33 -9 -88 -16 -117 -13c-130 8 -70 170 -37 274c11 34 22 68 33 107
c-213 51 -451 204 -668 204c-108 0 -192 -83 -192 -189c0 -38 16 -73 44 -95c-31 -38 -79 -61 -129 -61c-88 0 -138 56 -138 150c0 230 205 334 389 334c277 0 532 -206 718 -259c6 24 13 51 20 81c16 52 20 103 20 120c0 31 -8 52 -26 76c23 23 117 65 153 19
c14 -14 21 -40 21 -68c0 -102 -24 -173 -49 -245c172 8 356 104 356 277c0 109 -104 180 -274 180c-130 0 -288 -59 -288 -153c0 -33 23 -48 45 -62c-15 -30 -72 -59 -115 -59c-57 0 -91 31 -91 80c0 116 173 279 499 279c236 0 405 -110 405 -259
c0 -115 -100 -243 -275 -313c15 -22 35 -56 64 -106z" />
    <glyph glyph-name="Racute.salt" horiz-adv-x="1772" 
d="M1627 1033c0 -53 -134 -208 -216 -208c-26 0 -49 21 -58 30c93 93 112 159 126 189c20 13 50 22 79 22c40 0 69 -14 69 -33zM1617 125c103 -175 175 -258 235 -272c-26 -81 -84 -128 -144 -117c-106 24 -161 215 -217 329c-25 51 -47 100 -71 128
c-47 -8 -98 -13 -152 -13h-5c-19 -62 -34 -133 -34 -230c0 -50 7 -97 20 -124c-33 -9 -88 -16 -117 -13c-130 8 -70 170 -37 274c11 34 22 68 33 107c-213 51 -451 204 -668 204c-108 0 -192 -83 -192 -189c0 -38 16 -73 44 -95c-31 -38 -79 -61 -129 -61
c-88 0 -138 56 -138 150c0 230 205 334 389 334c277 0 532 -206 718 -259c6 24 13 51 20 81c16 52 20 103 20 120c0 31 -8 52 -26 76c23 23 117 65 153 19c14 -14 21 -40 21 -68c0 -102 -24 -173 -49 -245c172 8 356 104 356 277c0 109 -104 180 -274 180
c-130 0 -288 -59 -288 -153c0 -33 23 -48 45 -62c-15 -30 -72 -59 -115 -59c-57 0 -91 31 -91 80c0 116 173 279 499 279c236 0 405 -110 405 -259c0 -115 -100 -243 -275 -313c15 -22 35 -56 64 -106z" />
    <glyph glyph-name="Rcaron.salt" horiz-adv-x="1772" 
d="M1442 826c-43 0 -85 42 -190 186c22 35 43 51 70 51c51 0 112 -69 142 -120c65 79 116 120 156 120c26 0 44 -16 57 -51c-140 -144 -192 -186 -235 -186zM1617 125c103 -175 175 -258 235 -272c-26 -81 -84 -128 -144 -117c-106 24 -161 215 -217 329
c-25 51 -47 100 -71 128c-47 -8 -98 -13 -152 -13h-5c-19 -62 -34 -133 -34 -230c0 -50 7 -97 20 -124c-33 -9 -88 -16 -117 -13c-130 8 -70 170 -37 274c11 34 22 68 33 107c-213 51 -451 204 -668 204c-108 0 -192 -83 -192 -189c0 -38 16 -73 44 -95
c-31 -38 -79 -61 -129 -61c-88 0 -138 56 -138 150c0 230 205 334 389 334c277 0 532 -206 718 -259c6 24 13 51 20 81c16 52 20 103 20 120c0 31 -8 52 -26 76c23 23 117 65 153 19c14 -14 21 -40 21 -68c0 -102 -24 -173 -49 -245c172 8 356 104 356 277
c0 109 -104 180 -274 180c-130 0 -288 -59 -288 -153c0 -33 23 -48 45 -62c-15 -30 -72 -59 -115 -59c-57 0 -91 31 -91 80c0 116 173 279 499 279c236 0 405 -110 405 -259c0 -115 -100 -243 -275 -313c15 -22 35 -56 64 -106z" />
    <glyph glyph-name="Rcommaaccent.salt" horiz-adv-x="1772" 
d="M1617 125c103 -175 175 -258 235 -272c-26 -81 -84 -128 -144 -117c-106 24 -161 215 -217 329c-25 51 -47 100 -71 128c-47 -8 -98 -13 -152 -13h-5c-19 -62 -34 -133 -34 -230c0 -50 7 -97 20 -124c-33 -9 -88 -16 -117 -13c-130 8 -70 170 -37 274c11 34 22 68 33 107
c-213 51 -451 204 -668 204c-108 0 -192 -83 -192 -189c0 -38 16 -73 44 -95c-31 -38 -79 -61 -129 -61c-88 0 -138 56 -138 150c0 230 205 334 389 334c277 0 532 -206 718 -259c6 24 13 51 20 81c16 52 20 103 20 120c0 31 -8 52 -26 76c23 23 117 65 153 19
c14 -14 21 -40 21 -68c0 -102 -24 -173 -49 -245c172 8 356 104 356 277c0 109 -104 180 -274 180c-130 0 -288 -59 -288 -153c0 -33 23 -48 45 -62c-15 -30 -72 -59 -115 -59c-57 0 -91 31 -91 80c0 116 173 279 499 279c236 0 405 -110 405 -259
c0 -115 -100 -243 -275 -313c15 -22 35 -56 64 -106zM1411 -220c40 0 66 -31 66 -77c0 -64 -86 -160 -137 -160c-18 0 -33 13 -36 33c27 25 45 41 54 70c-23 13 -35 33 -35 57c0 46 38 77 88 77z" />
    <glyph glyph-name="S.salt" horiz-adv-x="1504" 
d="M1457 87c0 -185 -222 -286 -427 -286c-263 0 -447 145 -689 145c-160 0 -225 -63 -294 -126c-27 28 -43 65 -43 108c0 128 117 217 305 217c167 0 311 -73 441 -139c96 -49 206 -100 329 -100c131 0 217 68 217 140c0 87 -156 100 -306 152c-168 58 -251 140 -251 259
c0 225 244 331 463 331c163 0 354 -61 354 -152c0 -64 -93 -93 -147 -88c-2 32 -72 149 -234 149c-134 0 -280 -79 -280 -190c0 -87 99 -129 215 -167c158 -51 347 -99 347 -253z" />
    <glyph glyph-name="Sacute.salt" horiz-adv-x="1504" 
d="M1175 825c-26 0 -49 21 -58 30c93 93 112 159 126 189c20 13 50 22 79 22c40 0 69 -14 69 -33c0 -53 -134 -208 -216 -208zM1457 87c0 -185 -222 -286 -427 -286c-263 0 -447 145 -689 145c-160 0 -225 -63 -294 -126c-27 28 -43 65 -43 108c0 128 117 217 305 217
c167 0 311 -73 441 -139c96 -49 206 -100 329 -100c131 0 217 68 217 140c0 87 -156 100 -306 152c-168 58 -251 140 -251 259c0 225 244 331 463 331c163 0 354 -61 354 -152c0 -64 -93 -93 -147 -88c-2 32 -72 149 -234 149c-134 0 -280 -79 -280 -190
c0 -87 99 -129 215 -167c158 -51 347 -99 347 -253z" />
    <glyph glyph-name="Scaron.salt" horiz-adv-x="1504" 
d="M1206 826c-43 0 -85 42 -190 186c22 35 43 51 70 51c51 0 112 -69 142 -120c65 79 116 120 156 120c26 0 44 -16 57 -51c-140 -144 -192 -186 -235 -186zM1457 87c0 -185 -222 -286 -427 -286c-263 0 -447 145 -689 145c-160 0 -225 -63 -294 -126c-27 28 -43 65 -43 108
c0 128 117 217 305 217c167 0 311 -73 441 -139c96 -49 206 -100 329 -100c131 0 217 68 217 140c0 87 -156 100 -306 152c-168 58 -251 140 -251 259c0 225 244 331 463 331c163 0 354 -61 354 -152c0 -64 -93 -93 -147 -88c-2 32 -72 149 -234 149
c-134 0 -280 -79 -280 -190c0 -87 99 -129 215 -167c158 -51 347 -99 347 -253z" />
    <glyph glyph-name="Scedilla.salt" horiz-adv-x="1504" 
d="M1175 697c-134 0 -280 -79 -280 -190c0 -87 99 -129 215 -167c158 -51 347 -99 347 -253c0 -166 -178 -264 -363 -283l-17 -28c50 -7 71 -38 71 -78c0 -66 -67 -121 -150 -121c-54 0 -86 28 -86 56c0 17 12 39 42 46c11 -15 24 -21 36 -21c19 0 35 16 35 41
s-21 39 -49 39l4 30l15 34c-245 12 -423 144 -654 144c-160 0 -225 -63 -294 -126c-27 28 -43 65 -43 108c0 128 117 217 305 217c167 0 311 -73 441 -139c96 -49 206 -100 329 -100c131 0 217 68 217 140c0 87 -156 100 -306 152c-168 58 -251 140 -251 259
c0 225 244 331 463 331c163 0 354 -61 354 -152c0 -64 -93 -93 -147 -88c-2 32 -72 149 -234 149z" />
    <glyph glyph-name="Scommaaccent.salt" horiz-adv-x="1504" 
d="M1457 87c0 -185 -222 -286 -427 -286c-263 0 -447 145 -689 145c-160 0 -225 -63 -294 -126c-27 28 -43 65 -43 108c0 128 117 217 305 217c167 0 311 -73 441 -139c96 -49 206 -100 329 -100c131 0 217 68 217 140c0 87 -156 100 -306 152c-168 58 -251 140 -251 259
c0 225 244 331 463 331c163 0 354 -61 354 -152c0 -64 -93 -93 -147 -88c-2 32 -72 149 -234 149c-134 0 -280 -79 -280 -190c0 -87 99 -129 215 -167c158 -51 347 -99 347 -253zM1066 -465c-18 0 -33 13 -36 33c27 25 45 41 54 70c-23 13 -35 33 -35 57c0 46 38 77 88 77
c40 0 66 -31 66 -77c0 -64 -86 -160 -137 -160z" />
    <glyph glyph-name="T.salt" horiz-adv-x="1178" 
d="M1505 882c50 -17 73 -44 73 -72c0 -85 -194 -85 -323 -85h-83c-44 -119 -110 -339 -141 -536c-22 -144 -24 -264 1 -326c-3 -10 -61 -23 -101 -23c-64 0 -102 34 -102 107c0 27 6 79 11 117c27 185 112 503 194 654c-265 -15 -497 -33 -622 -97
c-111 -57 -185 -168 -185 -275c0 -110 74 -199 174 -199c99 0 177 77 177 193c0 31 -4 69 -12 91c25 12 59 20 88 20c74 0 121 -54 121 -125c0 -107 -124 -291 -388 -291c-229 0 -319 151 -319 305c0 176 112 319 294 401c249 112 580 74 1052 99c49 5 70 15 91 42z" />
    <glyph glyph-name="Tbar.salt" horiz-adv-x="1178" 
d="M1255 725h-83c-17 -46 -37 -107 -57 -175c86 0 168 -4 168 -54c0 -22 -16 -50 -37 -66c-56 8 -93 10 -162 10c-21 -82 -40 -169 -53 -251c-22 -144 -24 -264 1 -326c-3 -10 -61 -23 -101 -23c-64 0 -102 34 -102 107c0 27 6 79 11 117c15 102 47 244 87 377
c-103 2 -154 13 -154 58c0 15 11 36 23 52c55 -2 84 -2 166 -2c24 66 48 124 72 169c-265 -15 -497 -33 -622 -97c-111 -57 -185 -168 -185 -275c0 -110 74 -199 174 -199c99 0 177 77 177 193c0 31 -4 69 -12 91c25 12 59 20 88 20c74 0 121 -54 121 -125
c0 -107 -124 -291 -388 -291c-229 0 -319 151 -319 305c0 176 112 319 294 401c249 112 580 74 1052 99c49 5 70 15 91 42c50 -17 73 -44 73 -72c0 -85 -194 -85 -323 -85z" />
    <glyph glyph-name="Tcaron.salt" horiz-adv-x="1178" 
d="M1098 851c-43 0 -85 42 -190 186c22 35 43 51 70 51c51 0 112 -69 142 -120c65 79 116 120 156 120c26 0 44 -16 57 -51c-140 -144 -192 -186 -235 -186zM1505 882c50 -17 73 -44 73 -72c0 -85 -194 -85 -323 -85h-83c-44 -119 -110 -339 -141 -536
c-22 -144 -24 -264 1 -326c-3 -10 -61 -23 -101 -23c-64 0 -102 34 -102 107c0 27 6 79 11 117c27 185 112 503 194 654c-265 -15 -497 -33 -622 -97c-111 -57 -185 -168 -185 -275c0 -110 74 -199 174 -199c99 0 177 77 177 193c0 31 -4 69 -12 91c25 12 59 20 88 20
c74 0 121 -54 121 -125c0 -107 -124 -291 -388 -291c-229 0 -319 151 -319 305c0 176 112 319 294 401c249 112 580 74 1052 99c49 5 70 15 91 42z" />
    <glyph glyph-name="uni0162.salt" horiz-adv-x="1178" 
d="M1505 882c50 -17 73 -44 73 -72c0 -85 -194 -85 -323 -85h-83c-44 -119 -110 -339 -141 -536c-22 -144 -24 -264 1 -326c-2 -8 -38 -17 -73 -21l-12 -20c50 -7 71 -38 71 -78c0 -66 -67 -121 -150 -121c-54 0 -86 28 -86 56c0 17 12 39 42 46c11 -15 24 -21 36 -21
c19 0 35 16 35 41s-21 39 -49 39l4 30l19 42c-26 16 -40 46 -40 91c0 27 6 79 11 117c27 185 112 503 194 654c-265 -15 -497 -33 -622 -97c-111 -57 -185 -168 -185 -275c0 -110 74 -199 174 -199c99 0 177 77 177 193c0 31 -4 69 -12 91c25 12 59 20 88 20
c74 0 121 -54 121 -125c0 -107 -124 -291 -388 -291c-229 0 -319 151 -319 305c0 176 112 319 294 401c249 112 580 74 1052 99c49 5 70 15 91 42z" />
    <glyph glyph-name="uni021A.salt" horiz-adv-x="1178" 
d="M1505 882c50 -17 73 -44 73 -72c0 -85 -194 -85 -323 -85h-83c-44 -119 -110 -339 -141 -536c-22 -144 -24 -264 1 -326c-3 -10 -61 -23 -101 -23c-64 0 -102 34 -102 107c0 27 6 79 11 117c27 185 112 503 194 654c-265 -15 -497 -33 -622 -97
c-111 -57 -185 -168 -185 -275c0 -110 74 -199 174 -199c99 0 177 77 177 193c0 31 -4 69 -12 91c25 12 59 20 88 20c74 0 121 -54 121 -125c0 -107 -124 -291 -388 -291c-229 0 -319 151 -319 305c0 176 112 319 294 401c249 112 580 74 1052 99c49 5 70 15 91 42z
M1007 -182c40 0 66 -31 66 -77c0 -64 -86 -160 -137 -160c-18 0 -33 13 -36 33c27 25 45 41 54 70c-23 13 -35 33 -35 57c0 46 38 77 88 77z" />
    <glyph glyph-name="U.salt" horiz-adv-x="1552" 
d="M1607 724c-31 -60 -143 -248 -143 -537c0 -138 21 -198 53 -251c-30 -28 -64 -51 -111 -51c-38 0 -76 18 -91 63c-10 30 -13 74 -12 127c-103 -147 -238 -266 -352 -266c-155 0 -225 152 -185 401c17 105 43 209 62 301c-102 -125 -264 -230 -430 -230
c-178 0 -314 102 -315 235c-1 84 62 145 182 177c-13 -158 51 -258 166 -263c115 0 317 95 411 301c28 30 66 46 117 46c50 0 79 -34 79 -89c0 -97 -85 -292 -117 -502c-25 -164 -6 -247 54 -247c117 0 309 265 377 499c21 99 46 189 68 245c19 49 64 70 108 70
c30 0 60 -10 79 -29z" />
    <glyph glyph-name="Uacute.salt" horiz-adv-x="1552" 
d="M1429 995c0 -53 -134 -208 -216 -208c-26 0 -49 21 -58 30c93 93 112 159 126 189c20 13 50 22 79 22c40 0 69 -14 69 -33zM1607 724c-31 -60 -143 -248 -143 -537c0 -138 21 -198 53 -251c-30 -28 -64 -51 -111 -51c-38 0 -76 18 -91 63c-10 30 -13 74 -12 127
c-103 -147 -238 -266 -352 -266c-155 0 -225 152 -185 401c17 105 43 209 62 301c-102 -125 -264 -230 -430 -230c-178 0 -314 102 -315 235c-1 84 62 145 182 177c-13 -158 51 -258 166 -263c115 0 317 95 411 301c28 30 66 46 117 46c50 0 79 -34 79 -89
c0 -97 -85 -292 -117 -502c-25 -164 -6 -247 54 -247c117 0 309 265 377 499c21 99 46 189 68 245c19 49 64 70 108 70c30 0 60 -10 79 -29z" />
    <glyph glyph-name="Ucircumflex.salt" horiz-adv-x="1552" 
d="M1099 786c-27 0 -45 16 -58 51c141 144 193 186 236 186s84 -42 190 -186c-22 -35 -44 -51 -70 -51c-41 0 -92 48 -134 120c-58 -71 -122 -120 -164 -120zM1607 724c-31 -60 -143 -248 -143 -537c0 -138 21 -198 53 -251c-30 -28 -64 -51 -111 -51c-38 0 -76 18 -91 63
c-10 30 -13 74 -12 127c-103 -147 -238 -266 -352 -266c-155 0 -225 152 -185 401c17 105 43 209 62 301c-102 -125 -264 -230 -430 -230c-178 0 -314 102 -315 235c-1 84 62 145 182 177c-13 -158 51 -258 166 -263c115 0 317 95 411 301c28 30 66 46 117 46
c50 0 79 -34 79 -89c0 -97 -85 -292 -117 -502c-25 -164 -6 -247 54 -247c117 0 309 265 377 499c21 99 46 189 68 245c19 49 64 70 108 70c30 0 60 -10 79 -29z" />
    <glyph glyph-name="Udieresis.salt" horiz-adv-x="1552" 
d="M1145 807c-44 0 -72 26 -72 65c0 50 44 88 100 88c45 0 75 -27 75 -66c0 -50 -45 -87 -103 -87zM1341 807c-44 0 -72 26 -72 65c0 50 44 88 100 88c45 0 75 -27 75 -66c0 -50 -45 -87 -103 -87zM1607 724c-31 -60 -143 -248 -143 -537c0 -138 21 -198 53 -251
c-30 -28 -64 -51 -111 -51c-38 0 -76 18 -91 63c-10 30 -13 74 -12 127c-103 -147 -238 -266 -352 -266c-155 0 -225 152 -185 401c17 105 43 209 62 301c-102 -125 -264 -230 -430 -230c-178 0 -314 102 -315 235c-1 84 62 145 182 177c-13 -158 51 -258 166 -263
c115 0 317 95 411 301c28 30 66 46 117 46c50 0 79 -34 79 -89c0 -97 -85 -292 -117 -502c-25 -164 -6 -247 54 -247c117 0 309 265 377 499c21 99 46 189 68 245c19 49 64 70 108 70c30 0 60 -10 79 -29z" />
    <glyph glyph-name="Ugrave.salt" horiz-adv-x="1552" 
d="M1308 787c-78 0 -166 140 -166 201c0 24 34 40 77 40c30 0 57 -9 74 -22c6 -30 10 -96 79 -189c-11 -9 -39 -30 -64 -30zM1607 724c-31 -60 -143 -248 -143 -537c0 -138 21 -198 53 -251c-30 -28 -64 -51 -111 -51c-38 0 -76 18 -91 63c-10 30 -13 74 -12 127
c-103 -147 -238 -266 -352 -266c-155 0 -225 152 -185 401c17 105 43 209 62 301c-102 -125 -264 -230 -430 -230c-178 0 -314 102 -315 235c-1 84 62 145 182 177c-13 -158 51 -258 166 -263c115 0 317 95 411 301c28 30 66 46 117 46c50 0 79 -34 79 -89
c0 -97 -85 -292 -117 -502c-25 -164 -6 -247 54 -247c117 0 309 265 377 499c21 99 46 189 68 245c19 49 64 70 108 70c30 0 60 -10 79 -29z" />
    <glyph glyph-name="Uhungarumlaut.salt" horiz-adv-x="1552" 
d="M1328 789c-26 0 -49 21 -57 30c92 93 112 159 125 189c20 13 50 22 79 22c40 0 69 -14 69 -33c0 -53 -134 -208 -216 -208zM1353 994c0 -53 -134 -208 -216 -208c-26 0 -49 21 -58 30c92 93 112 159 126 189c20 13 50 22 79 22c40 0 69 -14 69 -33zM1607 724
c-31 -60 -143 -248 -143 -537c0 -138 21 -198 53 -251c-30 -28 -64 -51 -111 -51c-38 0 -76 18 -91 63c-10 30 -13 74 -12 127c-103 -147 -238 -266 -352 -266c-155 0 -225 152 -185 401c17 105 43 209 62 301c-102 -125 -264 -230 -430 -230c-178 0 -314 102 -315 235
c-1 84 62 145 182 177c-13 -158 51 -258 166 -263c115 0 317 95 411 301c28 30 66 46 117 46c50 0 79 -34 79 -89c0 -97 -85 -292 -117 -502c-25 -164 -6 -247 54 -247c117 0 309 265 377 499c21 99 46 189 68 245c19 49 64 70 108 70c30 0 60 -10 79 -29z" />
    <glyph glyph-name="Umacron.salt" horiz-adv-x="1552" 
d="M1161 788c-82 0 -115 15 -115 53c0 18 8 35 18 47c40 -4 158 -3 207 -3c41 0 82 4 116 4c53 0 77 -12 77 -39c0 -20 -13 -47 -30 -64c-33 5 -56 7 -87 7c-22 0 -49 0 -85 -2c-40 -2 -73 -3 -101 -3zM1607 724c-31 -60 -143 -248 -143 -537c0 -138 21 -198 53 -251
c-30 -28 -64 -51 -111 -51c-38 0 -76 18 -91 63c-10 30 -13 74 -12 127c-103 -147 -238 -266 -352 -266c-155 0 -225 152 -185 401c17 105 43 209 62 301c-102 -125 -264 -230 -430 -230c-178 0 -314 102 -315 235c-1 84 62 145 182 177c-13 -158 51 -258 166 -263
c115 0 317 95 411 301c28 30 66 46 117 46c50 0 79 -34 79 -89c0 -97 -85 -292 -117 -502c-25 -164 -6 -247 54 -247c117 0 309 265 377 499c21 99 46 189 68 245c19 49 64 70 108 70c30 0 60 -10 79 -29z" />
    <glyph glyph-name="Uogonek.salt" horiz-adv-x="1552" 
d="M1454 -106c-47 -41 -74 -73 -74 -102c0 -17 6 -26 18 -26c14 0 33 8 55 24c23 -7 34 -20 34 -38c0 -38 -58 -72 -115 -72c-70 0 -118 40 -118 96c0 63 53 104 95 126c-15 10 -27 25 -34 46c-10 30 -13 74 -12 127c-103 -147 -238 -266 -352 -266
c-155 0 -225 152 -185 401c17 105 43 209 62 301c-102 -125 -264 -230 -430 -230c-178 0 -314 102 -315 235c-1 84 62 145 182 177c-13 -158 51 -258 166 -263c115 0 317 95 411 301c28 30 66 46 117 46c50 0 79 -34 79 -89c0 -97 -85 -292 -117 -502
c-25 -164 -6 -247 54 -247c117 0 309 265 377 499c21 99 46 189 68 245c19 49 64 70 108 70c30 0 60 -10 79 -29c-31 -60 -143 -248 -143 -537c0 -138 21 -198 53 -251c-19 -17 -39 -33 -63 -42z" />
    <glyph glyph-name="Uring.salt" horiz-adv-x="1552" 
d="M1246 797c-65 0 -108 40 -108 97c0 70 61 121 136 121c64 0 107 -40 107 -97c0 -70 -60 -121 -135 -121zM1266 956c-18 0 -32 -24 -32 -63c0 -24 7 -37 18 -37c19 0 32 25 32 64c0 23 -7 36 -18 36zM1607 724c-31 -60 -143 -248 -143 -537c0 -138 21 -198 53 -251
c-30 -28 -64 -51 -111 -51c-38 0 -76 18 -91 63c-10 30 -13 74 -12 127c-103 -147 -238 -266 -352 -266c-155 0 -225 152 -185 401c17 105 43 209 62 301c-102 -125 -264 -230 -430 -230c-178 0 -314 102 -315 235c-1 84 62 145 182 177c-13 -158 51 -258 166 -263
c115 0 317 95 411 301c28 30 66 46 117 46c50 0 79 -34 79 -89c0 -97 -85 -292 -117 -502c-25 -164 -6 -247 54 -247c117 0 309 265 377 499c21 99 46 189 68 245c19 49 64 70 108 70c30 0 60 -10 79 -29z" />
    <glyph glyph-name="V.salt" horiz-adv-x="1969" 
d="M1860 850c115 0 141 -146 141 -244c0 -372 -379 -798 -527 -798c-40 0 -115 85 -123 121c-21 127 -22 203 -53 392c-21 128 -45 200 -75 244c-40 -32 -97 -61 -160 -78c-169 -45 -343 -33 -509 -78c-163 -44 -255 -129 -255 -235c0 -66 46 -129 90 -170
c-63 -57 -125 -82 -180 -82c-94 0 -163 81 -163 207c0 179 155 324 390 387c260 69 626 1 738 163c19 26 49 40 89 40c195 0 200 -406 234 -716c2 -27 8 -42 20 -51c109 44 323 333 323 611c0 102 -26 195 -78 254c33 17 57 33 98 33z" />
    <glyph glyph-name="W.salt" horiz-adv-x="1920" 
d="M1813 871c120 0 152 -89 118 -335c-30 -219 -164 -661 -440 -661c-203 0 -196 343 -207 484c-17 -72 -42 -159 -67 -233c-46 -165 -144 -285 -236 -285c-82 0 -125 50 -125 171c0 105 34 277 34 386c0 10 0 34 -1 44c-122 -139 -280 -216 -445 -216
c-191 0 -356 134 -356 279c0 111 82 175 226 178c-11 -96 2 -319 207 -319c152 0 273 106 392 234c25 27 68 45 110 45c44 0 64 -35 64 -105c0 -120 -85 -381 -85 -480c0 -37 10 -65 23 -65c43 0 145 196 183 510c12 100 138 139 168 139c46 0 52 -39 54 -77
c7 -169 -69 -553 73 -553c18 0 246 46 246 560c0 102 -11 237 -31 288c32 7 66 11 95 11z" />
    </font>
</defs>
</svg>
